<?xml version="1.0" encoding="UTF-8" standalone="no"?>
<!-- Generator: Iparigrafika Gear Generator by Abel Vincze http://geargenerator.com/ -->

<svg
   xmlns:dc="http://purl.org/dc/elements/1.1/"
   xmlns:cc="http://creativecommons.org/ns#"
   xmlns:rdf="http://www.w3.org/1999/02/22-rdf-syntax-ns#"
   xmlns:svg="http://www.w3.org/2000/svg"
   xmlns="http://www.w3.org/2000/svg"
   xmlns:sodipodi="http://sodipodi.sourceforge.net/DTD/sodipodi-0.dtd"
   xmlns:inkscape="http://www.inkscape.org/namespaces/inkscape"
   version="1.2"
   class="svggear"
   x="0px"
   y="0px"
   width="868px"
   height="868px"
   viewBox="-434 -434 868 868"
   overflow="scroll"
   xml:space="preserve"
   id="svg2"
   inkscape:version="0.48.4 r9939"
   sodipodi:docname="50.dxf"><metadata
     id="metadata109"><rdf:RDF><cc:Work
         rdf:about=""><dc:format>image/svg+xml</dc:format><dc:type
           rdf:resource="http://purl.org/dc/dcmitype/StillImage" /><dc:title></dc:title></cc:Work></rdf:RDF></metadata><defs
     id="defs107" /><sodipodi:namedview
     pagecolor="#ffffff"
     bordercolor="#666666"
     borderopacity="1"
     objecttolerance="10"
     gridtolerance="10"
     guidetolerance="10"
     inkscape:pageopacity="0"
     inkscape:pageshadow="2"
     inkscape:window-width="960"
     inkscape:window-height="1014"
     id="namedview105"
     showgrid="false"
     inkscape:zoom="0.76901936"
     inkscape:cx="410.84566"
     inkscape:cy="364.19135"
     inkscape:window-x="1600"
     inkscape:window-y="27"
     inkscape:window-maximized="0"
     inkscape:current-layer="svg2" /><path
     style="fill:#dddddd;stroke:#444444;stroke-width:1;stroke-miterlimit:10"
     d="m 397.5,0 1.188,-0.9202 0.5242,-0.1038 0.5421,-0.1112 0.56,-0.1191 0.5777,-0.127 0.5955,-0.1353 0.6131,-0.1438 0.6307,-0.1526 0.648,-0.1616 0.6654,-0.1709 0.6827,-0.1803 0.6998,-0.1902 0.7168,-0.2001 0.7337,-0.2104 0.7506,-0.221 0.7673,-0.2316 0.7838,-0.2427 0.8004,-0.2539 0.8167,-0.2654 0.8329,-0.2771 0.8491,-0.289 0.865,-0.3013 0.8809,-0.3136 0.8966,-0.3264 0.9122,-0.3392 0.9277,-0.3524 0.9429,-0.3658 0.9581,-0.3793 0.9732,-0.3932 0.988,-0.4073 1.0027,-0.4215 1.0173,-0.436 1.0318,-0.4508 1.0459,-0.4657 1.0601,-0.4809 1.0741,-0.4963 1.0878,-0.5119 1.1014,-0.5277 1.1149,-0.5438 1.1281,-0.56 1.1412,-0.5765 0.481,-0.5715 -0.542,-11.8256 -0.5313,-0.5251 -1.1892,-0.4696 -1.1746,-0.4545 -1.16,-0.4395 -1.1451,-0.4247 -1.13,-0.4103 -1.115,-0.3959 -1.0996,-0.3819 -1.0842,-0.3681 -1.0687,-0.3544 -1.0529,-0.3412 -1.0371,-0.328 -1.0211,-0.3151 -1.0051,-0.3025 -0.9888,-0.2902 -0.9724,-0.2779 -0.956,-0.2661 -0.9394,-0.2543 -0.9227,-0.243 -0.9059,-0.2318 -0.889,-0.2208 -0.8719,-0.2102 -0.8548,-0.1997 -0.8376,-0.1896 -0.8202,-0.1796 -0.8028,-0.1699 -0.7852,-0.1605 -0.7677,-0.1513 -0.7499,-0.1424 -0.7321,-0.1337 -0.7142,-0.1254 -0.6963,-0.1171 -0.6783,-0.1093 -0.6601,-0.1016 -0.642,-0.0943 -0.6236,-0.0871 -0.6054,-0.0802 -0.587,-0.0737 -0.5685,-0.0673 -0.55,-0.0612 -0.5315,-0.0554 -1.2672,-0.8076 -1.4674,-13.4541 1.0633,-1.0618 0.507,-0.1686 0.5239,-0.1784 0.5407,-0.1883 0.5573,-0.1984 0.5738,-0.2089 0.5902,-0.2195 0.6066,-0.2304 0.6227,-0.2416 0.6387,-0.2529 0.6547,-0.2645 0.6704,-0.2763 0.6861,-0.2885 0.7016,-0.3007 0.7169,-0.3132 0.7322,-0.326 0.7473,-0.339 0.7622,-0.3522 0.777,-0.3657 0.7917,-0.3793 0.8061,-0.3931 0.8205,-0.4073 0.8346,-0.4217 0.8486,-0.4361 0.8625,-0.4509 0.8762,-0.4659 0.8896,-0.481 0.9031,-0.4965 0.9161,-0.512 0.9292,-0.5279 0.942,-0.5439 0.9547,-0.5601 0.9671,-0.5765 0.9793,-0.5931 0.9915,-0.61 1.0034,-0.627 1.015,-0.6442 1.0266,-0.6616 1.0379,-0.6792 1.0491,-0.697 1.06,-0.715 0.4056,-0.6273 -2.02,-11.6643 -0.5929,-0.4544 -1.2387,-0.3169 -1.2223,-0.3037 -1.2059,-0.2906 -1.1892,-0.2779 -1.1726,-0.2654 -1.1558,-0.2531 -1.1388,-0.241 -1.1218,-0.2293 -1.1047,-0.2178 -1.0873,-0.2064 -1.0701,-0.1955 -1.0526,-0.1847 -1.035,-0.1741 -1.0173,-0.1639 -0.9997,-0.1539 -0.9818,-0.1441 -0.9638,-0.1347 -0.9459,-0.1254 -0.9278,-0.1164 -0.9097,-0.1077 -0.8914,-0.0992 -0.873,-0.091 -0.8548,-0.0831 -0.8362,-0.0754 -0.8178,-0.0679 -0.7992,-0.0609 -0.7805,-0.0539 -0.7619,-0.0473 -0.7431,-0.0409 -0.7243,-0.0348 -0.7055,-0.029 -0.6866,-0.0234 -0.6676,-0.0181 -0.6487,-0.013 -0.6297,-0.0083 -0.6107,-0.0037 -0.5915,5e-4 -0.5725,0.0045 -0.5534,0.0082 -0.5342,0.0116 -1.3584,-0.6424 -3.1421,-13.164 0.9219,-1.1867 0.4819,-0.2309 0.4974,-0.2426 0.5127,-0.2546 0.5281,-0.2667 0.5431,-0.2792 0.5581,-0.2917 0.5728,-0.3046 0.5876,-0.3177 0.602,-0.331 0.6163,-0.3445 0.6305,-0.3582 0.6445,-0.3721 0.6584,-0.3863 0.6721,-0.4006 0.6855,-0.4152 0.6989,-0.43 0.7121,-0.4449 0.725,-0.4602 0.7379,-0.4755 0.7505,-0.4911 0.7629,-0.507 0.7752,-0.5229 0.7873,-0.539 0.7992,-0.5555 0.8108,-0.572 0.8224,-0.5888 0.8337,-0.6057 0.8448,-0.6228 0.8557,-0.6402 0.8664,-0.6576 0.8769,-0.6754 0.8872,-0.6931 0.8973,-0.7112 0.9072,-0.7295 0.9169,-0.7478 0.9263,-0.7663 0.9356,-0.7851 0.9446,-0.8039 0.9534,-0.823 0.962,-0.8422 0.3238,-0.6731 -3.466,-11.3193 -0.6451,-0.3765 -1.2687,-0.1591 -1.2507,-0.1481 -1.2328,-0.1372 -1.2147,-0.1267 -1.1966,-0.1163 -1.1784,-0.1062 -1.1601,-0.0964 -1.1417,-0.0869 -1.1232,-0.0776 -1.1047,-0.0685 -1.0861,-0.0598 -1.0674,-0.0513 -1.0487,-0.0431 -1.0299,-0.0351 -1.011,-0.0274 -0.9921,-0.0199 -0.9732,-0.0128 -0.9541,-0.006 -0.9351,8e-4 -0.9159,0.007 -0.8968,0.0133 -0.8777,0.0191 -0.8583,0.0247 -0.8392,0.0301 -0.8198,0.035 -0.8005,0.0398 -0.7811,0.0444 -0.7618,0.0485 -0.7424,0.0526 -0.723,0.0562 -0.7035,0.0597 -0.6841,0.0628 -0.6647,0.0658 -0.6452,0.0683 -0.6258,0.0708 -0.6063,0.0728 -0.5868,0.0746 -0.5674,0.0762 -0.548,0.0775 -0.5285,0.0785 -1.4283,-0.4671 -4.7671,-12.6664 0.7658,-1.2929 0.4492,-0.2895 0.463,-0.303 0.4769,-0.3168 0.4904,-0.3308 0.5039,-0.345 0.5171,-0.3594 0.5301,-0.3741 0.5431,-0.3888 0.5558,-0.4038 0.5683,-0.419 0.5806,-0.4344 0.5928,-0.45 0.6048,-0.4657 0.6166,-0.4817 0.6281,-0.4979 0.6395,-0.5142 0.6506,-0.5306 0.6617,-0.5474 0.6724,-0.5643 0.6831,-0.5813 0.6934,-0.5985 0.7035,-0.616 0.7135,-0.6335 0.7233,-0.6512 0.7327,-0.6691 0.7421,-0.6872 0.7512,-0.7055 0.7601,-0.7238 0.7687,-0.7423 0.7771,-0.7611 0.7854,-0.7799 0.7933,-0.7989 0.8011,-0.8181 0.8087,-0.8373 0.8159,-0.8568 0.823,-0.8764 0.8298,-0.8962 0.8364,-0.916 0.8427,-0.9359 0.8489,-0.9562 0.2368,-0.7084 -4.8573,-10.7956 -0.6873,-0.2926 -1.2785,0.001 -1.2595,0.01 -1.2402,0.0184 -1.2211,0.0266 -1.2017,0.0346 -1.1824,0.0423 -1.163,0.0497 -1.1436,0.0569 -1.1241,0.0638 -1.1045,0.0704 -1.085,0.0768 -1.0655,0.0829 -1.0458,0.0887 -1.0262,0.0943 -1.0065,0.0995 -0.9867,0.1046 -0.9671,0.1093 -0.9474,0.1138 -0.9276,0.118 -0.9078,0.1219 -0.8881,0.1256 -0.8683,0.1289 -0.8485,0.1321 -0.8287,0.135 -0.809,0.1375 -0.7892,0.1398 -0.7694,0.1419 -0.7497,0.1437 -0.73,0.1452 -0.7102,0.1464 -0.6905,0.1474 -0.6708,0.148 -0.6512,0.1486 -0.6316,0.1487 -0.6119,0.1485 -0.5924,0.1483 -0.5729,0.1476 -0.5534,0.1467 -0.5339,0.1455 -0.5145,0.1441 -1.4756,-0.2843 -6.3171,-11.9691 0.5978,-1.3787 0.4093,-0.3434 0.4214,-0.3587 0.4334,-0.3741 0.4451,-0.3897 0.4567,-0.4054 0.4679,-0.4214 0.4792,-0.4375 0.49,-0.4538 0.5008,-0.4703 0.5113,-0.4869 0.5216,-0.5038 0.5318,-0.5207 0.5416,-0.5379 0.5513,-0.5552 0.5608,-0.5726 0.57,-0.5903 0.579,-0.6081 0.5878,-0.626 0.5965,-0.6441 0.6047,-0.6623 0.613,-0.6807 0.6208,-0.6993 0.6284,-0.7179 0.636,-0.7367 0.6431,-0.7557 0.6501,-0.7748 0.6569,-0.794 0.6633,-0.8134 0.6696,-0.8328 0.6757,-0.8525 0.6814,-0.8722 0.6869,-0.892 0.6923,-0.912 0.6973,-0.9322 0.7021,-0.9523 0.7066,-0.9726 0.711,-0.9931 0.715,-1.0136 0.7188,-1.0342 0.7223,-1.055 0.1462,-0.7325 -6.172,-10.1017 -0.7186,-0.2042 -1.2683,0.1613 -1.2483,0.1677 -1.2282,0.1736 -1.2081,0.1795 -1.1879,0.1849 -1.1678,0.1902 -1.1476,0.1951 -1.1274,0.1997 -1.1072,0.2042 -1.087,0.2083 -1.0669,0.2122 -1.0466,0.2158 -1.0265,0.2191 -1.0062,0.2221 -0.9861,0.2249 -0.9659,0.2274 -0.9458,0.2297 -0.9256,0.2316 -0.9055,0.2333 -0.8854,0.2347 -0.8653,0.2359 -0.8453,0.2368 -0.8253,0.2374 -0.8053,0.2378 -0.7853,0.2378 -0.7655,0.2377 -0.7456,0.2372 -0.7257,0.2364 -0.706,0.2356 -0.6863,0.2342 -0.6666,0.2328 -0.647,0.231 -0.6274,0.229 -0.608,0.2266 -0.5885,0.2242 -0.5691,0.2213 -0.5499,0.2182 -0.5306,0.2149 -0.5115,0.2113 -0.4924,0.2075 -1.4995,-0.0972 -7.7674,-11.0829 0.4202,-1.4428 0.3631,-0.392 0.3731,-0.4087 0.3831,-0.4255 0.3928,-0.4423 0.4022,-0.4595 0.4115,-0.4767 0.4205,-0.4942 0.4293,-0.5116 0.4379,-0.5293 0.4462,-0.5472 0.4544,-0.5652 0.4623,-0.5832 0.4699,-0.6015 0.4774,-0.6199 0.4846,-0.6385 0.4915,-0.657 0.4983,-0.6759 0.5047,-0.6947 0.511,-0.7138 0.517,-0.7329 0.5227,-0.7522 0.5283,-0.7715 0.5336,-0.791 0.5385,-0.8107 0.5434,-0.8303 0.5479,-0.8502 0.5521,-0.87 0.5562,-0.8901 0.5599,-0.9102 0.5635,-0.9305 0.5667,-0.9507 0.5698,-0.9711 0.5725,-0.9916 0.5749,-1.0121 0.5772,-1.0328 0.5792,-1.0536 0.5809,-1.0743 0.5823,-1.0952 0.5835,-1.1162 0.5844,-1.1372 0.0532,-0.7451 -7.3894,-9.2484 -0.7385,-0.1126 -1.2381,0.3191 -1.2174,0.3227 -1.1967,0.3263 -1.1761,0.3294 -1.1554,0.3324 -1.1347,0.335 -1.1141,0.3374 -1.0935,0.3395 -1.0729,0.3413 -1.0524,0.3429 -1.0318,0.3443 -1.0113,0.3452 -0.9909,0.346 -0.9705,0.3465 -0.9501,0.3467 -0.9298,0.3467 -0.9095,0.3464 -0.8893,0.3458 -0.8691,0.3449 -0.849,0.3439 -0.829,0.3425 -0.8089,0.3408 -0.789,0.339 -0.7692,0.3368 -0.7493,0.3344 -0.7297,0.3317 -0.7099,0.3288 -0.6904,0.3256 -0.6709,0.3221 -0.6515,0.3185 -0.6322,0.3144 -0.6129,0.3103 -0.5938,0.3058 -0.5748,0.3011 -0.5558,0.2961 -0.5369,0.2909 -0.5181,0.2854 -0.4995,0.2797 -0.481,0.2738 -0.4625,0.2675 -1.4999,0.0915 -9.0953,-10.022 0.2362,-1.484 0.311,-0.4345 0.319,-0.4522 0.3267,-0.4701 0.3342,-0.4881 0.3415,-0.5063 0.3485,-0.5245 0.3553,-0.5429 0.3618,-0.5615 0.3681,-0.58 0.3741,-0.5988 0.38,-0.6177 0.3855,-0.6366 0.3908,-0.6556 0.396,-0.6749 0.4007,-0.6941 0.4053,-0.7135 0.4096,-0.7329 0.4137,-0.7526 0.4175,-0.7721 0.4211,-0.792 0.4243,-0.8117 0.4275,-0.8317 0.4301,-0.8517 0.4328,-0.8717 0.435,-0.8919 0.437,-0.9121 0.4387,-0.9324 0.4403,-0.9528 0.4414,-0.9732 0.4424,-0.9937 0.4431,-1.0143 0.4436,-1.0348 0.4436,-1.0556 0.4436,-1.0762 0.4432,-1.097 0.4426,-1.1178 0.4416,-1.1387 0.4405,-1.1595 0.439,-1.1805 0.4373,-1.2015 -0.0406,-0.7459 -8.4903,-8.2494 -0.7467,-0.0191 -1.1884,0.4717 -1.1674,0.4728 -1.1464,0.4737 -1.1255,0.4742 -1.1046,0.4745 -1.0838,0.4746 -1.063,0.4744 -1.0423,0.4739 -1.0217,0.4731 -1.0011,0.4721 -0.9805,0.4708 -0.9601,0.4693 -0.9398,0.4675 -0.9194,0.4654 -0.8991,0.4631 -0.879,0.4605 -0.859,0.4576 -0.8389,0.4545 -0.819,0.4512 -0.7992,0.4475 -0.7795,0.4437 -0.7599,0.4396 -0.7403,0.4351 -0.7208,0.4306 -0.7016,0.4257 -0.6823,0.4205 -0.6631,0.4152 -0.6442,0.4095 -0.6252,0.4037 -0.6065,0.3976 -0.5877,0.3912 -0.5693,0.3847 -0.5507,0.3778 -0.5325,0.3707 -0.5143,0.3634 -0.4962,0.3559 -0.4783,0.3482 -0.4605,0.3401 -0.4429,0.3319 -0.4253,0.3234 -1.4767,0.2787 -10.2796,-8.803 0.0483,-1.5019 0.2542,-0.4701 0.2598,-0.4886 0.2652,-0.5074 0.2704,-0.5261 0.2753,-0.5451 0.28,-0.5641 0.2844,-0.5831 0.2886,-0.6024 0.2925,-0.6216 0.2961,-0.6409 0.2996,-0.6604 0.3027,-0.6799 0.3056,-0.6995 0.3082,-0.7192 0.3106,-0.7388 0.3127,-0.7587 0.3145,-0.7785 0.3161,-0.7985 0.3174,-0.8184 0.3185,-0.8384 0.3193,-0.8586 0.3198,-0.8787 0.3201,-0.8988 0.32,-0.9191 0.3198,-0.9394 0.3192,-0.9597 0.3185,-0.9801 0.3173,-1.0004 0.316,-1.0209 0.3144,-1.0413 0.3125,-1.0618 0.3103,-1.0823 0.3079,-1.1028 0.3052,-1.1233 0.3022,-1.1439 0.299,-1.1645 0.2955,-1.185 0.2916,-1.2057 0.2876,-1.2262 0.2833,-1.2468 -0.1338,-0.7349 -9.4573,-7.1202 -0.7432,0.0746 -1.1199,0.6169 -1.0989,0.6154 -1.078,0.6136 -1.0572,0.6116 -1.0364,0.6092 -1.0158,0.6067 -0.9952,0.6039 -0.9747,0.6008 -0.9543,0.5974 -0.934,0.5939 -0.9138,0.59 -0.8938,0.5859 -0.8737,0.5816 -0.8538,0.5769 -0.834,0.5721 -0.8144,0.5671 -0.7948,0.5616 -0.7753,0.5561 -0.7561,0.5503 -0.7368,0.5442 -0.7177,0.5378 -0.6988,0.5314 -0.6799,0.5245 -0.6612,0.5175 -0.6427,0.5102 -0.6242,0.5028 -0.6059,0.495 -0.5877,0.4871 -0.5697,0.4788 -0.5519,0.4705 -0.5341,0.4618 -0.5165,0.4529 -0.4991,0.4439 -0.4818,0.4346 -0.4647,0.425 -0.4477,0.4153 -0.4309,0.4053 -0.4142,0.3951 -0.3978,0.3848 -0.3814,0.3742 -1.4301,0.4616 -11.3018,-7.4453 -0.1404,-1.4961 0.1932,-0.4982 0.1965,-0.5173 0.1996,-0.5366 0.2023,-0.5559 0.2048,-0.5753 0.2071,-0.5947 0.2091,-0.6142 0.2108,-0.6338 0.2123,-0.6533 0.2135,-0.6731 0.2144,-0.6927 0.2151,-0.7125 0.2155,-0.7322 0.2157,-0.7521 0.2155,-0.772 0.2151,-0.7919 0.2145,-0.8118 0.2136,-0.8317 0.2123,-0.8518 0.2109,-0.8718 0.2092,-0.8917 0.2071,-0.9119 0.2049,-0.9319 0.2023,-0.9519 0.1996,-0.9721 0.1964,-0.9921 0.1931,-1.0123 0.1894,-1.0323 0.1856,-1.0524 0.1814,-1.0725 0.1769,-1.0926 0.1723,-1.1127 0.1672,-1.1327 0.162,-1.1527 0.1565,-1.1728 0.1506,-1.1927 0.1446,-1.2128 0.1383,-1.2326 0.1316,-1.2526 0.1248,-1.2725 -0.2248,-0.7123 -10.2751,-5.8788 -0.7281,0.1672 -1.0337,0.7524 -1.0131,0.7483 -0.9926,0.7438 -0.9722,0.7393 -0.9519,0.7343 -0.9317,0.7292 -0.9117,0.7239 -0.8917,0.7182 -0.8719,0.7123 -0.8522,0.7062 -0.8327,0.6999 -0.8132,0.6933 -0.794,0.6865 -0.7747,0.6794 -0.7558,0.6722 -0.7369,0.6646 -0.7181,0.6569 -0.6995,0.6488 -0.6811,0.6407 -0.6628,0.6323 -0.6447,0.6236 -0.6266,0.6147 -0.6089,0.6056 -0.5911,0.5963 -0.5736,0.5867 -0.5563,0.577 -0.5391,0.5671 -0.5221,0.5569 -0.5052,0.5465 -0.4885,0.5359 -0.472,0.5251 -0.4557,0.5141 -0.4395,0.5029 -0.4236,0.4915 -0.4077,0.4799 -0.3921,0.4682 -0.3767,0.4561 -0.3615,0.444 -0.3464,0.4315 -0.3315,0.4191 -1.361,0.6372 -12.1458,-5.9701 -0.3268,-1.4667 0.1293,-0.5185 0.1301,-0.5379 0.1307,-0.5573 0.1311,-0.5769 0.1311,-0.5964 0.1309,-0.616 0.1305,-0.6356 0.1297,-0.6552 0.1287,-0.6748 0.1275,-0.6945 0.1259,-0.7141 0.1241,-0.7338 0.122,-0.7535 0.1197,-0.7732 0.1171,-0.7929 0.1141,-0.8126 0.1111,-0.8323 0.1076,-0.852 0.1039,-0.8716 0.1,-0.8913 0.0957,-0.911 0.0913,-0.9306 0.0864,-0.9502 0.0815,-0.9699 0.0761,-0.9894 0.0705,-1.0089 0.0647,-1.0285 0.0586,-1.0479 0.0522,-1.0674 0.0455,-1.0867 0.0386,-1.1062 0.0315,-1.1255 0.0239,-1.1447 0.0163,-1.1639 0.008,-1.1832 0,-1.2022 -0.008,-1.2213 -0.0174,-1.2403 -0.0263,-1.2592 -0.0358,-1.278 -0.3123,-0.6786 -10.9309,-4.5446 -0.7013,0.2571 -0.9313,0.8761 -0.9113,0.8693 -0.8916,0.8624 -0.8719,0.8553 -0.8523,0.8478 -0.833,0.8403 -0.8137,0.8323 -0.7947,0.8244 -0.7758,0.816 -0.7569,0.8074 -0.7384,0.7988 -0.7199,0.7897 -0.7017,0.7806 -0.6835,0.7712 -0.6655,0.7615 -0.6478,0.7518 -0.6302,0.7417 -0.6127,0.7314 -0.5954,0.721 -0.5783,0.7103 -0.5614,0.6995 -0.5447,0.6884 -0.5281,0.6771 -0.5118,0.6657 -0.4955,0.654 -0.4796,0.6422 -0.4638,0.6302 -0.4481,0.6179 -0.4328,0.6055 -0.4175,0.5929 -0.4024,0.5801 -0.3877,0.5672 -0.373,0.554 -0.3586,0.5408 -0.3444,0.5272 -0.3304,0.5136 -0.3165,0.4997 -0.303,0.4858 -0.2896,0.4716 -0.2764,0.4573 -1.2703,0.8027 -12.7983,-4.4007 -0.508,-1.4142 0.0632,-0.5306 0.0617,-0.5499 0.0598,-0.5694 0.0577,-0.5887 0.0554,-0.6082 0.0527,-0.6275 0.0497,-0.6469 0.0466,-0.6663 0.0431,-0.6857 0.0394,-0.7049 0.0354,-0.7243 0.0312,-0.7436 0.0266,-0.7629 0.0219,-0.7821 0.0167,-0.8013 0.0115,-0.8205 0.006,-0.8396 0,-0.8587 -0.006,-0.8778 -0.0126,-0.8969 -0.0191,-0.9158 -0.0262,-0.9347 -0.0333,-0.9535 -0.0407,-0.9724 -0.0485,-0.9911 -0.0565,-1.0099 -0.0647,-1.0284 -0.0732,-1.047 -0.082,-1.0655 -0.0911,-1.084 -0.1003,-1.1022 -0.1099,-1.1205 -0.1197,-1.1388 -0.1297,-1.1568 -0.1401,-1.1748 -0.1507,-1.1927 -0.1616,-1.2106 -0.1726,-1.2284 -0.184,-1.2459 -0.1956,-1.2635 -0.3949,-0.6341 -11.4143,-3.1388 -0.6636,0.343 -0.8141,0.9859 -0.7952,0.9767 -0.7765,0.9673 -0.7578,0.9578 -0.7393,0.948 -0.7211,0.938 -0.703,0.9278 -0.6851,0.9174 -0.6674,0.9068 -0.6498,0.896 -0.6325,0.885 -0.6152,0.8738 -0.5983,0.8623 -0.5815,0.8508 -0.5648,0.839 -0.5485,0.8269 -0.5322,0.8149 -0.5162,0.8024 -0.5003,0.79 -0.4848,0.7772 -0.4693,0.7643 -0.4541,0.7512 -0.4391,0.738 -0.4243,0.7246 -0.4097,0.711 -0.3953,0.6972 -0.3811,0.6833 -0.3672,0.6692 -0.3534,0.655 -0.3399,0.6405 -0.3266,0.626 -0.3135,0.6113 -0.3006,0.5965 -0.288,0.5814 -0.2756,0.5662 -0.2634,0.5509 -0.2515,0.5355 -0.2396,0.5199 -0.2282,0.5042 -0.217,0.4883 -1.1596,0.9556 -13.249,-2.7619 -0.6813,-1.3394 -0.0037,-0.5343 -0.0077,-0.5534 -0.012,-0.5723 -0.0166,-0.5914 -0.0213,-0.6103 -0.0264,-0.6292 -0.0317,-0.648 -0.0373,-0.6669 -0.0431,-0.6856 -0.0493,-0.7044 -0.0556,-0.723 -0.0623,-0.7416 -0.0692,-0.7602 -0.0764,-0.7787 -0.0838,-0.7971 -0.0914,-0.8154 -0.0995,-0.8338 -0.1076,-0.8519 -0.1161,-0.8701 -0.1249,-0.8882 -0.1338,-0.9062 -0.143,-0.924 -0.1526,-0.9419 -0.1623,-0.9596 -0.1724,-0.9773 -0.1825,-0.9947 -0.1931,-1.0123 -0.2039,-1.0295 -0.2149,-1.0469 -0.2262,-1.0639 -0.2377,-1.081 -0.2494,-1.098 -0.2615,-1.1147 -0.2737,-1.1314 -0.2863,-1.148 -0.2989,-1.1645 -0.312,-1.1808 -0.3253,-1.197 -0.3387,-1.2131 -0.3524,-1.229 -0.4713,-0.5796 -11.7176,-1.6834 -0.6154,0.4235 -0.6842,1.0801 -0.6665,1.0687 -0.6491,1.057 -0.6317,1.0452 -0.6148,1.0332 -0.5978,1.021 -0.5812,1.0086 -0.5647,0.996 -0.5484,0.9833 -0.5324,0.9704 -0.5166,0.9573 -0.5009,0.9439 -0.4855,0.9306 -0.4702,0.9169 -0.4553,0.9032 -0.4404,0.8892 -0.4259,0.8751 -0.4116,0.8608 -0.3974,0.8464 -0.3835,0.8319 -0.3698,0.8171 -0.3564,0.8022 -0.3431,0.7872 -0.3302,0.772 -0.3173,0.7568 -0.3048,0.7412 -0.2925,0.7257 -0.2804,0.71 -0.2685,0.6941 -0.257,0.6781 -0.2455,0.662 -0.2344,0.6457 -0.2236,0.6294 -0.2128,0.6129 -0.2025,0.5964 -0.1922,0.5796 -0.1824,0.5627 -0.1726,0.5459 -0.1632,0.5288 -0.154,0.5116 -1.0308,1.0935 -13.4907,-1.0796 -0.8437,-1.2435 -0.0707,-0.5296 -0.077,-0.5481 -0.0837,-0.5663 -0.0905,-0.5846 -0.0976,-0.6028 -0.1051,-0.6209 -0.1126,-0.639 -0.1206,-0.6569 -0.1288,-0.6749 -0.1371,-0.6926 -0.1458,-0.7103 -0.1548,-0.728 -0.1639,-0.7455 -0.1734,-0.763 -0.183,-0.7803 -0.1929,-0.7975 -0.2032,-0.8148 -0.2136,-0.8317 -0.2242,-0.8487 -0.2352,-0.8655 -0.2463,-0.8823 -0.2578,-0.8988 -0.2694,-0.9153 -0.2813,-0.9317 -0.2934,-0.948 -0.3059,-0.964 -0.3184,-0.9801 -0.3313,-0.9959 -0.3444,-1.0116 -0.3577,-1.0273 -0.3713,-1.0426 -0.3851,-1.058 -0.3991,-1.0732 -0.4134,-1.0882 -0.4279,-1.1031 -0.4426,-1.1178 -0.4575,-1.1324 -0.4727,-1.1468 -0.4881,-1.161 -0.5037,-1.1752 -0.5401,-0.516 -11.8363,-0.2015 -0.5574,0.4973 -0.5434,1.1573 -0.5274,1.1438 -0.5114,1.1301 -0.4958,1.1161 -0.4804,1.1021 -0.4652,1.0879 -0.4502,1.0735 -0.4354,1.0589 -0.4209,1.0443 -0.4065,1.0294 -0.3925,1.0145 -0.3787,0.9993 -0.365,0.9841 -0.3516,0.9686 -0.3385,0.9531 -0.3255,0.9374 -0.3129,0.9216 -0.3004,0.9056 -0.2882,0.8895 -0.2762,0.8734 -0.2645,0.857 -0.253,0.8406 -0.2418,0.824 -0.2308,0.8073 -0.22,0.7905 -0.2095,0.7737 -0.1992,0.7566 -0.1892,0.7395 -0.1794,0.7223 -0.1699,0.7049 -0.1607,0.6876 -0.1516,0.67 -0.1429,0.6525 -0.1344,0.6347 -0.1261,0.617 -0.1181,0.5992 -0.1104,0.5811 -0.1028,0.5632 -0.0957,0.5451 -0.0886,0.5269 -0.8856,1.214 -13.5196,0.6198 -0.993,-1.1279 -0.1365,-0.5166 -0.1451,-0.5341 -0.1539,-0.5514 -0.1631,-0.5686 -0.1724,-0.5859 -0.1821,-0.6028 -0.1918,-0.6198 -0.202,-0.6367 -0.2123,-0.6533 -0.2229,-0.67 -0.2337,-0.6865 -0.2448,-0.7028 -0.256,-0.7191 -0.2676,-0.7352 -0.2794,-0.7512 -0.2914,-0.7671 -0.3037,-0.7828 -0.3161,-0.7985 -0.3289,-0.8139 -0.3418,-0.8292 -0.3549,-0.8444 -0.3684,-0.8595 -0.382,-0.8743 -0.3959,-0.8891 -0.4099,-0.9037 -0.4242,-0.9181 -0.4388,-0.9324 -0.4535,-0.9465 -0.4685,-0.9605 -0.4837,-0.9743 -0.499,-0.988 -0.5147,-1.0013 -0.5304,-1.0147 -0.5466,-1.0278 -0.5627,-1.0408 -0.5792,-1.0535 -0.5958,-1.0661 -0.6127,-1.0785 -0.6298,-1.0908 -0.647,-1.1027 -0.6006,-0.4442 -11.7682,1.2835 -0.4907,0.5632 -0.394,1.2163 -0.3799,1.2009 -0.3657,1.1852 -0.3521,1.1695 -0.3384,1.1536 -0.3252,1.1376 -0.3121,1.1215 -0.2992,1.1052 -0.2867,1.0888 -0.2744,1.0722 -0.2622,1.0557 -0.2504,1.0389 -0.2388,1.022 -0.2275,1.0051 -0.2163,0.988 -0.2055,0.9708 -0.1949,0.9535 -0.1845,0.9362 -0.1745,0.9186 -0.1646,0.9011 -0.155,0.8834 -0.1456,0.8657 -0.1366,0.8478 -0.1278,0.8298 -0.1191,0.8119 -0.1109,0.7938 -0.1028,0.7756 -0.0951,0.7574 -0.0875,0.7391 -0.0802,0.7207 -0.0732,0.7023 -0.0665,0.6837 -0.06,0.6652 -0.0537,0.6466 -0.0478,0.6279 -0.0421,0.6093 -0.0366,0.5904 -0.0315,0.5716 -0.0266,0.5528 -0.0219,0.5339 -0.7264,1.3154 -13.3354,2.3093 -1.1264,-0.9946 -0.2002,-0.4954 -0.2109,-0.5116 -0.2219,-0.5278 -0.233,-0.5437 -0.2445,-0.5596 -0.2562,-0.5753 -0.268,-0.5909 -0.2802,-0.6063 -0.2925,-0.6216 -0.3051,-0.6367 -0.3179,-0.6518 -0.3309,-0.6666 -0.3442,-0.6813 -0.3576,-0.6959 -0.3714,-0.7103 -0.3852,-0.7245 -0.3994,-0.7386 -0.4137,-0.7525 -0.4283,-0.7663 -0.443,-0.7798 -0.458,-0.7933 -0.4732,-0.8065 -0.4886,-0.8196 -0.5041,-0.8324 -0.52,-0.8452 -0.536,-0.8577 -0.5521,-0.8701 -0.5686,-0.8822 -0.5852,-0.8942 -0.6019,-0.906 -0.619,-0.9176 -0.6361,-0.929 -0.6534,-0.9402 -0.6711,-0.9512 -0.6887,-0.962 -0.7067,-0.9726 -0.7247,-0.983 -0.7431,-0.9933 -0.7615,-1.0032 -0.7801,-1.013 -0.6515,-0.3654 -11.5145,2.7484 -0.4163,0.6203 -0.2385,1.2561 -0.2263,1.239 -0.2144,1.2217 -0.2026,1.2044 -0.1912,1.1869 -0.18,1.1694 -0.1691,1.1517 -0.1584,1.134 -0.148,1.1161 -0.1377,1.0982 -0.1279,1.0802 -0.1182,1.0621 -0.1089,1.0439 -0.0997,1.0257 -0.0908,1.0073 -0.0822,0.9889 -0.0738,0.9705 -0.0658,0.9518 -0.0579,0.9333 -0.0504,0.9146 -0.043,0.8959 -0.036,0.8771 -0.0293,0.8582 -0.0227,0.8394 -0.0165,0.8204 -0.0105,0.8014 -0.005,0.7824 6e-4,0.7633 0.006,0.7442 0.0108,0.7251 0.0154,0.7059 0.0197,0.6867 0.0239,0.6675 0.0277,0.6482 0.0313,0.629 0.0346,0.6097 0.0376,0.5903 0.0405,0.5711 0.0429,0.5517 0.0451,0.5325 -0.5558,1.3961 -12.9408,3.9624 -1.2422,-0.8455 -0.2607,-0.4664 -0.2733,-0.4812 -0.2863,-0.4958 -0.2994,-0.5102 -0.3127,-0.5246 -0.3262,-0.5386 -0.34,-0.5526 -0.3539,-0.5664 -0.3681,-0.5801 -0.3825,-0.5935 -0.3971,-0.6068 -0.4119,-0.6198 -0.4268,-0.6329 -0.4421,-0.6455 -0.4574,-0.6582 -0.473,-0.6705 -0.4888,-0.6827 -0.5048,-0.6947 -0.5209,-0.7066 -0.5373,-0.7182 -0.5538,-0.7296 -0.5705,-0.7408 -0.5875,-0.7519 -0.6045,-0.7627 -0.6218,-0.7733 -0.6393,-0.7838 -0.6568,-0.794 -0.6747,-0.804 -0.6926,-0.8138 -0.7108,-0.8234 -0.729,-0.8328 -0.7475,-0.8419 -0.7662,-0.8509 -0.7849,-0.8596 -0.8039,-0.8681 -0.823,-0.8764 -0.8423,-0.8845 -0.8616,-0.8922 -0.8813,-0.8999 -0.9009,-0.9072 -0.6922,-0.2809 -11.0792,4.1699 -0.3353,0.6675 -0.0792,1.2761 -0.0692,1.2576 -0.0595,1.239 -0.0502,1.2203 -0.0409,1.2015 -0.032,1.1827 -0.0234,1.1639 -0.015,1.1448 -0.007,1.1259 9e-4,1.1068 0.008,1.0877 0.0158,1.0686 0.0229,1.0493 0.0297,1.0301 0.0361,1.0107 0.0424,0.9914 0.0484,0.9721 0.054,0.9526 0.0595,0.9332 0.0647,0.9137 0.0696,0.8942 0.0742,0.8746 0.0785,0.8552 0.0827,0.8356 0.0864,0.816 0.09,0.7964 0.0933,0.7768 0.0963,0.7572 0.0991,0.7377 0.1015,0.718 0.1038,0.6984 0.1056,0.6788 0.1074,0.6592 0.1087,0.6397 0.1099,0.6201 0.1107,0.6005 0.1114,0.581 0.1116,0.5615 0.1118,0.542 0.1115,0.5226 -0.3765,1.4547 -12.3421,5.5531 -1.3384,-0.6831 -0.3171,-0.4301 -0.3315,-0.4431 -0.3461,-0.456 -0.361,-0.4687 -0.376,-0.4812 -0.3911,-0.4935 -0.4066,-0.5057 -0.4221,-0.5176 -0.438,-0.5293 -0.4538,-0.5409 -0.47,-0.5522 -0.4863,-0.5634 -0.5028,-0.5743 -0.5195,-0.5851 -0.5363,-0.5956 -0.5533,-0.606 -0.5705,-0.616 -0.5879,-0.626 -0.6054,-0.6357 -0.623,-0.6452 -0.6409,-0.6544 -0.6589,-0.6635 -0.677,-0.6723 -0.6954,-0.681 -0.7138,-0.6893 -0.7325,-0.6974 -0.7512,-0.7055 -0.7701,-0.7131 -0.7891,-0.7206 -0.8084,-0.7278 -0.8277,-0.7348 -0.8471,-0.7416 -0.8668,-0.7482 -0.8865,-0.7544 -0.9063,-0.7605 -0.9264,-0.7664 -0.9464,-0.7719 -0.9667,-0.7772 -0.9871,-0.7823 -1.0075,-0.7872 -0.7219,-0.1919 -10.4693,5.5256 -0.2489,0.7043 0.0813,1.276 0.089,1.2563 0.0962,1.2367 0.1032,1.2169 0.11,1.1972 0.1164,1.1774 0.1227,1.1576 0.1286,1.1378 0.1342,1.1178 0.1397,1.098 0.1448,1.0781 0.1496,1.0581 0.1542,1.0382 0.1585,1.0182 0.1626,0.9982 0.1663,0.9783 0.1698,0.9583 0.173,0.9384 0.176,0.9183 0.1787,0.8984 0.1811,0.8785 0.1832,0.8584 0.1851,0.8386 0.1867,0.8186 0.1881,0.7988 0.1891,0.7788 0.1899,0.759 0.1905,0.7392 0.1907,0.7194 0.1907,0.6996 0.1905,0.6799 0.1899,0.6602 0.1891,0.6406 0.1881,0.621 0.1867,0.6014 0.1851,0.5819 0.1833,0.5625 0.1812,0.5431 0.1787,0.5237 0.1762,0.5045 -0.1912,1.4905 -11.5488,7.0561 -1.4134,-0.51 -0.3685,-0.3869 -0.3845,-0.3981 -0.4005,-0.409 -0.4169,-0.4198 -0.4333,-0.4303 -0.4499,-0.4406 -0.4668,-0.4507 -0.4837,-0.4606 -0.5008,-0.4702 -0.518,-0.4798 -0.5355,-0.4889 -0.5531,-0.498 -0.5708,-0.5068 -0.5888,-0.5154 -0.6067,-0.5237 -0.6249,-0.5318 -0.6432,-0.5397 -0.6617,-0.5474 -0.6803,-0.5548 -0.699,-0.562 -0.7178,-0.5689 -0.7369,-0.5757 -0.7559,-0.5822 -0.7753,-0.5884 -0.7945,-0.5944 -0.8141,-0.6002 -0.8337,-0.6057 -0.8534,-0.6109 -0.8733,-0.616 -0.8932,-0.6208 -0.9132,-0.6253 -0.9335,-0.6296 -0.9536,-0.6336 -0.9741,-0.6374 -0.9945,-0.6409 -1.0151,-0.6442 -1.0357,-0.6472 -1.0565,-0.6499 -1.0774,-0.6525 -1.0982,-0.6546 -0.7403,-0.0999 -9.6942,6.7941 -0.1587,0.73 0.2407,1.2557 0.2457,1.2353 0.2504,1.2148 0.255,1.1944 0.2591,1.174 0.2631,1.1535 0.2668,1.1331 0.2702,1.1127 0.2733,1.0922 0.2761,1.0718 0.2788,1.0514 0.281,1.031 0.2832,1.0107 0.2848,0.9903 0.2864,0.97 0.2876,0.9498 0.2886,0.9294 0.2893,0.9093 0.2897,0.889 0.2899,0.869 0.2897,0.8488 0.2894,0.8287 0.2888,0.8087 0.2878,0.7888 0.2867,0.7689 0.2852,0.749 0.2836,0.7292 0.2816,0.7095 0.2794,0.6898 0.2769,0.6702 0.2741,0.6507 0.2712,0.6312 0.2679,0.6118 0.2644,0.5925 0.2606,0.5733 0.2566,0.5541 0.2524,0.5351 0.2478,0.5161 0.243,0.4972 0.238,0.4784 -0.003,1.5027 -10.5733,8.448 -1.4663,-0.3289 -0.4141,-0.3377 -0.4313,-0.3467 -0.4487,-0.3556 -0.4661,-0.3642 -0.4839,-0.3726 -0.5016,-0.3808 -0.5195,-0.3886 -0.5376,-0.3963 -0.5558,-0.4038 -0.5741,-0.4111 -0.5926,-0.4179 -0.6111,-0.4248 -0.6299,-0.4312 -0.6486,-0.4375 -0.6676,-0.4436 -0.6866,-0.4493 -0.7058,-0.4548 -0.7251,-0.4601 -0.7444,-0.4652 -0.7639,-0.47 -0.7836,-0.4745 -0.8032,-0.4787 -0.8229,-0.4829 -0.8429,-0.4866 -0.8628,-0.4901 -0.8829,-0.4934 -0.903,-0.4965 -0.9233,-0.4991 -0.9435,-0.5017 -0.964,-0.504 -0.9844,-0.5059 -1.005,-0.5076 -1.0256,-0.5091 -1.0462,-0.5103 -1.067,-0.5112 -1.0879,-0.5119 -1.1087,-0.5123 -1.1296,-0.5124 -1.1506,-0.5122 -1.1716,-0.5119 -0.747,-0.006 -8.7662,7.9555 -0.0659,0.7441 0.3961,1.2157 0.3986,1.1947 0.4007,1.1739 0.4026,1.1531 0.4043,1.1322 0.4056,1.1114 0.4067,1.0908 0.4075,1.07 0.408,1.0493 0.4083,1.0288 0.4084,1.0082 0.408,0.9876 0.4076,0.9673 0.4067,0.9468 0.4057,0.9264 0.4044,0.9062 0.4028,0.886 0.4009,0.8658 0.3989,0.8458 0.3965,0.8257 0.3938,0.8058 0.391,0.7859 0.3878,0.7662 0.3845,0.7465 0.3808,0.7269 0.3768,0.7073 0.3727,0.6879 0.3683,0.6686 0.3637,0.6494 0.3587,0.6302 0.3535,0.6112 0.3482,0.5922 0.3425,0.5735 0.3365,0.5547 0.3305,0.536 0.324,0.5176 0.3174,0.4993 0.3105,0.4809 0.3034,0.4628 0.2961,0.4448 0.1855,1.4913 -9.4311,9.7065 -1.496,-0.1425 -0.4531,-0.2831 -0.4714,-0.29 -0.4897,-0.2965 -0.5081,-0.3029 -0.5267,-0.3091 -0.5454,-0.3148 -0.5641,-0.3205 -0.5831,-0.3258 -0.602,-0.331 -0.6211,-0.3358 -0.6403,-0.3404 -0.6595,-0.3448 -0.679,-0.3489 -0.6983,-0.3528 -0.7179,-0.3563 -0.7376,-0.3597 -0.7572,-0.3628 -0.777,-0.3657 -0.7969,-0.3682 -0.8168,-0.3705 -0.8368,-0.3725 -0.8569,-0.3744 -0.877,-0.3758 -0.8971,-0.3772 -0.9175,-0.3781 -0.9378,-0.3789 -0.9581,-0.3793 -0.9785,-0.3795 -0.999,-0.3795 -1.0196,-0.3792 -1.04,-0.3785 -1.0607,-0.3777 -1.0813,-0.3765 -1.102,-0.3751 -1.1226,-0.3735 -1.1434,-0.3715 -1.1642,-0.3693 -1.1849,-0.3668 -1.2057,-0.364 -1.2266,-0.361 -0.7419,0.0874 -7.7,8.9915 0.0279,0.7465 0.5453,1.1564 0.5452,1.1354 0.5447,1.1144 0.544,1.0935 0.5429,1.0726 0.5418,1.0519 0.5401,1.0311 0.5384,1.0105 0.5364,0.99 0.534,0.9694 0.5315,0.9491 0.5286,0.9287 0.5256,0.9085 0.5222,0.8884 0.5186,0.8683 0.5148,0.8484 0.5106,0.8285 0.5063,0.8087 0.5017,0.7891 0.4969,0.7695 0.4917,0.7501 0.4864,0.7308 0.4808,0.7115 0.475,0.6924 0.4689,0.6734 0.4625,0.6545 0.456,0.6358 0.4492,0.6172 0.4422,0.5987 0.4349,0.5803 0.4273,0.562 0.4196,0.5439 0.4117,0.526 0.4034,0.5082 0.395,0.4904 0.3864,0.4729 0.3775,0.4555 0.3683,0.4383 0.359,0.4211 0.3495,0.4042 0.371,1.4562 -8.1403,10.8121 -1.502,0.0461 -0.485,-0.2241 -0.504,-0.2286 -0.523,-0.2329 -0.5421,-0.2368 -0.5613,-0.2406 -0.5805,-0.244 -0.5999,-0.2472 -0.6193,-0.2502 -0.6387,-0.2529 -0.6583,-0.2553 -0.6779,-0.2575 -0.6976,-0.2594 -0.7173,-0.2611 -0.737,-0.2625 -0.757,-0.2635 -0.7768,-0.2645 -0.7967,-0.265 -0.8167,-0.2653 -0.8367,-0.2655 -0.8568,-0.2652 -0.8769,-0.2647 -0.8971,-0.264 -0.9172,-0.263 -0.9373,-0.2617 -0.9577,-0.2602 -0.9778,-0.2583 -0.9981,-0.2563 -1.0184,-0.2539 -1.0387,-0.2513 -1.059,-0.2483 -1.0793,-0.2452 -1.0997,-0.2418 -1.1199,-0.238 -1.1403,-0.2341 -1.1606,-0.2298 -1.181,-0.2253 -1.2012,-0.2204 -1.2216,-0.2154 -1.2418,-0.21 -1.2622,-0.2044 -0.725,0.1796 -6.5124,9.8857 0.1212,0.7371 0.686,1.0789 0.6832,1.0581 0.68,1.0374 0.6768,1.0167 0.6731,0.9961 0.6693,0.9757 0.6651,0.9553 0.6608,0.935 0.6562,0.915 0.6513,0.8948 0.6463,0.875 0.6408,0.8552 0.6353,0.8354 0.6295,0.8159 0.6233,0.7965 0.6171,0.7772 0.6104,0.7579 0.6037,0.7389 0.5966,0.72 0.5894,0.7012 0.5819,0.6825 0.5742,0.6641 0.5661,0.6456 0.558,0.6274 0.5496,0.6094 0.541,0.5914 0.5321,0.5736 0.523,0.556 0.5137,0.5385 0.5041,0.5212 0.4945,0.5041 0.4845,0.4871 0.4743,0.4702 0.4639,0.4536 0.4534,0.437 0.4426,0.4208 0.4315,0.4046 0.4204,0.3886 0.409,0.3728 0.3974,0.3572 0.5505,1.3983 -6.7209,11.747 -1.4844,0.234 -0.5093,-0.1615 -0.5287,-0.1637 -0.548,-0.1654 -0.5675,-0.1671 -0.587,-0.1683 -0.6066,-0.1693 -0.6261,-0.1701 -0.6458,-0.1706 -0.6654,-0.1708 -0.6851,-0.1708 -0.7048,-0.1706 -0.7246,-0.1699 -0.7443,-0.1691 -0.7642,-0.168 -0.784,-0.1666 -0.8038,-0.165 -0.8237,-0.1631 -0.8435,-0.1609 -0.8634,-0.1584 -0.8833,-0.1558 -0.9031,-0.1527 -0.9231,-0.1495 -0.9429,-0.146 -0.9628,-0.1421 -0.9827,-0.1381 -1.0025,-0.1338 -1.0223,-0.1291 -1.0422,-0.1243 -1.062,-0.1191 -1.0818,-0.1137 -1.1015,-0.108 -1.1213,-0.102 -1.141,-0.0958 -1.1606,-0.0893 -1.1803,-0.0825 -1.1998,-0.0755 -1.2195,-0.0682 -1.2389,-0.0606 -1.2584,-0.0527 -1.2777,-0.0446 -0.6969,0.2691 -5.222,10.624 0.2126,0.7161 0.8158,0.9844 0.8104,0.9642 0.8048,0.9439 0.7988,0.9238 0.7927,0.9039 0.7862,0.8841 0.7797,0.8645 0.7728,0.8448 0.7656,0.8255 0.7584,0.8062 0.7508,0.787 0.743,0.7681 0.735,0.7493 0.7267,0.7306 0.7183,0.712 0.7095,0.6937 0.7007,0.6755 0.6915,0.6574 0.6822,0.6396 0.6726,0.6217 0.6629,0.6043 0.6528,0.5868 0.6426,0.5696 0.6323,0.5525 0.6216,0.5357 0.6108,0.5189 0.5998,0.5024 0.5885,0.4861 0.5772,0.4699 0.5655,0.4539 0.5537,0.4381 0.5417,0.4225 0.5296,0.4071 0.5171,0.3918 0.5046,0.3769 0.4918,0.3619 0.4789,0.3473 0.4657,0.3329 0.4525,0.3186 0.439,0.3046 0.7215,1.3182 -5.1957,12.4968 -1.4433,0.4182 -0.5255,-0.0965 -0.5451,-0.096 -0.5644,-0.0955 -0.584,-0.0946 -0.6035,-0.0934 -0.623,-0.092 -0.6425,-0.0903 -0.662,-0.0883 -0.6816,-0.0861 -0.7011,-0.0836 -0.7206,-0.0808 -0.7402,-0.0778 -0.7597,-0.0745 -0.7792,-0.0709 -0.7986,-0.067 -0.8182,-0.063 -0.8376,-0.0585 -0.8571,-0.0539 -0.8764,-0.049 -0.8958,-0.0438 -0.9152,-0.0384 -0.9345,-0.0326 -0.9538,-0.0266 -0.973,-0.0204 -0.9923,-0.0138 -1.0113,-0.007 -1.0305,0 -1.0496,0.007 -1.0685,0.0149 -1.0875,0.0228 -1.1064,0.0309 -1.1252,0.0393 -1.144,0.048 -1.1627,0.0568 -1.1813,0.0661 -1.1998,0.0755 -1.2184,0.0852 -1.2367,0.0952 -1.2551,0.1054 -1.2733,0.1159 -0.6576,0.3543 -3.8493,11.1947 0.3007,0.6838 0.9328,0.8744 0.9248,0.855 0.9167,0.8356 0.9083,0.8165 0.8997,0.7974 0.8909,0.7786 0.8818,0.7598 0.8726,0.7414 0.8631,0.723 0.8534,0.7048 0.8436,0.6867 0.8334,0.6689 0.8231,0.6513 0.8125,0.6337 0.8019,0.6165 0.7909,0.5992 0.7798,0.5824 0.7685,0.5655 0.7569,0.549 0.7452,0.5326 0.7334,0.5164 0.7212,0.5004 0.709,0.4845 0.6965,0.469 0.6839,0.4535 0.671,0.4383 0.658,0.4233 0.6448,0.4084 0.6315,0.3939 0.618,0.3794 0.6042,0.3653 0.5904,0.3513 0.5764,0.3375 0.5622,0.3239 0.5478,0.3106 0.5333,0.2975 0.5186,0.2845 0.5039,0.2719 0.4888,0.2594 0.4737,0.2472 0.881,1.2174 -3.5884,13.0494 -1.3796,0.5958 -0.5334,-0.0299 -0.5528,-0.027 -0.572,-0.0239 -0.5912,-0.0207 -0.6104,-0.017 -0.6296,-0.0132 -0.6488,-0.009 -0.6679,-0.0047 -0.687,0 -0.706,0.005 -0.7251,0.0101 -0.7441,0.0156 -0.763,0.0213 -0.7819,0.0273 -0.8008,0.0336 -0.8196,0.0401 -0.8384,0.0469 -0.857,0.0539 -0.8757,0.0613 -0.8943,0.0688 -0.9127,0.0766 -0.9313,0.0848 -0.9496,0.0931 -0.9679,0.1018 -0.9861,0.1106 -1.0043,0.1198 -1.0223,0.1291 -1.0404,0.1388 -1.0582,0.1488 -1.0761,0.1589 -1.0938,0.1693 -1.1114,0.1801 -1.129,0.1909 -1.1463,0.2022 -1.1637,0.2136 -1.181,0.2252 -1.198,0.2373 -1.2151,0.2494 -1.232,0.2619 -1.2487,0.2745 -0.608,0.434 -2.4159,11.5888 0.384,0.6408 1.035,0.7506 1.0248,0.7323 1.0141,0.7142 1.0035,0.6961 0.9926,0.6784 0.9814,0.6608 0.9701,0.6433 0.9586,0.6262 0.947,0.6091 0.935,0.5923 0.9229,0.5756 0.9107,0.5592 0.8982,0.5429 0.8856,0.5269 0.8728,0.5111 0.8598,0.4954 0.8466,0.48 0.8333,0.4648 0.8198,0.4498 0.8061,0.435 0.7923,0.4204 0.7783,0.406 0.7641,0.3919 0.7498,0.378 0.7353,0.3642 0.7206,0.3507 0.7059,0.3375 0.691,0.3244 0.6758,0.3116 0.6607,0.299 0.6452,0.2867 0.6298,0.2745 0.6141,0.2626 0.5984,0.2509 0.5824,0.2395 0.5664,0.2283 0.5502,0.2173 0.5339,0.2066 0.5175,0.1961 0.501,0.1858 1.0266,1.0974 -1.9246,13.3962 -1.294,0.764 -0.533,0.0373 -0.5518,0.0425 -0.5705,0.0479 -0.5891,0.0536 -0.6078,0.0596 -0.6262,0.0659 -0.6448,0.0723 -0.6632,0.0791 -0.6816,0.0861 -0.6999,0.0934 -0.7181,0.1009 -0.7362,0.1088 -0.7544,0.1168 -0.7723,0.1251 -0.7903,0.1336 -0.8081,0.1425 -0.8258,0.1516 -0.8436,0.1609 -0.8611,0.1706 -0.8785,0.1803 -0.896,0.1905 -0.9133,0.2008 -0.9304,0.2114 -0.9475,0.2222 -0.9645,0.2334 -0.9814,0.2447 -0.9981,0.2563 -1.0147,0.2681 -1.0313,0.2802 -1.0477,0.2925 -1.0639,0.3051 -1.0801,0.3179 -1.0961,0.3309 -1.112,0.3443 -1.1278,0.3577 -1.1434,0.3716 -1.1588,0.3855 -1.1743,0.3997 -1.1894,0.4142 -1.2045,0.4289 -0.5488,0.5068 -0.9443,11.8002 0.4612,0.5876 1.121,0.615 1.1084,0.5981 1.0957,0.5814 1.0828,0.5649 1.0698,0.5486 1.0565,0.5326 1.0431,0.5167 1.0295,0.501 1.0158,0.4857 1.0019,0.4704 0.9878,0.4554 0.9736,0.4406 0.9591,0.4261 0.9447,0.4118 0.93,0.3976 0.9151,0.3838 0.9001,0.3701 0.885,0.3567 0.8697,0.3435 0.8542,0.3305 0.8387,0.3178 0.8231,0.3053 0.8072,0.293 0.7912,0.281 0.7752,0.2692 0.7589,0.2576 0.7426,0.2464 0.7262,0.2352 0.7096,0.2245 0.6929,0.2138 0.6761,0.2035 0.6592,0.1935 0.6422,0.1835 0.6251,0.174 0.6078,0.1646 0.5905,0.1555 0.5732,0.1466 0.5556,0.138 0.538,0.1297 0.5203,0.1216 1.156,0.9601 L -397.5,0 l -1.188,0.9202 -0.5242,0.1038 -0.5421,0.1112 -0.56,0.1191 -0.5777,0.127 -0.5955,0.1353 -0.6131,0.1438 -0.6307,0.1526 -0.648,0.1616 -0.6654,0.1709 -0.6827,0.1803 -0.6998,0.1902 -0.7168,0.2001 -0.7337,0.2104 -0.7506,0.221 -0.7673,0.2316 -0.7838,0.2427 -0.8004,0.2539 -0.8167,0.2654 -0.8329,0.2771 -0.8491,0.289 -0.865,0.3013 -0.8809,0.3136 -0.8966,0.3264 -0.9122,0.3392 -0.9277,0.3524 -0.9429,0.3658 -0.9581,0.3793 -0.9732,0.3932 -0.988,0.4073 -1.0027,0.4215 -1.0173,0.436 -1.0318,0.4508 -1.0459,0.4657 -1.0601,0.4809 -1.0741,0.4963 -1.0878,0.5119 -1.1014,0.5277 -1.1149,0.5438 -1.1281,0.56 -1.1412,0.5765 -0.481,0.5715 0.542,11.8256 0.5313,0.5251 1.1892,0.4696 1.1746,0.4545 1.16,0.4395 1.1451,0.4247 1.13,0.4103 1.115,0.3959 1.0996,0.3819 1.0842,0.3681 1.0687,0.3544 1.0529,0.3412 1.0371,0.328 1.0211,0.3151 1.0051,0.3025 0.9888,0.2902 0.9724,0.2779 0.956,0.2661 0.9394,0.2543 0.9227,0.243 0.9059,0.2318 0.889,0.2208 0.8719,0.2102 0.8548,0.1997 0.8376,0.1896 0.8202,0.1796 0.8028,0.1699 0.7852,0.1605 0.7677,0.1513 0.7499,0.1424 0.7321,0.1337 0.7142,0.1254 0.6963,0.1171 0.6783,0.1093 0.6601,0.1016 0.642,0.0943 0.6236,0.0871 0.6054,0.0802 0.587,0.0737 0.5685,0.0673 0.55,0.0612 0.5315,0.0554 1.2672,0.8076 1.4674,13.4541 -1.0633,1.0618 -0.507,0.1686 -0.5239,0.1784 -0.5407,0.1883 -0.5573,0.1984 -0.5738,0.2089 -0.5902,0.2195 -0.6066,0.2304 -0.6227,0.2416 -0.6387,0.2529 -0.6547,0.2645 -0.6704,0.2763 -0.6861,0.2885 -0.7016,0.3007 -0.7169,0.3132 -0.7322,0.326 -0.7473,0.339 -0.7622,0.3522 -0.777,0.3657 -0.7917,0.3793 -0.8061,0.3931 -0.8205,0.4073 -0.8346,0.4217 -0.8486,0.4361 -0.8625,0.4509 -0.8762,0.4659 -0.8896,0.481 -0.9031,0.4965 -0.9161,0.512 -0.9292,0.5279 -0.942,0.5439 -0.9547,0.5601 -0.9671,0.5765 -0.9793,0.5931 -0.9915,0.61 -1.0034,0.627 -1.015,0.6442 -1.0266,0.6616 -1.0379,0.6792 -1.0491,0.697 -1.06,0.715 -0.4056,0.6273 2.02,11.6643 0.5929,0.4544 1.2387,0.3169 1.2223,0.3037 1.2059,0.2906 1.1892,0.2779 1.1726,0.2654 1.1558,0.2531 1.1388,0.241 1.1218,0.2293 1.1047,0.2178 1.0873,0.2064 1.0701,0.1955 1.0526,0.1847 1.035,0.1741 1.0173,0.1639 0.9997,0.1539 0.9818,0.1441 0.9638,0.1347 0.9459,0.1254 0.9278,0.1164 0.9097,0.1077 0.8914,0.0992 0.873,0.091 0.8548,0.0831 0.8362,0.0754 0.8178,0.0679 0.7992,0.0609 0.7805,0.0539 0.7619,0.0473 0.7431,0.0409 0.7243,0.0348 0.7055,0.029 0.6866,0.0234 0.6676,0.0181 0.6487,0.013 0.6297,0.0083 0.6107,0.0037 0.5915,-5e-4 0.5725,-0.0045 0.5534,-0.0082 0.5342,-0.0116 1.3584,0.6424 3.1421,13.164 -0.9219,1.1867 -0.4819,0.2309 -0.4974,0.2426 -0.5127,0.2546 -0.5281,0.2667 -0.5431,0.2792 -0.5581,0.2917 -0.5728,0.3046 -0.5876,0.3177 -0.602,0.331 -0.6163,0.3445 -0.6305,0.3582 -0.6445,0.3721 -0.6584,0.3863 -0.6721,0.4006 -0.6855,0.4152 -0.6989,0.43 -0.7121,0.4449 -0.725,0.4602 -0.7379,0.4755 -0.7505,0.4911 -0.7629,0.507 -0.7752,0.5229 -0.7873,0.539 -0.7992,0.5555 -0.8108,0.572 -0.8224,0.5888 -0.8337,0.6057 -0.8448,0.6228 -0.8557,0.6402 -0.8664,0.6576 -0.8769,0.6754 -0.8872,0.6931 -0.8973,0.7112 -0.9072,0.7295 -0.9169,0.7478 -0.9263,0.7663 -0.9356,0.7851 -0.9446,0.8039 -0.9534,0.823 -0.962,0.8422 -0.3238,0.6731 3.466,11.3193 0.6451,0.3765 1.2687,0.1591 1.2507,0.1481 1.2328,0.1372 1.2147,0.1267 1.1966,0.1163 1.1784,0.1062 1.1601,0.0964 1.1417,0.0869 1.1232,0.0776 1.1047,0.0685 1.0861,0.0598 1.0674,0.0513 1.0487,0.0431 1.0299,0.0351 1.011,0.0274 0.9921,0.0199 0.9732,0.0128 0.9541,0.006 0.9351,-8e-4 0.9159,-0.007 0.8968,-0.0133 0.8777,-0.0191 0.8583,-0.0247 0.8392,-0.0301 0.8198,-0.035 0.8005,-0.0398 0.7811,-0.0444 0.7618,-0.0485 0.7424,-0.0526 0.723,-0.0562 0.7035,-0.0597 0.6841,-0.0628 0.6647,-0.0658 0.6452,-0.0683 0.6258,-0.0708 0.6063,-0.0728 0.5868,-0.0746 0.5674,-0.0762 0.548,-0.0775 0.5285,-0.0785 1.4283,0.4671 4.7671,12.6664 -0.7658,1.2929 -0.4492,0.2895 -0.463,0.303 -0.4769,0.3168 -0.4904,0.3308 -0.5039,0.345 -0.5171,0.3594 -0.5301,0.3741 -0.5431,0.3888 -0.5558,0.4038 -0.5683,0.419 -0.5806,0.4344 -0.5928,0.45 -0.6048,0.4657 -0.6166,0.4817 -0.6281,0.4979 -0.6395,0.5142 -0.6506,0.5306 -0.6617,0.5474 -0.6724,0.5643 -0.6831,0.5813 -0.6934,0.5985 -0.7035,0.616 -0.7135,0.6335 -0.7233,0.6512 -0.7327,0.6691 -0.7421,0.6872 -0.7512,0.7055 -0.7601,0.7238 -0.7687,0.7423 -0.7771,0.7611 -0.7854,0.7799 -0.7933,0.7989 -0.8011,0.8181 -0.8087,0.8373 -0.8159,0.8568 -0.823,0.8764 -0.8298,0.8962 -0.8364,0.916 -0.8427,0.9359 -0.8489,0.9562 -0.2368,0.7084 4.8573,10.7956 0.6873,0.2926 1.2785,-0.001 1.2595,-0.01 1.2402,-0.0184 1.2211,-0.0266 1.2017,-0.0346 1.1824,-0.0423 1.163,-0.0497 1.1436,-0.0569 1.1241,-0.0638 1.1045,-0.0704 1.085,-0.0768 1.0655,-0.0829 1.0458,-0.0887 1.0262,-0.0943 1.0065,-0.0995 0.9867,-0.1046 0.9671,-0.1093 0.9474,-0.1138 0.9276,-0.118 0.9078,-0.1219 0.8881,-0.1256 0.8683,-0.1289 0.8485,-0.1321 0.8287,-0.135 0.809,-0.1375 0.7892,-0.1398 0.7694,-0.1419 0.7497,-0.1437 0.73,-0.1452 0.7102,-0.1464 0.6905,-0.1474 0.6708,-0.148 0.6512,-0.1486 0.6316,-0.1487 0.6119,-0.1485 0.5924,-0.1483 0.5729,-0.1476 0.5534,-0.1467 0.5339,-0.1455 0.5145,-0.1441 1.4756,0.2843 6.3171,11.9691 -0.5978,1.3787 -0.4093,0.3434 -0.4214,0.3587 -0.4334,0.3741 -0.4451,0.3897 -0.4567,0.4054 -0.4679,0.4214 -0.4792,0.4375 -0.49,0.4538 -0.5008,0.4703 -0.5113,0.4869 -0.5216,0.5038 -0.5318,0.5207 -0.5416,0.5379 -0.5513,0.5552 -0.5608,0.5726 -0.57,0.5903 -0.579,0.6081 -0.5878,0.626 -0.5965,0.6441 -0.6047,0.6623 -0.613,0.6807 -0.6208,0.6993 -0.6284,0.7179 -0.636,0.7367 -0.6431,0.7557 -0.6501,0.7748 -0.6569,0.794 -0.6633,0.8134 -0.6696,0.8328 -0.6757,0.8525 -0.6814,0.8722 -0.6869,0.892 -0.6923,0.912 -0.6973,0.9322 -0.7021,0.9523 -0.7066,0.9726 -0.711,0.9931 -0.715,1.0136 -0.7188,1.0342 -0.7223,1.055 -0.1462,0.7325 6.172,10.1017 0.7186,0.2042 1.2683,-0.1613 1.2483,-0.1677 1.2282,-0.1736 1.2081,-0.1795 1.1879,-0.1849 1.1678,-0.1902 1.1476,-0.1951 1.1274,-0.1997 1.1072,-0.2042 1.087,-0.2083 1.0669,-0.2122 1.0466,-0.2158 1.0265,-0.2191 1.0062,-0.2221 0.9861,-0.2249 0.9659,-0.2274 0.9458,-0.2297 0.9256,-0.2316 0.9055,-0.2333 0.8854,-0.2347 0.8653,-0.2359 0.8453,-0.2368 0.8253,-0.2374 0.8053,-0.2378 0.7853,-0.2378 0.7655,-0.2377 0.7456,-0.2372 0.7257,-0.2364 0.706,-0.2356 0.6863,-0.2342 0.6666,-0.2328 0.647,-0.231 0.6274,-0.229 0.608,-0.2266 0.5885,-0.2242 0.5691,-0.2213 0.5499,-0.2182 0.5306,-0.2149 0.5115,-0.2113 0.4924,-0.2075 1.4995,0.0972 7.7674,11.0829 -0.4202,1.4428 -0.3631,0.392 -0.3731,0.4087 -0.3831,0.4255 -0.3928,0.4423 -0.4022,0.4595 -0.4115,0.4767 -0.4205,0.4942 -0.4293,0.5116 -0.4379,0.5293 -0.4462,0.5472 -0.4544,0.5652 -0.4623,0.5832 -0.4699,0.6015 -0.4774,0.6199 -0.4846,0.6385 -0.4915,0.657 -0.4983,0.6759 -0.5047,0.6947 -0.511,0.7138 -0.517,0.7329 -0.5227,0.7522 -0.5283,0.7715 -0.5336,0.791 -0.5385,0.8107 -0.5434,0.8303 -0.5479,0.8502 -0.5521,0.87 -0.5562,0.8901 -0.5599,0.9102 -0.5635,0.9305 -0.5667,0.9507 -0.5698,0.9711 -0.5725,0.9916 -0.5749,1.0121 -0.5772,1.0328 -0.5792,1.0536 -0.5809,1.0743 -0.5823,1.0952 -0.5835,1.1162 -0.5844,1.1372 -0.0532,0.7451 7.3894,9.2484 0.7385,0.1126 1.2381,-0.3191 1.2174,-0.3227 1.1967,-0.3263 1.1761,-0.3294 1.1554,-0.3324 1.1347,-0.335 1.1141,-0.3374 1.0935,-0.3395 1.0729,-0.3413 1.0524,-0.3429 1.0318,-0.3443 1.0113,-0.3452 0.9909,-0.346 0.9705,-0.3465 0.9501,-0.3467 0.9298,-0.3467 0.9095,-0.3464 0.8893,-0.3458 0.8691,-0.3449 0.849,-0.3439 0.829,-0.3425 0.8089,-0.3408 0.789,-0.339 0.7692,-0.3368 0.7493,-0.3344 0.7297,-0.3317 0.7099,-0.3288 0.6904,-0.3256 0.6709,-0.3221 0.6515,-0.3185 0.6322,-0.3144 0.6129,-0.3103 0.5938,-0.3058 0.5748,-0.3011 0.5558,-0.2961 0.5369,-0.2909 0.5181,-0.2854 0.4995,-0.2797 0.481,-0.2738 0.4625,-0.2675 1.4999,-0.0915 9.0953,10.022 -0.2362,1.484 -0.311,0.4345 -0.319,0.4522 -0.3267,0.4701 -0.3342,0.4881 -0.3415,0.5063 -0.3485,0.5245 -0.3553,0.5429 -0.3618,0.5615 -0.3681,0.58 -0.3741,0.5988 -0.38,0.6177 -0.3855,0.6366 -0.3908,0.6556 -0.396,0.6749 -0.4007,0.6941 -0.4053,0.7135 -0.4096,0.7329 -0.4137,0.7526 -0.4175,0.7721 -0.4211,0.792 -0.4243,0.8117 -0.4275,0.8317 -0.4301,0.8517 -0.4328,0.8717 -0.435,0.8919 -0.437,0.9121 -0.4387,0.9324 -0.4403,0.9528 -0.4414,0.9732 -0.4424,0.9937 -0.4431,1.0143 -0.4436,1.0348 -0.4436,1.0556 -0.4436,1.0762 -0.4432,1.097 -0.4426,1.1178 -0.4416,1.1387 -0.4405,1.1595 -0.439,1.1805 -0.4373,1.2015 0.0406,0.7459 8.4903,8.2494 0.7467,0.0191 1.1884,-0.4717 1.1674,-0.4728 1.1464,-0.4737 1.1255,-0.4742 1.1046,-0.4745 1.0838,-0.4746 1.063,-0.4744 1.0423,-0.4739 1.0217,-0.4731 1.0011,-0.4721 0.9805,-0.4708 0.9601,-0.4693 0.9398,-0.4675 0.9194,-0.4654 0.8991,-0.4631 0.879,-0.4605 0.859,-0.4576 0.8389,-0.4545 0.819,-0.4512 0.7992,-0.4475 0.7795,-0.4437 0.7599,-0.4396 0.7403,-0.4351 0.7208,-0.4306 0.7016,-0.4257 0.6823,-0.4205 0.6631,-0.4152 0.6442,-0.4095 0.6252,-0.4037 0.6065,-0.3976 0.5877,-0.3912 0.5693,-0.3847 0.5507,-0.3778 0.5325,-0.3707 0.5143,-0.3634 0.4962,-0.3559 0.4783,-0.3482 0.4605,-0.3401 0.4429,-0.3319 0.4253,-0.3234 1.4767,-0.2787 10.2796,8.803 -0.0483,1.5019 -0.2542,0.4701 -0.2598,0.4886 -0.2652,0.5074 -0.2704,0.5261 -0.2753,0.5451 -0.28,0.5641 -0.2844,0.5831 -0.2886,0.6024 -0.2925,0.6216 -0.2961,0.6409 -0.2996,0.6604 -0.3027,0.6799 -0.3056,0.6995 -0.3082,0.7192 -0.3106,0.7388 -0.3127,0.7587 -0.3145,0.7785 -0.3161,0.7985 -0.3174,0.8184 -0.3185,0.8384 -0.3193,0.8586 -0.3198,0.8787 -0.3201,0.8988 -0.32,0.9191 -0.3198,0.9394 -0.3192,0.9597 -0.3185,0.9801 -0.3173,1.0004 -0.316,1.0209 -0.3144,1.0413 -0.3125,1.0618 -0.3103,1.0823 -0.3079,1.1028 -0.3052,1.1233 -0.3022,1.1439 -0.299,1.1645 -0.2955,1.185 -0.2916,1.2057 -0.2876,1.2262 -0.2833,1.2468 0.1338,0.7349 9.4573,7.1202 0.7432,-0.0746 1.1199,-0.6169 1.0989,-0.6154 1.078,-0.6136 1.0572,-0.6116 1.0364,-0.6092 1.0158,-0.6067 0.9952,-0.6039 0.9747,-0.6008 0.9543,-0.5974 0.934,-0.5939 0.9138,-0.59 0.8938,-0.5859 0.8737,-0.5816 0.8538,-0.5769 0.834,-0.5721 0.8144,-0.5671 0.7948,-0.5616 0.7753,-0.5561 0.7561,-0.5503 0.7368,-0.5442 0.7177,-0.5378 0.6988,-0.5314 0.6799,-0.5245 0.6612,-0.5175 0.6427,-0.5102 0.6242,-0.5028 0.6059,-0.495 0.5877,-0.4871 0.5697,-0.4788 0.5519,-0.4705 0.5341,-0.4618 0.5165,-0.4529 0.4991,-0.4439 0.4818,-0.4346 0.4647,-0.425 0.4477,-0.4153 0.4309,-0.4053 0.4142,-0.3951 0.3978,-0.3848 0.3814,-0.3742 1.4301,-0.4616 11.3018,7.4453 0.1404,1.4961 -0.1932,0.4982 -0.1965,0.5173 -0.1996,0.5366 -0.2023,0.5559 -0.2048,0.5753 -0.2071,0.5947 -0.2091,0.6142 -0.2108,0.6338 -0.2123,0.6533 -0.2135,0.6731 -0.2144,0.6927 -0.2151,0.7125 -0.2155,0.7322 -0.2157,0.7521 -0.2155,0.772 -0.2151,0.7919 -0.2145,0.8118 -0.2136,0.8317 -0.2123,0.8518 -0.2109,0.8718 -0.2092,0.8917 -0.2071,0.9119 -0.2049,0.9319 -0.2023,0.9519 -0.1996,0.9721 -0.1964,0.9921 -0.1931,1.0123 -0.1894,1.0323 -0.1856,1.0524 -0.1814,1.0725 -0.1769,1.0926 -0.1723,1.1127 -0.1672,1.1327 -0.162,1.1527 -0.1565,1.1728 -0.1506,1.1927 -0.1446,1.2128 -0.1383,1.2326 -0.1316,1.2526 -0.1248,1.2725 0.2248,0.7123 10.2751,5.8788 0.7281,-0.1672 1.0337,-0.7524 1.0131,-0.7483 0.9926,-0.7438 0.9722,-0.7393 0.9519,-0.7343 0.9317,-0.7292 0.9117,-0.7239 0.8917,-0.7182 0.8719,-0.7123 0.8522,-0.7062 0.8327,-0.6999 0.8132,-0.6933 0.794,-0.6865 0.7747,-0.6794 0.7558,-0.6722 0.7369,-0.6646 0.7181,-0.6569 0.6995,-0.6488 0.6811,-0.6407 0.6628,-0.6323 0.6447,-0.6236 0.6266,-0.6147 0.6089,-0.6056 0.5911,-0.5963 0.5736,-0.5867 0.5563,-0.577 0.5391,-0.5671 0.5221,-0.5569 0.5052,-0.5465 0.4885,-0.5359 0.472,-0.5251 0.4557,-0.5141 0.4395,-0.5029 0.4236,-0.4915 0.4077,-0.4799 0.3921,-0.4682 0.3767,-0.4561 0.3615,-0.444 0.3464,-0.4315 0.3315,-0.4191 1.361,-0.6372 12.1458,5.9701 0.3268,1.4667 -0.1293,0.5185 -0.1301,0.5379 -0.1307,0.5573 -0.1311,0.5769 -0.1311,0.5964 -0.1309,0.616 -0.1305,0.6356 -0.1297,0.6552 -0.1287,0.6748 -0.1275,0.6945 -0.1259,0.7141 -0.1241,0.7338 -0.122,0.7535 -0.1197,0.7732 -0.1171,0.7929 -0.1141,0.8126 -0.1111,0.8323 -0.1076,0.852 -0.1039,0.8716 -0.1,0.8913 -0.0957,0.911 -0.0913,0.9306 -0.0864,0.9502 -0.0815,0.9699 -0.0761,0.9894 -0.0705,1.0089 -0.0647,1.0285 -0.0586,1.0479 -0.0522,1.0674 -0.0455,1.0867 -0.0386,1.1062 -0.0315,1.1255 -0.0239,1.1447 -0.0163,1.1639 -0.008,1.1832 0,1.2022 0.008,1.2213 0.0174,1.2403 0.0263,1.2592 0.0358,1.278 0.3123,0.6786 10.9309,4.5446 0.7013,-0.2571 0.9313,-0.8761 0.9113,-0.8693 0.8916,-0.8624 0.8719,-0.8553 0.8523,-0.8478 0.833,-0.8403 0.8137,-0.8323 0.7947,-0.8244 0.7758,-0.816 0.7569,-0.8074 0.7384,-0.7988 0.7199,-0.7897 0.7017,-0.7806 0.6835,-0.7712 0.6655,-0.7615 0.6478,-0.7518 0.6302,-0.7417 0.6127,-0.7314 0.5954,-0.721 0.5783,-0.7103 0.5614,-0.6995 0.5447,-0.6884 0.5281,-0.6771 0.5118,-0.6657 0.4955,-0.654 0.4796,-0.6422 0.4638,-0.6302 0.4481,-0.6179 0.4328,-0.6055 0.4175,-0.5929 0.4024,-0.5801 0.3877,-0.5672 0.373,-0.554 0.3586,-0.5408 0.3444,-0.5272 0.3304,-0.5136 0.3165,-0.4997 0.303,-0.4858 0.2896,-0.4716 0.2764,-0.4573 1.2703,-0.8027 12.7983,4.4007 0.508,1.4142 -0.0632,0.5306 -0.0617,0.5499 -0.0598,0.5694 -0.0577,0.5887 -0.0554,0.6082 -0.0527,0.6275 -0.0497,0.6469 -0.0466,0.6663 -0.0431,0.6857 -0.0394,0.7049 -0.0354,0.7243 -0.0312,0.7436 -0.0266,0.7629 -0.0219,0.7821 -0.0167,0.8013 -0.0115,0.8205 -0.006,0.8396 0,0.8587 0.006,0.8778 0.0126,0.8969 0.0191,0.9158 0.0262,0.9347 0.0333,0.9535 0.0407,0.9724 0.0485,0.9911 0.0565,1.0099 0.0647,1.0284 0.0732,1.047 0.082,1.0655 0.0911,1.084 0.1003,1.1022 0.1099,1.1205 0.1197,1.1388 0.1297,1.1568 0.1401,1.1748 0.1507,1.1927 0.1616,1.2106 0.1726,1.2284 0.184,1.2459 0.1956,1.2635 0.3949,0.6341 11.4143,3.1388 0.6636,-0.343 0.8141,-0.9859 0.7952,-0.9767 0.7765,-0.9673 0.7578,-0.9578 0.7393,-0.948 0.7211,-0.938 0.703,-0.9278 0.6851,-0.9174 0.6674,-0.9068 0.6498,-0.896 0.6325,-0.885 0.6152,-0.8738 0.5983,-0.8623 0.5815,-0.8508 0.5648,-0.839 0.5485,-0.8269 0.5322,-0.8149 0.5162,-0.8024 0.5003,-0.79 0.4848,-0.7772 0.4693,-0.7643 0.4541,-0.7512 0.4391,-0.738 0.4243,-0.7246 0.4097,-0.711 0.3953,-0.6972 0.3811,-0.6833 0.3672,-0.6692 0.3534,-0.655 0.3399,-0.6405 0.3266,-0.626 0.3135,-0.6113 0.3006,-0.5965 0.288,-0.5814 0.2756,-0.5662 0.2634,-0.5509 0.2515,-0.5355 0.2396,-0.5199 0.2282,-0.5042 0.217,-0.4883 1.1596,-0.9556 13.249,2.7619 0.6813,1.3394 0.0037,0.5343 0.0077,0.5534 0.012,0.5723 0.0166,0.5914 0.0213,0.6103 0.0264,0.6292 0.0317,0.648 0.0373,0.6669 0.0431,0.6856 0.0493,0.7044 0.0556,0.723 0.0623,0.7416 0.0692,0.7602 0.0764,0.7787 0.0838,0.7971 0.0914,0.8154 0.0995,0.8338 0.1076,0.8519 0.1161,0.8701 0.1249,0.8882 0.1338,0.9062 0.143,0.924 0.1526,0.9419 0.1623,0.9596 0.1724,0.9773 0.1825,0.9947 0.1931,1.0123 0.2039,1.0295 0.2149,1.0469 0.2262,1.0639 0.2377,1.081 0.2494,1.098 0.2615,1.1147 0.2737,1.1314 0.2863,1.148 0.2989,1.1645 0.312,1.1808 0.3253,1.197 0.3387,1.2131 0.3524,1.229 0.4713,0.5796 11.7176,1.6834 0.6154,-0.4235 0.6842,-1.0801 0.6665,-1.0687 0.6491,-1.057 0.6317,-1.0452 0.6148,-1.0332 0.5978,-1.021 0.5812,-1.0086 0.5647,-0.996 0.5484,-0.9833 0.5324,-0.9704 0.5166,-0.9573 0.5009,-0.9439 0.4855,-0.9306 0.4702,-0.9169 0.4553,-0.9032 0.4404,-0.8892 0.4259,-0.8751 0.4116,-0.8608 0.3974,-0.8464 0.3835,-0.8319 0.3698,-0.8171 0.3564,-0.8022 0.3431,-0.7872 0.3302,-0.772 0.3173,-0.7568 0.3048,-0.7412 0.2925,-0.7257 0.2804,-0.71 0.2685,-0.6941 0.257,-0.6781 0.2455,-0.662 0.2344,-0.6457 0.2236,-0.6294 0.2128,-0.6129 0.2025,-0.5964 0.1922,-0.5796 0.1824,-0.5627 0.1726,-0.5459 0.1632,-0.5288 0.154,-0.5116 1.0308,-1.0935 13.4907,1.0796 0.8437,1.2435 0.0707,0.5296 0.077,0.5481 0.0837,0.5663 0.0905,0.5846 0.0976,0.6028 0.1051,0.6209 0.1126,0.639 0.1206,0.6569 0.1288,0.6749 0.1371,0.6926 0.1458,0.7103 0.1548,0.728 0.1639,0.7455 0.1734,0.763 0.183,0.7803 0.1929,0.7975 0.2032,0.8148 0.2136,0.8317 0.2242,0.8487 0.2352,0.8655 0.2463,0.8823 0.2578,0.8988 0.2694,0.9153 0.2813,0.9317 0.2934,0.948 0.3059,0.964 0.3184,0.9801 0.3313,0.9959 0.3444,1.0116 0.3577,1.0273 0.3713,1.0426 0.3851,1.058 0.3991,1.0732 0.4134,1.0882 0.4279,1.1031 0.4426,1.1178 0.4575,1.1324 0.4727,1.1468 0.4881,1.161 0.5037,1.1752 0.5401,0.516 11.8363,0.2015 0.5574,-0.4973 0.5434,-1.1573 0.5274,-1.1438 0.5114,-1.1301 0.4958,-1.1161 0.4804,-1.1021 0.4652,-1.0879 0.4502,-1.0735 0.4354,-1.0589 0.4209,-1.0443 0.4065,-1.0294 0.3925,-1.0145 0.3787,-0.9993 0.365,-0.9841 0.3516,-0.9686 0.3385,-0.9531 0.3255,-0.9374 0.3129,-0.9216 0.3004,-0.9056 0.2882,-0.8895 0.2762,-0.8734 0.2645,-0.857 0.253,-0.8406 0.2418,-0.824 0.2308,-0.8073 0.22,-0.7905 0.2095,-0.7737 0.1992,-0.7566 0.1892,-0.7395 0.1794,-0.7223 0.1699,-0.7049 0.1607,-0.6876 0.1516,-0.67 0.1429,-0.6525 0.1344,-0.6347 0.1261,-0.617 0.1181,-0.5992 0.1104,-0.5811 0.1028,-0.5632 0.0957,-0.5451 0.0886,-0.5269 0.8856,-1.214 13.5196,-0.6198 0.993,1.1279 0.1365,0.5166 0.1451,0.5341 0.1539,0.5514 0.1631,0.5686 0.1724,0.5859 0.1821,0.6028 0.1918,0.6198 0.202,0.6367 0.2123,0.6533 0.2229,0.67 0.2337,0.6865 0.2448,0.7028 0.256,0.7191 0.2676,0.7352 0.2794,0.7512 0.2914,0.7671 0.3037,0.7828 0.3161,0.7985 0.3289,0.8139 0.3418,0.8292 0.3549,0.8444 0.3684,0.8595 0.382,0.8743 0.3959,0.8891 0.4099,0.9037 0.4242,0.9181 0.4388,0.9324 0.4535,0.9465 0.4685,0.9605 0.4837,0.9743 0.499,0.988 0.5147,1.0013 0.5304,1.0147 0.5466,1.0278 0.5627,1.0408 0.5792,1.0535 0.5958,1.0661 0.6127,1.0785 0.6298,1.0908 0.647,1.1027 0.6006,0.4442 11.7682,-1.2835 0.4907,-0.5632 0.394,-1.2163 0.3799,-1.2009 0.3657,-1.1852 0.3521,-1.1695 0.3384,-1.1536 0.3252,-1.1376 0.3121,-1.1215 0.2992,-1.1052 0.2867,-1.0888 0.2744,-1.0722 0.2622,-1.0557 0.2504,-1.0389 0.2388,-1.022 0.2275,-1.0051 0.2163,-0.988 0.2055,-0.9708 0.1949,-0.9535 0.1845,-0.9362 0.1745,-0.9186 0.1646,-0.9011 0.155,-0.8834 0.1456,-0.8657 0.1366,-0.8478 0.1278,-0.8298 0.1191,-0.8119 0.1109,-0.7938 0.1028,-0.7756 0.0951,-0.7574 0.0875,-0.7391 0.0802,-0.7207 0.0732,-0.7023 0.0665,-0.6837 0.06,-0.6652 0.0537,-0.6466 0.0478,-0.6279 0.0421,-0.6093 0.0366,-0.5904 0.0315,-0.5716 0.0266,-0.5528 0.0219,-0.5339 0.7264,-1.3154 13.3354,-2.3093 1.1264,0.9946 0.2002,0.4954 0.2109,0.5116 0.2219,0.5278 0.233,0.5437 0.2445,0.5596 0.2562,0.5753 0.268,0.5909 0.2802,0.6063 0.2925,0.6216 0.3051,0.6367 0.3179,0.6518 0.3309,0.6666 0.3442,0.6813 0.3576,0.6959 0.3714,0.7103 0.3852,0.7245 0.3994,0.7386 0.4137,0.7525 0.4283,0.7663 0.443,0.7798 0.458,0.7933 0.4732,0.8065 0.4886,0.8196 0.5041,0.8324 0.52,0.8452 0.536,0.8577 0.5521,0.8701 0.5686,0.8822 0.5852,0.8942 0.6019,0.906 0.619,0.9176 0.6361,0.929 0.6534,0.9402 0.6711,0.9512 0.6887,0.962 0.7067,0.9726 0.7247,0.983 0.7431,0.9933 0.7615,1.0032 0.7801,1.013 0.6515,0.3654 11.5145,-2.7484 0.4163,-0.6203 0.2385,-1.2561 0.2263,-1.239 0.2144,-1.2217 0.2026,-1.2044 0.1912,-1.1869 0.18,-1.1694 0.1691,-1.1517 0.1584,-1.134 0.148,-1.1161 0.1377,-1.0982 0.1279,-1.0802 0.1182,-1.0621 0.1089,-1.0439 0.0997,-1.0257 0.0908,-1.0073 0.0822,-0.9889 0.0738,-0.9705 0.0658,-0.9518 0.0579,-0.9333 0.0504,-0.9146 0.043,-0.8959 0.036,-0.8771 0.0293,-0.8582 0.0227,-0.8394 0.0165,-0.8204 0.0105,-0.8014 0.005,-0.7824 -6e-4,-0.7633 -0.006,-0.7442 -0.0108,-0.7251 -0.0154,-0.7059 -0.0197,-0.6867 -0.0239,-0.6675 -0.0277,-0.6482 -0.0313,-0.629 -0.0346,-0.6097 -0.0376,-0.5903 -0.0405,-0.5711 -0.0429,-0.5517 -0.0451,-0.5325 0.5558,-1.3961 12.9408,-3.9624 1.2422,0.8455 0.2607,0.4664 0.2733,0.4812 0.2863,0.4958 0.2994,0.5102 0.3127,0.5246 0.3262,0.5386 0.34,0.5526 0.3539,0.5664 0.3681,0.5801 0.3825,0.5935 0.3971,0.6068 0.4119,0.6198 0.4268,0.6329 0.4421,0.6455 0.4574,0.6582 0.473,0.6705 0.4888,0.6827 0.5048,0.6947 0.5209,0.7066 0.5373,0.7182 0.5538,0.7296 0.5705,0.7408 0.5875,0.7519 0.6045,0.7627 0.6218,0.7733 0.6393,0.7838 0.6568,0.794 0.6747,0.804 0.6926,0.8138 0.7108,0.8234 0.729,0.8328 0.7475,0.8419 0.7662,0.8509 0.7849,0.8596 0.8039,0.8681 0.823,0.8764 0.8423,0.8845 0.8616,0.8922 0.8813,0.8999 0.9009,0.9072 0.6922,0.2809 11.0792,-4.1699 0.3353,-0.6675 0.0792,-1.2761 0.0692,-1.2576 0.0595,-1.239 0.0502,-1.2203 0.0409,-1.2015 0.032,-1.1827 0.0234,-1.1639 0.015,-1.1448 0.007,-1.1259 -9e-4,-1.1068 -0.008,-1.0877 -0.0158,-1.0686 -0.0229,-1.0493 -0.0297,-1.0301 -0.0361,-1.0107 -0.0424,-0.9914 -0.0484,-0.9721 -0.054,-0.9526 -0.0595,-0.9332 -0.0647,-0.9137 -0.0696,-0.8942 -0.0742,-0.8746 -0.0785,-0.8552 -0.0827,-0.8356 -0.0864,-0.816 -0.09,-0.7964 -0.0933,-0.7768 -0.0963,-0.7572 -0.0991,-0.7377 -0.1015,-0.718 -0.1038,-0.6984 -0.1056,-0.6788 -0.1074,-0.6592 -0.1087,-0.6397 -0.1099,-0.6201 -0.1107,-0.6005 -0.1114,-0.581 -0.1116,-0.5615 -0.1118,-0.542 -0.1115,-0.5226 0.3765,-1.4547 12.3421,-5.5531 1.3384,0.6831 0.3171,0.4301 0.3315,0.4431 0.3461,0.456 0.361,0.4687 0.376,0.4812 0.3911,0.4935 0.4066,0.5057 0.4221,0.5176 0.438,0.5293 0.4538,0.5409 0.47,0.5522 0.4863,0.5634 0.5028,0.5743 0.5195,0.5851 0.5363,0.5956 0.5533,0.606 0.5705,0.616 0.5879,0.626 0.6054,0.6357 0.623,0.6452 0.6409,0.6544 0.6589,0.6635 0.677,0.6723 0.6954,0.681 0.7138,0.6893 0.7325,0.6974 0.7512,0.7055 0.7701,0.7131 0.7891,0.7206 0.8084,0.7278 0.8277,0.7348 0.8471,0.7416 0.8668,0.7482 0.8865,0.7544 0.9063,0.7605 0.9264,0.7664 0.9464,0.7719 0.9667,0.7772 0.9871,0.7823 1.0075,0.7872 0.7219,0.1919 10.4693,-5.5256 0.2489,-0.7043 -0.0813,-1.276 -0.089,-1.2563 -0.0962,-1.2367 -0.1032,-1.2169 -0.11,-1.1972 -0.1164,-1.1774 -0.1227,-1.1576 -0.1286,-1.1378 -0.1342,-1.1178 -0.1397,-1.098 -0.1448,-1.0781 -0.1496,-1.0581 -0.1542,-1.0382 -0.1585,-1.0182 -0.1626,-0.9982 -0.1663,-0.9783 -0.1698,-0.9583 -0.173,-0.9384 -0.176,-0.9183 -0.1787,-0.8984 -0.1811,-0.8785 -0.1832,-0.8584 -0.1851,-0.8386 -0.1867,-0.8186 -0.1881,-0.7988 -0.1891,-0.7788 -0.1899,-0.759 -0.1905,-0.7392 -0.1907,-0.7194 -0.1907,-0.6996 -0.1905,-0.6799 -0.1899,-0.6602 -0.1891,-0.6406 -0.1881,-0.621 -0.1867,-0.6014 -0.1851,-0.5819 -0.1833,-0.5625 -0.1812,-0.5431 -0.1787,-0.5237 -0.1762,-0.5045 0.1912,-1.4905 11.5488,-7.0561 1.4134,0.51 0.3685,0.3869 0.3845,0.3981 0.4005,0.409 0.4169,0.4198 0.4333,0.4303 0.4499,0.4406 0.4668,0.4507 0.4837,0.4606 0.5008,0.4702 0.518,0.4798 0.5355,0.4889 0.5531,0.498 0.5708,0.5068 0.5888,0.5154 0.6067,0.5237 0.6249,0.5318 0.6432,0.5397 0.6617,0.5474 0.6803,0.5548 0.699,0.562 0.7178,0.5689 0.7369,0.5757 0.7559,0.5822 0.7753,0.5884 0.7945,0.5944 0.8141,0.6002 0.8337,0.6057 0.8534,0.6109 0.8733,0.616 0.8932,0.6208 0.9132,0.6253 0.9335,0.6296 0.9536,0.6336 0.9741,0.6374 0.9945,0.6409 1.0151,0.6442 1.0357,0.6472 1.0565,0.6499 1.0774,0.6525 1.0982,0.6546 0.7403,0.0999 9.6942,-6.7941 0.1587,-0.73 -0.2407,-1.2557 -0.2457,-1.2353 -0.2504,-1.2148 -0.255,-1.1944 -0.2591,-1.174 -0.2631,-1.1535 -0.2668,-1.1331 -0.2702,-1.1127 -0.2733,-1.0922 -0.2761,-1.0718 -0.2788,-1.0514 -0.281,-1.031 -0.2832,-1.0107 -0.2848,-0.9903 -0.2864,-0.97 -0.2876,-0.9498 -0.2886,-0.9294 -0.2893,-0.9093 -0.2897,-0.889 -0.2899,-0.869 -0.2897,-0.8488 -0.2894,-0.8287 -0.2888,-0.8087 -0.2878,-0.7888 -0.2867,-0.7689 -0.2852,-0.749 -0.2836,-0.7292 -0.2816,-0.7095 -0.2794,-0.6898 -0.2769,-0.6702 -0.2741,-0.6507 -0.2712,-0.6312 -0.2679,-0.6118 -0.2644,-0.5925 -0.2606,-0.5733 -0.2566,-0.5541 -0.2524,-0.5351 -0.2478,-0.5161 -0.243,-0.4972 -0.238,-0.4784 0.003,-1.5027 10.5733,-8.448 1.4663,0.3289 0.4141,0.3377 0.4313,0.3467 0.4487,0.3556 0.4661,0.3642 0.4839,0.3726 0.5016,0.3808 0.5195,0.3886 0.5376,0.3963 0.5558,0.4038 0.5741,0.4111 0.5926,0.4179 0.6111,0.4248 0.6299,0.4312 0.6486,0.4375 0.6676,0.4436 0.6866,0.4493 0.7058,0.4548 0.7251,0.4601 0.7444,0.4652 0.7639,0.47 0.7836,0.4745 0.8032,0.4787 0.8229,0.4829 0.8429,0.4866 0.8628,0.4901 0.8829,0.4934 0.903,0.4965 0.9233,0.4991 0.9435,0.5017 0.964,0.504 0.9844,0.5059 1.005,0.5076 1.0256,0.5091 1.0462,0.5103 1.067,0.5112 1.0879,0.5119 1.1087,0.5123 1.1296,0.5124 1.1506,0.5122 1.1716,0.5119 0.747,0.006 8.7662,-7.9555 0.0659,-0.7441 -0.3961,-1.2157 -0.3986,-1.1947 -0.4007,-1.1739 -0.4026,-1.1531 -0.4043,-1.1322 -0.4056,-1.1114 -0.4067,-1.0908 -0.4075,-1.07 -0.408,-1.0493 -0.4083,-1.0288 -0.4084,-1.0082 -0.408,-0.9876 -0.4076,-0.9673 -0.4067,-0.9468 -0.4057,-0.9264 -0.4044,-0.9062 -0.4028,-0.886 -0.4009,-0.8658 -0.3989,-0.8458 -0.3965,-0.8257 -0.3938,-0.8058 -0.391,-0.7859 -0.3878,-0.7662 -0.3845,-0.7465 -0.3808,-0.7269 -0.3768,-0.7073 -0.3727,-0.6879 -0.3683,-0.6686 -0.3637,-0.6494 -0.3587,-0.6302 -0.3535,-0.6112 -0.3482,-0.5922 -0.3425,-0.5735 -0.3365,-0.5547 -0.3305,-0.536 -0.324,-0.5176 -0.3174,-0.4993 -0.3105,-0.4809 -0.3034,-0.4628 -0.2961,-0.4448 -0.1855,-1.4913 9.4311,-9.7065 1.496,0.1425 0.4531,0.2831 0.4714,0.29 0.4897,0.2965 0.5081,0.3029 0.5267,0.3091 0.5454,0.3148 0.5641,0.3205 0.5831,0.3258 0.602,0.331 0.6211,0.3358 0.6403,0.3404 0.6595,0.3448 0.679,0.3489 0.6983,0.3528 0.7179,0.3563 0.7376,0.3597 0.7572,0.3628 0.777,0.3657 0.7969,0.3682 0.8168,0.3705 0.8368,0.3725 0.8569,0.3744 0.877,0.3758 0.8971,0.3772 0.9175,0.3781 0.9378,0.3789 0.9581,0.3793 0.9785,0.3795 0.999,0.3795 1.0196,0.3792 1.04,0.3785 1.0607,0.3777 1.0813,0.3765 1.102,0.3751 1.1226,0.3735 1.1434,0.3715 1.1642,0.3693 1.1849,0.3668 1.2057,0.364 1.2266,0.361 0.7419,-0.0874 7.7,-8.9915 -0.0279,-0.7465 -0.5453,-1.1564 -0.5452,-1.1354 -0.5447,-1.1144 -0.544,-1.0935 -0.5429,-1.0726 -0.5418,-1.0519 -0.5401,-1.0311 -0.5384,-1.0105 -0.5364,-0.99 -0.534,-0.9694 -0.5315,-0.9491 -0.5286,-0.9287 -0.5256,-0.9085 -0.5222,-0.8884 -0.5186,-0.8683 -0.5148,-0.8484 -0.5106,-0.8285 -0.5063,-0.8087 -0.5017,-0.7891 -0.4969,-0.7695 -0.4917,-0.7501 -0.4864,-0.7308 -0.4808,-0.7115 -0.475,-0.6924 -0.4689,-0.6734 -0.4625,-0.6545 -0.456,-0.6358 -0.4492,-0.6172 -0.4422,-0.5987 -0.4349,-0.5803 -0.4273,-0.562 -0.4196,-0.5439 -0.4117,-0.526 -0.4034,-0.5082 -0.395,-0.4904 -0.3864,-0.4729 -0.3775,-0.4555 -0.3683,-0.4383 -0.359,-0.4211 -0.3495,-0.4042 -0.371,-1.4562 8.1403,-10.8121 1.502,-0.0461 0.485,0.2241 0.504,0.2286 0.523,0.2329 0.5421,0.2368 0.5613,0.2406 0.5805,0.244 0.5999,0.2472 0.6193,0.2502 0.6387,0.2529 0.6583,0.2553 0.6779,0.2575 0.6976,0.2594 0.7173,0.2611 0.737,0.2625 0.757,0.2635 0.7768,0.2645 0.7967,0.265 0.8167,0.2653 0.8367,0.2655 0.8568,0.2652 0.8769,0.2647 0.8971,0.264 0.9172,0.263 0.9373,0.2617 0.9577,0.2602 0.9778,0.2583 0.9981,0.2563 1.0184,0.2539 1.0387,0.2513 1.059,0.2483 1.0793,0.2452 1.0997,0.2418 1.1199,0.238 1.1403,0.2341 1.1606,0.2298 1.181,0.2253 1.2012,0.2204 1.2216,0.2154 1.2418,0.21 1.2622,0.2044 0.725,-0.1796 6.5124,-9.8857 -0.1212,-0.7371 -0.686,-1.0789 -0.6832,-1.0581 -0.68,-1.0374 -0.6768,-1.0167 -0.6731,-0.9961 -0.6693,-0.9757 -0.6651,-0.9553 -0.6608,-0.935 -0.6562,-0.915 -0.6513,-0.8948 -0.6463,-0.875 -0.6408,-0.8552 -0.6353,-0.8354 -0.6295,-0.8159 -0.6233,-0.7965 -0.6171,-0.7772 -0.6104,-0.7579 -0.6037,-0.7389 -0.5966,-0.72 -0.5894,-0.7012 -0.5819,-0.6825 -0.5742,-0.6641 -0.5661,-0.6456 -0.558,-0.6274 -0.5496,-0.6094 -0.541,-0.5914 -0.5321,-0.5736 -0.523,-0.556 -0.5137,-0.5385 -0.5041,-0.5212 -0.4945,-0.5041 -0.4845,-0.4871 -0.4743,-0.4702 -0.4639,-0.4536 -0.4534,-0.437 -0.4426,-0.4208 -0.4315,-0.4046 -0.4204,-0.3886 -0.409,-0.3728 -0.3974,-0.3572 -0.5505,-1.3983 6.7209,-11.747 1.4844,-0.234 0.5093,0.1615 0.5287,0.1637 0.548,0.1654 0.5675,0.1671 0.587,0.1683 0.6066,0.1693 0.6261,0.1701 0.6458,0.1706 0.6654,0.1708 0.6851,0.1708 0.7048,0.1706 0.7246,0.1699 0.7443,0.1691 0.7642,0.168 0.784,0.1666 0.8038,0.165 0.8237,0.1631 0.8435,0.1609 0.8634,0.1584 0.8833,0.1558 0.9031,0.1527 0.9231,0.1495 0.9429,0.146 0.9628,0.1421 0.9827,0.1381 1.0025,0.1338 1.0223,0.1291 1.0422,0.1243 1.062,0.1191 1.0818,0.1137 1.1015,0.108 1.1213,0.102 1.141,0.0958 1.1606,0.0893 1.1803,0.0825 1.1998,0.0755 1.2195,0.0682 1.2389,0.0606 1.2584,0.0527 1.2777,0.0446 0.6969,-0.2691 5.222,-10.624 -0.2126,-0.7161 -0.8158,-0.9844 -0.8104,-0.9642 -0.8048,-0.9439 -0.7988,-0.9238 -0.7927,-0.9039 -0.7862,-0.8841 -0.7797,-0.8645 -0.7728,-0.8448 -0.7656,-0.8255 -0.7584,-0.8062 -0.7508,-0.787 -0.743,-0.7681 -0.735,-0.7493 -0.7267,-0.7306 -0.7183,-0.712 -0.7095,-0.6937 -0.7007,-0.6755 -0.6915,-0.6574 -0.6822,-0.6396 -0.6726,-0.6217 -0.6629,-0.6043 -0.6528,-0.5868 -0.6426,-0.5696 -0.6323,-0.5525 -0.6216,-0.5357 -0.6108,-0.5189 -0.5998,-0.5024 -0.5885,-0.4861 -0.5772,-0.4699 -0.5655,-0.4539 -0.5537,-0.4381 -0.5417,-0.4225 -0.5296,-0.4071 -0.5171,-0.3918 -0.5046,-0.3769 -0.4918,-0.3619 -0.4789,-0.3473 -0.4657,-0.3329 -0.4525,-0.3186 -0.439,-0.3046 -0.7215,-1.3182 5.1957,-12.4968 1.4433,-0.4182 0.5255,0.0965 0.5451,0.096 0.5644,0.0955 0.584,0.0946 0.6035,0.0934 0.623,0.092 0.6425,0.0903 0.662,0.0883 0.6816,0.0861 0.7011,0.0836 0.7206,0.0808 0.7402,0.0778 0.7597,0.0745 0.7792,0.0709 0.7986,0.067 0.8182,0.063 0.8376,0.0585 0.8571,0.0539 0.8764,0.049 0.8958,0.0438 0.9152,0.0384 0.9345,0.0326 0.9538,0.0266 0.973,0.0204 0.9923,0.0138 1.0113,0.007 1.0305,0 1.0496,-0.007 1.0685,-0.0149 1.0875,-0.0228 1.1064,-0.0309 1.1252,-0.0393 1.144,-0.048 1.1627,-0.0568 1.1813,-0.0661 1.1998,-0.0755 1.2184,-0.0852 1.2367,-0.0952 1.2551,-0.1054 1.2733,-0.1159 0.6576,-0.3543 3.8493,-11.1947 -0.3007,-0.6838 -0.9328,-0.8744 -0.9248,-0.855 -0.9167,-0.8356 -0.9083,-0.8165 -0.8997,-0.7974 -0.8909,-0.7786 -0.8818,-0.7598 -0.8726,-0.7414 -0.8631,-0.723 -0.8534,-0.7048 -0.8436,-0.6867 -0.8334,-0.6689 -0.8231,-0.6513 -0.8125,-0.6337 -0.8019,-0.6165 -0.7909,-0.5992 -0.7798,-0.5824 -0.7685,-0.5655 -0.7569,-0.549 -0.7452,-0.5326 -0.7334,-0.5164 -0.7212,-0.5004 -0.709,-0.4845 -0.6965,-0.469 -0.6839,-0.4535 -0.671,-0.4383 -0.658,-0.4233 -0.6448,-0.4084 -0.6315,-0.3939 -0.618,-0.3794 -0.6042,-0.3653 -0.5904,-0.3513 -0.5764,-0.3375 -0.5622,-0.3239 -0.5478,-0.3106 -0.5333,-0.2975 -0.5186,-0.2845 -0.5039,-0.2719 -0.4888,-0.2594 -0.4737,-0.2472 -0.881,-1.2174 3.5884,-13.0494 1.3796,-0.5958 0.5334,0.0299 0.5528,0.027 0.572,0.0239 0.5912,0.0207 0.6104,0.017 0.6296,0.0132 0.6488,0.009 0.6679,0.0047 0.687,0 0.706,-0.005 0.7251,-0.0101 0.7441,-0.0156 0.763,-0.0213 0.7819,-0.0273 0.8008,-0.0336 0.8196,-0.0401 0.8384,-0.0469 0.857,-0.0539 0.8757,-0.0613 0.8943,-0.0688 0.9127,-0.0766 0.9313,-0.0848 0.9496,-0.0931 0.9679,-0.1018 0.9861,-0.1106 1.0043,-0.1198 1.0223,-0.1291 1.0404,-0.1388 1.0582,-0.1488 1.0761,-0.1589 1.0938,-0.1693 1.1114,-0.1801 1.129,-0.1909 1.1463,-0.2022 1.1637,-0.2136 1.181,-0.2252 1.198,-0.2373 1.2151,-0.2494 1.232,-0.2619 1.2487,-0.2745 0.608,-0.434 2.4159,-11.5888 -0.384,-0.6408 -1.035,-0.7506 -1.0248,-0.7323 -1.0141,-0.7142 -1.0035,-0.6961 -0.9926,-0.6784 -0.9814,-0.6608 -0.9701,-0.6433 -0.9586,-0.6262 -0.947,-0.6091 -0.935,-0.5923 -0.9229,-0.5756 -0.9107,-0.5592 -0.8982,-0.5429 -0.8856,-0.5269 -0.8728,-0.5111 -0.8598,-0.4954 -0.8466,-0.48 -0.8333,-0.4648 -0.8198,-0.4498 -0.8061,-0.435 -0.7923,-0.4204 -0.7783,-0.406 -0.7641,-0.3919 -0.7498,-0.378 -0.7353,-0.3642 -0.7206,-0.3507 -0.7059,-0.3375 -0.691,-0.3244 -0.6758,-0.3116 -0.6607,-0.299 -0.6452,-0.2867 -0.6298,-0.2745 -0.6141,-0.2626 -0.5984,-0.2509 -0.5824,-0.2395 -0.5664,-0.2283 -0.5502,-0.2173 -0.5339,-0.2066 -0.5175,-0.1961 -0.501,-0.1858 -1.0266,-1.0974 1.9246,-13.3962 1.294,-0.764 0.533,-0.0373 0.5518,-0.0425 0.5705,-0.0479 0.5891,-0.0536 0.6078,-0.0596 0.6262,-0.0659 0.6448,-0.0723 0.6632,-0.0791 0.6816,-0.0861 0.6999,-0.0934 0.7181,-0.1009 0.7362,-0.1088 0.7544,-0.1168 0.7723,-0.1251 0.7903,-0.1336 0.8081,-0.1425 0.8258,-0.1516 0.8436,-0.1609 0.8611,-0.1706 0.8785,-0.1803 0.896,-0.1905 0.9133,-0.2008 0.9304,-0.2114 0.9475,-0.2222 0.9645,-0.2334 0.9814,-0.2447 0.9981,-0.2563 1.0147,-0.2681 1.0313,-0.2802 1.0477,-0.2925 1.0639,-0.3051 1.0801,-0.3179 1.0961,-0.3309 1.112,-0.3443 1.1278,-0.3577 1.1434,-0.3716 1.1588,-0.3855 1.1743,-0.3997 1.1894,-0.4142 1.2045,-0.4289 0.5488,-0.5068 0.9443,-11.8002 -0.4612,-0.5876 -1.121,-0.615 -1.1084,-0.5981 -1.0957,-0.5814 -1.0828,-0.5649 -1.0698,-0.5486 -1.0565,-0.5326 -1.0431,-0.5167 -1.0295,-0.501 -1.0158,-0.4857 -1.0019,-0.4704 -0.9878,-0.4554 -0.9736,-0.4406 -0.9591,-0.4261 -0.9447,-0.4118 -0.93,-0.3976 -0.9151,-0.3838 -0.9001,-0.3701 -0.885,-0.3567 -0.8697,-0.3435 -0.8542,-0.3305 -0.8387,-0.3178 -0.8231,-0.3053 -0.8072,-0.293 -0.7912,-0.281 -0.7752,-0.2692 -0.7589,-0.2576 -0.7426,-0.2464 -0.7262,-0.2352 -0.7096,-0.2245 -0.6929,-0.2138 -0.6761,-0.2035 -0.6592,-0.1935 -0.6422,-0.1835 -0.6251,-0.174 -0.6078,-0.1646 -0.5905,-0.1555 -0.5732,-0.1466 -0.5556,-0.138 -0.538,-0.1297 -0.5203,-0.1216 -1.156,-0.9601 z"
     id="gearpoly1" /><g
     class="guides"
     id="g5"><polyline
       fill="none"
       stroke="#444"
       stroke-width="0.5"
       stroke-miterlimit="10"
       points="10,0 -10,0"
       id="polyline7" /><polyline
       fill="none"
       stroke="#444"
       stroke-width="0.5"
       stroke-miterlimit="10"
       points="0,10 0,-10"
       id="polyline9" /></g><circle
     fill="#c00"
     class="firstmarker"
     stroke="none"
     stroke-miterlimit="10"
     cx="416.2296"
     cy="-19.0797"
     r="6.5417"
     id="circle11" /><g
     class="geartext"
     id="g13"><g
       class="text"
       id="g15"><polyline
         fill="none"
         stroke="#444"
         stroke-width="0.5"
         stroke-linecap="square"
         stroke-miterlimit="1"
         points="297.26 -216.09 295.49 -218.51 293.69 -220.91 291.88 -223.3 290.05 -225.68 "
         id="polyline17" /><polyline
         fill="none"
         stroke="#444"
         stroke-width="0.5"
         stroke-linecap="square"
         stroke-miterlimit="1"
         points="288.9 -217.3 298.49 -224.52 "
         id="polyline19" /><polyline
         fill="none"
         stroke="#444"
         stroke-width="0.5"
         stroke-linecap="square"
         stroke-miterlimit="1"
         points="302.11 -219.61 297.9 -220.29 293.69 -220.91 289.5 -221.48 285.31 -221.99 "
         id="polyline21" /><polyline
         fill="none"
         stroke="#444"
         stroke-width="0.5"
         stroke-linecap="square"
         stroke-miterlimit="1"
         points="292.41 -212.56 293.07 -216.72 293.69 -220.91 294.26 -225.12 294.78 -229.36 "
         id="polyline23" /><polyline
         fill="none"
         stroke="#444"
         stroke-width="0.5"
         stroke-linecap="square"
         stroke-miterlimit="1"
         points="305.66 -214.65 309.87 -213.85 295.05 -203.63 "
         id="polyline25" /><polyline
         fill="none"
         stroke="#444"
         stroke-width="0.5"
         stroke-linecap="square"
         stroke-miterlimit="1"
         points="296.71 -201.21 295.05 -203.63 293.38 -206.03 "
         id="polyline27" /><polyline
         fill="none"
         stroke="#444"
         stroke-width="0.5"
         stroke-linecap="square"
         stroke-miterlimit="1"
         points="329.3 -182.52 313.56 -173.8 316.04 -178.56 318.48 -183.38 320.85 -188.25 323.16 -193.18 307.71 -183.94 "
         id="polyline29" /><polyline
         fill="none"
         stroke="#444"
         stroke-width="0.5"
         stroke-linecap="square"
         stroke-miterlimit="1"
         points="332.46 -163.53 331.11 -166.24 329.74 -168.94 328.35 -171.63 326.94 -174.3 "
         id="polyline31" /><polyline
         fill="none"
         stroke="#444"
         stroke-width="0.5"
         stroke-linecap="square"
         stroke-miterlimit="1"
         points="327.07 -160.89 325.75 -163.55 324.4 -166.2 323.03 -168.85 321.65 -171.48 "
         id="polyline33" /><polyline
         fill="none"
         stroke="#444"
         stroke-width="0.5"
         stroke-linecap="square"
         stroke-miterlimit="1"
         points="345.57 -149.44 344.34 -152.26 343.09 -155.06 341.81 -157.86 340.51 -160.64 335.08 -158.08 336.36 -155.34 337.62 -152.59 338.85 -149.83 337.31 -145.87 331.8 -143.49 327.88 -144.98 326.68 -147.65 325.47 -150.31 326.94 -154.24 "
         id="polyline35" /><polyline
         fill="none"
         stroke="#444"
         stroke-width="0.5"
         stroke-linecap="square"
         stroke-miterlimit="1"
         points="337.38 -129.83 333.52 -131.48 332.44 -134.2 334.1 -138.05 345.19 -142.63 349.13 -140.94 350.27 -138.08 348.58 -134.14 337.38 -129.83 "
         id="polyline37" /><polyline
         fill="none"
         stroke="#444"
         stroke-width="0.5"
         stroke-linecap="square"
         stroke-miterlimit="1"
         points="349.96 -112.18 350.86 -109.32 351.74 -106.45 352.6 -103.58 356.32 -101.52 359.21 -102.34 361.24 -106.11 360.36 -109.06 359.46 -112 358.53 -114.93 341.39 -109.43 "
         id="polyline39" /><polyline
         fill="none"
         stroke="#444"
         stroke-width="0.5"
         stroke-linecap="square"
         stroke-miterlimit="1"
         points="346.34 -92.59 357.93 -95.69 "
         id="polyline41" /><polyline
         fill="none"
         stroke="#444"
         stroke-width="0.5"
         stroke-linecap="square"
         stroke-miterlimit="1"
         points="360.83 -96.46 363.73 -97.24 "
         id="polyline43" /><polyline
         fill="none"
         stroke="#444"
         stroke-width="0.5"
         stroke-linecap="square"
         stroke-miterlimit="1"
         points="353.39 -76.15 349.83 -78.38 352.1 -81.91 366.71 -85.31 "
         id="polyline45" /><polyline
         fill="none"
         stroke="#444"
         stroke-width="0.5"
         stroke-linecap="square"
         stroke-miterlimit="1"
         points="362.19 -78.05 361.54 -81 360.86 -83.95 360.17 -86.89 359.45 -89.83 "
         id="polyline47" /><polyline
         fill="none"
         stroke="#444"
         stroke-width="0.5"
         stroke-linecap="square"
         stroke-miterlimit="1"
         points="353.73 -58.27 353.25 -61.16 352.73 -64.04 352.2 -66.92 354.58 -70.37 360.47 -71.54 363.99 -69.16 364.54 -66.18 365.07 -63.2 365.57 -60.22 "
         id="polyline49" /><polyline
         fill="none"
         stroke="#444"
         stroke-width="0.5"
         stroke-linecap="square"
         stroke-miterlimit="1"
         points="360.57 -53.37 363.97 -50.84 367.34 -48.25 367.73 -45.25 365.1 -41.91 356.16 -40.88 "
         id="polyline51" /><polyline
         fill="none"
         stroke="#444"
         stroke-width="0.5"
         stroke-linecap="square"
         stroke-miterlimit="1"
         points="354.64 -52.49 372.44 -55.12 "
         id="polyline53" /><polyline
         fill="none"
         stroke="#444"
         stroke-width="0.5"
         stroke-linecap="square"
         stroke-miterlimit="1"
         points="357.91 -20.47 358.07 -17.55 358.2 -14.63 358.31 -11.7 361.39 -8.85 373.39 -9.15 376.3 -12.29 376.19 -15.36 376.05 -18.43 375.89 -21.5 "
         id="polyline55" /><polyline
         fill="none"
         stroke="#444"
         stroke-width="0.5"
         stroke-linecap="square"
         stroke-miterlimit="1"
         points="376.05 -18.43 358.07 -17.55 "
         id="polyline57" /><polyline
         fill="none"
         stroke="#444"
         stroke-width="0.5"
         stroke-linecap="square"
         stroke-miterlimit="1"
         points="370.39 9.07 370.45 6.05 370.49 3.02 370.5 0 370.49 -3.02 "
         id="polyline59" /><polyline
         fill="none"
         stroke="#444"
         stroke-width="0.5"
         stroke-linecap="square"
         stroke-miterlimit="1"
         points="364.39 8.93 364.45 5.95 364.49 2.98 364.5 0 364.49 -2.98 "
         id="polyline61" /><polyline
         fill="none"
         stroke="#444"
         stroke-width="0.5"
         stroke-linecap="square"
         stroke-miterlimit="1"
         points="367.06 17.99 364.2 14.87 361.2 14.75 358.07 17.55 357.91 20.47 357.74 23.4 360.52 26.54 363.52 26.76 366.72 23.98 366.9 20.99 367.06 17.99 370.19 15.12 373.19 15.24 376.05 18.43 375.89 21.5 375.7 24.57 372.49 27.42 369.5 27.2 366.72 23.98 "
         id="polyline63" /><polyline
         fill="none"
         stroke="#444"
         stroke-width="0.5"
         stroke-linecap="square"
         stroke-miterlimit="1"
         points="360.04 32.42 357.06 32.15 "
         id="polyline65" /><polyline
         fill="none"
         stroke="#444"
         stroke-width="0.5"
         stroke-linecap="square"
         stroke-miterlimit="1"
         points="371.4 39.56 374.04 42.93 373.68 45.99 373.29 49.04 369.91 51.67 366.94 51.25 364.37 47.86 361 50.42 358.02 50.01 355.45 46.69 355.82 43.79 356.16 40.88 359.47 38.29 "
         id="polyline67" /><polyline
         fill="none"
         stroke="#444"
         stroke-width="0.5"
         stroke-linecap="square"
         stroke-miterlimit="1"
         points="364.75 44.89 364.37 47.86 "
         id="polyline69" /><polyline
         fill="none"
         stroke="#444"
         stroke-width="0.5"
         stroke-linecap="square"
         stroke-miterlimit="1"
         points="369.02 57.7 371.49 61.2 370.98 64.23 370.44 67.25 366.94 69.72 363.99 69.16 361.59 65.65 358.09 68.04 355.15 67.48 352.73 64.04 353.25 61.16 353.73 58.27 357.16 55.84 "
         id="polyline71" /><polyline
         fill="none"
         stroke="#444"
         stroke-width="0.5"
         stroke-linecap="square"
         stroke-miterlimit="1"
         points="362.11 62.69 361.59 65.65 "
         id="polyline73" /><polyline
         fill="none"
         stroke="#444"
         stroke-width="0.5"
         stroke-linecap="square"
         stroke-miterlimit="1"
         points="356.53 89.1 355.8 92.01 355.03 94.91 354.25 97.81 356.32 101.52 359.21 102.34 362.92 100.2 363.73 97.24 364.51 94.26 365.27 91.29 347.8 86.92 "
         id="polyline75" /><polyline
         fill="none"
         stroke="#444"
         stroke-width="0.5"
         stroke-linecap="square"
         stroke-miterlimit="1"
         points="350.92 118.84 351.88 115.97 352.82 113.1 353.73 110.21 354.62 107.32 "
         id="polyline77" /><polyline
         fill="none"
         stroke="#444"
         stroke-width="0.5"
         stroke-linecap="square"
         stroke-miterlimit="1"
         points="345.24 116.92 346.18 114.09 347.1 111.26 348 108.43 348.87 105.58 "
         id="polyline79" /><polyline
         fill="none"
         stroke="#444"
         stroke-width="0.5"
         stroke-linecap="square"
         stroke-miterlimit="1"
         points="346.11 123.55 345.09 126.37 344.05 129.18 342.98 131.98 339.1 133.68 336.31 132.58 334.58 128.75 335.62 126.02 336.64 123.27 340.46 121.53 348.94 124.55 350.72 128.43 352.47 132.34 351.38 135.22 "
         id="polyline81" /><polyline
         fill="none"
         stroke="#444"
         stroke-width="0.5"
         stroke-linecap="square"
         stroke-miterlimit="1"
         points="333.64 154.09 332.37 156.8 331.08 159.51 329.76 162.21 331.11 166.24 333.79 167.59 337.84 166.18 339.19 163.42 340.51 160.64 341.81 157.86 325.47 150.31 "
         id="polyline83" /><polyline
         fill="none"
         stroke="#444"
         stroke-width="0.5"
         stroke-linecap="square"
         stroke-miterlimit="1"
         points="317.72 166.07 323.03 168.85 326.94 174.3 330.78 179.83 324.05 179.61 317.35 179.3 312.13 176.35 "
         id="polyline85" /><polyline
         fill="none"
         stroke="#444"
         stroke-width="0.5"
         stroke-linecap="square"
         stroke-miterlimit="1"
         points="323.03 168.85 321.65 171.48 320.23 174.1 318.8 176.71 317.35 179.3 "
         id="polyline87" /><polyline
         fill="none"
         stroke="#444"
         stroke-width="0.5"
         stroke-linecap="square"
         stroke-miterlimit="1"
         points="313.26 197.83 314.87 195.26 316.45 192.69 318.01 190.1 319.56 187.5 "
         id="polyline89" /><polyline
         fill="none"
         stroke="#444"
         stroke-width="0.5"
         stroke-linecap="square"
         stroke-miterlimit="1"
         points="308.19 194.62 309.77 192.1 311.33 189.57 312.86 187.02 314.38 184.46 "
         id="polyline91" /><polyline
         fill="none"
         stroke="#444"
         stroke-width="0.5"
         stroke-linecap="square"
         stroke-miterlimit="1"
         points="293.38 206.03 295.05 203.63 296.71 201.21 298.34 198.79 299.95 196.34 304.97 199.63 305.83 203.78 304.16 206.27 302.46 208.74 303.2 212.93 305.66 214.65 309.87 213.85 311.6 211.32 313.32 208.77 312.5 204.56 "
         id="polyline93" /><polyline
         fill="none"
         stroke="#444"
         stroke-width="0.5"
         stroke-linecap="square"
         stroke-miterlimit="1"
         points="287.11 219.65 286.5 215.5 288.25 213.15 292.41 212.56 302.11 219.61 302.72 223.86 300.88 226.32 296.64 226.95 287.11 219.65 "
         id="polyline95" /></g></g><path
     style="opacity:0.2;fill:none;stroke:#ff0000;stroke-miterlimit:10"
     d="M 416.67001,0 C 416.67001,230.12049 230.12049,416.67001 0,416.67001 -230.12049,416.67001 -416.67001,230.12049 -416.67001,0 c 0,-230.12049 186.54952,-416.67001 416.67001,-416.67001 230.12049,0 416.67001,186.54952 416.67001,416.67001 z"
     id="circle99" /><path
     style="opacity:0.2;fill:none;stroke:#cccccc;stroke-miterlimit:10;stroke-dasharray:2, 2"
     d="M 433.32999,0 C 433.32999,239.32154 239.32154,433.32999 0,433.32999 -239.32154,433.32999 -433.32999,239.32154 -433.32999,0 c 0,-239.32154 194.00845,-433.32999 433.32999,-433.32999 239.32154,0 433.32999,194.00845 433.32999,433.32999 z"
     id="circle101" /></svg>