<?xml version="1.0" encoding="UTF-8" standalone="no"?>
<!-- Generator: Iparigrafika Gear Generator by Abel Vincze http://geargenerator.com/ -->

<svg
   xmlns:dc="http://purl.org/dc/elements/1.1/"
   xmlns:cc="http://creativecommons.org/ns#"
   xmlns:rdf="http://www.w3.org/1999/02/22-rdf-syntax-ns#"
   xmlns:svg="http://www.w3.org/2000/svg"
   xmlns="http://www.w3.org/2000/svg"
   xmlns:sodipodi="http://sodipodi.sourceforge.net/DTD/sodipodi-0.dtd"
   xmlns:inkscape="http://www.inkscape.org/namespaces/inkscape"
   version="1.2"
   class="svggear"
   x="0px"
   y="0px"
   width="518px"
   height="518px"
   viewBox="-259 -259 518 518"
   overflow="scroll"
   xml:space="preserve"
   id="svg2"
   inkscape:version="0.48.4 r9939"
   sodipodi:docname="60.svg"><metadata
     id="metadata103"><rdf:RDF><cc:Work
         rdf:about=""><dc:format>image/svg+xml</dc:format><dc:type
           rdf:resource="http://purl.org/dc/dcmitype/StillImage" /></cc:Work></rdf:RDF></metadata><defs
     id="defs101" /><sodipodi:namedview
     pagecolor="#ffffff"
     bordercolor="#666666"
     borderopacity="1"
     objecttolerance="10"
     gridtolerance="10"
     guidetolerance="10"
     inkscape:pageopacity="0"
     inkscape:pageshadow="2"
     inkscape:window-width="960"
     inkscape:window-height="1014"
     id="namedview99"
     showgrid="false"
     inkscape:zoom="1.288627"
     inkscape:cx="283.09216"
     inkscape:cy="253.57503"
     inkscape:window-x="1600"
     inkscape:window-y="27"
     inkscape:window-maximized="0"
     inkscape:current-layer="svg2" /><path
     style="fill:#dddddd;stroke:#444444;stroke-width:1;stroke-miterlimit:10"
     d="m 240.4167,0 0.4758,-0.91 0.3058,-0.0715 0.3132,-0.0752 0.3204,-0.0789 0.3276,-0.0827 0.3349,-0.0866 0.342,-0.0906 0.3492,-0.0947 0.3563,-0.0988 0.3633,-0.103 0.3704,-0.1074 0.3774,-0.1118 0.3843,-0.1163 0.3913,-0.1208 0.3981,-0.1256 0.405,-0.1303 0.4117,-0.1351 0.4185,-0.14 0.4252,-0.145 0.4318,-0.1501 0.4385,-0.1553 0.4451,-0.1605 0.4515,-0.1659 0.4581,-0.1712 0.4644,-0.1768 0.4709,-0.1823 0.4771,-0.188 0.4835,-0.1937 0.4897,-0.1995 0.4958,-0.2054 0.502,-0.2113 0.508,-0.2174 0.5141,-0.2236 0.52,-0.2297 0.526,-0.236 0.5318,-0.2423 0.5376,-0.2488 0.5433,-0.2553 0.549,-0.2619 0.5547,-0.2685 0.3463,-0.2691 -0.2505,-6.1498 -0.367,-0.24 -0.5747,-0.2226 -0.5685,-0.2163 -0.5623,-0.2103 -0.556,-0.2042 -0.5497,-0.1983 -0.5434,-0.1925 -0.537,-0.1867 -0.5306,-0.181 -0.524,-0.1753 -0.5175,-0.1699 -0.5109,-0.1644 -0.5043,-0.159 -0.4976,-0.1537 -0.4909,-0.1486 -0.4841,-0.1434 -0.4773,-0.1384 -0.4705,-0.1334 -0.4635,-0.1286 -0.4566,-0.1238 -0.4497,-0.1191 -0.4426,-0.1145 -0.4356,-0.11 -0.4285,-0.1055 -0.4213,-0.1012 -0.4142,-0.0969 -0.4071,-0.0927 -0.3997,-0.0887 -0.3926,-0.0846 -0.3852,-0.0808 -0.3779,-0.0769 -0.3705,-0.0731 -0.3631,-0.0695 -0.3558,-0.066 -0.3482,-0.0625 -0.3408,-0.059 -0.3333,-0.0558 -0.3258,-0.0526 -0.3182,-0.0495 -0.3106,-0.0464 -0.5483,-0.8683 -0.5208,-5.5797 0.3782,-0.9547 0.2966,-0.1031 0.3036,-0.1075 0.3104,-0.112 0.3172,-0.1165 0.324,-0.1211 0.3307,-0.1259 0.3373,-0.1306 0.3441,-0.1355 0.3505,-0.1405 0.3572,-0.1455 0.3636,-0.1506 0.3701,-0.1558 0.3764,-0.1611 0.3829,-0.1665 0.3891,-0.1719 0.3953,-0.1774 0.4016,-0.183 0.4077,-0.1887 0.4138,-0.1944 0.4198,-0.2003 0.4259,-0.2061 0.4317,-0.2122 0.4376,-0.2182 0.4435,-0.2243 0.4492,-0.2305 0.4549,-0.2369 0.4606,-0.2431 0.4661,-0.2496 0.4717,-0.2561 0.4771,-0.2627 0.4825,-0.2693 0.4879,-0.2761 0.4932,-0.2828 0.4984,-0.2897 0.5036,-0.2966 0.5086,-0.3036 0.5137,-0.3107 0.5186,-0.3178 0.5235,-0.3251 0.3163,-0.3038 -0.8919,-6.0899 -0.3901,-0.2003 -0.5948,-0.1613 -0.588,-0.1557 -0.5812,-0.1504 -0.5743,-0.145 -0.5675,-0.1397 -0.5605,-0.1346 -0.5536,-0.1296 -0.5465,-0.1245 -0.5395,-0.1196 -0.5325,-0.1148 -0.5253,-0.1101 -0.5181,-0.1055 -0.5109,-0.1008 -0.5038,-0.0965 -0.4964,-0.092 -0.4892,-0.0877 -0.4818,-0.0836 -0.4744,-0.0794 -0.4671,-0.0754 -0.4596,-0.0714 -0.4522,-0.0676 -0.4447,-0.0639 -0.4372,-0.0601 -0.4296,-0.0566 -0.4221,-0.0531 -0.4144,-0.0497 -0.4069,-0.0464 -0.3992,-0.0431 -0.3915,-0.0401 -0.3839,-0.0369 -0.3762,-0.0341 -0.3684,-0.0311 -0.3606,-0.0284 -0.3529,-0.0258 -0.3451,-0.0231 -0.3373,-0.0207 -0.3295,-0.0182 -0.3217,-0.0159 -0.3137,-0.0137 -0.6361,-0.8062 -1.1011,-5.4947 0.2762,-0.9891 0.2843,-0.1335 0.2907,-0.1387 0.297,-0.1438 0.3033,-0.149 0.3095,-0.1543 0.3157,-0.1597 0.3219,-0.1652 0.328,-0.1708 0.3339,-0.1763 0.34,-0.182 0.3459,-0.1878 0.3518,-0.1937 0.3575,-0.1996 0.3633,-0.2055 0.3691,-0.2117 0.3746,-0.2177 0.3802,-0.224 0.3858,-0.2303 0.3912,-0.2366 0.3966,-0.243 0.4019,-0.2496 0.4073,-0.2561 0.4124,-0.2627 0.4175,-0.2695 0.4227,-0.2762 0.4277,-0.2831 0.4326,-0.2899 0.4375,-0.297 0.4423,-0.304 0.447,-0.3111 0.4518,-0.3183 0.4564,-0.3255 0.4609,-0.3328 0.4654,-0.3402 0.4697,-0.3477 0.4742,-0.3551 0.4783,-0.3627 0.4826,-0.3703 0.4867,-0.3779 0.2828,-0.3353 -1.5236,-5.9633 -0.4089,-0.1585 -0.6084,-0.0982 -0.601,-0.0934 -0.5938,-0.0887 -0.5863,-0.0842 -0.579,-0.0797 -0.5715,-0.0753 -0.5641,-0.0709 -0.5566,-0.0667 -0.549,-0.0626 -0.5415,-0.0586 -0.534,-0.0545 -0.5263,-0.0507 -0.5187,-0.047 -0.511,-0.0432 -0.5034,-0.0396 -0.4956,-0.0362 -0.4879,-0.0327 -0.4802,-0.0294 -0.4723,-0.0261 -0.4646,-0.023 -0.4568,-0.02 -0.4489,-0.017 -0.4411,-0.0142 -0.4332,-0.0113 -0.4253,-0.0087 -0.4174,-0.0061 -0.4095,-0.0036 -0.4015,-0.0012 -0.3936,0.0012 -0.3856,0.0033 -0.3777,0.0055 -0.3696,0.0075 -0.3617,0.0094 -0.3536,0.0113 -0.3457,0.0131 -0.3376,0.0147 -0.3295,0.0163 -0.3216,0.0178 -0.3135,0.0192 -0.7168,-0.7353 -1.6695,-5.3495 0.1714,-1.0125 0.2687,-0.1626 0.2746,-0.1682 0.2804,-0.1741 0.286,-0.1799 0.2917,-0.1858 0.2973,-0.1919 0.3029,-0.1979 0.3083,-0.2041 0.3137,-0.2103 0.3191,-0.2166 0.3244,-0.2229 0.3295,-0.2293 0.3348,-0.2359 0.3398,-0.2424 0.3449,-0.2491 0.3498,-0.2557 0.3548,-0.2625 0.3596,-0.2693 0.3643,-0.2762 0.369,-0.2832 0.3737,-0.2902 0.3782,-0.2972 0.3827,-0.3045 0.3871,-0.3116 0.3914,-0.3189 0.3958,-0.3262 0.3999,-0.3336 0.4041,-0.3411 0.4081,-0.3485 0.4121,-0.3562 0.416,-0.3637 0.4198,-0.3715 0.4236,-0.3792 0.4273,-0.3869 0.4309,-0.3949 0.4344,-0.4027 0.4378,-0.4107 0.4412,-0.4187 0.4446,-0.4268 0.2461,-0.3629 -2.1386,-5.7714 -0.4232,-0.1149 -0.6153,-0.0341 -0.6075,-0.0301 -0.5997,-0.0262 -0.592,-0.0224 -0.5841,-0.0187 -0.5763,-0.0151 -0.5684,-0.0116 -0.5605,-0.0082 -0.5526,-0.0049 -0.5446,-0.0016 -0.5368,0.0016 -0.5287,0.0046 -0.5207,0.0075 -0.5128,0.0104 -0.5047,0.0132 -0.4967,0.0159 -0.4887,0.0185 -0.4806,0.0209 -0.4725,0.0234 -0.4645,0.0257 -0.4563,0.0279 -0.4482,0.03 -0.4402,0.032 -0.432,0.034 -0.4239,0.0358 -0.4157,0.0376 -0.4076,0.0392 -0.3995,0.0408 -0.3913,0.0423 -0.3832,0.0436 -0.375,0.0449 -0.3668,0.0461 -0.3587,0.0472 -0.3505,0.0482 -0.3424,0.0492 -0.3342,0.0499 -0.3261,0.0506 -0.3179,0.0513 -0.3098,0.0518 -0.7897,-0.6563 -2.2195,-5.1457 0.0645,-1.0248 0.2503,-0.1898 0.2555,-0.196 0.2606,-0.2024 0.2657,-0.2088 0.2707,-0.2154 0.2756,-0.2218 0.2805,-0.2285 0.2853,-0.2352 0.29,-0.2419 0.2947,-0.2488 0.2993,-0.2556 0.3038,-0.2626 0.3083,-0.2695 0.3126,-0.2766 0.317,-0.2837 0.3212,-0.2909 0.3253,-0.2982 0.3295,-0.3054 0.3334,-0.3128 0.3374,-0.3202 0.3413,-0.3276 0.3451,-0.3352 0.3487,-0.3428 0.3525,-0.3504 0.3559,-0.358 0.3595,-0.3658 0.3629,-0.3736 0.3662,-0.3814 0.3694,-0.3893 0.3726,-0.3973 0.3757,-0.4053 0.3787,-0.4133 0.3817,-0.4213 0.3845,-0.4296 0.3872,-0.4377 0.3899,-0.4459 0.3926,-0.4542 0.395,-0.4626 0.3975,-0.4709 0.2069,-0.3866 -2.7302,-5.5163 -0.4329,-0.07 -0.6155,0.0305 -0.6073,0.0335 -0.5992,0.0367 -0.5911,0.0395 -0.5829,0.0425 -0.5746,0.0452 -0.5665,0.0478 -0.5583,0.0505 -0.5501,0.0529 -0.5419,0.0554 -0.5336,0.0576 -0.5253,0.0598 -0.5171,0.062 -0.5089,0.0639 -0.5006,0.0659 -0.4923,0.0677 -0.4841,0.0695 -0.4757,0.0711 -0.4675,0.0726 -0.4592,0.0741 -0.451,0.0754 -0.4426,0.0767 -0.4344,0.0779 -0.4261,0.0789 -0.4178,0.08 -0.4095,0.0808 -0.4013,0.0816 -0.393,0.0823 -0.3848,0.083 -0.3765,0.0834 -0.3682,0.0839 -0.3601,0.0842 -0.3517,0.0844 -0.3436,0.0846 -0.3354,0.0846 -0.3272,0.0846 -0.3189,0.0845 -0.3109,0.0842 -0.3026,0.0839 -0.854,-0.5702 -2.7453,-4.8854 -0.0428,-1.026 0.229,-0.2149 0.2336,-0.2217 0.238,-0.2285 0.2424,-0.2354 0.2467,-0.2425 0.251,-0.2495 0.255,-0.2565 0.2592,-0.2637 0.2631,-0.271 0.2671,-0.2781 0.2709,-0.2855 0.2747,-0.2929 0.2784,-0.3003 0.282,-0.3078 0.2856,-0.3153 0.289,-0.3229 0.2924,-0.3305 0.2958,-0.3382 0.2989,-0.3459 0.3021,-0.3537 0.3051,-0.3615 0.3082,-0.3695 0.311,-0.3773 0.3139,-0.3853 0.3166,-0.3933 0.3192,-0.4014 0.3219,-0.4094 0.3243,-0.4177 0.3267,-0.4258 0.3291,-0.434 0.3312,-0.4423 0.3335,-0.4506 0.3355,-0.459 0.3375,-0.4673 0.3393,-0.4758 0.3412,-0.4843 0.3429,-0.4927 0.3445,-0.5013 0.3461,-0.5099 0.1653,-0.4062 -3.2917,-5.2006 -0.4379,-0.0244 -0.6089,0.0946 -0.6005,0.0969 -0.5921,0.099 -0.5837,0.1012 -0.5753,0.1031 -0.5668,0.105 -0.5584,0.1069 -0.5499,0.1085 -0.5416,0.1102 -0.533,0.1116 -0.5247,0.1131 -0.5162,0.1144 -0.5078,0.1157 -0.4994,0.1168 -0.491,0.1178 -0.4825,0.1188 -0.4742,0.1197 -0.4657,0.1204 -0.4574,0.1211 -0.4489,0.1217 -0.4406,0.1221 -0.4322,0.1226 -0.4238,0.1229 -0.4155,0.123 -0.4072,0.1232 -0.3989,0.1232 -0.3905,0.1231 -0.3823,0.1229 -0.3739,0.1227 -0.3658,0.1224 -0.3574,0.1219 -0.3493,0.1214 -0.341,0.1207 -0.3329,0.12 -0.3246,0.1193 -0.3166,0.1183 -0.3084,0.1173 -0.3003,0.1163 -0.2922,0.1151 -0.909,-0.4778 -3.2408,-4.5718 -0.1499,-1.0159 0.2053,-0.2376 0.2092,-0.2449 0.2128,-0.2521 0.2165,-0.2595 0.22,-0.2669 0.2234,-0.2744 0.2269,-0.2818 0.2302,-0.2893 0.2333,-0.297 0.2366,-0.3046 0.2396,-0.3122 0.2426,-0.32 0.2454,-0.3278 0.2483,-0.3355 0.2511,-0.3434 0.2537,-0.3514 0.2562,-0.3592 0.2588,-0.3673 0.2611,-0.3753 0.2635,-0.3833 0.2657,-0.3915 0.2678,-0.3996 0.2699,-0.4077 0.2719,-0.416 0.2737,-0.4243 0.2756,-0.4325 0.2772,-0.4409 0.2789,-0.4492 0.2805,-0.4576 0.2818,-0.4661 0.2833,-0.4745 0.2845,-0.483 0.2857,-0.4915 0.2867,-0.5001 0.2878,-0.5087 0.2887,-0.5172 0.2895,-0.5259 0.2903,-0.5346 0.2908,-0.5432 0.122,-0.4213 -3.8173,-4.828 -0.4381,0.0215 -0.5957,0.1577 -0.5871,0.1591 -0.5785,0.1605 -0.5699,0.1615 -0.5613,0.1627 -0.5527,0.1637 -0.5442,0.1647 -0.5356,0.1654 -0.527,0.1661 -0.5185,0.1668 -0.51,0.1673 -0.5014,0.1678 -0.493,0.1681 -0.4844,0.1683 -0.476,0.1686 -0.4674,0.1685 -0.4591,0.1686 -0.4506,0.1685 -0.4421,0.1682 -0.4338,0.1679 -0.4254,0.1676 -0.417,0.167 -0.4087,0.1665 -0.4004,0.1658 -0.3921,0.1651 -0.3838,0.1642 -0.3755,0.1633 -0.3673,0.1622 -0.3591,0.1611 -0.3509,0.1599 -0.3428,0.1586 -0.3346,0.1572 -0.3266,0.1558 -0.3185,0.1541 -0.3104,0.1526 -0.3024,0.1507 -0.2945,0.149 -0.2865,0.147 -0.2786,0.145 -0.9539,-0.3802 -3.701,-4.2079 -0.2553,-0.9947 0.1794,-0.2578 0.1824,-0.2654 0.1853,-0.273 0.1882,-0.2807 0.1909,-0.2885 0.1936,-0.2961 0.1961,-0.304 0.1987,-0.3119 0.201,-0.3197 0.2034,-0.3276 0.2057,-0.3356 0.2078,-0.3436 0.2099,-0.3516 0.2118,-0.3597 0.2138,-0.3678 0.2156,-0.3759 0.2173,-0.3841 0.2189,-0.3923 0.2205,-0.4005 0.2219,-0.4088 0.2234,-0.4171 0.2246,-0.4254 0.2258,-0.4337 0.2269,-0.4421 0.2279,-0.4506 0.2288,-0.459 0.2297,-0.4674 0.2304,-0.4759 0.231,-0.4844 0.2316,-0.493 0.2321,-0.5015 0.2325,-0.5101 0.2327,-0.5187 0.233,-0.5273 0.233,-0.536 0.233,-0.5446 0.233,-0.5533 0.2328,-0.5619 0.2325,-0.5707 0.0772,-0.4317 -4.3011,-4.4026 -0.4334,0.0672 -0.5759,0.2192 -0.5672,0.2196 -0.5586,0.22 -0.5499,0.2202 -0.5412,0.2205 -0.5326,0.2206 -0.524,0.2206 -0.5154,0.2205 -0.5068,0.2203 -0.4982,0.2201 -0.4897,0.2197 -0.4811,0.2192 -0.4727,0.2188 -0.4642,0.218 -0.4557,0.2174 -0.4473,0.2165 -0.4389,0.2156 -0.4305,0.2147 -0.4222,0.2135 -0.4139,0.2123 -0.4055,0.2111 -0.3973,0.2098 -0.389,0.2083 -0.3809,0.2067 -0.3726,0.2052 -0.3646,0.2034 -0.3564,0.2016 -0.3483,0.1997 -0.3403,0.1978 -0.3323,0.1957 -0.3243,0.1936 -0.3164,0.1913 -0.3085,0.189 -0.3006,0.1867 -0.2928,0.1841 -0.285,0.1815 -0.2773,0.1789 -0.2696,0.1762 -0.2619,0.1733 -0.9884,-0.2784 -4.1206,-3.798 -0.3578,-0.9625 0.1515,-0.2752 0.1536,-0.283 0.1558,-0.2909 0.1578,-0.2988 0.1597,-0.3068 0.1615,-0.3148 0.1633,-0.3228 0.165,-0.3309 0.1665,-0.339 0.1681,-0.3471 0.1694,-0.3553 0.1708,-0.3634 0.172,-0.3716 0.1731,-0.3799 0.1741,-0.3881 0.1751,-0.3964 0.176,-0.4047 0.1767,-0.413 0.1774,-0.4214 0.178,-0.4297 0.1785,-0.4381 0.1789,-0.4466 0.1792,-0.455 0.1795,-0.4634 0.1795,-0.4719 0.1797,-0.4804 0.1795,-0.4889 0.1794,-0.4974 0.1792,-0.5059 0.1788,-0.5145 0.1784,-0.523 0.1778,-0.5316 0.1773,-0.5402 0.1765,-0.5487 0.1757,-0.5574 0.1749,-0.566 0.1738,-0.5746 0.1728,-0.5832 0.1716,-0.5919 0.0317,-0.4374 -4.7378,-3.9288 -0.4239,0.1121 -0.5499,0.2781 -0.5412,0.2777 -0.5325,0.2772 -0.5239,0.2766 -0.5152,0.2758 -0.5066,0.275 -0.4981,0.2742 -0.4895,0.2732 -0.4809,0.2721 -0.4725,0.2709 -0.4641,0.2697 -0.4556,0.2683 -0.4472,0.2669 -0.4388,0.2654 -0.4306,0.2638 -0.4222,0.2621 -0.4139,0.2604 -0.4058,0.2584 -0.3975,0.2565 -0.3894,0.2545 -0.3812,0.2523 -0.3732,0.2501 -0.3652,0.2478 -0.3571,0.2454 -0.3492,0.243 -0.3413,0.2404 -0.3333,0.2378 -0.3256,0.2351 -0.3178,0.2322 -0.31,0.2294 -0.3023,0.2264 -0.2946,0.2233 -0.287,0.2203 -0.2795,0.217 -0.272,0.2137 -0.2644,0.2104 -0.2571,0.2069 -0.2497,0.2033 -0.2423,0.1998 -1.0121,-0.1735 -4.495,-3.3466 -0.4565,-0.9198 0.1219,-0.2895 0.1232,-0.2975 0.1245,-0.3056 0.1257,-0.3137 0.1267,-0.3218 0.1278,-0.3299 0.1286,-0.3382 0.1295,-0.3463 0.1302,-0.3545 0.1309,-0.3628 0.1313,-0.371 0.1319,-0.3793 0.1322,-0.3876 0.1324,-0.3958 0.1326,-0.4042 0.1328,-0.4126 0.1326,-0.4208 0.1326,-0.4293 0.1324,-0.4376 0.1321,-0.446 0.1318,-0.4544 0.1312,-0.4628 0.1307,-0.4712 0.13,-0.4796 0.1293,-0.4881 0.1284,-0.4965 0.1274,-0.505 0.1264,-0.5134 0.1253,-0.5219 0.1241,-0.5304 0.1227,-0.5388 0.1214,-0.5473 0.1198,-0.5557 0.1182,-0.5642 0.1165,-0.5727 0.1147,-0.5812 0.1128,-0.5896 0.1109,-0.5981 0.1088,-0.6065 -0.0142,-0.4383 -5.1225,-3.4122 -0.4099,0.1559 -0.5178,0.3341 -0.5092,0.3327 -0.5006,0.3313 -0.4921,0.3298 -0.4836,0.3282 -0.4751,0.3265 -0.4666,0.3247 -0.4583,0.3229 -0.4499,0.3208 -0.4416,0.3189 -0.4333,0.3167 -0.425,0.3145 -0.4169,0.3122 -0.4087,0.3098 -0.4006,0.3074 -0.3925,0.3048 -0.3845,0.3021 -0.3765,0.2995 -0.3685,0.2966 -0.3607,0.2938 -0.3528,0.2908 -0.345,0.2877 -0.3372,0.2847 -0.3295,0.2814 -0.3219,0.2781 -0.3143,0.2748 -0.3067,0.2713 -0.2992,0.2678 -0.2917,0.2642 -0.2843,0.2605 -0.277,0.2568 -0.2697,0.2529 -0.2625,0.249 -0.2552,0.2451 -0.2481,0.2409 -0.2411,0.2369 -0.234,0.2326 -0.227,0.2284 -0.2202,0.224 -1.0247,-0.0668 -4.8202,-2.8583 -0.5501,-0.8671 0.0909,-0.3006 0.0915,-0.3088 0.0919,-0.3169 0.0922,-0.3252 0.0924,-0.3333 0.0926,-0.3415 0.0926,-0.3497 0.0926,-0.3579 0.0924,-0.3663 0.0922,-0.3744 0.0919,-0.3827 0.0914,-0.391 0.091,-0.3993 0.0903,-0.4075 0.0897,-0.4159 0.0888,-0.4241 0.088,-0.4324 0.087,-0.4408 0.0859,-0.449 0.0848,-0.4574 0.0835,-0.4657 0.0822,-0.4739 0.0807,-0.4823 0.0791,-0.4907 0.0776,-0.4989 0.0758,-0.5072 0.0739,-0.5155 0.0721,-0.5239 0.0701,-0.5321 0.0679,-0.5404 0.0657,-0.5487 0.0635,-0.5569 0.0611,-0.5653 0.0586,-0.5734 0.056,-0.5818 0.0533,-0.5899 0.0506,-0.5982 0.0477,-0.6064 0.0448,-0.6146 -0.0599,-0.4345 -5.4511,-2.8579 -0.3914,0.1978 -0.48,0.3864 -0.4717,0.3841 -0.4632,0.3819 -0.4549,0.3794 -0.4466,0.3769 -0.4384,0.3744 -0.4302,0.3717 -0.422,0.369 -0.4139,0.3661 -0.4058,0.3633 -0.3978,0.3603 -0.3899,0.3572 -0.3819,0.354 -0.3741,0.3509 -0.3663,0.3475 -0.3585,0.3442 -0.3508,0.3407 -0.3431,0.3371 -0.3355,0.3336 -0.328,0.3298 -0.3204,0.3261 -0.3131,0.3222 -0.3056,0.3183 -0.2983,0.3144 -0.2911,0.3102 -0.2838,0.3061 -0.2766,0.3019 -0.2696,0.2976 -0.2625,0.2933 -0.2556,0.2888 -0.2486,0.2843 -0.2418,0.2797 -0.2349,0.2751 -0.2283,0.2704 -0.2216,0.2656 -0.2149,0.2607 -0.2084,0.2559 -0.202,0.2508 -0.1955,0.2458 -1.0261,0.0407 -5.0925,-2.3389 -0.6378,-0.8048 0.059,-0.3085 0.0587,-0.3166 0.0583,-0.3248 0.0577,-0.333 0.0571,-0.3411 0.0563,-0.3493 0.0556,-0.3575 0.0546,-0.3657 0.0537,-0.3738 0.0525,-0.3821 0.0514,-0.3902 0.0501,-0.3984 0.0487,-0.4066 0.0472,-0.4147 0.0457,-0.423 0.0441,-0.4311 0.0423,-0.4392 0.0404,-0.4475 0.0385,-0.4555 0.0365,-0.4638 0.0344,-0.4718 0.0322,-0.48 0.0298,-0.4881 0.0275,-0.4962 0.0249,-0.5043 0.0224,-0.5123 0.0197,-0.5205 0.0169,-0.5285 0.014,-0.5365 0.0111,-0.5445 0.008,-0.5526 0.0049,-0.5605 0.0017,-0.5686 -0.0017,-0.5764 -0.0051,-0.5844 -0.0086,-0.5923 -0.0122,-0.6002 -0.016,-0.6081 -0.0197,-0.6159 -0.105,-0.4258 -5.7199,-2.2725 -0.3686,0.2376 -0.437,0.4345 -0.4289,0.4313 -0.4208,0.4282 -0.4128,0.4249 -0.4047,0.4215 -0.3969,0.4182 -0.3889,0.4146 -0.3811,0.4111 -0.3734,0.4074 -0.3656,0.4037 -0.358,0.3999 -0.3504,0.396 -0.3429,0.392 -0.3353,0.388 -0.3279,0.384 -0.3206,0.3797 -0.3133,0.3755 -0.306,0.3712 -0.2988,0.3668 -0.2917,0.3623 -0.2846,0.3578 -0.2776,0.3532 -0.2707,0.3485 -0.2638,0.3438 -0.2571,0.339 -0.2502,0.3341 -0.2436,0.3291 -0.237,0.3242 -0.2304,0.3191 -0.224,0.3139 -0.2175,0.3087 -0.2112,0.3035 -0.205,0.2982 -0.1987,0.2927 -0.1926,0.2873 -0.1865,0.2818 -0.1806,0.2762 -0.1746,0.2706 -0.1687,0.2649 -1.0162,0.1477 -5.3092,-1.7937 -0.7184,-0.7338 0.0265,-0.313 0.0253,-0.321 0.0239,-0.3291 0.0226,-0.3372 0.0211,-0.3452 0.0196,-0.3533 0.0179,-0.3613 0.0161,-0.3694 0.0143,-0.3774 0.0123,-0.3855 0.0103,-0.3934 0.0082,-0.4015 0.0059,-0.4094 0.0037,-0.4175 0.0012,-0.4254 -0.0013,-0.4333 -0.0038,-0.4413 -0.0066,-0.4492 -0.0093,-0.4571 -0.0122,-0.465 -0.0151,-0.4728 -0.0182,-0.4807 -0.0213,-0.4886 -0.0246,-0.4963 -0.0279,-0.5042 -0.0313,-0.5119 -0.0348,-0.5196 -0.0384,-0.5274 -0.0422,-0.535 -0.0459,-0.5428 -0.0497,-0.5503 -0.0538,-0.558 -0.0577,-0.5656 -0.062,-0.5731 -0.0661,-0.5807 -0.0705,-0.5881 -0.0749,-0.5957 -0.0794,-0.603 -0.084,-0.6105 -0.1489,-0.4125 -5.9262,-1.6622 -0.3417,0.2749 -0.3892,0.4777 -0.3815,0.4739 -0.3737,0.4698 -0.3661,0.4657 -0.3585,0.4615 -0.3509,0.4574 -0.3435,0.453 -0.3361,0.4486 -0.3287,0.4442 -0.3214,0.4397 -0.3143,0.4351 -0.307,0.4305 -0.3,0.4257 -0.293,0.421 -0.286,0.4161 -0.2791,0.4112 -0.2723,0.4061 -0.2655,0.4012 -0.2589,0.396 -0.2522,0.3908 -0.2456,0.3856 -0.2392,0.3803 -0.2328,0.3749 -0.2265,0.3695 -0.2201,0.364 -0.214,0.3584 -0.2079,0.3528 -0.2017,0.3472 -0.1959,0.3414 -0.1899,0.3356 -0.1841,0.3298 -0.1783,0.3239 -0.1726,0.3179 -0.1671,0.3119 -0.1615,0.3059 -0.156,0.2997 -0.1507,0.2936 -0.1454,0.2873 -0.1401,0.2811 -0.9952,0.2531 -5.4676,-1.2289 -0.7911,-0.6546 -0.0064,-0.314 -0.0085,-0.322 -0.0105,-0.3298 -0.0128,-0.3377 -0.0151,-0.3455 -0.0175,-0.3534 -0.02,-0.3612 -0.0225,-0.3691 -0.0253,-0.3768 -0.028,-0.3846 -0.0309,-0.3924 -0.0338,-0.4001 -0.0369,-0.4079 -0.04,-0.4155 -0.0433,-0.4232 -0.0465,-0.4308 -0.05,-0.4385 -0.0534,-0.446 -0.0571,-0.4536 -0.0607,-0.4612 -0.0645,-0.4687 -0.0683,-0.4762 -0.0723,-0.4836 -0.0763,-0.4911 -0.0805,-0.4984 -0.0846,-0.5059 -0.089,-0.5131 -0.0933,-0.5205 -0.0978,-0.5277 -0.1024,-0.5349 -0.107,-0.5422 -0.1118,-0.5493 -0.1166,-0.5564 -0.1215,-0.5636 -0.1265,-0.5705 -0.1315,-0.5776 -0.1368,-0.5845 -0.142,-0.5915 -0.1473,-0.5984 -0.1912,-0.3946 -6.0675,-1.0336 -0.3111,0.3091 -0.3371,0.5158 -0.3299,0.5111 -0.3226,0.5062 -0.3153,0.5015 -0.3083,0.4965 -0.3012,0.4915 -0.2943,0.4864 -0.2873,0.4814 -0.2805,0.4761 -0.2737,0.4709 -0.2671,0.4656 -0.2604,0.4601 -0.2538,0.4548 -0.2474,0.4493 -0.2409,0.4437 -0.2346,0.4381 -0.2283,0.4324 -0.2222,0.4267 -0.216,0.4209 -0.21,0.415 -0.204,0.4092 -0.1981,0.4032 -0.1924,0.3972 -0.1865,0.3911 -0.181,0.385 -0.1753,0.3788 -0.1698,0.3727 -0.1644,0.3663 -0.1591,0.36 -0.1538,0.3537 -0.1486,0.3472 -0.1435,0.3407 -0.1384,0.3343 -0.1336,0.3276 -0.1286,0.3211 -0.1239,0.3144 -0.1191,0.3077 -0.1146,0.301 -0.11,0.2942 -0.9633,0.3557 -5.566,-0.6506 -0.8553,-0.5684 -0.0392,-0.3116 -0.042,-0.3193 -0.045,-0.3269 -0.048,-0.3345 -0.0511,-0.3421 -0.0543,-0.3496 -0.0577,-0.3572 -0.061,-0.3646 -0.0645,-0.3722 -0.0681,-0.3796 -0.0717,-0.387 -0.0755,-0.3943 -0.0793,-0.4018 -0.0832,-0.409 -0.0873,-0.4164 -0.0913,-0.4236 -0.0955,-0.4308 -0.0998,-0.4381 -0.1042,-0.4451 -0.1085,-0.4523 -0.1132,-0.4594 -0.1177,-0.4664 -0.1224,-0.4735 -0.1273,-0.4804 -0.1321,-0.4873 -0.137,-0.4942 -0.1421,-0.501 -0.1473,-0.5079 -0.1524,-0.5146 -0.1577,-0.5213 -0.1631,-0.528 -0.1686,-0.5346 -0.1741,-0.5412 -0.1798,-0.5478 -0.1854,-0.5542 -0.1912,-0.5606 -0.1971,-0.5671 -0.2031,-0.5734 -0.2091,-0.5796 -0.2314,-0.3725 -6.1422,-0.3938 -0.2771,0.3399 -0.2814,0.5483 -0.2746,0.5427 -0.2679,0.5373 -0.2612,0.5316 -0.2547,0.526 -0.2482,0.5203 -0.2418,0.5146 -0.2355,0.5087 -0.2292,0.5028 -0.223,0.497 -0.2169,0.4909 -0.2108,0.4849 -0.2049,0.4788 -0.1991,0.4726 -0.1932,0.4665 -0.1875,0.4602 -0.1819,0.454 -0.1764,0.4475 -0.1708,0.4412 -0.1655,0.4347 -0.1601,0.4283 -0.1549,0.4217 -0.1497,0.4151 -0.1447,0.4085 -0.1397,0.4018 -0.1348,0.3951 -0.1299,0.3883 -0.1252,0.3815 -0.1206,0.3747 -0.116,0.3678 -0.1115,0.3608 -0.107,0.3539 -0.1028,0.3469 -0.0985,0.3398 -0.0944,0.3328 -0.0904,0.3256 -0.0863,0.3185 -0.0825,0.3113 -0.0786,0.304 -0.9208,0.4545 -5.6036,-0.0653 -0.91,-0.4758 -0.0715,-0.3058 -0.0752,-0.3132 -0.0789,-0.3204 -0.0827,-0.3276 -0.0866,-0.3349 -0.0906,-0.342 -0.0947,-0.3492 -0.0988,-0.3563 -0.103,-0.3633 -0.1074,-0.3704 -0.1118,-0.3774 -0.1163,-0.3843 -0.1208,-0.3913 -0.1256,-0.3981 -0.1303,-0.405 -0.1351,-0.4117 -0.14,-0.4185 -0.145,-0.4252 -0.1501,-0.4318 -0.1553,-0.4385 -0.1605,-0.4451 -0.1659,-0.4515 -0.1712,-0.4581 -0.1768,-0.4644 -0.1823,-0.4709 -0.188,-0.4771 -0.1937,-0.4835 -0.1995,-0.4897 -0.2054,-0.4958 -0.2113,-0.502 -0.2174,-0.508 -0.2236,-0.5141 -0.2297,-0.52 -0.236,-0.526 -0.2423,-0.5318 -0.2488,-0.5376 -0.2553,-0.5433 -0.2619,-0.549 -0.2685,-0.5547 -0.2691,-0.3463 -6.1498,0.2505 -0.24,0.367 -0.2226,0.5747 -0.2163,0.5685 -0.2103,0.5623 -0.2042,0.556 -0.1983,0.5497 -0.1925,0.5434 -0.1867,0.537 -0.181,0.5306 -0.1753,0.524 -0.1699,0.5175 -0.1644,0.5109 -0.159,0.5043 -0.1537,0.4976 -0.1486,0.4909 -0.1434,0.4841 -0.1384,0.4773 -0.1334,0.4705 -0.1286,0.4635 -0.1238,0.4566 -0.1191,0.4497 -0.1145,0.4426 -0.11,0.4356 -0.1055,0.4285 -0.1012,0.4213 -0.0969,0.4142 -0.0927,0.4071 -0.0887,0.3997 -0.0846,0.3926 -0.0808,0.3852 -0.0769,0.3779 -0.0731,0.3705 -0.0695,0.3631 -0.066,0.3558 -0.0625,0.3482 -0.059,0.3408 -0.0558,0.3333 -0.0526,0.3258 -0.0495,0.3182 -0.0464,0.3106 -0.8683,0.5483 -5.5797,0.5208 -0.9547,-0.3782 -0.1031,-0.2966 -0.1075,-0.3036 -0.112,-0.3104 -0.1165,-0.3172 -0.1211,-0.324 -0.1259,-0.3307 -0.1306,-0.3373 -0.1355,-0.3441 -0.1405,-0.3505 -0.1455,-0.3572 -0.1506,-0.3636 -0.1558,-0.3701 -0.1611,-0.3764 -0.1665,-0.3829 -0.1719,-0.3891 -0.1774,-0.3953 -0.183,-0.4016 -0.1887,-0.4077 -0.1944,-0.4138 -0.2003,-0.4198 -0.2061,-0.4259 -0.2122,-0.4317 -0.2182,-0.4376 -0.2243,-0.4435 -0.2305,-0.4492 -0.2369,-0.4549 -0.2431,-0.4606 -0.2496,-0.4661 -0.2561,-0.4717 -0.2627,-0.4771 -0.2693,-0.4825 -0.2761,-0.4879 -0.2828,-0.4932 -0.2897,-0.4984 -0.2966,-0.5036 -0.3036,-0.5086 -0.3107,-0.5137 -0.3178,-0.5186 -0.3251,-0.5235 -0.3038,-0.3163 -6.0899,0.8919 -0.2003,0.3901 -0.1613,0.5948 -0.1557,0.588 -0.1504,0.5812 -0.145,0.5743 -0.1397,0.5675 -0.1346,0.5605 -0.1296,0.5536 -0.1245,0.5465 -0.1196,0.5395 -0.1148,0.5325 -0.1101,0.5253 -0.1055,0.5181 -0.1008,0.5109 -0.0965,0.5038 -0.092,0.4964 -0.0877,0.4892 -0.0836,0.4818 -0.0794,0.4744 -0.0754,0.4671 -0.0714,0.4596 -0.0676,0.4522 -0.0639,0.4447 -0.0601,0.4372 -0.0566,0.4296 -0.0531,0.4221 -0.0497,0.4144 -0.0464,0.4069 -0.0431,0.3992 -0.0401,0.3915 -0.0369,0.3839 -0.0341,0.3762 -0.0311,0.3684 -0.0284,0.3606 -0.0258,0.3529 -0.0231,0.3451 -0.0207,0.3373 -0.0182,0.3295 -0.0159,0.3217 -0.0137,0.3137 -0.8062,0.6361 -5.4947,1.1011 -0.9891,-0.2762 -0.1335,-0.2843 -0.1387,-0.2907 -0.1438,-0.297 -0.149,-0.3033 -0.1543,-0.3095 -0.1597,-0.3157 -0.1652,-0.3219 -0.1708,-0.328 -0.1763,-0.3339 -0.182,-0.34 -0.1878,-0.3459 -0.1937,-0.3518 -0.1996,-0.3575 -0.2055,-0.3633 -0.2117,-0.3691 -0.2177,-0.3746 -0.224,-0.3802 -0.2303,-0.3858 -0.2366,-0.3912 -0.243,-0.3966 -0.2496,-0.4019 -0.2561,-0.4073 -0.2627,-0.4124 -0.2695,-0.4175 -0.2762,-0.4227 -0.2831,-0.4277 -0.2899,-0.4326 -0.297,-0.4375 -0.304,-0.4423 -0.3111,-0.447 -0.3183,-0.4518 -0.3255,-0.4564 -0.3328,-0.4609 -0.3402,-0.4654 -0.3477,-0.4697 -0.3551,-0.4742 -0.3627,-0.4783 -0.3703,-0.4826 -0.3779,-0.4867 -0.3353,-0.2828 -5.9633,1.5236 -0.1585,0.4089 -0.0982,0.6084 -0.0934,0.601 -0.0887,0.5938 -0.0842,0.5863 -0.0797,0.579 -0.0753,0.5715 -0.0709,0.5641 -0.0667,0.5566 -0.0626,0.549 -0.0586,0.5415 -0.0545,0.534 -0.0507,0.5263 -0.047,0.5187 -0.0432,0.511 -0.0396,0.5034 -0.0362,0.4956 -0.0327,0.4879 -0.0294,0.4802 -0.0261,0.4723 -0.023,0.4646 -0.02,0.4568 -0.017,0.4489 -0.0142,0.4411 -0.0113,0.4332 -0.0087,0.4253 -0.0061,0.4174 -0.0036,0.4095 -0.0012,0.4015 0.0012,0.3936 0.0033,0.3856 0.0055,0.3777 0.0075,0.3696 0.0094,0.3617 0.0113,0.3536 0.0131,0.3457 0.0147,0.3376 0.0163,0.3295 0.0178,0.3216 0.0192,0.3135 -0.7353,0.7168 -5.3495,1.6695 -1.0125,-0.1714 -0.1626,-0.2687 -0.1682,-0.2746 -0.1741,-0.2804 -0.1799,-0.286 -0.1858,-0.2917 -0.1919,-0.2973 -0.1979,-0.3029 -0.2041,-0.3083 -0.2103,-0.3137 -0.2166,-0.3191 -0.2229,-0.3244 -0.2293,-0.3295 -0.2359,-0.3348 -0.2424,-0.3398 -0.2491,-0.3449 -0.2557,-0.3498 -0.2625,-0.3548 -0.2693,-0.3596 -0.2762,-0.3643 -0.2832,-0.369 -0.2902,-0.3737 -0.2972,-0.3782 -0.3045,-0.3827 -0.3116,-0.3871 -0.3189,-0.3914 -0.3262,-0.3958 -0.3336,-0.3999 -0.3411,-0.4041 -0.3485,-0.4081 -0.3562,-0.4121 -0.3637,-0.416 -0.3715,-0.4198 -0.3792,-0.4236 -0.3869,-0.4273 -0.3949,-0.4309 -0.4027,-0.4344 -0.4107,-0.4378 -0.4187,-0.4412 -0.4268,-0.4446 -0.3629,-0.2461 -5.7714,2.1386 -0.1149,0.4232 -0.0341,0.6153 -0.0301,0.6075 -0.0262,0.5997 -0.0224,0.592 -0.0187,0.5841 -0.0151,0.5763 -0.0116,0.5684 -0.0082,0.5605 -0.0049,0.5526 -0.0016,0.5446 0.0016,0.5368 0.0046,0.5287 0.0075,0.5207 0.0104,0.5128 0.0132,0.5047 0.0159,0.4967 0.0185,0.4887 0.0209,0.4806 0.0234,0.4725 0.0257,0.4645 0.0279,0.4563 0.03,0.4482 0.032,0.4402 0.034,0.432 0.0358,0.4239 0.0376,0.4157 0.0392,0.4076 0.0408,0.3995 0.0423,0.3913 0.0436,0.3832 0.0449,0.375 0.0461,0.3668 0.0472,0.3587 0.0482,0.3505 0.0492,0.3424 0.0499,0.3342 0.0506,0.3261 0.0513,0.3179 0.0518,0.3098 -0.6563,0.7897 -5.1457,2.2195 -1.0248,-0.0645 -0.1898,-0.2503 -0.196,-0.2555 -0.2024,-0.2606 -0.2088,-0.2657 -0.2154,-0.2707 -0.2218,-0.2756 -0.2285,-0.2805 -0.2352,-0.2853 -0.2419,-0.29 -0.2488,-0.2947 -0.2556,-0.2993 -0.2626,-0.3038 -0.2695,-0.3083 -0.2766,-0.3126 -0.2837,-0.317 -0.2909,-0.3212 -0.2982,-0.3253 -0.3054,-0.3295 -0.3128,-0.3334 -0.3202,-0.3374 -0.3276,-0.3413 -0.3352,-0.3451 -0.3428,-0.3487 -0.3504,-0.3525 -0.358,-0.3559 -0.3658,-0.3595 -0.3736,-0.3629 -0.3814,-0.3662 -0.3893,-0.3694 -0.3973,-0.3726 -0.4053,-0.3757 -0.4133,-0.3787 -0.4213,-0.3817 -0.4296,-0.3845 -0.4377,-0.3872 -0.4459,-0.3899 -0.4542,-0.3926 -0.4626,-0.395 -0.4709,-0.3975 -0.3866,-0.2069 -5.5163,2.7302 -0.07,0.4329 0.0305,0.6155 0.0335,0.6073 0.0367,0.5992 0.0395,0.5911 0.0425,0.5829 0.0452,0.5746 0.0478,0.5665 0.0505,0.5583 0.0529,0.5501 0.0554,0.5419 0.0576,0.5336 0.0598,0.5253 0.062,0.5171 0.0639,0.5089 0.0659,0.5006 0.0677,0.4923 0.0695,0.4841 0.0711,0.4757 0.0726,0.4675 0.0741,0.4592 0.0754,0.451 0.0767,0.4426 0.0779,0.4344 0.0789,0.4261 0.08,0.4178 0.0808,0.4095 0.0816,0.4013 0.0823,0.393 0.083,0.3848 0.0834,0.3765 0.0839,0.3682 0.0842,0.3601 0.0844,0.3517 0.0846,0.3436 0.0846,0.3354 0.0846,0.3272 0.0845,0.3189 0.0842,0.3109 0.0839,0.3026 -0.5702,0.854 -4.8854,2.7453 -1.026,0.0428 -0.2149,-0.229 -0.2217,-0.2336 -0.2285,-0.238 -0.2354,-0.2424 -0.2425,-0.2467 -0.2495,-0.251 -0.2565,-0.255 -0.2637,-0.2592 -0.271,-0.2631 -0.2781,-0.2671 -0.2855,-0.2709 -0.2929,-0.2747 -0.3003,-0.2784 -0.3078,-0.282 -0.3153,-0.2856 -0.3229,-0.289 -0.3305,-0.2924 -0.3382,-0.2958 -0.3459,-0.2989 -0.3537,-0.3021 -0.3615,-0.3051 -0.3695,-0.3082 -0.3773,-0.311 -0.3853,-0.3139 -0.3933,-0.3166 -0.4014,-0.3192 -0.4094,-0.3219 -0.4177,-0.3243 -0.4258,-0.3267 -0.434,-0.3291 -0.4423,-0.3312 -0.4506,-0.3335 -0.459,-0.3355 -0.4673,-0.3375 -0.4758,-0.3393 -0.4843,-0.3412 -0.4927,-0.3429 -0.5013,-0.3445 -0.5099,-0.3461 -0.4062,-0.1653 -5.2006,3.2917 -0.0244,0.4379 0.0946,0.6089 0.0969,0.6005 0.099,0.5921 0.1012,0.5837 0.1031,0.5753 0.105,0.5668 0.1069,0.5584 0.1085,0.5499 0.1102,0.5416 0.1116,0.533 0.1131,0.5247 0.1144,0.5162 0.1157,0.5078 0.1168,0.4994 0.1178,0.491 0.1188,0.4825 0.1197,0.4742 0.1204,0.4657 0.1211,0.4574 0.1217,0.4489 0.1221,0.4406 0.1226,0.4322 0.1229,0.4238 0.123,0.4155 0.1232,0.4072 0.1232,0.3989 0.1231,0.3905 0.1229,0.3823 0.1227,0.3739 0.1224,0.3658 0.1219,0.3574 0.1214,0.3493 0.1207,0.341 0.12,0.3329 0.1193,0.3246 0.1183,0.3166 0.1173,0.3084 0.1163,0.3003 0.1151,0.2922 -0.4778,0.909 -4.5718,3.2408 -1.0159,0.1499 -0.2376,-0.2053 -0.2449,-0.2092 -0.2521,-0.2128 -0.2595,-0.2165 -0.2669,-0.22 -0.2744,-0.2234 -0.2818,-0.2269 -0.2893,-0.2302 -0.297,-0.2333 -0.3046,-0.2366 -0.3122,-0.2396 -0.32,-0.2426 -0.3278,-0.2454 -0.3355,-0.2483 -0.3434,-0.2511 -0.3514,-0.2537 -0.3592,-0.2562 -0.3673,-0.2588 -0.3753,-0.2611 -0.3833,-0.2635 -0.3915,-0.2657 -0.3996,-0.2678 -0.4077,-0.2699 -0.416,-0.2719 -0.4243,-0.2737 -0.4325,-0.2756 -0.4409,-0.2772 -0.4492,-0.2789 -0.4576,-0.2805 -0.4661,-0.2818 -0.4745,-0.2833 -0.483,-0.2845 -0.4915,-0.2857 -0.5001,-0.2867 -0.5087,-0.2878 -0.5172,-0.2887 -0.5259,-0.2895 -0.5346,-0.2903 -0.5432,-0.2908 -0.4213,-0.122 -4.828,3.8173 0.0215,0.4381 0.1577,0.5957 0.1591,0.5871 0.1605,0.5785 0.1615,0.5699 0.1627,0.5613 0.1637,0.5527 0.1647,0.5442 0.1654,0.5356 0.1661,0.527 0.1668,0.5185 0.1673,0.51 0.1678,0.5014 0.1681,0.493 0.1683,0.4844 0.1686,0.476 0.1685,0.4674 0.1686,0.4591 0.1685,0.4506 0.1682,0.4421 0.1679,0.4338 0.1676,0.4254 0.167,0.417 0.1665,0.4087 0.1658,0.4004 0.1651,0.3921 0.1642,0.3838 0.1633,0.3755 0.1622,0.3673 0.1611,0.3591 0.1599,0.3509 0.1586,0.3428 0.1572,0.3346 0.1558,0.3266 0.1541,0.3185 0.1526,0.3104 0.1507,0.3024 0.149,0.2945 0.147,0.2865 0.145,0.2786 -0.3802,0.9539 -4.2079,3.701 -0.9947,0.2553 -0.2578,-0.1794 -0.2654,-0.1824 -0.273,-0.1853 -0.2807,-0.1882 -0.2885,-0.1909 -0.2961,-0.1936 -0.304,-0.1961 -0.3119,-0.1987 -0.3197,-0.201 -0.3276,-0.2034 -0.3356,-0.2057 -0.3436,-0.2078 -0.3516,-0.2099 -0.3597,-0.2118 -0.3678,-0.2138 -0.3759,-0.2156 -0.3841,-0.2173 -0.3923,-0.2189 -0.4005,-0.2205 -0.4088,-0.2219 -0.4171,-0.2234 -0.4254,-0.2246 -0.4337,-0.2258 -0.4421,-0.2269 -0.4506,-0.2279 -0.459,-0.2288 -0.4674,-0.2297 -0.4759,-0.2304 -0.4844,-0.231 -0.493,-0.2316 -0.5015,-0.2321 -0.5101,-0.2325 -0.5187,-0.2327 -0.5273,-0.233 -0.536,-0.233 -0.5446,-0.233 -0.5533,-0.233 -0.5619,-0.2328 -0.5707,-0.2325 -0.4317,-0.0772 -4.4026,4.3011 0.0672,0.4334 0.2192,0.5759 0.2196,0.5672 0.22,0.5586 0.2202,0.5499 0.2205,0.5412 0.2206,0.5326 0.2206,0.524 0.2205,0.5154 0.2203,0.5068 0.2201,0.4982 0.2197,0.4897 0.2192,0.4811 0.2188,0.4727 0.218,0.4642 0.2174,0.4557 0.2165,0.4473 0.2156,0.4389 0.2147,0.4305 0.2135,0.4222 0.2123,0.4139 0.2111,0.4055 0.2098,0.3973 0.2083,0.389 0.2067,0.3809 0.2052,0.3726 0.2034,0.3646 0.2016,0.3564 0.1997,0.3483 0.1978,0.3403 0.1957,0.3323 0.1936,0.3243 0.1913,0.3164 0.189,0.3085 0.1867,0.3006 0.1841,0.2928 0.1815,0.285 0.1789,0.2773 0.1762,0.2696 0.1733,0.2619 -0.2784,0.9884 -3.798,4.1206 -0.9625,0.3578 -0.2752,-0.1515 -0.283,-0.1536 -0.2909,-0.1558 -0.2988,-0.1578 -0.3068,-0.1597 -0.3148,-0.1615 -0.3228,-0.1633 -0.3309,-0.165 -0.339,-0.1665 -0.3471,-0.1681 -0.3553,-0.1694 -0.3634,-0.1708 -0.3716,-0.172 -0.3799,-0.1731 -0.3881,-0.1741 -0.3964,-0.1751 -0.4047,-0.176 -0.413,-0.1767 -0.4214,-0.1774 -0.4297,-0.178 -0.4381,-0.1785 -0.4466,-0.1789 -0.455,-0.1792 -0.4634,-0.1795 -0.4719,-0.1795 -0.4804,-0.1797 -0.4889,-0.1795 -0.4974,-0.1794 -0.5059,-0.1792 -0.5145,-0.1788 -0.523,-0.1784 -0.5316,-0.1778 -0.5402,-0.1773 -0.5487,-0.1765 -0.5574,-0.1757 -0.566,-0.1749 -0.5746,-0.1738 -0.5832,-0.1728 -0.5919,-0.1716 -0.4374,-0.0317 -3.9288,4.7378 0.1121,0.4239 0.2781,0.5499 0.2777,0.5412 0.2772,0.5325 0.2766,0.5239 0.2758,0.5152 0.275,0.5066 0.2742,0.4981 0.2732,0.4895 0.2721,0.4809 0.2709,0.4725 0.2697,0.4641 0.2683,0.4556 0.2669,0.4472 0.2654,0.4388 0.2638,0.4306 0.2621,0.4222 0.2604,0.4139 0.2584,0.4058 0.2565,0.3975 0.2545,0.3894 0.2523,0.3812 0.2501,0.3732 0.2478,0.3652 0.2454,0.3571 0.243,0.3492 0.2404,0.3413 0.2378,0.3333 0.2351,0.3256 0.2322,0.3178 0.2294,0.31 0.2264,0.3023 0.2233,0.2946 0.2203,0.287 0.217,0.2795 0.2137,0.272 0.2104,0.2644 0.2069,0.2571 0.2033,0.2497 0.1998,0.2423 -0.1735,1.0121 -3.3466,4.495 -0.9198,0.4565 -0.2895,-0.1219 -0.2975,-0.1232 -0.3056,-0.1245 -0.3137,-0.1257 -0.3218,-0.1267 -0.3299,-0.1278 -0.3382,-0.1286 -0.3463,-0.1295 -0.3545,-0.1302 -0.3628,-0.1309 -0.371,-0.1313 -0.3793,-0.1319 -0.3876,-0.1322 -0.3958,-0.1324 -0.4042,-0.1326 -0.4126,-0.1328 -0.4208,-0.1326 -0.4293,-0.1326 -0.4376,-0.1324 -0.446,-0.1321 -0.4544,-0.1318 -0.4628,-0.1312 -0.4712,-0.1307 -0.4796,-0.13 -0.4881,-0.1293 -0.4965,-0.1284 -0.505,-0.1274 -0.5134,-0.1264 -0.5219,-0.1253 -0.5304,-0.1241 -0.5388,-0.1227 -0.5473,-0.1214 -0.5557,-0.1198 -0.5642,-0.1182 -0.5727,-0.1165 -0.5812,-0.1147 -0.5896,-0.1128 -0.5981,-0.1109 -0.6065,-0.1088 -0.4383,0.0142 -3.4122,5.1225 0.1559,0.4099 0.3341,0.5178 0.3327,0.5092 0.3313,0.5006 0.3298,0.4921 0.3282,0.4836 0.3265,0.4751 0.3247,0.4666 0.3229,0.4583 0.3208,0.4499 0.3189,0.4416 0.3167,0.4333 0.3145,0.425 0.3122,0.4169 0.3098,0.4087 0.3074,0.4006 0.3048,0.3925 0.3021,0.3845 0.2995,0.3765 0.2966,0.3685 0.2938,0.3607 0.2908,0.3528 0.2877,0.345 0.2847,0.3372 0.2814,0.3295 0.2781,0.3219 0.2748,0.3143 0.2713,0.3067 0.2678,0.2992 0.2642,0.2917 0.2605,0.2843 0.2568,0.277 0.2529,0.2697 0.249,0.2625 0.2451,0.2552 0.2409,0.2481 0.2369,0.2411 0.2326,0.234 0.2284,0.227 0.224,0.2202 -0.0668,1.0247 -2.8583,4.8202 -0.8671,0.5501 -0.3006,-0.0909 -0.3088,-0.0915 -0.3169,-0.0919 -0.3252,-0.0922 -0.3333,-0.0924 -0.3415,-0.0926 -0.3497,-0.0926 -0.3579,-0.0926 -0.3663,-0.0924 -0.3744,-0.0922 -0.3827,-0.0919 -0.391,-0.0914 -0.3993,-0.091 -0.4075,-0.0903 -0.4159,-0.0897 -0.4241,-0.0888 -0.4324,-0.088 -0.4408,-0.087 -0.449,-0.0859 -0.4574,-0.0848 -0.4657,-0.0835 -0.4739,-0.0822 -0.4823,-0.0807 -0.4907,-0.0791 -0.4989,-0.0776 -0.5072,-0.0758 -0.5155,-0.0739 -0.5239,-0.0721 -0.5321,-0.0701 -0.5404,-0.0679 -0.5487,-0.0657 -0.5569,-0.0635 -0.5653,-0.0611 -0.5734,-0.0586 -0.5818,-0.056 -0.5899,-0.0533 -0.5982,-0.0506 -0.6064,-0.0477 -0.6146,-0.0448 -0.4345,0.0599 -2.8579,5.4511 0.1978,0.3914 0.3864,0.48 0.3841,0.4717 0.3819,0.4632 0.3794,0.4549 0.3769,0.4466 0.3744,0.4384 0.3717,0.4302 0.369,0.422 0.3661,0.4139 0.3633,0.4058 0.3603,0.3978 0.3572,0.3899 0.354,0.3819 0.3509,0.3741 0.3475,0.3663 0.3442,0.3585 0.3407,0.3508 0.3371,0.3431 0.3336,0.3355 0.3298,0.328 0.3261,0.3204 0.3222,0.3131 0.3183,0.3056 0.3144,0.2983 0.3102,0.2911 0.3061,0.2838 0.3019,0.2766 0.2976,0.2696 0.2933,0.2625 0.2888,0.2556 0.2843,0.2486 0.2797,0.2418 0.2751,0.2349 0.2704,0.2283 0.2656,0.2216 0.2607,0.2149 0.2559,0.2084 0.2508,0.202 0.2458,0.1955 0.0407,1.0261 -2.3389,5.0925 -0.8048,0.6378 -0.3085,-0.059 -0.3166,-0.0587 -0.3248,-0.0583 -0.333,-0.0577 -0.3411,-0.0571 -0.3493,-0.0563 -0.3575,-0.0556 -0.3657,-0.0546 -0.3738,-0.0537 -0.3821,-0.0525 -0.3902,-0.0514 -0.3984,-0.0501 -0.4066,-0.0487 -0.4147,-0.0472 -0.423,-0.0457 -0.4311,-0.0441 -0.4392,-0.0423 -0.4475,-0.0404 -0.4555,-0.0385 -0.4638,-0.0365 -0.4718,-0.0344 -0.48,-0.0322 -0.4881,-0.0298 -0.4962,-0.0275 -0.5043,-0.0249 -0.5123,-0.0224 -0.5205,-0.0197 -0.5285,-0.0169 -0.5365,-0.014 -0.5445,-0.0111 -0.5526,-0.008 -0.5605,-0.0049 -0.5686,-0.0017 -0.5764,0.0017 -0.5844,0.0051 -0.5923,0.0086 -0.6002,0.0122 -0.6081,0.016 -0.6159,0.0197 -0.4258,0.105 -2.2725,5.7199 0.2376,0.3686 0.4345,0.437 0.4313,0.4289 0.4282,0.4208 0.4249,0.4128 0.4215,0.4047 0.4182,0.3969 0.4146,0.3889 0.4111,0.3811 0.4074,0.3734 0.4037,0.3656 0.3999,0.358 0.396,0.3504 0.392,0.3429 0.388,0.3353 0.384,0.3279 0.3797,0.3206 0.3755,0.3133 0.3712,0.306 0.3668,0.2988 0.3623,0.2917 0.3578,0.2846 0.3532,0.2776 0.3485,0.2707 0.3438,0.2638 0.339,0.2571 0.3341,0.2502 0.3291,0.2436 0.3242,0.237 0.3191,0.2304 0.3139,0.224 0.3087,0.2175 0.3035,0.2112 0.2982,0.205 0.2927,0.1987 0.2873,0.1926 0.2818,0.1865 0.2762,0.1806 0.2706,0.1746 0.2649,0.1687 0.1477,1.0162 -1.7937,5.3092 -0.7338,0.7184 -0.313,-0.0265 -0.321,-0.0253 -0.3291,-0.0239 -0.3372,-0.0226 -0.3452,-0.0211 -0.3533,-0.0196 -0.3613,-0.0179 -0.3694,-0.0161 -0.3774,-0.0143 -0.3855,-0.0123 -0.3934,-0.0103 -0.4015,-0.0082 -0.4094,-0.0059 -0.4175,-0.0037 -0.4254,-0.0012 -0.4333,0.0013 -0.4413,0.0038 -0.4492,0.0066 -0.4571,0.0093 -0.465,0.0122 -0.4728,0.0151 -0.4807,0.0182 -0.4886,0.0213 -0.4963,0.0246 -0.5042,0.0279 -0.5119,0.0313 -0.5196,0.0348 -0.5274,0.0384 -0.535,0.0422 -0.5428,0.0459 -0.5503,0.0497 -0.558,0.0538 -0.5656,0.0577 -0.5731,0.062 -0.5807,0.0661 -0.5881,0.0705 -0.5957,0.0749 -0.603,0.0794 -0.6105,0.084 -0.4125,0.1489 -1.6622,5.9262 0.2749,0.3417 0.4777,0.3892 0.4739,0.3815 0.4698,0.3737 0.4657,0.3661 0.4615,0.3585 0.4574,0.3509 0.453,0.3435 0.4486,0.3361 0.4442,0.3287 0.4397,0.3214 0.4351,0.3143 0.4305,0.307 0.4257,0.3 0.421,0.293 0.4161,0.286 0.4112,0.2791 0.4061,0.2723 0.4012,0.2655 0.396,0.2589 0.3908,0.2522 0.3856,0.2456 0.3803,0.2392 0.3749,0.2328 0.3695,0.2265 0.364,0.2201 0.3584,0.214 0.3528,0.2079 0.3472,0.2017 0.3414,0.1959 0.3356,0.1899 0.3298,0.1841 0.3239,0.1783 0.3179,0.1726 0.3119,0.1671 0.3059,0.1615 0.2997,0.156 0.2936,0.1507 0.2873,0.1454 0.2811,0.1401 0.2531,0.9952 -1.2289,5.4676 -0.6546,0.7911 -0.314,0.0064 -0.322,0.0085 -0.3298,0.0105 -0.3377,0.0128 -0.3455,0.0151 -0.3534,0.0175 -0.3612,0.02 -0.3691,0.0225 -0.3768,0.0253 -0.3846,0.028 -0.3924,0.0309 -0.4001,0.0338 -0.4079,0.0369 -0.4155,0.04 -0.4232,0.0433 -0.4308,0.0465 -0.4385,0.05 -0.446,0.0534 -0.4536,0.0571 -0.4612,0.0607 -0.4687,0.0645 -0.4762,0.0683 -0.4836,0.0723 -0.4911,0.0763 -0.4984,0.0805 -0.5059,0.0846 -0.5131,0.089 -0.5205,0.0933 -0.5277,0.0978 -0.5349,0.1024 -0.5422,0.107 -0.5493,0.1118 -0.5564,0.1166 -0.5636,0.1215 -0.5705,0.1265 -0.5776,0.1315 -0.5845,0.1368 -0.5915,0.142 -0.5984,0.1473 -0.3946,0.1912 -1.0336,6.0675 0.3091,0.3111 0.5158,0.3371 0.5111,0.3299 0.5062,0.3226 0.5015,0.3153 0.4965,0.3083 0.4915,0.3012 0.4864,0.2943 0.4814,0.2873 0.4761,0.2805 0.4709,0.2737 0.4656,0.2671 0.4601,0.2604 0.4548,0.2538 0.4493,0.2474 0.4437,0.2409 0.4381,0.2346 0.4324,0.2283 0.4267,0.2222 0.4209,0.216 0.415,0.21 0.4092,0.204 0.4032,0.1981 0.3972,0.1924 0.3911,0.1865 0.385,0.181 0.3788,0.1753 0.3727,0.1698 0.3663,0.1644 0.36,0.1591 0.3537,0.1538 0.3472,0.1486 0.3407,0.1435 0.3343,0.1384 0.3276,0.1336 0.3211,0.1286 0.3144,0.1239 0.3077,0.1191 0.301,0.1146 0.2942,0.11 0.3557,0.9633 -0.6506,5.566 -0.5684,0.8553 -0.3116,0.0392 -0.3193,0.042 -0.3269,0.045 -0.3345,0.048 -0.3421,0.0511 -0.3496,0.0543 -0.3572,0.0577 -0.3646,0.061 -0.3722,0.0645 -0.3796,0.0681 -0.387,0.0717 -0.3943,0.0755 -0.4018,0.0793 -0.409,0.0832 -0.4164,0.0873 -0.4236,0.0913 -0.4308,0.0955 -0.4381,0.0998 -0.4451,0.1042 -0.4523,0.1085 -0.4594,0.1132 -0.4664,0.1177 -0.4735,0.1224 -0.4804,0.1273 -0.4873,0.1321 -0.4942,0.137 -0.501,0.1421 -0.5079,0.1473 -0.5146,0.1524 -0.5213,0.1577 -0.528,0.1631 -0.5346,0.1686 -0.5412,0.1741 -0.5478,0.1798 -0.5542,0.1854 -0.5606,0.1912 -0.5671,0.1971 -0.5734,0.2031 -0.5796,0.2091 -0.3725,0.2314 -0.3938,6.1422 0.3399,0.2771 0.5483,0.2814 0.5427,0.2746 0.5373,0.2679 0.5316,0.2612 0.526,0.2547 0.5203,0.2482 0.5146,0.2418 0.5087,0.2355 0.5028,0.2292 0.497,0.223 0.4909,0.2169 0.4849,0.2108 0.4788,0.2049 0.4726,0.1991 0.4665,0.1932 0.4602,0.1875 0.454,0.1819 0.4475,0.1764 0.4412,0.1708 0.4347,0.1655 0.4283,0.1601 0.4217,0.1549 0.4151,0.1497 0.4085,0.1447 0.4018,0.1397 0.3951,0.1348 0.3883,0.1299 0.3815,0.1252 0.3747,0.1206 0.3678,0.116 0.3608,0.1115 0.3539,0.107 0.3469,0.1028 0.3398,0.0985 0.3328,0.0944 0.3256,0.0904 0.3185,0.0863 0.3113,0.0825 0.304,0.0786 0.4545,0.9208 -0.0653,5.6036 -0.4758,0.91 -0.3058,0.0715 -0.3132,0.0752 -0.3204,0.0789 -0.3276,0.0827 -0.3349,0.0866 -0.342,0.0906 -0.3492,0.0947 -0.3563,0.0988 -0.3633,0.103 -0.3704,0.1074 -0.3774,0.1118 -0.3843,0.1163 -0.3913,0.1208 -0.3981,0.1256 -0.405,0.1303 -0.4117,0.1351 -0.4185,0.14 -0.4252,0.145 -0.4318,0.1501 -0.4385,0.1553 -0.4451,0.1605 -0.4515,0.1659 -0.4581,0.1712 -0.4644,0.1768 -0.4709,0.1823 -0.4771,0.188 -0.4835,0.1937 -0.4897,0.1995 -0.4958,0.2054 -0.502,0.2113 -0.508,0.2174 -0.5141,0.2236 -0.52,0.2297 -0.526,0.236 -0.5318,0.2423 -0.5376,0.2488 -0.5433,0.2553 -0.549,0.2619 -0.5547,0.2685 -0.3463,0.2691 0.2505,6.1498 0.367,0.24 0.5747,0.2226 0.5685,0.2163 0.5623,0.2103 0.556,0.2042 0.5497,0.1983 0.5434,0.1925 0.537,0.1867 0.5306,0.181 0.524,0.1753 0.5175,0.1699 0.5109,0.1644 0.5043,0.159 0.4976,0.1537 0.4909,0.1486 0.4841,0.1434 0.4773,0.1384 0.4705,0.1334 0.4635,0.1286 0.4566,0.1238 0.4497,0.1191 0.4426,0.1145 0.4356,0.11 0.4285,0.1055 0.4213,0.1012 0.4142,0.0969 0.4071,0.0927 0.3997,0.0887 0.3926,0.0846 0.3852,0.0808 0.3779,0.0769 0.3705,0.0731 0.3631,0.0695 0.3558,0.066 0.3482,0.0625 0.3408,0.059 0.3333,0.0558 0.3258,0.0526 0.3182,0.0495 0.3106,0.0464 0.5483,0.8683 0.5208,5.5797 -0.3782,0.9547 -0.2966,0.1031 -0.3036,0.1075 -0.3104,0.112 -0.3172,0.1165 -0.324,0.1211 -0.3307,0.1259 -0.3373,0.1306 -0.3441,0.1355 -0.3505,0.1405 -0.3572,0.1455 -0.3636,0.1506 -0.3701,0.1558 -0.3764,0.1611 -0.3829,0.1665 -0.3891,0.1719 -0.3953,0.1774 -0.4016,0.183 -0.4077,0.1887 -0.4138,0.1944 -0.4198,0.2003 -0.4259,0.2061 -0.4317,0.2122 -0.4376,0.2182 -0.4435,0.2243 -0.4492,0.2305 -0.4549,0.2369 -0.4606,0.2431 -0.4661,0.2496 -0.4717,0.2561 -0.4771,0.2627 -0.4825,0.2693 -0.4879,0.2761 -0.4932,0.2828 -0.4984,0.2897 -0.5036,0.2966 -0.5086,0.3036 -0.5137,0.3107 -0.5186,0.3178 -0.5235,0.3251 -0.3163,0.3038 0.8919,6.0899 0.3901,0.2003 0.5948,0.1613 0.588,0.1557 0.5812,0.1504 0.5743,0.145 0.5675,0.1397 0.5605,0.1346 0.5536,0.1296 0.5465,0.1245 0.5395,0.1196 0.5325,0.1148 0.5253,0.1101 0.5181,0.1055 0.5109,0.1008 0.5038,0.0965 0.4964,0.092 0.4892,0.0877 0.4818,0.0836 0.4744,0.0794 0.4671,0.0754 0.4596,0.0714 0.4522,0.0676 0.4447,0.0639 0.4372,0.0601 0.4296,0.0566 0.4221,0.0531 0.4144,0.0497 0.4069,0.0464 0.3992,0.0431 0.3915,0.0401 0.3839,0.0369 0.3762,0.0341 0.3684,0.0311 0.3606,0.0284 0.3529,0.0258 0.3451,0.0231 0.3373,0.0207 0.3295,0.0182 0.3217,0.0159 0.3137,0.0137 0.6361,0.8062 1.1011,5.4947 -0.2762,0.9891 -0.2843,0.1335 -0.2907,0.1387 -0.297,0.1438 -0.3033,0.149 -0.3095,0.1543 -0.3157,0.1597 -0.3219,0.1652 -0.328,0.1708 -0.3339,0.1763 -0.34,0.182 -0.3459,0.1878 -0.3518,0.1937 -0.3575,0.1996 -0.3633,0.2055 -0.3691,0.2117 -0.3746,0.2177 -0.3802,0.224 -0.3858,0.2303 -0.3912,0.2366 -0.3966,0.243 -0.4019,0.2496 -0.4073,0.2561 -0.4124,0.2627 -0.4175,0.2695 -0.4227,0.2762 -0.4277,0.2831 -0.4326,0.2899 -0.4375,0.297 -0.4423,0.304 -0.447,0.3111 -0.4518,0.3183 -0.4564,0.3255 -0.4609,0.3328 -0.4654,0.3402 -0.4697,0.3477 -0.4742,0.3551 -0.4783,0.3627 -0.4826,0.3703 -0.4867,0.3779 -0.2828,0.3353 1.5236,5.9633 0.4089,0.1585 0.6084,0.0982 0.601,0.0934 0.5938,0.0887 0.5863,0.0842 0.579,0.0797 0.5715,0.0753 0.5641,0.0709 0.5566,0.0667 0.549,0.0626 0.5415,0.0586 0.534,0.0545 0.5263,0.0507 0.5187,0.047 0.511,0.0432 0.5034,0.0396 0.4956,0.0362 0.4879,0.0327 0.4802,0.0294 0.4723,0.0261 0.4646,0.023 0.4568,0.02 0.4489,0.017 0.4411,0.0142 0.4332,0.0113 0.4253,0.0087 0.4174,0.0061 0.4095,0.0036 0.4015,0.0012 0.3936,-0.0012 0.3856,-0.0033 0.3777,-0.0055 0.3696,-0.0075 0.3617,-0.0094 0.3536,-0.0113 0.3457,-0.0131 0.3376,-0.0147 0.3295,-0.0163 0.3216,-0.0178 0.3135,-0.0192 0.7168,0.7353 1.6695,5.3495 -0.1714,1.0125 -0.2687,0.1626 -0.2746,0.1682 -0.2804,0.1741 -0.286,0.1799 -0.2917,0.1858 -0.2973,0.1919 -0.3029,0.1979 -0.3083,0.2041 -0.3137,0.2103 -0.3191,0.2166 -0.3244,0.2229 -0.3295,0.2293 -0.3348,0.2359 -0.3398,0.2424 -0.3449,0.2491 -0.3498,0.2557 -0.3548,0.2625 -0.3596,0.2693 -0.3643,0.2762 -0.369,0.2832 -0.3737,0.2902 -0.3782,0.2972 -0.3827,0.3045 -0.3871,0.3116 -0.3914,0.3189 -0.3958,0.3262 -0.3999,0.3336 -0.4041,0.3411 -0.4081,0.3485 -0.4121,0.3562 -0.416,0.3637 -0.4198,0.3715 -0.4236,0.3792 -0.4273,0.3869 -0.4309,0.3949 -0.4344,0.4027 -0.4378,0.4107 -0.4412,0.4187 -0.4446,0.4268 -0.2461,0.3629 2.1386,5.7714 0.4232,0.1149 0.6153,0.0341 0.6075,0.0301 0.5997,0.0262 0.592,0.0224 0.5841,0.0187 0.5763,0.0151 0.5684,0.0116 0.5605,0.0082 0.5526,0.0049 0.5446,0.0016 0.5368,-0.0016 0.5287,-0.0046 0.5207,-0.0075 0.5128,-0.0104 0.5047,-0.0132 0.4967,-0.0159 0.4887,-0.0185 0.4806,-0.0209 0.4725,-0.0234 0.4645,-0.0257 0.4563,-0.0279 0.4482,-0.03 0.4402,-0.032 0.432,-0.034 0.4239,-0.0358 0.4157,-0.0376 0.4076,-0.0392 0.3995,-0.0408 0.3913,-0.0423 0.3832,-0.0436 0.375,-0.0449 0.3668,-0.0461 0.3587,-0.0472 0.3505,-0.0482 0.3424,-0.0492 0.3342,-0.0499 0.3261,-0.0506 0.3179,-0.0513 0.3098,-0.0518 0.7897,0.6563 2.2195,5.1457 -0.0645,1.0248 -0.2503,0.1898 -0.2555,0.196 -0.2606,0.2024 -0.2657,0.2088 -0.2707,0.2154 -0.2756,0.2218 -0.2805,0.2285 -0.2853,0.2352 -0.29,0.2419 -0.2947,0.2488 -0.2993,0.2556 -0.3038,0.2626 -0.3083,0.2695 -0.3126,0.2766 -0.317,0.2837 -0.3212,0.2909 -0.3253,0.2982 -0.3295,0.3054 -0.3334,0.3128 -0.3374,0.3202 -0.3413,0.3276 -0.3451,0.3352 -0.3487,0.3428 -0.3525,0.3504 -0.3559,0.358 -0.3595,0.3658 -0.3629,0.3736 -0.3662,0.3814 -0.3694,0.3893 -0.3726,0.3973 -0.3757,0.4053 -0.3787,0.4133 -0.3817,0.4213 -0.3845,0.4296 -0.3872,0.4377 -0.3899,0.4459 -0.3926,0.4542 -0.395,0.4626 -0.3975,0.4709 -0.2069,0.3866 2.7302,5.5163 0.4329,0.07 0.6155,-0.0305 0.6073,-0.0335 0.5992,-0.0367 0.5911,-0.0395 0.5829,-0.0425 0.5746,-0.0452 0.5665,-0.0478 0.5583,-0.0505 0.5501,-0.0529 0.5419,-0.0554 0.5336,-0.0576 0.5253,-0.0598 0.5171,-0.062 0.5089,-0.0639 0.5006,-0.0659 0.4923,-0.0677 0.4841,-0.0695 0.4757,-0.0711 0.4675,-0.0726 0.4592,-0.0741 0.451,-0.0754 0.4426,-0.0767 0.4344,-0.0779 0.4261,-0.0789 0.4178,-0.08 0.4095,-0.0808 0.4013,-0.0816 0.393,-0.0823 0.3848,-0.083 0.3765,-0.0834 0.3682,-0.0839 0.3601,-0.0842 0.3517,-0.0844 0.3436,-0.0846 0.3354,-0.0846 0.3272,-0.0846 0.3189,-0.0845 0.3109,-0.0842 0.3026,-0.0839 0.854,0.5702 2.7453,4.8854 0.0428,1.026 -0.229,0.2149 -0.2336,0.2217 -0.238,0.2285 -0.2424,0.2354 -0.2467,0.2425 -0.251,0.2495 -0.255,0.2565 -0.2592,0.2637 -0.2631,0.271 -0.2671,0.2781 -0.2709,0.2855 -0.2747,0.2929 -0.2784,0.3003 -0.282,0.3078 -0.2856,0.3153 -0.289,0.3229 -0.2924,0.3305 -0.2958,0.3382 -0.2989,0.3459 -0.3021,0.3537 -0.3051,0.3615 -0.3082,0.3695 -0.311,0.3773 -0.3139,0.3853 -0.3166,0.3933 -0.3192,0.4014 -0.3219,0.4094 -0.3243,0.4177 -0.3267,0.4258 -0.3291,0.434 -0.3312,0.4423 -0.3335,0.4506 -0.3355,0.459 -0.3375,0.4673 -0.3393,0.4758 -0.3412,0.4843 -0.3429,0.4927 -0.3445,0.5013 -0.3461,0.5099 -0.1653,0.4062 3.2917,5.2006 0.4379,0.0244 0.6089,-0.0946 0.6005,-0.0969 0.5921,-0.099 0.5837,-0.1012 0.5753,-0.1031 0.5668,-0.105 0.5584,-0.1069 0.5499,-0.1085 0.5416,-0.1102 0.533,-0.1116 0.5247,-0.1131 0.5162,-0.1144 0.5078,-0.1157 0.4994,-0.1168 0.491,-0.1178 0.4825,-0.1188 0.4742,-0.1197 0.4657,-0.1204 0.4574,-0.1211 0.4489,-0.1217 0.4406,-0.1221 0.4322,-0.1226 0.4238,-0.1229 0.4155,-0.123 0.4072,-0.1232 0.3989,-0.1232 0.3905,-0.1231 0.3823,-0.1229 0.3739,-0.1227 0.3658,-0.1224 0.3574,-0.1219 0.3493,-0.1214 0.341,-0.1207 0.3329,-0.12 0.3246,-0.1193 0.3166,-0.1183 0.3084,-0.1173 0.3003,-0.1163 0.2922,-0.1151 0.909,0.4778 3.2408,4.5718 0.1499,1.0159 -0.2053,0.2376 -0.2092,0.2449 -0.2128,0.2521 -0.2165,0.2595 -0.22,0.2669 -0.2234,0.2744 -0.2269,0.2818 -0.2302,0.2893 -0.2333,0.297 -0.2366,0.3046 -0.2396,0.3122 -0.2426,0.32 -0.2454,0.3278 -0.2483,0.3355 -0.2511,0.3434 -0.2537,0.3514 -0.2562,0.3592 -0.2588,0.3673 -0.2611,0.3753 -0.2635,0.3833 -0.2657,0.3915 -0.2678,0.3996 -0.2699,0.4077 -0.2719,0.416 -0.2737,0.4243 -0.2756,0.4325 -0.2772,0.4409 -0.2789,0.4492 -0.2805,0.4576 -0.2818,0.4661 -0.2833,0.4745 -0.2845,0.483 -0.2857,0.4915 -0.2867,0.5001 -0.2878,0.5087 -0.2887,0.5172 -0.2895,0.5259 -0.2903,0.5346 -0.2908,0.5432 -0.122,0.4213 3.8173,4.828 0.4381,-0.0215 0.5957,-0.1577 0.5871,-0.1591 0.5785,-0.1605 0.5699,-0.1615 0.5613,-0.1627 0.5527,-0.1637 0.5442,-0.1647 0.5356,-0.1654 0.527,-0.1661 0.5185,-0.1668 0.51,-0.1673 0.5014,-0.1678 0.493,-0.1681 0.4844,-0.1683 0.476,-0.1686 0.4674,-0.1685 0.4591,-0.1686 0.4506,-0.1685 0.4421,-0.1682 0.4338,-0.1679 0.4254,-0.1676 0.417,-0.167 0.4087,-0.1665 0.4004,-0.1658 0.3921,-0.1651 0.3838,-0.1642 0.3755,-0.1633 0.3673,-0.1622 0.3591,-0.1611 0.3509,-0.1599 0.3428,-0.1586 0.3346,-0.1572 0.3266,-0.1558 0.3185,-0.1541 0.3104,-0.1526 0.3024,-0.1507 0.2945,-0.149 0.2865,-0.147 0.2786,-0.145 0.9539,0.3802 3.701,4.2079 0.2553,0.9947 -0.1794,0.2578 -0.1824,0.2654 -0.1853,0.273 -0.1882,0.2807 -0.1909,0.2885 -0.1936,0.2961 -0.1961,0.304 -0.1987,0.3119 -0.201,0.3197 -0.2034,0.3276 -0.2057,0.3356 -0.2078,0.3436 -0.2099,0.3516 -0.2118,0.3597 -0.2138,0.3678 -0.2156,0.3759 -0.2173,0.3841 -0.2189,0.3923 -0.2205,0.4005 -0.2219,0.4088 -0.2234,0.4171 -0.2246,0.4254 -0.2258,0.4337 -0.2269,0.4421 -0.2279,0.4506 -0.2288,0.459 -0.2297,0.4674 -0.2304,0.4759 -0.231,0.4844 -0.2316,0.493 -0.2321,0.5015 -0.2325,0.5101 -0.2327,0.5187 -0.233,0.5273 -0.233,0.536 -0.233,0.5446 -0.233,0.5533 -0.2328,0.5619 -0.2325,0.5707 -0.0772,0.4317 4.3011,4.4026 0.4334,-0.0672 0.5759,-0.2192 0.5672,-0.2196 0.5586,-0.22 0.5499,-0.2202 0.5412,-0.2205 0.5326,-0.2206 0.524,-0.2206 0.5154,-0.2205 0.5068,-0.2203 0.4982,-0.2201 0.4897,-0.2197 0.4811,-0.2192 0.4727,-0.2188 0.4642,-0.218 0.4557,-0.2174 0.4473,-0.2165 0.4389,-0.2156 0.4305,-0.2147 0.4222,-0.2135 0.4139,-0.2123 0.4055,-0.2111 0.3973,-0.2098 0.389,-0.2083 0.3809,-0.2067 0.3726,-0.2052 0.3646,-0.2034 0.3564,-0.2016 0.3483,-0.1997 0.3403,-0.1978 0.3323,-0.1957 0.3243,-0.1936 0.3164,-0.1913 0.3085,-0.189 0.3006,-0.1867 0.2928,-0.1841 0.285,-0.1815 0.2773,-0.1789 0.2696,-0.1762 0.2619,-0.1733 0.9884,0.2784 4.1206,3.798 0.3578,0.9625 -0.1515,0.2752 -0.1536,0.283 -0.1558,0.2909 -0.1578,0.2988 -0.1597,0.3068 -0.1615,0.3148 -0.1633,0.3228 -0.165,0.3309 -0.1665,0.339 -0.1681,0.3471 -0.1694,0.3553 -0.1708,0.3634 -0.172,0.3716 -0.1731,0.3799 -0.1741,0.3881 -0.1751,0.3964 -0.176,0.4047 -0.1767,0.413 -0.1774,0.4214 -0.178,0.4297 -0.1785,0.4381 -0.1789,0.4466 -0.1792,0.455 -0.1795,0.4634 -0.1795,0.4719 -0.1797,0.4804 -0.1795,0.4889 -0.1794,0.4974 -0.1792,0.5059 -0.1788,0.5145 -0.1784,0.523 -0.1778,0.5316 -0.1773,0.5402 -0.1765,0.5487 -0.1757,0.5574 -0.1749,0.566 -0.1738,0.5746 -0.1728,0.5832 -0.1716,0.5919 -0.0317,0.4374 4.7378,3.9288 0.4239,-0.1121 0.5499,-0.2781 0.5412,-0.2777 0.5325,-0.2772 0.5239,-0.2766 0.5152,-0.2758 0.5066,-0.275 0.4981,-0.2742 0.4895,-0.2732 0.4809,-0.2721 0.4725,-0.2709 0.4641,-0.2697 0.4556,-0.2683 0.4472,-0.2669 0.4388,-0.2654 0.4306,-0.2638 0.4222,-0.2621 0.4139,-0.2604 0.4058,-0.2584 0.3975,-0.2565 0.3894,-0.2545 0.3812,-0.2523 0.3732,-0.2501 0.3652,-0.2478 0.3571,-0.2454 0.3492,-0.243 0.3413,-0.2404 0.3333,-0.2378 0.3256,-0.2351 0.3178,-0.2322 0.31,-0.2294 0.3023,-0.2264 0.2946,-0.2233 0.287,-0.2203 0.2795,-0.217 0.272,-0.2137 0.2644,-0.2104 0.2571,-0.2069 0.2497,-0.2033 0.2423,-0.1998 1.0121,0.1735 4.495,3.3466 0.4565,0.9198 -0.1219,0.2895 -0.1232,0.2975 -0.1245,0.3056 -0.1257,0.3137 -0.1267,0.3218 -0.1278,0.3299 -0.1286,0.3382 -0.1295,0.3463 -0.1302,0.3545 -0.1309,0.3628 -0.1313,0.371 -0.1319,0.3793 -0.1322,0.3876 -0.1324,0.3958 -0.1326,0.4042 -0.1328,0.4126 -0.1326,0.4208 -0.1326,0.4293 -0.1324,0.4376 -0.1321,0.446 -0.1318,0.4544 -0.1312,0.4628 -0.1307,0.4712 -0.13,0.4796 -0.1293,0.4881 -0.1284,0.4965 -0.1274,0.505 -0.1264,0.5134 -0.1253,0.5219 -0.1241,0.5304 -0.1227,0.5388 -0.1214,0.5473 -0.1198,0.5557 -0.1182,0.5642 -0.1165,0.5727 -0.1147,0.5812 -0.1128,0.5896 -0.1109,0.5981 -0.1088,0.6065 0.0142,0.4383 5.1225,3.4122 0.4099,-0.1559 0.5178,-0.3341 0.5092,-0.3327 0.5006,-0.3313 0.4921,-0.3298 0.4836,-0.3282 0.4751,-0.3265 0.4666,-0.3247 0.4583,-0.3229 0.4499,-0.3208 0.4416,-0.3189 0.4333,-0.3167 0.425,-0.3145 0.4169,-0.3122 0.4087,-0.3098 0.4006,-0.3074 0.3925,-0.3048 0.3845,-0.3021 0.3765,-0.2995 0.3685,-0.2966 0.3607,-0.2938 0.3528,-0.2908 0.345,-0.2877 0.3372,-0.2847 0.3295,-0.2814 0.3219,-0.2781 0.3143,-0.2748 0.3067,-0.2713 0.2992,-0.2678 0.2917,-0.2642 0.2843,-0.2605 0.277,-0.2568 0.2697,-0.2529 0.2625,-0.249 0.2552,-0.2451 0.2481,-0.2409 0.2411,-0.2369 0.234,-0.2326 0.227,-0.2284 0.2202,-0.224 1.0247,0.0668 4.8202,2.8583 0.5501,0.8671 -0.0909,0.3006 -0.0915,0.3088 -0.0919,0.3169 -0.0922,0.3252 -0.0924,0.3333 -0.0926,0.3415 -0.0926,0.3497 -0.0926,0.3579 -0.0924,0.3663 -0.0922,0.3744 -0.0919,0.3827 -0.0914,0.391 -0.091,0.3993 -0.0903,0.4075 -0.0897,0.4159 -0.0888,0.4241 -0.088,0.4324 -0.087,0.4408 -0.0859,0.449 -0.0848,0.4574 -0.0835,0.4657 -0.0822,0.4739 -0.0807,0.4823 -0.0791,0.4907 -0.0776,0.4989 -0.0758,0.5072 -0.0739,0.5155 -0.0721,0.5239 -0.0701,0.5321 -0.0679,0.5404 -0.0657,0.5487 -0.0635,0.5569 -0.0611,0.5653 -0.0586,0.5734 -0.056,0.5818 -0.0533,0.5899 -0.0506,0.5982 -0.0477,0.6064 -0.0448,0.6146 0.0599,0.4345 5.4511,2.8579 0.3914,-0.1978 0.48,-0.3864 0.4717,-0.3841 0.4632,-0.3819 0.4549,-0.3794 0.4466,-0.3769 0.4384,-0.3744 0.4302,-0.3717 0.422,-0.369 0.4139,-0.3661 0.4058,-0.3633 0.3978,-0.3603 0.3899,-0.3572 0.3819,-0.354 0.3741,-0.3509 0.3663,-0.3475 0.3585,-0.3442 0.3508,-0.3407 0.3431,-0.3371 0.3355,-0.3336 0.328,-0.3298 0.3204,-0.3261 0.3131,-0.3222 0.3056,-0.3183 0.2983,-0.3144 0.2911,-0.3102 0.2838,-0.3061 0.2766,-0.3019 0.2696,-0.2976 0.2625,-0.2933 0.2556,-0.2888 0.2486,-0.2843 0.2418,-0.2797 0.2349,-0.2751 0.2283,-0.2704 0.2216,-0.2656 0.2149,-0.2607 0.2084,-0.2559 0.202,-0.2508 0.1955,-0.2458 1.0261,-0.0407 5.0925,2.3389 0.6378,0.8048 -0.059,0.3085 -0.0587,0.3166 -0.0583,0.3248 -0.0577,0.333 -0.0571,0.3411 -0.0563,0.3493 -0.0556,0.3575 -0.0546,0.3657 -0.0537,0.3738 -0.0525,0.3821 -0.0514,0.3902 -0.0501,0.3984 -0.0487,0.4066 -0.0472,0.4147 -0.0457,0.423 -0.0441,0.4311 -0.0423,0.4392 -0.0404,0.4475 -0.0385,0.4555 -0.0365,0.4638 -0.0344,0.4718 -0.0322,0.48 -0.0298,0.4881 -0.0275,0.4962 -0.0249,0.5043 -0.0224,0.5123 -0.0197,0.5205 -0.0169,0.5285 -0.014,0.5365 -0.0111,0.5445 -0.008,0.5526 -0.0049,0.5605 -0.0017,0.5686 0.0017,0.5764 0.0051,0.5844 0.0086,0.5923 0.0122,0.6002 0.016,0.6081 0.0197,0.6159 0.105,0.4258 5.7199,2.2725 0.3686,-0.2376 0.437,-0.4345 0.4289,-0.4313 0.4208,-0.4282 0.4128,-0.4249 0.4047,-0.4215 0.3969,-0.4182 0.3889,-0.4146 0.3811,-0.4111 0.3734,-0.4074 0.3656,-0.4037 0.358,-0.3999 0.3504,-0.396 0.3429,-0.392 0.3353,-0.388 0.3279,-0.384 0.3206,-0.3797 0.3133,-0.3755 0.306,-0.3712 0.2988,-0.3668 0.2917,-0.3623 0.2846,-0.3578 0.2776,-0.3532 0.2707,-0.3485 0.2638,-0.3438 0.2571,-0.339 0.2502,-0.3341 0.2436,-0.3291 0.237,-0.3242 0.2304,-0.3191 0.224,-0.3139 0.2175,-0.3087 0.2112,-0.3035 0.205,-0.2982 0.1987,-0.2927 0.1926,-0.2873 0.1865,-0.2818 0.1806,-0.2762 0.1746,-0.2706 0.1687,-0.2649 1.0162,-0.1477 5.3092,1.7937 0.7184,0.7338 -0.0265,0.313 -0.0253,0.321 -0.0239,0.3291 -0.0226,0.3372 -0.0211,0.3452 -0.0196,0.3533 -0.0179,0.3613 -0.0161,0.3694 -0.0143,0.3774 -0.0123,0.3855 -0.0103,0.3934 -0.0082,0.4015 -0.0059,0.4094 -0.0037,0.4175 -0.0012,0.4254 0.0013,0.4333 0.0038,0.4413 0.0066,0.4492 0.0093,0.4571 0.0122,0.465 0.0151,0.4728 0.0182,0.4807 0.0213,0.4886 0.0246,0.4963 0.0279,0.5042 0.0313,0.5119 0.0348,0.5196 0.0384,0.5274 0.0422,0.535 0.0459,0.5428 0.0497,0.5503 0.0538,0.558 0.0577,0.5656 0.062,0.5731 0.0661,0.5807 0.0705,0.5881 0.0749,0.5957 0.0794,0.603 0.084,0.6105 0.1489,0.4125 5.9262,1.6622 0.3417,-0.2749 0.3892,-0.4777 0.3815,-0.4739 0.3737,-0.4698 0.3661,-0.4657 0.3585,-0.4615 0.3509,-0.4574 0.3435,-0.453 0.3361,-0.4486 0.3287,-0.4442 0.3214,-0.4397 0.3143,-0.4351 0.307,-0.4305 0.3,-0.4257 0.293,-0.421 0.286,-0.4161 0.2791,-0.4112 0.2723,-0.4061 0.2655,-0.4012 0.2589,-0.396 0.2522,-0.3908 0.2456,-0.3856 0.2392,-0.3803 0.2328,-0.3749 0.2265,-0.3695 0.2201,-0.364 0.214,-0.3584 0.2079,-0.3528 0.2017,-0.3472 0.1959,-0.3414 0.1899,-0.3356 0.1841,-0.3298 0.1783,-0.3239 0.1726,-0.3179 0.1671,-0.3119 0.1615,-0.3059 0.156,-0.2997 0.1507,-0.2936 0.1454,-0.2873 0.1401,-0.2811 0.9952,-0.2531 5.4676,1.2289 0.7911,0.6546 0.0064,0.314 0.0085,0.322 0.0105,0.3298 0.0128,0.3377 0.0151,0.3455 0.0175,0.3534 0.02,0.3612 0.0225,0.3691 0.0253,0.3768 0.028,0.3846 0.0309,0.3924 0.0338,0.4001 0.0369,0.4079 0.04,0.4155 0.0433,0.4232 0.0465,0.4308 0.05,0.4385 0.0534,0.446 0.0571,0.4536 0.0607,0.4612 0.0645,0.4687 0.0683,0.4762 0.0723,0.4836 0.0763,0.4911 0.0805,0.4984 0.0846,0.5059 0.089,0.5131 0.0933,0.5205 0.0978,0.5277 0.1024,0.5349 0.107,0.5422 0.1118,0.5493 0.1166,0.5564 0.1215,0.5636 0.1265,0.5705 0.1315,0.5776 0.1368,0.5845 0.142,0.5915 0.1473,0.5984 0.1912,0.3946 6.0675,1.0336 0.3111,-0.3091 0.3371,-0.5158 0.3299,-0.5111 0.3226,-0.5062 0.3153,-0.5015 0.3083,-0.4965 0.3012,-0.4915 0.2943,-0.4864 0.2873,-0.4814 0.2805,-0.4761 0.2737,-0.4709 0.2671,-0.4656 0.2604,-0.4601 0.2538,-0.4548 0.2474,-0.4493 0.2409,-0.4437 0.2346,-0.4381 0.2283,-0.4324 0.2222,-0.4267 0.216,-0.4209 0.21,-0.415 0.204,-0.4092 0.1981,-0.4032 0.1924,-0.3972 0.1865,-0.3911 0.181,-0.385 0.1753,-0.3788 0.1698,-0.3727 0.1644,-0.3663 0.1591,-0.36 0.1538,-0.3537 0.1486,-0.3472 0.1435,-0.3407 0.1384,-0.3343 0.1336,-0.3276 0.1286,-0.3211 0.1239,-0.3144 0.1191,-0.3077 0.1146,-0.301 0.11,-0.2942 0.9633,-0.3557 5.566,0.6506 0.8553,0.5684 0.0392,0.3116 0.042,0.3193 0.045,0.3269 0.048,0.3345 0.0511,0.3421 0.0543,0.3496 0.0577,0.3572 0.061,0.3646 0.0645,0.3722 0.0681,0.3796 0.0717,0.387 0.0755,0.3943 0.0793,0.4018 0.0832,0.409 0.0873,0.4164 0.0913,0.4236 0.0955,0.4308 0.0998,0.4381 0.1042,0.4451 0.1085,0.4523 0.1132,0.4594 0.1177,0.4664 0.1224,0.4735 0.1273,0.4804 0.1321,0.4873 0.137,0.4942 0.1421,0.501 0.1473,0.5079 0.1524,0.5146 0.1577,0.5213 0.1631,0.528 0.1686,0.5346 0.1741,0.5412 0.1798,0.5478 0.1854,0.5542 0.1912,0.5606 0.1971,0.5671 0.2031,0.5734 0.2091,0.5796 0.2314,0.3725 6.1422,0.3938 0.2771,-0.3399 0.2814,-0.5483 0.2746,-0.5427 0.2679,-0.5373 0.2612,-0.5316 0.2547,-0.526 0.2482,-0.5203 0.2418,-0.5146 0.2355,-0.5087 0.2292,-0.5028 0.223,-0.497 0.2169,-0.4909 0.2108,-0.4849 0.2049,-0.4788 0.1991,-0.4726 0.1932,-0.4665 0.1875,-0.4602 0.1819,-0.454 0.1764,-0.4475 0.1708,-0.4412 0.1655,-0.4347 0.1601,-0.4283 0.1549,-0.4217 0.1497,-0.4151 0.1447,-0.4085 0.1397,-0.4018 0.1348,-0.3951 0.1299,-0.3883 0.1252,-0.3815 0.1206,-0.3747 0.116,-0.3678 0.1115,-0.3608 0.107,-0.3539 0.1028,-0.3469 0.0985,-0.3398 0.0944,-0.3328 0.0904,-0.3256 0.0863,-0.3185 0.0825,-0.3113 0.0786,-0.304 0.9208,-0.4545 5.6036,0.0653 0.91,0.4758 0.0715,0.3058 0.0752,0.3132 0.0789,0.3204 0.0827,0.3276 0.0866,0.3349 0.0906,0.342 0.0947,0.3492 0.0988,0.3563 0.103,0.3633 0.1074,0.3704 0.1118,0.3774 0.1163,0.3843 0.1208,0.3913 0.1256,0.3981 0.1303,0.405 0.1351,0.4117 0.14,0.4185 0.145,0.4252 0.1501,0.4318 0.1553,0.4385 0.1605,0.4451 0.1659,0.4515 0.1712,0.4581 0.1768,0.4644 0.1823,0.4709 0.188,0.4771 0.1937,0.4835 0.1995,0.4897 0.2054,0.4958 0.2113,0.502 0.2174,0.508 0.2236,0.5141 0.2297,0.52 0.236,0.526 0.2423,0.5318 0.2488,0.5376 0.2553,0.5433 0.2619,0.549 0.2685,0.5547 0.2691,0.3463 6.1498,-0.2505 0.24,-0.367 0.2226,-0.5747 0.2163,-0.5685 0.2103,-0.5623 0.2042,-0.556 0.1983,-0.5497 0.1925,-0.5434 0.1867,-0.537 0.181,-0.5306 0.1753,-0.524 0.1699,-0.5175 0.1644,-0.5109 0.159,-0.5043 0.1537,-0.4976 0.1486,-0.4909 0.1434,-0.4841 0.1384,-0.4773 0.1334,-0.4705 0.1286,-0.4635 0.1238,-0.4566 0.1191,-0.4497 0.1145,-0.4426 0.11,-0.4356 0.1055,-0.4285 0.1012,-0.4213 0.0969,-0.4142 0.0927,-0.4071 0.0887,-0.3997 0.0846,-0.3926 0.0808,-0.3852 0.0769,-0.3779 0.0731,-0.3705 0.0695,-0.3631 0.066,-0.3558 0.0625,-0.3482 0.059,-0.3408 0.0558,-0.3333 0.0526,-0.3258 0.0495,-0.3182 0.0464,-0.3106 0.8683,-0.5483 5.5797,-0.5208 0.9547,0.3782 0.1031,0.2966 0.1075,0.3036 0.112,0.3104 0.1165,0.3172 0.1211,0.324 0.1259,0.3307 0.1306,0.3373 0.1355,0.3441 0.1405,0.3505 0.1455,0.3572 0.1506,0.3636 0.1558,0.3701 0.1611,0.3764 0.1665,0.3829 0.1719,0.3891 0.1774,0.3953 0.183,0.4016 0.1887,0.4077 0.1944,0.4138 0.2003,0.4198 0.2061,0.4259 0.2122,0.4317 0.2182,0.4376 0.2243,0.4435 0.2305,0.4492 0.2369,0.4549 0.2431,0.4606 0.2496,0.4661 0.2561,0.4717 0.2627,0.4771 0.2693,0.4825 0.2761,0.4879 0.2828,0.4932 0.2897,0.4984 0.2966,0.5036 0.3036,0.5086 0.3107,0.5137 0.3178,0.5186 0.3251,0.5235 0.3038,0.3163 6.0899,-0.8919 0.2003,-0.3901 0.1613,-0.5948 0.1557,-0.588 0.1504,-0.5812 0.145,-0.5743 0.1397,-0.5675 0.1346,-0.5605 0.1296,-0.5536 0.1245,-0.5465 0.1196,-0.5395 0.1148,-0.5325 0.1101,-0.5253 0.1055,-0.5181 0.1008,-0.5109 0.0965,-0.5038 0.092,-0.4964 0.0877,-0.4892 0.0836,-0.4818 0.0794,-0.4744 0.0754,-0.4671 0.0714,-0.4596 0.0676,-0.4522 0.0639,-0.4447 0.0601,-0.4372 0.0566,-0.4296 0.0531,-0.4221 0.0497,-0.4144 0.0464,-0.4069 0.0431,-0.3992 0.0401,-0.3915 0.0369,-0.3839 0.0341,-0.3762 0.0311,-0.3684 0.0284,-0.3606 0.0258,-0.3529 0.0231,-0.3451 0.0207,-0.3373 0.0182,-0.3295 0.0159,-0.3217 0.0137,-0.3137 0.8062,-0.6361 5.4947,-1.1011 0.9891,0.2762 0.1335,0.2843 0.1387,0.2907 0.1438,0.297 0.149,0.3033 0.1543,0.3095 0.1597,0.3157 0.1652,0.3219 0.1708,0.328 0.1763,0.3339 0.182,0.34 0.1878,0.3459 0.1937,0.3518 0.1996,0.3575 0.2055,0.3633 0.2117,0.3691 0.2177,0.3746 0.224,0.3802 0.2303,0.3858 0.2366,0.3912 0.243,0.3966 0.2496,0.4019 0.2561,0.4073 0.2627,0.4124 0.2695,0.4175 0.2762,0.4227 0.2831,0.4277 0.2899,0.4326 0.297,0.4375 0.304,0.4423 0.3111,0.447 0.3183,0.4518 0.3255,0.4564 0.3328,0.4609 0.3402,0.4654 0.3477,0.4697 0.3551,0.4742 0.3627,0.4783 0.3703,0.4826 0.3779,0.4867 0.3353,0.2828 5.9633,-1.5236 0.1585,-0.4089 0.0982,-0.6084 0.0934,-0.601 0.0887,-0.5938 0.0842,-0.5863 0.0797,-0.579 0.0753,-0.5715 0.0709,-0.5641 0.0667,-0.5566 0.0626,-0.549 0.0586,-0.5415 0.0545,-0.534 0.0507,-0.5263 0.047,-0.5187 0.0432,-0.511 0.0396,-0.5034 0.0362,-0.4956 0.0327,-0.4879 0.0294,-0.4802 0.0261,-0.4723 0.023,-0.4646 0.02,-0.4568 0.017,-0.4489 0.0142,-0.4411 0.0113,-0.4332 0.0087,-0.4253 0.0061,-0.4174 0.0036,-0.4095 0.0012,-0.4015 -0.0012,-0.3936 -0.0033,-0.3856 -0.0055,-0.3777 -0.0075,-0.3696 -0.0094,-0.3617 -0.0113,-0.3536 -0.0131,-0.3457 -0.0147,-0.3376 -0.0163,-0.3295 -0.0178,-0.3216 -0.0192,-0.3135 0.7353,-0.7168 5.3495,-1.6695 1.0125,0.1714 0.1626,0.2687 0.1682,0.2746 0.1741,0.2804 0.1799,0.286 0.1858,0.2917 0.1919,0.2973 0.1979,0.3029 0.2041,0.3083 0.2103,0.3137 0.2166,0.3191 0.2229,0.3244 0.2293,0.3295 0.2359,0.3348 0.2424,0.3398 0.2491,0.3449 0.2557,0.3498 0.2625,0.3548 0.2693,0.3596 0.2762,0.3643 0.2832,0.369 0.2902,0.3737 0.2972,0.3782 0.3045,0.3827 0.3116,0.3871 0.3189,0.3914 0.3262,0.3958 0.3336,0.3999 0.3411,0.4041 0.3485,0.4081 0.3562,0.4121 0.3637,0.416 0.3715,0.4198 0.3792,0.4236 0.3869,0.4273 0.3949,0.4309 0.4027,0.4344 0.4107,0.4378 0.4187,0.4412 0.4268,0.4446 0.3629,0.2461 5.7714,-2.1386 0.1149,-0.4232 0.0341,-0.6153 0.0301,-0.6075 0.0262,-0.5997 0.0224,-0.592 0.0187,-0.5841 0.0151,-0.5763 0.0116,-0.5684 0.0082,-0.5605 0.0049,-0.5526 0.0016,-0.5446 -0.0016,-0.5368 -0.0046,-0.5287 -0.0075,-0.5207 -0.0104,-0.5128 -0.0132,-0.5047 -0.0159,-0.4967 -0.0185,-0.4887 -0.0209,-0.4806 -0.0234,-0.4725 -0.0257,-0.4645 -0.0279,-0.4563 -0.03,-0.4482 -0.032,-0.4402 -0.034,-0.432 -0.0358,-0.4239 -0.0376,-0.4157 -0.0392,-0.4076 -0.0408,-0.3995 -0.0423,-0.3913 -0.0436,-0.3832 -0.0449,-0.375 -0.0461,-0.3668 -0.0472,-0.3587 -0.0482,-0.3505 -0.0492,-0.3424 -0.0499,-0.3342 -0.0506,-0.3261 -0.0513,-0.3179 -0.0518,-0.3098 0.6563,-0.7897 5.1457,-2.2195 1.0248,0.0645 0.1898,0.2503 0.196,0.2555 0.2024,0.2606 0.2088,0.2657 0.2154,0.2707 0.2218,0.2756 0.2285,0.2805 0.2352,0.2853 0.2419,0.29 0.2488,0.2947 0.2556,0.2993 0.2626,0.3038 0.2695,0.3083 0.2766,0.3126 0.2837,0.317 0.2909,0.3212 0.2982,0.3253 0.3054,0.3295 0.3128,0.3334 0.3202,0.3374 0.3276,0.3413 0.3352,0.3451 0.3428,0.3487 0.3504,0.3525 0.358,0.3559 0.3658,0.3595 0.3736,0.3629 0.3814,0.3662 0.3893,0.3694 0.3973,0.3726 0.4053,0.3757 0.4133,0.3787 0.4213,0.3817 0.4296,0.3845 0.4377,0.3872 0.4459,0.3899 0.4542,0.3926 0.4626,0.395 0.4709,0.3975 0.3866,0.2069 5.5163,-2.7302 0.07,-0.4329 -0.0305,-0.6155 -0.0335,-0.6073 -0.0367,-0.5992 -0.0395,-0.5911 -0.0425,-0.5829 -0.0452,-0.5746 -0.0478,-0.5665 -0.0505,-0.5583 -0.0529,-0.5501 -0.0554,-0.5419 -0.0576,-0.5336 -0.0598,-0.5253 -0.062,-0.5171 -0.0639,-0.5089 -0.0659,-0.5006 -0.0677,-0.4923 -0.0695,-0.4841 -0.0711,-0.4757 -0.0726,-0.4675 -0.0741,-0.4592 -0.0754,-0.451 -0.0767,-0.4426 -0.0779,-0.4344 -0.0789,-0.4261 -0.08,-0.4178 -0.0808,-0.4095 -0.0816,-0.4013 -0.0823,-0.393 -0.083,-0.3848 -0.0834,-0.3765 -0.0839,-0.3682 -0.0842,-0.3601 -0.0844,-0.3517 -0.0846,-0.3436 -0.0846,-0.3354 -0.0846,-0.3272 -0.0845,-0.3189 -0.0842,-0.3109 -0.0839,-0.3026 0.5702,-0.854 4.8854,-2.7453 1.026,-0.0428 0.2149,0.229 0.2217,0.2336 0.2285,0.238 0.2354,0.2424 0.2425,0.2467 0.2495,0.251 0.2565,0.255 0.2637,0.2592 0.271,0.2631 0.2781,0.2671 0.2855,0.2709 0.2929,0.2747 0.3003,0.2784 0.3078,0.282 0.3153,0.2856 0.3229,0.289 0.3305,0.2924 0.3382,0.2958 0.3459,0.2989 0.3537,0.3021 0.3615,0.3051 0.3695,0.3082 0.3773,0.311 0.3853,0.3139 0.3933,0.3166 0.4014,0.3192 0.4094,0.3219 0.4177,0.3243 0.4258,0.3267 0.434,0.3291 0.4423,0.3312 0.4506,0.3335 0.459,0.3355 0.4673,0.3375 0.4758,0.3393 0.4843,0.3412 0.4927,0.3429 0.5013,0.3445 0.5099,0.3461 0.4062,0.1653 5.2006,-3.2917 0.0244,-0.4379 -0.0946,-0.6089 -0.0969,-0.6005 -0.099,-0.5921 -0.1012,-0.5837 -0.1031,-0.5753 -0.105,-0.5668 -0.1069,-0.5584 -0.1085,-0.5499 -0.1102,-0.5416 -0.1116,-0.533 -0.1131,-0.5247 -0.1144,-0.5162 -0.1157,-0.5078 -0.1168,-0.4994 -0.1178,-0.491 -0.1188,-0.4825 -0.1197,-0.4742 -0.1204,-0.4657 -0.1211,-0.4574 -0.1217,-0.4489 -0.1221,-0.4406 -0.1226,-0.4322 -0.1229,-0.4238 -0.123,-0.4155 -0.1232,-0.4072 -0.1232,-0.3989 -0.1231,-0.3905 -0.1229,-0.3823 -0.1227,-0.3739 -0.1224,-0.3658 -0.1219,-0.3574 -0.1214,-0.3493 -0.1207,-0.341 -0.12,-0.3329 -0.1193,-0.3246 -0.1183,-0.3166 -0.1173,-0.3084 -0.1163,-0.3003 -0.1151,-0.2922 0.4778,-0.909 4.5718,-3.2408 1.0159,-0.1499 0.2376,0.2053 0.2449,0.2092 0.2521,0.2128 0.2595,0.2165 0.2669,0.22 0.2744,0.2234 0.2818,0.2269 0.2893,0.2302 0.297,0.2333 0.3046,0.2366 0.3122,0.2396 0.32,0.2426 0.3278,0.2454 0.3355,0.2483 0.3434,0.2511 0.3514,0.2537 0.3592,0.2562 0.3673,0.2588 0.3753,0.2611 0.3833,0.2635 0.3915,0.2657 0.3996,0.2678 0.4077,0.2699 0.416,0.2719 0.4243,0.2737 0.4325,0.2756 0.4409,0.2772 0.4492,0.2789 0.4576,0.2805 0.4661,0.2818 0.4745,0.2833 0.483,0.2845 0.4915,0.2857 0.5001,0.2867 0.5087,0.2878 0.5172,0.2887 0.5259,0.2895 0.5346,0.2903 0.5432,0.2908 0.4213,0.122 4.828,-3.8173 -0.0215,-0.4381 -0.1577,-0.5957 -0.1591,-0.5871 -0.1605,-0.5785 -0.1615,-0.5699 -0.1627,-0.5613 -0.1637,-0.5527 -0.1647,-0.5442 -0.1654,-0.5356 -0.1661,-0.527 -0.1668,-0.5185 -0.1673,-0.51 -0.1678,-0.5014 -0.1681,-0.493 -0.1683,-0.4844 -0.1686,-0.476 -0.1685,-0.4674 -0.1686,-0.4591 -0.1685,-0.4506 -0.1682,-0.4421 -0.1679,-0.4338 -0.1676,-0.4254 -0.167,-0.417 -0.1665,-0.4087 -0.1658,-0.4004 -0.1651,-0.3921 -0.1642,-0.3838 -0.1633,-0.3755 -0.1622,-0.3673 -0.1611,-0.3591 -0.1599,-0.3509 -0.1586,-0.3428 -0.1572,-0.3346 -0.1558,-0.3266 -0.1541,-0.3185 -0.1526,-0.3104 -0.1507,-0.3024 -0.149,-0.2945 -0.147,-0.2865 -0.145,-0.2786 0.3802,-0.9539 4.2079,-3.701 0.9947,-0.2553 0.2578,0.1794 0.2654,0.1824 0.273,0.1853 0.2807,0.1882 0.2885,0.1909 0.2961,0.1936 0.304,0.1961 0.3119,0.1987 0.3197,0.201 0.3276,0.2034 0.3356,0.2057 0.3436,0.2078 0.3516,0.2099 0.3597,0.2118 0.3678,0.2138 0.3759,0.2156 0.3841,0.2173 0.3923,0.2189 0.4005,0.2205 0.4088,0.2219 0.4171,0.2234 0.4254,0.2246 0.4337,0.2258 0.4421,0.2269 0.4506,0.2279 0.459,0.2288 0.4674,0.2297 0.4759,0.2304 0.4844,0.231 0.493,0.2316 0.5015,0.2321 0.5101,0.2325 0.5187,0.2327 0.5273,0.233 0.536,0.233 0.5446,0.233 0.5533,0.233 0.5619,0.2328 0.5707,0.2325 0.4317,0.0772 4.4026,-4.3011 -0.0672,-0.4334 -0.2192,-0.5759 -0.2196,-0.5672 -0.22,-0.5586 -0.2202,-0.5499 -0.2205,-0.5412 -0.2206,-0.5326 -0.2206,-0.524 -0.2205,-0.5154 -0.2203,-0.5068 -0.2201,-0.4982 -0.2197,-0.4897 -0.2192,-0.4811 -0.2188,-0.4727 -0.218,-0.4642 -0.2174,-0.4557 -0.2165,-0.4473 -0.2156,-0.4389 -0.2147,-0.4305 -0.2135,-0.4222 -0.2123,-0.4139 -0.2111,-0.4055 -0.2098,-0.3973 -0.2083,-0.389 -0.2067,-0.3809 -0.2052,-0.3726 -0.2034,-0.3646 -0.2016,-0.3564 -0.1997,-0.3483 -0.1978,-0.3403 -0.1957,-0.3323 -0.1936,-0.3243 -0.1913,-0.3164 -0.189,-0.3085 -0.1867,-0.3006 -0.1841,-0.2928 -0.1815,-0.285 -0.1789,-0.2773 -0.1762,-0.2696 -0.1733,-0.2619 0.2784,-0.9884 3.798,-4.1206 0.9625,-0.3578 0.2752,0.1515 0.283,0.1536 0.2909,0.1558 0.2988,0.1578 0.3068,0.1597 0.3148,0.1615 0.3228,0.1633 0.3309,0.165 0.339,0.1665 0.3471,0.1681 0.3553,0.1694 0.3634,0.1708 0.3716,0.172 0.3799,0.1731 0.3881,0.1741 0.3964,0.1751 0.4047,0.176 0.413,0.1767 0.4214,0.1774 0.4297,0.178 0.4381,0.1785 0.4466,0.1789 0.455,0.1792 0.4634,0.1795 0.4719,0.1795 0.4804,0.1797 0.4889,0.1795 0.4974,0.1794 0.5059,0.1792 0.5145,0.1788 0.523,0.1784 0.5316,0.1778 0.5402,0.1773 0.5487,0.1765 0.5574,0.1757 0.566,0.1749 0.5746,0.1738 0.5832,0.1728 0.5919,0.1716 0.4374,0.0317 3.9288,-4.7378 -0.1121,-0.4239 -0.2781,-0.5499 -0.2777,-0.5412 -0.2772,-0.5325 -0.2766,-0.5239 -0.2758,-0.5152 -0.275,-0.5066 -0.2742,-0.4981 -0.2732,-0.4895 -0.2721,-0.4809 -0.2709,-0.4725 -0.2697,-0.4641 -0.2683,-0.4556 -0.2669,-0.4472 -0.2654,-0.4388 -0.2638,-0.4306 -0.2621,-0.4222 -0.2604,-0.4139 -0.2584,-0.4058 -0.2565,-0.3975 -0.2545,-0.3894 -0.2523,-0.3812 -0.2501,-0.3732 -0.2478,-0.3652 -0.2454,-0.3571 -0.243,-0.3492 -0.2404,-0.3413 -0.2378,-0.3333 -0.2351,-0.3256 -0.2322,-0.3178 -0.2294,-0.31 -0.2264,-0.3023 -0.2233,-0.2946 -0.2203,-0.287 -0.217,-0.2795 -0.2137,-0.272 -0.2104,-0.2644 -0.2069,-0.2571 -0.2033,-0.2497 -0.1998,-0.2423 0.1735,-1.0121 3.3466,-4.495 0.9198,-0.4565 0.2895,0.1219 0.2975,0.1232 0.3056,0.1245 0.3137,0.1257 0.3218,0.1267 0.3299,0.1278 0.3382,0.1286 0.3463,0.1295 0.3545,0.1302 0.3628,0.1309 0.371,0.1313 0.3793,0.1319 0.3876,0.1322 0.3958,0.1324 0.4042,0.1326 0.4126,0.1328 0.4208,0.1326 0.4293,0.1326 0.4376,0.1324 0.446,0.1321 0.4544,0.1318 0.4628,0.1312 0.4712,0.1307 0.4796,0.13 0.4881,0.1293 0.4965,0.1284 0.505,0.1274 0.5134,0.1264 0.5219,0.1253 0.5304,0.1241 0.5388,0.1227 0.5473,0.1214 0.5557,0.1198 0.5642,0.1182 0.5727,0.1165 0.5812,0.1147 0.5896,0.1128 0.5981,0.1109 0.6065,0.1088 0.4383,-0.0142 3.4122,-5.1225 -0.1559,-0.4099 -0.3341,-0.5178 -0.3327,-0.5092 -0.3313,-0.5006 -0.3298,-0.4921 -0.3282,-0.4836 -0.3265,-0.4751 -0.3247,-0.4666 -0.3229,-0.4583 -0.3208,-0.4499 -0.3189,-0.4416 -0.3167,-0.4333 -0.3145,-0.425 -0.3122,-0.4169 -0.3098,-0.4087 -0.3074,-0.4006 -0.3048,-0.3925 -0.3021,-0.3845 -0.2995,-0.3765 -0.2966,-0.3685 -0.2938,-0.3607 -0.2908,-0.3528 -0.2877,-0.345 -0.2847,-0.3372 -0.2814,-0.3295 -0.2781,-0.3219 -0.2748,-0.3143 -0.2713,-0.3067 -0.2678,-0.2992 -0.2642,-0.2917 -0.2605,-0.2843 -0.2568,-0.277 -0.2529,-0.2697 -0.249,-0.2625 -0.2451,-0.2552 -0.2409,-0.2481 -0.2369,-0.2411 -0.2326,-0.234 -0.2284,-0.227 -0.224,-0.2202 0.0668,-1.0247 2.8583,-4.8202 0.8671,-0.5501 0.3006,0.0909 0.3088,0.0915 0.3169,0.0919 0.3252,0.0922 0.3333,0.0924 0.3415,0.0926 0.3497,0.0926 0.3579,0.0926 0.3663,0.0924 0.3744,0.0922 0.3827,0.0919 0.391,0.0914 0.3993,0.091 0.4075,0.0903 0.4159,0.0897 0.4241,0.0888 0.4324,0.088 0.4408,0.087 0.449,0.0859 0.4574,0.0848 0.4657,0.0835 0.4739,0.0822 0.4823,0.0807 0.4907,0.0791 0.4989,0.0776 0.5072,0.0758 0.5155,0.0739 0.5239,0.0721 0.5321,0.0701 0.5404,0.0679 0.5487,0.0657 0.5569,0.0635 0.5653,0.0611 0.5734,0.0586 0.5818,0.056 0.5899,0.0533 0.5982,0.0506 0.6064,0.0477 0.6146,0.0448 0.4345,-0.0599 2.8579,-5.4511 -0.1978,-0.3914 -0.3864,-0.48 -0.3841,-0.4717 -0.3819,-0.4632 -0.3794,-0.4549 -0.3769,-0.4466 -0.3744,-0.4384 -0.3717,-0.4302 -0.369,-0.422 -0.3661,-0.4139 -0.3633,-0.4058 -0.3603,-0.3978 -0.3572,-0.3899 -0.354,-0.3819 -0.3509,-0.3741 -0.3475,-0.3663 -0.3442,-0.3585 -0.3407,-0.3508 -0.3371,-0.3431 -0.3336,-0.3355 -0.3298,-0.328 -0.3261,-0.3204 -0.3222,-0.3131 -0.3183,-0.3056 -0.3144,-0.2983 -0.3102,-0.2911 -0.3061,-0.2838 -0.3019,-0.2766 -0.2976,-0.2696 -0.2933,-0.2625 -0.2888,-0.2556 -0.2843,-0.2486 -0.2797,-0.2418 -0.2751,-0.2349 -0.2704,-0.2283 -0.2656,-0.2216 -0.2607,-0.2149 -0.2559,-0.2084 -0.2508,-0.202 -0.2458,-0.1955 -0.0407,-1.0261 2.3389,-5.0925 0.8048,-0.6378 0.3085,0.059 0.3166,0.0587 0.3248,0.0583 0.333,0.0577 0.3411,0.0571 0.3493,0.0563 0.3575,0.0556 0.3657,0.0546 0.3738,0.0537 0.3821,0.0525 0.3902,0.0514 0.3984,0.0501 0.4066,0.0487 0.4147,0.0472 0.423,0.0457 0.4311,0.0441 0.4392,0.0423 0.4475,0.0404 0.4555,0.0385 0.4638,0.0365 0.4718,0.0344 0.48,0.0322 0.4881,0.0298 0.4962,0.0275 0.5043,0.0249 0.5123,0.0224 0.5205,0.0197 0.5285,0.0169 0.5365,0.014 0.5445,0.0111 0.5526,0.008 0.5605,0.0049 0.5686,0.0017 0.5764,-0.0017 0.5844,-0.0051 0.5923,-0.0086 0.6002,-0.0122 0.6081,-0.016 0.6159,-0.0197 0.4258,-0.105 2.2725,-5.7199 -0.2376,-0.3686 -0.4345,-0.437 -0.4313,-0.4289 -0.4282,-0.4208 -0.4249,-0.4128 -0.4215,-0.4047 -0.4182,-0.3969 -0.4146,-0.3889 -0.4111,-0.3811 -0.4074,-0.3734 -0.4037,-0.3656 -0.3999,-0.358 -0.396,-0.3504 -0.392,-0.3429 -0.388,-0.3353 -0.384,-0.3279 -0.3797,-0.3206 -0.3755,-0.3133 -0.3712,-0.306 -0.3668,-0.2988 -0.3623,-0.2917 -0.3578,-0.2846 -0.3532,-0.2776 -0.3485,-0.2707 -0.3438,-0.2638 -0.339,-0.2571 -0.3341,-0.2502 -0.3291,-0.2436 -0.3242,-0.237 -0.3191,-0.2304 -0.3139,-0.224 -0.3087,-0.2175 -0.3035,-0.2112 -0.2982,-0.205 -0.2927,-0.1987 -0.2873,-0.1926 -0.2818,-0.1865 -0.2762,-0.1806 -0.2706,-0.1746 -0.2649,-0.1687 -0.1477,-1.0162 1.7937,-5.3092 0.7338,-0.7184 0.313,0.0265 0.321,0.0253 0.3291,0.0239 0.3372,0.0226 0.3452,0.0211 0.3533,0.0196 0.3613,0.0179 0.3694,0.0161 0.3774,0.0143 0.3855,0.0123 0.3934,0.0103 0.4015,0.0082 0.4094,0.0059 0.4175,0.0037 0.4254,0.0012 0.4333,-0.0013 0.4413,-0.0038 0.4492,-0.0066 0.4571,-0.0093 0.465,-0.0122 0.4728,-0.0151 0.4807,-0.0182 0.4886,-0.0213 0.4963,-0.0246 0.5042,-0.0279 0.5119,-0.0313 0.5196,-0.0348 0.5274,-0.0384 0.535,-0.0422 0.5428,-0.0459 0.5503,-0.0497 0.558,-0.0538 0.5656,-0.0577 0.5731,-0.062 0.5807,-0.0661 0.5881,-0.0705 0.5957,-0.0749 0.603,-0.0794 0.6105,-0.084 0.4125,-0.1489 1.6622,-5.9262 -0.2749,-0.3417 -0.4777,-0.3892 -0.4739,-0.3815 -0.4698,-0.3737 -0.4657,-0.3661 -0.4615,-0.3585 -0.4574,-0.3509 -0.453,-0.3435 -0.4486,-0.3361 -0.4442,-0.3287 -0.4397,-0.3214 -0.4351,-0.3143 -0.4305,-0.307 -0.4257,-0.3 -0.421,-0.293 -0.4161,-0.286 -0.4112,-0.2791 -0.4061,-0.2723 -0.4012,-0.2655 -0.396,-0.2589 -0.3908,-0.2522 -0.3856,-0.2456 -0.3803,-0.2392 -0.3749,-0.2328 -0.3695,-0.2265 -0.364,-0.2201 -0.3584,-0.214 -0.3528,-0.2079 -0.3472,-0.2017 -0.3414,-0.1959 -0.3356,-0.1899 -0.3298,-0.1841 -0.3239,-0.1783 -0.3179,-0.1726 -0.3119,-0.1671 -0.3059,-0.1615 -0.2997,-0.156 -0.2936,-0.1507 -0.2873,-0.1454 -0.2811,-0.1401 -0.2531,-0.9952 1.2289,-5.4676 0.6546,-0.7911 0.314,-0.0064 0.322,-0.0085 0.3298,-0.0105 0.3377,-0.0128 0.3455,-0.0151 0.3534,-0.0175 0.3612,-0.02 0.3691,-0.0225 0.3768,-0.0253 0.3846,-0.028 0.3924,-0.0309 0.4001,-0.0338 0.4079,-0.0369 0.4155,-0.04 0.4232,-0.0433 0.4308,-0.0465 0.4385,-0.05 0.446,-0.0534 0.4536,-0.0571 0.4612,-0.0607 0.4687,-0.0645 0.4762,-0.0683 0.4836,-0.0723 0.4911,-0.0763 0.4984,-0.0805 0.5059,-0.0846 0.5131,-0.089 0.5205,-0.0933 0.5277,-0.0978 0.5349,-0.1024 0.5422,-0.107 0.5493,-0.1118 0.5564,-0.1166 0.5636,-0.1215 0.5705,-0.1265 0.5776,-0.1315 0.5845,-0.1368 0.5915,-0.142 0.5984,-0.1473 0.3946,-0.1912 1.0336,-6.0675 -0.3091,-0.3111 -0.5158,-0.3371 -0.5111,-0.3299 -0.5062,-0.3226 -0.5015,-0.3153 -0.4965,-0.3083 -0.4915,-0.3012 -0.4864,-0.2943 -0.4814,-0.2873 -0.4761,-0.2805 -0.4709,-0.2737 -0.4656,-0.2671 -0.4601,-0.2604 -0.4548,-0.2538 -0.4493,-0.2474 -0.4437,-0.2409 -0.4381,-0.2346 -0.4324,-0.2283 -0.4267,-0.2222 -0.4209,-0.216 -0.415,-0.21 -0.4092,-0.204 -0.4032,-0.1981 -0.3972,-0.1924 -0.3911,-0.1865 -0.385,-0.181 -0.3788,-0.1753 -0.3727,-0.1698 -0.3663,-0.1644 -0.36,-0.1591 -0.3537,-0.1538 -0.3472,-0.1486 -0.3407,-0.1435 -0.3343,-0.1384 -0.3276,-0.1336 -0.3211,-0.1286 -0.3144,-0.1239 -0.3077,-0.1191 -0.301,-0.1146 -0.2942,-0.11 -0.3557,-0.9633 0.6506,-5.566 0.5684,-0.8553 0.3116,-0.0392 0.3193,-0.042 0.3269,-0.045 0.3345,-0.048 0.3421,-0.0511 0.3496,-0.0543 0.3572,-0.0577 0.3646,-0.061 0.3722,-0.0645 0.3796,-0.0681 0.387,-0.0717 0.3943,-0.0755 0.4018,-0.0793 0.409,-0.0832 0.4164,-0.0873 0.4236,-0.0913 0.4308,-0.0955 0.4381,-0.0998 0.4451,-0.1042 0.4523,-0.1085 0.4594,-0.1132 0.4664,-0.1177 0.4735,-0.1224 0.4804,-0.1273 0.4873,-0.1321 0.4942,-0.137 0.501,-0.1421 0.5079,-0.1473 0.5146,-0.1524 0.5213,-0.1577 0.528,-0.1631 0.5346,-0.1686 0.5412,-0.1741 0.5478,-0.1798 0.5542,-0.1854 0.5606,-0.1912 0.5671,-0.1971 0.5734,-0.2031 0.5796,-0.2091 0.3725,-0.2314 0.3938,-6.1422 -0.3399,-0.2771 -0.5483,-0.2814 -0.5427,-0.2746 -0.5373,-0.2679 -0.5316,-0.2612 -0.526,-0.2547 -0.5203,-0.2482 -0.5146,-0.2418 -0.5087,-0.2355 -0.5028,-0.2292 -0.497,-0.223 -0.4909,-0.2169 -0.4849,-0.2108 -0.4788,-0.2049 -0.4726,-0.1991 -0.4665,-0.1932 -0.4602,-0.1875 -0.454,-0.1819 L 248.6582,9.0883 248.217,8.9175 247.7823,8.752 247.354,8.5919 246.9323,8.437 246.5172,8.2873 246.1087,8.1426 245.7069,8.0029 245.3118,7.8681 244.9235,7.7382 244.542,7.613 l -0.3747,-0.1206 -0.3678,-0.116 -0.3608,-0.1115 -0.3539,-0.107 -0.3469,-0.1028 -0.3398,-0.0985 -0.3328,-0.0944 -0.3256,-0.0904 -0.3185,-0.0863 -0.3113,-0.0825 -0.304,-0.0786 -0.4545,-0.9208 z"
     id="gearpoly1" /><g
     class="guides"
     id="g5"><polyline
       fill="none"
       stroke="#444"
       stroke-width="0.5"
       stroke-miterlimit="10"
       points="10,0 -10,0"
       id="polyline7" /><polyline
       fill="none"
       stroke="#444"
       stroke-width="0.5"
       stroke-miterlimit="10"
       points="0,10 0,-10"
       id="polyline9" /></g><circle
     fill="#c00"
     class="firstmarker"
     stroke="none"
     stroke-miterlimit="10"
     cx="249.7929"
     cy="-10.1734"
     r="3.2708"
     id="circle11" /><g
     class="geartext"
     id="g13"><g
       class="text"
       id="g15"><polyline
         fill="none"
         stroke="#444"
         stroke-width="0.5"
         stroke-linecap="square"
         stroke-miterlimit="1"
         points="200.38 -103.25 199.69 -104.58 198.99 -105.91 198.28 -107.23 197.56 -108.55 "
         id="polyline17" /><polyline
         fill="none"
         stroke="#444"
         stroke-width="0.5"
         stroke-linecap="square"
         stroke-miterlimit="1"
         points="196.34 -104.5 201.64 -107.32 "
         id="polyline19" /><polyline
         fill="none"
         stroke="#444"
         stroke-width="0.5"
         stroke-linecap="square"
         stroke-miterlimit="1"
         points="203.05 -104.62 201.02 -105.28 198.99 -105.91 196.96 -106.51 194.93 -107.1 "
         id="polyline21" /><polyline
         fill="none"
         stroke="#444"
         stroke-width="0.5"
         stroke-linecap="square"
         stroke-miterlimit="1"
         points="197.71 -101.88 198.36 -103.88 198.99 -105.91 199.6 -107.94 200.19 -109.99 "
         id="polyline23" /><polyline
         fill="none"
         stroke="#444"
         stroke-width="0.5"
         stroke-linecap="square"
         stroke-miterlimit="1"
         points="204.42 -101.91 206.44 -101.21 198.36 -97.25 "
         id="polyline25" /><polyline
         fill="none"
         stroke="#444"
         stroke-width="0.5"
         stroke-linecap="square"
         stroke-miterlimit="1"
         points="199 -95.93 198.36 -97.25 197.71 -98.57 "
         id="polyline27" /><polyline
         fill="none"
         stroke="#444"
         stroke-width="0.5"
         stroke-linecap="square"
         stroke-miterlimit="1"
         points="213.86 -84.42 205.49 -81.12 207.03 -83.32 208.55 -85.55 210.05 -87.8 211.53 -90.08 203.25 -86.56 "
         id="polyline29" /><polyline
         fill="none"
         stroke="#444"
         stroke-width="0.5"
         stroke-linecap="square"
         stroke-miterlimit="1"
         points="214.22 -74.83 213.72 -76.25 213.21 -77.67 212.69 -79.09 212.16 -80.5 "
         id="polyline31" /><polyline
         fill="none"
         stroke="#444"
         stroke-width="0.5"
         stroke-linecap="square"
         stroke-miterlimit="1"
         points="211.39 -73.84 210.9 -75.24 210.39 -76.64 209.88 -78.04 209.35 -79.44 "
         id="polyline33" /><polyline
         fill="none"
         stroke="#444"
         stroke-width="0.5"
         stroke-linecap="square"
         stroke-miterlimit="1"
         points="213.78 -71.49 214.25 -70.07 214.71 -68.64 215.16 -67.21 214.17 -65.34 212.74 -64.9 210.87 -65.87 210.42 -67.27 209.97 -68.67 210.93 -70.54 215.2 -71.97 217.1 -71 219 -70.01 219.46 -68.55 "
         id="polyline35" /><polyline
         fill="none"
         stroke="#444"
         stroke-width="0.5"
         stroke-linecap="square"
         stroke-miterlimit="1"
         points="214.78 -57.79 212.94 -58.82 212.55 -60.23 213.58 -62.07 219.34 -63.74 221.21 -62.69 221.62 -61.22 220.57 -59.35 214.78 -57.79 "
         id="polyline37" /><polyline
         fill="none"
         stroke="#444"
         stroke-width="0.5"
         stroke-linecap="square"
         stroke-miterlimit="1"
         points="220.17 -48.37 220.48 -46.9 220.79 -45.44 221.09 -43.97 222.85 -42.78 224.32 -43.06 225.5 -44.84 225.2 -46.34 224.88 -47.84 224.56 -49.34 215.77 -47.41 "
         id="polyline39" /><polyline
         fill="none"
         stroke="#444"
         stroke-width="0.5"
         stroke-linecap="square"
         stroke-miterlimit="1"
         points="217.49 -38.75 223.4 -39.81 "
         id="polyline41" /><polyline
         fill="none"
         stroke="#444"
         stroke-width="0.5"
         stroke-linecap="square"
         stroke-miterlimit="1"
         points="224.87 -40.07 226.35 -40.33 "
         id="polyline43" /><polyline
         fill="none"
         stroke="#444"
         stroke-width="0.5"
         stroke-linecap="square"
         stroke-miterlimit="1"
         points="220.35 -30.25 218.66 -31.5 219.93 -33.18 227.34 -34.3 "
         id="polyline45" /><polyline
         fill="none"
         stroke="#444"
         stroke-width="0.5"
         stroke-linecap="square"
         stroke-miterlimit="1"
         points="224.81 -30.86 224.6 -32.35 224.38 -33.85 224.15 -35.34 223.91 -36.83 "
         id="polyline47" /><polyline
         fill="none"
         stroke="#444"
         stroke-width="0.5"
         stroke-linecap="square"
         stroke-miterlimit="1"
         points="219.89 -21.28 219.74 -22.75 219.59 -24.21 219.42 -25.67 220.73 -27.31 223.71 -27.68 225.38 -26.36 225.55 -24.86 225.71 -23.36 225.86 -21.86 "
         id="polyline49" /><polyline
         fill="none"
         stroke="#444"
         stroke-width="0.5"
         stroke-linecap="square"
         stroke-miterlimit="1"
         points="223.14 -18.6 224.76 -17.23 226.36 -15.84 226.46 -14.34 225.06 -12.74 220.56 -12.49 "
         id="polyline51" /><polyline
         fill="none"
         stroke="#444"
         stroke-width="0.5"
         stroke-linecap="square"
         stroke-miterlimit="1"
         points="220.15 -18.35 229.12 -19.1 "
         id="polyline53" /><polyline
         fill="none"
         stroke="#444"
         stroke-width="0.5"
         stroke-linecap="square"
         stroke-miterlimit="1"
         points="220.91 -2.21 220.92 -0.74 220.92 0.74 220.91 2.21 222.39 3.7 228.39 3.8 229.91 2.29 229.92 0.76 229.92 -0.76 229.91 -2.29 "
         id="polyline55" /><polyline
         fill="none"
         stroke="#444"
         stroke-width="0.5"
         stroke-linecap="square"
         stroke-miterlimit="1"
         points="229.92 -0.76 220.92 -0.74 "
         id="polyline57" /><polyline
         fill="none"
         stroke="#444"
         stroke-width="0.5"
         stroke-linecap="square"
         stroke-miterlimit="1"
         points="226.55 12.83 226.63 11.32 226.7 9.81 226.76 8.3 226.81 6.79 "
         id="polyline59" /><polyline
         fill="none"
         stroke="#444"
         stroke-width="0.5"
         stroke-linecap="square"
         stroke-miterlimit="1"
         points="223.56 12.66 223.64 11.17 223.71 9.68 223.77 8.19 223.82 6.7 "
         id="polyline61" /><polyline
         fill="none"
         stroke="#444"
         stroke-width="0.5"
         stroke-linecap="square"
         stroke-miterlimit="1"
         points="227.86 15.95 229.24 17.58 220.27 16.89 "
         id="polyline63" /><polyline
         fill="none"
         stroke="#444"
         stroke-width="0.5"
         stroke-linecap="square"
         stroke-miterlimit="1"
         points="220.15 18.35 220.27 16.89 220.38 15.42 "
         id="polyline65" /><polyline
         fill="none"
         stroke="#444"
         stroke-width="0.5"
         stroke-linecap="square"
         stroke-miterlimit="1"
         points="220.91 25.84 219.59 24.21 219.74 22.75 221.38 21.43 227.35 22.01 228.69 23.67 228.53 25.19 226.87 26.54 220.91 25.84 "
         id="polyline67" /><polyline
         fill="none"
         stroke="#444"
         stroke-width="0.5"
         stroke-linecap="square"
         stroke-miterlimit="1"
         points="222.43 36.59 222.18 38.07 221.92 39.54 221.65 41.02 222.85 42.78 224.32 43.06 226.08 41.84 226.35 40.33 226.61 38.83 226.87 37.32 217.99 35.86 "
         id="polyline69" /><polyline
         fill="none"
         stroke="#444"
         stroke-width="0.5"
         stroke-linecap="square"
         stroke-miterlimit="1"
         points="220.96 51.64 221.3 50.17 221.63 48.69 221.95 47.22 222.26 45.74 "
         id="polyline71" /><polyline
         fill="none"
         stroke="#444"
         stroke-width="0.5"
         stroke-linecap="square"
         stroke-miterlimit="1"
         points="218.04 50.96 218.38 49.5 218.7 48.05 219.02 46.59 219.32 45.13 "
         id="polyline73" /><polyline
         fill="none"
         stroke="#444"
         stroke-width="0.5"
         stroke-linecap="square"
         stroke-miterlimit="1"
         points="218.8 54.21 218.43 55.67 218.06 57.12 217.67 58.57 215.83 59.62 214.39 59.22 213.33 57.4 213.71 55.98 214.07 54.56 215.89 53.49 220.26 54.57 221.34 56.41 222.41 58.26 222.02 59.74 "
         id="polyline75" /><polyline
         fill="none"
         stroke="#444"
         stroke-width="0.5"
         stroke-linecap="square"
         stroke-miterlimit="1"
         points="214.25 70.07 213.78 71.49 213.3 72.91 212.81 74.33 213.72 76.25 215.13 76.75 217.06 75.82 217.56 74.37 218.05 72.92 218.53 71.47 209.97 68.67 "
         id="polyline77" /><polyline
         fill="none"
         stroke="#444"
         stroke-width="0.5"
         stroke-linecap="square"
         stroke-miterlimit="1"
         points="207.06 77 209.88 78.04 212.16 80.5 214.41 82.99 211.07 83.32 207.72 83.6 204.94 82.48 "
         id="polyline79" /><polyline
         fill="none"
         stroke="#444"
         stroke-width="0.5"
         stroke-linecap="square"
         stroke-miterlimit="1"
         points="209.88 78.04 209.35 79.44 208.82 80.83 208.28 82.22 207.72 83.6 "
         id="polyline81" /><polyline
         fill="none"
         stroke="#444"
         stroke-width="0.5"
         stroke-linecap="square"
         stroke-miterlimit="1"
         points="206.96 93.06 207.57 91.68 208.18 90.29 208.77 88.91 209.36 87.51 "
         id="polyline83" /><polyline
         fill="none"
         stroke="#444"
         stroke-width="0.5"
         stroke-linecap="square"
         stroke-miterlimit="1"
         points="204.22 91.83 204.83 90.46 205.43 89.1 206.01 87.73 206.59 86.36 "
         id="polyline85" /><polyline
         fill="none"
         stroke="#444"
         stroke-width="0.5"
         stroke-linecap="square"
         stroke-miterlimit="1"
         points="197.71 98.57 198.36 97.25 199 95.93 199.64 94.6 200.26 93.27 202.98 94.54 203.7 96.53 203.06 97.88 202.4 99.23 203.08 101.24 204.42 101.91 206.44 101.21 207.11 99.83 207.77 98.45 207.06 96.44 "
         id="polyline87" /><polyline
         fill="none"
         stroke="#444"
         stroke-width="0.5"
         stroke-linecap="square"
         stroke-miterlimit="1"
         points="195.64 105.8 195.02 103.79 195.7 102.49 197.71 101.88 203.05 104.62 203.68 106.67 202.96 108.02 200.92 108.66 195.64 105.8 "
         id="polyline89" /></g></g><path
     style="opacity:0.2;fill:none;stroke:#ff0000;stroke-miterlimit:10"
     d="M 250,0 C 250,138.07119 138.07119,250 0,250 -138.07119,250 -250,138.07119 -250,0 c 0,-138.07119 111.92881,-250 250,-250 138.07119,0 250,111.92881 250,250 z"
     id="circle93" /><circle
     style="opacity:0.2;fill:none;stroke:#0000ff;stroke-miterlimit:10;stroke-dasharray:2, 2"
     sodipodi:ry="234.92"
     sodipodi:rx="234.92"
     sodipodi:cy="0"
     sodipodi:cx="0"
     id="circle97"
     r="234.92"
     cy="0"
     cx="0"
     stroke-miterlimit="10"
     class="base" /></svg>