<?xml version="1.0" encoding="UTF-8" standalone="no"?>
<!-- Generator: Iparigrafika Gear Generator by Abel Vincze http://geargenerator.com/ -->

<svg
   xmlns:dc="http://purl.org/dc/elements/1.1/"
   xmlns:cc="http://creativecommons.org/ns#"
   xmlns:rdf="http://www.w3.org/1999/02/22-rdf-syntax-ns#"
   xmlns:svg="http://www.w3.org/2000/svg"
   xmlns="http://www.w3.org/2000/svg"
   xmlns:sodipodi="http://sodipodi.sourceforge.net/DTD/sodipodi-0.dtd"
   xmlns:inkscape="http://www.inkscape.org/namespaces/inkscape"
   version="1.2"
   class="svggear"
   x="0px"
   y="0px"
   width="1100px"
   height="1100px"
   viewBox="-550 -550 1100 1100"
   overflow="scroll"
   xml:space="preserve"
   id="svg2"
   inkscape:version="0.48.4 r9939"
   sodipodi:docname="64.svg"><metadata
     id="metadata109"><rdf:RDF><cc:Work
         rdf:about=""><dc:format>image/svg+xml</dc:format><dc:type
           rdf:resource="http://purl.org/dc/dcmitype/StillImage" /></cc:Work></rdf:RDF></metadata><defs
     id="defs107" /><sodipodi:namedview
     pagecolor="#ffffff"
     bordercolor="#666666"
     borderopacity="1"
     objecttolerance="10"
     gridtolerance="10"
     guidetolerance="10"
     inkscape:pageopacity="0"
     inkscape:pageshadow="2"
     inkscape:window-width="960"
     inkscape:window-height="1014"
     id="namedview105"
     showgrid="false"
     inkscape:zoom="0.60682618"
     inkscape:cx="553.80936"
     inkscape:cy="572.40004"
     inkscape:window-x="1600"
     inkscape:window-y="27"
     inkscape:window-maximized="0"
     inkscape:current-layer="svg2" /><path
     style="fill:#dddddd;stroke:#444444;stroke-width:1;stroke-miterlimit:10"
     d="m 514.1667,0 1.7413,-2.4226 0.6548,-0.1652 0.6684,-0.1725 0.6819,-0.1799 0.6952,-0.1875 0.7086,-0.1953 0.7218,-0.2031 0.7351,-0.2113 0.7482,-0.2194 0.7613,-0.2277 0.7743,-0.2363 0.7872,-0.2449 0.8001,-0.2538 0.8129,-0.2626 0.8256,-0.2718 0.8383,-0.2809 0.8508,-0.2904 0.8633,-0.2999 0.8757,-0.3096 0.888,-0.3194 0.9003,-0.3293 0.9124,-0.3395 0.9245,-0.3497 0.9365,-0.3601 0.9485,-0.3706 0.9602,-0.3813 0.972,-0.3921 0.9836,-0.403 0.9952,-0.4141 1.0066,-0.4254 1.018,-0.4367 1.0292,-0.4482 1.0405,-0.4599 1.0515,-0.4716 1.0625,-0.4835 1.0734,-0.4955 1.0842,-0.5078 1.0948,-0.52 1.1054,-0.5325 0.0802,-0.5156 -0.4492,-11.5523 -0.1199,-0.5078 -1.1434,-0.4451 -1.132,-0.4334 -1.1203,-0.422 -1.1086,-0.4107 -1.0968,-0.3996 -1.085,-0.3885 -1.073,-0.3777 -1.061,-0.367 -1.0488,-0.3563 -1.0366,-0.3459 -1.0243,-0.3356 -1.012,-0.3255 -0.9994,-0.3154 -0.987,-0.3056 -0.9743,-0.2959 -0.9617,-0.2863 -0.9488,-0.2768 -0.9361,-0.2676 -0.9231,-0.2585 -0.9102,-0.2494 -0.8971,-0.2407 -0.8839,-0.232 -0.8708,-0.2234 -0.8575,-0.215 -0.8442,-0.2069 -0.8309,-0.1987 -0.8173,-0.1909 -0.8039,-0.183 -0.7903,-0.1755 -0.7767,-0.1679 -0.763,-0.1607 -0.7492,-0.1535 -0.7355,-0.1465 -0.7216,-0.1397 -0.7077,-0.1329 -0.6938,-0.1265 -0.6797,-0.12 -0.6657,-0.1139 -1.9242,-2.2801 -0.9237,-10.4759 1.4955,-2.5817 0.6355,-0.2285 0.6483,-0.2372 0.6609,-0.2459 0.6735,-0.2547 0.686,-0.2638 0.6985,-0.273 0.7108,-0.2822 0.7231,-0.2917 0.7353,-0.3013 0.7474,-0.311 0.7595,-0.3209 0.7713,-0.331 0.7833,-0.341 0.795,-0.3514 0.8066,-0.3618 0.8183,-0.3724 0.8297,-0.383 0.8411,-0.3939 0.8525,-0.4049 0.8637,-0.416 0.8747,-0.4273 0.8858,-0.4386 0.8967,-0.4502 0.9075,-0.4618 0.9183,-0.4735 0.9289,-0.4855 0.9393,-0.4975 0.9498,-0.5097 0.9601,-0.522 0.9703,-0.5344 0.9804,-0.5469 0.9903,-0.5596 1.0003,-0.5724 1.0099,-0.5854 1.0197,-0.5983 1.0292,-0.6116 1.0386,-0.6248 1.0479,-0.6383 0.0292,-0.521 -1.5793,-11.4526 -0.1691,-0.4937 -1.1816,-0.3308 -1.1689,-0.3204 -1.1563,-0.3102 -1.1436,-0.3 -1.1307,-0.2902 -1.1178,-0.2803 -1.1049,-0.2707 -1.0918,-0.2612 -1.0787,-0.2518 -1.0655,-0.2426 -1.0523,-0.2336 -1.039,-0.2247 -1.0256,-0.216 -1.0121,-0.2074 -0.9986,-0.1989 -0.9851,-0.1906 -0.9715,-0.1826 -0.9577,-0.1745 -0.944,-0.1667 -0.9303,-0.1591 -0.9163,-0.1516 -0.9025,-0.1442 -0.8885,-0.137 -0.8744,-0.13 -0.8605,-0.123 -0.8463,-0.1164 -0.8321,-0.1098 -0.8179,-0.1034 -0.8037,-0.0971 -0.7894,-0.091 -0.7751,-0.0851 -0.7607,-0.0794 -0.7463,-0.0737 -0.7318,-0.0683 -0.7173,-0.0629 -0.7028,-0.0578 -0.6883,-0.0529 -0.6736,-0.048 -2.1384,-2.0806 -1.9461,-10.3349 1.2352,-2.7158 0.6101,-0.2898 0.6219,-0.2995 0.6336,-0.3095 0.6453,-0.3196 0.6569,-0.3297 0.6683,-0.3401 0.6798,-0.3506 0.691,-0.3611 0.7022,-0.372 0.7133,-0.3827 0.7244,-0.3938 0.7352,-0.405 0.746,-0.4162 0.7567,-0.4276 0.7674,-0.4391 0.7778,-0.4508 0.7882,-0.4625 0.7984,-0.4745 0.8087,-0.4865 0.8187,-0.4986 0.8287,-0.511 0.8385,-0.5233 0.8483,-0.5359 0.8579,-0.5485 0.8674,-0.5613 0.8768,-0.5742 0.8861,-0.5872 0.8952,-0.6003 0.9044,-0.6136 0.9132,-0.6269 0.922,-0.6404 0.9308,-0.654 0.9393,-0.6677 0.9477,-0.6815 0.9561,-0.6954 0.9643,-0.7095 0.9724,-0.7236 0.9803,-0.7379 -0.022,-0.5214 -2.6943,-11.2426 -0.2167,-0.4748 -1.2083,-0.2134 -1.1947,-0.2043 -1.1811,-0.1953 -1.1675,-0.1865 -1.1537,-0.1779 -1.1399,-0.1695 -1.1261,-0.1611 -1.1121,-0.1529 -1.0982,-0.1449 -1.0842,-0.137 -1.0701,-0.1293 -1.056,-0.1218 -1.0418,-0.1144 -1.0276,-0.1072 -1.0134,-0.1 -0.999,-0.0932 -0.9846,-0.0864 -0.9703,-0.0799 -0.9558,-0.0734 -0.9413,-0.0671 -0.9268,-0.061 -0.9123,-0.0551 -0.8976,-0.0492 -0.883,-0.0436 -0.8684,-0.0382 -0.8536,-0.0329 -0.8389,-0.0277 -0.8241,-0.0227 -0.8094,-0.0179 -0.7945,-0.0132 -0.7797,-0.009 -0.7648,-0.004 -0.7499,-2e-4 -0.735,0.004 -0.72,0.008 -0.7051,0.0114 -0.6901,0.0148 -0.6751,0.0183 -2.332,-1.8609 -2.9498,-10.0945 0.9631,-2.8238 0.5787,-0.3481 0.5895,-0.3591 0.6003,-0.3701 0.6109,-0.3813 0.6214,-0.3925 0.6318,-0.404 0.6421,-0.4155 0.6523,-0.4272 0.6624,-0.4389 0.6723,-0.4509 0.6823,-0.4629 0.692,-0.475 0.7016,-0.4873 0.7112,-0.4997 0.7205,-0.5123 0.7299,-0.5248 0.7391,-0.5376 0.7481,-0.5504 0.7571,-0.5634 0.7659,-0.5765 0.7746,-0.5897 0.7832,-0.6031 0.7917,-0.6164 0.8,-0.63 0.8082,-0.6436 0.8163,-0.6573 0.8242,-0.6713 0.8321,-0.6851 0.8399,-0.6993 0.8473,-0.7134 0.8549,-0.7277 0.8621,-0.7421 0.8694,-0.7565 0.8764,-0.7711 0.8833,-0.7858 0.8901,-0.8006 0.8967,-0.8155 0.9033,-0.8304 -0.073,-0.5167 -3.7832,-10.9244 -0.2622,-0.4512 -1.2234,-0.094 -1.209,-0.0862 -1.1946,-0.0786 -1.1801,-0.0712 -1.1656,-0.064 -1.1511,-0.0568 -1.1364,-0.05 -1.1218,-0.0431 -1.1071,-0.0366 -1.0924,-0.0301 -1.0776,-0.0238 -1.0629,-0.0177 -1.048,-0.0117 -1.0331,-0.006 -1.0183,-2e-4 -1.0033,0.005 -0.9884,0.0105 -0.9734,0.0157 -0.9584,0.0206 -0.9434,0.0255 -0.9283,0.0301 -0.9133,0.0347 -0.8981,0.0389 -0.8831,0.0432 -0.8678,0.0471 -0.8528,0.051 -0.8376,0.0546 -0.8224,0.0582 -0.8072,0.0615 -0.792,0.0648 -0.7767,0.0677 -0.7616,0.0706 -0.7463,0.0733 -0.7311,0.0758 -0.7158,0.0782 -0.7006,0.0804 -0.6853,0.0824 -0.6701,0.0843 -2.5032,-1.6233 -3.9249,-9.7568 0.6816,-2.9045 0.5418,-0.4032 0.5515,-0.4152 0.5611,-0.4271 0.5706,-0.4393 0.5799,-0.4516 0.5892,-0.4639 0.5982,-0.4765 0.6073,-0.489 0.6162,-0.5018 0.6249,-0.5146 0.6336,-0.5275 0.6421,-0.5406 0.6505,-0.5537 0.6588,-0.5671 0.6669,-0.5803 0.6749,-0.5939 0.6828,-0.6074 0.6906,-0.6212 0.6982,-0.6349 0.7057,-0.6488 0.7131,-0.6628 0.7203,-0.6768 0.7274,-0.6911 0.7344,-0.7053 0.7413,-0.7198 0.7479,-0.7342 0.7545,-0.7488 0.7609,-0.7634 0.7673,-0.7782 0.7734,-0.793 0.7793,-0.808 0.7853,-0.823 0.791,-0.8381 0.7966,-0.8533 0.802,-0.8686 0.8074,-0.884 0.8125,-0.8994 0.8175,-0.915 -0.1233,-0.5071 -4.8358,-10.501 -0.3052,-0.4233 -1.2267,0.0264 -1.2116,0.0328 -1.1965,0.0388 -1.1814,0.0448 -1.1663,0.0506 -1.151,0.0562 -1.1359,0.0617 -1.1206,0.067 -1.1054,0.0721 -1.0901,0.0772 -1.0747,0.0819 -1.0595,0.0866 -1.0441,0.091 -1.0288,0.0954 -1.0134,0.0995 -0.998,0.1035 -0.9826,0.1073 -0.9672,0.111 -0.9517,0.1145 -0.9364,0.1178 -0.9209,0.121 -0.9054,0.124 -0.89,0.1268 -0.8746,0.1295 -0.8591,0.1319 -0.8436,0.1344 -0.8282,0.1365 -0.8127,0.1385 -0.7973,0.1403 -0.7818,0.142 -0.7664,0.1436 -0.751,0.1449 -0.7355,0.1461 -0.7202,0.1471 -0.7047,0.148 -0.6893,0.1487 -0.674,0.1492 -0.6585,0.1496 -2.6503,-1.3702 -4.8624,-9.3251 0.3937,-2.9574 0.4997,-0.4544 0.5081,-0.4671 0.5165,-0.4801 0.5248,-0.4931 0.5329,-0.5063 0.5408,-0.5194 0.5487,-0.5328 0.5565,-0.5462 0.564,-0.5598 0.5715,-0.5734 0.5788,-0.5871 0.586,-0.6009 0.5931,-0.6148 0.6,-0.6289 0.6068,-0.6429 0.6135,-0.6572 0.62,-0.6714 0.6263,-0.6858 0.6326,-0.7003 0.6388,-0.7149 0.6446,-0.7295 0.6506,-0.7442 0.6561,-0.759 0.6618,-0.774 0.6671,-0.7889 0.6724,-0.804 0.6774,-0.8191 0.6825,-0.8343 0.6872,-0.8497 0.692,-0.865 0.6964,-0.8805 0.7008,-0.896 0.7051,-0.9116 0.7091,-0.9273 0.713,-0.943 0.7168,-0.9589 0.7205,-0.9747 0.7239,-0.9907 -0.1724,-0.4925 -5.8418,-9.9765 -0.3452,-0.3913 -1.2182,0.1465 -1.2026,0.1513 -1.187,0.156 -1.1713,0.1603 -1.1557,0.1647 -1.14,0.1688 -1.1243,0.1727 -1.1087,0.1765 -1.093,0.1802 -1.0772,0.1835 -1.0616,0.1869 -1.0459,0.19 -1.0302,0.193 -1.0144,0.1957 -0.9988,0.1984 -0.983,0.2008 -0.9674,0.2032 -0.9516,0.2052 -0.936,0.2072 -0.9203,0.2091 -0.9046,0.2106 -0.8889,0.2121 -0.8733,0.2135 -0.8576,0.2145 -0.8421,0.2156 -0.8264,0.2164 -0.8108,0.217 -0.7952,0.2175 -0.7797,0.2178 -0.7642,0.218 -0.7486,0.218 -0.7332,0.2178 -0.7176,0.2175 -0.7023,0.2169 -0.6868,0.2164 -0.6714,0.2155 -0.6561,0.2146 -0.6408,0.2134 -2.7718,-1.1038 -5.7529,-8.8036 0.1019,-2.9818 0.4527,-0.5011 0.4599,-0.5147 0.467,-0.5285 0.4739,-0.5421 0.4807,-0.556 0.4873,-0.57 0.4938,-0.584 0.5003,-0.5982 0.5064,-0.6123 0.5125,-0.6266 0.5185,-0.641 0.5243,-0.6555 0.53,-0.67 0.5355,-0.6846 0.5408,-0.6994 0.5461,-0.7141 0.5512,-0.729 0.5562,-0.7439 0.5609,-0.7589 0.5656,-0.774 0.57,-0.7892 0.5745,-0.8044 0.5786,-0.8197 0.5827,-0.835 0.5865,-0.8505 0.5904,-0.8661 0.5939,-0.8815 0.5974,-0.8973 0.6006,-0.9129 0.6038,-0.9287 0.6068,-0.9445 0.6097,-0.9604 0.6122,-0.9763 0.6149,-0.9923 0.6171,-1.0084 0.6194,-1.0245 0.6214,-1.0406 0.6233,-1.0569 -0.2198,-0.4733 -6.7915,-9.3558 -0.3819,-0.3556 -1.198,0.2652 -1.182,0.2685 -1.1659,0.2715 -1.15,0.2744 -1.134,0.2772 -1.118,0.2797 -1.102,0.2821 -1.086,0.2843 -1.07,0.2864 -1.0541,0.2883 -1.0382,0.29 -1.0222,0.2916 -1.0063,0.293 -0.9903,0.2943 -0.9745,0.2953 -0.9587,0.2962 -0.9428,0.297 -0.9269,0.2975 -0.9111,0.298 -0.8954,0.2982 -0.8796,0.2983 -0.8639,0.2982 -0.8481,0.298 -0.8325,0.2976 -0.8169,0.2971 -0.8012,0.2963 -0.7856,0.2955 -0.7701,0.2944 -0.7546,0.2932 -0.7391,0.2918 -0.7237,0.2903 -0.7082,0.2886 -0.693,0.2868 -0.6775,0.2848 -0.6623,0.2826 -0.6471,0.2803 -0.6319,0.2778 -0.6168,0.2752 -2.8666,-0.8268 -6.5882,-8.1973 -0.1908,-2.9774 0.4014,-0.5431 0.4072,-0.5573 0.413,-0.5717 0.4184,-0.586 0.4239,-0.6004 0.4291,-0.615 0.4343,-0.6296 0.4391,-0.6443 0.444,-0.659 0.4487,-0.6739 0.4531,-0.6887 0.4576,-0.7037 0.4617,-0.7187 0.4658,-0.7339 0.4697,-0.7489 0.4735,-0.7642 0.4771,-0.7795 0.4805,-0.7949 0.4838,-0.8102 0.487,-0.8258 0.49,-0.8412 0.4928,-0.8568 0.4955,-0.8725 0.498,-0.8882 0.5004,-0.9039 0.5026,-0.9197 0.5047,-0.9355 0.5065,-0.9515 0.5083,-0.9674 0.5099,-0.9834 0.5113,-0.9994 0.5125,-1.0155 0.5137,-1.0317 0.5146,-1.0478 0.5153,-1.064 0.516,-1.0803 0.5164,-1.0965 0.5168,-1.1129 -0.2652,-0.4494 -7.6759,-8.6451 -0.4149,-0.3165 -1.1662,0.3814 -1.15,0.383 -1.1337,0.3845 -1.1175,0.3858 -1.1014,0.387 -1.0852,0.3879 -1.069,0.3888 -1.0529,0.3894 -1.0368,0.3899 -1.0208,0.3902 -1.0047,0.3904 -0.9887,0.3904 -0.9727,0.3902 -0.9568,0.3899 -0.9409,0.3894 -0.925,0.3888 -0.9091,0.3879 -0.8933,0.387 -0.8776,0.3858 -0.8618,0.3846 -0.8461,0.3831 -0.8305,0.3814 -0.8149,0.3797 -0.7993,0.3778 -0.7838,0.3757 -0.7683,0.3734 -0.7529,0.3711 -0.7375,0.3684 -0.7222,0.3658 -0.707,0.3628 -0.6917,0.3599 -0.6766,0.3566 -0.6614,0.3533 -0.6464,0.3499 -0.6314,0.3461 -0.6165,0.3424 -0.6016,0.3384 -0.5869,0.3344 -2.9338,-0.5419 -7.36,-7.512 -0.4817,-2.9444 0.3462,-0.5798 0.3507,-0.5946 0.3549,-0.6094 0.359,-0.6242 0.363,-0.6391 0.3668,-0.6541 0.3704,-0.6691 0.3739,-0.6842 0.3773,-0.6994 0.3804,-0.7146 0.3835,-0.7298 0.3863,-0.7452 0.3891,-0.7605 0.3916,-0.7759 0.3941,-0.7915 0.3962,-0.8069 0.3984,-0.8225 0.4003,-0.8381 0.4021,-0.8538 0.4037,-0.8695 0.4052,-0.8852 0.4064,-0.901 0.4076,-0.9168 0.4086,-0.9327 0.4094,-0.9486 0.41,-0.9646 0.4106,-0.9805 0.4108,-0.9965 0.411,-1.0126 0.4111,-1.0286 0.4108,-1.0447 0.4106,-1.0609 0.41,-1.077 0.4094,-1.0932 0.4086,-1.1094 0.4076,-1.1257 0.4065,-1.1419 0.4051,-1.1581 -0.3079,-0.4213 -8.4863,-7.8511 -0.4439,-0.2743 -1.1232,0.4939 -1.1069,0.4939 -1.0906,0.4937 -1.0743,0.4935 -1.0581,0.4931 -1.042,0.4924 -1.0258,0.4917 -1.0096,0.4907 -0.9937,0.4897 -0.9775,0.4884 -0.9617,0.487 -0.9456,0.4854 -0.9298,0.4837 -0.914,0.4818 -0.8981,0.4797 -0.8825,0.4776 -0.8667,0.4752 -0.8511,0.4726 -0.8355,0.47 -0.82,0.4672 -0.8045,0.4642 -0.7891,0.461 -0.7737,0.4578 -0.7584,0.4542 -0.7432,0.4507 -0.728,0.447 -0.7129,0.443 -0.6979,0.439 -0.6829,0.4348 -0.668,0.4304 -0.6531,0.4259 -0.6383,0.4213 -0.6237,0.4164 -0.609,0.4115 -0.5944,0.4064 -0.58,0.4012 -0.5655,0.3957 -0.5513,0.3902 -2.9728,-0.2516 -8.0608,-6.7545 -0.768,-2.883 0.2877,-0.611 0.2907,-0.626 0.2935,-0.6412 0.2961,-0.6564 0.2986,-0.6716 0.3008,-0.6869 0.3031,-0.7023 0.305,-0.7175 0.3069,-0.733 0.3086,-0.7484 0.3101,-0.7639 0.3114,-0.7795 0.3127,-0.795 0.3137,-0.8106 0.3145,-0.8262 0.3153,-0.8419 0.3159,-0.8576 0.3162,-0.8733 0.3165,-0.8891 0.3165,-0.9048 0.3165,-0.9207 0.3161,-0.9365 0.3158,-0.9524 0.3152,-0.9682 0.3144,-0.9842 0.3136,-1.0001 0.3124,-1.016 0.3112,-1.032 0.3098,-1.048 0.3082,-1.064 0.3065,-1.0799 0.3046,-1.096 0.3025,-1.1121 0.3003,-1.128 0.2979,-1.1441 0.2953,-1.1602 0.2926,-1.1762 0.2896,-1.1923 -0.3477,-0.3891 -9.215,-6.9815 -0.4687,-0.2295 -1.0693,0.6016 -1.0532,0.6 -1.0369,0.5983 -1.0208,0.5964 -1.0047,0.5944 -0.9887,0.5922 -0.9726,0.5899 -0.9567,0.5873 -0.9409,0.5847 -0.925,0.5819 -0.9092,0.5789 -0.8936,0.5757 -0.8779,0.5725 -0.8623,0.5691 -0.8468,0.5655 -0.8314,0.5617 -0.816,0.5579 -0.8006,0.5538 -0.7855,0.5496 -0.7702,0.5453 -0.7551,0.5408 -0.7401,0.5361 -0.7252,0.5314 -0.7102,0.5265 -0.6955,0.5213 -0.6807,0.5162 -0.666,0.5108 -0.6515,0.5052 -0.637,0.4997 -0.6225,0.4938 -0.6083,0.4879 -0.5939,0.4817 -0.5799,0.4756 -0.5657,0.4692 -0.5518,0.4627 -0.5378,0.4561 -0.524,0.4493 -0.5103,0.4424 -2.9833,0.0409 -8.684,-5.9319 -1.0469,-2.7937 0.2265,-0.6363 0.2279,-0.6516 0.2292,-0.6668 0.2303,-0.6823 0.2314,-0.6977 0.2321,-0.713 0.2327,-0.7286 0.2333,-0.744 0.2335,-0.7595 0.2338,-0.7751 0.2337,-0.7906 0.2335,-0.8062 0.2333,-0.8218 0.2327,-0.8375 0.2321,-0.8531 0.2312,-0.8687 0.2303,-0.8844 0.2291,-0.9001 0.2278,-0.9158 0.2263,-0.9316 0.2247,-0.9472 0.2228,-0.963 0.2209,-0.9787 0.2188,-0.9945 0.2165,-1.0103 0.2139,-1.026 0.2114,-1.0417 0.2085,-1.0576 0.2056,-1.0733 0.2025,-1.089 0.1991,-1.1048 0.1957,-1.1206 0.1921,-1.1363 0.1883,-1.1521 0.1843,-1.1678 0.1801,-1.1835 0.1759,-1.1993 0.1714,-1.2149 -0.3842,-0.3531 -9.8549,-6.0447 -0.4889,-0.1824 -1.0053,0.7035 -0.9892,0.7003 -0.9733,0.6971 -0.9575,0.6936 -0.9415,0.69 -0.9259,0.6862 -0.9101,0.6824 -0.8946,0.6783 -0.879,0.6741 -0.8635,0.6697 -0.8481,0.6652 -0.8328,0.6606 -0.8176,0.6558 -0.8024,0.6508 -0.7873,0.6458 -0.7723,0.6405 -0.7574,0.6352 -0.7425,0.6296 -0.7278,0.624 -0.7131,0.6181 -0.6984,0.6122 -0.684,0.6062 -0.6696,0.5998 -0.6552,0.5936 -0.641,0.587 -0.6268,0.5804 -0.6128,0.5736 -0.5988,0.5667 -0.585,0.5596 -0.5711,0.5525 -0.5575,0.5451 -0.5439,0.5377 -0.5304,0.5301 -0.5171,0.5224 -0.5037,0.5146 -0.4906,0.5066 -0.4774,0.4985 -0.4645,0.4903 -2.9649,0.3331 -9.2236,-5.0521 -1.3157,-2.6777 0.163,-0.6554 0.163,-0.6708 0.1627,-0.6861 0.1624,-0.7016 0.1618,-0.7169 0.1611,-0.7324 0.1602,-0.7479 0.1592,-0.7633 0.158,-0.7787 0.1566,-0.7943 0.1551,-0.8097 0.1534,-0.8252 0.1516,-0.8408 0.1495,-0.8562 0.1473,-0.8717 0.145,-0.8872 0.1425,-0.9027 0.1398,-0.9183 0.1369,-0.9337 0.1339,-0.9492 0.1308,-0.9647 0.1274,-0.9802 0.1239,-0.9957 0.1202,-1.0112 0.1164,-1.0266 0.1124,-1.042 0.1082,-1.0575 0.1039,-1.0728 0.0994,-1.0883 0.0948,-1.1037 0.0899,-1.119 0.0849,-1.1343 0.0797,-1.1497 0.0745,-1.165 0.0689,-1.1802 0.0633,-1.1955 0.0575,-1.2107 0.0515,-1.2259 -0.417,-0.3138 -10.3999,-5.0496 -0.5044,-0.1336 -0.9315,0.7986 -0.9159,0.794 -0.9003,0.7891 -0.8848,0.7841 -0.8694,0.7789 -0.8541,0.7737 -0.8389,0.7683 -0.8238,0.7627 -0.8087,0.757 -0.7937,0.7512 -0.7788,0.7451 -0.7641,0.7391 -0.7493,0.7327 -0.7348,0.7264 -0.7202,0.7198 -0.7058,0.7131 -0.6915,0.7064 -0.6772,0.6993 -0.6631,0.6923 -0.649,0.6851 -0.6352,0.6777 -0.6212,0.6703 -0.6076,0.6626 -0.5939,0.6549 -0.5803,0.647 -0.567,0.6391 -0.5536,0.6309 -0.5404,0.6226 -0.5272,0.6143 -0.5143,0.6058 -0.5014,0.5972 -0.4885,0.5884 -0.4759,0.5795 -0.4634,0.5706 -0.4508,0.5614 -0.4386,0.5523 -0.4263,0.5429 -0.4142,0.5334 -2.9179,0.6221 -9.6744,-4.1237 -1.5719,-2.5358 0.098,-0.6682 0.0965,-0.6835 0.0947,-0.6988 0.0928,-0.7141 0.0907,-0.7294 0.0886,-0.7446 0.0861,-0.76 0.0837,-0.7752 0.0809,-0.7905 0.078,-0.8058 0.075,-0.821 0.0717,-0.8363 0.0685,-0.8515 0.0648,-0.8668 0.0612,-0.8819 0.0573,-0.8972 0.0533,-0.9124 0.0491,-0.9275 0.0448,-0.9426 0.0402,-0.9578 0.0356,-0.9729 0.0307,-0.988 0.0257,-1.003 0.0206,-1.018 0.0152,-1.0331 0.01,-1.048 0.004,-1.063 -0.002,-1.0779 -0.008,-1.0928 -0.0139,-1.1076 -0.0202,-1.1225 -0.0267,-1.1372 -0.0333,-1.1519 -0.0401,-1.1667 -0.0471,-1.1813 -0.0542,-1.1959 -0.0614,-1.2106 -0.0689,-1.225 -0.4457,-0.2714 -10.8448,-4.0059 -0.5151,-0.0835 -0.8487,0.8861 -0.8337,0.8799 -0.8186,0.8735 -0.8037,0.8671 -0.7889,0.8604 -0.7741,0.8537 -0.7596,0.8468 -0.745,0.8397 -0.7306,0.8327 -0.7163,0.8253 -0.702,0.8179 -0.688,0.8104 -0.6739,0.8027 -0.66,0.7948 -0.6462,0.787 -0.6325,0.7789 -0.6189,0.7707 -0.6054,0.7624 -0.5921,0.7539 -0.5788,0.7454 -0.5656,0.7367 -0.5526,0.7279 -0.5396,0.719 -0.5269,0.71 -0.5141,0.7008 -0.5016,0.6915 -0.4891,0.6821 -0.4768,0.6727 -0.4645,0.663 -0.4524,0.6532 -0.4404,0.6435 -0.4286,0.6334 -0.4168,0.6235 -0.4051,0.6132 -0.3937,0.6029 -0.3823,0.5926 -0.3711,0.5821 -0.3599,0.5714 -2.8429,0.9052 -10.032,-3.1556 -1.8128,-2.3696 0.032,-0.6746 0.029,-0.6897 0.0257,-0.7047 0.0224,-0.7197 0.0189,-0.7348 0.0151,-0.7497 0.0112,-0.7648 0.007,-0.7797 0.003,-0.7946 -0.001,-0.8095 -0.006,-0.8245 -0.0105,-0.8392 -0.0154,-0.8542 -0.0204,-0.8689 -0.0256,-0.8837 -0.0309,-0.8985 -0.0363,-0.9132 -0.0421,-0.9278 -0.0478,-0.9425 -0.0539,-0.9571 -0.0599,-0.9717 -0.0663,-0.9862 -0.0727,-1.0008 -0.0794,-1.0151 -0.0861,-1.0296 -0.0931,-1.0439 -0.1001,-1.0583 -0.1074,-1.0725 -0.1149,-1.0868 -0.1224,-1.1009 -0.1301,-1.1151 -0.138,-1.1291 -0.1461,-1.1431 -0.1543,-1.1572 -0.1626,-1.171 -0.1711,-1.1848 -0.1798,-1.1987 -0.1887,-1.2124 -0.4702,-0.2264 -11.1852,-2.9236 -0.5208,-0.0327 -0.7578,0.9651 -0.7433,0.9573 -0.7291,0.9496 -0.7148,0.9416 -0.7008,0.9337 -0.6868,0.9254 -0.6728,0.9172 -0.6592,0.9087 -0.6454,0.9003 -0.632,0.8915 -0.6185,0.8828 -0.6052,0.8739 -0.592,0.8649 -0.5789,0.8557 -0.5659,0.8465 -0.5531,0.8372 -0.5404,0.8276 -0.5278,0.8181 -0.5153,0.8083 -0.5029,0.7986 -0.4907,0.7886 -0.4786,0.7785 -0.4666,0.7685 -0.4547,0.7581 -0.443,0.7479 -0.4314,0.7373 -0.4199,0.7268 -0.4085,0.7161 -0.3973,0.7054 -0.3862,0.6944 -0.3752,0.6835 -0.3644,0.6725 -0.3537,0.6612 -0.3431,0.65 -0.3327,0.6386 -0.3224,0.6272 -0.3122,0.6157 -0.3022,0.6039 -2.7404,1.1795 -10.2931,-2.1571 -2.0363,-2.1805 -0.0343,-0.6745 -0.0387,-0.6892 -0.0435,-0.7038 -0.0482,-0.7185 -0.0533,-0.733 -0.0585,-0.7477 -0.0637,-0.7621 -0.0692,-0.7767 -0.0749,-0.7911 -0.0807,-0.8055 -0.0866,-0.8198 -0.0928,-0.8343 -0.099,-0.8485 -0.1055,-0.8627 -0.112,-0.877 -0.1188,-0.8911 -0.1257,-0.9052 -0.1328,-0.9193 -0.14,-0.9332 -0.1474,-0.9473 -0.1549,-0.9611 -0.1627,-0.975 -0.1704,-0.9888 -0.1785,-1.0025 -0.1866,-1.0161 -0.1949,-1.0298 -0.2035,-1.0434 -0.212,-1.0568 -0.2208,-1.0703 -0.2297,-1.0836 -0.2388,-1.0969 -0.248,-1.1102 -0.2574,-1.1233 -0.267,-1.1364 -0.2766,-1.1495 -0.2865,-1.1624 -0.2964,-1.1752 -0.3066,-1.1881 -0.4901,-0.1792 -11.4179,-1.8132 -0.5215,0.0185 -0.6595,1.0347 -0.646,1.0256 -0.6325,1.0165 -0.6191,1.0072 -0.6058,0.9978 -0.5928,0.9883 -0.5797,0.9787 -0.5669,0.969 -0.5541,0.9591 -0.5415,0.9492 -0.529,0.9392 -0.5166,0.929 -0.5044,0.9187 -0.4923,0.9084 -0.4802,0.8979 -0.4684,0.8873 -0.4567,0.8766 -0.445,0.8659 -0.4336,0.855 -0.4223,0.8439 -0.411,0.833 -0.4,0.8217 -0.389,0.8105 -0.3782,0.799 -0.3676,0.7877 -0.357,0.7761 -0.3466,0.7644 -0.3364,0.7527 -0.3262,0.7409 -0.3163,0.729 -0.3064,0.717 -0.2967,0.7049 -0.2872,0.6927 -0.2778,0.6805 -0.2685,0.6682 -0.2593,0.6557 -0.2504,0.6433 -0.2415,0.6307 -2.6117,1.4424 -10.4549,-1.1378 -2.2402,-1.9704 -0.1002,-0.6679 -0.1061,-0.6821 -0.1123,-0.6962 -0.1184,-0.7102 -0.1249,-0.7243 -0.1314,-0.7383 -0.1382,-0.7523 -0.145,-0.7661 -0.1521,-0.7799 -0.1592,-0.7938 -0.1666,-0.8074 -0.1741,-0.8211 -0.1817,-0.8347 -0.1895,-0.8483 -0.1975,-0.8617 -0.2056,-0.8752 -0.2138,-0.8885 -0.2222,-0.9019 -0.2308,-0.915 -0.2396,-0.9283 -0.2484,-0.9413 -0.2574,-0.9543 -0.2665,-0.9673 -0.2759,-0.9802 -0.2853,-0.993 -0.2949,-1.0057 -0.3047,-1.0184 -0.3146,-1.031 -0.3247,-1.0434 -0.3348,-1.0559 -0.3452,-1.0683 -0.3556,-1.0805 -0.3663,-1.0927 -0.377,-1.1047 -0.388,-1.1168 -0.399,-1.1287 -0.4102,-1.1406 -0.4216,-1.1523 -0.5053,-0.1303 -11.5406,-0.6853 -0.5172,0.0696 -0.555,1.0943 -0.5423,1.084 -0.5298,1.0735 -0.5174,1.063 -0.5051,1.0524 -0.493,1.0417 -0.4811,1.0308 -0.4691,1.0199 -0.4575,1.0088 -0.4458,0.9978 -0.4344,0.9864 -0.4231,0.9752 -0.4119,0.9638 -0.4008,0.9522 -0.39,0.9406 -0.3791,0.929 -0.3686,0.9172 -0.358,0.9053 -0.3477,0.8933 -0.3375,0.8813 -0.3274,0.8692 -0.3175,0.857 -0.3077,0.8447 -0.2981,0.8323 -0.2886,0.8199 -0.2792,0.8073 -0.27,0.7948 -0.261,0.782 -0.2521,0.7693 -0.2432,0.7565 -0.2347,0.7436 -0.2262,0.7306 -0.2179,0.7175 -0.2097,0.7044 -0.2017,0.6913 -0.1939,0.678 -0.1861,0.6647 -0.1785,0.6514 -2.4577,1.6914 L 0,-514.1667 l -2.4226,-1.7413 -0.1652,-0.6548 -0.1725,-0.6684 -0.1799,-0.6819 -0.1875,-0.6952 -0.1953,-0.7086 -0.2031,-0.7218 -0.2113,-0.7351 -0.2194,-0.7482 -0.2277,-0.7613 -0.2363,-0.7743 -0.2449,-0.7872 -0.2538,-0.8001 -0.2626,-0.8129 -0.2718,-0.8256 -0.2809,-0.8383 -0.2904,-0.8508 -0.2999,-0.8633 -0.3096,-0.8757 -0.3194,-0.888 -0.3293,-0.9003 -0.3395,-0.9124 -0.3497,-0.9245 -0.3601,-0.9365 -0.3706,-0.9485 -0.3813,-0.9602 -0.3921,-0.972 -0.403,-0.9836 -0.4141,-0.9952 -0.4254,-1.0066 -0.4367,-1.018 -0.4482,-1.0292 -0.4599,-1.0405 -0.4716,-1.0515 -0.4835,-1.0625 -0.4955,-1.0734 -0.5078,-1.0842 -0.52,-1.0948 -0.5325,-1.1054 -0.5156,-0.0802 -11.5523,0.4492 -0.5078,0.1199 -0.4451,1.1434 -0.4334,1.132 -0.422,1.1203 -0.4107,1.1086 -0.3996,1.0968 -0.3885,1.085 -0.3777,1.073 -0.367,1.061 -0.3563,1.0488 -0.3459,1.0366 -0.3356,1.0243 -0.3255,1.012 -0.3154,0.9994 -0.3056,0.987 -0.2959,0.9743 -0.2863,0.9617 -0.2768,0.9488 -0.2676,0.9361 -0.2585,0.9231 -0.2494,0.9102 -0.2407,0.8971 -0.232,0.8839 -0.2234,0.8708 -0.215,0.8575 -0.2069,0.8442 -0.1987,0.8309 -0.1909,0.8173 -0.183,0.8039 -0.1755,0.7903 -0.1679,0.7767 -0.1607,0.763 -0.1535,0.7492 -0.1465,0.7355 -0.1397,0.7216 -0.1329,0.7077 -0.1265,0.6938 -0.12,0.6797 -0.1139,0.6657 -2.2801,1.9242 -10.4759,0.9237 -2.5817,-1.4955 -0.2285,-0.6355 -0.2372,-0.6483 -0.2459,-0.6609 -0.2547,-0.6735 -0.2638,-0.686 -0.273,-0.6985 -0.2822,-0.7108 -0.2917,-0.7231 -0.3013,-0.7353 -0.311,-0.7474 -0.3209,-0.7595 -0.331,-0.7713 -0.341,-0.7833 -0.3514,-0.795 -0.3618,-0.8066 -0.3724,-0.8183 -0.383,-0.8297 -0.3939,-0.8411 -0.4049,-0.8525 -0.416,-0.8637 -0.4273,-0.8747 -0.4386,-0.8858 -0.4502,-0.8967 -0.4618,-0.9075 -0.4735,-0.9183 -0.4855,-0.9289 -0.4975,-0.9393 -0.5097,-0.9498 -0.522,-0.9601 -0.5344,-0.9703 -0.5469,-0.9804 -0.5596,-0.9903 -0.5724,-1.0003 -0.5854,-1.0099 -0.5983,-1.0197 -0.6116,-1.0292 -0.6248,-1.0386 -0.6383,-1.0479 -0.521,-0.0292 -11.4526,1.5793 -0.4937,0.1691 -0.3308,1.1816 -0.3204,1.1689 -0.3102,1.1563 -0.3,1.1436 -0.2902,1.1307 -0.2803,1.1178 -0.2707,1.1049 -0.2612,1.0918 -0.2518,1.0787 -0.2426,1.0655 -0.2336,1.0523 -0.2247,1.039 -0.216,1.0256 -0.2074,1.0121 -0.1989,0.9986 -0.1906,0.9851 -0.1826,0.9715 -0.1745,0.9577 -0.1667,0.944 -0.1591,0.9303 -0.1516,0.9163 -0.1442,0.9025 -0.137,0.8885 -0.13,0.8744 -0.123,0.8605 -0.1164,0.8463 -0.1098,0.8321 -0.1034,0.8179 -0.0971,0.8037 -0.091,0.7894 -0.0851,0.7751 -0.0794,0.7607 -0.0737,0.7463 -0.0683,0.7318 -0.0629,0.7173 -0.0578,0.7028 -0.0529,0.6883 -0.048,0.6736 -2.0806,2.1384 -10.3349,1.9461 -2.7158,-1.2352 -0.2898,-0.6101 -0.2995,-0.6219 -0.3095,-0.6336 -0.3196,-0.6453 -0.3297,-0.6569 -0.3401,-0.6683 -0.3506,-0.6798 -0.3611,-0.691 -0.372,-0.7022 -0.3827,-0.7133 -0.3938,-0.7244 -0.405,-0.7352 -0.4162,-0.746 -0.4276,-0.7567 -0.4391,-0.7674 -0.4508,-0.7778 -0.4625,-0.7882 -0.4745,-0.7984 -0.4865,-0.8087 -0.4986,-0.8187 -0.511,-0.8287 -0.5233,-0.8385 -0.5359,-0.8483 -0.5485,-0.8579 -0.5613,-0.8674 -0.5742,-0.8768 -0.5872,-0.8861 -0.6003,-0.8952 -0.6136,-0.9044 -0.6269,-0.9132 -0.6404,-0.922 -0.654,-0.9308 -0.6677,-0.9393 -0.6815,-0.9477 -0.6954,-0.9561 -0.7095,-0.9643 -0.7236,-0.9724 -0.7379,-0.9803 -0.5214,0.022 -11.2426,2.6943 -0.4748,0.2167 -0.2134,1.2083 -0.2043,1.1947 -0.1953,1.1811 -0.1865,1.1675 -0.1779,1.1537 -0.1695,1.1399 -0.1611,1.1261 -0.1529,1.1121 -0.1449,1.0982 -0.137,1.0842 -0.1293,1.0701 -0.1218,1.056 -0.1144,1.0418 -0.1072,1.0276 -0.1,1.0134 -0.0932,0.999 -0.0864,0.9846 -0.0799,0.9703 -0.0734,0.9558 -0.0671,0.9413 -0.061,0.9268 -0.0551,0.9123 -0.0492,0.8976 -0.0436,0.883 -0.0382,0.8684 -0.0329,0.8536 -0.0277,0.8389 -0.0227,0.8241 -0.0179,0.8094 -0.0132,0.7945 -0.009,0.7797 -0.004,0.7648 -2e-4,0.7499 0.004,0.735 0.008,0.72 0.0114,0.7051 0.0148,0.6901 0.0183,0.6751 -1.8609,2.332 -10.0945,2.9498 -2.8238,-0.9631 -0.3481,-0.5787 -0.3591,-0.5895 -0.3701,-0.6003 -0.3813,-0.6109 -0.3925,-0.6214 -0.404,-0.6318 -0.4155,-0.6421 -0.4272,-0.6523 -0.4389,-0.6624 -0.4509,-0.6723 -0.4629,-0.6823 -0.475,-0.692 -0.4873,-0.7016 -0.4997,-0.7112 -0.5123,-0.7205 -0.5248,-0.7299 -0.5376,-0.7391 -0.5504,-0.7481 -0.5634,-0.7571 -0.5765,-0.7659 -0.5897,-0.7746 -0.6031,-0.7832 -0.6164,-0.7917 -0.63,-0.8 -0.6436,-0.8082 -0.6573,-0.8163 -0.6713,-0.8242 -0.6851,-0.8321 -0.6993,-0.8399 -0.7134,-0.8473 -0.7277,-0.8549 -0.7421,-0.8621 -0.7565,-0.8694 -0.7711,-0.8764 -0.7858,-0.8833 -0.8006,-0.8901 -0.8155,-0.8967 -0.8304,-0.9033 -0.5167,0.073 -10.9244,3.7832 -0.4512,0.2622 -0.094,1.2234 -0.0862,1.209 -0.0786,1.1946 -0.0712,1.1801 -0.064,1.1656 -0.0568,1.1511 -0.05,1.1364 -0.0431,1.1218 -0.0366,1.1071 -0.0301,1.0924 -0.0238,1.0776 -0.0177,1.0629 -0.0117,1.048 -0.006,1.0331 -2e-4,1.0183 0.005,1.0033 0.0105,0.9884 0.0157,0.9734 0.0206,0.9584 0.0255,0.9434 0.0301,0.9283 0.0347,0.9133 0.0389,0.8981 0.0432,0.8831 0.0471,0.8678 0.051,0.8528 0.0546,0.8376 0.0582,0.8224 0.0615,0.8072 0.0648,0.792 0.0677,0.7767 0.0706,0.7616 0.0733,0.7463 0.0758,0.7311 0.0782,0.7158 0.0804,0.7006 0.0824,0.6853 0.0843,0.6701 -1.6233,2.5032 -9.7568,3.9249 -2.9045,-0.6816 -0.4032,-0.5418 -0.4152,-0.5515 -0.4271,-0.5611 -0.4393,-0.5706 -0.4516,-0.5799 -0.4639,-0.5892 -0.4765,-0.5982 -0.489,-0.6073 -0.5018,-0.6162 -0.5146,-0.6249 -0.5275,-0.6336 -0.5406,-0.6421 -0.5537,-0.6505 -0.5671,-0.6588 -0.5803,-0.6669 -0.5939,-0.6749 -0.6074,-0.6828 -0.6212,-0.6906 -0.6349,-0.6982 -0.6488,-0.7057 -0.6628,-0.7131 -0.6768,-0.7203 -0.6911,-0.7274 -0.7053,-0.7344 -0.7198,-0.7413 -0.7342,-0.7479 -0.7488,-0.7545 -0.7634,-0.7609 -0.7782,-0.7673 -0.793,-0.7734 -0.808,-0.7793 -0.823,-0.7853 -0.8381,-0.791 -0.8533,-0.7966 -0.8686,-0.802 -0.884,-0.8074 -0.8994,-0.8125 -0.915,-0.8175 -0.5071,0.1233 -10.501,4.8358 -0.4233,0.3052 0.0264,1.2267 0.0328,1.2116 0.0388,1.1965 0.0448,1.1814 0.0506,1.1663 0.0562,1.151 0.0617,1.1359 0.067,1.1206 0.0721,1.1054 0.0772,1.0901 0.0819,1.0747 0.0866,1.0595 0.091,1.0441 0.0954,1.0288 0.0995,1.0134 0.1035,0.998 0.1073,0.9826 0.111,0.9672 0.1145,0.9517 0.1178,0.9364 0.121,0.9209 0.124,0.9054 0.1268,0.89 0.1295,0.8746 0.1319,0.8591 0.1344,0.8436 0.1365,0.8282 0.1385,0.8127 0.1403,0.7973 0.142,0.7818 0.1436,0.7664 0.1449,0.751 0.1461,0.7355 0.1471,0.7202 0.148,0.7047 0.1487,0.6893 0.1492,0.674 0.1496,0.6585 -1.3702,2.6503 -9.3251,4.8624 -2.9574,-0.3937 -0.4544,-0.4997 -0.4671,-0.5081 -0.4801,-0.5165 -0.4931,-0.5248 -0.5063,-0.5329 -0.5194,-0.5408 -0.5328,-0.5487 -0.5462,-0.5565 -0.5598,-0.564 -0.5734,-0.5715 -0.5871,-0.5788 -0.6009,-0.586 -0.6148,-0.5931 -0.6289,-0.6 -0.6429,-0.6068 -0.6572,-0.6135 -0.6714,-0.62 -0.6858,-0.6263 -0.7003,-0.6326 -0.7149,-0.6388 -0.7295,-0.6446 -0.7442,-0.6506 -0.759,-0.6561 -0.774,-0.6618 -0.7889,-0.6671 -0.804,-0.6724 -0.8191,-0.6774 -0.8343,-0.6825 -0.8497,-0.6872 -0.865,-0.692 -0.8805,-0.6964 -0.896,-0.7008 -0.9116,-0.7051 -0.9273,-0.7091 -0.943,-0.713 -0.9589,-0.7168 -0.9747,-0.7205 -0.9907,-0.7239 -0.4925,0.1724 -9.9765,5.8418 -0.3913,0.3452 0.1465,1.2182 0.1513,1.2026 0.156,1.187 0.1603,1.1713 0.1647,1.1557 0.1688,1.14 0.1727,1.1243 0.1765,1.1087 0.1802,1.093 0.1835,1.0772 0.1869,1.0616 0.19,1.0459 0.193,1.0302 0.1957,1.0144 0.1984,0.9988 0.2008,0.983 0.2032,0.9674 0.2052,0.9516 0.2072,0.936 0.2091,0.9203 0.2106,0.9046 0.2121,0.8889 0.2135,0.8733 0.2145,0.8576 0.2156,0.8421 0.2164,0.8264 0.217,0.8108 0.2175,0.7952 0.2178,0.7797 0.218,0.7642 0.218,0.7486 0.2178,0.7332 0.2175,0.7176 0.2169,0.7023 0.2164,0.6868 0.2155,0.6714 0.2146,0.6561 0.2134,0.6408 -1.1038,2.7718 -8.8036,5.7529 -2.9818,-0.1019 -0.5011,-0.4527 -0.5147,-0.4599 -0.5285,-0.467 -0.5421,-0.4739 -0.556,-0.4807 -0.57,-0.4873 -0.584,-0.4938 -0.5982,-0.5003 -0.6123,-0.5064 -0.6266,-0.5125 -0.641,-0.5185 -0.6555,-0.5243 -0.67,-0.53 -0.6846,-0.5355 -0.6994,-0.5408 -0.7141,-0.5461 -0.729,-0.5512 -0.7439,-0.5562 -0.7589,-0.5609 -0.774,-0.5656 -0.7892,-0.57 -0.8044,-0.5745 -0.8197,-0.5786 -0.835,-0.5827 -0.8505,-0.5865 -0.8661,-0.5904 -0.8815,-0.5939 -0.8973,-0.5974 -0.9129,-0.6006 -0.9287,-0.6038 -0.9445,-0.6068 -0.9604,-0.6097 -0.9763,-0.6122 -0.9923,-0.6149 -1.0084,-0.6171 -1.0245,-0.6194 -1.0406,-0.6214 -1.0569,-0.6233 -0.4733,0.2198 -9.3558,6.7915 -0.3556,0.3819 0.2652,1.198 0.2685,1.182 0.2715,1.1659 0.2744,1.15 0.2772,1.134 0.2797,1.118 0.2821,1.102 0.2843,1.086 0.2864,1.07 0.2883,1.0541 0.29,1.0382 0.2916,1.0222 0.293,1.0063 0.2943,0.9903 0.2953,0.9745 0.2962,0.9587 0.297,0.9428 0.2975,0.9269 0.298,0.9111 0.2982,0.8954 0.2983,0.8796 0.2982,0.8639 0.298,0.8481 0.2976,0.8325 0.2971,0.8169 0.2963,0.8012 0.2955,0.7856 0.2944,0.7701 0.2932,0.7546 0.2918,0.7391 0.2903,0.7237 0.2886,0.7082 0.2868,0.693 0.2848,0.6775 0.2826,0.6623 0.2803,0.6471 0.2778,0.6319 0.2752,0.6168 -0.8268,2.8666 -8.1973,6.5882 -2.9774,0.1908 -0.5431,-0.4014 -0.5573,-0.4072 -0.5717,-0.413 -0.586,-0.4184 -0.6004,-0.4239 -0.615,-0.4291 -0.6296,-0.4343 -0.6443,-0.4391 -0.659,-0.444 -0.6739,-0.4487 -0.6887,-0.4531 -0.7037,-0.4576 -0.7187,-0.4617 -0.7339,-0.4658 -0.7489,-0.4697 -0.7642,-0.4735 -0.7795,-0.4771 -0.7949,-0.4805 -0.8102,-0.4838 -0.8258,-0.487 -0.8412,-0.49 -0.8568,-0.4928 -0.8725,-0.4955 -0.8882,-0.498 -0.9039,-0.5004 -0.9197,-0.5026 -0.9355,-0.5047 -0.9515,-0.5065 -0.9674,-0.5083 -0.9834,-0.5099 -0.9994,-0.5113 -1.0155,-0.5125 -1.0317,-0.5137 -1.0478,-0.5146 -1.064,-0.5153 -1.0803,-0.516 -1.0965,-0.5164 -1.1129,-0.5168 -0.4494,0.2652 -8.6451,7.6759 -0.3165,0.4149 0.3814,1.1662 0.383,1.15 0.3845,1.1337 0.3858,1.1175 0.387,1.1014 0.3879,1.0852 0.3888,1.069 0.3894,1.0529 0.3899,1.0368 0.3902,1.0208 0.3904,1.0047 0.3904,0.9887 0.3902,0.9727 0.3899,0.9568 0.3894,0.9409 0.3888,0.925 0.3879,0.9091 0.387,0.8933 0.3858,0.8776 0.3846,0.8618 0.3831,0.8461 0.3814,0.8305 0.3797,0.8149 0.3778,0.7993 0.3757,0.7838 0.3734,0.7683 0.3711,0.7529 0.3684,0.7375 0.3658,0.7222 0.3628,0.707 0.3599,0.6917 0.3566,0.6766 0.3533,0.6614 0.3499,0.6464 0.3461,0.6314 0.3424,0.6165 0.3384,0.6016 0.3344,0.5869 -0.5419,2.9338 -7.512,7.36 -2.9444,0.4817 -0.5798,-0.3462 -0.5946,-0.3507 -0.6094,-0.3549 -0.6242,-0.359 -0.6391,-0.363 -0.6541,-0.3668 -0.6691,-0.3704 -0.6842,-0.3739 -0.6994,-0.3773 -0.7146,-0.3804 -0.7298,-0.3835 -0.7452,-0.3863 -0.7605,-0.3891 -0.7759,-0.3916 -0.7915,-0.3941 -0.8069,-0.3962 -0.8225,-0.3984 -0.8381,-0.4003 -0.8538,-0.4021 -0.8695,-0.4037 -0.8852,-0.4052 -0.901,-0.4064 -0.9168,-0.4076 -0.9327,-0.4086 -0.9486,-0.4094 -0.9646,-0.41 -0.9805,-0.4106 -0.9965,-0.4108 -1.0126,-0.411 -1.0286,-0.4111 -1.0447,-0.4108 -1.0609,-0.4106 -1.077,-0.41 -1.0932,-0.4094 -1.1094,-0.4086 -1.1257,-0.4076 -1.1419,-0.4065 -1.1581,-0.4051 -0.4213,0.3079 -7.8511,8.4863 -0.2743,0.4439 0.4939,1.1232 0.4939,1.1069 0.4937,1.0906 0.4935,1.0743 0.4931,1.0581 0.4924,1.042 0.4917,1.0258 0.4907,1.0096 0.4897,0.9937 0.4884,0.9775 0.487,0.9617 0.4854,0.9456 0.4837,0.9298 0.4818,0.914 0.4797,0.8981 0.4776,0.8825 0.4752,0.8667 0.4726,0.8511 0.47,0.8355 0.4672,0.82 0.4642,0.8045 0.461,0.7891 0.4578,0.7737 0.4542,0.7584 0.4507,0.7432 0.447,0.728 0.443,0.7129 0.439,0.6979 0.4348,0.6829 0.4304,0.668 0.4259,0.6531 0.4213,0.6383 0.4164,0.6237 0.4115,0.609 0.4064,0.5944 0.4012,0.58 0.3957,0.5655 0.3902,0.5513 -0.2516,2.9728 -6.7545,8.0608 -2.883,0.768 -0.611,-0.2877 -0.626,-0.2907 -0.6412,-0.2935 -0.6564,-0.2961 -0.6716,-0.2986 -0.6869,-0.3008 -0.7023,-0.3031 -0.7175,-0.305 -0.733,-0.3069 -0.7484,-0.3086 -0.7639,-0.3101 -0.7795,-0.3114 -0.795,-0.3127 -0.8106,-0.3137 -0.8262,-0.3145 -0.8419,-0.3153 -0.8576,-0.3159 -0.8733,-0.3162 -0.8891,-0.3165 -0.9048,-0.3165 -0.9207,-0.3165 -0.9365,-0.3161 -0.9524,-0.3158 -0.9682,-0.3152 -0.9842,-0.3144 -1.0001,-0.3136 -1.016,-0.3124 -1.032,-0.3112 -1.048,-0.3098 -1.064,-0.3082 -1.0799,-0.3065 -1.096,-0.3046 -1.1121,-0.3025 -1.128,-0.3003 -1.1441,-0.2979 -1.1602,-0.2953 -1.1762,-0.2926 -1.1923,-0.2896 -0.3891,0.3477 -6.9815,9.215 -0.2295,0.4687 0.6016,1.0693 0.6,1.0532 0.5983,1.0369 0.5964,1.0208 0.5944,1.0047 0.5922,0.9887 0.5899,0.9726 0.5873,0.9567 0.5847,0.9409 0.5819,0.925 0.5789,0.9092 0.5757,0.8936 0.5725,0.8779 0.5691,0.8623 0.5655,0.8468 0.5617,0.8314 0.5579,0.816 0.5538,0.8006 0.5496,0.7855 0.5453,0.7702 0.5408,0.7551 0.5361,0.7401 0.5314,0.7252 0.5265,0.7102 0.5213,0.6955 0.5162,0.6807 0.5108,0.666 0.5052,0.6515 0.4997,0.637 0.4938,0.6225 0.4879,0.6083 0.4817,0.5939 0.4756,0.5799 0.4692,0.5657 0.4627,0.5518 0.4561,0.5378 0.4493,0.524 0.4424,0.5103 0.0409,2.9833 -5.9319,8.684 -2.7937,1.0469 -0.6363,-0.2265 -0.6516,-0.2279 -0.6668,-0.2292 -0.6823,-0.2303 -0.6977,-0.2314 -0.713,-0.2321 -0.7286,-0.2327 -0.744,-0.2333 -0.7595,-0.2335 -0.7751,-0.2338 -0.7906,-0.2337 -0.8062,-0.2335 -0.8218,-0.2333 -0.8375,-0.2327 -0.8531,-0.2321 -0.8687,-0.2312 -0.8844,-0.2303 -0.9001,-0.2291 -0.9158,-0.2278 -0.9316,-0.2263 -0.9472,-0.2247 -0.963,-0.2228 -0.9787,-0.2209 -0.9945,-0.2188 -1.0103,-0.2165 -1.026,-0.2139 -1.0417,-0.2114 -1.0576,-0.2085 -1.0733,-0.2056 -1.089,-0.2025 -1.1048,-0.1991 -1.1206,-0.1957 -1.1363,-0.1921 -1.1521,-0.1883 -1.1678,-0.1843 -1.1835,-0.1801 -1.1993,-0.1759 -1.2149,-0.1714 -0.3531,0.3842 -6.0447,9.8549 -0.1824,0.4889 0.7035,1.0053 0.7003,0.9892 0.6971,0.9733 0.6936,0.9575 0.69,0.9415 0.6862,0.9259 0.6824,0.9101 0.6783,0.8946 0.6741,0.879 0.6697,0.8635 0.6652,0.8481 0.6606,0.8328 0.6558,0.8176 0.6508,0.8024 0.6458,0.7873 0.6405,0.7723 0.6352,0.7574 0.6296,0.7425 0.624,0.7278 0.6181,0.7131 0.6122,0.6984 0.6062,0.684 0.5998,0.6696 0.5936,0.6552 0.587,0.641 0.5804,0.6268 0.5736,0.6128 0.5667,0.5988 0.5596,0.585 0.5525,0.5711 0.5451,0.5575 0.5377,0.5439 0.5301,0.5304 0.5224,0.5171 0.5146,0.5037 0.5066,0.4906 0.4985,0.4774 0.4903,0.4645 0.3331,2.9649 -5.0521,9.2236 -2.6777,1.3157 -0.6554,-0.163 -0.6708,-0.163 -0.6861,-0.1627 -0.7016,-0.1624 -0.7169,-0.1618 -0.7324,-0.1611 -0.7479,-0.1602 -0.7633,-0.1592 -0.7787,-0.158 -0.7943,-0.1566 -0.8097,-0.1551 -0.8252,-0.1534 -0.8408,-0.1516 -0.8562,-0.1495 -0.8717,-0.1473 -0.8872,-0.145 -0.9027,-0.1425 -0.9183,-0.1398 -0.9337,-0.1369 -0.9492,-0.1339 -0.9647,-0.1308 -0.9802,-0.1274 -0.9957,-0.1239 -1.0112,-0.1202 -1.0266,-0.1164 -1.042,-0.1124 -1.0575,-0.1082 -1.0728,-0.1039 -1.0883,-0.0994 -1.1037,-0.0948 -1.119,-0.0899 -1.1343,-0.0849 -1.1497,-0.0797 -1.165,-0.0745 -1.1802,-0.0689 -1.1955,-0.0633 -1.2107,-0.0575 -1.2259,-0.0515 -0.3138,0.417 -5.0496,10.3999 -0.1336,0.5044 0.7986,0.9315 0.794,0.9159 0.7891,0.9003 0.7841,0.8848 0.7789,0.8694 0.7737,0.8541 0.7683,0.8389 0.7627,0.8238 0.757,0.8087 0.7512,0.7937 0.7451,0.7788 0.7391,0.7641 0.7327,0.7493 0.7264,0.7348 0.7198,0.7202 0.7131,0.7058 0.7064,0.6915 0.6993,0.6772 0.6923,0.6631 0.6851,0.649 0.6777,0.6352 0.6703,0.6212 0.6626,0.6076 0.6549,0.5939 0.647,0.5803 0.6391,0.567 0.6309,0.5536 0.6226,0.5404 0.6143,0.5272 0.6058,0.5143 0.5972,0.5014 0.5884,0.4885 0.5795,0.4759 0.5706,0.4634 0.5614,0.4508 0.5523,0.4386 0.5429,0.4263 0.5334,0.4142 0.6221,2.9179 -4.1237,9.6744 -2.5358,1.5719 -0.6682,-0.098 -0.6835,-0.0965 -0.6988,-0.0947 -0.7141,-0.0928 -0.7294,-0.0907 -0.7446,-0.0886 -0.76,-0.0861 -0.7752,-0.0837 -0.7905,-0.0809 -0.8058,-0.078 -0.821,-0.075 -0.8363,-0.0717 -0.8515,-0.0685 -0.8668,-0.0648 -0.8819,-0.0612 -0.8972,-0.0573 -0.9124,-0.0533 -0.9275,-0.0491 -0.9426,-0.0448 -0.9578,-0.0402 -0.9729,-0.0356 -0.988,-0.0307 -1.003,-0.0257 -1.018,-0.0206 -1.0331,-0.0152 -1.048,-0.01 -1.063,-0.004 -1.0779,0.002 -1.0928,0.008 -1.1076,0.0139 -1.1225,0.0202 -1.1372,0.0267 -1.1519,0.0333 -1.1667,0.0401 -1.1813,0.0471 -1.1959,0.0542 -1.2106,0.0614 -1.225,0.0689 -0.2714,0.4457 -4.0059,10.8448 -0.0835,0.5151 0.8861,0.8487 0.8799,0.8337 0.8735,0.8186 0.8671,0.8037 0.8604,0.7889 0.8537,0.7741 0.8468,0.7596 0.8397,0.745 0.8327,0.7306 0.8253,0.7163 0.8179,0.702 0.8104,0.688 0.8027,0.6739 0.7948,0.66 0.787,0.6462 0.7789,0.6325 0.7707,0.6189 0.7624,0.6054 0.7539,0.5921 0.7454,0.5788 0.7367,0.5656 0.7279,0.5526 0.719,0.5396 0.71,0.5269 0.7008,0.5141 0.6915,0.5016 0.6821,0.4891 0.6727,0.4768 0.663,0.4645 0.6532,0.4524 0.6435,0.4404 0.6334,0.4286 0.6235,0.4168 0.6132,0.4051 0.6029,0.3937 0.5926,0.3823 0.5821,0.3711 0.5714,0.3599 0.9052,2.8429 -3.1556,10.032 -2.3696,1.8128 -0.6746,-0.032 -0.6897,-0.029 -0.7047,-0.0257 -0.7197,-0.0224 -0.7348,-0.0189 -0.7497,-0.0151 -0.7648,-0.0112 -0.7797,-0.007 -0.7946,-0.003 -0.8095,0.001 -0.8245,0.006 -0.8392,0.0105 -0.8542,0.0154 -0.8689,0.0204 -0.8837,0.0256 -0.8985,0.0309 -0.9132,0.0363 -0.9278,0.0421 -0.9425,0.0478 -0.9571,0.0539 -0.9717,0.0599 -0.9862,0.0663 -1.0008,0.0727 -1.0151,0.0794 -1.0296,0.0861 -1.0439,0.0931 -1.0583,0.1001 -1.0725,0.1074 -1.0868,0.1149 -1.1009,0.1224 -1.1151,0.1301 -1.1291,0.138 -1.1431,0.1461 -1.1572,0.1543 -1.171,0.1626 -1.1848,0.1711 -1.1987,0.1798 -1.2124,0.1887 -0.2264,0.4702 -2.9236,11.1852 -0.0327,0.5208 0.9651,0.7578 0.9573,0.7433 0.9496,0.7291 0.9416,0.7148 0.9337,0.7008 0.9254,0.6868 0.9172,0.6728 0.9087,0.6592 0.9003,0.6454 0.8915,0.632 0.8828,0.6185 0.8739,0.6052 0.8649,0.592 0.8557,0.5789 0.8465,0.5659 0.8372,0.5531 0.8276,0.5404 0.8181,0.5278 0.8083,0.5153 0.7986,0.5029 0.7886,0.4907 0.7785,0.4786 0.7685,0.4666 0.7581,0.4547 0.7479,0.443 0.7373,0.4314 0.7268,0.4199 0.7161,0.4085 0.7054,0.3973 0.6944,0.3862 0.6835,0.3752 0.6725,0.3644 0.6612,0.3537 0.65,0.3431 0.6386,0.3327 0.6272,0.3224 0.6157,0.3122 0.6039,0.3022 1.1795,2.7404 -2.1571,10.2931 -2.1805,2.0363 -0.6745,0.0343 -0.6892,0.0387 -0.7038,0.0435 -0.7185,0.0482 -0.733,0.0533 -0.7477,0.0585 -0.7621,0.0637 -0.7767,0.0692 -0.7911,0.0749 -0.8055,0.0807 -0.8198,0.0866 -0.8343,0.0928 -0.8485,0.099 -0.8627,0.1055 -0.877,0.112 -0.8911,0.1188 -0.9052,0.1257 -0.9193,0.1328 -0.9332,0.14 -0.9473,0.1474 -0.9611,0.1549 -0.975,0.1627 -0.9888,0.1704 -1.0025,0.1785 -1.0161,0.1866 -1.0298,0.1949 -1.0434,0.2035 -1.0568,0.212 -1.0703,0.2208 -1.0836,0.2297 -1.0969,0.2388 -1.1102,0.248 -1.1233,0.2574 -1.1364,0.267 -1.1495,0.2766 -1.1624,0.2865 -1.1752,0.2964 -1.1881,0.3066 -0.1792,0.4901 -1.8132,11.4179 0.0185,0.5215 1.0347,0.6595 1.0256,0.646 1.0165,0.6325 1.0072,0.6191 0.9978,0.6058 0.9883,0.5928 0.9787,0.5797 0.969,0.5669 0.9591,0.5541 0.9492,0.5415 0.9392,0.529 0.929,0.5166 0.9187,0.5044 0.9084,0.4923 0.8979,0.4802 0.8873,0.4684 0.8766,0.4567 0.8659,0.445 0.855,0.4336 0.8439,0.4223 0.833,0.411 0.8217,0.4 0.8105,0.389 0.799,0.3782 0.7877,0.3676 0.7761,0.357 0.7644,0.3466 0.7527,0.3364 0.7409,0.3262 0.729,0.3163 0.717,0.3064 0.7049,0.2967 0.6927,0.2872 0.6805,0.2778 0.6682,0.2685 0.6557,0.2593 0.6433,0.2504 0.6307,0.2415 1.4424,2.6117 -1.1378,10.4549 -1.9704,2.2402 -0.6679,0.1002 -0.6821,0.1061 -0.6962,0.1123 -0.7102,0.1184 -0.7243,0.1249 -0.7383,0.1314 -0.7523,0.1382 -0.7661,0.145 -0.7799,0.1521 -0.7938,0.1592 -0.8074,0.1666 -0.8211,0.1741 -0.8347,0.1817 -0.8483,0.1895 -0.8617,0.1975 -0.8752,0.2056 -0.8885,0.2138 -0.9019,0.2222 -0.915,0.2308 -0.9283,0.2396 -0.9413,0.2484 -0.9543,0.2574 -0.9673,0.2665 -0.9802,0.2759 -0.993,0.2853 -1.0057,0.2949 -1.0184,0.3047 -1.031,0.3146 -1.0434,0.3247 -1.0559,0.3348 -1.0683,0.3452 -1.0805,0.3556 -1.0927,0.3663 -1.1047,0.377 -1.1168,0.388 -1.1287,0.399 -1.1406,0.4102 -1.1523,0.4216 -0.1303,0.5053 -0.6853,11.5406 0.0696,0.5172 1.0943,0.555 1.084,0.5423 1.0735,0.5298 1.063,0.5174 1.0524,0.5051 1.0417,0.493 1.0308,0.4811 1.0199,0.4691 1.0088,0.4575 0.9978,0.4458 0.9864,0.4344 0.9752,0.4231 0.9638,0.4119 0.9522,0.4008 0.9406,0.39 0.929,0.3791 0.9172,0.3686 0.9053,0.358 0.8933,0.3477 0.8813,0.3375 0.8692,0.3274 0.857,0.3175 0.8447,0.3077 0.8323,0.2981 0.8199,0.2886 0.8073,0.2792 0.7948,0.27 0.782,0.261 0.7693,0.2521 0.7565,0.2432 0.7436,0.2347 0.7306,0.2262 0.7175,0.2179 0.7044,0.2097 0.6913,0.2017 0.678,0.1939 0.6647,0.1861 0.6514,0.1785 1.6914,2.4577 -0.1076,10.5161 -1.7413,2.4226 -0.6548,0.1652 -0.6684,0.1725 -0.6819,0.1799 -0.6952,0.1875 -0.7086,0.1953 -0.7218,0.2031 -0.7351,0.2113 -0.7482,0.2194 -0.7613,0.2277 -0.7743,0.2363 -0.7872,0.2449 -0.8001,0.2538 -0.8129,0.2626 -0.8256,0.2718 -0.8383,0.2809 -0.8508,0.2904 -0.8633,0.2999 -0.8757,0.3096 -0.888,0.3194 -0.9003,0.3293 -0.9124,0.3395 -0.9245,0.3497 -0.9365,0.3601 -0.9485,0.3706 -0.9602,0.3813 -0.972,0.3921 -0.9836,0.403 -0.9952,0.4141 -1.0066,0.4254 -1.018,0.4367 -1.0292,0.4482 -1.0405,0.4599 -1.0515,0.4716 -1.0625,0.4835 -1.0734,0.4955 -1.0842,0.5078 -1.0948,0.52 -1.1054,0.5325 -0.0802,0.5156 0.4492,11.5523 0.1199,0.5078 1.1434,0.4451 1.132,0.4334 1.1203,0.422 1.1086,0.4107 1.0968,0.3996 1.085,0.3885 1.073,0.3777 1.061,0.367 1.0488,0.3563 1.0366,0.3459 1.0243,0.3356 1.012,0.3255 0.9994,0.3154 0.987,0.3056 0.9743,0.2959 0.9617,0.2863 0.9488,0.2768 0.9361,0.2676 0.9231,0.2585 0.9102,0.2494 0.8971,0.2407 0.8839,0.232 0.8708,0.2234 0.8575,0.215 0.8442,0.2069 0.8309,0.1987 0.8173,0.1909 0.8039,0.183 0.7903,0.1755 0.7767,0.1679 0.763,0.1607 0.7492,0.1535 0.7355,0.1465 0.7216,0.1397 0.7077,0.1329 0.6938,0.1265 0.6797,0.12 0.6657,0.1139 1.9242,2.2801 0.9237,10.4759 -1.4955,2.5817 -0.6355,0.2285 -0.6483,0.2372 -0.6609,0.2459 -0.6735,0.2547 -0.686,0.2638 -0.6985,0.273 -0.7108,0.2822 -0.7231,0.2917 -0.7353,0.3013 -0.7474,0.311 -0.7595,0.3209 -0.7713,0.331 -0.7833,0.341 -0.795,0.3514 -0.8066,0.3618 -0.8183,0.3724 -0.8297,0.383 -0.8411,0.3939 -0.8525,0.4049 -0.8637,0.416 -0.8747,0.4273 -0.8858,0.4386 -0.8967,0.4502 -0.9075,0.4618 -0.9183,0.4735 -0.9289,0.4855 -0.9393,0.4975 -0.9498,0.5097 -0.9601,0.522 -0.9703,0.5344 -0.9804,0.5469 -0.9903,0.5596 -1.0003,0.5724 -1.0099,0.5854 -1.0197,0.5983 -1.0292,0.6116 -1.0386,0.6248 -1.0479,0.6383 -0.0292,0.521 1.5793,11.4526 0.1691,0.4937 1.1816,0.3308 1.1689,0.3204 1.1563,0.3102 1.1436,0.3 1.1307,0.2902 1.1178,0.2803 1.1049,0.2707 1.0918,0.2612 1.0787,0.2518 1.0655,0.2426 1.0523,0.2336 1.039,0.2247 1.0256,0.216 1.0121,0.2074 0.9986,0.1989 0.9851,0.1906 0.9715,0.1826 0.9577,0.1745 0.944,0.1667 0.9303,0.1591 0.9163,0.1516 0.9025,0.1442 0.8885,0.137 0.8744,0.13 0.8605,0.123 0.8463,0.1164 0.8321,0.1098 0.8179,0.1034 0.8037,0.0971 0.7894,0.091 0.7751,0.0851 0.7607,0.0794 0.7463,0.0737 0.7318,0.0683 0.7173,0.0629 0.7028,0.0578 0.6883,0.0529 0.6736,0.048 2.1384,2.0806 1.9461,10.3349 -1.2352,2.7158 -0.6101,0.2898 -0.6219,0.2995 -0.6336,0.3095 -0.6453,0.3196 -0.6569,0.3297 -0.6683,0.3401 -0.6798,0.3506 -0.691,0.3611 -0.7022,0.372 -0.7133,0.3827 -0.7244,0.3938 -0.7352,0.405 -0.746,0.4162 -0.7567,0.4276 -0.7674,0.4391 -0.7778,0.4508 -0.7882,0.4625 -0.7984,0.4745 -0.8087,0.4865 -0.8187,0.4986 -0.8287,0.511 -0.8385,0.5233 -0.8483,0.5359 -0.8579,0.5485 -0.8674,0.5613 -0.8768,0.5742 -0.8861,0.5872 -0.8952,0.6003 -0.9044,0.6136 -0.9132,0.6269 -0.922,0.6404 -0.9308,0.654 -0.9393,0.6677 -0.9477,0.6815 -0.9561,0.6954 -0.9643,0.7095 -0.9724,0.7236 -0.9803,0.7379 0.022,0.5214 2.6943,11.2426 0.2167,0.4748 1.2083,0.2134 1.1947,0.2043 1.1811,0.1953 1.1675,0.1865 1.1537,0.1779 1.1399,0.1695 1.1261,0.1611 1.1121,0.1529 1.0982,0.1449 1.0842,0.137 1.0701,0.1293 1.056,0.1218 1.0418,0.1144 1.0276,0.1072 1.0134,0.1 0.999,0.0932 0.9846,0.0864 0.9703,0.0799 0.9558,0.0734 0.9413,0.0671 0.9268,0.061 0.9123,0.0551 0.8976,0.0492 0.883,0.0436 0.8684,0.0382 0.8536,0.0329 0.8389,0.0277 0.8241,0.0227 0.8094,0.0179 0.7945,0.0132 0.7797,0.009 0.7648,0.004 0.7499,2e-4 0.735,-0.004 0.72,-0.008 0.7051,-0.0114 0.6901,-0.0148 0.6751,-0.0183 2.332,1.8609 2.9498,10.0945 -0.9631,2.8238 -0.5787,0.3481 -0.5895,0.3591 -0.6003,0.3701 -0.6109,0.3813 -0.6214,0.3925 -0.6318,0.404 -0.6421,0.4155 -0.6523,0.4272 -0.6624,0.4389 -0.6723,0.4509 -0.6823,0.4629 -0.692,0.475 -0.7016,0.4873 -0.7112,0.4997 -0.7205,0.5123 -0.7299,0.5248 -0.7391,0.5376 -0.7481,0.5504 -0.7571,0.5634 -0.7659,0.5765 -0.7746,0.5897 -0.7832,0.6031 -0.7917,0.6164 -0.8,0.63 -0.8082,0.6436 -0.8163,0.6573 -0.8242,0.6713 -0.8321,0.6851 -0.8399,0.6993 -0.8473,0.7134 -0.8549,0.7277 -0.8621,0.7421 -0.8694,0.7565 -0.8764,0.7711 -0.8833,0.7858 -0.8901,0.8006 -0.8967,0.8155 -0.9033,0.8304 0.073,0.5167 3.7832,10.9244 0.2622,0.4512 1.2234,0.094 1.209,0.0862 1.1946,0.0786 1.1801,0.0712 1.1656,0.064 1.1511,0.0568 1.1364,0.05 1.1218,0.0431 1.1071,0.0366 1.0924,0.0301 1.0776,0.0238 1.0629,0.0177 1.048,0.0117 1.0331,0.006 1.0183,2e-4 1.0033,-0.005 0.9884,-0.0105 0.9734,-0.0157 0.9584,-0.0206 0.9434,-0.0255 0.9283,-0.0301 0.9133,-0.0347 0.8981,-0.0389 0.8831,-0.0432 0.8678,-0.0471 0.8528,-0.051 0.8376,-0.0546 0.8224,-0.0582 0.8072,-0.0615 0.792,-0.0648 0.7767,-0.0677 0.7616,-0.0706 0.7463,-0.0733 0.7311,-0.0758 0.7158,-0.0782 0.7006,-0.0804 0.6853,-0.0824 0.6701,-0.0843 2.5032,1.6233 3.9249,9.7568 -0.6816,2.9045 -0.5418,0.4032 -0.5515,0.4152 -0.5611,0.4271 -0.5706,0.4393 -0.5799,0.4516 -0.5892,0.4639 -0.5982,0.4765 -0.6073,0.489 -0.6162,0.5018 -0.6249,0.5146 -0.6336,0.5275 -0.6421,0.5406 -0.6505,0.5537 -0.6588,0.5671 -0.6669,0.5803 -0.6749,0.5939 -0.6828,0.6074 -0.6906,0.6212 -0.6982,0.6349 -0.7057,0.6488 -0.7131,0.6628 -0.7203,0.6768 -0.7274,0.6911 -0.7344,0.7053 -0.7413,0.7198 -0.7479,0.7342 -0.7545,0.7488 -0.7609,0.7634 -0.7673,0.7782 -0.7734,0.793 -0.7793,0.808 -0.7853,0.823 -0.791,0.8381 -0.7966,0.8533 -0.802,0.8686 -0.8074,0.884 -0.8125,0.8994 -0.8175,0.915 0.1233,0.5071 4.8358,10.501 0.3052,0.4233 1.2267,-0.0264 1.2116,-0.0328 1.1965,-0.0388 1.1814,-0.0448 1.1663,-0.0506 1.151,-0.0562 1.1359,-0.0617 1.1206,-0.067 1.1054,-0.0721 1.0901,-0.0772 1.0747,-0.0819 1.0595,-0.0866 1.0441,-0.091 1.0288,-0.0954 1.0134,-0.0995 0.998,-0.1035 0.9826,-0.1073 0.9672,-0.111 0.9517,-0.1145 0.9364,-0.1178 0.9209,-0.121 0.9054,-0.124 0.89,-0.1268 0.8746,-0.1295 0.8591,-0.1319 0.8436,-0.1344 0.8282,-0.1365 0.8127,-0.1385 0.7973,-0.1403 0.7818,-0.142 0.7664,-0.1436 0.751,-0.1449 0.7355,-0.1461 0.7202,-0.1471 0.7047,-0.148 0.6893,-0.1487 0.674,-0.1492 0.6585,-0.1496 2.6503,1.3702 4.8624,9.3251 -0.3937,2.9574 -0.4997,0.4544 -0.5081,0.4671 -0.5165,0.4801 -0.5248,0.4931 -0.5329,0.5063 -0.5408,0.5194 -0.5487,0.5328 -0.5565,0.5462 -0.564,0.5598 -0.5715,0.5734 -0.5788,0.5871 -0.586,0.6009 -0.5931,0.6148 -0.6,0.6289 -0.6068,0.6429 -0.6135,0.6572 -0.62,0.6714 -0.6263,0.6858 -0.6326,0.7003 -0.6388,0.7149 -0.6446,0.7295 -0.6506,0.7442 -0.6561,0.759 -0.6618,0.774 -0.6671,0.7889 -0.6724,0.804 -0.6774,0.8191 -0.6825,0.8343 -0.6872,0.8497 -0.692,0.865 -0.6964,0.8805 -0.7008,0.896 -0.7051,0.9116 -0.7091,0.9273 -0.713,0.943 -0.7168,0.9589 -0.7205,0.9747 -0.7239,0.9907 0.1724,0.4925 5.8418,9.9765 0.3452,0.3913 1.2182,-0.1465 1.2026,-0.1513 1.187,-0.156 1.1713,-0.1603 1.1557,-0.1647 1.14,-0.1688 1.1243,-0.1727 1.1087,-0.1765 1.093,-0.1802 1.0772,-0.1835 1.0616,-0.1869 1.0459,-0.19 1.0302,-0.193 1.0144,-0.1957 0.9988,-0.1984 0.983,-0.2008 0.9674,-0.2032 0.9516,-0.2052 0.936,-0.2072 0.9203,-0.2091 0.9046,-0.2106 0.8889,-0.2121 0.8733,-0.2135 0.8576,-0.2145 0.8421,-0.2156 0.8264,-0.2164 0.8108,-0.217 0.7952,-0.2175 0.7797,-0.2178 0.7642,-0.218 0.7486,-0.218 0.7332,-0.2178 0.7176,-0.2175 0.7023,-0.2169 0.6868,-0.2164 0.6714,-0.2155 0.6561,-0.2146 0.6408,-0.2134 2.7718,1.1038 5.7529,8.8036 -0.1019,2.9818 -0.4527,0.5011 -0.4599,0.5147 -0.467,0.5285 -0.4739,0.5421 -0.4807,0.556 -0.4873,0.57 -0.4938,0.584 -0.5003,0.5982 -0.5064,0.6123 -0.5125,0.6266 -0.5185,0.641 -0.5243,0.6555 -0.53,0.67 -0.5355,0.6846 -0.5408,0.6994 -0.5461,0.7141 -0.5512,0.729 -0.5562,0.7439 -0.5609,0.7589 -0.5656,0.774 -0.57,0.7892 -0.5745,0.8044 -0.5786,0.8197 -0.5827,0.835 -0.5865,0.8505 -0.5904,0.8661 -0.5939,0.8815 -0.5974,0.8973 -0.6006,0.9129 -0.6038,0.9287 -0.6068,0.9445 -0.6097,0.9604 -0.6122,0.9763 -0.6149,0.9923 -0.6171,1.0084 -0.6194,1.0245 -0.6214,1.0406 -0.6233,1.0569 0.2198,0.4733 6.7915,9.3558 0.3819,0.3556 1.198,-0.2652 1.182,-0.2685 1.1659,-0.2715 1.15,-0.2744 1.134,-0.2772 1.118,-0.2797 1.102,-0.2821 1.086,-0.2843 1.07,-0.2864 1.0541,-0.2883 1.0382,-0.29 1.0222,-0.2916 1.0063,-0.293 0.9903,-0.2943 0.9745,-0.2953 0.9587,-0.2962 0.9428,-0.297 0.9269,-0.2975 0.9111,-0.298 0.8954,-0.2982 0.8796,-0.2983 0.8639,-0.2982 0.8481,-0.298 0.8325,-0.2976 0.8169,-0.2971 0.8012,-0.2963 0.7856,-0.2955 0.7701,-0.2944 0.7546,-0.2932 0.7391,-0.2918 0.7237,-0.2903 0.7082,-0.2886 0.693,-0.2868 0.6775,-0.2848 0.6623,-0.2826 0.6471,-0.2803 0.6319,-0.2778 0.6168,-0.2752 2.8666,0.8268 6.5882,8.1973 0.1908,2.9774 -0.4014,0.5431 -0.4072,0.5573 -0.413,0.5717 -0.4184,0.586 -0.4239,0.6004 -0.4291,0.615 -0.4343,0.6296 -0.4391,0.6443 -0.444,0.659 -0.4487,0.6739 -0.4531,0.6887 -0.4576,0.7037 -0.4617,0.7187 -0.4658,0.7339 -0.4697,0.7489 -0.4735,0.7642 -0.4771,0.7795 -0.4805,0.7949 -0.4838,0.8102 -0.487,0.8258 -0.49,0.8412 -0.4928,0.8568 -0.4955,0.8725 -0.498,0.8882 -0.5004,0.9039 -0.5026,0.9197 -0.5047,0.9355 -0.5065,0.9515 -0.5083,0.9674 -0.5099,0.9834 -0.5113,0.9994 -0.5125,1.0155 -0.5137,1.0317 -0.5146,1.0478 -0.5153,1.064 -0.516,1.0803 -0.5164,1.0965 -0.5168,1.1129 0.2652,0.4494 7.6759,8.6451 0.4149,0.3165 1.1662,-0.3814 1.15,-0.383 1.1337,-0.3845 1.1175,-0.3858 1.1014,-0.387 1.0852,-0.3879 1.069,-0.3888 1.0529,-0.3894 1.0368,-0.3899 1.0208,-0.3902 1.0047,-0.3904 0.9887,-0.3904 0.9727,-0.3902 0.9568,-0.3899 0.9409,-0.3894 0.925,-0.3888 0.9091,-0.3879 0.8933,-0.387 0.8776,-0.3858 0.8618,-0.3846 0.8461,-0.3831 0.8305,-0.3814 0.8149,-0.3797 0.7993,-0.3778 0.7838,-0.3757 0.7683,-0.3734 0.7529,-0.3711 0.7375,-0.3684 0.7222,-0.3658 0.707,-0.3628 0.6917,-0.3599 0.6766,-0.3566 0.6614,-0.3533 0.6464,-0.3499 0.6314,-0.3461 0.6165,-0.3424 0.6016,-0.3384 0.5869,-0.3344 2.9338,0.5419 7.36,7.512 0.4817,2.9444 -0.3462,0.5798 -0.3507,0.5946 -0.3549,0.6094 -0.359,0.6242 -0.363,0.6391 -0.3668,0.6541 -0.3704,0.6691 -0.3739,0.6842 -0.3773,0.6994 -0.3804,0.7146 -0.3835,0.7298 -0.3863,0.7452 -0.3891,0.7605 -0.3916,0.7759 -0.3941,0.7915 -0.3962,0.8069 -0.3984,0.8225 -0.4003,0.8381 -0.4021,0.8538 -0.4037,0.8695 -0.4052,0.8852 -0.4064,0.901 -0.4076,0.9168 -0.4086,0.9327 -0.4094,0.9486 -0.41,0.9646 -0.4106,0.9805 -0.4108,0.9965 -0.411,1.0126 -0.4111,1.0286 -0.4108,1.0447 -0.4106,1.0609 -0.41,1.077 -0.4094,1.0932 -0.4086,1.1094 -0.4076,1.1257 -0.4065,1.1419 -0.4051,1.1581 0.3079,0.4213 8.4863,7.8511 0.4439,0.2743 1.1232,-0.4939 1.1069,-0.4939 1.0906,-0.4937 1.0743,-0.4935 1.0581,-0.4931 1.042,-0.4924 1.0258,-0.4917 1.0096,-0.4907 0.9937,-0.4897 0.9775,-0.4884 0.9617,-0.487 0.9456,-0.4854 0.9298,-0.4837 0.914,-0.4818 0.8981,-0.4797 0.8825,-0.4776 0.8667,-0.4752 0.8511,-0.4726 0.8355,-0.47 0.82,-0.4672 0.8045,-0.4642 0.7891,-0.461 0.7737,-0.4578 0.7584,-0.4542 0.7432,-0.4507 0.728,-0.447 0.7129,-0.443 0.6979,-0.439 0.6829,-0.4348 0.668,-0.4304 0.6531,-0.4259 0.6383,-0.4213 0.6237,-0.4164 0.609,-0.4115 0.5944,-0.4064 0.58,-0.4012 0.5655,-0.3957 0.5513,-0.3902 2.9728,0.2516 8.0608,6.7545 0.768,2.883 -0.2877,0.611 -0.2907,0.626 -0.2935,0.6412 -0.2961,0.6564 -0.2986,0.6716 -0.3008,0.6869 -0.3031,0.7023 -0.305,0.7175 -0.3069,0.733 -0.3086,0.7484 -0.3101,0.7639 -0.3114,0.7795 -0.3127,0.795 -0.3137,0.8106 -0.3145,0.8262 -0.3153,0.8419 -0.3159,0.8576 -0.3162,0.8733 -0.3165,0.8891 -0.3165,0.9048 -0.3165,0.9207 -0.3161,0.9365 -0.3158,0.9524 -0.3152,0.9682 -0.3144,0.9842 -0.3136,1.0001 -0.3124,1.016 -0.3112,1.032 -0.3098,1.048 -0.3082,1.064 -0.3065,1.0799 -0.3046,1.096 -0.3025,1.1121 -0.3003,1.128 -0.2979,1.1441 -0.2953,1.1602 -0.2926,1.1762 -0.2896,1.1923 0.3477,0.3891 9.215,6.9815 0.4687,0.2295 1.0693,-0.6016 1.0532,-0.6 1.0369,-0.5983 1.0208,-0.5964 1.0047,-0.5944 0.9887,-0.5922 0.9726,-0.5899 0.9567,-0.5873 0.9409,-0.5847 0.925,-0.5819 0.9092,-0.5789 0.8936,-0.5757 0.8779,-0.5725 0.8623,-0.5691 0.8468,-0.5655 0.8314,-0.5617 0.816,-0.5579 0.8006,-0.5538 0.7855,-0.5496 0.7702,-0.5453 0.7551,-0.5408 0.7401,-0.5361 0.7252,-0.5314 0.7102,-0.5265 0.6955,-0.5213 0.6807,-0.5162 0.666,-0.5108 0.6515,-0.5052 0.637,-0.4997 0.6225,-0.4938 0.6083,-0.4879 0.5939,-0.4817 0.5799,-0.4756 0.5657,-0.4692 0.5518,-0.4627 0.5378,-0.4561 0.524,-0.4493 0.5103,-0.4424 2.9833,-0.0409 8.684,5.9319 1.0469,2.7937 -0.2265,0.6363 -0.2279,0.6516 -0.2292,0.6668 -0.2303,0.6823 -0.2314,0.6977 -0.2321,0.713 -0.2327,0.7286 -0.2333,0.744 -0.2335,0.7595 -0.2338,0.7751 -0.2337,0.7906 -0.2335,0.8062 -0.2333,0.8218 -0.2327,0.8375 -0.2321,0.8531 -0.2312,0.8687 -0.2303,0.8844 -0.2291,0.9001 -0.2278,0.9158 -0.2263,0.9316 -0.2247,0.9472 -0.2228,0.963 -0.2209,0.9787 -0.2188,0.9945 -0.2165,1.0103 -0.2139,1.026 -0.2114,1.0417 -0.2085,1.0576 -0.2056,1.0733 -0.2025,1.089 -0.1991,1.1048 -0.1957,1.1206 -0.1921,1.1363 -0.1883,1.1521 -0.1843,1.1678 -0.1801,1.1835 -0.1759,1.1993 -0.1714,1.2149 0.3842,0.3531 9.8549,6.0447 0.4889,0.1824 1.0053,-0.7035 0.9892,-0.7003 0.9733,-0.6971 0.9575,-0.6936 0.9415,-0.69 0.9259,-0.6862 0.9101,-0.6824 0.8946,-0.6783 0.879,-0.6741 0.8635,-0.6697 0.8481,-0.6652 0.8328,-0.6606 0.8176,-0.6558 0.8024,-0.6508 0.7873,-0.6458 0.7723,-0.6405 0.7574,-0.6352 0.7425,-0.6296 0.7278,-0.624 0.7131,-0.6181 0.6984,-0.6122 0.684,-0.6062 0.6696,-0.5998 0.6552,-0.5936 0.641,-0.587 0.6268,-0.5804 0.6128,-0.5736 0.5988,-0.5667 0.585,-0.5596 0.5711,-0.5525 0.5575,-0.5451 0.5439,-0.5377 0.5304,-0.5301 0.5171,-0.5224 0.5037,-0.5146 0.4906,-0.5066 0.4774,-0.4985 0.4645,-0.4903 2.9649,-0.3331 9.2236,5.0521 1.3157,2.6777 -0.163,0.6554 -0.163,0.6708 -0.1627,0.6861 -0.1624,0.7016 -0.1618,0.7169 -0.1611,0.7324 -0.1602,0.7479 -0.1592,0.7633 -0.158,0.7787 -0.1566,0.7943 -0.1551,0.8097 -0.1534,0.8252 -0.1516,0.8408 -0.1495,0.8562 -0.1473,0.8717 -0.145,0.8872 -0.1425,0.9027 -0.1398,0.9183 -0.1369,0.9337 -0.1339,0.9492 -0.1308,0.9647 -0.1274,0.9802 -0.1239,0.9957 -0.1202,1.0112 -0.1164,1.0266 -0.1124,1.042 -0.1082,1.0575 -0.1039,1.0728 -0.0994,1.0883 -0.0948,1.1037 -0.0899,1.119 -0.0849,1.1343 -0.0797,1.1497 -0.0745,1.165 -0.0689,1.1802 -0.0633,1.1955 -0.0575,1.2107 -0.0515,1.2259 0.417,0.3138 10.3999,5.0496 0.5044,0.1336 0.9315,-0.7986 0.9159,-0.794 0.9003,-0.7891 0.8848,-0.7841 0.8694,-0.7789 0.8541,-0.7737 0.8389,-0.7683 0.8238,-0.7627 0.8087,-0.757 0.7937,-0.7512 0.7788,-0.7451 0.7641,-0.7391 0.7493,-0.7327 0.7348,-0.7264 0.7202,-0.7198 0.7058,-0.7131 0.6915,-0.7064 0.6772,-0.6993 0.6631,-0.6923 0.649,-0.6851 0.6352,-0.6777 0.6212,-0.6703 0.6076,-0.6626 0.5939,-0.6549 0.5803,-0.647 0.567,-0.6391 0.5536,-0.6309 0.5404,-0.6226 0.5272,-0.6143 0.5143,-0.6058 0.5014,-0.5972 0.4885,-0.5884 0.4759,-0.5795 0.4634,-0.5706 0.4508,-0.5614 0.4386,-0.5523 0.4263,-0.5429 0.4142,-0.5334 2.9179,-0.6221 9.6744,4.1237 1.5719,2.5358 -0.098,0.6682 -0.0965,0.6835 -0.0947,0.6988 -0.0928,0.7141 -0.0907,0.7294 -0.0886,0.7446 -0.0861,0.76 -0.0837,0.7752 -0.0809,0.7905 -0.078,0.8058 -0.075,0.821 -0.0717,0.8363 -0.0685,0.8515 -0.0648,0.8668 -0.0612,0.8819 -0.0573,0.8972 -0.0533,0.9124 -0.0491,0.9275 -0.0448,0.9426 -0.0402,0.9578 -0.0356,0.9729 -0.0307,0.988 -0.0257,1.003 -0.0206,1.018 -0.0152,1.0331 -0.01,1.048 -0.004,1.063 0.002,1.0779 0.008,1.0928 0.0139,1.1076 0.0202,1.1225 0.0267,1.1372 0.0333,1.1519 0.0401,1.1667 0.0471,1.1813 0.0542,1.1959 0.0614,1.2106 0.0689,1.225 0.4457,0.2714 10.8448,4.0059 0.5151,0.0835 0.8487,-0.8861 0.8337,-0.8799 0.8186,-0.8735 0.8037,-0.8671 0.7889,-0.8604 0.7741,-0.8537 0.7596,-0.8468 0.745,-0.8397 0.7306,-0.8327 0.7163,-0.8253 0.702,-0.8179 0.688,-0.8104 0.6739,-0.8027 0.66,-0.7948 0.6462,-0.787 0.6325,-0.7789 0.6189,-0.7707 0.6054,-0.7624 0.5921,-0.7539 0.5788,-0.7454 0.5656,-0.7367 0.5526,-0.7279 0.5396,-0.719 0.5269,-0.71 0.5141,-0.7008 0.5016,-0.6915 0.4891,-0.6821 0.4768,-0.6727 0.4645,-0.663 0.4524,-0.6532 0.4404,-0.6435 0.4286,-0.6334 0.4168,-0.6235 0.4051,-0.6132 0.3937,-0.6029 0.3823,-0.5926 0.3711,-0.5821 0.3599,-0.5714 2.8429,-0.9052 10.032,3.1556 1.8128,2.3696 -0.032,0.6746 -0.029,0.6897 -0.0257,0.7047 -0.0224,0.7197 -0.0189,0.7348 -0.0151,0.7497 -0.0112,0.7648 -0.007,0.7797 -0.003,0.7946 0.001,0.8095 0.006,0.8245 0.0105,0.8392 0.0154,0.8542 0.0204,0.8689 0.0256,0.8837 0.0309,0.8985 0.0363,0.9132 0.0421,0.9278 0.0478,0.9425 0.0539,0.9571 0.0599,0.9717 0.0663,0.9862 0.0727,1.0008 0.0794,1.0151 0.0861,1.0296 0.0931,1.0439 0.1001,1.0583 0.1074,1.0725 0.1149,1.0868 0.1224,1.1009 0.1301,1.1151 0.138,1.1291 0.1461,1.1431 0.1543,1.1572 0.1626,1.171 0.1711,1.1848 0.1798,1.1987 0.1887,1.2124 0.4702,0.2264 11.1852,2.9236 0.5208,0.0327 0.7578,-0.9651 0.7433,-0.9573 0.7291,-0.9496 0.7148,-0.9416 0.7008,-0.9337 0.6868,-0.9254 0.6728,-0.9172 0.6592,-0.9087 0.6454,-0.9003 0.632,-0.8915 0.6185,-0.8828 0.6052,-0.8739 0.592,-0.8649 0.5789,-0.8557 0.5659,-0.8465 0.5531,-0.8372 0.5404,-0.8276 0.5278,-0.8181 0.5153,-0.8083 0.5029,-0.7986 0.4907,-0.7886 0.4786,-0.7785 0.4666,-0.7685 0.4547,-0.7581 0.443,-0.7479 0.4314,-0.7373 0.4199,-0.7268 0.4085,-0.7161 0.3973,-0.7054 0.3862,-0.6944 0.3752,-0.6835 0.3644,-0.6725 0.3537,-0.6612 0.3431,-0.65 0.3327,-0.6386 0.3224,-0.6272 0.3122,-0.6157 0.3022,-0.6039 2.7404,-1.1795 10.2931,2.1571 2.0363,2.1805 0.0343,0.6745 0.0387,0.6892 0.0435,0.7038 0.0482,0.7185 0.0533,0.733 0.0585,0.7477 0.0637,0.7621 0.0692,0.7767 0.0749,0.7911 0.0807,0.8055 0.0866,0.8198 0.0928,0.8343 0.099,0.8485 0.1055,0.8627 0.112,0.877 0.1188,0.8911 0.1257,0.9052 0.1328,0.9193 0.14,0.9332 0.1474,0.9473 0.1549,0.9611 0.1627,0.975 0.1704,0.9888 0.1785,1.0025 0.1866,1.0161 0.1949,1.0298 0.2035,1.0434 0.212,1.0568 0.2208,1.0703 0.2297,1.0836 0.2388,1.0969 0.248,1.1102 0.2574,1.1233 0.267,1.1364 0.2766,1.1495 0.2865,1.1624 0.2964,1.1752 0.3066,1.1881 0.4901,0.1792 11.4179,1.8132 0.5215,-0.0185 0.6595,-1.0347 0.646,-1.0256 0.6325,-1.0165 0.6191,-1.0072 0.6058,-0.9978 0.5928,-0.9883 0.5797,-0.9787 0.5669,-0.969 0.5541,-0.9591 0.5415,-0.9492 0.529,-0.9392 0.5166,-0.929 0.5044,-0.9187 0.4923,-0.9084 0.4802,-0.8979 0.4684,-0.8873 0.4567,-0.8766 0.445,-0.8659 0.4336,-0.855 0.4223,-0.8439 0.411,-0.833 0.4,-0.8217 0.389,-0.8105 0.3782,-0.799 0.3676,-0.7877 0.357,-0.7761 0.3466,-0.7644 0.3364,-0.7527 0.3262,-0.7409 0.3163,-0.729 0.3064,-0.717 0.2967,-0.7049 0.2872,-0.6927 0.2778,-0.6805 0.2685,-0.6682 0.2593,-0.6557 0.2504,-0.6433 0.2415,-0.6307 2.6117,-1.4424 10.4549,1.1378 2.2402,1.9704 0.1002,0.6679 0.1061,0.6821 0.1123,0.6962 0.1184,0.7102 0.1249,0.7243 0.1314,0.7383 0.1382,0.7523 0.145,0.7661 0.1521,0.7799 0.1592,0.7938 0.1666,0.8074 0.1741,0.8211 0.1817,0.8347 0.1895,0.8483 0.1975,0.8617 0.2056,0.8752 0.2138,0.8885 0.2222,0.9019 0.2308,0.915 0.2396,0.9283 0.2484,0.9413 0.2574,0.9543 0.2665,0.9673 0.2759,0.9802 0.2853,0.993 0.2949,1.0057 0.3047,1.0184 0.3146,1.031 0.3247,1.0434 0.3348,1.0559 0.3452,1.0683 0.3556,1.0805 0.3663,1.0927 0.377,1.1047 0.388,1.1168 0.399,1.1287 0.4102,1.1406 0.4216,1.1523 0.5053,0.1303 11.5406,0.6853 0.5172,-0.0696 0.555,-1.0943 0.5423,-1.084 0.5298,-1.0735 0.5174,-1.063 0.5051,-1.0524 0.493,-1.0417 0.4811,-1.0308 0.4691,-1.0199 0.4575,-1.0088 0.4458,-0.9978 0.4344,-0.9864 0.4231,-0.9752 0.4119,-0.9638 0.4008,-0.9522 0.39,-0.9406 0.3791,-0.929 0.3686,-0.9172 0.358,-0.9053 0.3477,-0.8933 0.3375,-0.8813 0.3274,-0.8692 0.3175,-0.857 0.3077,-0.8447 0.2981,-0.8323 0.2886,-0.8199 0.2792,-0.8073 0.27,-0.7948 0.261,-0.782 0.2521,-0.7693 0.2432,-0.7565 0.2347,-0.7436 0.2262,-0.7306 0.2179,-0.7175 0.2097,-0.7044 0.2017,-0.6913 0.1939,-0.678 0.1861,-0.6647 0.1785,-0.6514 2.4577,-1.6914 10.5161,0.1076 2.4226,1.7413 0.1652,0.6548 0.1725,0.6684 0.1799,0.6819 0.1875,0.6952 0.1953,0.7086 0.2031,0.7218 0.2113,0.7351 0.2194,0.7482 0.2277,0.7613 0.2363,0.7743 0.2449,0.7872 0.2538,0.8001 0.2626,0.8129 0.2718,0.8256 0.2809,0.8383 0.2904,0.8508 0.2999,0.8633 0.3096,0.8757 0.3194,0.888 0.3293,0.9003 0.3395,0.9124 0.3497,0.9245 0.3601,0.9365 0.3706,0.9485 0.3813,0.9602 0.3921,0.972 0.403,0.9836 0.4141,0.9952 0.4254,1.0066 0.4367,1.018 0.4482,1.0292 0.4599,1.0405 0.4716,1.0515 0.4835,1.0625 0.4955,1.0734 0.5078,1.0842 0.52,1.0948 0.5325,1.1054 0.5156,0.0802 11.5523,-0.4492 0.5078,-0.1199 0.4451,-1.1434 0.4334,-1.132 0.422,-1.1203 0.4107,-1.1086 0.3996,-1.0968 0.3885,-1.085 0.3777,-1.073 0.367,-1.061 0.3563,-1.0488 0.3459,-1.0366 0.3356,-1.0243 0.3255,-1.012 0.3154,-0.9994 0.3056,-0.987 0.2959,-0.9743 0.2863,-0.9617 0.2768,-0.9488 0.2676,-0.9361 0.2585,-0.9231 0.2494,-0.9102 0.2407,-0.8971 0.232,-0.8839 0.2234,-0.8708 0.215,-0.8575 0.2069,-0.8442 0.1987,-0.8309 0.1909,-0.8173 0.183,-0.8039 0.1755,-0.7903 0.1679,-0.7767 0.1607,-0.763 0.1535,-0.7492 0.1465,-0.7355 0.1397,-0.7216 0.1329,-0.7077 0.1265,-0.6938 0.12,-0.6797 0.1139,-0.6657 2.2801,-1.9242 10.4759,-0.9237 2.5817,1.4955 0.2285,0.6355 0.2372,0.6483 0.2459,0.6609 0.2547,0.6735 0.2638,0.686 0.273,0.6985 0.2822,0.7108 0.2917,0.7231 0.3013,0.7353 0.311,0.7474 0.3209,0.7595 0.331,0.7713 0.341,0.7833 0.3514,0.795 0.3618,0.8066 0.3724,0.8183 0.383,0.8297 0.3939,0.8411 0.4049,0.8525 0.416,0.8637 0.4273,0.8747 0.4386,0.8858 0.4502,0.8967 0.4618,0.9075 0.4735,0.9183 0.4855,0.9289 0.4975,0.9393 0.5097,0.9498 0.522,0.9601 0.5344,0.9703 0.5469,0.9804 0.5596,0.9903 0.5724,1.0003 0.5854,1.0099 0.5983,1.0197 0.6116,1.0292 0.6248,1.0386 0.6383,1.0479 0.521,0.0292 11.4526,-1.5793 0.4937,-0.1691 0.3308,-1.1816 0.3204,-1.1689 0.3102,-1.1563 0.3,-1.1436 0.2902,-1.1307 0.2803,-1.1178 0.2707,-1.1049 0.2612,-1.0918 0.2518,-1.0787 0.2426,-1.0655 0.2336,-1.0523 0.2247,-1.039 0.216,-1.0256 0.2074,-1.0121 0.1989,-0.9986 0.1906,-0.9851 0.1826,-0.9715 0.1745,-0.9577 0.1667,-0.944 0.1591,-0.9303 0.1516,-0.9163 0.1442,-0.9025 0.137,-0.8885 0.13,-0.8744 0.123,-0.8605 0.1164,-0.8463 0.1098,-0.8321 0.1034,-0.8179 0.0971,-0.8037 0.091,-0.7894 0.0851,-0.7751 0.0794,-0.7607 0.0737,-0.7463 0.0683,-0.7318 0.0629,-0.7173 0.0578,-0.7028 0.0529,-0.6883 0.048,-0.6736 2.0806,-2.1384 10.3349,-1.9461 2.7158,1.2352 0.2898,0.6101 0.2995,0.6219 0.3095,0.6336 0.3196,0.6453 0.3297,0.6569 0.3401,0.6683 0.3506,0.6798 0.3611,0.691 0.372,0.7022 0.3827,0.7133 0.3938,0.7244 0.405,0.7352 0.4162,0.746 0.4276,0.7567 0.4391,0.7674 0.4508,0.7778 0.4625,0.7882 0.4745,0.7984 0.4865,0.8087 0.4986,0.8187 0.511,0.8287 0.5233,0.8385 0.5359,0.8483 0.5485,0.8579 0.5613,0.8674 0.5742,0.8768 0.5872,0.8861 0.6003,0.8952 0.6136,0.9044 0.6269,0.9132 0.6404,0.922 0.654,0.9308 0.6677,0.9393 0.6815,0.9477 0.6954,0.9561 0.7095,0.9643 0.7236,0.9724 0.7379,0.9803 0.5214,-0.022 11.2426,-2.6943 0.4748,-0.2167 0.2134,-1.2083 0.2043,-1.1947 0.1953,-1.1811 0.1865,-1.1675 0.1779,-1.1537 0.1695,-1.1399 0.1611,-1.1261 0.1529,-1.1121 0.1449,-1.0982 0.137,-1.0842 0.1293,-1.0701 0.1218,-1.056 0.1144,-1.0418 0.1072,-1.0276 0.1,-1.0134 0.0932,-0.999 0.0864,-0.9846 0.0799,-0.9703 0.0734,-0.9558 0.0671,-0.9413 0.061,-0.9268 0.0551,-0.9123 0.0492,-0.8976 0.0436,-0.883 0.0382,-0.8684 0.0329,-0.8536 0.0277,-0.8389 0.0227,-0.8241 0.0179,-0.8094 0.0132,-0.7945 0.009,-0.7797 0.004,-0.7648 2e-4,-0.7499 -0.004,-0.735 -0.008,-0.72 -0.0114,-0.7051 -0.0148,-0.6901 -0.0183,-0.6751 1.8609,-2.332 10.0945,-2.9498 2.8238,0.9631 0.3481,0.5787 0.3591,0.5895 0.3701,0.6003 0.3813,0.6109 0.3925,0.6214 0.404,0.6318 0.4155,0.6421 0.4272,0.6523 0.4389,0.6624 0.4509,0.6723 0.4629,0.6823 0.475,0.692 0.4873,0.7016 0.4997,0.7112 0.5123,0.7205 0.5248,0.7299 0.5376,0.7391 0.5504,0.7481 0.5634,0.7571 0.5765,0.7659 0.5897,0.7746 0.6031,0.7832 0.6164,0.7917 0.63,0.8 0.6436,0.8082 0.6573,0.8163 0.6713,0.8242 0.6851,0.8321 0.6993,0.8399 0.7134,0.8473 0.7277,0.8549 0.7421,0.8621 0.7565,0.8694 0.7711,0.8764 0.7858,0.8833 0.8006,0.8901 0.8155,0.8967 0.8304,0.9033 0.5167,-0.073 10.9244,-3.7832 0.4512,-0.2622 0.094,-1.2234 0.0862,-1.209 0.0786,-1.1946 0.0712,-1.1801 0.064,-1.1656 0.0568,-1.1511 0.05,-1.1364 0.0431,-1.1218 0.0366,-1.1071 0.0301,-1.0924 0.0238,-1.0776 0.0177,-1.0629 0.0117,-1.048 0.006,-1.0331 2e-4,-1.0183 -0.005,-1.0033 -0.0105,-0.9884 -0.0157,-0.9734 -0.0206,-0.9584 -0.0255,-0.9434 -0.0301,-0.9283 -0.0347,-0.9133 -0.0389,-0.8981 -0.0432,-0.8831 -0.0471,-0.8678 -0.051,-0.8528 -0.0546,-0.8376 -0.0582,-0.8224 -0.0615,-0.8072 -0.0648,-0.792 -0.0677,-0.7767 -0.0706,-0.7616 -0.0733,-0.7463 -0.0758,-0.7311 -0.0782,-0.7158 -0.0804,-0.7006 -0.0824,-0.6853 -0.0843,-0.6701 1.6233,-2.5032 9.7568,-3.9249 2.9045,0.6816 0.4032,0.5418 0.4152,0.5515 0.4271,0.5611 0.4393,0.5706 0.4516,0.5799 0.4639,0.5892 0.4765,0.5982 0.489,0.6073 0.5018,0.6162 0.5146,0.6249 0.5275,0.6336 0.5406,0.6421 0.5537,0.6505 0.5671,0.6588 0.5803,0.6669 0.5939,0.6749 0.6074,0.6828 0.6212,0.6906 0.6349,0.6982 0.6488,0.7057 0.6628,0.7131 0.6768,0.7203 0.6911,0.7274 0.7053,0.7344 0.7198,0.7413 0.7342,0.7479 0.7488,0.7545 0.7634,0.7609 0.7782,0.7673 0.793,0.7734 0.808,0.7793 0.823,0.7853 0.8381,0.791 0.8533,0.7966 0.8686,0.802 0.884,0.8074 0.8994,0.8125 0.915,0.8175 0.5071,-0.1233 10.501,-4.8358 0.4233,-0.3052 -0.0264,-1.2267 -0.0328,-1.2116 -0.0388,-1.1965 -0.0448,-1.1814 -0.0506,-1.1663 -0.0562,-1.151 -0.0617,-1.1359 -0.067,-1.1206 -0.0721,-1.1054 -0.0772,-1.0901 -0.0819,-1.0747 -0.0866,-1.0595 -0.091,-1.0441 -0.0954,-1.0288 -0.0995,-1.0134 -0.1035,-0.998 -0.1073,-0.9826 -0.111,-0.9672 -0.1145,-0.9517 -0.1178,-0.9364 -0.121,-0.9209 -0.124,-0.9054 -0.1268,-0.89 -0.1295,-0.8746 -0.1319,-0.8591 -0.1344,-0.8436 -0.1365,-0.8282 -0.1385,-0.8127 -0.1403,-0.7973 -0.142,-0.7818 -0.1436,-0.7664 -0.1449,-0.751 -0.1461,-0.7355 -0.1471,-0.7202 -0.148,-0.7047 -0.1487,-0.6893 -0.1492,-0.674 -0.1496,-0.6585 1.3702,-2.6503 9.3251,-4.8624 2.9574,0.3937 0.4544,0.4997 0.4671,0.5081 0.4801,0.5165 0.4931,0.5248 0.5063,0.5329 0.5194,0.5408 0.5328,0.5487 0.5462,0.5565 0.5598,0.564 0.5734,0.5715 0.5871,0.5788 0.6009,0.586 0.6148,0.5931 0.6289,0.6 0.6429,0.6068 0.6572,0.6135 0.6714,0.62 0.6858,0.6263 0.7003,0.6326 0.7149,0.6388 0.7295,0.6446 0.7442,0.6506 0.759,0.6561 0.774,0.6618 0.7889,0.6671 0.804,0.6724 0.8191,0.6774 0.8343,0.6825 0.8497,0.6872 0.865,0.692 0.8805,0.6964 0.896,0.7008 0.9116,0.7051 0.9273,0.7091 0.943,0.713 0.9589,0.7168 0.9747,0.7205 0.9907,0.7239 0.4925,-0.1724 9.9765,-5.8418 0.3913,-0.3452 -0.1465,-1.2182 -0.1513,-1.2026 -0.156,-1.187 -0.1603,-1.1713 -0.1647,-1.1557 -0.1688,-1.14 -0.1727,-1.1243 -0.1765,-1.1087 -0.1802,-1.093 -0.1835,-1.0772 -0.1869,-1.0616 -0.19,-1.0459 -0.193,-1.0302 -0.1957,-1.0144 -0.1984,-0.9988 -0.2008,-0.983 -0.2032,-0.9674 -0.2052,-0.9516 -0.2072,-0.936 -0.2091,-0.9203 -0.2106,-0.9046 -0.2121,-0.8889 -0.2135,-0.8733 -0.2145,-0.8576 -0.2156,-0.8421 -0.2164,-0.8264 -0.217,-0.8108 -0.2175,-0.7952 -0.2178,-0.7797 -0.218,-0.7642 -0.218,-0.7486 -0.2178,-0.7332 -0.2175,-0.7176 -0.2169,-0.7023 -0.2164,-0.6868 -0.2155,-0.6714 -0.2146,-0.6561 -0.2134,-0.6408 1.1038,-2.7718 8.8036,-5.7529 2.9818,0.1019 0.5011,0.4527 0.5147,0.4599 0.5285,0.467 0.5421,0.4739 0.556,0.4807 0.57,0.4873 0.584,0.4938 0.5982,0.5003 0.6123,0.5064 0.6266,0.5125 0.641,0.5185 0.6555,0.5243 0.67,0.53 0.6846,0.5355 0.6994,0.5408 0.7141,0.5461 0.729,0.5512 0.7439,0.5562 0.7589,0.5609 0.774,0.5656 0.7892,0.57 0.8044,0.5745 0.8197,0.5786 0.835,0.5827 0.8505,0.5865 0.8661,0.5904 0.8815,0.5939 0.8973,0.5974 0.9129,0.6006 0.9287,0.6038 0.9445,0.6068 0.9604,0.6097 0.9763,0.6122 0.9923,0.6149 1.0084,0.6171 1.0245,0.6194 1.0406,0.6214 1.0569,0.6233 0.4733,-0.2198 9.3558,-6.7915 0.3556,-0.3819 -0.2652,-1.198 -0.2685,-1.182 -0.2715,-1.1659 -0.2744,-1.15 -0.2772,-1.134 -0.2797,-1.118 -0.2821,-1.102 -0.2843,-1.086 -0.2864,-1.07 -0.2883,-1.0541 -0.29,-1.0382 -0.2916,-1.0222 -0.293,-1.0063 -0.2943,-0.9903 -0.2953,-0.9745 -0.2962,-0.9587 -0.297,-0.9428 -0.2975,-0.9269 -0.298,-0.9111 -0.2982,-0.8954 -0.2983,-0.8796 -0.2982,-0.8639 -0.298,-0.8481 -0.2976,-0.8325 -0.2971,-0.8169 -0.2963,-0.8012 -0.2955,-0.7856 -0.2944,-0.7701 -0.2932,-0.7546 -0.2918,-0.7391 -0.2903,-0.7237 -0.2886,-0.7082 -0.2868,-0.693 -0.2848,-0.6775 -0.2826,-0.6623 -0.2803,-0.6471 -0.2778,-0.6319 -0.2752,-0.6168 0.8268,-2.8666 8.1973,-6.5882 2.9774,-0.1908 0.5431,0.4014 0.5573,0.4072 0.5717,0.413 0.586,0.4184 0.6004,0.4239 0.615,0.4291 0.6296,0.4343 0.6443,0.4391 0.659,0.444 0.6739,0.4487 0.6887,0.4531 0.7037,0.4576 0.7187,0.4617 0.7339,0.4658 0.7489,0.4697 0.7642,0.4735 0.7795,0.4771 0.7949,0.4805 0.8102,0.4838 0.8258,0.487 0.8412,0.49 0.8568,0.4928 0.8725,0.4955 0.8882,0.498 0.9039,0.5004 0.9197,0.5026 0.9355,0.5047 0.9515,0.5065 0.9674,0.5083 0.9834,0.5099 0.9994,0.5113 1.0155,0.5125 1.0317,0.5137 1.0478,0.5146 1.064,0.5153 1.0803,0.516 1.0965,0.5164 1.1129,0.5168 0.4494,-0.2652 8.6451,-7.6759 0.3165,-0.4149 -0.3814,-1.1662 -0.383,-1.15 -0.3845,-1.1337 -0.3858,-1.1175 -0.387,-1.1014 -0.3879,-1.0852 -0.3888,-1.069 -0.3894,-1.0529 -0.3899,-1.0368 -0.3902,-1.0208 -0.3904,-1.0047 -0.3904,-0.9887 -0.3902,-0.9727 -0.3899,-0.9568 -0.3894,-0.9409 -0.3888,-0.925 -0.3879,-0.9091 -0.387,-0.8933 -0.3858,-0.8776 -0.3846,-0.8618 -0.3831,-0.8461 -0.3814,-0.8305 -0.3797,-0.8149 -0.3778,-0.7993 -0.3757,-0.7838 -0.3734,-0.7683 -0.3711,-0.7529 -0.3684,-0.7375 -0.3658,-0.7222 -0.3628,-0.707 -0.3599,-0.6917 -0.3566,-0.6766 -0.3533,-0.6614 -0.3499,-0.6464 -0.3461,-0.6314 -0.3424,-0.6165 -0.3384,-0.6016 -0.3344,-0.5869 0.5419,-2.9338 7.512,-7.36 2.9444,-0.4817 0.5798,0.3462 0.5946,0.3507 0.6094,0.3549 0.6242,0.359 0.6391,0.363 0.6541,0.3668 0.6691,0.3704 0.6842,0.3739 0.6994,0.3773 0.7146,0.3804 0.7298,0.3835 0.7452,0.3863 0.7605,0.3891 0.7759,0.3916 0.7915,0.3941 0.8069,0.3962 0.8225,0.3984 0.8381,0.4003 0.8538,0.4021 0.8695,0.4037 0.8852,0.4052 0.901,0.4064 0.9168,0.4076 0.9327,0.4086 0.9486,0.4094 0.9646,0.41 0.9805,0.4106 0.9965,0.4108 1.0126,0.411 1.0286,0.4111 1.0447,0.4108 1.0609,0.4106 1.077,0.41 1.0932,0.4094 1.1094,0.4086 1.1257,0.4076 1.1419,0.4065 1.1581,0.4051 0.4213,-0.3079 7.8511,-8.4863 0.2743,-0.4439 -0.4939,-1.1232 -0.4939,-1.1069 -0.4937,-1.0906 -0.4935,-1.0743 -0.4931,-1.0581 -0.4924,-1.042 -0.4917,-1.0258 -0.4907,-1.0096 -0.4897,-0.9937 -0.4884,-0.9775 -0.487,-0.9617 -0.4854,-0.9456 -0.4837,-0.9298 -0.4818,-0.914 -0.4797,-0.8981 -0.4776,-0.8825 -0.4752,-0.8667 -0.4726,-0.8511 -0.47,-0.8355 -0.4672,-0.82 -0.4642,-0.8045 -0.461,-0.7891 -0.4578,-0.7737 -0.4542,-0.7584 -0.4507,-0.7432 -0.447,-0.728 -0.443,-0.7129 -0.439,-0.6979 -0.4348,-0.6829 -0.4304,-0.668 -0.4259,-0.6531 -0.4213,-0.6383 -0.4164,-0.6237 -0.4115,-0.609 -0.4064,-0.5944 -0.4012,-0.58 -0.3957,-0.5655 -0.3902,-0.5513 0.2516,-2.9728 6.7545,-8.0608 2.883,-0.768 0.611,0.2877 0.626,0.2907 0.6412,0.2935 0.6564,0.2961 0.6716,0.2986 0.6869,0.3008 0.7023,0.3031 0.7175,0.305 0.733,0.3069 0.7484,0.3086 0.7639,0.3101 0.7795,0.3114 0.795,0.3127 0.8106,0.3137 0.8262,0.3145 0.8419,0.3153 0.8576,0.3159 0.8733,0.3162 0.8891,0.3165 0.9048,0.3165 0.9207,0.3165 0.9365,0.3161 0.9524,0.3158 0.9682,0.3152 0.9842,0.3144 1.0001,0.3136 1.016,0.3124 1.032,0.3112 1.048,0.3098 1.064,0.3082 1.0799,0.3065 1.096,0.3046 1.1121,0.3025 1.128,0.3003 1.1441,0.2979 1.1602,0.2953 1.1762,0.2926 1.1923,0.2896 0.3891,-0.3477 6.9815,-9.215 0.2295,-0.4687 -0.6016,-1.0693 -0.6,-1.0532 -0.5983,-1.0369 -0.5964,-1.0208 -0.5944,-1.0047 -0.5922,-0.9887 -0.5899,-0.9726 -0.5873,-0.9567 -0.5847,-0.9409 -0.5819,-0.925 -0.5789,-0.9092 -0.5757,-0.8936 -0.5725,-0.8779 -0.5691,-0.8623 -0.5655,-0.8468 -0.5617,-0.8314 -0.5579,-0.816 -0.5538,-0.8006 -0.5496,-0.7855 -0.5453,-0.7702 -0.5408,-0.7551 -0.5361,-0.7401 -0.5314,-0.7252 -0.5265,-0.7102 -0.5213,-0.6955 -0.5162,-0.6807 -0.5108,-0.666 -0.5052,-0.6515 -0.4997,-0.637 -0.4938,-0.6225 -0.4879,-0.6083 -0.4817,-0.5939 -0.4756,-0.5799 -0.4692,-0.5657 -0.4627,-0.5518 -0.4561,-0.5378 -0.4493,-0.524 -0.4424,-0.5103 -0.0409,-2.9833 5.9319,-8.684 2.7937,-1.0469 0.6363,0.2265 0.6516,0.2279 0.6668,0.2292 0.6823,0.2303 0.6977,0.2314 0.713,0.2321 0.7286,0.2327 0.744,0.2333 0.7595,0.2335 0.7751,0.2338 0.7906,0.2337 0.8062,0.2335 0.8218,0.2333 0.8375,0.2327 0.8531,0.2321 0.8687,0.2312 0.8844,0.2303 0.9001,0.2291 0.9158,0.2278 0.9316,0.2263 0.9472,0.2247 0.963,0.2228 0.9787,0.2209 0.9945,0.2188 1.0103,0.2165 1.026,0.2139 1.0417,0.2114 1.0576,0.2085 1.0733,0.2056 1.089,0.2025 1.1048,0.1991 1.1206,0.1957 1.1363,0.1921 1.1521,0.1883 1.1678,0.1843 1.1835,0.1801 1.1993,0.1759 1.2149,0.1714 0.3531,-0.3842 6.0447,-9.8549 0.1824,-0.4889 -0.7035,-1.0053 -0.7003,-0.9892 -0.6971,-0.9733 -0.6936,-0.9575 -0.69,-0.9415 -0.6862,-0.9259 -0.6824,-0.9101 -0.6783,-0.8946 -0.6741,-0.879 -0.6697,-0.8635 -0.6652,-0.8481 -0.6606,-0.8328 -0.6558,-0.8176 -0.6508,-0.8024 -0.6458,-0.7873 -0.6405,-0.7723 -0.6352,-0.7574 -0.6296,-0.7425 -0.624,-0.7278 -0.6181,-0.7131 -0.6122,-0.6984 -0.6062,-0.684 -0.5998,-0.6696 -0.5936,-0.6552 -0.587,-0.641 -0.5804,-0.6268 -0.5736,-0.6128 -0.5667,-0.5988 -0.5596,-0.585 -0.5525,-0.5711 -0.5451,-0.5575 -0.5377,-0.5439 -0.5301,-0.5304 -0.5224,-0.5171 -0.5146,-0.5037 -0.5066,-0.4906 -0.4985,-0.4774 -0.4903,-0.4645 -0.3331,-2.9649 5.0521,-9.2236 2.6777,-1.3157 0.6554,0.163 0.6708,0.163 0.6861,0.1627 0.7016,0.1624 0.7169,0.1618 0.7324,0.1611 0.7479,0.1602 0.7633,0.1592 0.7787,0.158 0.7943,0.1566 0.8097,0.1551 0.8252,0.1534 0.8408,0.1516 0.8562,0.1495 0.8717,0.1473 0.8872,0.145 0.9027,0.1425 0.9183,0.1398 0.9337,0.1369 0.9492,0.1339 0.9647,0.1308 0.9802,0.1274 0.9957,0.1239 1.0112,0.1202 1.0266,0.1164 1.042,0.1124 1.0575,0.1082 1.0728,0.1039 1.0883,0.0994 1.1037,0.0948 1.119,0.0899 1.1343,0.0849 1.1497,0.0797 1.165,0.0745 1.1802,0.0689 1.1955,0.0633 1.2107,0.0575 1.2259,0.0515 0.3138,-0.417 5.0496,-10.3999 0.1336,-0.5044 -0.7986,-0.9315 -0.794,-0.9159 -0.7891,-0.9003 -0.7841,-0.8848 -0.7789,-0.8694 -0.7737,-0.8541 -0.7683,-0.8389 -0.7627,-0.8238 -0.757,-0.8087 -0.7512,-0.7937 -0.7451,-0.7788 -0.7391,-0.7641 -0.7327,-0.7493 -0.7264,-0.7348 -0.7198,-0.7202 -0.7131,-0.7058 -0.7064,-0.6915 -0.6993,-0.6772 -0.6923,-0.6631 -0.6851,-0.649 -0.6777,-0.6352 -0.6703,-0.6212 -0.6626,-0.6076 -0.6549,-0.5939 -0.647,-0.5803 -0.6391,-0.567 -0.6309,-0.5536 -0.6226,-0.5404 -0.6143,-0.5272 -0.6058,-0.5143 -0.5972,-0.5014 -0.5884,-0.4885 -0.5795,-0.4759 -0.5706,-0.4634 -0.5614,-0.4508 -0.5523,-0.4386 -0.5429,-0.4263 -0.5334,-0.4142 -0.6221,-2.9179 4.1237,-9.6744 2.5358,-1.5719 0.6682,0.098 0.6835,0.0965 0.6988,0.0947 0.7141,0.0928 0.7294,0.0907 0.7446,0.0886 0.76,0.0861 0.7752,0.0837 0.7905,0.0809 0.8058,0.078 0.821,0.075 0.8363,0.0717 0.8515,0.0685 0.8668,0.0648 0.8819,0.0612 0.8972,0.0573 0.9124,0.0533 0.9275,0.0491 0.9426,0.0448 0.9578,0.0402 0.9729,0.0356 0.988,0.0307 1.003,0.0257 1.018,0.0206 1.0331,0.0152 1.048,0.01 1.063,0.004 1.0779,-0.002 1.0928,-0.008 1.1076,-0.0139 1.1225,-0.0202 1.1372,-0.0267 1.1519,-0.0333 1.1667,-0.0401 1.1813,-0.0471 1.1959,-0.0542 1.2106,-0.0614 1.225,-0.0689 0.2714,-0.4457 4.0059,-10.8448 0.0835,-0.5151 -0.8861,-0.8487 -0.8799,-0.8337 -0.8735,-0.8186 -0.8671,-0.8037 -0.8604,-0.7889 -0.8537,-0.7741 -0.8468,-0.7596 -0.8397,-0.745 -0.8327,-0.7306 -0.8253,-0.7163 -0.8179,-0.702 -0.8104,-0.688 -0.8027,-0.6739 -0.7948,-0.66 -0.787,-0.6462 -0.7789,-0.6325 -0.7707,-0.6189 -0.7624,-0.6054 -0.7539,-0.5921 -0.7454,-0.5788 -0.7367,-0.5656 -0.7279,-0.5526 -0.719,-0.5396 -0.71,-0.5269 -0.7008,-0.5141 -0.6915,-0.5016 -0.6821,-0.4891 -0.6727,-0.4768 -0.663,-0.4645 -0.6532,-0.4524 -0.6435,-0.4404 -0.6334,-0.4286 -0.6235,-0.4168 -0.6132,-0.4051 -0.6029,-0.3937 -0.5926,-0.3823 -0.5821,-0.3711 -0.5714,-0.3599 -0.9052,-2.8429 3.1556,-10.032 2.3696,-1.8128 0.6746,0.032 0.6897,0.029 0.7047,0.0257 0.7197,0.0224 0.7348,0.0189 0.7497,0.0151 0.7648,0.0112 0.7797,0.007 0.7946,0.003 0.8095,-0.001 0.8245,-0.006 0.8392,-0.0105 0.8542,-0.0154 0.8689,-0.0204 0.8837,-0.0256 0.8985,-0.0309 0.9132,-0.0363 0.9278,-0.0421 0.9425,-0.0478 0.9571,-0.0539 0.9717,-0.0599 0.9862,-0.0663 1.0008,-0.0727 1.0151,-0.0794 1.0296,-0.0861 1.0439,-0.0931 1.0583,-0.1001 1.0725,-0.1074 1.0868,-0.1149 1.1009,-0.1224 1.1151,-0.1301 1.1291,-0.138 1.1431,-0.1461 1.1572,-0.1543 1.171,-0.1626 1.1848,-0.1711 1.1987,-0.1798 1.2124,-0.1887 0.2264,-0.4702 2.9236,-11.1852 0.0327,-0.5208 -0.9651,-0.7578 -0.9573,-0.7433 -0.9496,-0.7291 -0.9416,-0.7148 -0.9337,-0.7008 -0.9254,-0.6868 -0.9172,-0.6728 -0.9087,-0.6592 -0.9003,-0.6454 -0.8915,-0.632 -0.8828,-0.6185 -0.8739,-0.6052 -0.8649,-0.592 -0.8557,-0.5789 -0.8465,-0.5659 -0.8372,-0.5531 -0.8276,-0.5404 -0.8181,-0.5278 -0.8083,-0.5153 -0.7986,-0.5029 -0.7886,-0.4907 -0.7785,-0.4786 -0.7685,-0.4666 -0.7581,-0.4547 -0.7479,-0.443 -0.7373,-0.4314 -0.7268,-0.4199 -0.7161,-0.4085 -0.7054,-0.3973 -0.6944,-0.3862 -0.6835,-0.3752 -0.6725,-0.3644 -0.6612,-0.3537 -0.65,-0.3431 -0.6386,-0.3327 -0.6272,-0.3224 -0.6157,-0.3122 -0.6039,-0.3022 -1.1795,-2.7404 2.1571,-10.2931 2.1805,-2.0363 0.6745,-0.0343 0.6892,-0.0387 0.7038,-0.0435 0.7185,-0.0482 0.733,-0.0533 0.7477,-0.0585 0.7621,-0.0637 0.7767,-0.0692 0.7911,-0.0749 0.8055,-0.0807 0.8198,-0.0866 0.8343,-0.0928 0.8485,-0.099 0.8627,-0.1055 0.877,-0.112 0.8911,-0.1188 0.9052,-0.1257 0.9193,-0.1328 0.9332,-0.14 0.9473,-0.1474 0.9611,-0.1549 0.975,-0.1627 0.9888,-0.1704 1.0025,-0.1785 1.0161,-0.1866 1.0298,-0.1949 1.0434,-0.2035 1.0568,-0.212 1.0703,-0.2208 1.0836,-0.2297 1.0969,-0.2388 1.1102,-0.248 1.1233,-0.2574 1.1364,-0.267 1.1495,-0.2766 1.1624,-0.2865 1.1752,-0.2964 1.1881,-0.3066 0.1792,-0.4901 1.8132,-11.4179 -0.0185,-0.5215 -1.0347,-0.6595 -1.0256,-0.646 -1.0165,-0.6325 -1.0072,-0.6191 -0.9978,-0.6058 -0.9883,-0.5928 -0.9787,-0.5797 -0.969,-0.5669 -0.9591,-0.5541 -0.9492,-0.5415 -0.9392,-0.529 -0.929,-0.5166 -0.9187,-0.5044 -0.9084,-0.4923 -0.8979,-0.4802 -0.8873,-0.4684 -0.8766,-0.4567 -0.8659,-0.445 -0.855,-0.4336 -0.8439,-0.4223 -0.833,-0.411 -0.8217,-0.4 -0.8105,-0.389 -0.799,-0.3782 -0.7877,-0.3676 -0.7761,-0.357 -0.7644,-0.3466 -0.7527,-0.3364 -0.7409,-0.3262 -0.729,-0.3163 -0.717,-0.3064 -0.7049,-0.2967 -0.6927,-0.2872 -0.6805,-0.2778 -0.6682,-0.2685 -0.6557,-0.2593 -0.6433,-0.2504 -0.6307,-0.2415 -1.4424,-2.6117 1.1378,-10.4549 1.9704,-2.2402 0.6679,-0.1002 0.6821,-0.1061 0.6962,-0.1123 0.7102,-0.1184 0.7243,-0.1249 0.7383,-0.1314 0.7523,-0.1382 0.7661,-0.145 0.7799,-0.1521 0.7938,-0.1592 0.8074,-0.1666 0.8211,-0.1741 0.8347,-0.1817 0.8483,-0.1895 0.8617,-0.1975 0.8752,-0.2056 0.8885,-0.2138 0.9019,-0.2222 0.915,-0.2308 0.9283,-0.2396 0.9413,-0.2484 0.9543,-0.2574 0.9673,-0.2665 0.9802,-0.2759 0.993,-0.2853 1.0057,-0.2949 1.0184,-0.3047 1.031,-0.3146 1.0434,-0.3247 1.0559,-0.3348 1.0683,-0.3452 1.0805,-0.3556 1.0927,-0.3663 1.1047,-0.377 1.1168,-0.388 1.1287,-0.399 1.1406,-0.4102 1.1523,-0.4216 0.1303,-0.5053 0.6853,-11.5406 -0.0696,-0.5172 -1.0943,-0.555 -1.084,-0.5423 -1.0735,-0.5298 -1.063,-0.5174 -1.0524,-0.5051 -1.0417,-0.493 -1.0308,-0.4811 -1.0199,-0.4691 -1.0088,-0.4575 -0.9978,-0.4458 -0.9864,-0.4344 -0.9752,-0.4231 -0.9638,-0.4119 -0.9522,-0.4008 -0.9406,-0.39 -0.929,-0.3791 -0.9172,-0.3686 -0.9053,-0.358 -0.8933,-0.3477 -0.8813,-0.3375 -0.8692,-0.3274 -0.857,-0.3175 -0.8447,-0.3077 -0.8323,-0.2981 -0.8199,-0.2886 -0.8073,-0.2792 -0.7948,-0.27 -0.782,-0.261 -0.7693,-0.2521 -0.7565,-0.2432 -0.7436,-0.2347 -0.7306,-0.2262 -0.7175,-0.2179 -0.7044,-0.2097 -0.6913,-0.2017 -0.678,-0.1939 -0.6647,-0.1861 -0.6514,-0.1785 -1.6914,-2.4577 z"
     id="gearpoly3" /><g
     class="guides"
     id="g5"><polyline
       fill="none"
       stroke="#444"
       stroke-width="0.5"
       stroke-miterlimit="10"
       points="10,0 -10,0"
       id="polyline7" /><polyline
       fill="none"
       stroke="#444"
       stroke-width="0.5"
       stroke-miterlimit="10"
       points="0,10 0,-10"
       id="polyline9" /></g><circle
     fill="#c00"
     class="firstmarker"
     stroke="none"
     stroke-miterlimit="10"
     cx="532.9307"
     cy="-20.7203"
     r="6.5417"
     id="circle11" /><g
     class="geartext"
     id="g13"><g
       class="text"
       id="g15"><polyline
         fill="none"
         stroke="#444"
         stroke-width="0.5"
         stroke-linecap="square"
         stroke-miterlimit="1"
         points="425.89 -230.29 424.46 -232.93 423 -235.55 421.54 -238.17 420.05 -240.78 "
         id="polyline17" /><polyline
         fill="none"
         stroke="#444"
         stroke-width="0.5"
         stroke-linecap="square"
         stroke-miterlimit="1"
         points="417.76 -232.63 428.25 -238.47 "
         id="polyline19" /><polyline
         fill="none"
         stroke="#444"
         stroke-width="0.5"
         stroke-linecap="square"
         stroke-miterlimit="1"
         points="431.17 -233.15 427.09 -234.37 423 -235.55 418.93 -236.69 414.85 -237.79 "
         id="polyline21" /><polyline
         fill="none"
         stroke="#444"
         stroke-width="0.5"
         stroke-linecap="square"
         stroke-miterlimit="1"
         points="420.61 -227.44 421.83 -231.48 423 -235.55 424.15 -239.64 425.26 -243.76 "
         id="polyline23" /><polyline
         fill="none"
         stroke="#444"
         stroke-width="0.5"
         stroke-linecap="square"
         stroke-miterlimit="1"
         points="434.02 -227.78 438.09 -226.47 439.49 -223.75 440.87 -221.02 439.54 -216.96 436.85 -215.63 432.82 -216.99 431.47 -212.97 428.78 -211.65 424.77 -212.95 423.45 -215.58 422.1 -218.2 423.4 -222.21 "
         id="polyline25" /><polyline
         fill="none"
         stroke="#444"
         stroke-width="0.5"
         stroke-linecap="square"
         stroke-miterlimit="1"
         points="431.47 -219.67 432.82 -216.99 "
         id="polyline27" /><polyline
         fill="none"
         stroke="#444"
         stroke-width="0.5"
         stroke-linecap="square"
         stroke-miterlimit="1"
         points="456.07 -187.66 439.42 -180.81 442.44 -185.27 445.43 -189.77 448.37 -194.32 451.28 -198.91 434.8 -191.65 "
         id="polyline29" /><polyline
         fill="none"
         stroke="#444"
         stroke-width="0.5"
         stroke-linecap="square"
         stroke-miterlimit="1"
         points="457.1 -168.5 456.04 -171.33 454.97 -174.16 453.89 -176.97 452.78 -179.78 "
         id="polyline31" /><polyline
         fill="none"
         stroke="#444"
         stroke-width="0.5"
         stroke-linecap="square"
         stroke-miterlimit="1"
         points="451.47 -166.43 450.43 -169.22 449.37 -172.01 448.3 -174.79 447.2 -177.57 "
         id="polyline33" /><polyline
         fill="none"
         stroke="#444"
         stroke-width="0.5"
         stroke-linecap="square"
         stroke-miterlimit="1"
         points="456.32 -161.82 457.32 -158.99 458.29 -156.16 459.25 -153.31 457.34 -149.53 454.49 -148.6 450.71 -150.46 449.77 -153.25 448.82 -156.04 450.67 -159.82 459.15 -162.83 462.98 -160.96 466.81 -159.06 467.79 -156.16 "
         id="polyline35" /><polyline
         fill="none"
         stroke="#444"
         stroke-width="0.5"
         stroke-linecap="square"
         stroke-miterlimit="1"
         points="462.58 -132.43 461.75 -135.3 460.91 -138.15 460.04 -141.01 459.16 -143.86 463.87 -142.18 468.57 -140.45 473.27 -138.67 456 -133.61 "
         id="polyline37" /><polyline
         fill="none"
         stroke="#444"
         stroke-width="0.5"
         stroke-linecap="square"
         stroke-miterlimit="1"
         points="470.81 -112.95 471.5 -110.03 472.17 -107.11 472.83 -104.18 476.4 -101.87 479.33 -102.5 481.61 -106.12 480.95 -109.1 480.26 -112.08 479.56 -115.05 462.06 -110.85 "
         id="polyline39" /><polyline
         fill="none"
         stroke="#444"
         stroke-width="0.5"
         stroke-linecap="square"
         stroke-miterlimit="1"
         points="465.86 -93.6 477.62 -95.96 "
         id="polyline41" /><polyline
         fill="none"
         stroke="#444"
         stroke-width="0.5"
         stroke-linecap="square"
         stroke-miterlimit="1"
         points="480.56 -96.55 483.5 -97.15 "
         id="polyline43" /><polyline
         fill="none"
         stroke="#444"
         stroke-width="0.5"
         stroke-linecap="square"
         stroke-miterlimit="1"
         points="471.97 -76.7 468.53 -79.12 470.99 -82.54 485.76 -85.13 "
         id="polyline45" /><polyline
         fill="none"
         stroke="#444"
         stroke-width="0.5"
         stroke-linecap="square"
         stroke-miterlimit="1"
         points="480.86 -78.14 480.37 -81.12 479.85 -84.1 479.32 -87.07 478.77 -90.04 "
         id="polyline47" /><polyline
         fill="none"
         stroke="#444"
         stroke-width="0.5"
         stroke-linecap="square"
         stroke-miterlimit="1"
         points="471.52 -58.73 471.15 -61.65 470.76 -64.57 470.35 -67.49 472.89 -70.85 478.82 -71.73 482.23 -69.19 482.65 -66.2 483.05 -63.21 483.43 -60.22 "
         id="polyline49" /><polyline
         fill="none"
         stroke="#444"
         stroke-width="0.5"
         stroke-linecap="square"
         stroke-miterlimit="1"
         points="478.18 -53.55 481.48 -50.91 484.77 -48.22 485.06 -45.21 482.35 -41.95 473.38 -41.17 "
         id="polyline51" /><polyline
         fill="none"
         stroke="#444"
         stroke-width="0.5"
         stroke-linecap="square"
         stroke-miterlimit="1"
         points="472.21 -52.89 490.1 -54.89 "
         id="polyline53" /><polyline
         fill="none"
         stroke="#444"
         stroke-width="0.5"
         stroke-linecap="square"
         stroke-miterlimit="1"
         points="474.72 -20.6 474.84 -17.66 474.94 -14.72 475.02 -11.78 478.08 -8.89 490.08 -9.11 493.02 -12.22 492.93 -15.28 492.83 -18.33 492.7 -21.38 "
         id="polyline55" /><polyline
         fill="none"
         stroke="#444"
         stroke-width="0.5"
         stroke-linecap="square"
         stroke-miterlimit="1"
         points="492.83 -18.33 474.84 -17.66 "
         id="polyline57" /><polyline
         fill="none"
         stroke="#444"
         stroke-width="0.5"
         stroke-linecap="square"
         stroke-miterlimit="1"
         points="487.08 9.06 487.13 6.04 487.16 3.02 487.17 0 487.16 -3.02 "
         id="polyline59" /><polyline
         fill="none"
         stroke="#444"
         stroke-width="0.5"
         stroke-linecap="square"
         stroke-miterlimit="1"
         points="481.08 8.94 481.13 5.96 481.16 2.98 481.17 0 481.16 -2.98 "
         id="polyline61" /><polyline
         fill="none"
         stroke="#444"
         stroke-width="0.5"
         stroke-linecap="square"
         stroke-miterlimit="1"
         points="489.93 15.18 492.83 18.33 474.84 17.66 "
         id="polyline63" /><polyline
         fill="none"
         stroke="#444"
         stroke-width="0.5"
         stroke-linecap="square"
         stroke-miterlimit="1"
         points="474.72 20.6 474.84 17.66 474.94 14.72 "
         id="polyline65" /><polyline
         fill="none"
         stroke="#444"
         stroke-width="0.5"
         stroke-linecap="square"
         stroke-miterlimit="1"
         points="476.85 35.52 474.06 32.36 474.25 29.42 477.42 26.65 489.4 27.32 492.22 30.54 492.02 33.59 488.81 36.41 476.85 35.52 "
         id="polyline67" /><polyline
         fill="none"
         stroke="#444"
         stroke-width="0.5"
         stroke-linecap="square"
         stroke-miterlimit="1"
         points="476.37 41.43 473.38 41.17 "
         id="polyline69" /><polyline
         fill="none"
         stroke="#444"
         stroke-width="0.5"
         stroke-linecap="square"
         stroke-miterlimit="1"
         points="481.79 47.92 481.48 50.91 481.16 53.89 480.82 56.87 477.48 59.48 474.5 59.1 471.88 55.81 472.21 52.89 472.53 49.96 475.82 47.33 484.77 48.22 487.45 51.54 490.1 54.89 489.75 57.93 "
         id="polyline71" /><polyline
         fill="none"
         stroke="#444"
         stroke-width="0.5"
         stroke-linecap="square"
         stroke-miterlimit="1"
         points="488.59 67.02 488.17 70.04 487.72 73.07 487.26 76.09 486.78 79.11 478.37 74.7 469.92 70.4 "
         id="polyline73" /><polyline
         fill="none"
         stroke="#444"
         stroke-width="0.5"
         stroke-linecap="square"
         stroke-miterlimit="1"
         points="474.08 98.31 473.46 101.25 472.83 104.18 472.17 107.11 474.42 110.71 477.34 111.39 480.95 109.1 481.61 106.12 482.26 103.13 482.89 100.14 465.27 96.48 "
         id="polyline75" /><polyline
         fill="none"
         stroke="#444"
         stroke-width="0.5"
         stroke-linecap="square"
         stroke-miterlimit="1"
         points="469.98 128.27 470.76 125.35 471.53 122.44 472.28 119.51 473.01 116.58 "
         id="polyline77" /><polyline
         fill="none"
         stroke="#444"
         stroke-width="0.5"
         stroke-linecap="square"
         stroke-miterlimit="1"
         points="464.19 126.69 464.96 123.81 465.72 120.93 466.46 118.04 467.19 115.15 "
         id="polyline79" /><polyline
         fill="none"
         stroke="#444"
         stroke-width="0.5"
         stroke-linecap="square"
         stroke-miterlimit="1"
         points="465.47 133.26 464.63 136.14 463.78 139.02 462.91 141.89 459.16 143.86 456.3 142.96 454.31 139.25 455.16 136.43 456 133.61 459.7 131.61 468.35 134.08 470.39 137.83 472.4 141.6 471.51 144.52 "
         id="polyline81" /><polyline
         fill="none"
         stroke="#444"
         stroke-width="0.5"
         stroke-linecap="square"
         stroke-miterlimit="1"
         points="455.31 164.65 454.28 167.47 453.24 170.28 452.17 173.08 453.89 176.97 456.68 178.06 460.58 176.3 461.66 173.44 462.73 170.58 463.77 167.71 446.85 161.59 "
         id="polyline83" /><polyline
         fill="none"
         stroke="#444"
         stroke-width="0.5"
         stroke-linecap="square"
         stroke-miterlimit="1"
         points="440.53 178.09 446.1 180.33 450.52 185.38 454.89 190.48 448.19 190.95 441.49 191.33 435.98 188.95 "
         id="polyline85" /><polyline
         fill="none"
         stroke="#444"
         stroke-width="0.5"
         stroke-linecap="square"
         stroke-miterlimit="1"
         points="446.1 180.33 444.97 183.09 443.83 185.85 442.67 188.59 441.49 191.33 "
         id="polyline87" /><polyline
         fill="none"
         stroke="#444"
         stroke-width="0.5"
         stroke-linecap="square"
         stroke-miterlimit="1"
         points="439.49 210.2 440.78 207.47 442.06 204.74 443.32 202 444.56 199.24 "
         id="polyline89" /><polyline
         fill="none"
         stroke="#444"
         stroke-width="0.5"
         stroke-linecap="square"
         stroke-miterlimit="1"
         points="434.07 207.61 435.35 204.92 436.61 202.22 437.86 199.51 439.08 196.79 "
         id="polyline91" /><polyline
         fill="none"
         stroke="#444"
         stroke-width="0.5"
         stroke-linecap="square"
         stroke-miterlimit="1"
         points="420.74 220.81 422.1 218.2 423.45 215.58 424.77 212.95 426.09 210.32 431.47 212.97 432.82 216.99 431.47 219.67 430.1 222.34 431.37 226.39 434.02 227.78 438.09 226.47 439.49 223.75 440.87 221.02 439.54 216.96 "
         id="polyline93" /><polyline
         fill="none"
         stroke="#444"
         stroke-width="0.5"
         stroke-linecap="square"
         stroke-miterlimit="1"
         points="416.31 235.22 415.14 231.17 416.57 228.6 420.61 227.44 431.17 233.15 432.35 237.26 430.87 239.93 426.76 241.12 416.31 235.22 "
         id="polyline95" /></g></g><path
     style="opacity:0.2;fill:none;stroke:#ff0000;stroke-miterlimit:10"
     d="M 533.33002,0 C 533.33002,294.55004 294.55004,533.33002 0,533.33002 -294.55004,533.33002 -533.33002,294.55004 -533.33002,0 c 0,-294.55004 238.77998,-533.33002 533.33002,-533.33002 294.55004,0 533.33002,238.77998 533.33002,533.33002 z"
     id="circle99"
     transform="translate(1.6479183,0)" /><circle
     style="opacity:0.2;fill:none;stroke:#cccccc;stroke-miterlimit:10;stroke-dasharray:2, 2"
     sodipodi:ry="550"
     sodipodi:rx="550"
     sodipodi:cy="0"
     sodipodi:cx="0"
     id="circle101"
     r="550"
     cy="0"
     cx="0"
     stroke-miterlimit="10"
     class="outer" /><circle
     style="opacity:0.2;fill:none;stroke:#0000ff;stroke-miterlimit:10;stroke-dasharray:2, 2"
     sodipodi:ry="501.17001"
     sodipodi:rx="501.17001"
     sodipodi:cy="0"
     sodipodi:cx="0"
     id="circle103"
     r="501.17001"
     cy="0"
     cx="0"
     stroke-miterlimit="10"
     class="base" /></svg>