  0
SECTION
  2
HEADER
  9
$ACADVER
  1
AC1027
  9
$ACADMAINTVER
 70
    55
  9
$DWGCODEPAGE
  3
ANSI_1252
  9
$LASTSAVEDBY
  1
sb
  9
$REQUIREDVERSIONS
160
                 0
  9
$INSBASE
 10
0.0
 20
0.0
 30
0.0
  9
$EXTMIN
 10
-51.639724
 20
52.218054
 30
0.0
  9
$EXTMAX
 10
51.639724
 20
155.497502
 30
0.0
  9
$LIMMIN
 10
0.0
 20
0.0
  9
$LIMMAX
 10
12.0
 20
9.0
  9
$ORTHOMODE
 70
     0
  9
$REGENMODE
 70
     1
  9
$FILLMODE
 70
     1
  9
$QTEXTMODE
 70
     0
  9
$MIRRTEXT
 70
     0
  9
$LTSCALE
 40
1.0
  9
$ATTMODE
 70
     1
  9
$TEXTSIZE
 40
2.5
  9
$TRACEWID
 40
0.05
  9
$TEXTSTYLE
  7
STANDARD
  9
$CLAYER
  8
0
  9
$CELTYPE
  6
CONTINUOUS
  9
$CECOLOR
 62
   256
  9
$CELTSCALE
 40
1.0
  9
$DISPSILH
 70
     0
  9
$DIMSCALE
 40
1.0
  9
$DIMASZ
 40
0.18
  9
$DIMEXO
 40
0.0625
  9
$DIMDLI
 40
0.38
  9
$DIMRND
 40
0.0
  9
$DIMDLE
 40
0.0
  9
$DIMEXE
 40
0.18
  9
$DIMTP
 40
0.0
  9
$DIMTM
 40
0.0
  9
$DIMTXT
 40
0.18
  9
$DIMCEN
 40
0.09
  9
$DIMTSZ
 40
0.0
  9
$DIMTOL
 70
     0
  9
$DIMLIM
 70
     0
  9
$DIMTIH
 70
     1
  9
$DIMTOH
 70
     1
  9
$DIMSE1
 70
     0
  9
$DIMSE2
 70
     0
  9
$DIMTAD
 70
     0
  9
$DIMZIN
 70
     0
  9
$DIMBLK
  1

  9
$DIMASO
 70
     1
  9
$DIMSHO
 70
     1
  9
$DIMPOST
  1

  9
$DIMAPOST
  1

  9
$DIMALT
 70
     0
  9
$DIMALTD
 70
     2
  9
$DIMALTF
 40
25.4
  9
$DIMLFAC
 40
1.0
  9
$DIMTOFL
 70
     0
  9
$DIMTVP
 40
0.0
  9
$DIMTIX
 70
     0
  9
$DIMSOXD
 70
     0
  9
$DIMSAH
 70
     0
  9
$DIMBLK1
  1

  9
$DIMBLK2
  1

  9
$DIMSTYLE
  2
ISO-25
  9
$DIMCLRD
 70
     0
  9
$DIMCLRE
 70
     0
  9
$DIMCLRT
 70
     0
  9
$DIMTFAC
 40
1.0
  9
$DIMGAP
 40
0.09
  9
$DIMJUST
 70
     0
  9
$DIMSD1
 70
     0
  9
$DIMSD2
 70
     0
  9
$DIMTOLJ
 70
     1
  9
$DIMTZIN
 70
     0
  9
$DIMALTZ
 70
     0
  9
$DIMALTTZ
 70
     0
  9
$DIMUPT
 70
     0
  9
$DIMDEC
 70
     4
  9
$DIMTDEC
 70
     4
  9
$DIMALTU
 70
     2
  9
$DIMALTTD
 70
     2
  9
$DIMTXSTY
  7
STANDARD
  9
$DIMAUNIT
 70
     0
  9
$DIMADEC
 70
     0
  9
$DIMALTRND
 40
0.0
  9
$DIMAZIN
 70
     0
  9
$DIMDSEP
 70
    46
  9
$DIMATFIT
 70
     3
  9
$DIMFRAC
 70
     0
  9
$DIMLDRBLK
  1

  9
$DIMLUNIT
 70
     2
  9
$DIMLWD
 70
    -2
  9
$DIMLWE
 70
    -2
  9
$DIMTMOVE
 70
     0
  9
$DIMFXL
 40
1.0
  9
$DIMFXLON
 70
     0
  9
$DIMJOGANG
 40
0.7853981633974483
  9
$DIMTFILL
 70
     0
  9
$DIMTFILLCLR
 70
     0
  9
$DIMARCSYM
 70
     0
  9
$DIMLTYPE
  6

  9
$DIMLTEX1
  6

  9
$DIMLTEX2
  6

  9
$DIMTXTDIRECTION
 70
     0
  9
$LUNITS
 70
     2
  9
$LUPREC
 70
     4
  9
$SKETCHINC
 40
0.1
  9
$FILLETRAD
 40
0.0
  9
$AUNITS
 70
     0
  9
$AUPREC
 70
     0
  9
$MENU
  1
.
  9
$ELEVATION
 40
0.0
  9
$PELEVATION
 40
0.0
  9
$THICKNESS
 40
0.0
  9
$LIMCHECK
 70
     0
  9
$CHAMFERA
 40
0.0
  9
$CHAMFERB
 40
0.0
  9
$CHAMFERC
 40
0.0
  9
$CHAMFERD
 40
0.0
  9
$SKPOLY
 70
     0
  9
$TDCREATE
 40
2457163.962912361
  9
$TDUCREATE
 40
2457163.546245695
  9
$TDUPDATE
 40
2457164.027295405
  9
$TDUUPDATE
 40
2457163.610628739
  9
$TDINDWG
 40
0.0016156713
  9
$TDUSRTIMER
 40
0.0016156713
  9
$USRTIMER
 70
     1
  9
$ANGBASE
 50
0.0
  9
$ANGDIR
 70
     0
  9
$PDMODE
 70
     0
  9
$PDSIZE
 40
0.0
  9
$PLINEWID
 40
0.0
  9
$SPLFRAME
 70
     0
  9
$SPLINETYPE
 70
     6
  9
$SPLINESEGS
 70
     8
  9
$HANDSEED
  5
1008D
  9
$SURFTAB1
 70
     6
  9
$SURFTAB2
 70
     6
  9
$SURFTYPE
 70
     6
  9
$SURFU
 70
     6
  9
$SURFV
 70
     6
  9
$UCSBASE
  2

  9
$UCSNAME
  2

  9
$UCSORG
 10
0.0000000000000036
 20
103.857778
 30
0.0
  9
$UCSXDIR
 10
1.0
 20
0.0
 30
0.0
  9
$UCSYDIR
 10
0.0
 20
1.0
 30
0.0
  9
$UCSORTHOREF
  2

  9
$UCSORTHOVIEW
 70
     0
  9
$UCSORGTOP
 10
0.0
 20
0.0
 30
0.0
  9
$UCSORGBOTTOM
 10
0.0
 20
0.0
 30
0.0
  9
$UCSORGLEFT
 10
0.0
 20
0.0
 30
0.0
  9
$UCSORGRIGHT
 10
0.0
 20
0.0
 30
0.0
  9
$UCSORGFRONT
 10
0.0
 20
0.0
 30
0.0
  9
$UCSORGBACK
 10
0.0
 20
0.0
 30
0.0
  9
$PUCSBASE
  2

  9
$PUCSNAME
  2

  9
$PUCSORG
 10
0.0
 20
0.0
 30
0.0
  9
$PUCSXDIR
 10
1.0
 20
0.0
 30
0.0
  9
$PUCSYDIR
 10
0.0
 20
1.0
 30
0.0
  9
$PUCSORTHOREF
  2

  9
$PUCSORTHOVIEW
 70
     0
  9
$PUCSORGTOP
 10
0.0
 20
0.0
 30
0.0
  9
$PUCSORGBOTTOM
 10
0.0
 20
0.0
 30
0.0
  9
$PUCSORGLEFT
 10
0.0
 20
0.0
 30
0.0
  9
$PUCSORGRIGHT
 10
0.0
 20
0.0
 30
0.0
  9
$PUCSORGFRONT
 10
0.0
 20
0.0
 30
0.0
  9
$PUCSORGBACK
 10
0.0
 20
0.0
 30
0.0
  9
$USERI1
 70
     0
  9
$USERI2
 70
     0
  9
$USERI3
 70
     0
  9
$USERI4
 70
     0
  9
$USERI5
 70
     0
  9
$USERR1
 40
0.0
  9
$USERR2
 40
0.0
  9
$USERR3
 40
0.0
  9
$USERR4
 40
0.0
  9
$USERR5
 40
0.0
  9
$WORLDVIEW
 70
     1
  9
$SHADEDGE
 70
     3
  9
$SHADEDIF
 70
    70
  9
$TILEMODE
 70
     1
  9
$MAXACTVP
 70
    64
  9
$PINSBASE
 10
0.0
 20
0.0
 30
0.0
  9
$PLIMCHECK
 70
     0
  9
$PEXTMIN
 10
1.000000000000000E+20
 20
1.000000000000000E+20
 30
1.000000000000000E+20
  9
$PEXTMAX
 10
-1.000000000000000E+20
 20
-1.000000000000000E+20
 30
-1.000000000000000E+20
  9
$PLIMMIN
 10
0.0
 20
0.0
  9
$PLIMMAX
 10
12.0
 20
9.0
  9
$UNITMODE
 70
     0
  9
$VISRETAIN
 70
     1
  9
$PLINEGEN
 70
     0
  9
$PSLTSCALE
 70
     1
  9
$TREEDEPTH
 70
  3020
  9
$CMLSTYLE
  2
Standard
  9
$CMLJUST
 70
     0
  9
$CMLSCALE
 40
1.0
  9
$PROXYGRAPHICS
 70
     1
  9
$MEASUREMENT
 70
     1
  9
$CELWEIGHT
370
    -1
  9
$ENDCAPS
280
     0
  9
$JOINSTYLE
280
     0
  9
$LWDISPLAY
290
     0
  9
$INSUNITS
 70
     0
  9
$HYPERLINKBASE
  1

  9
$STYLESHEET
  1

  9
$XEDIT
290
     1
  9
$CEPSNTYPE
380
     0
  9
$PSTYLEMODE
290
     1
  9
$FINGERPRINTGUID
  2
{A0138D26-1FBD-4874-94E3-9E201520609A}
  9
$VERSIONGUID
  2
{EF42B330-C829-4FD3-9B54-838BD6E75C57}
  9
$EXTNAMES
290
     1
  9
$PSVPSCALE
 40
0.0
  9
$OLESTARTUP
290
     0
  9
$SORTENTS
280
   127
  9
$INDEXCTL
280
     0
  9
$HIDETEXT
280
     0
  9
$XCLIPFRAME
280
     2
  9
$HALOGAP
280
     0
  9
$OBSCOLOR
 70
   257
  9
$OBSLTYPE
280
     0
  9
$INTERSECTIONDISPLAY
280
     0
  9
$INTERSECTIONCOLOR
 70
   257
  9
$DIMASSOC
280
     1
  9
$PROJECTNAME
  1

  9
$CAMERADISPLAY
290
     0
  9
$LENSLENGTH
 40
50.0
  9
$CAMERAHEIGHT
 40
0.0
  9
$STEPSPERSEC
 40
2.0
  9
$STEPSIZE
 40
6.0
  9
$3DDWFPREC
 40
2.0
  9
$PSOLWIDTH
 40
0.25
  9
$PSOLHEIGHT
 40
4.0
  9
$LOFTANG1
 40
1.570796326794896
  9
$LOFTANG2
 40
1.570796326794896
  9
$LOFTMAG1
 40
0.0
  9
$LOFTMAG2
 40
0.0
  9
$LOFTPARAM
 70
     7
  9
$LOFTNORMALS
280
     1
  9
$LATITUDE
 40
37.795
  9
$LONGITUDE
 40
-122.394
  9
$NORTHDIRECTION
 40
0.0
  9
$TIMEZONE
 70
 -8000
  9
$LIGHTGLYPHDISPLAY
280
     1
  9
$TILEMODELIGHTSYNCH
280
     1
  9
$CMATERIAL
347
10004
  9
$SOLIDHIST
280
     0
  9
$SHOWHIST
280
     1
  9
$DWFFRAME
280
     2
  9
$DGNFRAME
280
     0
  9
$REALWORLDSCALE
290
     1
  9
$INTERFERECOLOR
 62
     1
  9
$INTERFEREOBJVS
345
10026
  9
$INTERFEREVPVS
346
10023
  9
$CSHADOW
280
     0
  9
$SHADOWPLANELOCATION
 40
0.0
  0
ENDSEC
  0
SECTION
  2
CLASSES
  0
CLASS
  1
ACDBDICTIONARYWDFLT
  2
AcDbDictionaryWithDefault
  3
ObjectDBX Classes
 90
        0
 91
        1
280
     0
281
     0
  0
CLASS
  1
MATERIAL
  2
AcDbMaterial
  3
ObjectDBX Classes
 90
     1153
 91
        3
280
     0
281
     0
  0
CLASS
  1
VISUALSTYLE
  2
AcDbVisualStyle
  3
ObjectDBX Classes
 90
     4095
 91
       24
280
     0
281
     0
  0
CLASS
  1
TABLESTYLE
  2
AcDbTableStyle
  3
ObjectDBX Classes
 90
     4095
 91
        1
280
     0
281
     0
  0
CLASS
  1
SCALE
  2
AcDbScale
  3
ObjectDBX Classes
 90
     1153
 91
       17
280
     0
281
     0
  0
CLASS
  1
MLEADERSTYLE
  2
AcDbMLeaderStyle
  3
ACDB_MLEADERSTYLE_CLASS
 90
     4095
 91
        1
280
     0
281
     0
  0
CLASS
  1
ACDBSECTIONVIEWSTYLE
  2
AcDbSectionViewStyle
  3
ObjectDBX Classes
 90
     1025
 91
        1
280
     0
281
     0
  0
CLASS
  1
ACDBDETAILVIEWSTYLE
  2
AcDbDetailViewStyle
  3
ObjectDBX Classes
 90
     1025
 91
        1
280
     0
281
     0
  0
CLASS
  1
DICTIONARYVAR
  2
AcDbDictionaryVar
  3
ObjectDBX Classes
 90
        0
 91
        9
280
     0
281
     0
  0
CLASS
  1
CELLSTYLEMAP
  2
AcDbCellStyleMap
  3
ObjectDBX Classes
 90
     1152
 91
        2
280
     0
281
     0
  0
ENDSEC
  0
SECTION
  2
TABLES
  0
TABLE
  2
VPORT
  5
8
330
0
100
AcDbSymbolTable
 70
     1
  0
VPORT
  5
2E
330
8
100
AcDbSymbolTableRecord
100
AcDbViewportTableRecord
  2
*ACTIVE
 70
     0
 10
0.0
 20
0.0
 11
1.0
 21
1.0
 12
180.5557161900588
 22
91.39069370170172
 13
0.0
 23
0.0
 14
10.0
 24
10.0
 15
10.0
 25
10.0
 16
0.0
 26
0.0
 36
1.0
 17
0.0
 27
0.0
 37
0.0
 40
192.0475725220035
 41
3.205992509363295
 42
50.0
 43
0.0
 44
0.0
 50
0.0
 51
0.0
 71
     0
 72
   100
 73
     1
 74
     3
 75
     0
 76
     0
 77
     0
 78
     0
281
     0
 65
     1
110
0.0000000000000036
120
103.857778
130
0.0
111
1.0
121
0.0
131
0.0
112
0.0
122
1.0
132
0.0
 79
     0
146
0.0
348
10022
 60
     3
 61
     5
292
     1
282
     1
141
0.0
142
0.0
 63
   250
421
  3355443
1001
ACAD_NAV_VCDISPLAY
1070
     3
  0
ENDTAB
  0
TABLE
  2
LTYPE
  5
5
330
0
100
AcDbSymbolTable
 70
     1
  0
LTYPE
  5
14
330
5
100
AcDbSymbolTableRecord
100
AcDbLinetypeTableRecord
  2
BYBLOCK
 70
     0
  3

 72
    65
 73
     0
 40
0.0
  0
LTYPE
  5
15
330
5
100
AcDbSymbolTableRecord
100
AcDbLinetypeTableRecord
  2
BYLAYER
 70
     0
  3

 72
    65
 73
     0
 40
0.0
  0
LTYPE
  5
16
330
5
100
AcDbSymbolTableRecord
100
AcDbLinetypeTableRecord
  2
CONTINUOUS
 70
     0
  3
Solid line
 72
    65
 73
     0
 40
0.0
  0
ENDTAB
  0
TABLE
  2
LAYER
  5
2
102
{ACAD_XDICTIONARY
360
10065
102
}
330
0
100
AcDbSymbolTable
 70
     1
  0
LAYER
  5
50
102
{ACAD_XDICTIONARY
360
10060
102
}
330
2
100
AcDbSymbolTableRecord
100
AcDbLayerTableRecord
  2
0
 70
     0
 62
     7
  6
CONTINUOUS
370
    -3
390
10002
347
10014
348
0
  0
ENDTAB
  0
TABLE
  2
STYLE
  5
3
330
0
100
AcDbSymbolTable
 70
     1
  0
STYLE
  5
11
330
3
100
AcDbSymbolTableRecord
100
AcDbTextStyleTableRecord
  2
STANDARD
 70
     0
 40
0.0
 41
1.0
 50
0.0
 71
     0
 42
2.5
  3
txt
  4

  0
ENDTAB
  0
TABLE
  2
VIEW
  5
6
330
0
100
AcDbSymbolTable
 70
     1
  0
ENDTAB
  0
TABLE
  2
UCS
  5
7
330
0
100
AcDbSymbolTable
 70
     0
  0
ENDTAB
  0
TABLE
  2
APPID
  5
9
330
0
100
AcDbSymbolTable
 70
     3
  0
APPID
  5
12
330
9
100
AcDbSymbolTableRecord
100
AcDbRegAppTableRecord
  2
ACAD
 70
     0
  0
APPID
  5
10057
330
9
100
AcDbSymbolTableRecord
100
AcDbRegAppTableRecord
  2
ACAD_EXEMPT_FROM_CAD_STANDARDS
 70
     0
  0
APPID
  5
10075
330
9
100
AcDbSymbolTableRecord
100
AcDbRegAppTableRecord
  2
ACAD_NAV_VCDISPLAY
 70
     0
  0
ENDTAB
  0
TABLE
  2
DIMSTYLE
  5
A
330
0
100
AcDbSymbolTable
 70
     1
100
AcDbDimStyleTable
 71
     1
340
27
  0
DIMSTYLE
105
27
330
A
100
AcDbSymbolTableRecord
100
AcDbDimStyleTableRecord
  2
ISO-25
 70
     0
 41
2.5
 42
0.625
 43
3.75
 44
1.25
 73
     0
 74
     0
 77
     1
 78
     8
140
2.5
141
2.5
143
0.03937007874016
147
0.625
171
     3
172
     1
271
     2
272
     2
274
     3
283
     0
284
     8
340
11
  0
ENDTAB
  0
TABLE
  2
BLOCK_RECORD
  5
1
330
0
100
AcDbSymbolTable
 70
     0
  0
BLOCK_RECORD
  5
1F
330
1
100
AcDbSymbolTableRecord
100
AcDbBlockTableRecord
  2
*MODEL_SPACE
340
10052
 70
     0
280
     1
281
     0
  0
BLOCK_RECORD
  5
1B
330
1
100
AcDbSymbolTableRecord
100
AcDbBlockTableRecord
  2
*PAPER_SPACE
340
10053
 70
     0
280
     1
281
     0
  0
ENDTAB
  0
ENDSEC
  0
SECTION
  2
BLOCKS
  0
BLOCK
  5
20
330
1F
100
AcDbEntity
  8
0
100
AcDbBlockBegin
  2
*MODEL_SPACE
 70
     0
 10
0.0
 20
0.0
 30
0.0
  3
*MODEL_SPACE
  1

  0
ENDBLK
  5
21
330
1F
100
AcDbEntity
  8
0
100
AcDbBlockEnd
  0
BLOCK
  5
1C
330
1B
100
AcDbEntity
 67
     1
  8
0
100
AcDbBlockBegin
  2
*PAPER_SPACE
 70
     0
 10
0.0
 20
0.0
 30
0.0
  3
*PAPER_SPACE
  1

  0
ENDBLK
  5
1D
330
1B
100
AcDbEntity
 67
     1
  8
0
100
AcDbBlockEnd
  0
ENDSEC
  0
SECTION
  2
ENTITIES
  0
LWPOLYLINE
  5
104
330
1F
100
AcDbEntity
  8
0
100
AcDbPolyline
 90
     1441
 70
     0
 43
0.0
 10
10.4069445
 20
103.857778
 10
11.05177275
 20
103.857799
 10
11.0568175
 20
103.85793325
 10
11.06522775
 20
103.858307
 10
11.07698225
 20
103.85903375
 10
11.09208125
 20
103.86022625
 10
11.11051025
 20
103.86200425
 10
11.1322485
 20
103.86448775
 10
11.1572815
 20
103.86778275
 10
11.1855745
 20
103.872016
 10
11.21711275
 20
103.87730075
 10
11.25186125
 20
103.8837495
 10
11.289792
 20
103.89146825
 10
11.3308695
 20
103.900577
 10
11.37505125
 20
103.9111955
 10
11.4223025
 20
103.92341575
 10
11.47258025
 20
103.9373645
 10
11.5258285
 20
103.95314075
 10
11.582005
 20
103.9708645
 10
11.64106
 20
103.990627
 10
11.70293
 20
104.0125415
 10
11.767559
 20
104.036714
 10
11.83489725
 20
104.06323575
 10
11.90486
 20
104.092227
 10
11.97739825
 20
104.1237725
 10
12.052441
 20
104.15797775
 10
12.129911
 20
104.19492775
 10
12.20973775
 20
104.234735
 10
12.291836
 20
104.27748475
 10
12.376143
 20
104.32326125
 10
12.4625665
 20
104.37216325
 10
12.551022
 20
104.4242684999999
 10
12.64142475
 20
104.47967575
 10
12.73368325
 20
104.5384555
 10
12.8277125
 20
104.60069975
 10
12.909931
 20
104.665632
 10
12.84056075
 20
105.41952525
 10
12.747865
 20
105.46836375
 10
12.6440565
 20
105.5124045
 10
12.54261875
 20
105.553362
 10
12.44362225
 20
105.591335
 10
12.3471445
 20
105.62642925
 10
12.25324925
 20
105.65873675
 10
12.16200675
 20
105.688356
 10
12.07348075
 20
105.715407
 10
11.9877345
 20
105.7399745
 10
11.90481775
 20
105.76217125
 10
11.82480075
 20
105.782103
 10
11.74771875
 20
105.799883
 10
11.6736355
 20
105.81561
 10
11.602593
 20
105.8294105
 10
11.534641
 20
105.84137675
 10
11.4698075
 20
105.8516355
 10
11.408142
 20
105.86028575
 10
11.3496725
 20
105.86745425
 10
11.2944345
 20
105.87325375
 10
11.24246325
 20
105.8777905
 10
11.193773
 20
105.88118425
 10
11.1483915
 20
105.883555
 10
11.1063405
 20
105.8850155
 10
11.06764075
 20
105.88568575
 10
11.0322995
 20
105.88568575
 10
11.00032375
 20
105.88512125
 10
10.9717345
 20
105.8841195
 10
10.946518
 20
105.8828
 10
10.92469525
 20
105.881269
 10
10.906252
 20
105.87966025
 10
10.8911885
 20
105.87807275
 10
10.87949725
 20
105.8766405
 10
10.87116475
 20
105.87546925
 10
10.8661765
 20
105.874686
 10
10.23217125
 20
105.75702775
 10
9.897589750000003
 20
107.07370025
 10
10.5108515
 20
107.27298425
 10
10.515614
 20
107.2746705
 10
10.52349525
 20
107.277627
 10
10.5344525
 20
107.281945
 10
10.5484435
 20
107.2877445
 10
10.56541925
 20
107.29513175
 10
10.585323
 20
107.30421225
 10
10.6081125
 20
107.31508475
 10
10.63371
 20
107.3278555
 10
10.66207325
 20
107.34262275
 10
10.693132
 20
107.3594925
 10
10.72682225
 20
107.3785565
 10
10.7630735
 20
107.39991375
 10
10.80181575
 20
107.42366275
 10
10.84297775
 20
107.44989525
 10
10.88647525
 20
107.478696
 10
10.93224475
 20
107.51015675
 10
10.98020125
 20
107.54436225
 10
11.0302535
 20
107.581411
 10
11.0823235
 20
107.6213735
 10
11.1363265
 20
107.66432775
 10
11.19216425
 20
107.71036525
 10
11.24975175
 20
107.7595565
 10
11.30899025
 20
107.81197225
 10
11.369788
 20
107.86769
 10
11.432046
 20
107.92678025
 10
11.495659
 20
107.9892995
 10
11.56053475
 20
108.0553255
 10
11.62656775
 20
108.1249145
 10
11.693652
 20
108.19813
 10
11.7616745
 20
108.2750215
 10
11.83052975
 20
108.35565225
 10
11.90011175
 20
108.440065
 10
11.97030025
 20
108.52831575
 10
12.028438
 20
108.61548725
 10
11.72948725
 20
109.311038
 10
11.62624325
 20
109.32884625
 10
11.51390475
 20
109.3386465
 10
11.4047765
 20
109.34625225
 10
11.29889375
 20
109.35177675
 10
11.19629175
 20
109.35533975
 10
11.097006
 20
109.35705425
 10
11.00107875
 20
109.35703325
 10
10.908524
 20
109.35539625
 10
10.819384
 20
109.3522635
 10
10.733666
 20
109.347755
 10
10.65139825
 20
109.34198375
 10
10.57260175
 20
109.33507625
 10
10.49728375
 20
109.32713875
 10
10.42545825
 20
109.31830525
 10
10.35712525
 20
109.3086885
 10
10.29229875
 20
109.2984085
 10
10.230979
 20
109.28758525
 10
10.1731585
 20
109.27633875
 10
10.11883075
 20
109.26478175
 10
10.0679955
 20
109.25303425
 10
10.02064575
 20
109.24121625
 10
9.976753000000003
 20
109.2294475
 10
9.936310750000004
 20
109.21784825
 10
9.899290250000003
 20
109.206524
 10
9.8656775
 20
109.195595
 10
9.835444500000004
 20
109.185181
 10
9.808562750000003
 20
109.175395
 10
9.784997250000003
 20
109.16634975
 10
9.764712500000003
 20
109.15815125
 10
9.747666250000003
 20
109.15091925
 10
9.733830250000004
 20
109.14475975
 10
9.723155250000006
 20
109.1397785
 10
9.715584750000003
 20
109.1360955
 10
9.711090250000003
 20
109.1338025
 10
9.144472750000002
 20
108.82598275
 10
8.419394500000006
 20
109.97482475
 10
8.941061000000003
 20
110.35386325
 10
8.945061500000006
 20
110.3569395
 10
8.951644500000004
 20
110.36218175
 10
8.960732000000003
 20
110.36968175
 10
8.972246500000002
 20
110.37951725
 10
8.986110750000003
 20
110.391794
 10
9.002239750000006
 20
110.40657525
 10
9.020549000000004
 20
110.42396025
 10
9.040946500000003
 20
110.444012
 10
9.063362000000003
 20
110.46682275
 10
9.087682500000003
 20
110.4924625
 10
9.113830500000002
 20
110.52100925
 10
9.141707000000003
 20
110.5525265
 10
9.171213250000004
 20
110.5870845
 10
9.202257750000002
 20
110.62474725
 10
9.234734500000003
 20
110.66557775
 10
9.268537500000006
 20
110.70964675
 10
9.303575500000004
 20
110.7569965
 10
9.339728250000003
 20
110.80769775
 10
9.376904000000003
 20
110.86179275
 10
9.414982750000003
 20
110.91933775
 10
9.453866000000003
 20
110.9803755
 10
9.493433500000003
 20
111.044955
 10
9.533572500000003
 20
111.1131115
 10
9.574177250000003
 20
111.18488775
 10
9.615127750000002
 20
111.2603257499999
 10
9.656311000000004
 20
111.33944675
 10
9.697614250000006
 20
111.422286
 10
9.738903250000003
 20
111.50887875
 10
9.780079500000002
 20
111.59923225
 10
9.821008750000002
 20
111.6933815
 10
9.861585250000002
 20
111.791348
 10
9.901675000000002
 20
111.8931315
 10
9.941157750000003
 20
111.998753
 10
9.969507000000003
 20
112.09961925
 10
9.470256000000002
 20
112.66874875
 10
9.366560500000003
 20
112.65377675
 10
9.256691250000006
 20
112.628391
 10
9.150554500000003
 20
112.60189725
 10
9.048143250000002
 20
112.574437
 10
8.949464250000003
 20
112.546116
 10
8.854510500000003
 20
112.51706125
 10
8.763282250000003
 20
112.48739975
 10
8.675765000000003
 20
112.45724425
 10
8.591952250000003
 20
112.426715
 10
8.511829250000003
 20
112.3959385
 10
8.435375250000003
 20
112.36503525
 10
8.362562000000002
 20
112.33411075
 10
8.29338225
 20
112.303292
 10
8.227800750000003
 20
112.272692
 10
8.165789500000004
 20
112.24243075
 10
8.107313000000006
 20
112.212621
 10
8.052336250000003
 20
112.18337575
 10
8.000816500000002
 20
112.154808
 10
7.952726000000001
 20
112.12703025
 10
7.908007750000002
 20
112.1001555
 10
7.866620000000001
 20
112.07428275
 10
7.828520000000002
 20
112.049525
 10
7.793637250000002
 20
112.0259945
 10
7.761936500000005
 20
112.00379075
 10
7.733340500000002
 20
111.98301225
 10
7.707806500000002
 20
111.9637645
 10
7.685264000000002
 20
111.946147
 10
7.665642500000003
 20
111.93025775
 10
7.648885500000002
 20
111.916196
 10
7.634915500000002
 20
111.9040465
 10
7.623654750000002
 20
111.8939145
 10
7.615040000000002
 20
111.88587825
 10
7.608986250000002
 20
111.88003625
 10
7.605409000000002
 20
111.87646625
 10
7.161650000000002
 20
111.4086195
 10
6.117046750000002
 20
112.2771725
 10
6.496050000000002
 20
112.79886025
 10
6.498907500000002
 20
112.803023
 10
6.503550000000002
 20
112.81004325
 10
6.509871750000002
 20
112.8199845
 10
6.517788250000002
 20
112.83290325
 10
6.527179000000002
 20
112.8488557499999
 10
6.537946000000002
 20
112.86789875
 10
6.549989750000002
 20
112.8900885
 10
6.563197750000002
 20
112.91546725
 10
6.577457000000003
 20
112.94408475
 10
6.592668750000002
 20
112.97599
 10
6.608720250000002
 20
113.01121825
 10
6.625491250000003
 20
113.049805
 10
6.642876000000002
 20
113.09178575
 10
6.660762000000001
 20
113.13720225
 10
6.679028750000003
 20
113.186069
 10
6.697563750000002
 20
113.23842825
 10
6.716246750000002
 20
113.29428725
 10
6.734965250000001
 20
113.35368075
 10
6.753606000000002
 20
113.4166165
 10
6.772042250000002
 20
113.483108
 10
6.790153750000003
 20
113.55317675
 10
6.807828000000002
 20
113.6268155
 10
6.824944750000002
 20
113.7040455
 10
6.841384250000002
 20
113.78486
 10
6.857019250000003
 20
113.8692515
 10
6.871737250000002
 20
113.95723425
 10
6.885410750000002
 20
114.04878
 10
6.897927500000002
 20
114.143889
 10
6.909167000000002
 20
114.24255375
 10
6.919002250000005
 20
114.3447395
 10
6.927313750000002
 20
114.45044575
 10
6.933988250000003
 20
114.5596375
 10
6.938906000000002
 20
114.6722935
 10
6.934701000000002
 20
114.776977
 10
6.284009500000002
 20
115.16398125
 10
6.190015250000002
 20
115.11769675
 10
6.093375250000002
 20
115.05960125
 10
6.000616000000002
 20
115.00161175
 10
5.911701750000002
 20
114.94384075
 10
5.826604750000003
 20
114.8864155
 10
5.745275500000002
 20
114.829442
 10
5.667678500000002
 20
114.77304
 10
5.593764500000002
 20
114.717315
 10
5.523484000000002
 20
114.6623805
 10
5.456795000000002
 20
114.60835625
 10
5.393626500000002
 20
114.55533375
 10
5.333943500000002
 20
114.503426
 10
5.277668500000002
 20
114.45273875
 10
5.224751750000002
 20
114.403371
 10
5.175123000000002
 20
114.3554285
 10
5.128718500000002
 20
114.309003
 10
5.085475000000002
 20
114.26420025
 10
5.045307750000002
 20
114.221112
 10
5.008153250000002
 20
114.179837
 10
4.973926750000003
 20
114.140453
 10
4.942564750000002
 20
114.1030585
 10
4.913975750000002
 20
114.06773825
 10
4.888074750000002
 20
114.03457725
 10
4.864784500000002
 20
114.00365975
 10
4.844012750000002
 20
113.9750635
 10
4.825675500000002
 20
113.9488735
 10
4.809673500000002
 20
113.9251525
 10
4.795929250000003
 20
113.903979
 10
4.784337000000002
 20
113.88542275
 10
4.774797750000002
 20
113.86955475
 10
4.767227250000002
 20
113.8564385
 10
4.761512250000002
 20
113.8461305
 10
4.757561000000002
 20
113.838701
 10
4.755261000000002
 20
113.8342064999999
 10
4.477794250000002
 20
113.25213025
 10
3.215922250000002
 20
113.75536775
 10
3.415164000000002
 20
114.36864375
 10
3.416596250000002
 20
114.37348375
 10
3.418840000000002
 20
114.38159775
 10
3.421782250000002
 20
114.3930065
 10
3.425317000000002
 20
114.4077315
 10
3.429317500000002
 20
114.42580775
 10
3.433677750000002
 20
114.4472495
 10
3.438271000000002
 20
114.472071
 10
3.442991250000002
 20
114.50029325
 10
3.447711250000002
 20
114.53191625
 10
3.452318500000002
 20
114.56696125
 10
3.456693000000002
 20
114.605421
 10
3.460721750000002
 20
114.64730275
 10
3.464284750000003
 20
114.6926065
 10
3.467262250000002
 20
114.741318
 10
3.469527000000002
 20
114.7934445
 10
3.470980500000002
 20
114.84896475
 10
3.471488500000003
 20
114.9078645
 10
3.470938250000002
 20
114.97013675
 10
3.469216750000002
 20
115.0357535
 10
3.466204000000002
 20
115.10468625
 10
3.461780000000002
 20
115.176921
 10
3.455832250000002
 20
115.2524225
 10
3.448247500000002
 20
115.3311625
 10
3.438906000000002
 20
115.41309875
 10
3.427694750000002
 20
115.49819575
 10
3.414508000000002
 20
115.5864115
 10
3.399225500000002
 20
115.67771025
 10
3.381734750000003
 20
115.772029
 10
3.361937000000002
 20
115.869332
 10
3.339712000000003
 20
115.96956325
 10
3.314954000000002
 20
116.072659
 10
3.287557250000002
 20
116.17857
 10
3.257423000000002
 20
116.28723275
 10
3.221072750000002
 20
116.3854955
 10
2.482638250000002
 20
116.55247925
 10
2.407546000000002
 20
116.479419
 10
2.333589750000002
 20
116.39430075
 10
2.263288250000002
 20
116.31048075
 10
2.196578000000001
 20
116.22806475
 10
2.133395500000002
 20
116.14715175
 10
2.073649000000002
 20
116.06784025
 10
2.017282000000002
 20
115.990215
 10
1.964203250000002
 20
115.91438175
 10
1.914341500000002
 20
115.8404185
 10
1.867605500000002
 20
115.7684235
 10
1.823917500000002
 20
115.69848175
 10
1.783193000000002
 20
115.63066375
 10
1.745339750000002
 20
115.56506825
 10
1.710266750000002
 20
115.501766
 10
1.677881750000002
 20
115.440834
 10
1.648100250000002
 20
115.3823505
 10
1.620809250000002
 20
115.32637175
 10
1.595924250000002
 20
115.2729825
 10
1.573346500000002
 20
115.222239
 10
1.552970000000002
 20
115.17421175
 10
1.534689250000002
 20
115.1289575
 10
1.518412000000002
 20
115.08653225
 10
1.504025750000002
 20
115.046993
 10
1.491431500000002
 20
115.01038875
 10
1.480516500000002
 20
114.976776
 10
1.471168000000002
 20
114.94619025
 10
1.463287000000002
 20
114.91868775
 10
1.456753500000002
 20
114.89430375
 10
1.451461750000002
 20
114.8730735
 10
1.447299000000002
 20
114.8550325
 10
1.444145250000002
 20
114.840223
 10
1.441894500000002
 20
114.82865875
 10
1.440434000000002
 20
114.8203685
 10
1.439636750000002
 20
114.81538025
 10
1.355626250000002
 20
114.17605525
 10
0.0000000000000027
 20
114.2647225
 10
-0.0000212499999973
 20
114.90955075
 10
-0.0001552499999973
 20
114.9145955
 10
-0.0005292499999973
 20
114.92300575
 10
-0.0012559999999973
 20
114.93476025
 10
-0.0024482499999973
 20
114.94985925
 10
-0.0042262499999973
 20
114.96828825
 10
-0.0067097499999973
 20
114.9900265
 10
-0.0100047499999973
 20
115.0150595
 10
-0.0142379999999973
 20
115.04335225
 10
-0.0195227499999973
 20
115.07489075
 10
-0.0259714999999973
 20
115.10963925
 10
-0.0336902499999973
 20
115.14757
 10
-0.0427989999999973
 20
115.1886475
 10
-0.0534174999999973
 20
115.23282925
 10
-0.0656377499999973
 20
115.28008025
 10
-0.0795867499999973
 20
115.33035825
 10
-0.0953629999999973
 20
115.3836065
 10
-0.1130864999999973
 20
115.43978275
 10
-0.1328489999999973
 20
115.49883775
 10
-0.1547634999999973
 20
115.560708
 10
-0.1789359999999973
 20
115.625337
 10
-0.2054577499999973
 20
115.692675
 10
-0.2344489999999973
 20
115.762638
 10
-0.2659944999999973
 20
115.83517625
 10
-0.3001997499999971
 20
115.910219
 10
-0.3371497499999971
 20
115.987689
 10
-0.3769572499999973
 20
116.0675155
 10
-0.4197067499999973
 20
116.149614
 10
-0.4654832499999974
 20
116.233921
 10
-0.5143852499999974
 20
116.3203445
 10
-0.5664904999999974
 20
116.4088
 10
-0.6218977499999974
 20
116.49920275
 10
-0.6806777499999971
 20
116.59146125
 10
-0.7429217499999971
 20
116.6854905
 10
-0.807853999999997
 20
116.767709
 10
-1.561747249999997
 20
116.69833875
 10
-1.610585749999997
 20
116.60564275
 10
-1.654626499999997
 20
116.5018345
 10
-1.695583999999997
 20
116.40039675
 10
-1.733556999999997
 20
116.30140025
 10
-1.768651499999997
 20
116.2049225
 10
-1.800958749999997
 20
116.11102725
 10
-1.830577999999997
 20
116.01978475
 10
-1.857628999999997
 20
115.93125875
 10
-1.882196499999997
 20
115.8455125
 10
-1.904393249999996
 20
115.76259575
 10
-1.924325249999997
 20
115.6825785
 10
-1.942105249999997
 20
115.60549675
 10
-1.957831999999997
 20
115.53141325
 10
-1.971632749999997
 20
115.460371
 10
-1.983598999999997
 20
115.392419
 10
-1.993857749999996
 20
115.3275855
 10
-2.002507749999997
 20
115.26591975
 10
-2.009676249999997
 20
115.2074505
 10
-2.015475999999997
 20
115.1522125
 10
-2.020012499999996
 20
115.10024125
 10
-2.023406249999997
 20
115.051551
 10
-2.025776999999997
 20
115.0061695
 10
-2.027237499999997
 20
114.9641185
 10
-2.027907749999997
 20
114.92541875
 10
-2.027907749999997
 20
114.8900775
 10
-2.027343249999996
 20
114.85810175
 10
-2.026341499999997
 20
114.8295125
 10
-2.025021999999997
 20
114.804296
 10
-2.023490999999996
 20
114.78247325
 10
-2.021882249999996
 20
114.76403
 10
-2.020294749999996
 20
114.74896625
 10
-2.018862499999997
 20
114.73727525
 10
-2.017691249999996
 20
114.72894275
 10
-2.016908249999997
 20
114.7239545
 10
-1.899249749999997
 20
114.08994925
 10
-3.215922249999997
 20
113.75536775
 10
-3.415206499999997
 20
114.3686295
 10
-3.416892749999997
 20
114.373392
 10
-3.419848999999997
 20
114.381273
 10
-3.424166999999997
 20
114.3922305
 10
-3.429966499999997
 20
114.4062215
 10
-3.437353749999997
 20
114.42319725
 10
-3.446434249999997
 20
114.443101
 10
-3.457306999999997
 20
114.4658905
 10
-3.470077499999997
 20
114.491488
 10
-3.484844749999997
 20
114.51985125
 10
-3.501714499999997
 20
114.55090975
 10
-3.520778749999997
 20
114.5846
 10
-3.542135749999997
 20
114.6208515
 10
-3.565884749999997
 20
114.6595935
 10
-3.592117499999997
 20
114.70075575
 10
-3.620918249999997
 20
114.74425325
 10
-3.652378999999997
 20
114.7900225
 10
-3.686584249999997
 20
114.83797925
 10
-3.723632999999997
 20
114.88803125
 10
-3.763595499999997
 20
114.94010125
 10
-3.806549749999997
 20
114.9941045
 10
-3.852587249999996
 20
115.04994225
 10
-3.901778749999997
 20
115.10752975
 10
-3.954194499999997
 20
115.166768
 10
-4.009911999999997
 20
115.22756575
 10
-4.069002499999997
 20
115.289824
 10
-4.131521749999997
 20
115.353437
 10
-4.197547499999997
 20
115.41831275
 10
-4.267136499999995
 20
115.48434575
 10
-4.340351999999996
 20
115.55143
 10
-4.417243499999996
 20
115.6194525
 10
-4.497874249999997
 20
115.68830775
 10
-4.582286999999997
 20
115.7578895
 10
-4.670537999999996
 20
115.82807825
 10
-4.757709249999996
 20
115.886216
 10
-5.453259999999997
 20
115.587265
 10
-5.471068249999997
 20
115.48402125
 10
-5.480868499999997
 20
115.3716825
 10
-5.488474249999997
 20
115.26255425
 10
-5.493998749999997
 20
115.1566715
 10
-5.497561999999997
 20
115.05406975
 10
-5.499276499999997
 20
114.954784
 10
-5.499255249999997
 20
114.8588565
 10
-5.497618249999997
 20
114.76630175
 10
-5.494485749999997
 20
114.677162
 10
-5.489977249999997
 20
114.591444
 10
-5.484205749999997
 20
114.50917625
 10
-5.477298249999996
 20
114.43037975
 10
-5.469360749999997
 20
114.35506175
 10
-5.460527249999997
 20
114.28323625
 10
-5.450910499999997
 20
114.214903
 10
-5.440630499999997
 20
114.15007675
 10
-5.429807499999997
 20
114.08875675
 10
-5.418560749999997
 20
114.0309365
 10
-5.407003749999996
 20
113.97660875
 10
-5.395256249999997
 20
113.9257735
 10
-5.383438249999997
 20
113.87842375
 10
-5.371669499999997
 20
113.834531
 10
-5.360070249999997
 20
113.7940885
 10
-5.348745999999997
 20
113.757068
 10
-5.337816999999997
 20
113.7234555
 10
-5.327402999999996
 20
113.6932225
 10
-5.317616999999997
 20
113.66634075
 10
-5.308571749999996
 20
113.6427752499999
 10
-5.300373249999997
 20
113.6224905
 10
-5.293141249999997
 20
113.60544425
 10
-5.286981749999997
 20
113.59160825
 10
-5.282000499999996
 20
113.58093325
 10
-5.278317499999997
 20
113.5733625
 10
-5.276024499999997
 20
113.56886825
 10
-4.968204749999997
 20
113.00225075
 10
-6.117046749999997
 20
112.2771725
 10
-6.496085249999997
 20
112.798839
 10
-6.499161499999996
 20
112.8028395
 10
-6.504403749999997
 20
112.80942225
 10
-6.511903749999997
 20
112.81851
 10
-6.521739249999997
 20
112.8300245
 10
-6.534015999999997
 20
112.84388875
 10
-6.548797249999998
 20
112.86001775
 10
-6.566182249999997
 20
112.878327
 10
-6.586233999999996
 20
112.8987245
 10
-6.609044749999997
 20
112.92114
 10
-6.634684499999997
 20
112.9454605
 10
-6.663231499999997
 20
112.9716085
 10
-6.694748499999997
 20
112.999485
 10
-6.729306749999997
 20
113.02899125
 10
-6.766969249999998
 20
113.06003575
 10
-6.807799749999997
 20
113.0925125
 10
-6.851868749999997
 20
113.1263155
 10
-6.899218499999997
 20
113.1613535
 10
-6.949919749999996
 20
113.197506
 10
-7.004014749999997
 20
113.23468175
 10
-7.061559749999998
 20
113.27276075
 10
-7.122597499999997
 20
113.31164375
 10
-7.187176999999997
 20
113.3512115
 10
-7.255333499999998
 20
113.3913505
 10
-7.327109749999997
 20
113.43195525
 10
-7.402547749999996
 20
113.4729055
 10
-7.481668749999997
 20
113.514089
 10
-7.564507999999997
 20
113.555392
 10
-7.651100999999997
 20
113.59668125
 10
-7.741454249999996
 20
113.6378575
 10
-7.835603749999997
 20
113.67878675
 10
-7.933569999999996
 20
113.71936325
 10
-8.035353499999999
 20
113.759453
 10
-8.140975249999996
 20
113.79893575
 10
-8.241841499999996
 20
113.827285
 10
-8.810970749999997
 20
113.328034
 10
-8.795998749999998
 20
113.2243385
 10
-8.770612999999999
 20
113.1144692499999
 10
-8.744119249999997
 20
113.0083325
 10
-8.716658999999996
 20
112.90592125
 10
-8.688337999999996
 20
112.80724225
 10
-8.659283249999996
 20
112.7122885
 10
-8.629621749999996
 20
112.62106025
 10
-8.599466249999997
 20
112.533543
 10
-8.568936999999996
 20
112.44973
 10
-8.538160499999996
 20
112.36960725
 10
-8.507257249999996
 20
112.29315325
 10
-8.476332749999995
 20
112.22034
 10
-8.445513999999995
 20
112.15116025
 10
-8.414914249999997
 20
112.08557875
 10
-8.384652999999996
 20
112.0235675
 10
-8.354843249999996
 20
111.965091
 10
-8.325597999999995
 20
111.91011425
 10
-8.297029999999995
 20
111.8585945
 10
-8.269252249999997
 20
111.81050375
 10
-8.242377499999996
 20
111.76578575
 10
-8.216504999999996
 20
111.72439775
 10
-8.191746999999995
 20
111.68629775
 10
-8.168216749999995
 20
111.65141525
 10
-8.146012749999997
 20
111.6197145
 10
-8.125234249999996
 20
111.5911185
 10
-8.105986749999996
 20
111.56558425
 10
-8.088368999999996
 20
111.54304175
 10
-8.072479749999995
 20
111.52342025
 10
-8.058417999999996
 20
111.5066635
 10
-8.046268499999996
 20
111.4926935
 10
-8.036136749999995
 20
111.48143275
 10
-8.028100499999998
 20
111.472818
 10
-8.022258499999997
 20
111.46676425
 10
-8.018688249999996
 20
111.463187
 10
-7.550841499999997
 20
111.019428
 10
-8.419394499999999
 20
109.97482475
 10
-8.941082249999995
 20
110.353828
 10
-8.945244999999996
 20
110.3566855
 10
-8.952265249999996
 20
110.361328
 10
-8.962206499999997
 20
110.36764975
 10
-8.975125249999996
 20
110.375566
 10
-8.991077999999996
 20
110.3849569999999
 10
-9.010120749999996
 20
110.39572375
 10
-9.032310499999995
 20
110.40776775
 10
-9.057689499999996
 20
110.42097575
 10
-9.086306749999996
 20
110.435235
 10
-9.118211999999996
 20
110.45044675
 10
-9.153440249999995
 20
110.466498
 10
-9.192027249999997
 20
110.48326925
 10
-9.234007749999996
 20
110.500654
 10
-9.279424249999996
 20
110.51854
 10
-9.328290999999996
 20
110.53680675
 10
-9.380650499999996
 20
110.55534175
 10
-9.436509249999996
 20
110.5740247499999
 10
-9.495902999999996
 20
110.59274325
 10
-9.558838499999996
 20
110.611384
 10
-9.625329999999996
 20
110.62982
 10
-9.695398749999998
 20
110.64793175
 10
-9.769037499999996
 20
110.665606
 10
-9.846267749999999
 20
110.68272275
 10
-9.927081999999996
 20
110.699162
 10
-10.01147349999999
 20
110.71479725
 10
-10.09945624999999
 20
110.729515
 10
-10.191002
 20
110.74318875
 10
-10.286111
 20
110.75570525
 10
-10.38477599999999
 20
110.76694475
 10
-10.4869615
 20
110.77678025
 10
-10.59266774999999
 20
110.78509175
 10
-10.70185949999999
 20
110.79176625
 10
-10.81451574999999
 20
110.796684
 10
-10.91919899999999
 20
110.792479
 10
-11.30620324999999
 20
110.14178725
 10
-11.25991874999999
 20
110.04779325
 10
-11.20182325
 20
109.95115325
 10
-11.14383374999999
 20
109.858394
 10
-11.08606274999999
 20
109.76947975
 10
-11.02863774999999
 20
109.68438275
 10
-10.97166399999999
 20
109.60305325
 10
-10.91526199999999
 20
109.52545625
 10
-10.85953724999999
 20
109.45154225
 10
-10.80460249999999
 20
109.381262
 10
-10.75057825
 20
109.31457275
 10
-10.69755574999999
 20
109.2514045
 10
-10.64564799999999
 20
109.1917215
 10
-10.59496099999999
 20
109.1354465
 10
-10.54559324999999
 20
109.08252975
 10
-10.49765074999999
 20
109.032901
 10
-10.45122499999999
 20
108.9864965
 10
-10.40642225
 20
108.943253
 10
-10.36333399999999
 20
108.90308575
 10
-10.32205899999999
 20
108.86593125
 10
-10.28267499999999
 20
108.83170475
 10
-10.24528049999999
 20
108.80034275
 10
-10.20996049999999
 20
108.77175375
 10
-10.17679924999999
 20
108.74585275
 10
-10.14588175
 20
108.72256225
 10
-10.11728575
 20
108.70179075
 10
-10.09109549999999
 20
108.6834535
 10
-10.06737474999999
 20
108.6674515
 10
-10.04620099999999
 20
108.65370725
 10
-10.02764474999999
 20
108.642115
 10
-10.01177699999999
 20
108.63257575
 10
-9.998660499999996
 20
108.62500525
 10
-9.988352499999995
 20
108.61929025
 10
-9.980922999999995
 20
108.615339
 10
-9.976428499999997
 20
108.613039
 10
-9.394352249999997
 20
108.33557225
 10
-9.897589749999996
 20
107.07370025
 10
-10.51086575
 20
107.272942
 10
-10.51570574999999
 20
107.27437425
 10
-10.52381974999999
 20
107.276618
 10
-10.5352285
 20
107.27956
 10
-10.54995349999999
 20
107.283095
 10
-10.56802975
 20
107.2870955
 10
-10.58947174999999
 20
107.29145575
 10
-10.61429299999999
 20
107.296049
 10
-10.64251524999999
 20
107.300769
 10
-10.67413825
 20
107.30548925
 10
-10.70918325
 20
107.3100965
 10
-10.747643
 20
107.314471
 10
-10.78952499999999
 20
107.31849975
 10
-10.83482849999999
 20
107.32206275
 10
-10.88354024999999
 20
107.32504025
 10
-10.93566649999999
 20
107.327305
 10
-10.99118674999999
 20
107.3287585
 10
-11.0500865
 20
107.3292665
 10
-11.11235899999999
 20
107.32871625
 10
-11.17797549999999
 20
107.3269945
 10
-11.24690825
 20
107.323982
 10
-11.31914299999999
 20
107.319558
 10
-11.39464449999999
 20
107.31361025
 10
-11.47338449999999
 20
107.3060255
 10
-11.55532074999999
 20
107.296684
 10
-11.64041775
 20
107.28547275
 10
-11.7286335
 20
107.27228575
 10
-11.81993224999999
 20
107.2570035
 10
-11.914251
 20
107.23951275
 10
-12.01155424999999
 20
107.219715
 10
-12.11178549999999
 20
107.19749
 10
-12.21488124999999
 20
107.172732
 10
-12.32079199999999
 20
107.14533525
 10
-12.42945474999999
 20
107.115201
 10
-12.52771749999999
 20
107.07885075
 10
-12.69470125
 20
106.34041625
 10
-12.62164099999999
 20
106.265324
 10
-12.53652274999999
 20
106.19136775
 10
-12.45270274999999
 20
106.121066
 10
-12.37028674999999
 20
106.05435575
 10
-12.28937375
 20
105.99117325
 10
-12.21006225
 20
105.931427
 10
-12.13243699999999
 20
105.87506
 10
-12.05660399999999
 20
105.821981
 10
-11.98264049999999
 20
105.7721195
 10
-11.91064549999999
 20
105.7253835
 10
-11.84070399999999
 20
105.6816955
 10
-11.77288599999999
 20
105.64097075
 10
-11.70729049999999
 20
105.60311775
 10
-11.64398799999999
 20
105.5680445
 10
-11.58305624999999
 20
105.5356595
 10
-11.52457274999999
 20
105.505878
 10
-11.46859399999999
 20
105.47858725
 10
-11.41520449999999
 20
105.45370225
 10
-11.36446099999999
 20
105.4311245
 10
-11.31643374999999
 20
105.410748
 10
-11.27117949999999
 20
105.392467
 10
-11.22875449999999
 20
105.37619
 10
-11.18921499999999
 20
105.36180375
 10
-11.15261074999999
 20
105.3492095
 10
-11.11899825
 20
105.3382945
 10
-11.08841224999999
 20
105.328946
 10
-11.06090974999999
 20
105.321065
 10
-11.03652574999999
 20
105.3145315
 10
-11.01529549999999
 20
105.30923975
 10
-10.99725449999999
 20
105.305077
 10
-10.98244499999999
 20
105.30192325
 10
-10.97088099999999
 20
105.2996725
 10
-10.96259049999999
 20
105.298212
 10
-10.95760225
 20
105.29741475
 10
-10.31827725
 20
105.21340425
 10
-10.40694449999999
 20
103.857778
 10
-11.05177274999999
 20
103.85775675
 10
-11.0568175
 20
103.85762275
 10
-11.06522774999999
 20
103.85724875
 10
-11.07698225
 20
103.856522
 10
-11.09208124999999
 20
103.85532975
 10
-11.11051024999999
 20
103.85355175
 10
-11.13224849999999
 20
103.851068
 10
-11.15728149999999
 20
103.84777325
 10
-11.18557449999999
 20
103.84353975
 10
-11.21711275
 20
103.83825525
 10
-11.25186124999999
 20
103.8318065
 10
-11.28979199999999
 20
103.82408775
 10
-11.3308695
 20
103.814979
 10
-11.37505124999999
 20
103.80436025
 10
-11.42230249999999
 20
103.79214
 10
-11.47258024999999
 20
103.77819125
 10
-11.52582849999999
 20
103.762415
 10
-11.58200499999999
 20
103.7446915
 10
-11.64106
 20
103.724929
 10
-11.70293
 20
103.70301425
 10
-11.76755899999999
 20
103.678842
 10
-11.83489725
 20
103.65232025
 10
-11.90485999999999
 20
103.623329
 10
-11.97739824999999
 20
103.5917835
 10
-12.052441
 20
103.55757825
 10
-12.12991099999999
 20
103.52062825
 10
-12.20973775
 20
103.48082075
 10
-12.291836
 20
103.43807125
 10
-12.37614299999999
 20
103.39229475
 10
-12.46256649999999
 20
103.34339275
 10
-12.55102199999999
 20
103.2912875
 10
-12.64142475
 20
103.23588
 10
-12.73368325
 20
103.17710025
 10
-12.82771249999999
 20
103.11485625
 10
-12.90993099999999
 20
103.049924
 10
-12.84056074999999
 20
102.29603075
 10
-12.74786499999999
 20
102.24719225
 10
-12.64405649999999
 20
102.2031515
 10
-12.54261875
 20
102.162194
 10
-12.44362224999999
 20
102.124221
 10
-12.3471445
 20
102.0891265
 10
-12.25324925
 20
102.05681925
 10
-12.16200674999999
 20
102.0272
 10
-12.07348074999999
 20
102.000149
 10
-11.9877345
 20
101.9755815
 10
-11.90481775
 20
101.95338475
 10
-11.82480074999999
 20
101.93345275
 10
-11.74771875
 20
101.91567275
 10
-11.67363549999999
 20
101.899946
 10
-11.60259299999999
 20
101.88614525
 10
-11.53464099999999
 20
101.874179
 10
-11.46980749999999
 20
101.86392025
 10
-11.40814199999999
 20
101.85527025
 10
-11.34967249999999
 20
101.84810175
 10
-11.29443449999999
 20
101.842302
 10
-11.24246324999999
 20
101.83776525
 10
-11.193773
 20
101.8343715
 10
-11.14839149999999
 20
101.832001
 10
-11.10634049999999
 20
101.8305405
 10
-11.06764075
 20
101.82987025
 10
-11.03229949999999
 20
101.82987025
 10
-11.00032374999999
 20
101.8304345
 10
-10.97173449999999
 20
101.8314365
 10
-10.94651799999999
 20
101.832756
 10
-10.92469524999999
 20
101.834287
 10
-10.90625199999999
 20
101.8358955
 10
-10.89118849999999
 20
101.837483
 10
-10.87949724999999
 20
101.8389155
 10
-10.87116474999999
 20
101.8400865
 10
-10.86617649999999
 20
101.84086975
 10
-10.23217124999999
 20
101.95852825
 10
-9.897589749999996
 20
100.64185575
 10
-10.51085149999999
 20
100.4425715
 10
-10.51561399999999
 20
100.44088525
 10
-10.52349524999999
 20
100.437929
 10
-10.53445249999999
 20
100.433611
 10
-10.54844349999999
 20
100.42781125
 10
-10.56541924999999
 20
100.42042425
 10
-10.58532299999999
 20
100.41134375
 10
-10.60811249999999
 20
100.400471
 10
-10.63371
 20
100.3877005
 10
-10.66207324999999
 20
100.37293325
 10
-10.69313199999999
 20
100.3560635
 10
-10.72682224999999
 20
100.33699925
 10
-10.76307349999999
 20
100.315642
 10
-10.80181574999999
 20
100.291893
 10
-10.84297774999999
 20
100.2656605
 10
-10.88647524999999
 20
100.23685975
 10
-10.93224474999999
 20
100.205399
 10
-10.98020124999999
 20
100.17119375
 10
-11.0302535
 20
100.134145
 10
-11.08232349999999
 20
100.09418225
 10
-11.13632649999999
 20
100.051228
 10
-11.19216424999999
 20
100.0051905
 10
-11.24975174999999
 20
99.95599925
 10
-11.30899024999999
 20
99.90358350000001
 10
-11.36978799999999
 20
99.84786575000001
 10
-11.432046
 20
99.78877549999999
 10
-11.49565899999999
 20
99.72625625
 10
-11.56053474999999
 20
99.6602305
 10
-11.62656775
 20
99.59064149999999
 10
-11.69365199999999
 20
99.51742600000001
 10
-11.76167449999999
 20
99.4405345
 10
-11.83052974999999
 20
99.3599035
 10
-11.90011174999999
 20
99.275491
 10
-11.97030025
 20
99.18723999999999
 10
-12.028438
 20
99.10006875
 10
-11.72948724999999
 20
98.404518
 10
-11.62624324999999
 20
98.38670974999999
 10
-11.51390474999999
 20
98.3769095
 10
-11.4047765
 20
98.36930350000001
 10
-11.29889374999999
 20
98.363779
 10
-11.19629175
 20
98.36021600000002
 10
-11.097006
 20
98.35850149999998
 10
-11.00107874999999
 20
98.35852275
 10
-10.90852399999999
 20
98.3601595
 10
-10.81938399999999
 20
98.36329225
 10
-10.73366599999999
 20
98.36780075
 10
-10.65139824999999
 20
98.37357224999999
 10
-10.57260174999999
 20
98.38047949999999
 10
-10.49728374999999
 20
98.38841699999999
 10
-10.42545824999999
 20
98.39725074999998
 10
-10.35712525
 20
98.40686749999999
 10
-10.29229874999999
 20
98.41714725
 10
-10.23097899999999
 20
98.42797050000001
 10
-10.1731585
 20
98.43921699999999
 10
-10.11883074999999
 20
98.450774
 10
-10.06799549999999
 20
98.46252149999999
 10
-10.02064574999999
 20
98.47433975000001
 10
-9.976752999999996
 20
98.48610825000001
 10
-9.936310749999996
 20
98.49770774999999
 10
-9.899290249999996
 20
98.50903175
 10
-9.865677499999993
 20
98.519961
 10
-9.835444499999997
 20
98.53037500000001
 10
-9.808562749999996
 20
98.540161
 10
-9.784997249999996
 20
98.54920625
 10
-9.764712499999996
 20
98.55740474999999
 10
-9.747666249999996
 20
98.56463675
 10
-9.733830249999996
 20
98.57079625
 10
-9.723155249999999
 20
98.5757775
 10
-9.715584749999996
 20
98.5794605
 10
-9.711090249999996
 20
98.58175349999999
 10
-9.144472749999994
 20
98.88957324999999
 10
-8.419394499999999
 20
97.74073125000001
 10
-8.941060999999995
 20
97.36169275000001
 10
-8.945061499999999
 20
97.3586165
 10
-8.951644499999996
 20
97.35337425
 10
-8.960731999999996
 20
97.345874
 10
-8.972246499999995
 20
97.33603875
 10
-8.986110749999996
 20
97.323762
 10
-9.002239749999999
 20
97.3089805
 10
-9.020548999999997
 20
97.29159575
 10
-9.040946499999996
 20
97.27154375000001
 10
-9.063361999999996
 20
97.24873325
 10
-9.087682499999996
 20
97.22309325000001
 10
-9.113830499999995
 20
97.19454650000001
 10
-9.141706999999996
 20
97.16302949999999
 10
-9.171213249999997
 20
97.12847124999999
 10
-9.202257749999995
 20
97.09080874999999
 10
-9.234734499999996
 20
97.04997825000001
 10
-9.268537499999998
 20
97.00590925
 10
-9.303575499999997
 20
96.95855950000002
 10
-9.339728249999996
 20
96.90785825
 10
-9.376903999999996
 20
96.85376325
 10
-9.414982749999996
 20
96.79621799999999
 10
-9.453865999999996
 20
96.7351805
 10
-9.493433499999996
 20
96.670601
 10
-9.533572499999996
 20
96.60244425
 10
-9.574177249999996
 20
96.53066824999999
 10
-9.615127749999995
 20
96.45523025000001
 10
-9.656310999999996
 20
96.37610925
 10
-9.697614249999999
 20
96.29326999999999
 10
-9.738903249999996
 20
96.20667699999998
 10
-9.780079499999995
 20
96.1163235
 10
-9.821008749999995
 20
96.02217424999999
 10
-9.861585249999995
 20
95.92420799999999
 10
-9.901674999999995
 20
95.8224245
 10
-9.941157749999996
 20
95.71680275
 10
-9.969506999999996
 20
95.6159365
 10
-9.470255999999995
 20
95.04680725
 10
-9.366560499999996
 20
95.061779
 10
-9.256691249999999
 20
95.087165
 10
-9.150554499999996
 20
95.1136585
 10
-9.048143249999995
 20
95.14111875000001
 10
-8.949464249999996
 20
95.16943975
 10
-8.854510499999996
 20
95.1984945
 10
-8.763282249999996
 20
95.22815624999999
 10
-8.675764999999996
 20
95.2583115
 10
-8.591952249999996
 20
95.28884099999999
 10
-8.511829249999996
 20
95.31961725
 10
-8.435375249999996
 20
95.35052075000001
 10
-8.362561999999995
 20
95.38144524999999
 10
-8.293382249999993
 20
95.41226374999999
 10
-8.227800749999996
 20
95.44286375
 10
-8.165789499999997
 20
95.473125
 10
-8.107312999999999
 20
95.50293475
 10
-8.052336249999996
 20
95.53217999999999
 10
-8.000816499999995
 20
95.56074799999999
 10
-7.952725999999996
 20
95.58852574999999
 10
-7.908007749999997
 20
95.61540024999999
 10
-7.866619999999996
 20
95.64127299999999
 10
-7.828519999999997
 20
95.666031
 10
-7.793637249999997
 20
95.68956124999999
 10
-7.7619365
 20
95.71176499999999
 10
-7.733340499999997
 20
95.73254374999999
 10
-7.707806499999997
 20
95.75179125
 10
-7.685263999999997
 20
95.769409
 10
-7.665642499999997
 20
95.785298
 10
-7.648885499999996
 20
95.79935974999999
 10
-7.634915499999997
 20
95.81150949999999
 10
-7.623654749999997
 20
95.82164125
 10
-7.615039999999996
 20
95.82967749999999
 10
-7.608986249999997
 20
95.83551949999998
 10
-7.605408999999997
 20
95.83908974999999
 10
-7.161649999999997
 20
96.30693649999999
 10
-6.117046749999997
 20
95.43838349999999
 10
-6.496049999999997
 20
94.91669575000001
 10
-6.498907499999996
 20
94.912533
 10
-6.503549999999997
 20
94.90551274999999
 10
-6.509871749999997
 20
94.89557150000001
 10
-6.517788249999997
 20
94.88265275000001
 10
-6.527178999999997
 20
94.8667
 10
-6.537945999999997
 20
94.847657
 10
-6.549989749999997
 20
94.8254675
 10
-6.563197749999996
 20
94.8000885
 10
-6.577456999999998
 20
94.77147125
 10
-6.592668749999996
 20
94.73956599999999
 10
-6.608720249999997
 20
94.70433749999999
 10
-6.625491249999997
 20
94.66575074999999
 10
-6.642875999999996
 20
94.62377025
 10
-6.660761999999996
 20
94.57835349999999
 10
-6.679028749999997
 20
94.52948675
 10
-6.697563749999996
 20
94.47712749999999
 10
-6.716246749999997
 20
94.42126874999999
 10
-6.734965249999996
 20
94.361875
 10
-6.753605999999996
 20
94.29893949999998
 10
-6.772042249999997
 20
94.23244799999999
 10
-6.790153749999998
 20
94.16237925
 10
-6.807827999999997
 20
94.08874049999999
 10
-6.824944749999996
 20
94.01151025
 10
-6.841384249999997
 20
93.930696
 10
-6.857019249999997
 20
93.84630450000001
 10
-6.871737249999997
 20
93.75832174999999
 10
-6.885410749999997
 20
93.66677575
 10
-6.897927499999997
 20
93.57166699999998
 10
-6.909166999999997
 20
93.47300199999999
 10
-6.91900225
 20
93.3708165
 10
-6.927313749999997
 20
93.26510999999999
 10
-6.933988249999997
 20
93.15591825
 10
-6.938905999999996
 20
93.04326225
 10
-6.934700999999996
 20
92.93857899999999
 10
-6.284009499999997
 20
92.55157475
 10
-6.190015249999997
 20
92.59785925
 10
-6.093375249999997
 20
92.65595449999999
 10
-6.000615999999997
 20
92.71394425
 10
-5.911701749999997
 20
92.77171499999999
 10
-5.826604749999997
 20
92.82914025
 10
-5.745275499999997
 20
92.88611399999998
 10
-5.667678499999997
 20
92.942516
 10
-5.593764499999997
 20
92.99824075
 10
-5.523483999999997
 20
93.05317524999999
 10
-5.456794999999996
 20
93.10719974999999
 10
-5.393626499999997
 20
93.16022225000001
 10
-5.333943499999997
 20
93.21213
 10
-5.277668499999997
 20
93.262817
 10
-5.224751749999997
 20
93.31218475
 10
-5.175122999999997
 20
93.36012725000001
 10
-5.128718499999997
 20
93.40655275000001
 10
-5.085474999999997
 20
93.4513555
 10
-5.045307749999997
 20
93.49444400000001
 10
-5.008153249999997
 20
93.535719
 10
-4.973926749999997
 20
93.57510299999999
 10
-4.942564749999997
 20
93.6124975
 10
-4.913975749999996
 20
93.6478175
 10
-4.888074749999996
 20
93.68097875
 10
-4.864784499999997
 20
93.71189599999999
 10
-4.844012749999997
 20
93.74049225
 10
-4.825675499999997
 20
93.76668249999999
 10
-4.809673499999997
 20
93.79040325
 10
-4.795929249999997
 20
93.81157700000001
 10
-4.784336999999997
 20
93.830133
 10
-4.774797749999997
 20
93.846001
 10
-4.767227249999996
 20
93.85911724999999
 10
-4.761512249999997
 20
93.8694255
 10
-4.757560999999997
 20
93.87685499999999
 10
-4.755260999999997
 20
93.88134949999999
 10
-4.477794249999996
 20
94.46342575
 10
-3.215922249999997
 20
93.96018824999998
 10
-3.415163999999997
 20
93.34691225
 10
-3.416596249999997
 20
93.34207199999999
 10
-3.418839999999997
 20
93.33395825
 10
-3.421782249999997
 20
93.32254949999999
 10
-3.425316999999997
 20
93.30782449999999
 10
-3.429317499999997
 20
93.28974799999999
 10
-3.433677749999997
 20
93.26830624999999
 10
-3.438270999999997
 20
93.24348474999998
 10
-3.442991249999997
 20
93.21526249999999
 10
-3.447711249999997
 20
93.1836395
 10
-3.452318499999996
 20
93.14859475
 10
-3.456692999999997
 20
93.11013475000001
 10
-3.460721749999997
 20
93.06825299999999
 10
-3.464284749999997
 20
93.02294924999999
 10
-3.467262249999996
 20
92.97423775
 10
-3.469526999999997
 20
92.92211124999999
 10
-3.470980499999997
 20
92.86659124999999
 10
-3.471488499999997
 20
92.80769149999999
 10
-3.470938249999997
 20
92.745419
 10
-3.469216749999997
 20
92.67980249999999
 10
-3.466203999999997
 20
92.61086949999999
 10
-3.461779999999997
 20
92.53863475000001
 10
-3.455832249999997
 20
92.46313325
 10
-3.448247499999997
 20
92.38439324999999
 10
-3.438905999999997
 20
92.30245724999999
 10
-3.427694749999997
 20
92.21735999999999
 10
-3.414507999999997
 20
92.12914449999999
 10
-3.399225499999996
 20
92.03784549999999
 10
-3.381734749999997
 20
91.94352699999999
 10
-3.361936999999997
 20
91.84622375
 10
-3.339711999999997
 20
91.74599249999999
 10
-3.314953999999997
 20
91.64289675
 10
-3.287557249999997
 20
91.53698574999999
 10
-3.257422999999997
 20
91.42832324999998
 10
-3.221072749999997
 20
91.3300605
 10
-2.482638249999997
 20
91.16307674999999
 10
-2.407545999999997
 20
91.23613699999999
 10
-2.333589749999997
 20
91.32125524999999
 10
-2.263288249999997
 20
91.40507525
 10
-2.196577999999996
 20
91.48749100000001
 10
-2.133395499999997
 20
91.56840425
 10
-2.073648999999997
 20
91.64771575000001
 10
-2.017281999999997
 20
91.725341
 10
-1.964203249999997
 20
91.801174
 10
-1.914341499999997
 20
91.87513749999999
 10
-1.867605499999997
 20
91.94713224999999
 10
-1.823917499999996
 20
92.017074
 10
-1.783192999999997
 20
92.084892
 10
-1.745339749999996
 20
92.15048749999999
 10
-1.710266749999997
 20
92.21379
 10
-1.677881749999997
 20
92.27472175
 10
-1.648100249999997
 20
92.33320524999999
 10
-1.620809249999997
 20
92.38918400000001
 10
-1.595924249999997
 20
92.44257349999999
 10
-1.573346499999997
 20
92.49331699999999
 10
-1.552969999999997
 20
92.54134425
 10
-1.534689249999997
 20
92.58659849999999
 10
-1.518411999999997
 20
92.6290235
 10
-1.504025749999997
 20
92.668563
 10
-1.491431499999997
 20
92.70516699999999
 10
-1.480516499999997
 20
92.73877974999999
 10
-1.471167999999997
 20
92.7693655
 10
-1.463286999999997
 20
92.79686825
 10
-1.456753499999997
 20
92.82125224999999
 10
-1.451461749999997
 20
92.84248224999998
 10
-1.447298999999997
 20
92.8605235
 10
-1.444145249999997
 20
92.87533299999999
 10
-1.441894499999997
 20
92.886897
 10
-1.440433999999997
 20
92.89518724999998
 10
-1.439636749999997
 20
92.90017549999999
 10
-1.355626249999997
 20
93.53950075
 10
0.0000000000000027
 20
93.45083349999999
 10
0.0000212500000027
 20
92.806005
 10
0.0001552500000027
 20
92.8009605
 10
0.0005292500000027
 20
92.79255025000001
 10
0.0012560000000027
 20
92.78079549999999
 10
0.0024482500000027
 20
92.76569675000001
 10
0.0042262500000027
 20
92.74726749999999
 10
0.0067097500000027
 20
92.72552949999999
 10
0.0100047500000027
 20
92.70049625
 10
0.0142380000000027
 20
92.6722035
 10
0.0195227500000027
 20
92.64066525
 10
0.0259715000000027
 20
92.6059165
 10
0.0336902500000027
 20
92.56798599999999
 10
0.0427990000000027
 20
92.52690849999998
 10
0.0534175000000027
 20
92.4827265
 10
0.0656377500000027
 20
92.4354755
 10
0.0795867500000027
 20
92.38519774999998
 10
0.0953630000000027
 20
92.33194949999999
 10
0.1130865000000027
 20
92.275773
 10
0.1328490000000027
 20
92.21671800000001
 10
0.1547635000000027
 20
92.15484799999998
 10
0.1789360000000027
 20
92.09021899999999
 10
0.2054577500000026
 20
92.02288075
 10
0.2344490000000027
 20
91.95291799999999
 10
0.2659945000000027
 20
91.88037974999998
 10
0.3001997500000025
 20
91.80533674999999
 10
0.3371497500000025
 20
91.72786675000001
 10
0.3769572500000027
 20
91.64804025
 10
0.4197067500000028
 20
91.56594175
 10
0.4654832500000028
 20
91.481635
 10
0.5143852500000027
 20
91.3952115
 10
0.5664905000000027
 20
91.30675600000001
 10
0.6218977500000027
 20
91.21635324999999
 10
0.6806777500000024
 20
91.12409474999999
 10
0.7429217500000024
 20
91.03006524999999
 10
0.8078540000000023
 20
90.94784699999999
 10
1.561747250000002
 20
91.01721725
 10
1.610585750000002
 20
91.109913
 10
1.654626500000002
 20
91.2137215
 10
1.695584000000002
 20
91.31515925
 10
1.733557000000002
 20
91.41415574999999
 10
1.768651500000002
 20
91.51063325
 10
1.800958750000002
 20
91.60452875
 10
1.830578000000002
 20
91.69577099999999
 10
1.857629000000002
 20
91.78429724999999
 10
1.882196500000002
 20
91.87004325
 10
1.904393250000002
 20
91.95296024999999
 10
1.924325250000002
 20
92.03297724999998
 10
1.942105250000002
 20
92.11005925
 10
1.957832000000002
 20
92.1841425
 10
1.971632750000002
 20
92.25518499999999
 10
1.983599000000002
 20
92.323137
 10
1.993857750000002
 20
92.3879705
 10
2.002507750000002
 20
92.449636
 10
2.009676250000002
 20
92.5081055
 10
2.015476000000002
 20
92.56334350000001
 10
2.020012500000002
 20
92.61531449999999
 10
2.023406250000002
 20
92.66400499999999
 10
2.025777000000002
 20
92.70938624999999
 10
2.027237500000002
 20
92.75143749999999
 10
2.027907750000002
 20
92.79013725
 10
2.027907750000002
 20
92.8254785
 10
2.027343250000002
 20
92.85745424999999
 10
2.026341500000002
 20
92.88604324999999
 10
2.025022000000002
 20
92.91126
 10
2.023491000000002
 20
92.93308274999999
 10
2.021882250000002
 20
92.95152599999999
 10
2.020294750000001
 20
92.96658949999999
 10
2.018862500000002
 20
92.97828049999999
 10
2.017691250000002
 20
92.98661324999999
 10
2.016908250000002
 20
92.9916015
 10
1.899249750000002
 20
93.62560675
 10
3.215922250000002
 20
93.96018824999998
 10
3.415206500000002
 20
93.34692625
 10
3.416892750000002
 20
93.34216375
 10
3.419849000000002
 20
93.33428275000001
 10
3.424167000000002
 20
93.3233255
 10
3.429966500000002
 20
93.30933424999999
 10
3.437353750000002
 20
93.29235875
 10
3.446434250000002
 20
93.272455
 10
3.457307000000002
 20
93.24966549999999
 10
3.470077500000002
 20
93.22406800000001
 10
3.484844750000002
 20
93.19570449999998
 10
3.501714500000002
 20
93.16464600000001
 10
3.520778750000002
 20
93.13095575
 10
3.542135750000002
 20
93.09470424999998
 10
3.565884750000003
 20
93.05596225
 10
3.592117500000002
 20
93.01480025
 10
3.620918250000003
 20
92.97130274999998
 10
3.652379000000002
 20
92.92553325
 10
3.686584250000002
 20
92.87757674999999
 10
3.723633000000002
 20
92.8275245
 10
3.763595500000002
 20
92.77545449999999
 10
3.806549750000002
 20
92.72145124999999
 10
3.852587250000002
 20
92.66561375
 10
3.901778750000002
 20
92.60802625
 10
3.954194500000002
 20
92.54878774999999
 10
4.009912000000002
 20
92.48798999999999
 10
4.069002500000002
 20
92.42573175
 10
4.131521750000002
 20
92.36211899999998
 10
4.197547500000002
 20
92.29724299999999
 10
4.2671365
 20
92.23121025000001
 10
4.340352000000001
 20
92.16412599999999
 10
4.417243500000002
 20
92.09610324999999
 10
4.497874250000002
 20
92.02724825
 10
4.582287000000002
 20
91.95766625
 10
4.670538000000002
 20
91.8874775
 10
4.757709250000002
 20
91.82933975
 10
5.453260000000002
 20
92.12829075
 10
5.471068250000002
 20
92.23153475
 10
5.480868500000002
 20
92.34387325
 10
5.488474250000002
 20
92.4530015
 10
5.493998750000002
 20
92.55888425
 10
5.497562000000002
 20
92.66148624999999
 10
5.499276500000002
 20
92.76077200000001
 10
5.499255250000002
 20
92.85669924999998
 10
5.497618250000003
 20
92.949254
 10
5.494485750000002
 20
93.03839399999999
 10
5.489977250000002
 20
93.12411199999999
 10
5.484205750000002
 20
93.20637975
 10
5.477298250000002
 20
93.28517599999999
 10
5.469360750000002
 20
93.36049425
 10
5.460527250000002
 20
93.43231975
 10
5.450910500000002
 20
93.50065275
 10
5.440630500000002
 20
93.56547924999999
 10
5.429807500000002
 20
93.62679899999999
 10
5.418560750000002
 20
93.68461925
 10
5.407003750000002
 20
93.73894699999999
 10
5.395256250000002
 20
93.78978250000001
 10
5.383438250000002
 20
93.83713224999999
 10
5.371669500000002
 20
93.88102475
 10
5.360070250000002
 20
93.92146724999999
 10
5.348746000000002
 20
93.95848775000001
 10
5.337817000000002
 20
93.99210049999998
 10
5.327403000000002
 20
94.02233350000001
 10
5.317617000000002
 20
94.04921525
 10
5.308571750000002
 20
94.07278074999998
 10
5.300373250000002
 20
94.0930655
 10
5.293141250000002
 20
94.11011175
 10
5.286981750000002
 20
94.1239475
 10
5.282000500000002
 20
94.13462274999998
 10
5.278317500000002
 20
94.14219324999999
 10
5.276024500000002
 20
94.14668775
 10
4.968204750000002
 20
94.71330524999999
 10
6.117046750000002
 20
95.43838349999999
 10
6.496085250000002
 20
94.91671699999999
 10
6.499161500000002
 20
94.91271649999999
 10
6.504403750000002
 20
94.9061335
 10
6.511903750000002
 20
94.89704599999999
 10
6.521739250000003
 20
94.88553125000001
 10
6.534016000000002
 20
94.87166724999999
 10
6.548797250000003
 20
94.85553825
 10
6.566182250000002
 20
94.837229
 10
6.586234000000001
 20
94.8168315
 10
6.609044750000002
 20
94.79441599999999
 10
6.634684500000003
 20
94.7700955
 10
6.663231500000002
 20
94.7439475
 10
6.694748500000002
 20
94.71607099999999
 10
6.729306750000002
 20
94.68656475000001
 10
6.766969250000003
 20
94.65552024999999
 10
6.807799750000002
 20
94.6230435
 10
6.851868750000003
 20
94.58924024999999
 10
6.899218500000002
 20
94.55420250000001
 10
6.949919750000002
 20
94.51804974999999
 10
7.004014750000003
 20
94.480874
 10
7.061559750000003
 20
94.44279524999998
 10
7.122597500000003
 20
94.40391199999998
 10
7.187177000000002
 20
94.36434449999998
 10
7.255333500000003
 20
94.32420550000001
 10
7.327109750000002
 20
94.28360074999998
 10
7.402547750000001
 20
94.24265025
 10
7.481668750000002
 20
94.201467
 10
7.564508000000002
 20
94.16016374999999
 10
7.651101000000002
 20
94.11887475
 10
7.741454250000002
 20
94.07769849999999
 10
7.835603750000003
 20
94.03676924999999
 10
7.933570000000002
 20
93.99619275
 10
8.035353500000006
 20
93.95610299999999
 10
8.140975250000003
 20
93.91662
 10
8.241841500000003
 20
93.888271
 10
8.810970750000004
 20
94.38752199999999
 10
8.795998750000006
 20
94.49121750000001
 10
8.770613000000006
 20
94.6010865
 10
8.744119250000004
 20
94.70722325
 10
8.716659000000003
 20
94.80963475000001
 10
8.688338000000003
 20
94.90831374999999
 10
8.659283250000003
 20
95.00326749999999
 10
8.629621750000003
 20
95.09449574999999
 10
8.599466250000004
 20
95.18201275
 10
8.568937000000003
 20
95.26582574999999
 10
8.538160500000003
 20
95.34594874999999
 10
8.507257250000003
 20
95.42240275000001
 10
8.476332750000002
 20
95.495216
 10
8.445514000000002
 20
95.56439574999998
 10
8.414914250000004
 20
95.629977
 10
8.384653000000003
 20
95.69198849999999
 10
8.354843250000003
 20
95.75046474999998
 10
8.325598000000002
 20
95.80544174999999
 10
8.297030000000003
 20
95.8569615
 10
8.269252250000004
 20
95.905052
 10
8.242377500000003
 20
95.94977025
 10
8.216505000000003
 20
95.99115799999998
 10
8.191747000000002
 20
96.02925800000001
 10
8.168216750000002
 20
96.06414074999999
 10
8.146012750000004
 20
96.09584125000001
 10
8.125234250000003
 20
96.1244375
 10
8.105986750000003
 20
96.1499715
 10
8.088369000000003
 20
96.172514
 10
8.072479750000002
 20
96.19213549999999
 10
8.058418000000003
 20
96.20889249999999
 10
8.046268500000003
 20
96.2228625
 10
8.036136750000002
 20
96.23412325
 10
8.028100500000006
 20
96.242738
 10
8.022258500000004
 20
96.24879175
 10
8.018688250000003
 20
96.25236875
 10
7.550841500000002
 20
96.69612800000001
 10
8.419394500000006
 20
97.74073125000001
 10
8.941082250000002
 20
97.361728
 10
8.945245000000003
 20
97.3588705
 10
8.952265250000003
 20
97.35422800000002
 10
8.962206500000004
 20
97.347906
 10
8.975125250000003
 20
97.33998975
 10
8.991078000000003
 20
97.33059875
 10
9.010120750000004
 20
97.319832
 10
9.032310500000003
 20
97.30778824999999
 10
9.057689500000003
 20
97.29458024999999
 10
9.086306750000003
 20
97.280321
 10
9.118212000000003
 20
97.26510924999999
 10
9.153440250000002
 20
97.24905774999999
 10
9.192027250000004
 20
97.23228674999999
 10
9.234007750000003
 20
97.21490174999999
 10
9.279424250000003
 20
97.197016
 10
9.328291000000003
 20
97.17874925
 10
9.380650500000003
 20
97.16021425
 10
9.436509250000003
 20
97.141531
 10
9.495903000000003
 20
97.12281275
 10
9.558838500000003
 20
97.10417200000001
 10
9.625330000000003
 20
97.08573575
 10
9.695398750000006
 20
97.06762425
 10
9.769037500000003
 20
97.04995
 10
9.846267750000006
 20
97.03283325000001
 10
9.927082000000003
 20
97.01639375
 10
10.0114735
 20
97.00075874999999
 10
10.09945625
 20
96.98604075
 10
10.191002
 20
96.97236699999999
 10
10.286111
 20
96.9598505
 10
10.384776
 20
96.948611
 10
10.4869615
 20
96.93877549999999
 10
10.59266775
 20
96.93046425
 10
10.7018595
 20
96.9237895
 10
10.81451575
 20
96.918872
 10
10.919199
 20
96.923077
 10
11.30620325
 20
97.57376849999999
 10
11.25991875
 20
97.66776274999999
 10
11.20182325
 20
97.7644025
 10
11.14383375
 20
97.85716200000001
 10
11.08606275
 20
97.94607599999999
 10
11.02863775
 20
98.03117325
 10
10.971664
 20
98.1125025
 10
10.915262
 20
98.19009950000001
 10
10.85953725
 20
98.26401350000001
 10
10.8046025
 20
98.33429399999999
 10
10.75057825
 20
98.40098300000001
 10
10.69755575
 20
98.4641515
 10
10.645648
 20
98.52383450000001
 10
10.594961
 20
98.5801095
 10
10.54559325
 20
98.63302625000001
 10
10.49765075
 20
98.68265499999999
 10
10.451225
 20
98.72905925000001
 10
10.40642225
 20
98.77230275
 10
10.363334
 20
98.81247
 10
10.322059
 20
98.84962475
 10
10.282675
 20
98.88385124999999
 10
10.2452805
 20
98.915213
 10
10.2099605
 20
98.94380225
 10
10.17679925
 20
98.96970324999999
 10
10.14588175
 20
98.99299349999999
 10
10.11728575
 20
99.01376499999999
 10
10.0910955
 20
99.0321025
 10
10.06737475
 20
99.04810449999999
 10
10.046201
 20
99.06184875
 10
10.02764475
 20
99.07344100000001
 10
10.011777
 20
99.08298
 10
9.998660500000003
 20
99.09055074999999
 10
9.988352500000003
 20
99.09626575
 10
9.980923000000002
 20
99.10021675000001
 10
9.976428500000004
 20
99.10251699999999
 10
9.394352250000004
 20
99.37998374999999
 10
9.897589750000003
 20
100.64185575
 10
10.51086575
 20
100.442614
 10
10.51570575
 20
100.4411815
 10
10.52381975
 20
100.438938
 10
10.5352285
 20
100.43599575
 10
10.5499535
 20
100.432461
 10
10.56802975
 20
100.4284605
 10
10.58947175
 20
100.4241
 10
10.614293
 20
100.419507
 10
10.64251525
 20
100.41478675
 10
10.67413825
 20
100.4100665
 10
10.70918325
 20
100.40545925
 10
10.747643
 20
100.401085
 10
10.789525
 20
100.39705625
 10
10.8348285
 20
100.393493
 10
10.88354025
 20
100.39051575
 10
10.9356665
 20
100.38825075
 10
10.99118675
 20
100.3867975
 10
11.0500865
 20
100.3862895
 10
11.112359
 20
100.38683975
 10
11.1779755
 20
100.38856125
 10
11.24690825
 20
100.391574
 10
11.319143
 20
100.39599775
 10
11.3946445
 20
100.40194575
 10
11.4733845
 20
100.4095305
 10
11.55532075
 20
100.418872
 10
11.64041775
 20
100.43008325
 10
11.7286335
 20
100.44327
 10
11.81993225
 20
100.4585525
 10
11.914251
 20
100.476043
 10
12.01155425
 20
100.495841
 10
12.1117855
 20
100.518066
 10
12.21488125
 20
100.542824
 10
12.320792
 20
100.57022075
 10
12.42945475
 20
100.600355
 10
12.5277175
 20
100.63670525
 10
12.69470125
 20
101.3751395
 10
12.621641
 20
101.450232
 10
12.53652275
 20
101.52418825
 10
12.45270275
 20
101.59448975
 10
12.37028675
 20
101.6612
 10
12.28937375
 20
101.7243825
 10
12.21006225
 20
101.784129
 10
12.132437
 20
101.84049575
 10
12.056604
 20
101.89357475
 10
11.9826405
 20
101.9434365
 10
11.9106455
 20
101.9901725
 10
11.840704
 20
102.0338605
 10
11.772886
 20
102.074585
 10
11.7072905
 20
102.112438
 10
11.643988
 20
102.14751125
 10
11.58305625
 20
102.17989625
 10
11.52457275
 20
102.20967775
 10
11.468594
 20
102.23696875
 10
11.4152045
 20
102.2618535
 10
11.364461
 20
102.2844315
 10
11.31643375
 20
102.30480775
 10
11.2711795
 20
102.32308875
 10
11.2287545
 20
102.339366
 10
11.189215
 20
102.35375225
 10
11.15261075
 20
102.3663465
 10
11.11899825
 20
102.37726125
 10
11.08841225
 20
102.38661
 10
11.06090975
 20
102.394491
 10
11.03652575
 20
102.4010245
 10
11.0152955
 20
102.406316
 10
10.9972545
 20
102.410479
 10
10.982445
 20
102.41363275
 10
10.970881
 20
102.4158835
 10
10.9625905
 20
102.417344
 10
10.95760225
 20
102.41814125
 10
10.31827725
 20
102.50215175
 10
10.4069445
 20
103.857778
  0
LWPOLYLINE
  5
105
330
1F
100
AcDbEntity
  8
0
 62
     1
100
AcDbPolyline
 90
        2
 70
     0
 43
0.0
 10
11.7594945
 20
103.857778
 10
11.7594945
 20
103.857778
  0
CIRCLE
  5
1005F
330
1F
100
AcDbEntity
  8
0
  6
Continuous
100
AcDbCircle
 10
0.0000000000000036
 20
103.857778
 30
0.0
 40
11.7594945
  0
ENDSEC
  0
SECTION
  2
OBJECTS
  0
DICTIONARY
  5
C
330
0
100
AcDbDictionary
281
     1
  3
ACAD_CIP_PREVIOUS_PRODUCT_INFO
350
10056
  3
ACAD_COLOR
350
10035
  3
ACAD_DETAILVIEWSTYLE
350
1004E
  3
ACAD_GROUP
350
D
  3
ACAD_LAYOUT
350
10050
  3
ACAD_MATERIAL
350
10003
  3
ACAD_MLEADERSTYLE
350
1004A
  3
ACAD_MLINESTYLE
350
17
  3
ACAD_PLOTSETTINGS
350
10051
  3
ACAD_PLOTSTYLENAME
350
10001
  3
ACAD_SCALELIST
350
10038
  3
ACAD_SECTIONVIEWSTYLE
350
1004C
  3
ACAD_TABLESTYLE
350
10036
  3
ACAD_VISUALSTYLE
350
1001C
  3
ACDB_RECOMPOSE_DATA
350
1008C
  3
AcDbVariableDictionary
350
1006B
  0
DICTIONARY
  5
10065
330
2
100
AcDbDictionary
280
     1
281
     1
  3
ACAD_LAYERSTATES
360
10066
  0
DICTIONARY
  5
10060
330
50
100
AcDbDictionary
280
     1
281
     1
  3
ADSK_XREC_LAYER_RECONCILED
360
10061
  0
XRECORD
  5
10056
102
{ACAD_REACTORS
330
C
102
}
330
C
100
AcDbXrecord
280
     1
300
ACD
300
2014
300
ACD_F_S
  0
DICTIONARY
  5
10035
102
{ACAD_REACTORS
330
C
102
}
330
C
100
AcDbDictionary
281
     1
  0
DICTIONARY
  5
1004E
102
{ACAD_REACTORS
330
C
102
}
330
C
100
AcDbDictionary
281
     1
  3
Metric50
350
1004F
  0
DICTIONARY
  5
D
330
C
100
AcDbDictionary
281
     1
  0
DICTIONARY
  5
10050
102
{ACAD_REACTORS
330
C
102
}
330
C
100
AcDbDictionary
281
     1
  3
Layout1
350
10053
  3
Model
350
10052
  0
DICTIONARY
  5
10003
102
{ACAD_REACTORS
330
C
102
}
330
C
100
AcDbDictionary
281
     1
  3
ByBlock
350
1000C
  3
ByLayer
350
10004
  3
Global
350
10014
  0
DICTIONARY
  5
1004A
102
{ACAD_REACTORS
330
C
102
}
330
C
100
AcDbDictionary
281
     1
  3
Standard
350
1004B
  0
DICTIONARY
  5
17
330
C
100
AcDbDictionary
281
     1
  3
Standard
350
1007F
  0
DICTIONARY
  5
10051
102
{ACAD_REACTORS
330
C
102
}
330
C
100
AcDbDictionary
281
     1
  0
ACDBDICTIONARYWDFLT
  5
10001
102
{ACAD_REACTORS
330
C
102
}
330
C
100
AcDbDictionary
281
     1
  3
Normal
350
10002
100
AcDbDictionaryWithDefault
340
10002
  0
DICTIONARY
  5
10038
102
{ACAD_REACTORS
330
C
102
}
330
C
100
AcDbDictionary
281
     1
  3
A0
350
10039
  3
A1
350
1003A
  3
A2
350
1003B
  3
A3
350
1003C
  3
A4
350
1003D
  3
A5
350
1003E
  3
A6
350
1003F
  3
A7
350
10040
  3
A8
350
10041
  3
A9
350
10042
  3
B0
350
10043
  3
B1
350
10044
  3
B2
350
10045
  3
B3
350
10046
  3
B4
350
10047
  3
B5
350
10048
  3
B6
350
10049
  0
DICTIONARY
  5
1004C
102
{ACAD_REACTORS
330
C
102
}
330
C
100
AcDbDictionary
281
     1
  3
Metric50
350
1004D
  0
DICTIONARY
  5
10036
102
{ACAD_REACTORS
330
C
102
}
330
C
100
AcDbDictionary
281
     1
  3
Standard
350
10037
  0
DICTIONARY
  5
1001C
102
{ACAD_REACTORS
330
C
102
}
330
C
100
AcDbDictionary
281
     1
  3
2dWireframe
350
10022
  3
Basic
350
10021
  3
Brighten
350
10028
  3
ColorChange
350
1002C
  3
Conceptual
350
10025
  3
Dim
350
10027
  3
EdgeColorOff
350
10034
  3
Facepattern
350
1002B
  3
Flat
350
1001D
  3
FlatWithEdges
350
1001E
  3
Gouraud
350
1001F
  3
GouraudWithEdges
350
10020
  3
Hidden
350
10024
  3
JitterOff
350
10032
  3
Linepattern
350
1002A
  3
OverhangOff
350
10033
  3
Realistic
350
10026
  3
Shaded
350
10031
  3
Shaded with edges
350
10030
  3
Shades of Gray
350
1002D
  3
Sketchy
350
1002E
  3
Thicken
350
10029
  3
Wireframe
350
10023
  3
X-Ray
350
1002F
  0
XRECORD
  5
1008C
102
{ACAD_REACTORS
330
C
102
}
330
C
100
AcDbXrecord
280
     1
 90
        1
330
10037
330
1004D
330
1004F
  0
DICTIONARY
  5
1006B
102
{ACAD_REACTORS
330
C
102
}
330
C
100
AcDbDictionary
281
     1
  3
CANNOSCALE
350
10071
  3
CMLEADERSTYLE
350
1006D
  3
CTABLESTYLE
350
1006C
  3
CVIEWDETAILSTYLE
350
1006E
  3
CVIEWSECTIONSTYLE
350
1006F
  3
LAYEREVAL
350
10073
  3
LAYERNOTIFY
350
10074
  3
LIGHTINGUNITS
350
10072
  3
MSLTSCALE
350
10070
  0
DICTIONARY
  5
10066
102
{ACAD_REACTORS
330
10065
102
}
330
10065
100
AcDbDictionary
281
     1
  0
XRECORD
  5
10061
102
{ACAD_REACTORS
330
10060
102
}
330
10060
100
AcDbXrecord
280
     1
290
     1
  0
ACDBDETAILVIEWSTYLE
  5
1004F
102
{ACAD_XDICTIONARY
360
1007A
102
}
102
{ACAD_REACTORS
330
1004E
102
}
330
1004E
100
AcDbModelDocViewStyle
 70
     0
  3
Metric50
290
     0
100
AcDbDetailViewStyle
 70
     0
 71
     0
 90
        3
 71
     1
340
11
 62
   256
 40
5.0
340
0
 62
   256
 40
5.0
300

 40
0.0
280
     1
 71
     2
340
16
 90
       25
 62
   256
 71
     3
340
11
 62
   256
 40
5.0
 90
        0
 40
15.0
 90
        1
300
%<\AcVar ViewDetailId>% (%<\AcVar ViewScale \f "%sn">%)
 71
     4
340
16
 90
       25
 62
   256
340
16
 90
       25
 62
   256
280
     0
  0
LAYOUT
  5
10053
102
{ACAD_REACTORS
330
10050
102
}
330
10050
100
AcDbPlotSettings
  1

  2
Microsoft XPS Document Writer
  4

  6

 40
0.0
 41
0.0
 42
0.0
 43
0.0
 44
0.0
 45
0.0
 46
0.0
 47
0.0
 48
0.0
 49
0.0
140
0.0
141
0.0
142
1.0
143
1.0
 70
   688
 72
     0
 73
     0
 74
     5
  7

 75
    16
147
1.0
 76
     0
 77
     2
 78
   300
148
0.0
149
0.0
100
AcDbLayout
  1
Layout1
 70
     1
 71
     1
 10
0.0
 20
0.0
 11
12.0
 21
9.0
 12
0.0
 22
0.0
 32
0.0
 14
1.000000000000000E+20
 24
1.000000000000000E+20
 34
1.000000000000000E+20
 15
-1.000000000000000E+20
 25
-1.000000000000000E+20
 35
-1.000000000000000E+20
146
0.0
 13
0.0
 23
0.0
 33
0.0
 16
1.0
 26
0.0
 36
0.0
 17
0.0
 27
1.0
 37
0.0
 76
     0
330
1B
  0
LAYOUT
  5
10052
102
{ACAD_REACTORS
330
10050
102
}
330
10050
100
AcDbPlotSettings
  1

  2
Microsoft XPS Document Writer
  4

  6

 40
0.0
 41
0.0
 42
0.0
 43
0.0
 44
0.0
 45
0.0
 46
0.0
 47
0.0
 48
0.0
 49
0.0
140
0.0
141
0.0
142
1.0
143
1.0
 70
  1712
 72
     0
 73
     0
 74
     0
  7

 75
     0
147
1.0
 76
     0
 77
     2
 78
   300
148
0.0
149
0.0
100
AcDbLayout
  1
Model
 70
     1
 71
     0
 10
0.0
 20
0.0
 11
12.0
 21
9.0
 12
0.0
 22
0.0
 32
0.0
 14
0.0
 24
0.0
 34
0.0
 15
0.0
 25
0.0
 35
0.0
146
0.0
 13
0.0
 23
0.0
 33
0.0
 16
1.0
 26
0.0
 36
0.0
 17
0.0
 27
1.0
 37
0.0
 76
     0
330
1F
331
2E
  0
MATERIAL
  5
1000C
102
{ACAD_XDICTIONARY
360
1000D
102
}
102
{ACAD_REACTORS
330
10003
102
}
330
10003
100
AcDbMaterial
  1
ByBlock
 72
     0
 43
0.0208333333333333
 43
0.0
 43
0.0
 43
0.0
 43
0.0
 43
0.0208333333333333
 43
0.0
 43
0.0
 43
0.0
 43
0.0
 43
1.0
 43
0.0
 43
0.0
 43
0.0
 43
0.0
 43
1.0
 77
     0
 47
0.0208333333333333
 47
0.0
 47
0.0
 47
0.0
 47
0.0
 47
0.0208333333333333
 47
0.0
 47
0.0
 47
0.0
 47
0.0
 47
1.0
 47
0.0
 47
0.0
 47
0.0
 47
0.0
 47
1.0
171
     0
 49
0.0208333333333333
 49
0.0
 49
0.0
 49
0.0
 49
0.0
 49
0.0208333333333333
 49
0.0
 49
0.0
 49
0.0
 49
0.0
 49
1.0
 49
0.0
 49
0.0
 49
0.0
 49
0.0
 49
1.0
175
     0
142
0.0208333333333333
142
0.0
142
0.0
142
0.0
142
0.0
142
0.0208333333333333
142
0.0
142
0.0
142
0.0
142
0.0
142
1.0
142
0.0
142
0.0
142
0.0
142
0.0
142
1.0
179
     0
144
0.0208333333333333
144
0.0
144
0.0
144
0.0
144
0.0
144
0.0208333333333333
144
0.0
144
0.0
144
0.0
144
0.0
144
1.0
144
0.0
144
0.0
144
0.0
144
0.0
144
1.0
147
0.0208333333333333
147
0.0
147
0.0
147
0.0
147
0.0
147
0.0208333333333333
147
0.0
147
0.0
147
0.0
147
0.0
147
1.0
147
0.0
147
0.0
147
0.0
147
0.0
147
1.0
  0
MATERIAL
  5
10004
102
{ACAD_XDICTIONARY
360
10005
102
}
102
{ACAD_REACTORS
330
10003
102
}
330
10003
100
AcDbMaterial
  1
ByLayer
 72
     0
 43
0.0208333333333333
 43
0.0
 43
0.0
 43
0.0
 43
0.0
 43
0.0208333333333333
 43
0.0
 43
0.0
 43
0.0
 43
0.0
 43
1.0
 43
0.0
 43
0.0
 43
0.0
 43
0.0
 43
1.0
 77
     0
 47
0.0208333333333333
 47
0.0
 47
0.0
 47
0.0
 47
0.0
 47
0.0208333333333333
 47
0.0
 47
0.0
 47
0.0
 47
0.0
 47
1.0
 47
0.0
 47
0.0
 47
0.0
 47
0.0
 47
1.0
171
     0
 49
0.0208333333333333
 49
0.0
 49
0.0
 49
0.0
 49
0.0
 49
0.0208333333333333
 49
0.0
 49
0.0
 49
0.0
 49
0.0
 49
1.0
 49
0.0
 49
0.0
 49
0.0
 49
0.0
 49
1.0
175
     0
142
0.0208333333333333
142
0.0
142
0.0
142
0.0
142
0.0
142
0.0208333333333333
142
0.0
142
0.0
142
0.0
142
0.0
142
1.0
142
0.0
142
0.0
142
0.0
142
0.0
142
1.0
179
     0
144
0.0208333333333333
144
0.0
144
0.0
144
0.0
144
0.0
144
0.0208333333333333
144
0.0
144
0.0
144
0.0
144
0.0
144
1.0
144
0.0
144
0.0
144
0.0
144
0.0
144
1.0
147
0.0208333333333333
147
0.0
147
0.0
147
0.0
147
0.0
147
0.0208333333333333
147
0.0
147
0.0
147
0.0
147
0.0
147
1.0
147
0.0
147
0.0
147
0.0
147
0.0
147
1.0
  0
MATERIAL
  5
10014
102
{ACAD_XDICTIONARY
360
10015
102
}
102
{ACAD_REACTORS
330
10003
102
}
330
10003
100
AcDbMaterial
  1
Global
 72
     0
 43
0.0208333333333333
 43
0.0
 43
0.0
 43
0.0
 43
0.0
 43
0.0208333333333333
 43
0.0
 43
0.0
 43
0.0
 43
0.0
 43
1.0
 43
0.0
 43
0.0
 43
0.0
 43
0.0
 43
1.0
 77
     0
 47
0.0208333333333333
 47
0.0
 47
0.0
 47
0.0
 47
0.0
 47
0.0208333333333333
 47
0.0
 47
0.0
 47
0.0
 47
0.0
 47
1.0
 47
0.0
 47
0.0
 47
0.0
 47
0.0
 47
1.0
171
     0
 49
0.0208333333333333
 49
0.0
 49
0.0
 49
0.0
 49
0.0
 49
0.0208333333333333
 49
0.0
 49
0.0
 49
0.0
 49
0.0
 49
1.0
 49
0.0
 49
0.0
 49
0.0
 49
0.0
 49
1.0
175
     0
142
0.0208333333333333
142
0.0
142
0.0
142
0.0
142
0.0
142
0.0208333333333333
142
0.0
142
0.0
142
0.0
142
0.0
142
1.0
142
0.0
142
0.0
142
0.0
142
0.0
142
1.0
179
     0
144
0.0208333333333333
144
0.0
144
0.0
144
0.0
144
0.0
144
0.0208333333333333
144
0.0
144
0.0
144
0.0
144
0.0
144
1.0
144
0.0
144
0.0
144
0.0
144
0.0
144
1.0
147
0.0208333333333333
147
0.0
147
0.0
147
0.0
147
0.0
147
0.0208333333333333
147
0.0
147
0.0
147
0.0
147
0.0
147
1.0
147
0.0
147
0.0
147
0.0
147
0.0
147
1.0
  0
MLEADERSTYLE
  5
1004B
102
{ACAD_REACTORS
330
1004A
102
}
330
1004A
100
AcDbMLeaderStyle
179
     2
170
     2
171
     1
172
     0
 90
        2
 40
0.0
 41
0.0
173
     1
 91
-1056964608
340
14
 92
       -2
290
     1
 42
2.0
291
     1
 43
0.36
  3
Standard
 44
4.0
300

342
11
174
     1
178
     6
175
     1
176
     0
 93
-1056964608
 45
4.0
292
     0
297
     0
 46
4.0
 94
-1056964608
 47
1.0
 49
1.0
140
1.0
293
     1
141
0.0
294
     1
177
     0
142
1.0
295
     0
296
     0
143
0.125
271
     0
272
     9
273
     9
298
     0
  0
MLINESTYLE
  5
1007F
102
{ACAD_REACTORS
330
17
102
}
330
17
100
AcDbMlineStyle
  2
STANDARD
 70
     0
  3

 62
   256
 51
90.0
 52
90.0
 71
     2
 49
0.5
 62
   256
  6
BYLAYER
 49
-0.5
 62
   256
  6
BYLAYER
  0
ACDBPLACEHOLDER
  5
10002
102
{ACAD_REACTORS
330
10001
102
}
330
10001
  0
SCALE
  5
10039
102
{ACAD_REACTORS
330
10038
102
}
330
10038
100
AcDbScale
 70
     0
300
1:1
140
1.0
141
1.0
290
     1
  0
SCALE
  5
1003A
102
{ACAD_REACTORS
330
10038
102
}
330
10038
100
AcDbScale
 70
     0
300
1:2
140
1.0
141
2.0
290
     0
  0
SCALE
  5
1003B
102
{ACAD_REACTORS
330
10038
102
}
330
10038
100
AcDbScale
 70
     0
300
1:4
140
1.0
141
4.0
290
     0
  0
SCALE
  5
1003C
102
{ACAD_REACTORS
330
10038
102
}
330
10038
100
AcDbScale
 70
     0
300
1:5
140
1.0
141
5.0
290
     0
  0
SCALE
  5
1003D
102
{ACAD_REACTORS
330
10038
102
}
330
10038
100
AcDbScale
 70
     0
300
1:8
140
1.0
141
8.0
290
     0
  0
SCALE
  5
1003E
102
{ACAD_REACTORS
330
10038
102
}
330
10038
100
AcDbScale
 70
     0
300
1:10
140
1.0
141
10.0
290
     0
  0
SCALE
  5
1003F
102
{ACAD_REACTORS
330
10038
102
}
330
10038
100
AcDbScale
 70
     0
300
1:16
140
1.0
141
16.0
290
     0
  0
SCALE
  5
10040
102
{ACAD_REACTORS
330
10038
102
}
330
10038
100
AcDbScale
 70
     0
300
1:20
140
1.0
141
20.0
290
     0
  0
SCALE
  5
10041
102
{ACAD_REACTORS
330
10038
102
}
330
10038
100
AcDbScale
 70
     0
300
1:30
140
1.0
141
30.0
290
     0
  0
SCALE
  5
10042
102
{ACAD_REACTORS
330
10038
102
}
330
10038
100
AcDbScale
 70
     0
300
1:40
140
1.0
141
40.0
290
     0
  0
SCALE
  5
10043
102
{ACAD_REACTORS
330
10038
102
}
330
10038
100
AcDbScale
 70
     0
300
1:50
140
1.0
141
50.0
290
     0
  0
SCALE
  5
10044
102
{ACAD_REACTORS
330
10038
102
}
330
10038
100
AcDbScale
 70
     0
300
1:100
140
1.0
141
100.0
290
     0
  0
SCALE
  5
10045
102
{ACAD_REACTORS
330
10038
102
}
330
10038
100
AcDbScale
 70
     0
300
2:1
140
2.0
141
1.0
290
     0
  0
SCALE
  5
10046
102
{ACAD_REACTORS
330
10038
102
}
330
10038
100
AcDbScale
 70
     0
300
4:1
140
4.0
141
1.0
290
     0
  0
SCALE
  5
10047
102
{ACAD_REACTORS
330
10038
102
}
330
10038
100
AcDbScale
 70
     0
300
8:1
140
8.0
141
1.0
290
     0
  0
SCALE
  5
10048
102
{ACAD_REACTORS
330
10038
102
}
330
10038
100
AcDbScale
 70
     0
300
10:1
140
10.0
141
1.0
290
     0
  0
SCALE
  5
10049
102
{ACAD_REACTORS
330
10038
102
}
330
10038
100
AcDbScale
 70
     0
300
100:1
140
100.0
141
1.0
290
     0
  0
ACDBSECTIONVIEWSTYLE
  5
1004D
102
{ACAD_XDICTIONARY
360
10078
102
}
102
{ACAD_REACTORS
330
1004C
102
}
330
1004C
100
AcDbModelDocViewStyle
 70
     0
  3
Metric50
290
     0
100
AcDbSectionViewStyle
 70
     0
 71
     0
 90
      102
 71
     1
340
11
 62
   256
 40
5.0
340
0
340
0
 62
   256
 40
5.0
300
I, O, Q, S, X, Z
 40
10.0
 90
        0
 40
2.5
 90
        0
 71
     2
340
16
 90
       25
 62
   256
340
16
 90
       50
 62
   256
 40
5.0
 40
2.5
 40
5.0
 71
     3
340
11
 62
   256
 40
5.0
 90
        0
 40
15.0
 90
        1
300
%<\AcVar ViewSectionStartId>%-%<\AcVar ViewSectionEndId>% (%<\AcVar ViewScale \f "%sn">%)
 71
     4
 62
   256
 62
   257
300
ANSI31
 40
1.0
 90
        0
290
     0
290
     0
 90
        6
 40
0.0
 40
1.570796326794896
 40
0.2617993877991494
 40
1.308996938995747
 40
-0.2617993877991494
 40
1.832595714594045
  0
TABLESTYLE
  5
10037
102
{ACAD_XDICTIONARY
360
10076
102
}
102
{ACAD_REACTORS
330
10036
102
}
330
10036
100
AcDbTableStyle
280
     0
  3
Standard
 70
     0
 71
     0
 40
1.5
 41
1.5
280
     0
281
     0
  7
STANDARD
140
4.5
170
     2
 62
     0
 63
     7
283
     0
 90
      512
 91
        0
  1

274
    -2
284
     1
 64
     0
275
    -2
285
     1
 65
     0
276
    -2
286
     1
 66
     0
277
    -2
287
     1
 67
     0
278
    -2
288
     1
 68
     0
279
    -2
289
     1
 69
     0
  7
STANDARD
140
6.0
170
     5
 62
     0
 63
     7
283
     0
 90
      512
 91
        0
  1

274
    -2
284
     1
 64
     0
275
    -2
285
     1
 65
     0
276
    -2
286
     1
 66
     0
277
    -2
287
     1
 67
     0
278
    -2
288
     1
 68
     0
279
    -2
289
     1
 69
     0
  7
STANDARD
140
4.5
170
     5
 62
     0
 63
     7
283
     0
 90
      512
 91
        0
  1

274
    -2
284
     1
 64
     0
275
    -2
285
     1
 65
     0
276
    -2
286
     1
 66
     0
277
    -2
287
     1
 67
     0
278
    -2
288
     1
 68
     0
279
    -2
289
     1
 69
     0
  0
VISUALSTYLE
  5
10022
102
{ACAD_REACTORS
330
1001C
102
}
330
1001C
100
AcDbVisualStyle
  2
2dWireframe
 70
     4
177
     3
291
     0
 70
    58
 90
        0
176
     1
 90
        2
176
     1
 90
        0
176
     1
 90
        0
176
     1
 40
0.6
176
     1
 40
30.0
176
     1
 62
     7
420
 16777215
176
     1
 90
        1
176
     1
 90
        4
176
     1
 62
     7
176
     1
 62
   257
176
     1
 90
        1
176
     1
 90
        1
176
     1
 40
1.0
176
     1
 90
        0
176
     1
 62
   257
176
     1
 40
1.0
176
     1
 90
        1
176
     1
 90
        6
176
     1
 90
        2
176
     1
 62
     7
176
     1
 90
        5
176
     1
 90
        0
176
     1
 90
        0
176
     1
290
     0
176
     1
 90
        1
176
     1
 40
0.0
176
     1
 90
        0
176
     1
290
     1
176
     1
290
     1
176
     1
290
     0
176
     1
290
     0
176
     1
290
     0
176
     1
290
     0
176
     1
290
     0
176
     1
290
     0
176
     1
290
     0
176
     1
 90
       50
176
     1
 40
0.0
176
     1
 40
1.0
176
     1
 90
        0
176
     1
 62
    18
176
     1
 90
       50
176
     1
 90
        3
176
     1
 62
     5
420
      255
176
     1
290
     0
176
     1
 90
       50
176
     1
 90
       50
176
     1
 90
       50
176
     1
290
     0
176
     1
 90
       50
176
     1
 62
   256
176
     0
 40
1.0
176
     0
 90
        2
176
     1
  1
strokes_ogs.tif
176
     1
290
     0
176
     1
 40
1.0
176
     1
 40
1.0
176
     1
  0
VISUALSTYLE
  5
10021
102
{ACAD_REACTORS
330
1001C
102
}
330
1001C
100
AcDbVisualStyle
  2
Basic
 70
     7
177
     3
291
     1
 70
    58
 90
        1
176
     1
 90
        0
176
     1
 90
        1
176
     1
 90
        0
176
     1
 40
0.6
176
     1
 40
30.0
176
     1
 62
     7
420
 16777215
176
     1
 90
        0
176
     1
 90
        4
176
     1
 62
     7
176
     1
 62
   257
176
     1
 90
        1
176
     1
 90
        1
176
     1
 40
1.0
176
     1
 90
        8
176
     1
 62
     7
176
     1
 40
1.0
176
     1
 90
        1
176
     1
 90
        6
176
     1
 90
        2
176
     1
 62
     7
176
     1
 90
        5
176
     1
 90
        0
176
     1
 90
        0
176
     1
290
     0
176
     1
 90
        1
176
     1
 40
0.0
176
     1
 90
        0
176
     1
290
     0
176
     1
290
     1
176
     1
290
     1
176
     1
290
     0
176
     1
290
     0
176
     1
290
     0
176
     1
290
     0
176
     1
290
     0
176
     1
290
     0
176
     1
 90
       50
176
     1
 40
0.0
176
     1
 40
1.0
176
     1
 90
        0
176
     1
 62
    18
176
     1
 90
       50
176
     1
 90
        3
176
     1
 62
     5
420
      255
176
     1
290
     0
176
     1
 90
       50
176
     1
 90
       50
176
     1
 90
       50
176
     1
290
     0
176
     1
 90
       50
176
     1
 62
   256
176
     0
 40
1.0
176
     0
 90
        2
176
     1
  1
strokes_ogs.tif
176
     1
290
     0
176
     1
 40
1.0
176
     1
 40
1.0
176
     1
  0
VISUALSTYLE
  5
10028
102
{ACAD_REACTORS
330
1001C
102
}
330
1001C
100
AcDbVisualStyle
  2
Brighten
 70
    12
177
     3
291
     1
 70
    58
 90
        2
176
     1
 90
        2
176
     1
 90
        0
176
     1
 90
        0
176
     1
 40
0.6
176
     1
 40
30.0
176
     1
 62
     7
420
 16777215
176
     1
 90
        1
176
     1
 90
        4
176
     1
 62
     7
176
     1
 62
   257
176
     1
 90
        1
176
     1
 90
        1
176
     1
 40
1.0
176
     1
 90
        8
176
     1
 62
     7
176
     1
 40
1.0
176
     1
 90
        1
176
     1
 90
        6
176
     1
 90
        2
176
     1
 62
     7
176
     1
 90
        5
176
     1
 90
        0
176
     1
 90
        0
176
     1
290
     0
176
     1
 90
        1
176
     1
 40
50.0
176
     1
 90
        0
176
     1
290
     0
176
     1
290
     1
176
     1
290
     1
176
     1
290
     0
176
     1
290
     0
176
     1
290
     0
176
     1
290
     0
176
     1
290
     0
176
     1
290
     0
176
     1
 90
       50
176
     1
 40
0.0
176
     1
 40
1.0
176
     1
 90
        0
176
     1
 62
    18
176
     1
 90
       50
176
     1
 90
        3
176
     1
 62
     5
420
      255
176
     1
290
     0
176
     1
 90
       50
176
     1
 90
       50
176
     1
 90
       50
176
     1
290
     0
176
     1
 90
       50
176
     1
 62
   256
176
     0
 40
1.0
176
     0
 90
        2
176
     1
  1
strokes_ogs.tif
176
     1
290
     0
176
     1
 40
1.0
176
     1
 40
1.0
176
     1
  0
VISUALSTYLE
  5
1002C
102
{ACAD_REACTORS
330
1001C
102
}
330
1001C
100
AcDbVisualStyle
  2
ColorChange
 70
    16
177
     3
291
     1
 70
    58
 90
        2
176
     1
 90
        2
176
     1
 90
        3
176
     1
 90
        0
176
     1
 40
0.6
176
     1
 40
30.0
176
     1
 62
     8
420
  8421504
176
     1
 90
        1
176
     1
 90
        4
176
     1
 62
     7
176
     1
 62
   257
176
     1
 90
        1
176
     1
 90
        1
176
     1
 40
1.0
176
     1
 90
        8
176
     1
 62
     8
420
  8421504
176
     1
 40
1.0
176
     1
 90
        1
176
     1
 90
        6
176
     1
 90
        2
176
     1
 62
     7
176
     1
 90
        5
176
     1
 90
        0
176
     1
 90
        0
176
     1
290
     0
176
     1
 90
        1
176
     1
 40
0.0
176
     1
 90
        0
176
     1
290
     0
176
     1
290
     1
176
     1
290
     1
176
     1
290
     0
176
     1
290
     0
176
     1
290
     0
176
     1
290
     0
176
     1
290
     0
176
     1
290
     0
176
     1
 90
       50
176
     1
 40
0.0
176
     1
 40
1.0
176
     1
 90
        0
176
     1
 62
    18
176
     1
 90
       50
176
     1
 90
        3
176
     1
 62
     5
420
      255
176
     1
290
     0
176
     1
 90
       50
176
     1
 90
       50
176
     1
 90
       50
176
     1
290
     0
176
     1
 90
       50
176
     1
 62
   256
176
     0
 40
1.0
176
     0
 90
        2
176
     1
  1
strokes_ogs.tif
176
     1
290
     0
176
     1
 40
1.0
176
     1
 40
1.0
176
     1
  0
VISUALSTYLE
  5
10025
102
{ACAD_REACTORS
330
1001C
102
}
330
1001C
100
AcDbVisualStyle
  2
Conceptual
 70
     9
177
     3
291
     0
 70
    58
 90
        3
176
     1
 90
        2
176
     1
 90
        0
176
     1
 90
        0
176
     1
 40
0.6
176
     1
 40
30.0
176
     1
 62
     7
420
 16777215
176
     1
 90
        2
176
     1
 90
        2
176
     1
 62
     7
176
     1
 62
   257
176
     1
 90
        1
176
     1
 90
        1
176
     1
 40
179.0
176
     1
 90
        8
176
     1
 62
     7
176
     1
 40
1.0
176
     1
 90
        1
176
     1
 90
        6
176
     1
 90
        2
176
     1
 62
     7
176
     1
 90
        3
176
     1
 90
        0
176
     1
 90
        0
176
     1
290
     0
176
     1
 90
        1
176
     1
 40
0.0
176
     1
 90
        0
176
     1
290
     0
176
     1
290
     1
176
     1
290
     1
176
     1
290
     0
176
     1
290
     0
176
     1
290
     0
176
     1
290
     0
176
     1
290
     0
176
     1
290
     0
176
     1
 90
       50
176
     1
 40
0.0
176
     1
 40
1.0
176
     1
 90
        0
176
     1
 62
    18
176
     1
 90
       50
176
     1
 90
        3
176
     1
 62
     5
420
      255
176
     1
290
     0
176
     1
 90
       50
176
     1
 90
       50
176
     1
 90
       50
176
     1
290
     0
176
     1
 90
       50
176
     1
 62
   256
176
     0
 40
1.0
176
     0
 90
        2
176
     1
  1
strokes_ogs.tif
176
     1
290
     0
176
     1
 40
1.0
176
     1
 40
1.0
176
     1
  0
VISUALSTYLE
  5
10027
102
{ACAD_REACTORS
330
1001C
102
}
330
1001C
100
AcDbVisualStyle
  2
Dim
 70
    11
177
     3
291
     1
 70
    58
 90
        2
176
     1
 90
        2
176
     1
 90
        0
176
     1
 90
        0
176
     1
 40
0.6
176
     1
 40
30.0
176
     1
 62
     7
420
 16777215
176
     1
 90
        1
176
     1
 90
        4
176
     1
 62
     7
176
     1
 62
   257
176
     1
 90
        1
176
     1
 90
        1
176
     1
 40
1.0
176
     1
 90
        8
176
     1
 62
     7
176
     1
 40
1.0
176
     1
 90
        1
176
     1
 90
        6
176
     1
 90
        2
176
     1
 62
     7
176
     1
 90
        5
176
     1
 90
        0
176
     1
 90
        0
176
     1
290
     0
176
     1
 90
        1
176
     1
 40
-50.0
176
     1
 90
        0
176
     1
290
     0
176
     1
290
     1
176
     1
290
     1
176
     1
290
     0
176
     1
290
     0
176
     1
290
     0
176
     1
290
     0
176
     1
290
     0
176
     1
290
     0
176
     1
 90
       50
176
     1
 40
0.0
176
     1
 40
1.0
176
     1
 90
        0
176
     1
 62
    18
176
     1
 90
       50
176
     1
 90
        3
176
     1
 62
     5
420
      255
176
     1
290
     0
176
     1
 90
       50
176
     1
 90
       50
176
     1
 90
       50
176
     1
290
     0
176
     1
 90
       50
176
     1
 62
   256
176
     0
 40
1.0
176
     0
 90
        2
176
     1
  1
strokes_ogs.tif
176
     1
290
     0
176
     1
 40
1.0
176
     1
 40
1.0
176
     1
  0
VISUALSTYLE
  5
10034
102
{ACAD_REACTORS
330
1001C
102
}
330
1001C
100
AcDbVisualStyle
  2
EdgeColorOff
 70
    22
177
     3
291
     1
 70
    58
 90
        2
176
     0
 90
        2
176
     0
 90
        0
176
     0
 90
        0
176
     0
 40
0.6
176
     0
 40
30.0
176
     0
 62
     7
420
 16777215
176
     0
 90
        1
176
     0
 90
        4
176
     0
 62
     7
176
     0
 62
   257
176
     0
 90
        1
176
     0
 90
        1
176
     0
 40
1.0
176
     0
 90
        8
176
     2
 62
     7
176
     0
 40
1.0
176
     0
 90
        1
176
     0
 90
        6
176
     0
 90
        2
176
     0
 62
     7
176
     0
 90
        5
176
     0
 90
        0
176
     0
 90
        0
176
     0
290
     0
176
     0
 90
        1
176
     0
 40
0.0
176
     0
 90
        0
176
     0
290
     0
176
     1
290
     1
176
     1
290
     1
176
     1
290
     0
176
     1
290
     0
176
     1
290
     0
176
     1
290
     0
176
     1
290
     0
176
     1
290
     0
176
     1
 90
       50
176
     0
 40
0.0
176
     0
 40
1.0
176
     0
 90
        0
176
     0
 62
    18
176
     0
 90
       50
176
     0
 90
        3
176
     0
 62
     5
420
      255
176
     0
290
     0
176
     1
 90
       50
176
     0
 90
       50
176
     0
 90
       50
176
     0
290
     0
176
     1
 90
       50
176
     0
 62
   256
176
     0
 40
1.0
176
     0
 90
        2
176
     0
  1
strokes_ogs.tif
176
     0
290
     0
176
     1
 40
1.0
176
     0
 40
1.0
176
     0
  0
VISUALSTYLE
  5
1002B
102
{ACAD_REACTORS
330
1001C
102
}
330
1001C
100
AcDbVisualStyle
  2
Facepattern
 70
    15
177
     3
291
     1
 70
    58
 90
        2
176
     1
 90
        2
176
     1
 90
        0
176
     1
 90
        0
176
     1
 40
0.6
176
     1
 40
30.0
176
     1
 62
     7
420
 16777215
176
     1
 90
        1
176
     1
 90
        4
176
     1
 62
     7
176
     1
 62
   257
176
     1
 90
        1
176
     1
 90
        1
176
     1
 40
1.0
176
     1
 90
        8
176
     1
 62
     7
176
     1
 40
1.0
176
     1
 90
        1
176
     1
 90
        6
176
     1
 90
        2
176
     1
 62
     7
176
     1
 90
        5
176
     1
 90
        0
176
     1
 90
        0
176
     1
290
     0
176
     1
 90
        1
176
     1
 40
0.0
176
     1
 90
        0
176
     1
290
     0
176
     1
290
     1
176
     1
290
     1
176
     1
290
     0
176
     1
290
     0
176
     1
290
     0
176
     1
290
     0
176
     1
290
     0
176
     1
290
     0
176
     1
 90
       50
176
     1
 40
0.0
176
     1
 40
1.0
176
     1
 90
        0
176
     1
 62
    18
176
     1
 90
       50
176
     1
 90
        3
176
     1
 62
     5
420
      255
176
     1
290
     0
176
     1
 90
       50
176
     1
 90
       50
176
     1
 90
       50
176
     1
290
     0
176
     1
 90
       50
176
     1
 62
   256
176
     0
 40
1.0
176
     0
 90
        2
176
     1
  1
strokes_ogs.tif
176
     1
290
     0
176
     1
 40
1.0
176
     1
 40
1.0
176
     1
  0
VISUALSTYLE
  5
1001D
102
{ACAD_REACTORS
330
1001C
102
}
330
1001C
100
AcDbVisualStyle
  2
Flat
 70
     0
177
     3
291
     1
 70
    58
 90
        2
176
     1
 90
        1
176
     1
 90
        1
176
     1
 90
        2
176
     1
 40
0.6
176
     1
 40
30.0
176
     1
 62
     7
420
 16777215
176
     1
 90
        0
176
     1
 90
        0
176
     1
 62
     7
176
     1
 62
   257
176
     1
 90
        1
176
     1
 90
        1
176
     1
 40
1.0
176
     1
 90
        8
176
     1
 62
     7
176
     1
 40
1.0
176
     1
 90
        1
176
     1
 90
        6
176
     1
 90
        2
176
     1
 62
     7
176
     1
 90
        5
176
     1
 90
        0
176
     1
 90
        0
176
     1
290
     0
176
     1
 90
       13
176
     1
 40
0.0
176
     1
 90
        0
176
     1
290
     0
176
     1
290
     1
176
     1
290
     1
176
     1
290
     0
176
     1
290
     0
176
     1
290
     0
176
     1
290
     0
176
     1
290
     0
176
     1
290
     0
176
     1
 90
       50
176
     1
 40
0.0
176
     1
 40
1.0
176
     1
 90
        0
176
     1
 62
    18
176
     1
 90
       50
176
     1
 90
        3
176
     1
 62
     5
420
      255
176
     1
290
     0
176
     1
 90
       50
176
     1
 90
       50
176
     1
 90
       50
176
     1
290
     0
176
     1
 90
       50
176
     1
 62
   256
176
     0
 40
1.0
176
     0
 90
        2
176
     1
  1
strokes_ogs.tif
176
     1
290
     0
176
     1
 40
1.0
176
     1
 40
1.0
176
     1
  0
VISUALSTYLE
  5
1001E
102
{ACAD_REACTORS
330
1001C
102
}
330
1001C
100
AcDbVisualStyle
  2
FlatWithEdges
 70
     1
177
     3
291
     1
 70
    58
 90
        2
176
     1
 90
        1
176
     1
 90
        1
176
     1
 90
        2
176
     1
 40
0.6
176
     1
 40
30.0
176
     1
 62
     7
420
 16777215
176
     1
 90
        1
176
     1
 90
        0
176
     1
 62
     7
176
     1
 62
   257
176
     1
 90
        1
176
     1
 90
        1
176
     1
 40
1.0
176
     1
 90
        0
176
     1
 62
   257
176
     1
 40
1.0
176
     1
 90
        1
176
     1
 90
        6
176
     1
 90
        2
176
     1
 62
     7
176
     1
 90
        5
176
     1
 90
        0
176
     1
 90
        0
176
     1
290
     0
176
     1
 90
       13
176
     1
 40
0.0
176
     1
 90
        0
176
     1
290
     0
176
     1
290
     1
176
     1
290
     1
176
     1
290
     0
176
     1
290
     0
176
     1
290
     0
176
     1
290
     0
176
     1
290
     0
176
     1
290
     0
176
     1
 90
       50
176
     1
 40
0.0
176
     1
 40
1.0
176
     1
 90
        0
176
     1
 62
    18
176
     1
 90
       50
176
     1
 90
        3
176
     1
 62
     5
420
      255
176
     1
290
     0
176
     1
 90
       50
176
     1
 90
       50
176
     1
 90
       50
176
     1
290
     0
176
     1
 90
       50
176
     1
 62
   256
176
     0
 40
1.0
176
     0
 90
        2
176
     1
  1
strokes_ogs.tif
176
     1
290
     0
176
     1
 40
1.0
176
     1
 40
1.0
176
     1
  0
VISUALSTYLE
  5
1001F
102
{ACAD_REACTORS
330
1001C
102
}
330
1001C
100
AcDbVisualStyle
  2
Gouraud
 70
     2
177
     3
291
     1
 70
    58
 90
        2
176
     1
 90
        2
176
     1
 90
        1
176
     1
 90
        2
176
     1
 40
0.6
176
     1
 40
30.0
176
     1
 62
     7
420
 16777215
176
     1
 90
        0
176
     1
 90
        0
176
     1
 62
     7
176
     1
 62
   257
176
     1
 90
        1
176
     1
 90
        1
176
     1
 40
1.0
176
     1
 90
        0
176
     1
 62
     7
176
     1
 40
1.0
176
     1
 90
        1
176
     1
 90
        6
176
     1
 90
        2
176
     1
 62
     7
176
     1
 90
        5
176
     1
 90
        0
176
     1
 90
        0
176
     1
290
     0
176
     1
 90
       13
176
     1
 40
0.0
176
     1
 90
        0
176
     1
290
     0
176
     1
290
     1
176
     1
290
     1
176
     1
290
     0
176
     1
290
     0
176
     1
290
     0
176
     1
290
     0
176
     1
290
     0
176
     1
290
     0
176
     1
 90
       50
176
     1
 40
0.0
176
     1
 40
1.0
176
     1
 90
        0
176
     1
 62
    18
176
     1
 90
       50
176
     1
 90
        3
176
     1
 62
     5
420
      255
176
     1
290
     0
176
     1
 90
       50
176
     1
 90
       50
176
     1
 90
       50
176
     1
290
     0
176
     1
 90
       50
176
     1
 62
   256
176
     0
 40
1.0
176
     0
 90
        2
176
     1
  1
strokes_ogs.tif
176
     1
290
     0
176
     1
 40
1.0
176
     1
 40
1.0
176
     1
  0
VISUALSTYLE
  5
10020
102
{ACAD_REACTORS
330
1001C
102
}
330
1001C
100
AcDbVisualStyle
  2
GouraudWithEdges
 70
     3
177
     3
291
     1
 70
    58
 90
        2
176
     1
 90
        2
176
     1
 90
        1
176
     1
 90
        2
176
     1
 40
0.6
176
     1
 40
30.0
176
     1
 62
     7
420
 16777215
176
     1
 90
        1
176
     1
 90
        0
176
     1
 62
     7
176
     1
 62
   257
176
     1
 90
        1
176
     1
 90
        1
176
     1
 40
1.0
176
     1
 90
        0
176
     1
 62
   257
176
     1
 40
1.0
176
     1
 90
        1
176
     1
 90
        6
176
     1
 90
        2
176
     1
 62
     7
176
     1
 90
        5
176
     1
 90
        0
176
     1
 90
        0
176
     1
290
     0
176
     1
 90
       13
176
     1
 40
0.0
176
     1
 90
        0
176
     1
290
     0
176
     1
290
     1
176
     1
290
     1
176
     1
290
     0
176
     1
290
     0
176
     1
290
     0
176
     1
290
     0
176
     1
290
     0
176
     1
290
     0
176
     1
 90
       50
176
     1
 40
0.0
176
     1
 40
1.0
176
     1
 90
        0
176
     1
 62
    18
176
     1
 90
       50
176
     1
 90
        3
176
     1
 62
     5
420
      255
176
     1
290
     0
176
     1
 90
       50
176
     1
 90
       50
176
     1
 90
       50
176
     1
290
     0
176
     1
 90
       50
176
     1
 62
   256
176
     0
 40
1.0
176
     0
 90
        2
176
     1
  1
strokes_ogs.tif
176
     1
290
     0
176
     1
 40
1.0
176
     1
 40
1.0
176
     1
  0
VISUALSTYLE
  5
10024
102
{ACAD_REACTORS
330
1001C
102
}
330
1001C
100
AcDbVisualStyle
  2
Hidden
 70
     6
177
     3
291
     0
 70
    58
 90
        1
176
     1
 90
        2
176
     1
 90
        2
176
     1
 90
        0
176
     1
 40
0.6
176
     1
 40
30.0
176
     1
 62
     7
420
 16777215
176
     1
 90
        2
176
     1
 90
        2
176
     1
 62
     7
176
     1
 62
   257
176
     1
 90
        2
176
     1
 90
        1
176
     1
 40
40.0
176
     1
 90
        0
176
     1
 62
   257
176
     1
 40
1.0
176
     1
 90
        1
176
     1
 90
        6
176
     1
 90
        2
176
     1
 62
     7
176
     1
 90
        3
176
     1
 90
        0
176
     1
 90
        0
176
     1
290
     0
176
     1
 90
        1
176
     1
 40
0.0
176
     1
 90
        0
176
     1
290
     0
176
     1
290
     1
176
     1
290
     1
176
     1
290
     0
176
     1
290
     0
176
     1
290
     0
176
     1
290
     0
176
     1
290
     0
176
     1
290
     0
176
     1
 90
       50
176
     1
 40
0.0
176
     1
 40
1.0
176
     1
 90
        0
176
     1
 62
    18
176
     1
 90
       50
176
     1
 90
        3
176
     1
 62
     5
420
      255
176
     1
290
     0
176
     1
 90
       50
176
     1
 90
       50
176
     1
 90
       50
176
     1
290
     0
176
     1
 90
       50
176
     1
 62
   256
176
     0
 40
1.0
176
     0
 90
        2
176
     1
  1
strokes_ogs.tif
176
     1
290
     0
176
     1
 40
1.0
176
     1
 40
1.0
176
     1
  0
VISUALSTYLE
  5
10032
102
{ACAD_REACTORS
330
1001C
102
}
330
1001C
100
AcDbVisualStyle
  2
JitterOff
 70
    20
177
     3
291
     1
 70
    58
 90
        2
176
     0
 90
        2
176
     0
 90
        0
176
     0
 90
        0
176
     0
 40
0.6
176
     0
 40
30.0
176
     0
 62
     7
420
 16777215
176
     0
 90
        1
176
     0
 90
        4
176
     0
 62
     7
176
     0
 62
   257
176
     0
 90
        1
176
     0
 90
        1
176
     0
 40
1.0
176
     0
 90
       10
176
     2
 62
     7
176
     0
 40
1.0
176
     0
 90
        1
176
     0
 90
        6
176
     0
 90
        2
176
     0
 62
     7
176
     0
 90
        5
176
     0
 90
        0
176
     0
 90
        0
176
     0
290
     0
176
     0
 90
        1
176
     0
 40
0.0
176
     0
 90
        0
176
     0
290
     0
176
     1
290
     1
176
     1
290
     1
176
     1
290
     0
176
     1
290
     0
176
     1
290
     0
176
     1
290
     0
176
     1
290
     0
176
     1
290
     0
176
     1
 90
       50
176
     0
 40
0.0
176
     0
 40
1.0
176
     0
 90
        0
176
     0
 62
    18
176
     0
 90
       50
176
     0
 90
        3
176
     0
 62
     5
420
      255
176
     0
290
     0
176
     1
 90
       50
176
     0
 90
       50
176
     0
 90
       50
176
     0
290
     0
176
     1
 90
       50
176
     0
 62
   256
176
     0
 40
1.0
176
     0
 90
        2
176
     0
  1
strokes_ogs.tif
176
     0
290
     0
176
     1
 40
1.0
176
     0
 40
1.0
176
     0
  0
VISUALSTYLE
  5
1002A
102
{ACAD_REACTORS
330
1001C
102
}
330
1001C
100
AcDbVisualStyle
  2
Linepattern
 70
    14
177
     3
291
     1
 70
    58
 90
        2
176
     1
 90
        2
176
     1
 90
        0
176
     1
 90
        0
176
     1
 40
0.6
176
     1
 40
30.0
176
     1
 62
     7
420
 16777215
176
     1
 90
        1
176
     1
 90
        4
176
     1
 62
     7
176
     1
 62
   257
176
     1
 90
        7
176
     1
 90
        7
176
     1
 40
1.0
176
     1
 90
        8
176
     1
 62
     7
176
     1
 40
1.0
176
     1
 90
        1
176
     1
 90
        6
176
     1
 90
        2
176
     1
 62
     7
176
     1
 90
        5
176
     1
 90
        0
176
     1
 90
        0
176
     1
290
     0
176
     1
 90
        1
176
     1
 40
0.0
176
     1
 90
        0
176
     1
290
     0
176
     1
290
     1
176
     1
290
     1
176
     1
290
     0
176
     1
290
     0
176
     1
290
     0
176
     1
290
     0
176
     1
290
     0
176
     1
290
     0
176
     1
 90
       50
176
     1
 40
0.0
176
     1
 40
1.0
176
     1
 90
        0
176
     1
 62
    18
176
     1
 90
       50
176
     1
 90
        3
176
     1
 62
     5
420
      255
176
     1
290
     0
176
     1
 90
       50
176
     1
 90
       50
176
     1
 90
       50
176
     1
290
     0
176
     1
 90
       50
176
     1
 62
   256
176
     0
 40
1.0
176
     0
 90
        2
176
     1
  1
strokes_ogs.tif
176
     1
290
     0
176
     1
 40
1.0
176
     1
 40
1.0
176
     1
  0
VISUALSTYLE
  5
10033
102
{ACAD_REACTORS
330
1001C
102
}
330
1001C
100
AcDbVisualStyle
  2
OverhangOff
 70
    21
177
     3
291
     1
 70
    58
 90
        2
176
     0
 90
        2
176
     0
 90
        0
176
     0
 90
        0
176
     0
 40
0.6
176
     0
 40
30.0
176
     0
 62
     7
420
 16777215
176
     0
 90
        1
176
     0
 90
        4
176
     0
 62
     7
176
     0
 62
   257
176
     0
 90
        1
176
     0
 90
        1
176
     0
 40
1.0
176
     0
 90
        9
176
     2
 62
     7
176
     0
 40
1.0
176
     0
 90
        1
176
     0
 90
        6
176
     0
 90
        2
176
     0
 62
     7
176
     0
 90
        5
176
     0
 90
        0
176
     0
 90
        0
176
     0
290
     0
176
     0
 90
        1
176
     0
 40
0.0
176
     0
 90
        0
176
     0
290
     0
176
     1
290
     1
176
     1
290
     1
176
     1
290
     0
176
     1
290
     0
176
     1
290
     0
176
     1
290
     0
176
     1
290
     0
176
     1
290
     0
176
     1
 90
       50
176
     0
 40
0.0
176
     0
 40
1.0
176
     0
 90
        0
176
     0
 62
    18
176
     0
 90
       50
176
     0
 90
        3
176
     0
 62
     5
420
      255
176
     0
290
     0
176
     1
 90
       50
176
     0
 90
       50
176
     0
 90
       50
176
     0
290
     0
176
     1
 90
       50
176
     0
 62
   256
176
     0
 40
1.0
176
     0
 90
        2
176
     0
  1
strokes_ogs.tif
176
     0
290
     0
176
     1
 40
1.0
176
     0
 40
1.0
176
     0
  0
VISUALSTYLE
  5
10026
102
{ACAD_REACTORS
330
1001C
102
}
330
1001C
100
AcDbVisualStyle
  2
Realistic
 70
     8
177
     3
291
     0
 70
    58
 90
        2
176
     1
 90
        3
176
     1
 90
        0
176
     1
 90
        2
176
     1
 40
0.6
176
     1
 40
30.0
176
     1
 62
     7
420
 16777215
176
     1
 90
        0
176
     1
 90
        0
176
     1
 62
     7
176
     1
 62
   257
176
     1
 90
        1
176
     1
 90
        1
176
     1
 40
1.0
176
     1
 90
        8
176
     1
 62
   257
176
     1
 40
1.0
176
     1
 90
        1
176
     1
 90
        6
176
     1
 90
        2
176
     1
 62
     7
176
     1
 90
        3
176
     1
 90
        0
176
     1
 90
        0
176
     1
290
     0
176
     1
 90
       13
176
     1
 40
0.0
176
     1
 90
        0
176
     1
290
     0
176
     1
290
     1
176
     1
290
     1
176
     1
290
     0
176
     1
290
     0
176
     1
290
     0
176
     1
290
     0
176
     1
290
     0
176
     1
290
     0
176
     1
 90
       50
176
     1
 40
0.0
176
     1
 40
1.0
176
     1
 90
        0
176
     1
 62
    18
176
     1
 90
       50
176
     1
 90
        3
176
     1
 62
     5
420
      255
176
     1
290
     0
176
     1
 90
       50
176
     1
 90
       50
176
     1
 90
       50
176
     1
290
     0
176
     1
 90
       50
176
     1
 62
   256
176
     0
 40
1.0
176
     0
 90
        2
176
     1
  1
strokes_ogs.tif
176
     1
290
     0
176
     1
 40
1.0
176
     1
 40
1.0
176
     1
  0
VISUALSTYLE
  5
10031
102
{ACAD_REACTORS
330
1001C
102
}
330
1001C
100
AcDbVisualStyle
  2
Shaded
 70
    27
177
     3
291
     0
 70
    58
 90
        2
176
     1
 90
        2
176
     1
 90
        1
176
     1
 90
        2
176
     1
 40
0.6
176
     1
 40
30.0
176
     1
 62
     7
420
 16777215
176
     1
 90
        0
176
     1
 90
        4
176
     1
 62
     7
176
     1
 62
   257
176
     1
 90
        1
176
     1
 90
        1
176
     1
 40
1.0
176
     1
 90
        8
176
     1
 62
   257
176
     1
 40
1.0
176
     1
 90
        1
176
     1
 90
        6
176
     1
 90
        2
176
     1
 62
     8
420
  7895160
176
     1
 90
        3
176
     1
 90
        0
176
     1
 90
        0
176
     1
290
     0
176
     1
 90
        5
176
     1
 40
0.0
176
     1
 90
        0
176
     1
290
     0
176
     1
290
     1
176
     1
290
     1
176
     1
290
     0
176
     1
290
     0
176
     1
290
     0
176
     1
290
     0
176
     1
290
     0
176
     1
290
     0
176
     1
 90
       50
176
     1
 40
0.0
176
     1
 40
1.0
176
     1
 90
        0
176
     1
 62
    18
176
     1
 90
       50
176
     1
 90
        3
176
     1
 62
     5
420
      255
176
     1
290
     0
176
     1
 90
       50
176
     1
 90
       50
176
     1
 90
       50
176
     1
290
     0
176
     1
 90
       50
176
     1
 62
   256
176
     0
 40
1.0
176
     0
 90
        2
176
     1
  1
strokes_ogs.tif
176
     1
290
     0
176
     1
 40
1.0
176
     1
 40
1.0
176
     1
  0
VISUALSTYLE
  5
10030
102
{ACAD_REACTORS
330
1001C
102
}
330
1001C
100
AcDbVisualStyle
  2
Shaded with edges
 70
    26
177
     3
291
     0
 70
    58
 90
        2
176
     1
 90
        2
176
     1
 90
        1
176
     1
 90
        2
176
     1
 40
0.6
176
     1
 40
30.0
176
     1
 62
     7
420
 16777215
176
     1
 90
        1
176
     1
 90
       10
176
     1
 62
     7
176
     1
 62
   257
176
     1
 90
        2
176
     1
 90
        1
176
     1
 40
1.0
176
     1
 90
        8
176
     1
 62
   257
176
     1
 40
1.0
176
     1
 90
        1
176
     1
 90
        6
176
     1
 90
        2
176
     1
 62
     7
176
     1
 90
        3
176
     1
 90
        0
176
     1
 90
        0
176
     1
290
     0
176
     1
 90
        5
176
     1
 40
0.0
176
     1
 90
        0
176
     1
290
     0
176
     1
290
     1
176
     1
290
     1
176
     1
290
     0
176
     1
290
     0
176
     1
290
     0
176
     1
290
     0
176
     1
290
     0
176
     1
290
     0
176
     1
 90
       50
176
     1
 40
0.0
176
     1
 40
1.0
176
     1
 90
        0
176
     1
 62
    18
176
     1
 90
       50
176
     1
 90
        3
176
     1
 62
     5
420
      255
176
     1
290
     0
176
     1
 90
       50
176
     1
 90
       50
176
     1
 90
       50
176
     1
290
     0
176
     1
 90
       50
176
     1
 62
   256
176
     0
 40
1.0
176
     0
 90
        2
176
     1
  1
strokes_ogs.tif
176
     1
290
     0
176
     1
 40
1.0
176
     1
 40
1.0
176
     1
  0
VISUALSTYLE
  5
1002D
102
{ACAD_REACTORS
330
1001C
102
}
330
1001C
100
AcDbVisualStyle
  2
Shades of Gray
 70
    23
177
     3
291
     0
 70
    58
 90
        2
176
     1
 90
        2
176
     1
 90
        3
176
     1
 90
        0
176
     1
 40
0.6
176
     1
 40
30.0
176
     1
 62
     7
420
 16777215
176
     1
 90
        2
176
     1
 90
        2
176
     1
 62
     7
176
     1
 62
     7
176
     1
 90
        1
176
     1
 90
        1
176
     1
 40
40.0
176
     1
 90
        8
176
     1
 62
     7
176
     1
 40
1.0
176
     1
 90
        1
176
     1
 90
        6
176
     1
 90
        2
176
     1
 62
     7
176
     1
 90
        3
176
     1
 90
        0
176
     1
 90
        0
176
     1
290
     0
176
     1
 90
        1
176
     1
 40
0.0
176
     1
 90
        0
176
     1
290
     0
176
     1
290
     1
176
     1
290
     1
176
     1
290
     0
176
     1
290
     0
176
     1
290
     0
176
     1
290
     0
176
     1
290
     0
176
     1
290
     0
176
     1
 90
       50
176
     1
 40
0.0
176
     1
 40
1.0
176
     1
 90
        0
176
     1
 62
    18
176
     1
 90
       50
176
     1
 90
        3
176
     1
 62
     5
420
      255
176
     1
290
     0
176
     1
 90
       50
176
     1
 90
       50
176
     1
 90
       50
176
     1
290
     0
176
     1
 90
       50
176
     1
 62
   256
176
     0
 40
1.0
176
     0
 90
        2
176
     1
  1
strokes_ogs.tif
176
     1
290
     0
176
     1
 40
1.0
176
     1
 40
1.0
176
     1
  0
VISUALSTYLE
  5
1002E
102
{ACAD_REACTORS
330
1001C
102
}
330
1001C
100
AcDbVisualStyle
  2
Sketchy
 70
    24
177
     3
291
     0
 70
    58
 90
        1
176
     1
 90
        2
176
     1
 90
        2
176
     1
 90
        0
176
     1
 40
0.6
176
     1
 40
30.0
176
     1
 62
     7
420
 16777215
176
     1
 90
        2
176
     1
 90
        2
176
     1
 62
     7
176
     1
 62
     7
176
     1
 90
        1
176
     1
 90
        1
176
     1
 40
40.0
176
     1
 90
       11
176
     1
 62
     7
176
     1
 40
1.0
176
     1
 90
        1
176
     1
 90
        6
176
     1
 90
        2
176
     1
 62
     7
176
     1
 90
        6
176
     1
 90
        0
176
     1
 90
        0
176
     1
290
     0
176
     1
 90
        1
176
     1
 40
0.0
176
     1
 90
        0
176
     1
290
     0
176
     1
290
     1
176
     1
290
     1
176
     1
290
     0
176
     1
290
     0
176
     1
290
     0
176
     1
290
     0
176
     1
290
     0
176
     1
290
     0
176
     1
 90
       50
176
     1
 40
0.0
176
     1
 40
1.0
176
     1
 90
        0
176
     1
 62
    18
176
     1
 90
       50
176
     1
 90
        3
176
     1
 62
     5
420
      255
176
     1
290
     0
176
     1
 90
       50
176
     1
 90
       50
176
     1
 90
       50
176
     1
290
     0
176
     1
 90
       50
176
     1
 62
   256
176
     0
 40
1.0
176
     0
 90
        2
176
     1
  1
strokes_ogs.tif
176
     1
290
     0
176
     1
 40
1.0
176
     1
 40
1.0
176
     1
  0
VISUALSTYLE
  5
10029
102
{ACAD_REACTORS
330
1001C
102
}
330
1001C
100
AcDbVisualStyle
  2
Thicken
 70
    13
177
     3
291
     1
 70
    58
 90
        2
176
     1
 90
        2
176
     1
 90
        0
176
     1
 90
        0
176
     1
 40
0.6
176
     1
 40
30.0
176
     1
 62
     7
420
 16777215
176
     1
 90
        1
176
     1
 90
        4
176
     1
 62
     7
176
     1
 62
   257
176
     1
 90
        1
176
     1
 90
        1
176
     1
 40
1.0
176
     1
 90
       12
176
     1
 62
     7
176
     1
 40
1.0
176
     1
 90
        1
176
     1
 90
        6
176
     1
 90
        2
176
     1
 62
     7
176
     1
 90
        5
176
     1
 90
        0
176
     1
 90
        0
176
     1
290
     0
176
     1
 90
        1
176
     1
 40
0.0
176
     1
 90
        0
176
     1
290
     0
176
     1
290
     1
176
     1
290
     1
176
     1
290
     0
176
     1
290
     0
176
     1
290
     0
176
     1
290
     0
176
     1
290
     0
176
     1
290
     0
176
     1
 90
       50
176
     1
 40
0.0
176
     1
 40
1.0
176
     1
 90
        0
176
     1
 62
    18
176
     1
 90
       50
176
     1
 90
        3
176
     1
 62
     5
420
      255
176
     1
290
     0
176
     1
 90
       50
176
     1
 90
       50
176
     1
 90
       50
176
     1
290
     0
176
     1
 90
       50
176
     1
 62
   256
176
     0
 40
1.0
176
     0
 90
        2
176
     1
  1
strokes_ogs.tif
176
     1
290
     0
176
     1
 40
1.0
176
     1
 40
1.0
176
     1
  0
VISUALSTYLE
  5
10023
102
{ACAD_REACTORS
330
1001C
102
}
330
1001C
100
AcDbVisualStyle
  2
Wireframe
 70
     5
177
     3
291
     0
 70
    58
 90
        0
176
     1
 90
        2
176
     1
 90
        0
176
     1
 90
        0
176
     1
 40
0.6
176
     1
 40
30.0
176
     1
 62
     7
420
 16777215
176
     1
 90
        1
176
     1
 90
        4
176
     1
 62
     7
176
     1
 62
   257
176
     1
 90
        1
176
     1
 90
        1
176
     1
 40
1.0
176
     1
 90
        0
176
     1
 62
   257
176
     1
 40
1.0
176
     1
 90
        1
176
     1
 90
        6
176
     1
 90
        2
176
     1
 62
     7
176
     1
 90
        3
176
     1
 90
        0
176
     1
 90
        0
176
     1
290
     0
176
     1
 90
        1
176
     1
 40
0.0
176
     1
 90
        0
176
     1
290
     0
176
     1
290
     1
176
     1
290
     1
176
     1
290
     0
176
     1
290
     0
176
     1
290
     0
176
     1
290
     0
176
     1
290
     0
176
     1
290
     0
176
     1
 90
       50
176
     1
 40
0.0
176
     1
 40
1.0
176
     1
 90
        0
176
     1
 62
    18
176
     1
 90
       50
176
     1
 90
        3
176
     1
 62
     5
420
      255
176
     1
290
     0
176
     1
 90
       50
176
     1
 90
       50
176
     1
 90
       50
176
     1
290
     0
176
     1
 90
       50
176
     1
 62
   256
176
     0
 40
1.0
176
     0
 90
        2
176
     1
  1
strokes_ogs.tif
176
     1
290
     0
176
     1
 40
1.0
176
     1
 40
1.0
176
     1
  0
VISUALSTYLE
  5
1002F
102
{ACAD_REACTORS
330
1001C
102
}
330
1001C
100
AcDbVisualStyle
  2
X-Ray
 70
    25
177
     3
291
     0
 70
    58
 90
        2
176
     1
 90
        2
176
     1
 90
        1
176
     1
 90
        1
176
     1
 40
0.5
176
     1
 40
30.0
176
     1
 62
     7
420
 16777215
176
     1
 90
        1
176
     1
 90
        0
176
     1
 62
     7
176
     1
 62
   257
176
     1
 90
        1
176
     1
 90
        1
176
     1
 40
1.0
176
     1
 90
        8
176
     1
 62
     7
176
     1
 40
1.0
176
     1
 90
        1
176
     1
 90
        6
176
     1
 90
        2
176
     1
 62
     7
176
     1
 90
        3
176
     1
 90
        0
176
     1
 90
        0
176
     1
290
     0
176
     1
 90
       13
176
     1
 40
0.0
176
     1
 90
        0
176
     1
290
     0
176
     1
290
     1
176
     1
290
     1
176
     1
290
     0
176
     1
290
     0
176
     1
290
     0
176
     1
290
     0
176
     1
290
     0
176
     1
290
     0
176
     1
 90
       50
176
     1
 40
0.0
176
     1
 40
1.0
176
     1
 90
        0
176
     1
 62
    18
176
     1
 90
       50
176
     1
 90
        3
176
     1
 62
     5
420
      255
176
     1
290
     0
176
     1
 90
       50
176
     1
 90
       50
176
     1
 90
       50
176
     1
290
     0
176
     1
 90
       50
176
     1
 62
   256
176
     0
 40
1.0
176
     0
 90
        2
176
     1
  1
strokes_ogs.tif
176
     1
290
     0
176
     1
 40
1.0
176
     1
 40
1.0
176
     1
  0
DICTIONARYVAR
  5
10071
102
{ACAD_REACTORS
330
1006B
102
}
330
1006B
100
DictionaryVariables
280
     0
  1
1:1
  0
DICTIONARYVAR
  5
1006D
102
{ACAD_REACTORS
330
1006B
102
}
330
1006B
100
DictionaryVariables
280
     0
  1
STANDARD
  0
DICTIONARYVAR
  5
1006C
102
{ACAD_REACTORS
330
1006B
102
}
330
1006B
100
DictionaryVariables
280
     0
  1
STANDARD
  0
DICTIONARYVAR
  5
1006E
102
{ACAD_REACTORS
330
1006B
102
}
330
1006B
100
DictionaryVariables
280
     0
  1
Metric50
  0
DICTIONARYVAR
  5
1006F
102
{ACAD_REACTORS
330
1006B
102
}
330
1006B
100
DictionaryVariables
280
     0
  1
Metric50
  0
DICTIONARYVAR
  5
10073
102
{ACAD_REACTORS
330
1006B
102
}
330
1006B
100
DictionaryVariables
280
     0
  1
1
  0
DICTIONARYVAR
  5
10074
102
{ACAD_REACTORS
330
1006B
102
}
330
1006B
100
DictionaryVariables
280
     0
  1
15
  0
DICTIONARYVAR
  5
10072
102
{ACAD_REACTORS
330
1006B
102
}
330
1006B
100
DictionaryVariables
280
     0
  1
0
  0
DICTIONARYVAR
  5
10070
102
{ACAD_REACTORS
330
1006B
102
}
330
1006B
100
DictionaryVariables
280
     0
  1
0
  0
DICTIONARY
  5
1007A
330
1004F
100
AcDbDictionary
280
     1
281
     1
  3
ACAD_XREC_ROUNDTRIP
360
1008B
  0
DICTIONARY
  5
1000D
330
1000C
100
AcDbDictionary
280
     1
281
     1
  3
BUMPTILE
360
1000F
  3
DIFFUSETILE
360
1000E
  3
OPACITYTILE
360
10012
  3
REFLECTIONTILE
360
10011
  3
REFRACTIONTILE
360
10013
  3
SPECULARTILE
360
10010
  0
DICTIONARY
  5
10005
330
10004
100
AcDbDictionary
280
     1
281
     1
  3
BUMPTILE
360
10007
  3
DIFFUSETILE
360
10006
  3
OPACITYTILE
360
1000A
  3
REFLECTIONTILE
360
10009
  3
REFRACTIONTILE
360
1000B
  3
SPECULARTILE
360
10008
  0
DICTIONARY
  5
10015
330
10014
100
AcDbDictionary
280
     1
281
     1
  3
BUMPTILE
360
10017
  3
DIFFUSETILE
360
10016
  3
OPACITYTILE
360
1001A
  3
REFLECTIONTILE
360
10019
  3
REFRACTIONTILE
360
1001B
  3
SPECULARTILE
360
10018
  0
DICTIONARY
  5
10078
330
1004D
100
AcDbDictionary
280
     1
281
     1
  3
ACAD_XREC_ROUNDTRIP
360
1008A
  0
DICTIONARY
  5
10076
330
10037
100
AcDbDictionary
280
     1
281
     1
  3
ACAD_ROUNDTRIP_2008_TABLESTYLE_CELLSTYLEMAP
360
10089
  0
XRECORD
  5
1008B
102
{ACAD_REACTORS
330
1007A
102
}
330
1007A
100
AcDbXrecord
280
     1
102
DISPLAYNAME
  1
Metric50
102
FLAGS
 90
        0
  0
XRECORD
  5
1000F
102
{ACAD_REACTORS
330
1000D
102
}
330
1000D
100
AcDbXrecord
280
     1
270
     1
271
     1
  0
XRECORD
  5
1000E
102
{ACAD_REACTORS
330
1000D
102
}
330
1000D
100
AcDbXrecord
280
     1
270
     1
271
     1
  0
XRECORD
  5
10012
102
{ACAD_REACTORS
330
1000D
102
}
330
1000D
100
AcDbXrecord
280
     1
270
     1
271
     1
  0
XRECORD
  5
10011
102
{ACAD_REACTORS
330
1000D
102
}
330
1000D
100
AcDbXrecord
280
     1
270
     1
271
     1
  0
XRECORD
  5
10013
102
{ACAD_REACTORS
330
1000D
102
}
330
1000D
100
AcDbXrecord
280
     1
270
     1
271
     1
  0
XRECORD
  5
10010
102
{ACAD_REACTORS
330
1000D
102
}
330
1000D
100
AcDbXrecord
280
     1
270
     1
271
     1
  0
XRECORD
  5
10007
102
{ACAD_REACTORS
330
10005
102
}
330
10005
100
AcDbXrecord
280
     1
270
     1
271
     1
  0
XRECORD
  5
10006
102
{ACAD_REACTORS
330
10005
102
}
330
10005
100
AcDbXrecord
280
     1
270
     1
271
     1
  0
XRECORD
  5
1000A
102
{ACAD_REACTORS
330
10005
102
}
330
10005
100
AcDbXrecord
280
     1
270
     1
271
     1
  0
XRECORD
  5
10009
102
{ACAD_REACTORS
330
10005
102
}
330
10005
100
AcDbXrecord
280
     1
270
     1
271
     1
  0
XRECORD
  5
1000B
102
{ACAD_REACTORS
330
10005
102
}
330
10005
100
AcDbXrecord
280
     1
270
     1
271
     1
  0
XRECORD
  5
10008
102
{ACAD_REACTORS
330
10005
102
}
330
10005
100
AcDbXrecord
280
     1
270
     1
271
     1
  0
XRECORD
  5
10017
102
{ACAD_REACTORS
330
10015
102
}
330
10015
100
AcDbXrecord
280
     1
270
     1
271
     1
  0
XRECORD
  5
10016
102
{ACAD_REACTORS
330
10015
102
}
330
10015
100
AcDbXrecord
280
     1
270
     1
271
     1
  0
XRECORD
  5
1001A
102
{ACAD_REACTORS
330
10015
102
}
330
10015
100
AcDbXrecord
280
     1
270
     1
271
     1
  0
XRECORD
  5
10019
102
{ACAD_REACTORS
330
10015
102
}
330
10015
100
AcDbXrecord
280
     1
270
     1
271
     1
  0
XRECORD
  5
1001B
102
{ACAD_REACTORS
330
10015
102
}
330
10015
100
AcDbXrecord
280
     1
270
     1
271
     1
  0
XRECORD
  5
10018
102
{ACAD_REACTORS
330
10015
102
}
330
10015
100
AcDbXrecord
280
     1
270
     1
271
     1
  0
XRECORD
  5
1008A
102
{ACAD_REACTORS
330
10078
102
}
330
10078
100
AcDbXrecord
280
     1
102
DISPLAYNAME
  1
Metric50
102
FLAGS
 90
        0
  0
CELLSTYLEMAP
  5
10089
102
{ACAD_REACTORS
330
10076
102
}
330
10076
100
AcDbCellStyleMap
 90
        3
300
CELLSTYLE
  1
TABLEFORMAT_BEGIN
 90
        5
170
     1
 91
        0
 92
    32768
 62
   257
 93
        1
300
CONTENTFORMAT
  1
CONTENTFORMAT_BEGIN
 90
        0
 91
        0
 92
      512
 93
        0
300

 40
0.0
140
1.0
 94
        5
 62
     0
340
11
144
6.0
309
CONTENTFORMAT_END
171
     1
301
MARGIN
  1
CELLMARGIN_BEGIN
 40
1.5
 40
1.5
 40
1.5
 40
1.5
 40
0.18
 40
0.18
309
CELLMARGIN_END
 94
        6
 95
        1
302
GRIDFORMAT
  1
GRIDFORMAT_BEGIN
 90
        0
 91
        1
 62
     0
 92
       -2
340
0
 93
        0
 40
1.125
309
GRIDFORMAT_END
 95
        2
302
GRIDFORMAT
  1
GRIDFORMAT_BEGIN
 90
        0
 91
        1
 62
     0
 92
       -2
340
0
 93
        0
 40
1.125
309
GRIDFORMAT_END
 95
        4
302
GRIDFORMAT
  1
GRIDFORMAT_BEGIN
 90
        0
 91
        1
 62
     0
 92
       -2
340
0
 93
        0
 40
1.125
309
GRIDFORMAT_END
 95
        8
302
GRIDFORMAT
  1
GRIDFORMAT_BEGIN
 90
        0
 91
        1
 62
     0
 92
       -2
340
0
 93
        0
 40
1.125
309
GRIDFORMAT_END
 95
       16
302
GRIDFORMAT
  1
GRIDFORMAT_BEGIN
 90
        0
 91
        1
 62
     0
 92
       -2
340
0
 93
        0
 40
1.125
309
GRIDFORMAT_END
 95
       32
302
GRIDFORMAT
  1
GRIDFORMAT_BEGIN
 90
        0
 91
        1
 62
     0
 92
       -2
340
0
 93
        0
 40
1.125
309
GRIDFORMAT_END
309
TABLEFORMAT_END
  1
CELLSTYLE_BEGIN
 90
        1
 91
        1
300
_TITLE
309
CELLSTYLE_END
300
CELLSTYLE
  1
TABLEFORMAT_BEGIN
 90
        5
170
     1
 91
        0
 92
        0
 62
   257
 93
        1
300
CONTENTFORMAT
  1
CONTENTFORMAT_BEGIN
 90
        0
 91
        0
 92
      512
 93
        0
300

 40
0.0
140
1.0
 94
        5
 62
     0
340
11
144
4.5
309
CONTENTFORMAT_END
171
     1
301
MARGIN
  1
CELLMARGIN_BEGIN
 40
1.5
 40
1.5
 40
1.5
 40
1.5
 40
0.18
 40
0.18
309
CELLMARGIN_END
 94
        6
 95
        1
302
GRIDFORMAT
  1
GRIDFORMAT_BEGIN
 90
        0
 91
        1
 62
     0
 92
       -2
340
0
 93
        0
 40
1.125
309
GRIDFORMAT_END
 95
        2
302
GRIDFORMAT
  1
GRIDFORMAT_BEGIN
 90
        0
 91
        1
 62
     0
 92
       -2
340
0
 93
        0
 40
1.125
309
GRIDFORMAT_END
 95
        4
302
GRIDFORMAT
  1
GRIDFORMAT_BEGIN
 90
        0
 91
        1
 62
     0
 92
       -2
340
0
 93
        0
 40
1.125
309
GRIDFORMAT_END
 95
        8
302
GRIDFORMAT
  1
GRIDFORMAT_BEGIN
 90
        0
 91
        1
 62
     0
 92
       -2
340
0
 93
        0
 40
1.125
309
GRIDFORMAT_END
 95
       16
302
GRIDFORMAT
  1
GRIDFORMAT_BEGIN
 90
        0
 91
        1
 62
     0
 92
       -2
340
0
 93
        0
 40
1.125
309
GRIDFORMAT_END
 95
       32
302
GRIDFORMAT
  1
GRIDFORMAT_BEGIN
 90
        0
 91
        1
 62
     0
 92
       -2
340
0
 93
        0
 40
1.125
309
GRIDFORMAT_END
309
TABLEFORMAT_END
  1
CELLSTYLE_BEGIN
 90
        2
 91
        1
300
_HEADER
309
CELLSTYLE_END
300
CELLSTYLE
  1
TABLEFORMAT_BEGIN
 90
        5
170
     1
 91
        0
 92
        0
 62
   257
 93
        1
300
CONTENTFORMAT
  1
CONTENTFORMAT_BEGIN
 90
        0
 91
        0
 92
      512
 93
        0
300

 40
0.0
140
1.0
 94
        2
 62
     0
340
11
144
4.5
309
CONTENTFORMAT_END
171
     1
301
MARGIN
  1
CELLMARGIN_BEGIN
 40
1.5
 40
1.5
 40
1.5
 40
1.5
 40
0.18
 40
0.18
309
CELLMARGIN_END
 94
        6
 95
        1
302
GRIDFORMAT
  1
GRIDFORMAT_BEGIN
 90
        0
 91
        1
 62
     0
 92
       -2
340
0
 93
        0
 40
1.125
309
GRIDFORMAT_END
 95
        2
302
GRIDFORMAT
  1
GRIDFORMAT_BEGIN
 90
        0
 91
        1
 62
     0
 92
       -2
340
0
 93
        0
 40
1.125
309
GRIDFORMAT_END
 95
        4
302
GRIDFORMAT
  1
GRIDFORMAT_BEGIN
 90
        0
 91
        1
 62
     0
 92
       -2
340
0
 93
        0
 40
1.125
309
GRIDFORMAT_END
 95
        8
302
GRIDFORMAT
  1
GRIDFORMAT_BEGIN
 90
        0
 91
        1
 62
     0
 92
       -2
340
0
 93
        0
 40
1.125
309
GRIDFORMAT_END
 95
       16
302
GRIDFORMAT
  1
GRIDFORMAT_BEGIN
 90
        0
 91
        1
 62
     0
 92
       -2
340
0
 93
        0
 40
1.125
309
GRIDFORMAT_END
 95
       32
302
GRIDFORMAT
  1
GRIDFORMAT_BEGIN
 90
        0
 91
        1
 62
     0
 92
       -2
340
0
 93
        0
 40
1.125
309
GRIDFORMAT_END
309
TABLEFORMAT_END
  1
CELLSTYLE_BEGIN
 90
        3
 91
        2
300
_DATA
309
CELLSTYLE_END
  0
ENDSEC
  0
SECTION
  2
ACDSDATA
 70
     2
 71
     6
  0
ACDSSCHEMA
 90
        0
  1
AcDb_Thumbnail_Schema
  2
AcDbDs::ID
280
    10
 91
        8
  2
Thumbnail_Data
280
    15
 91
        0
101
ACDSRECORD
 95
        0
 90
        1
  2
AcDbDs::TreatedAsObjectData
280
     1
291
     1
101
ACDSRECORD
 95
        0
 90
        2
  2
AcDbDs::Legacy
280
     1
291
     1
101
ACDSRECORD
  1
AcDbDs::ID
 90
        3
  2
AcDs:Indexable
280
     1
291
     1
101
ACDSRECORD
  1
AcDbDs::ID
 90
        4
  2
AcDbDs::HandleAttribute
280
     7
282
     1
  0
ACDSSCHEMA
 90
        1
  1
AcDbDs::TreatedAsObjectDataSchema
  2
AcDbDs::TreatedAsObjectData
280
     1
 91
        0
  0
ACDSSCHEMA
 90
        2
  1
AcDbDs::LegacySchema
  2
AcDbDs::Legacy
280
     1
 91
        0
  0
ACDSSCHEMA
 90
        3
  1
AcDbDs::IndexedPropertySchema
  2
AcDs:Indexable
280
     1
 91
        0
  0
ACDSSCHEMA
 90
        4
  1
AcDbDs::HandleAttributeSchema
  2
AcDbDs::HandleAttribute
280
     7
 91
        1
284
     1
  0
ACDSRECORD
 90
        0
  2
AcDbDs::ID
280
    10
320
10052
  2
Thumbnail_Data
280
    15
 94
     1553
310
89504E470D0A1A0A0000000D49484452000001000000004F080300000033D5EB5900000300504C5445212830000000C8C8C80000000000000000000000000000000000000000000000000000330000660000990000CC0000FF0033000033330033660033990033CC0033FF0066000066330066660066990066CC0066FF0099
310
000099330099660099990099CC0099FF00CC0000CC3300CC6600CC9900CCCC00CCFF00FF0000FF3300FF6600FF9900FFCC00FFFF3300003300333300663300993300CC3300FF3333003333333333663333993333CC3333FF3366003366333366663366993366CC3366FF3399003399333399663399993399CC3399FF33CC00
310
33CC3333CC6633CC9933CCCC33CCFF33FF0033FF3333FF6633FF9933FFCC33FFFF6600006600336600666600996600CC6600FF6633006633336633666633996633CC6633FF6666006666336666666666996666CC6666FF6699006699336699666699996699CC6699FF66CC0066CC3366CC6666CC9966CCCC66CCFF66FF0066
310
FF3366FF6666FF9966FFCC66FFFF9900009900339900669900999900CC9900FF9933009933339933669933999933CC9933FF9966009966339966669966999966CC9966FF9999009999339999669999999999CC9999FF99CC0099CC3399CC6699CC9999CCCC99CCFF99FF0099FF3399FF6699FF9999FFCC99FFFFCC0000CC00
310
33CC0066CC0099CC00CCCC00FFCC3300CC3333CC3366CC3399CC33CCCC33FFCC6600CC6633CC6666CC6699CC66CCCC66FFCC9900CC9933CC9966CC9999CC99CCCC99FFCCCC00CCCC33CCCC66CCCC99CCCCCCCCCCFFCCFF00CCFF33CCFF66CCFF99CCFFCCCCFFFFFF0000FF0033FF0066FF0099FF00CCFF00FFFF3300FF3333
310
FF3366FF3399FF33CCFF33FFFF6600FF6633FF6666FF6699FF66CCFF66FFFF9900FF9933FF9966FF9999FF99CCFF99FFFFCC00FFCC33FFCC66FFCC99FFCCCCFFCCFFFFFF00FFFF33FFFF66FFFF99FFFFCCFFFFFF0000000D0D0D1A1A1A2828283535354343435050505D5D5D6B6B6B787878868686939393A1A1A1AEAEAEBB
310
BBBBC9C9C9D6D6D6E4E4E4F1F1F1FFFFFF000000000000000000000000000000000000000000000000000000000000B21171F6000000554944415478DAEDD6310AC0300C0441FDFFBFE90D21A430FE80D9994AED1D0269060000000000008093E755CFDFADE04B5E2E601F920B502E606C40BA803F77F710D6AFC0C4DF009F
310
20000000000000000000DC6301C7903B5702AE57E90000000049454E44AE4260828B1BAC9630398236EB282A40D8FB030196CFCB060449BB88F7784FB385542D9262CED3510DA4501FA9DCBE0FC50CF0BB40CB8BCA39FE2B796EDBFA3A1E30AF4767DCA452C9AFB3914D756C406BA17F6649DA62A2EC05D079A3DE0A227F6F
310
B8B6839AD247430116CF296001BA6C022A110DAF97F57ACF823EAC0CF87F17FA880A38258AB90AA0A43CE6DA172994336FAEDF340B282700F81602CAE968BD15C83224C9F22A619202DB3533B90581944DD39BF594630DF85B366C2E40EFF51B1684C90298AD3F3971B925C1B5FE57A23139E580ECFADD4D80F49C6D27407A
310
0767570665872C7986C16C9BB2D2E0865FEB758EEC0EAFB5BA388400F708D0DC0564550CA64641F9A5417DBC41DD5B05683416E086436E66020C04C84F00CD5DC02D072E3733D45782EF2A20BF27765220DD69CD6E94E7C76D04186697C5F2A2E09204FBB6031A86E703325BC13186DFBD71A5DE19775CFF50AA2D19DE1BD7
310
479AD37F27C1B4734263389A409A27389E105B13977A9A406AFE92F371D9ACA3B2EE07862FD780A68540520F1FC60AB83E35A00417721E27A0A667E5671FBEBC0A1510E0AD87C1EDE708680D641725508D67E62E3C3B26D712F8200D4AA7E3C04FFB57608E84AEF4857AFA2BC0A98E3E3E71586C90C48B6E1D07271412402F
310
57C71A4F33974A08102381FE4E790547C96C6344E624175284C66EA4582926BF3E1E235671DF77163039F65E001573FCE34B03DBD0BCBD0095074BC6619A61845C8C072586A6BC2AC5C144CDD50B46790576FD4E308F0EC375A7DEA0C73CD97D6BA05DEFD34D825802361F320E000000000000000000000000000000000000
310
000000000000701B5FFF35DA56479A92290000000049454E44AE426082
  0
ENDSEC
  0
EOF
