<?xml version="1.0" encoding="UTF-8" standalone="no"?>
<!-- Generator: Iparigrafika Gear Generator by Abel Vincze http://geargenerator.com/ -->

<svg
   xmlns:dc="http://purl.org/dc/elements/1.1/"
   xmlns:cc="http://creativecommons.org/ns#"
   xmlns:rdf="http://www.w3.org/1999/02/22-rdf-syntax-ns#"
   xmlns:svg="http://www.w3.org/2000/svg"
   xmlns="http://www.w3.org/2000/svg"
   xmlns:sodipodi="http://sodipodi.sourceforge.net/DTD/sodipodi-0.dtd"
   xmlns:inkscape="http://www.inkscape.org/namespaces/inkscape"
   version="1.2"
   class="svggear"
   x="0px"
   y="0px"
   width="200px"
   height="200px"
   viewBox="-100 -100 200 200"
   overflow="scroll"
   xml:space="preserve"
   id="svg2"
   inkscape:version="0.48.4 r9939"
   sodipodi:docname="10.dxf"><metadata
     id="metadata109"><rdf:RDF><cc:Work
         rdf:about=""><dc:format>image/svg+xml</dc:format><dc:type
           rdf:resource="http://purl.org/dc/dcmitype/StillImage" /><dc:title></dc:title></cc:Work></rdf:RDF></metadata><defs
     id="defs107" /><sodipodi:namedview
     pagecolor="#ffffff"
     bordercolor="#666666"
     borderopacity="1"
     objecttolerance="10"
     gridtolerance="10"
     guidetolerance="10"
     inkscape:pageopacity="0"
     inkscape:pageshadow="2"
     inkscape:window-width="960"
     inkscape:window-height="1014"
     id="namedview105"
     showgrid="false"
     inkscape:zoom="3.337544"
     inkscape:cx="114.26629"
     inkscape:cy="116.68215"
     inkscape:window-x="1600"
     inkscape:window-y="27"
     inkscape:window-maximized="0"
     inkscape:current-layer="svg2" /><path
     style="fill:#dddddd;stroke:#444444;stroke-width:1;stroke-miterlimit:10"
     d="m 64.1667,0 14.1529,-1e-4 0.0954,-0.0036 0.1903,-0.0136 0.2847,-0.0302 0.3779,-0.0534 0.4697,-0.0831 0.5599,-0.1193 0.648,-0.1619 0.7336,-0.2106 0.8166,-0.2656 0.8965,-0.3266 0.973,-0.3934 1.0458,-0.466 1.1147,-0.544 1.1793,-0.6273 1.2392,-0.7158 1.2945,-0.8092 1.3445,-0.9072 1.3893,-1.0097 1.4283,-1.1163 1.4616,-1.2268 1.4888,-1.3409 1.5097,-1.4583 0.2519,-1.4081 -1.1799,-6.9362 -0.7033,-1.2457 -1.907,-0.8771 -1.8484,-0.7732 -1.785,-0.6745 -1.7171,-0.5813 -1.6449,-0.4935 -1.5689,-0.4117 -1.4892,-0.3356 -1.4063,-0.2658 -1.3203,-0.2022 -1.2319,-0.1448 -1.1411,-0.094 -1.0483,-0.0495 -0.954,-0.0118 -0.8585,0.0193 -0.7621,0.0437 -0.665,0.0616 -0.5678,0.0725 -0.4709,0.0769 -0.3743,0.0745 -0.2786,0.0656 -0.1841,0.0502 -0.0912,0.0281 -13.357,4.6794 -8.6458,-16.5001 11.4499,-8.319 0.0751,-0.059 0.146,-0.1229 0.2125,-0.1917 0.2743,-0.2653 0.3312,-0.3434 0.3829,-0.4256 0.429,-0.5118 0.4698,-0.6016 0.5045,-0.6949 0.5333,-0.7911 0.5559,-0.8902 0.5722,-0.9917 0.5821,-1.0953 0.5853,-1.2007 0.5818,-1.3075 0.5716,-1.4155 0.5545,-1.5243 0.5305,-1.6334 0.4994,-1.7427 0.4613,-1.8516 0.4163,-1.9599 0.3643,-2.0672 -0.6239,-1.2872 -5.0315,-4.918 -1.3012,-0.5943 -2.0583,0.4113 -1.9499,0.4609 -1.8406,0.5035 -1.7308,0.539 -1.6209,0.5676 -1.5112,0.5891 -1.4021,0.6038 -1.294,0.6115 -1.187,0.6126 -1.0817,0.6069 -0.9783,0.5947 -0.8773,0.5761 -0.7788,0.5512 -0.6832,0.5202 -0.5907,0.4834 -0.5019,0.4406 -0.4168,0.3925 -0.3357,0.3389 -0.259,0.2803 -0.1868,0.2169 -0.1195,0.1487 -0.0572,0.0764 -8.0556,11.6368 -16.6931,-8.267 4.3734,-13.4604 0.026,-0.0917 0.0459,-0.1853 0.0592,-0.28 0.066,-0.3759 0.0662,-0.4724 0.0595,-0.5694 0.0463,-0.6663 0.0264,-0.7628 -3e-4,-0.8587 -0.0336,-0.9535 -0.0735,-1.047 -0.1199,-1.1386 -0.1729,-1.2282 -0.2322,-1.3154 -0.2979,-1.3998 -0.3695,-1.4812 -0.4474,-1.5591 -0.5309,-1.6332 -0.6203,-1.7034 -0.7151,-1.7692 -0.8152,-1.8303 -0.9204,-1.8864 -1.2614,-0.6747 -6.9613,-1.0213 -1.402,0.2839 -1.4235,1.5427 -1.3065,1.519 -1.1931,1.4892 -1.0835,1.4534 -0.9777,1.4119 -0.8763,1.3649 -0.7794,1.3126 -0.6874,1.2553 -0.6002,1.1933 -0.5184,1.1268 -0.442,1.0562 -0.3711,0.9817 -0.306,0.9037 -0.247,0.8224 -0.1938,0.7383 -0.147,0.6515 -0.1065,0.5625 -0.0724,0.4715 -0.0447,0.379 -0.0237,0.2853 -0.0093,0.1905 -0.0014,0.0954 0.3229,14.1493 -18.3643,3.1239 -4.3736,-13.4603 -0.0329,-0.0895 -0.0718,-0.1768 -0.1166,-0.2614 -0.1676,-0.3429 -0.2242,-0.4211 -0.2865,-0.4956 -0.3541,-0.5663 -0.4271,-0.6326 -0.5049,-0.6946 -0.5877,-0.7516 -0.6748,-0.8038 -0.7663,-0.8507 -0.8618,-0.892 -0.9611,-0.9277 -1.0637,-0.9574 -1.1696,-0.9811 -1.2783,-0.9984 -1.3896,-1.0092 -1.503,-1.0135 -1.6184,-1.0109 -1.7354,-1.0016 -1.8534,-0.9852 -1.4171,0.1956 -6.2321,3.2655 -0.9673,1.0538 -0.2449,2.0847 -0.1642,1.9969 -0.0899,1.9061 -0.0222,1.8126 0.0389,1.717 0.0933,1.6193 0.141,1.5201 0.1817,1.4195 0.2158,1.3182 0.2429,1.2163 0.2633,1.1143 0.2768,1.0124 0.2836,0.9109 0.2837,0.8105 0.2771,0.7112 0.264,0.6135 0.2444,0.5177 0.2186,0.424 0.1866,0.3329 0.1485,0.2447 0.1046,0.1596 0.0549,0.0781 8.5779,11.2572 -13.0208,13.3215 -11.4501,-8.3188 -0.0793,-0.0531 -0.1619,-0.1009 -0.2481,-0.1429 -0.3371,-0.1789 -0.4289,-0.2089 -0.523,-0.2326 -0.6194,-0.2499 -0.7173,-0.2608 -0.8168,-0.2651 -0.9172,-0.2627 -1.0184,-0.2537 -1.12,-0.2377 -1.2215,-0.2151 -1.3228,-0.1857 -1.4234,-0.1493 -1.5228,-0.1062 -1.621,-0.0563 -1.7174,2e-4 -1.8117,0.0636 -1.9036,0.1334 -1.9926,0.2097 -2.0786,0.2924 -1.0314,0.9911 -3.1225,6.305 -0.1632,1.4212 1.0273,1.8305 1.0409,1.712 1.0476,1.5949 1.0475,1.4795 1.0407,1.3662 1.0273,1.2552 1.0075,1.1469 0.9814,1.0416 0.9494,0.9396 0.9115,0.8413 0.8679,0.7467 0.819,0.6563 0.7649,0.5703 0.7059,0.489 0.6422,0.4125 0.5742,0.3411 0.502,0.2751 0.4261,0.2145 0.3466,0.1597 0.264,0.1107 0.1784,0.0677 0.0903,0.0308 13.5566,4.0654 -2.704,18.4307 -14.1529,1e-4 -0.0954,0.0036 -0.1903,0.0136 -0.2847,0.0302 -0.3779,0.0534 -0.4697,0.0831 -0.5599,0.1193 -0.648,0.1619 -0.7336,0.2106 -0.8166,0.2656 -0.8965,0.3266 -0.973,0.3934 -1.0458,0.466 -1.1147,0.544 -1.1793,0.6273 -1.2392,0.7158 -1.2945,0.8092 -1.3445,0.9072 -1.3893,1.0097 -1.4283,1.1163 -1.4616,1.2268 -1.4888,1.3409 -1.5097,1.4583 -0.2519,1.4081 1.1799,6.9362 0.7033,1.2457 1.907,0.8771 1.8484,0.7732 1.785,0.6745 1.7171,0.5813 1.6449,0.4935 1.5689,0.4117 1.4892,0.3356 1.4063,0.2658 1.3203,0.2022 1.2319,0.1448 1.1411,0.094 1.0483,0.0495 0.954,0.0118 0.8585,-0.0193 0.7621,-0.0437 0.665,-0.0616 0.5678,-0.0725 0.4709,-0.0769 0.3743,-0.0745 0.2786,-0.0656 0.1841,-0.0502 0.0912,-0.0281 13.357,-4.6794 8.6458,16.5001 -11.4499,8.319 -0.0751,0.059 -0.146,0.1229 -0.2125,0.1917 -0.2743,0.2653 -0.3312,0.3434 -0.3829,0.4256 -0.429,0.5118 -0.4698,0.6016 -0.5045,0.6949 -0.5333,0.7911 -0.5559,0.8902 -0.5722,0.9917 -0.5821,1.0953 -0.5853,1.2007 -0.5818,1.3075 -0.5716,1.4155 -0.5545,1.5243 -0.5305,1.6334 -0.4994,1.7427 -0.4613,1.8516 -0.4163,1.9599 -0.3643,2.0672 0.6239,1.2872 5.0315,4.918 1.3012,0.5943 2.0583,-0.4113 1.9499,-0.4609 1.8406,-0.5035 1.7308,-0.539 1.6209,-0.5676 1.5112,-0.5891 1.4021,-0.6038 1.294,-0.6115 1.187,-0.6126 1.0817,-0.6069 0.9783,-0.5947 0.8773,-0.5761 0.7788,-0.5512 0.6832,-0.5202 0.5907,-0.4834 0.5019,-0.4406 0.4168,-0.3925 0.3357,-0.3389 0.259,-0.2803 0.1868,-0.2169 0.1195,-0.1487 0.0572,-0.0764 8.0556,-11.6368 16.6931,8.267 -4.3734,13.4604 -0.026,0.0917 -0.0459,0.1853 -0.0592,0.28 -0.066,0.3759 -0.0662,0.4724 -0.0595,0.5694 -0.0463,0.6663 -0.0264,0.7628 3e-4,0.8587 0.0336,0.9535 0.0735,1.047 0.1199,1.1386 0.1729,1.2282 0.2322,1.3154 0.2979,1.3998 0.3695,1.4812 0.4474,1.5591 0.5309,1.6332 0.6203,1.7034 0.7151,1.7692 0.8152,1.8303 0.9204,1.8864 1.2614,0.6747 6.9613,1.0213 1.402,-0.2839 1.4235,-1.5427 1.3065,-1.519 1.1931,-1.4892 1.0835,-1.4534 0.9777,-1.4119 0.8763,-1.3649 0.7794,-1.3126 0.6874,-1.2553 0.6002,-1.1933 0.5184,-1.1268 0.442,-1.0562 0.3711,-0.9817 0.306,-0.9037 0.247,-0.8224 0.1938,-0.7383 0.147,-0.6515 0.1065,-0.5625 0.0724,-0.4715 0.0447,-0.379 0.0237,-0.2853 0.0093,-0.1905 0.0014,-0.0954 -0.3229,-14.1493 18.3643,-3.1239 4.3736,13.4603 0.0329,0.0895 0.0718,0.1768 0.1166,0.2614 0.1676,0.3429 0.2242,0.4211 0.2865,0.4956 0.3541,0.5663 0.4271,0.6326 0.5049,0.6946 0.5877,0.7516 0.6748,0.8038 0.7663,0.8507 0.8618,0.892 0.9611,0.9277 1.0637,0.9574 1.1696,0.9811 1.2783,0.9984 1.3896,1.0092 1.503,1.0135 1.6184,1.0109 1.7354,1.0016 1.8534,0.9852 1.4171,-0.1956 6.2321,-3.2655 0.9673,-1.0538 0.2449,-2.0847 0.1642,-1.9969 0.0899,-1.9061 0.0222,-1.8126 -0.0389,-1.717 -0.0933,-1.6193 -0.141,-1.5201 L 50.5338,71.7592 50.318,70.441 50.0751,69.2247 49.8118,68.1104 49.535,67.098 49.2514,66.1871 48.9677,65.3766 48.6906,64.6654 48.4266,64.0519 48.1822,63.5342 47.9636,63.1102 47.777,62.7773 47.6285,62.5326 47.5239,62.373 47.469,62.2949 38.8911,51.0377 51.9119,37.7162 63.362,46.035 l 0.0793,0.0531 0.1619,0.1009 0.2481,0.1429 0.3371,0.1789 0.4289,0.2089 0.523,0.2326 0.6194,0.2499 0.7173,0.2608 0.8168,0.2651 0.9172,0.2627 1.0184,0.2537 1.12,0.2377 1.2215,0.2151 1.3228,0.1857 1.4234,0.1493 1.5228,0.1062 1.621,0.0563 1.7174,-2e-4 1.8117,-0.0636 1.9036,-0.1334 1.9926,-0.2097 2.0786,-0.2924 1.0314,-0.9911 3.1225,-6.305 0.1632,-1.4212 -1.0273,-1.8305 -1.0409,-1.712 -1.0476,-1.5949 -1.0475,-1.4795 -1.0407,-1.3662 -1.0273,-1.2552 -1.0075,-1.1469 -0.9814,-1.0416 -0.9494,-0.9396 -0.9115,-0.8413 -0.8679,-0.7467 -0.819,-0.6563 -0.7649,-0.5703 -0.7059,-0.489 -0.6422,-0.4125 -0.5742,-0.3411 -0.502,-0.2751 L 75.8986,22.865 75.552,22.7053 75.288,22.5946 75.1096,22.5269 75.0193,22.4961 61.4627,18.4307 z"
     id="gearpoly1" /><g
     class="guides"
     id="g5"><polyline
       fill="none"
       stroke="#444"
       stroke-width="0.5"
       stroke-miterlimit="10"
       points="10,0 -10,0"
       id="polyline7" /><polyline
       fill="none"
       stroke="#444"
       stroke-width="0.5"
       stroke-miterlimit="10"
       points="0,10 0,-10"
       id="polyline9" /></g><circle
     fill="#c00"
     class="firstmarker"
     stroke="none"
     stroke-miterlimit="10"
     cx="82.1532"
     cy="-13.9746"
     r="6.5417"
     id="circle11" /><g
     class="geartext"
     id="g13"><g
       class="text"
       id="g15"><polyline
         fill="none"
         stroke="#444"
         stroke-width="0.5"
         stroke-linecap="square"
         stroke-miterlimit="1"
         points="-34.14 -35 -35.21 -33.91 -36.26 -32.8 -37.26 -31.65 -38.23 -30.47 "
         id="polyline17" /><polyline
         fill="none"
         stroke="#444"
         stroke-width="0.5"
         stroke-linecap="square"
         stroke-miterlimit="1"
         points="-33.99 -30.75 -38.52 -34.85 "
         id="polyline19" /><polyline
         fill="none"
         stroke="#444"
         stroke-width="0.5"
         stroke-linecap="square"
         stroke-miterlimit="1"
         points="-36.27 -37.18 -36.31 -34.97 -36.26 -32.8 -36.1 -30.66 -35.84 -28.56 "
         id="polyline21" /><polyline
         fill="none"
         stroke="#444"
         stroke-width="0.5"
         stroke-linecap="square"
         stroke-miterlimit="1"
         points="-32 -32.81 -34.11 -32.85 -36.26 -32.8 -38.43 -32.64 -40.62 -32.37 "
         id="polyline23" /><polyline
         fill="none"
         stroke="#444"
         stroke-width="0.5"
         stroke-linecap="square"
         stroke-miterlimit="1"
         points="-33.88 -39.38 -33.59 -41.61 -27.83 -34.47 "
         id="polyline25" /><polyline
         fill="none"
         stroke="#444"
         stroke-width="0.5"
         stroke-linecap="square"
         stroke-miterlimit="1"
         points="-26.74 -35.33 -27.83 -34.47 -28.9 -33.59 "
         id="polyline27" /><polyline
         fill="none"
         stroke="#444"
         stroke-width="0.5"
         stroke-linecap="square"
         stroke-miterlimit="1"
         points="-16.02 -51.02 -13.27 -42.27 -15.34 -44 -17.53 -45.64 -19.83 -47.18 -22.25 -48.62 -18.44 -40.29 "
         id="polyline29" /><polyline
         fill="none"
         stroke="#444"
         stroke-width="0.5"
         stroke-linecap="square"
         stroke-miterlimit="1"
         points="-5.87 -50.07 -7.43 -49.87 -8.99 -49.61 -10.53 -49.3 -12.07 -48.95 "
         id="polyline31" /><polyline
         fill="none"
         stroke="#444"
         stroke-width="0.5"
         stroke-linecap="square"
         stroke-miterlimit="1"
         points="-5.51 -47.04 -6.98 -46.84 -8.44 -46.6 -9.89 -46.32 -11.34 -45.98 "
         id="polyline33" /><polyline
         fill="none"
         stroke="#444"
         stroke-width="0.5"
         stroke-linecap="square"
         stroke-miterlimit="1"
         points="-2.81 -51.87 -1.23 -53.46 -1.02 -44.29 "
         id="polyline35" /><polyline
         fill="none"
         stroke="#444"
         stroke-width="0.5"
         stroke-linecap="square"
         stroke-miterlimit="1"
         points="0.37 -44.3 -1.02 -44.29 -2.4 -44.24 "
         id="polyline37" /><polyline
         fill="none"
         stroke="#444"
         stroke-width="0.5"
         stroke-linecap="square"
         stroke-miterlimit="1"
         points="7.51 -45.21 5.89 -43.91 4.51 -44.08 3.24 -45.72 3.67 -51.81 5.45 -53.19 7.11 -53 8.51 -51.24 7.51 -45.21 "
         id="polyline39" /><polyline
         fill="none"
         stroke="#444"
         stroke-width="0.5"
         stroke-linecap="square"
         stroke-miterlimit="1"
         points="18.28 -45.34 19.69 -44.75 21.08 -44.11 22.45 -43.43 24.54 -44.04 25.28 -45.38 24.55 -47.5 23.06 -48.25 21.54 -48.94 20 -49.59 16.57 -41.09 "
         id="polyline41" /><polyline
         fill="none"
         stroke="#444"
         stroke-width="0.5"
         stroke-linecap="square"
         stroke-miterlimit="1"
         points="23.94 -37.28 27.24 -42.42 "
         id="polyline43" /><polyline
         fill="none"
         stroke="#444"
         stroke-width="0.5"
         stroke-linecap="square"
         stroke-miterlimit="1"
         points="28.07 -43.71 28.89 -45 "
         id="polyline45" /><polyline
         fill="none"
         stroke="#444"
         stroke-width="0.5"
         stroke-linecap="square"
         stroke-miterlimit="1"
         points="31.52 -33.28 29.45 -33.1 29.38 -35.18 34.28 -41.04 "
         id="polyline47" /><polyline
         fill="none"
         stroke="#444"
         stroke-width="0.5"
         stroke-linecap="square"
         stroke-miterlimit="1"
         points="34.67 -36.6 33.51 -37.67 32.32 -38.7 31.09 -39.69 29.84 -40.64 "
         id="polyline49" /><polyline
         fill="none"
         stroke="#444"
         stroke-width="0.5"
         stroke-linecap="square"
         stroke-miterlimit="1"
         points="35.93 -25.92 35.1 -27.03 34.24 -28.12 33.35 -29.17 33.54 -31.24 35.77 -33.32 37.95 -33.2 38.96 -31.99 39.94 -30.76 40.89 -29.5 "
         id="polyline51" /><polyline
         fill="none"
         stroke="#444"
         stroke-width="0.5"
         stroke-linecap="square"
         stroke-miterlimit="1"
         points="40.06 -25.26 42.15 -24.77 44.24 -24.17 44.98 -22.78 44.28 -20.71 40.13 -18.77 "
         id="polyline53" /><polyline
         fill="none"
         stroke="#444"
         stroke-width="0.5"
         stroke-linecap="square"
         stroke-miterlimit="1"
         points="37.48 -23.63 45.23 -28.52 "
         id="polyline55" /><polyline
         fill="none"
         stroke="#444"
         stroke-width="0.5"
         stroke-linecap="square"
         stroke-miterlimit="1"
         points="43.25 -9.61 43.53 -8.26 43.77 -6.89 43.96 -5.52 45.63 -4.29 51.72 -4.86 53.06 -6.67 52.82 -8.32 52.54 -9.97 52.2 -11.6 "
         id="polyline57" /><polyline
         fill="none"
         stroke="#444"
         stroke-width="0.5"
         stroke-linecap="square"
         stroke-miterlimit="1"
         points="52.54 -9.97 43.53 -8.26 "
         id="polyline59" /><polyline
         fill="none"
         stroke="#444"
         stroke-width="0.5"
         stroke-linecap="square"
         stroke-miterlimit="1"
         points="50.2 4.72 50.32 3.15 50.39 1.58 50.42 0 50.39 -1.58 "
         id="polyline61" /><polyline
         fill="none"
         stroke="#444"
         stroke-width="0.5"
         stroke-linecap="square"
         stroke-miterlimit="1"
         points="47.15 4.43 47.27 2.96 47.34 1.48 47.36 0 47.34 -1.48 "
         id="polyline63" /><polyline
         fill="none"
         stroke="#444"
         stroke-width="0.5"
         stroke-linecap="square"
         stroke-miterlimit="1"
         points="51.31 8.08 52.54 9.97 43.53 8.26 "
         id="polyline65" /><polyline
         fill="none"
         stroke="#444"
         stroke-width="0.5"
         stroke-linecap="square"
         stroke-miterlimit="1"
         points="43.25 9.61 43.53 8.26 43.77 6.89 "
         id="polyline67" /><polyline
         fill="none"
         stroke="#444"
         stroke-width="0.5"
         stroke-linecap="square"
         stroke-miterlimit="1"
         points="44.03 12.72 42.56 12.3 "
         id="polyline69" /><polyline
         fill="none"
         stroke="#444"
         stroke-width="0.5"
         stroke-linecap="square"
         stroke-miterlimit="1"
         points="46.03 16.48 45.49 17.91 44.91 19.32 44.28 20.71 42.25 21.4 40.89 20.71 40.13 18.77 40.7 17.51 41.23 16.23 43.15 15.45 47.47 16.99 48.33 19.03 49.12 21.13 48.44 22.65 "
         id="polyline71" /><polyline
         fill="none"
         stroke="#444"
         stroke-width="0.5"
         stroke-linecap="square"
         stroke-miterlimit="1"
         points="46.1 27.09 45.23 28.52 44.32 29.92 43.36 31.29 42.37 32.63 39.65 28.6 36.72 24.79 "
         id="polyline73" /><polyline
         fill="none"
         stroke="#444"
         stroke-width="0.5"
         stroke-linecap="square"
         stroke-miterlimit="1"
         points="31.34 37.52 30.15 38.49 28.93 39.41 27.69 40.29 27.24 42.42 28.07 43.71 30.28 44.07 31.65 43.1 32.98 42.09 34.28 41.04 28.4 34.01 "
         id="polyline75" /><polyline
         fill="none"
         stroke="#444"
         stroke-width="0.5"
         stroke-linecap="square"
         stroke-miterlimit="1"
         points="18.85 46.76 20.31 46.15 21.74 45.49 23.15 44.79 24.54 44.04 "
         id="polyline77" /><polyline
         fill="none"
         stroke="#444"
         stroke-width="0.5"
         stroke-linecap="square"
         stroke-miterlimit="1"
         points="17.71 43.92 19.08 43.35 20.42 42.73 21.75 42.07 23.05 41.37 "
         id="polyline79" /><polyline
         fill="none"
         stroke="#444"
         stroke-width="0.5"
         stroke-linecap="square"
         stroke-miterlimit="1"
         points="15.42 46.39 13.96 46.85 12.49 47.27 11 47.63 9.21 46.46 8.92 44.96 9.97 43.17 11.32 42.84 12.65 42.46 14.45 43.5 15.9 47.84 14.83 49.78 13.66 51.7 12.04 52.1 "
         id="polyline81" /><polyline
         fill="none"
         stroke="#444"
         stroke-width="0.5"
         stroke-linecap="square"
         stroke-miterlimit="1"
         points="-1.12 48.88 -2.65 48.82 -4.17 48.71 -5.69 48.56 -7.43 49.87 -7.66 51.38 -6.23 53.11 -4.56 53.28 -2.9 53.39 -1.23 53.46 -1.02 44.29 "
         id="polyline83" /><polyline
         fill="none"
         stroke="#444"
         stroke-width="0.5"
         stroke-linecap="square"
         stroke-miterlimit="1"
         points="-9.26 43.33 -9.89 46.32 -12.07 48.95 -14.41 51.49 -15.1 48.1 -15.59 44.72 -14.59 41.84 "
         id="polyline85" /><polyline
         fill="none"
         stroke="#444"
         stroke-width="0.5"
         stroke-linecap="square"
         stroke-miterlimit="1"
         points="-9.89 46.32 -11.34 45.98 -12.77 45.61 -14.19 45.19 -15.59 44.72 "
         id="polyline87" /><polyline
         fill="none"
         stroke="#444"
         stroke-width="0.5"
         stroke-linecap="square"
         stroke-miterlimit="1"
         points="-25.18 43.68 -23.8 44.44 -22.4 45.17 -20.98 45.84 -19.54 46.48 "
         id="polyline89" /><polyline
         fill="none"
         stroke="#444"
         stroke-width="0.5"
         stroke-linecap="square"
         stroke-miterlimit="1"
         points="-23.65 41.03 -22.36 41.75 -21.05 42.43 -19.71 43.07 -18.35 43.66 "
         id="polyline91" /><polyline
         fill="none"
         stroke="#444"
         stroke-width="0.5"
         stroke-linecap="square"
         stroke-miterlimit="1"
         points="-28.9 33.59 -27.83 34.47 -26.74 35.33 -25.62 36.14 -24.48 36.93 -26.17 39.47 -28.27 39.88 -29.51 38.98 -30.71 38.04 -32.88 38.22 -33.88 39.38 -33.59 41.61 -32.27 42.63 -30.93 43.62 -28.7 43.29 "
         id="polyline93" /><polyline
         fill="none"
         stroke="#444"
         stroke-width="0.5"
         stroke-linecap="square"
         stroke-miterlimit="1"
         points="-34.93 29.67 -32.86 29.72 -31.91 30.73 -32 32.81 -36.27 37.18 -38.51 37.09 -39.66 35.87 -39.59 33.63 -34.93 29.67 "
         id="polyline95" /></g></g><path
     style="opacity:0.2;fill:none;stroke:#ff0000;stroke-miterlimit:10"
     d="M 83.330002,0 C 83.330002,46.021889 46.021889,83.330002 0,83.330002 -46.021889,83.330002 -83.330002,46.021889 -83.330002,0 c 0,-46.021889 37.308113,-83.330002 83.330002,-83.330002 46.021889,0 83.330002,37.308113 83.330002,83.330002 z"
     id="circle99" /><circle
     style="opacity:0.2;fill:none;stroke:#cccccc;stroke-miterlimit:10;stroke-dasharray:2, 2"
     sodipodi:ry="100"
     sodipodi:rx="100"
     sodipodi:cy="0"
     sodipodi:cx="0"
     id="circle101"
     r="100"
     cy="0"
     cx="0"
     stroke-miterlimit="10"
     class="outer" /><circle
     style="opacity:0.2;fill:none;stroke:#0000ff;stroke-miterlimit:10;stroke-dasharray:2, 2"
     sodipodi:ry="78.309998"
     sodipodi:rx="78.309998"
     sodipodi:cy="0"
     sodipodi:cx="0"
     id="circle103"
     r="78.309998"
     cy="0"
     cx="0"
     stroke-miterlimit="10"
     class="base" /></svg>