<?xml version="1.0" encoding="UTF-8" standalone="no"?>
<!-- Generator: Iparigrafika Gear Generator by Abel Vincze http://geargenerator.com/ -->

<svg
   xmlns:dc="http://purl.org/dc/elements/1.1/"
   xmlns:cc="http://creativecommons.org/ns#"
   xmlns:rdf="http://www.w3.org/1999/02/22-rdf-syntax-ns#"
   xmlns:svg="http://www.w3.org/2000/svg"
   xmlns="http://www.w3.org/2000/svg"
   xmlns:sodipodi="http://sodipodi.sourceforge.net/DTD/sodipodi-0.dtd"
   xmlns:inkscape="http://www.inkscape.org/namespaces/inkscape"
   version="1.2"
   class="svggear"
   x="0px"
   y="0px"
   width="300px"
   height="300px"
   viewBox="-150 -150 300 300"
   overflow="scroll"
   xml:space="preserve"
   id="svg3833"
   inkscape:version="0.48.4 r9939"
   sodipodi:docname="16.dxf"><metadata
     id="metadata3938"><rdf:RDF><cc:Work
         rdf:about=""><dc:format>image/svg+xml</dc:format><dc:type
           rdf:resource="http://purl.org/dc/dcmitype/StillImage" /><dc:title></dc:title></cc:Work></rdf:RDF></metadata><defs
     id="defs3936" /><sodipodi:namedview
     pagecolor="#ffffff"
     bordercolor="#666666"
     borderopacity="1"
     objecttolerance="10"
     gridtolerance="10"
     guidetolerance="10"
     inkscape:pageopacity="0"
     inkscape:pageshadow="2"
     inkscape:window-width="960"
     inkscape:window-height="1014"
     id="namedview3934"
     showgrid="false"
     inkscape:zoom="1.5733333"
     inkscape:cx="122.17794"
     inkscape:cy="124.25976"
     inkscape:window-x="1600"
     inkscape:window-y="27"
     inkscape:window-maximized="0"
     inkscape:current-layer="svg3833" /><path
     style="fill:#dddddd;stroke:#444444;stroke-width:1;stroke-miterlimit:10"
     d="m 114.1667,0 11.1447,-2e-4 0.0775,-0.0023 0.137,-0.007 0.1963,-0.0143 0.2553,-0.0241 0.3139,-0.0366 0.3721,-0.0516 0.4298,-0.0691 0.4869,-0.0893 0.5432,-0.1118 0.5987,-0.137 0.6535,-0.1645 0.7072,-0.1946 0.7599,-0.227 0.8116,-0.2619 0.862,-0.299 0.9112,-0.3385 0.959,-0.3803 1.0054,-0.4243 1.0504,-0.4706 1.0937,-0.5188 1.1354,-0.5694 1.1755,-0.6218 1.2137,-0.6764 1.2502,-0.7328 1.2846,-0.7912 1.3171,-0.8514 1.3477,-0.9134 1.376,-0.9771 1.4022,-1.0425 0.4783,-1.0331 -1.0171,-9.1313 -0.6939,-0.9025 -1.5973,-0.7084 -1.5572,-0.6504 -1.5156,-0.5944 -1.4722,-0.5407 -1.4273,-0.4892 -1.3807,-0.4398 -1.3328,-0.3927 -1.2835,-0.3479 -1.2329,-0.3056 -1.1811,-0.2655 -1.1282,-0.2278 -1.0741,-0.1927 -1.0192,-0.16 -0.9633,-0.1297 -0.9067,-0.102 -0.8493,-0.0769 -0.7913,-0.0542 -0.7327,-0.0342 -0.6736,-0.0167 -0.6142,-0.0019 -0.5545,0.0104 -0.4946,0.0201 -0.4345,0.0271 -0.3743,0.0316 -0.3143,0.0334 -0.2543,0.0326 -0.1946,0.0293 -0.1352,0.0233 -0.0761,0.0148 -10.8717,2.4522 -5.8922,-18.5681 10.2964,-4.2651 0.0707,-0.0318 0.1239,-0.0589 0.1758,-0.0883 0.2267,-0.1199 0.276,-0.154 0.3241,-0.19 0.3706,-0.2284 0.4156,-0.2688 0.4591,-0.3112 0.5007,-0.3557 0.5408,-0.402 0.5789,-0.4505 0.6152,-0.5005 0.6496,-0.5525 0.6819,-0.6061 0.7123,-0.6615 0.7405,-0.7183 0.7665,-0.7768 0.7903,-0.8367 0.8119,-0.8979 0.8312,-0.9605 0.848,-1.0244 0.8625,-1.0893 0.8745,-1.1555 0.8841,-1.2225 0.8911,-1.2907 0.8955,-1.3596 0.8973,-1.4293 0.8965,-1.4997 0.0466,-1.1375 -4.4341,-8.0469 -0.9865,-0.5683 -1.7467,-0.0433 -1.6876,-0.0049 -1.6277,0.0308 -1.5671,0.0638 -1.5058,0.0943 -1.4439,0.1221 -1.3816,0.1472 -1.319,0.1697 -1.256,0.1895 -1.1928,0.2067 -1.1294,0.2212 -1.0661,0.2331 -1.0029,0.2422 -0.9396,0.2488 -0.8767,0.2528 -0.8141,0.254 -0.7518,0.2527 -0.69,0.2488 -0.6287,0.2423 -0.5682,0.2333 -0.5083,0.2218 -0.4492,0.2078 -0.3911,0.1914 -0.3338,0.1724 -0.2775,0.1511 -0.2225,0.1275 -0.1686,0.1015 -0.116,0.0733 -0.0646,0.0428 -9.1057,6.4259 -12.5494,-14.8998 7.8804,-7.8807 0.0532,-0.0564 0.0919,-0.1018 0.1287,-0.1489 0.1634,-0.1976 0.1962,-0.2478 0.2266,-0.2996 0.255,-0.3529 0.2812,-0.4073 0.305,-0.4632 0.3265,-0.5202 0.3457,-0.5785 0.3625,-0.6376 0.3769,-0.6979 0.3887,-0.759 0.398,-0.821 0.405,-0.8837 0.4092,-0.947 0.4109,-1.011 0.41,-1.0754 0.4065,-1.1403 0.4003,-1.2055 0.3915,-1.2709 0.3799,-1.3365 0.3658,-1.4021 0.3489,-1.4679 0.3293,-1.5334 0.3071,-1.5987 0.282,-1.6639 0.2544,-1.7287 -0.3923,-1.0687 -7.176,-5.7376 -1.1288,-0.1475 -1.6303,0.6285 -1.5611,0.6413 -1.492,0.6513 -1.4234,0.6587 -1.355,0.6633 -1.2874,0.6654 -1.2201,0.6647 -1.1536,0.6615 -1.0878,0.6558 -1.0229,0.6474 -0.9589,0.6366 -0.8957,0.6233 -0.8338,0.6076 -0.7729,0.5894 -0.7133,0.569 -0.6549,0.5462 -0.5978,0.5212 -0.5423,0.4939 -0.4882,0.4645 -0.4356,0.433 -0.3847,0.3994 -0.3356,0.3639 -0.288,0.3264 -0.2424,0.2871 -0.1986,0.2458 -0.1568,0.203 -0.1169,0.1583 -0.0791,0.112 -0.0433,0.0643 -5.9535,9.4213 -17.296,-8.9631 4.2647,-10.2966 0.0275,-0.0724 0.046,-0.1293 0.0619,-0.1867 0.0754,-0.2451 0.0864,-0.3041 0.0947,-0.3635 0.1006,-0.4236 0.1039,-0.4839 0.1045,-0.5446 0.1026,-0.6056 0.098,-0.6667 0.0909,-0.7279 0.0811,-0.7889 0.0686,-0.85 0.0536,-0.9109 0.036,-0.9713 0.0156,-1.0316 -0.0072,-1.0912 -0.0328,-1.1505 -0.0608,-1.209 -0.0915,-1.2669 -0.1247,-1.324 -0.1604,-1.3802 -0.1986,-1.4354 -0.2394,-1.4896 -0.2825,-1.5427 -0.3282,-1.5946 -0.3761,-1.6451 -0.4266,-1.6945 -0.7714,-0.8372 -8.8254,-2.5547 -1.0994,0.2957 -1.2657,1.2046 -1.1968,1.1898 -1.1292,1.1727 -1.0629,1.1532 -0.9981,1.1315 -0.9347,1.1073 -0.8729,1.0811 -0.8126,1.0526 -0.7541,1.0221 -0.6973,0.9896 -0.6422,0.9551 -0.5891,0.9187 -0.5378,0.8803 -0.4885,0.8404 -0.4412,0.7986 -0.396,0.7552 -0.3529,0.7103 -0.312,0.6639 -0.2733,0.6159 -0.2367,0.5668 -0.2026,0.5163 -0.1707,0.4645 -0.1412,0.4118 -0.1141,0.358 -0.0895,0.3031 -0.0671,0.2475 -0.0475,0.191 -0.0301,0.1338 -0.0155,0.0759 -1.8949,10.9825 -19.4095,-1.662 -2e-4,-11.1447 -0.0023,-0.0775 -0.007,-0.137 -0.0143,-0.1963 -0.0241,-0.2553 -0.0366,-0.3139 -0.0516,-0.3721 -0.0691,-0.4298 -0.0893,-0.4869 -0.1118,-0.5432 -0.137,-0.5987 -0.1645,-0.6535 -0.1946,-0.7072 -0.227,-0.7599 -0.2619,-0.8116 -0.299,-0.862 -0.3385,-0.9112 -0.3803,-0.959 -0.4243,-1.0054 -0.4706,-1.0504 -0.5188,-1.0937 -0.5694,-1.1354 -0.6218,-1.1755 -0.6764,-1.2137 -0.7328,-1.2502 -0.7912,-1.2846 -0.8514,-1.3171 -0.9134,-1.3477 -0.9771,-1.376 -1.0425,-1.4022 -1.0331,-0.4783 -9.1313,1.0171 -0.9025,0.6939 -0.7084,1.5973 -0.6504,1.5572 -0.5944,1.5156 -0.5407,1.4722 -0.4892,1.4273 -0.4398,1.3807 -0.3927,1.3328 -0.3479,1.2835 -0.3056,1.2329 -0.2655,1.1811 -0.2278,1.1282 -0.1927,1.0741 -0.16,1.0192 -0.1297,0.9633 -0.102,0.9067 -0.0769,0.8493 -0.0542,0.7913 -0.0342,0.7327 -0.0167,0.6736 -0.0019,0.6142 0.0104,0.5545 0.0201,0.4946 0.0271,0.4345 0.0316,0.3743 0.0334,0.3143 0.0326,0.2543 0.0293,0.1946 0.0233,0.1352 0.0148,0.0761 2.4522,10.8717 -18.5681,5.8922 -4.2651,-10.2964 -0.0318,-0.0707 -0.0589,-0.1239 -0.0883,-0.1758 -0.1199,-0.2267 -0.154,-0.276 -0.19,-0.3241 -0.2284,-0.3706 -0.2688,-0.4156 -0.3112,-0.4591 -0.3557,-0.5007 -0.402,-0.5408 -0.4505,-0.5789 -0.5005,-0.6152 -0.5525,-0.6496 -0.6061,-0.6819 -0.6615,-0.7123 -0.7183,-0.7405 -0.7768,-0.7665 -0.8367,-0.7903 -0.8979,-0.8119 -0.9605,-0.8312 -1.0244,-0.848 -1.0893,-0.8625 -1.1555,-0.8745 -1.2225,-0.8841 -1.2907,-0.8911 -1.3596,-0.8955 -1.4293,-0.8973 -1.4997,-0.8965 -1.1375,-0.0466 -8.0469,4.4341 -0.5683,0.9865 -0.0433,1.7467 -0.0049,1.6876 0.0308,1.6277 0.0638,1.5671 0.0943,1.5058 0.1221,1.4439 0.1472,1.3816 0.1697,1.319 0.1895,1.256 0.2067,1.1928 0.2212,1.1294 0.2331,1.0661 0.2422,1.0029 0.2488,0.9396 0.2528,0.8767 0.254,0.8141 0.2527,0.7518 0.2488,0.69 0.2423,0.6287 0.2333,0.5682 0.2218,0.5083 0.2078,0.4492 0.1914,0.3911 0.1724,0.3338 0.1511,0.2775 0.1275,0.2225 0.1015,0.1686 0.0733,0.116 0.0428,0.0646 6.4259,9.1057 -14.8998,12.5494 -7.8807,-7.8804 -0.0564,-0.0532 -0.1018,-0.0919 -0.1489,-0.1287 -0.1976,-0.1634 -0.2478,-0.1962 -0.2996,-0.2266 -0.3529,-0.255 -0.4073,-0.2812 -0.4632,-0.305 -0.5202,-0.3265 -0.5785,-0.3457 -0.6376,-0.3625 -0.6979,-0.3769 -0.759,-0.3887 -0.821,-0.398 -0.8837,-0.405 -0.947,-0.4092 -1.011,-0.4109 -1.0754,-0.41 -1.1403,-0.4065 -1.2055,-0.4003 -1.2709,-0.3915 -1.3365,-0.3799 -1.4021,-0.3658 -1.4679,-0.3489 -1.5334,-0.3293 -1.5987,-0.3071 -1.6639,-0.282 -1.7287,-0.2544 -1.0687,0.3923 -5.7376,7.176 -0.1475,1.1288 0.6285,1.6303 0.6413,1.5611 0.6513,1.492 0.6587,1.4234 0.6633,1.355 0.6654,1.2874 0.6647,1.2201 0.6615,1.1536 0.6558,1.0878 0.6474,1.0229 0.6366,0.9589 0.6233,0.8957 0.6076,0.8338 0.5894,0.7729 0.569,0.7133 0.5462,0.6549 0.5212,0.5978 0.4939,0.5423 0.4645,0.4882 0.433,0.4356 0.3994,0.3847 0.3639,0.3356 0.3264,0.288 0.2871,0.2424 0.2458,0.1986 0.203,0.1568 0.1583,0.1169 0.112,0.0791 0.0643,0.0433 9.4213,5.9535 -8.9631,17.296 -10.2966,-4.2647 -0.0724,-0.0275 -0.1293,-0.046 -0.1867,-0.0619 -0.2451,-0.0754 -0.3041,-0.0864 -0.3635,-0.0947 -0.4236,-0.1006 -0.4839,-0.1039 -0.5446,-0.1045 -0.6056,-0.1026 -0.6667,-0.098 -0.7279,-0.0909 -0.7889,-0.0811 -0.85,-0.0686 -0.9109,-0.0536 -0.9713,-0.036 -1.0316,-0.0156 -1.0912,0.0072 -1.1505,0.0328 -1.209,0.0608 -1.2669,0.0915 -1.324,0.1247 -1.3802,0.1604 -1.4354,0.1986 -1.4896,0.2394 -1.5427,0.2825 -1.5946,0.3282 -1.6451,0.3761 -1.6945,0.4266 -0.8372,0.7714 -2.5547,8.8254 0.2957,1.0994 1.2046,1.2657 1.1898,1.1968 1.1727,1.1292 1.1532,1.0629 1.1315,0.9981 1.1073,0.9347 1.0811,0.8729 1.0526,0.8126 1.0221,0.7541 0.9896,0.6973 0.9551,0.6422 0.9187,0.5891 0.8803,0.5378 0.8404,0.4885 0.7986,0.4412 0.7552,0.396 0.7103,0.3529 0.6639,0.312 0.6159,0.2733 0.5668,0.2367 0.5163,0.2026 0.4645,0.1707 0.4118,0.1412 0.358,0.1141 0.3031,0.0895 0.2475,0.0671 0.191,0.0475 0.1338,0.0301 0.0759,0.0155 10.9825,1.8949 -1.662,19.4095 -11.1447,2e-4 -0.0775,0.0023 -0.137,0.007 -0.1963,0.0143 -0.2553,0.0241 -0.3139,0.0366 -0.3721,0.0516 -0.4298,0.0691 -0.4869,0.0893 -0.5432,0.1118 -0.5987,0.137 -0.6535,0.1645 -0.7072,0.1946 -0.7599,0.227 -0.8116,0.2619 -0.862,0.299 -0.9112,0.3385 -0.959,0.3803 -1.0054,0.4243 -1.0504,0.4706 -1.0937,0.5188 -1.1354,0.5694 -1.1755,0.6218 -1.2137,0.6764 -1.2502,0.7328 -1.2846,0.7912 -1.3171,0.8514 -1.3477,0.9134 -1.376,0.9771 -1.4022,1.0425 -0.4783,1.0331 1.0171,9.1313 0.6939,0.9025 1.5973,0.7084 1.5572,0.6504 1.5156,0.5944 1.4722,0.5407 1.4273,0.4892 1.3807,0.4398 1.3328,0.3927 1.2835,0.3479 1.2329,0.3056 1.1811,0.2655 1.1282,0.2278 1.0741,0.1927 1.0192,0.16 0.9633,0.1297 0.9067,0.102 0.8493,0.0769 0.7913,0.0542 0.7327,0.0342 0.6736,0.0167 0.6142,0.0019 0.5545,-0.0104 0.4946,-0.0201 0.4345,-0.0271 0.3743,-0.0316 0.3143,-0.0334 0.2543,-0.0326 0.1946,-0.0293 0.1352,-0.0233 0.0761,-0.0148 10.8717,-2.4522 5.8922,18.5681 -10.2964,4.2651 -0.0707,0.0318 -0.1239,0.0589 -0.1758,0.0883 -0.2267,0.1199 -0.276,0.154 -0.3241,0.19 -0.3706,0.2284 -0.4156,0.2688 -0.4591,0.3112 -0.5007,0.3557 -0.5408,0.402 -0.5789,0.4505 -0.6152,0.5005 -0.6496,0.5525 -0.6819,0.6061 -0.7123,0.6615 -0.7405,0.7183 -0.7665,0.7768 -0.7903,0.8367 -0.8119,0.8979 -0.8312,0.9605 -0.848,1.0244 -0.8625,1.0893 -0.8745,1.1555 -0.8841,1.2225 -0.8911,1.2907 -0.8955,1.3596 -0.8973,1.4293 -0.8965,1.4997 -0.0466,1.1375 4.4341,8.0469 0.9865,0.5683 1.7467,0.0433 1.6876,0.0049 1.6277,-0.0308 1.5671,-0.0638 1.5058,-0.0943 1.4439,-0.1221 1.3816,-0.1472 1.319,-0.1697 1.256,-0.1895 1.1928,-0.2067 1.1294,-0.2212 1.0661,-0.2331 1.0029,-0.2422 0.9396,-0.2488 0.8767,-0.2528 0.8141,-0.254 0.7518,-0.2527 0.69,-0.2488 0.6287,-0.2423 0.5682,-0.2333 0.5083,-0.2218 0.4492,-0.2078 0.3911,-0.1914 0.3338,-0.1724 0.2775,-0.1511 0.2225,-0.1275 0.1686,-0.1015 0.116,-0.0733 0.0646,-0.0428 9.1057,-6.4259 12.5494,14.8998 -7.8804,7.8807 -0.0532,0.0564 -0.0919,0.1018 -0.1287,0.1489 -0.1634,0.1976 -0.1962,0.2478 -0.2266,0.2996 -0.255,0.3529 -0.2812,0.4073 -0.305,0.4632 -0.3265,0.5202 -0.3457,0.5785 -0.3625,0.6376 -0.3769,0.6979 -0.3887,0.759 -0.398,0.821 -0.405,0.8837 -0.4092,0.947 -0.4109,1.011 -0.41,1.0754 -0.4065,1.1403 -0.4003,1.2055 -0.3915,1.2709 -0.3799,1.3365 -0.3658,1.4021 -0.3489,1.4679 -0.3293,1.5334 -0.3071,1.5987 -0.282,1.6639 -0.2544,1.7287 0.3923,1.0687 7.176,5.7376 1.1288,0.1475 1.6303,-0.6285 1.5611,-0.6413 1.492,-0.6513 1.4234,-0.6587 1.355,-0.6633 1.2874,-0.6654 1.2201,-0.6647 1.1536,-0.6615 1.0878,-0.6558 1.0229,-0.6474 0.9589,-0.6366 0.8957,-0.6233 0.8338,-0.6076 0.7729,-0.5894 0.7133,-0.569 0.6549,-0.5462 0.5978,-0.5212 0.5423,-0.4939 0.4882,-0.4645 0.4356,-0.433 0.3847,-0.3994 0.3356,-0.3639 0.288,-0.3264 0.2424,-0.2871 0.1986,-0.2458 0.1568,-0.203 0.1169,-0.1583 0.0791,-0.112 0.0433,-0.0643 5.9535,-9.4213 17.296,8.9631 -4.2647,10.2966 -0.0275,0.0724 -0.046,0.1293 -0.0619,0.1867 -0.0754,0.2451 -0.0864,0.3041 -0.0947,0.3635 -0.1006,0.4236 -0.1039,0.4839 -0.1045,0.5446 -0.1026,0.6056 -0.098,0.6667 -0.0909,0.7279 -0.0811,0.7889 -0.0686,0.85 -0.0536,0.9109 -0.036,0.9713 -0.0156,1.0316 0.0072,1.0912 0.0328,1.1505 0.0608,1.209 0.0915,1.2669 0.1247,1.324 0.1604,1.3802 0.1986,1.4354 0.2394,1.4896 0.2825,1.5427 0.3282,1.5946 0.3761,1.6451 0.4266,1.6945 0.7714,0.8372 8.8254,2.5547 1.0994,-0.2957 1.2657,-1.2046 1.1968,-1.1898 1.1292,-1.1727 1.0629,-1.1532 0.9981,-1.1315 0.9347,-1.1073 0.8729,-1.0811 0.8126,-1.0526 0.7541,-1.0221 0.6973,-0.9896 0.6422,-0.9551 0.5891,-0.9187 0.5378,-0.8803 0.4885,-0.8404 0.4412,-0.7986 0.396,-0.7552 0.3529,-0.7103 0.312,-0.6639 0.2733,-0.6159 0.2367,-0.5668 0.2026,-0.5163 0.1707,-0.4645 0.1412,-0.4118 0.1141,-0.358 0.0895,-0.3031 0.0671,-0.2475 0.0475,-0.191 0.0301,-0.1338 0.0155,-0.0759 1.8949,-10.9825 19.4095,1.662 2e-4,11.1447 0.0023,0.0775 0.007,0.137 0.0143,0.1963 0.0241,0.2553 0.0366,0.3139 0.0516,0.3721 0.0691,0.4298 0.0893,0.4869 0.1118,0.5432 0.137,0.5987 0.1645,0.6535 0.1946,0.7072 0.227,0.7599 0.2619,0.8116 0.299,0.862 0.3385,0.9112 0.3803,0.959 0.4243,1.0054 0.4706,1.0504 0.5188,1.0937 0.5694,1.1354 0.6218,1.1755 0.6764,1.2137 0.7328,1.2502 0.7912,1.2846 0.8514,1.3171 0.9134,1.3477 0.9771,1.376 1.0425,1.4022 1.0331,0.4783 9.1313,-1.0171 0.9025,-0.6939 0.7084,-1.5973 0.6504,-1.5572 0.5944,-1.5156 0.5407,-1.4722 0.4892,-1.4273 0.4398,-1.3807 0.3927,-1.3328 0.3479,-1.2835 0.3056,-1.2329 0.2655,-1.1811 0.2278,-1.1282 0.1927,-1.0741 0.16,-1.0192 0.1297,-0.9633 0.102,-0.9067 0.0769,-0.8493 0.0542,-0.7913 0.0342,-0.7327 0.0167,-0.6736 0.0019,-0.6142 -0.0104,-0.5545 -0.0201,-0.4946 -0.0271,-0.4345 -0.0316,-0.3743 -0.0334,-0.3143 -0.0326,-0.2543 -0.0293,-0.1946 -0.0233,-0.1352 -0.0148,-0.0761 -2.4522,-10.8717 18.5681,-5.8922 4.2651,10.2964 0.0318,0.0707 0.0589,0.1239 0.0883,0.1758 0.1199,0.2267 0.154,0.276 0.19,0.3241 0.2284,0.3706 0.2688,0.4156 0.3112,0.4591 0.3557,0.5007 0.402,0.5408 0.4505,0.5789 0.5005,0.6152 0.5525,0.6496 0.6061,0.6819 0.6615,0.7123 0.7183,0.7405 0.7768,0.7665 0.8367,0.7903 0.8979,0.8119 0.9605,0.8312 1.0244,0.848 1.0893,0.8625 1.1555,0.8745 1.2225,0.8841 1.2907,0.8911 1.3596,0.8955 1.4293,0.8973 1.4997,0.8965 1.1375,0.0466 8.0469,-4.4341 0.5683,-0.9865 0.0433,-1.7467 0.0049,-1.6876 -0.0308,-1.6277 -0.0638,-1.5671 -0.0943,-1.5058 -0.1221,-1.4439 -0.1472,-1.3816 -0.1697,-1.319 -0.1895,-1.256 -0.2067,-1.1928 -0.2212,-1.1294 -0.2331,-1.0661 -0.2422,-1.0029 -0.2488,-0.9396 -0.2528,-0.8767 -0.254,-0.8141 -0.2527,-0.7518 -0.2488,-0.69 -0.2423,-0.6287 -0.2333,-0.5682 -0.2218,-0.5083 -0.2078,-0.4492 -0.1914,-0.3911 -0.1724,-0.3338 -0.1511,-0.2775 -0.1275,-0.2225 -0.1015,-0.1686 -0.0733,-0.116 -0.0428,-0.0646 -6.4259,-9.1057 14.8998,-12.5494 7.8807,7.8804 0.0564,0.0532 0.1018,0.0919 0.1489,0.1287 0.1976,0.1634 0.2478,0.1962 0.2996,0.2266 0.3529,0.255 0.4073,0.2812 0.4632,0.305 0.5202,0.3265 0.5785,0.3457 0.6376,0.3625 0.6979,0.3769 0.759,0.3887 0.821,0.398 0.8837,0.405 0.947,0.4092 1.011,0.4109 1.0754,0.41 1.1403,0.4065 1.2055,0.4003 1.2709,0.3915 1.3365,0.3799 1.4021,0.3658 1.4679,0.3489 1.5334,0.3293 1.5987,0.3071 1.6639,0.282 1.7287,0.2544 1.0687,-0.3923 5.7376,-7.176 0.1475,-1.1288 -0.6285,-1.6303 -0.6413,-1.5611 -0.6513,-1.492 -0.6587,-1.4234 -0.6633,-1.355 -0.6654,-1.2874 -0.6647,-1.2201 -0.6615,-1.1536 -0.6558,-1.0878 -0.6474,-1.0229 -0.6366,-0.9589 -0.6233,-0.8957 -0.6076,-0.8338 -0.5894,-0.7729 -0.569,-0.7133 -0.5462,-0.6549 -0.5212,-0.5978 -0.4939,-0.5423 -0.4645,-0.4882 -0.433,-0.4356 -0.3994,-0.3847 -0.3639,-0.3356 -0.3264,-0.288 -0.2871,-0.2424 -0.2458,-0.1986 -0.203,-0.1568 -0.1583,-0.1169 -0.112,-0.0791 -0.0643,-0.0433 -9.4213,-5.9535 8.9631,-17.296 10.2966,4.2647 0.0724,0.0275 0.1293,0.046 0.1867,0.0619 0.2451,0.0754 0.3041,0.0864 0.3635,0.0947 0.4236,0.1006 0.4839,0.1039 0.5446,0.1045 0.6056,0.1026 0.6667,0.098 0.7279,0.0909 0.7889,0.0811 0.85,0.0686 0.9109,0.0536 0.9713,0.036 1.0316,0.0156 1.0912,-0.0072 1.1505,-0.0328 1.209,-0.0608 1.2669,-0.0915 1.324,-0.1247 1.3802,-0.1604 1.4354,-0.1986 1.4896,-0.2394 1.5427,-0.2825 1.5946,-0.3282 1.6451,-0.3761 1.6945,-0.4266 0.8372,-0.7714 2.5547,-8.8254 -0.2957,-1.0994 -1.2046,-1.2657 -1.1898,-1.1968 -1.1727,-1.1292 -1.1532,-1.0629 -1.1315,-0.9981 -1.1073,-0.9347 -1.0811,-0.8729 -1.0526,-0.8126 -1.0221,-0.7541 -0.9896,-0.6973 -0.9551,-0.6422 -0.9187,-0.5891 -0.8803,-0.5378 -0.8404,-0.4885 -0.7986,-0.4412 -0.7552,-0.396 -0.7103,-0.3529 -0.6639,-0.312 -0.6159,-0.2733 -0.5668,-0.2367 -0.5163,-0.2026 -0.4645,-0.1707 -0.4118,-0.1412 -0.358,-0.1141 -0.3031,-0.0895 -0.2475,-0.0671 -0.191,-0.0475 -0.1338,-0.0301 -0.0759,-0.0155 -10.9825,-1.8949 z"
     id="gearpoly1" /><g
     class="guides"
     id="g3836"><polyline
       fill="none"
       stroke="#444"
       stroke-width="0.5"
       stroke-miterlimit="10"
       points="10,0 -10,0"
       id="polyline3838" /><polyline
       fill="none"
       stroke="#444"
       stroke-width="0.5"
       stroke-miterlimit="10"
       points="0,10 0,-10"
       id="polyline3840" /></g><circle
     fill="#c00"
     class="firstmarker"
     stroke="none"
     stroke-miterlimit="10"
     cx="132.5138"
     cy="-14.7603"
     r="6.5417"
     id="circle3842" /><g
     class="geartext"
     id="g3844"><g
       class="text"
       id="g3846"><polyline
         fill="none"
         stroke="#444"
         stroke-width="0.5"
         stroke-linecap="square"
         stroke-miterlimit="1"
         points="-63.59 -59.35 -65.41 -57.34 -67.17 -55.27 -68.86 -53.14 -70.49 -50.96 "
         id="polyline3848" /><polyline
         fill="none"
         stroke="#444"
         stroke-width="0.5"
         stroke-linecap="square"
         stroke-miterlimit="1"
         points="-62.97 -51.81 -71.37 -58.72 "
         id="polyline3850" /><polyline
         fill="none"
         stroke="#444"
         stroke-width="0.5"
         stroke-linecap="square"
         stroke-miterlimit="1"
         points="-67.56 -63.06 -67.46 -59.13 -67.17 -55.27 -66.71 -51.48 -66.09 -47.78 "
         id="polyline3852" /><polyline
         fill="none"
         stroke="#444"
         stroke-width="0.5"
         stroke-linecap="square"
         stroke-miterlimit="1"
         points="-59.61 -55.64 -63.37 -55.55 -67.17 -55.27 -71.02 -54.8 -74.9 -54.15 "
         id="polyline3854" /><polyline
         fill="none"
         stroke="#444"
         stroke-width="0.5"
         stroke-linecap="square"
         stroke-miterlimit="1"
         points="-63.49 -67.16 -63.17 -71.14 -52.34 -58.95 "
         id="polyline3856" /><polyline
         fill="none"
         stroke="#444"
         stroke-width="0.5"
         stroke-linecap="square"
         stroke-miterlimit="1"
         points="-50.47 -60.55 -52.34 -58.95 -54.15 -57.28 "
         id="polyline3858" /><polyline
         fill="none"
         stroke="#444"
         stroke-width="0.5"
         stroke-linecap="square"
         stroke-miterlimit="1"
         points="-32.72 -89.34 -27.11 -74.02 -30.93 -76.92 -34.96 -79.65 -39.18 -82.2 -43.6 -84.56 -36.13 -70.06 "
         id="polyline3860" /><polyline
         fill="none"
         stroke="#444"
         stroke-width="0.5"
         stroke-linecap="square"
         stroke-miterlimit="1"
         points="-14.61 -88.5 -17.37 -88.01 -20.11 -87.42 -22.83 -86.75 -25.53 -85.99 "
         id="polyline3862" /><polyline
         fill="none"
         stroke="#444"
         stroke-width="0.5"
         stroke-linecap="square"
         stroke-miterlimit="1"
         points="-13.72 -83.14 -16.31 -82.67 -18.89 -82.12 -21.45 -81.49 -23.98 -80.78 "
         id="polyline3864" /><polyline
         fill="none"
         stroke="#444"
         stroke-width="0.5"
         stroke-linecap="square"
         stroke-miterlimit="1"
         points="-9.33 -91.95 -6.64 -94.91 -5.5 -78.64 "
         id="polyline3866" /><polyline
         fill="none"
         stroke="#444"
         stroke-width="0.5"
         stroke-linecap="square"
         stroke-miterlimit="1"
         points="-3.04 -78.77 -5.5 -78.64 -7.95 -78.43 "
         id="polyline3868" /><polyline
         fill="none"
         stroke="#444"
         stroke-width="0.5"
         stroke-linecap="square"
         stroke-miterlimit="1"
         points="2.08 -86.96 4.8 -86.85 7.51 -86.66 10.21 -86.38 12.5 -83.33 12.1 -80.65 9.25 -78.28 6.8 -78.54 4.35 -78.71 1.95 -81.52 2.15 -89.68 5.1 -92.28 8.21 -94.78 11.17 -94.48 "
         id="polyline3870" /><polyline
         fill="none"
         stroke="#444"
         stroke-width="0.5"
         stroke-linecap="square"
         stroke-miterlimit="1"
         points="31.27 -81.17 33.79 -80.15 36.27 -79.06 38.73 -77.89 42.43 -79.03 43.71 -81.43 42.36 -85.19 39.68 -86.47 36.95 -87.67 34.2 -88.78 28.33 -73.56 "
         id="polyline3872" /><polyline
         fill="none"
         stroke="#444"
         stroke-width="0.5"
         stroke-linecap="square"
         stroke-miterlimit="1"
         points="41.55 -66.99 47.28 -76.23 "
         id="polyline3874" /><polyline
         fill="none"
         stroke="#444"
         stroke-width="0.5"
         stroke-linecap="square"
         stroke-miterlimit="1"
         points="48.71 -78.54 50.15 -80.85 "
         id="polyline3876" /><polyline
         fill="none"
         stroke="#444"
         stroke-width="0.5"
         stroke-linecap="square"
         stroke-miterlimit="1"
         points="55.15 -60.07 51.47 -59.71 51.29 -63.4 59.84 -73.97 "
         id="polyline3878" /><polyline
         fill="none"
         stroke="#444"
         stroke-width="0.5"
         stroke-linecap="square"
         stroke-miterlimit="1"
         points="60.66 -66.08 58.57 -67.94 56.42 -69.74 54.21 -71.47 51.95 -73.13 "
         id="polyline3880" /><polyline
         fill="none"
         stroke="#444"
         stroke-width="0.5"
         stroke-linecap="square"
         stroke-miterlimit="1"
         points="63.2 -47.12 61.7 -49.07 60.13 -50.97 58.51 -52.83 58.79 -56.51 62.71 -60.28 66.58 -60.11 68.43 -58 70.21 -55.84 71.92 -53.61 "
         id="polyline3882" /><polyline
         fill="none"
         stroke="#444"
         stroke-width="0.5"
         stroke-linecap="square"
         stroke-miterlimit="1"
         points="70.57 -46.05 74.3 -45.23 78.04 -44.23 79.38 -41.77 78.21 -38.08 70.87 -34.51 "
         id="polyline3884" /><polyline
         fill="none"
         stroke="#444"
         stroke-width="0.5"
         stroke-linecap="square"
         stroke-miterlimit="1"
         points="66.02 -43.08 79.68 -51.99 "
         id="polyline3886" /><polyline
         fill="none"
         stroke="#444"
         stroke-width="0.5"
         stroke-linecap="square"
         stroke-miterlimit="1"
         points="76.67 -18.31 77.21 -15.9 77.67 -13.48 78.05 -11.05 81.06 -8.9 91.87 -10.09 94.2 -13.33 93.74 -16.27 93.18 -19.19 92.54 -22.09 "
         id="polyline3888" /><polyline
         fill="none"
         stroke="#444"
         stroke-width="0.5"
         stroke-linecap="square"
         stroke-miterlimit="1"
         points="93.18 -19.19 77.21 -15.9 "
         id="polyline3890" /><polyline
         fill="none"
         stroke="#444"
         stroke-width="0.5"
         stroke-linecap="square"
         stroke-miterlimit="1"
         points="89.43 7 89.6 4.2 89.69 1.4 89.69 -1.4 89.6 -4.2 "
         id="polyline3892" /><polyline
         fill="none"
         stroke="#444"
         stroke-width="0.5"
         stroke-linecap="square"
         stroke-miterlimit="1"
         points="84.01 6.58 84.17 3.95 84.26 1.32 84.26 -1.32 84.17 -3.95 "
         id="polyline3894" /><polyline
         fill="none"
         stroke="#444"
         stroke-width="0.5"
         stroke-linecap="square"
         stroke-miterlimit="1"
         points="76.06 20.69 76.67 18.31 77.21 15.9 77.67 13.48 78.05 11.05 83.43 11.81 85.7 14.88 85.2 17.55 84.61 20.2 86.56 23.55 89.18 24.26 92.54 22.09 93.18 19.19 93.74 16.27 91.51 12.95 "
         id="polyline3896" /><polyline
         fill="none"
         stroke="#444"
         stroke-width="0.5"
         stroke-linecap="square"
         stroke-miterlimit="1"
         points="77.2 26.28 74.62 25.4 "
         id="polyline3898" /><polyline
         fill="none"
         stroke="#444"
         stroke-width="0.5"
         stroke-linecap="square"
         stroke-miterlimit="1"
         points="80.43 33.12 79.36 35.62 78.21 38.08 76.98 40.5 73.31 41.55 70.95 40.21 69.76 36.71 70.87 34.51 71.92 32.28 75.4 31.05 82.95 34.16 84.32 37.84 85.54 41.65 84.19 44.3 "
         id="polyline3900" /><polyline
         fill="none"
         stroke="#444"
         stroke-width="0.5"
         stroke-linecap="square"
         stroke-miterlimit="1"
         points="79.68 51.99 78.01 54.45 76.27 56.86 74.46 59.22 72.57 61.52 68.08 54.14 63.2 47.12 "
         id="polyline3902" /><polyline
         fill="none"
         stroke="#444"
         stroke-width="0.5"
         stroke-linecap="square"
         stroke-miterlimit="1"
         points="52.57 69.3 50.38 70.91 48.14 72.45 45.85 73.92 44.88 77.67 46.24 80.02 50.15 80.85 52.65 79.24 55.1 77.56 57.5 75.8 47.64 62.81 "
         id="polyline3904" /><polyline
         fill="none"
         stroke="#444"
         stroke-width="0.5"
         stroke-linecap="square"
         stroke-miterlimit="1"
         points="29.61 84.67 32.24 83.71 34.84 82.66 37.41 81.53 39.94 80.32 "
         id="polyline3906" /><polyline
         fill="none"
         stroke="#444"
         stroke-width="0.5"
         stroke-linecap="square"
         stroke-miterlimit="1"
         points="27.82 79.54 30.29 78.63 32.73 77.65 35.14 76.59 37.52 75.45 "
         id="polyline3908" /><polyline
         fill="none"
         stroke="#444"
         stroke-width="0.5"
         stroke-linecap="square"
         stroke-miterlimit="1"
         points="23.53 83.74 20.9 84.44 18.25 85.05 15.59 85.58 12.5 83.33 12.1 80.65 14.13 77.55 16.54 77.07 18.94 76.52 22.06 78.51 24.27 86.36 22.21 89.71 19.96 93.02 17.05 93.6 "
         id="polyline3910" /><polyline
         fill="none"
         stroke="#444"
         stroke-width="0.5"
         stroke-linecap="square"
         stroke-miterlimit="1"
         points="-6.07 86.77 -8.78 86.54 -11.48 86.22 -14.17 85.82 -17.37 88.01 -17.89 90.67 -15.49 93.87 -12.55 94.31 -9.6 94.65 -6.64 94.91 -5.5 78.64 "
         id="polyline3912" /><polyline
         fill="none"
         stroke="#444"
         stroke-width="0.5"
         stroke-linecap="square"
         stroke-miterlimit="1"
         points="-20.06 76.23 -21.45 81.49 -25.53 85.99 -29.91 90.31 -30.85 84.23 -31.44 78.18 -29.41 73.14 "
         id="polyline3914" /><polyline
         fill="none"
         stroke="#444"
         stroke-width="0.5"
         stroke-linecap="square"
         stroke-miterlimit="1"
         points="-21.45 81.49 -23.98 80.78 -26.49 79.99 -28.98 79.13 -31.44 78.18 "
         id="polyline3916" /><polyline
         fill="none"
         stroke="#444"
         stroke-width="0.5"
         stroke-linecap="square"
         stroke-miterlimit="1"
         points="-48.39 75.53 -46.01 77 -43.58 78.4 -41.11 79.73 -38.6 80.97 "
         id="polyline3918" /><polyline
         fill="none"
         stroke="#444"
         stroke-width="0.5"
         stroke-linecap="square"
         stroke-miterlimit="1"
         points="-45.46 70.95 -43.22 72.34 -40.94 73.65 -38.62 74.9 -36.26 76.07 "
         id="polyline3920" /><polyline
         fill="none"
         stroke="#444"
         stroke-width="0.5"
         stroke-linecap="square"
         stroke-miterlimit="1"
         points="-54.15 57.28 -52.34 58.95 -50.47 60.55 -48.55 62.1 -46.59 63.59 -49.8 67.97 -53.58 68.53 -55.69 66.82 -57.75 65.05 -61.62 65.18 -63.49 67.16 -63.17 71.14 -60.91 73.08 -58.6 74.95 -54.62 74.55 "
         id="polyline3922" /><polyline
         fill="none"
         stroke="#444"
         stroke-width="0.5"
         stroke-linecap="square"
         stroke-miterlimit="1"
         points="-64.56 49.82 -60.87 50.08 -59.28 51.96 -59.61 55.64 -67.56 63.06 -71.54 62.71 -73.47 60.45 -73.17 56.46 -64.56 49.82 "
         id="polyline3924" /></g></g><path
     style="opacity:0.2;fill:none;stroke:#ff0000;stroke-miterlimit:10"
     d="M 133.33,0 C 133.33,73.636127 73.636127,133.33 0,133.33 -73.636127,133.33 -133.33,73.636127 -133.33,0 c 0,-73.636127 59.693873,-133.33 133.33,-133.33 73.636127,0 133.33,59.693873 133.33,133.33 z"
     id="circle3928" /><circle
     style="opacity:0.2;fill:none;stroke:#cccccc;stroke-miterlimit:10;stroke-dasharray:2, 2"
     sodipodi:ry="150"
     sodipodi:rx="150"
     sodipodi:cy="0"
     sodipodi:cx="0"
     id="circle3930"
     r="150"
     cy="0"
     cx="0"
     stroke-miterlimit="10"
     class="outer" /><circle
     style="opacity:0.2;fill:none;stroke:#0000ff;stroke-miterlimit:10;stroke-dasharray:2, 2"
     sodipodi:ry="125.29"
     sodipodi:rx="125.29"
     sodipodi:cy="0"
     sodipodi:cx="0"
     id="circle3932"
     r="125.29"
     cy="0"
     cx="0"
     stroke-miterlimit="10"
     class="base" /></svg>