<?xml version="1.0" encoding="UTF-8" standalone="no"?>
<!-- Generator: Iparigrafika Gear Generator by Abel Vincze http://geargenerator.com/ -->

<svg
   xmlns:dc="http://purl.org/dc/elements/1.1/"
   xmlns:cc="http://creativecommons.org/ns#"
   xmlns:rdf="http://www.w3.org/1999/02/22-rdf-syntax-ns#"
   xmlns:svg="http://www.w3.org/2000/svg"
   xmlns="http://www.w3.org/2000/svg"
   xmlns:sodipodi="http://sodipodi.sourceforge.net/DTD/sodipodi-0.dtd"
   xmlns:inkscape="http://www.inkscape.org/namespaces/inkscape"
   version="1.2"
   class="svggear"
   x="0px"
   y="0px"
   width="368px"
   height="368px"
   viewBox="-184 -184 368 368"
   overflow="scroll"
   xml:space="preserve"
   id="svg2"
   inkscape:version="0.48.4 r9939"
   sodipodi:docname="20.svg"><metadata
     id="metadata111"><rdf:RDF><cc:Work
         rdf:about=""><dc:format>image/svg+xml</dc:format><dc:type
           rdf:resource="http://purl.org/dc/dcmitype/StillImage" /></cc:Work></rdf:RDF></metadata><defs
     id="defs109" /><sodipodi:namedview
     pagecolor="#ffffff"
     bordercolor="#666666"
     borderopacity="1"
     objecttolerance="10"
     gridtolerance="10"
     guidetolerance="10"
     inkscape:pageopacity="0"
     inkscape:pageshadow="2"
     inkscape:window-width="1920"
     inkscape:window-height="1014"
     id="namedview107"
     showgrid="false"
     inkscape:zoom="1.2826087"
     inkscape:cx="535.47991"
     inkscape:cy="165.14024"
     inkscape:window-x="1600"
     inkscape:window-y="27"
     inkscape:window-maximized="1"
     inkscape:current-layer="svg2" /><path
     style="fill:#dddddd;stroke:#444444;stroke-width:1;stroke-miterlimit:10"
     d="m 147.5,0 9.1393,-3e-4 0.0715,-0.0019 0.1192,-0.0053 0.1666,-0.0103 0.214,-0.0169 0.2612,-0.0252 0.3081,-0.0352 0.3548,-0.0467 0.401,-0.06 0.447,-0.0749 0.4925,-0.0914 0.5376,-0.1094 0.5822,-0.1291 0.6262,-0.1505 0.6697,-0.1732 0.7126,-0.1977 0.7547,-0.2236 0.7962,-0.2512 0.837,-0.2801 0.8769,-0.3106 0.916,-0.3426 0.9544,-0.3759 0.9916,-0.4109 1.0281,-0.4471 1.0636,-0.4848 1.098,-0.5237 1.1314,-0.5642 1.1636,-0.6059 1.1949,-0.6488 1.2249,-0.6931 1.2537,-0.7385 1.2813,-0.7853 1.3076,-0.8331 1.3327,-0.8822 1.1653,-0.9203 -0.9832,-10.6851 -1.3138,-0.6922 -1.4713,-0.6242 -1.4377,-0.5805 -1.4031,-0.5382 -1.3674,-0.4974 -1.3308,-0.4579 -1.2932,-0.4198 -1.2547,-0.3834 -1.2153,-0.3482 -1.1752,-0.3146 -1.1341,-0.2825 -1.0925,-0.252 -1.05,-0.2229 -1.0069,-0.1956 -0.9631,-0.1696 -0.9189,-0.1454 -0.874,-0.1226 -0.8287,-0.1016 -0.7829,-0.0822 -0.7366,-0.0643 -0.6901,-0.0481 -0.6432,-0.0336 -0.596,-0.0207 -0.5485,-0.0095 -0.5009,0 -0.4532,0.008 -0.4052,0.0142 -0.3574,0.0187 -0.3093,0.0217 -0.2614,0.0228 -0.2135,0.0225 -0.1657,0.0203 -0.1181,0.0166 -0.0707,0.0111 -8.9859,1.6676 -4.7421,-18.6615 8.6919,-2.8245 0.0675,-0.0239 0.1117,-0.0419 0.1553,-0.0612 0.1983,-0.0822 0.2406,-0.1047 0.2821,-0.1287 0.323,-0.1541 0.3628,-0.181 0.402,-0.2093 0.4402,-0.2391 0.4775,-0.2702 0.5138,-0.3027 0.5491,-0.3366 0.5834,-0.3718 0.6165,-0.4082 0.6487,-0.4459 0.6797,-0.4848 0.7094,-0.5251 0.738,-0.5664 0.7654,-0.6088 0.7914,-0.6525 0.8162,-0.6972 0.8396,-0.7429 0.8617,-0.7897 0.8824,-0.8375 0.9016,-0.8861 0.9195,-0.9358 0.9359,-0.9863 0.9508,-1.0377 0.9641,-1.0898 0.9759,-1.1428 0.9862,-1.1964 0.9948,-1.2508 0.824,-1.2355 -4.2371,-9.8582 -1.4633,-0.2524 -1.5922,-0.1389 -1.5467,-0.1078 -1.5007,-0.0783 -1.4542,-0.0505 -1.4072,-0.0243 -1.3596,3e-4 -1.3118,0.0232 -1.2634,0.0444 -1.2149,0.0639 -1.166,0.0818 -1.1168,0.0979 -1.0675,0.1125 -1.018,0.1252 -0.9685,0.1363 -0.9188,0.1457 -0.8691,0.1534 -0.8195,0.1594 -0.77,0.1638 -0.7205,0.1665 -0.6711,0.1675 -0.6221,0.1668 -0.5732,0.1644 -0.5247,0.1605 -0.4764,0.1549 -0.4285,0.1476 -0.381,0.1387 -0.334,0.1282 -0.2875,0.1162 -0.2416,0.1025 -0.1961,0.0873 -0.1513,0.0706 -0.1073,0.0522 -0.0637,0.0325 -8.0308,4.3628 -10.2767,-16.2828 7.3937,-5.3722 0.0567,-0.0436 0.0933,-0.0743 0.1288,-0.1063 0.1632,-0.1394 0.1965,-0.174 0.2286,-0.2095 0.2595,-0.2464 0.2891,-0.2842 0.3177,-0.3233 0.3447,-0.3634 0.3706,-0.4046 0.3951,-0.4467 0.4182,-0.4898 0.44,-0.5338 0.4603,-0.5787 0.4791,-0.6246 0.4966,-0.6711 0.5124,-0.7186 0.5269,-0.7667 0.5397,-0.8156 0.5511,-0.8651 0.5608,-0.9153 0.5689,-0.966 0.5755,-1.0173 0.5804,-1.0692 0.5837,-1.1214 0.5854,-1.1741 0.5852,-1.2273 0.5836,-1.2806 0.5801,-1.3344 0.5751,-1.3885 0.5682,-1.4426 0.5596,-1.497 0.4018,-1.4296 -7.076,-8.0664 -1.4697,0.2122 -1.5572,0.3598 -1.5043,0.3755 -1.4515,0.3892 -1.3986,0.4014 -1.3458,0.4118 -1.293,0.4204 -1.2404,0.4274 -1.1879,0.4327 -1.1356,0.4362 -1.0836,0.438 -1.032,0.4383 -0.9805,0.4368 -0.9295,0.4337 -0.8789,0.4289 -0.8288,0.4225 -0.7792,0.4145 -0.7302,0.4049 -0.6816,0.3937 -0.6338,0.3809 -0.5866,0.3667 -0.54,0.3509 -0.4944,0.3335 -0.4493,0.3147 -0.4053,0.2945 -0.3619,0.2728 -0.3195,0.2497 -0.2781,0.2252 -0.2375,0.1993 -0.198,0.1722 -0.1596,0.1436 -0.1221,0.1139 -0.0858,0.0828 -0.0507,0.0506 -6.2895,6.6309 -14.8054,-12.3102 5.3717,-7.394 0.0405,-0.059 0.0658,-0.0995 0.0896,-0.1409 0.1122,-0.1831 0.1331,-0.2261 0.1526,-0.2699 0.1707,-0.3145 0.1872,-0.3597 0.2021,-0.4056 0.2156,-0.4522 0.2275,-0.4993 0.2377,-0.5469 0.2464,-0.595 0.2535,-0.6437 0.2589,-0.6926 0.2627,-0.7421 0.2648,-0.7917 0.2653,-0.8418 0.2642,-0.892 0.2613,-0.9424 0.2567,-0.9931 0.2505,-1.0437 0.2426,-1.0946 0.233,-1.1454 0.2216,-1.1961 0.2086,-1.247 0.1938,-1.2975 0.1774,-1.348 0.1593,-1.3984 0.1394,-1.4483 0.1178,-1.4982 0.0946,-1.5476 0.0697,-1.5967 -0.0596,-1.4837 -9.2224,-5.4851 -1.3322,0.656 -1.3697,0.8234 -1.3147,0.8219 -1.2602,0.8188 -1.2061,0.8139 -1.1527,0.8075 -1.0998,0.7994 -1.0476,0.7898 -0.9961,0.7786 -0.9452,0.7657 -0.8953,0.7515 -0.8459,0.7357 -0.7976,0.7184 -0.75,0.6997 -0.7034,0.6795 -0.6577,0.658 -0.6129,0.635 -0.5693,0.6107 -0.5266,0.585 -0.4851,0.5582 -0.4445,0.53 -0.4052,0.5006 -0.3671,0.47 -0.3301,0.4382 -0.2944,0.4053 -0.2599,0.3712 -0.2268,0.3362 -0.1948,0.3001 -0.1643,0.263 -0.1352,0.2249 -0.1073,0.1859 -0.081,0.1461 -0.056,0.1053 -0.0326,0.0637 -3.9326,8.2499 -17.8848,-7.1325 2.8239,-8.6921 0.0203,-0.0686 0.0318,-0.115 0.0417,-0.1617 0.0501,-0.2087 0.0567,-0.2562 0.0618,-0.3039 0.0651,-0.3518 0.0669,-0.4 0.0669,-0.4482 0.0653,-0.4967 0.062,-0.5451 0.0571,-0.5936 0.0505,-0.6421 0.0422,-0.6904 0.0321,-0.7388 0.0206,-0.7869 0.0072,-0.8348 -0.0078,-0.8826 -0.0244,-0.93 -0.0427,-0.977 -0.0627,-1.0238 -0.0843,-1.0701 -0.1075,-1.116 -0.1324,-1.1613 -0.1589,-1.2061 -0.1869,-1.2503 -0.2166,-1.294 -0.2479,-1.3368 -0.2806,-1.3791 -0.315,-1.4206 -0.3509,-1.4612 -0.3883,-1.5011 -0.4271,-1.5401 -0.5152,-1.3927 -10.466,-2.3667 -1.0643,1.0355 -1.0482,1.2064 -0.9964,1.188 -0.9455,1.1681 -0.8955,1.1468 -0.8468,1.1241 -0.7989,1.1002 -0.7523,1.0748 -0.7067,1.0483 -0.6624,1.0204 -0.6192,0.9913 -0.5772,0.9612 -0.5365,0.9297 -0.4971,0.8972 -0.459,0.8636 -0.4221,0.8289 -0.3868,0.7934 -0.3527,0.7567 -0.32,0.7192 -0.2888,0.6807 -0.2591,0.6414 -0.2307,0.6013 -0.2039,0.5604 -0.1785,0.5188 -0.1547,0.4764 -0.1325,0.4335 -0.1117,0.3898 -0.0926,0.3456 -0.075,0.3009 -0.059,0.2557 -0.0447,0.2099 -0.0319,0.1639 -0.0207,0.1175 -0.0113,0.0707 -1.1907,9.0613 L 0,-147.5 l -3e-4,-9.1393 -0.0019,-0.0715 -0.0053,-0.1192 -0.0103,-0.1666 -0.0169,-0.214 -0.0252,-0.2612 -0.0352,-0.3081 -0.0467,-0.3548 -0.06,-0.401 -0.0749,-0.447 -0.0914,-0.4925 -0.1094,-0.5376 -0.1291,-0.5822 -0.1505,-0.6262 -0.1732,-0.6697 -0.1977,-0.7126 -0.2236,-0.7547 -0.2512,-0.7962 -0.2801,-0.837 -0.3106,-0.8769 -0.3426,-0.916 -0.3759,-0.9544 -0.4109,-0.9916 -0.4471,-1.0281 -0.4848,-1.0636 -0.5237,-1.098 -0.5642,-1.1314 -0.6059,-1.1636 -0.6488,-1.1949 -0.6931,-1.2249 -0.7385,-1.2537 -0.7853,-1.2813 -0.8331,-1.3076 -0.8822,-1.3327 -0.9203,-1.1653 -10.6851,0.9832 -0.6922,1.3138 -0.6242,1.4713 -0.5805,1.4377 -0.5382,1.4031 -0.4974,1.3674 -0.4579,1.3308 -0.4198,1.2932 -0.3834,1.2547 -0.3482,1.2153 -0.3146,1.1752 -0.2825,1.1341 -0.252,1.0925 -0.2229,1.05 -0.1956,1.0069 -0.1696,0.9631 -0.1454,0.9189 -0.1226,0.874 -0.1016,0.8287 -0.0822,0.7829 -0.0643,0.7366 -0.0481,0.6901 -0.0336,0.6432 -0.0207,0.596 -0.0095,0.5485 0,0.5009 0.008,0.4532 0.0142,0.4052 0.0187,0.3574 0.0217,0.3093 0.0228,0.2614 0.0225,0.2135 0.0203,0.1657 0.0166,0.1181 0.0111,0.0707 1.6676,8.9859 -18.6615,4.7421 -2.8245,-8.6919 -0.0239,-0.0675 -0.0419,-0.1117 -0.0612,-0.1553 -0.0822,-0.1983 -0.1047,-0.2406 -0.1287,-0.2821 -0.1541,-0.323 -0.181,-0.3628 -0.2093,-0.402 -0.2391,-0.4402 -0.2702,-0.4775 -0.3027,-0.5138 -0.3366,-0.5491 -0.3718,-0.5834 -0.4082,-0.6165 -0.4459,-0.6487 -0.4848,-0.6797 -0.5251,-0.7094 -0.5664,-0.738 -0.6088,-0.7654 -0.6525,-0.7914 -0.6972,-0.8162 -0.7429,-0.8396 -0.7897,-0.8617 -0.8375,-0.8824 -0.8861,-0.9016 -0.9358,-0.9195 -0.9863,-0.9359 -1.0377,-0.9508 -1.0898,-0.9641 -1.1428,-0.9759 -1.1964,-0.9862 -1.2508,-0.9948 -1.2355,-0.824 -9.8582,4.2371 -0.2524,1.4633 -0.1389,1.5922 -0.1078,1.5467 -0.0783,1.5007 -0.0505,1.4542 -0.0243,1.4072 3e-4,1.3596 0.0232,1.3118 0.0444,1.2634 0.0639,1.2149 0.0818,1.166 0.0979,1.1168 0.1125,1.0675 0.1252,1.018 0.1363,0.9685 0.1457,0.9188 0.1534,0.8691 0.1594,0.8195 0.1638,0.77 0.1665,0.7205 0.1675,0.6711 0.1668,0.6221 0.1644,0.5732 0.1605,0.5247 0.1549,0.4764 0.1476,0.4285 0.1387,0.381 0.1282,0.334 0.1162,0.2875 0.1025,0.2416 0.0873,0.1961 0.0706,0.1513 0.0522,0.1073 0.0325,0.0637 4.3628,8.0308 -16.2828,10.2767 -5.3722,-7.3937 -0.0436,-0.0567 -0.0743,-0.0933 -0.1063,-0.1288 -0.1394,-0.1632 -0.174,-0.1965 -0.2095,-0.2286 -0.2464,-0.2595 -0.2842,-0.2891 -0.3233,-0.3177 -0.3634,-0.3447 -0.4046,-0.3706 -0.4467,-0.3951 -0.4898,-0.4182 -0.5338,-0.44 -0.5787,-0.4603 -0.6246,-0.4791 -0.6711,-0.4966 -0.7186,-0.5124 -0.7667,-0.5269 -0.8156,-0.5397 -0.8651,-0.5511 -0.9153,-0.5608 -0.966,-0.5689 -1.0173,-0.5755 -1.0692,-0.5804 -1.1214,-0.5837 -1.1741,-0.5854 -1.2273,-0.5852 -1.2806,-0.5836 -1.3344,-0.5801 -1.3885,-0.5751 -1.4426,-0.5682 -1.497,-0.5596 -1.4296,-0.4018 -8.0664,7.076 0.2122,1.4697 0.3598,1.5572 0.3755,1.5043 0.3892,1.4515 0.4014,1.3986 0.4118,1.3458 0.4204,1.293 0.4274,1.2404 0.4327,1.1879 0.4362,1.1356 0.438,1.0836 0.4383,1.032 0.4368,0.9805 0.4337,0.9295 0.4289,0.8789 0.4225,0.8288 0.4145,0.7792 0.4049,0.7302 0.3937,0.6816 0.3809,0.6338 0.3667,0.5866 0.3509,0.54 0.3335,0.4944 0.3147,0.4493 0.2945,0.4053 0.2728,0.3619 0.2497,0.3195 0.2252,0.2781 0.1993,0.2375 0.1722,0.198 0.1436,0.1596 0.1139,0.1221 0.0828,0.0858 0.0506,0.0507 6.6309,6.2895 -12.3102,14.8054 -7.394,-5.3717 -0.059,-0.0405 -0.0995,-0.0658 -0.1409,-0.0896 -0.1831,-0.1122 -0.2261,-0.1331 -0.2699,-0.1526 -0.3145,-0.1707 -0.3597,-0.1872 -0.4056,-0.2021 -0.4522,-0.2156 -0.4993,-0.2275 -0.5469,-0.2377 -0.595,-0.2464 -0.6437,-0.2535 -0.6926,-0.2589 -0.7421,-0.2627 -0.7917,-0.2648 -0.8418,-0.2653 -0.892,-0.2642 -0.9424,-0.2613 -0.9931,-0.2567 -1.0437,-0.2505 -1.0946,-0.2426 -1.1454,-0.233 -1.1961,-0.2216 -1.247,-0.2086 -1.2975,-0.1938 -1.348,-0.1774 -1.3984,-0.1593 -1.4483,-0.1394 -1.4982,-0.1178 -1.5476,-0.0946 -1.5967,-0.0697 -1.4837,0.0596 -5.4851,9.2224 0.656,1.3322 0.8234,1.3697 0.8219,1.3147 0.8188,1.2602 0.8139,1.2061 0.8075,1.1527 0.7994,1.0998 0.7898,1.0476 0.7786,0.9961 0.7657,0.9452 0.7515,0.8953 0.7357,0.8459 0.7184,0.7976 0.6997,0.75 0.6795,0.7034 0.658,0.6577 0.635,0.6129 0.6107,0.5693 0.585,0.5266 0.5582,0.4851 0.53,0.4445 0.5006,0.4052 0.47,0.3671 0.4382,0.3301 0.4053,0.2944 0.3712,0.2599 0.3362,0.2268 0.3001,0.1948 0.263,0.1643 0.2249,0.1352 0.1859,0.1073 0.1461,0.081 0.1053,0.056 0.0637,0.0326 8.2499,3.9326 -7.1325,17.8848 -8.6921,-2.8239 -0.0686,-0.0203 -0.115,-0.0318 -0.1617,-0.0417 -0.2087,-0.0501 -0.2562,-0.0567 -0.3039,-0.0618 -0.3518,-0.0651 -0.4,-0.0669 -0.4482,-0.0669 -0.4967,-0.0653 -0.5451,-0.062 -0.5936,-0.0571 -0.6421,-0.0505 -0.6904,-0.0422 -0.7388,-0.0321 -0.7869,-0.0206 -0.8348,-0.0072 -0.8826,0.0078 -0.93,0.0244 -0.977,0.0427 -1.0238,0.0627 -1.0701,0.0843 -1.116,0.1075 -1.1613,0.1324 -1.2061,0.1589 -1.2503,0.1869 -1.294,0.2166 -1.3368,0.2479 -1.3791,0.2806 -1.4206,0.315 -1.4612,0.3509 -1.5011,0.3883 -1.5401,0.4271 -1.3927,0.5152 -2.3667,10.466 1.0355,1.0643 1.2064,1.0482 1.188,0.9964 1.1681,0.9455 1.1468,0.8955 1.1241,0.8468 1.1002,0.7989 1.0748,0.7523 1.0483,0.7067 1.0204,0.6624 0.9913,0.6192 0.9612,0.5772 0.9297,0.5365 0.8972,0.4971 0.8636,0.459 0.8289,0.4221 0.7934,0.3868 0.7567,0.3527 0.7192,0.32 0.6807,0.2888 0.6414,0.2591 0.6013,0.2307 0.5604,0.2039 0.5188,0.1785 0.4764,0.1547 0.4335,0.1325 0.3898,0.1117 0.3456,0.0926 0.3009,0.075 0.2557,0.059 0.2099,0.0447 0.1639,0.0319 0.1175,0.0207 0.0707,0.0113 9.0613,1.1907 L -147.5,0 l -9.1393,3e-4 -0.0715,0.0019 -0.1192,0.0053 -0.1666,0.0103 -0.214,0.0169 -0.2612,0.0252 -0.3081,0.0352 -0.3548,0.0467 -0.401,0.06 -0.447,0.0749 -0.4925,0.0914 -0.5376,0.1094 -0.5822,0.1291 -0.6262,0.1505 -0.6697,0.1732 -0.7126,0.1977 -0.7547,0.2236 -0.7962,0.2512 -0.837,0.2801 -0.8769,0.3106 -0.916,0.3426 -0.9544,0.3759 -0.9916,0.4109 -1.0281,0.4471 -1.0636,0.4848 -1.098,0.5237 -1.1314,0.5642 -1.1636,0.6059 -1.1949,0.6488 -1.2249,0.6931 -1.2537,0.7385 -1.2813,0.7853 -1.3076,0.8331 -1.3327,0.8822 -1.1653,0.9203 0.9832,10.6851 1.3138,0.6922 1.4713,0.6242 1.4377,0.5805 1.4031,0.5382 1.3674,0.4974 1.3308,0.4579 1.2932,0.4198 1.2547,0.3834 1.2153,0.3482 1.1752,0.3146 1.1341,0.2825 1.0925,0.252 1.05,0.2229 1.0069,0.1956 0.9631,0.1696 0.9189,0.1454 0.874,0.1226 0.8287,0.1016 0.7829,0.0822 0.7366,0.0643 0.6901,0.0481 0.6432,0.0336 0.596,0.0207 0.5485,0.0095 0.5009,0 0.4532,-0.008 0.4052,-0.0142 0.3574,-0.0187 0.3093,-0.0217 0.2614,-0.0228 0.2135,-0.0225 0.1657,-0.0203 0.1181,-0.0166 0.0707,-0.0111 8.9859,-1.6676 4.7421,18.6615 -8.6919,2.8245 -0.0675,0.0239 -0.1117,0.0419 -0.1553,0.0612 -0.1983,0.0822 -0.2406,0.1047 -0.2821,0.1287 -0.323,0.1541 -0.3628,0.181 -0.402,0.2093 -0.4402,0.2391 -0.4775,0.2702 -0.5138,0.3027 -0.5491,0.3366 -0.5834,0.3718 -0.6165,0.4082 -0.6487,0.4459 -0.6797,0.4848 -0.7094,0.5251 -0.738,0.5664 -0.7654,0.6088 -0.7914,0.6525 -0.8162,0.6972 -0.8396,0.7429 -0.8617,0.7897 -0.8824,0.8375 -0.9016,0.8861 -0.9195,0.9358 -0.9359,0.9863 -0.9508,1.0377 -0.9641,1.0898 -0.9759,1.1428 -0.9862,1.1964 -0.9948,1.2508 -0.824,1.2355 4.2371,9.8582 1.4633,0.2524 1.5922,0.1389 1.5467,0.1078 1.5007,0.0783 1.4542,0.0505 1.4072,0.0243 1.3596,-3e-4 1.3118,-0.0232 1.2634,-0.0444 1.2149,-0.0639 1.166,-0.0818 1.1168,-0.0979 1.0675,-0.1125 1.018,-0.1252 0.9685,-0.1363 0.9188,-0.1457 0.8691,-0.1534 0.8195,-0.1594 0.77,-0.1638 0.7205,-0.1665 0.6711,-0.1675 0.6221,-0.1668 0.5732,-0.1644 0.5247,-0.1605 0.4764,-0.1549 0.4285,-0.1476 0.381,-0.1387 0.334,-0.1282 0.2875,-0.1162 0.2416,-0.1025 0.1961,-0.0873 0.1513,-0.0706 0.1073,-0.0522 0.0637,-0.0325 8.0308,-4.3628 10.2767,16.2828 -7.3937,5.3722 -0.0567,0.0436 -0.0933,0.0743 -0.1288,0.1063 -0.1632,0.1394 -0.1965,0.174 -0.2286,0.2095 -0.2595,0.2464 -0.2891,0.2842 -0.3177,0.3233 -0.3447,0.3634 -0.3706,0.4046 -0.3951,0.4467 -0.4182,0.4898 -0.44,0.5338 -0.4603,0.5787 -0.4791,0.6246 -0.4966,0.6711 -0.5124,0.7186 -0.5269,0.7667 -0.5397,0.8156 -0.5511,0.8651 -0.5608,0.9153 -0.5689,0.966 -0.5755,1.0173 -0.5804,1.0692 -0.5837,1.1214 -0.5854,1.1741 -0.5852,1.2273 -0.5836,1.2806 -0.5801,1.3344 -0.5751,1.3885 -0.5682,1.4426 -0.5596,1.497 -0.4018,1.4296 7.076,8.0664 1.4697,-0.2122 1.5572,-0.3598 1.5043,-0.3755 1.4515,-0.3892 1.3986,-0.4014 1.3458,-0.4118 1.293,-0.4204 1.2404,-0.4274 1.1879,-0.4327 1.1356,-0.4362 1.0836,-0.438 1.032,-0.4383 0.9805,-0.4368 0.9295,-0.4337 0.8789,-0.4289 0.8288,-0.4225 0.7792,-0.4145 0.7302,-0.4049 0.6816,-0.3937 0.6338,-0.3809 0.5866,-0.3667 0.54,-0.3509 0.4944,-0.3335 0.4493,-0.3147 0.4053,-0.2945 0.3619,-0.2728 0.3195,-0.2497 0.2781,-0.2252 0.2375,-0.1993 0.198,-0.1722 0.1596,-0.1436 0.1221,-0.1139 0.0858,-0.0828 0.0507,-0.0506 6.2895,-6.6309 14.8054,12.3102 -5.3717,7.394 -0.0405,0.059 -0.0658,0.0995 -0.0896,0.1409 -0.1122,0.1831 -0.1331,0.2261 -0.1526,0.2699 -0.1707,0.3145 -0.1872,0.3597 -0.2021,0.4056 -0.2156,0.4522 -0.2275,0.4993 -0.2377,0.5469 -0.2464,0.595 -0.2535,0.6437 -0.2589,0.6926 -0.2627,0.7421 -0.2648,0.7917 -0.2653,0.8418 -0.2642,0.892 -0.2613,0.9424 -0.2567,0.9931 -0.2505,1.0437 -0.2426,1.0946 -0.233,1.1454 -0.2216,1.1961 -0.2086,1.247 -0.1938,1.2975 -0.1774,1.348 -0.1593,1.3984 -0.1394,1.4483 -0.1178,1.4982 -0.0946,1.5476 -0.0697,1.5967 0.0596,1.4837 9.2224,5.4851 1.3322,-0.656 1.3697,-0.8234 1.3147,-0.8219 1.2602,-0.8188 1.2061,-0.8139 1.1527,-0.8075 1.0998,-0.7994 1.0476,-0.7898 0.9961,-0.7786 0.9452,-0.7657 0.8953,-0.7515 0.8459,-0.7357 0.7976,-0.7184 0.75,-0.6997 0.7034,-0.6795 0.6577,-0.658 0.6129,-0.635 0.5693,-0.6107 0.5266,-0.585 0.4851,-0.5582 0.4445,-0.53 0.4052,-0.5006 0.3671,-0.47 0.3301,-0.4382 0.2944,-0.4053 0.2599,-0.3712 0.2268,-0.3362 0.1948,-0.3001 0.1643,-0.263 0.1352,-0.2249 0.1073,-0.1859 0.081,-0.1461 0.056,-0.1053 0.0326,-0.0637 3.9326,-8.2499 17.8848,7.1325 -2.8239,8.6921 -0.0203,0.0686 -0.0318,0.115 -0.0417,0.1617 -0.0501,0.2087 -0.0567,0.2562 -0.0618,0.3039 -0.0651,0.3518 -0.0669,0.4 -0.0669,0.4482 -0.0653,0.4967 -0.062,0.5451 -0.0571,0.5936 -0.0505,0.6421 -0.0422,0.6904 -0.0321,0.7388 -0.0206,0.7869 -0.0072,0.8348 0.0078,0.8826 0.0244,0.93 0.0427,0.977 0.0627,1.0238 0.0843,1.0701 0.1075,1.116 0.1324,1.1613 0.1589,1.2061 0.1869,1.2503 0.2166,1.294 0.2479,1.3368 0.2806,1.3791 0.315,1.4206 0.3509,1.4612 0.3883,1.5011 0.4271,1.5401 0.5152,1.3927 10.466,2.3667 1.0643,-1.0355 1.0482,-1.2064 0.9964,-1.188 0.9455,-1.1681 0.8955,-1.1468 0.8468,-1.1241 0.7989,-1.1002 0.7523,-1.0748 0.7067,-1.0483 0.6624,-1.0204 0.6192,-0.9913 0.5772,-0.9612 0.5365,-0.9297 0.4971,-0.8972 0.459,-0.8636 0.4221,-0.8289 0.3868,-0.7934 0.3527,-0.7567 0.32,-0.7192 0.2888,-0.6807 0.2591,-0.6414 0.2307,-0.6013 0.2039,-0.5604 0.1785,-0.5188 0.1547,-0.4764 0.1325,-0.4335 0.1117,-0.3898 0.0926,-0.3456 0.075,-0.3009 0.059,-0.2557 0.0447,-0.2099 0.0319,-0.1639 0.0207,-0.1175 0.0113,-0.0707 1.1907,-9.0613 L 0,147.5 l 3e-4,9.1393 0.0019,0.0715 0.0053,0.1192 0.0103,0.1666 0.0169,0.214 0.0252,0.2612 0.0352,0.3081 0.0467,0.3548 0.06,0.401 0.0749,0.447 0.0914,0.4925 0.1094,0.5376 0.1291,0.5822 0.1505,0.6262 0.1732,0.6697 0.1977,0.7126 0.2236,0.7547 0.2512,0.7962 0.2801,0.837 0.3106,0.8769 0.3426,0.916 0.3759,0.9544 0.4109,0.9916 0.4471,1.0281 0.4848,1.0636 0.5237,1.098 0.5642,1.1314 0.6059,1.1636 0.6488,1.1949 0.6931,1.2249 0.7385,1.2537 0.7853,1.2813 0.8331,1.3076 0.8822,1.3327 0.9203,1.1653 10.6851,-0.9832 0.6922,-1.3138 0.6242,-1.4713 0.5805,-1.4377 0.5382,-1.4031 0.4974,-1.3674 0.4579,-1.3308 0.4198,-1.2932 0.3834,-1.2547 0.3482,-1.2153 0.3146,-1.1752 0.2825,-1.1341 0.252,-1.0925 0.2229,-1.05 0.1956,-1.0069 0.1696,-0.9631 0.1454,-0.9189 0.1226,-0.874 0.1016,-0.8287 0.0822,-0.7829 0.0643,-0.7366 0.0481,-0.6901 0.0336,-0.6432 0.0207,-0.596 0.0095,-0.5485 0,-0.5009 -0.008,-0.4532 -0.0142,-0.4052 -0.0187,-0.3574 -0.0217,-0.3093 -0.0228,-0.2614 -0.0225,-0.2135 -0.0203,-0.1657 -0.0166,-0.1181 -0.0111,-0.0707 -1.6676,-8.9859 18.6615,-4.7421 2.8245,8.6919 0.0239,0.0675 0.0419,0.1117 0.0612,0.1553 0.0822,0.1983 0.1047,0.2406 0.1287,0.2821 0.1541,0.323 0.181,0.3628 0.2093,0.402 0.2391,0.4402 0.2702,0.4775 0.3027,0.5138 0.3366,0.5491 0.3718,0.5834 0.4082,0.6165 0.4459,0.6487 0.4848,0.6797 0.5251,0.7094 0.5664,0.738 0.6088,0.7654 0.6525,0.7914 0.6972,0.8162 0.7429,0.8396 0.7897,0.8617 0.8375,0.8824 0.8861,0.9016 0.9358,0.9195 0.9863,0.9359 1.0377,0.9508 1.0898,0.9641 1.1428,0.9759 1.1964,0.9862 1.2508,0.9948 1.2355,0.824 9.8582,-4.2371 0.2524,-1.4633 0.1389,-1.5922 0.1078,-1.5467 0.0783,-1.5007 0.0505,-1.4542 0.0243,-1.4072 -3e-4,-1.3596 -0.0232,-1.3118 -0.0444,-1.2634 -0.0639,-1.2149 -0.0818,-1.166 -0.0979,-1.1168 -0.1125,-1.0675 -0.1252,-1.018 -0.1363,-0.9685 -0.1457,-0.9188 -0.1534,-0.8691 -0.1594,-0.8195 -0.1638,-0.77 -0.1665,-0.7205 -0.1675,-0.6711 -0.1668,-0.6221 -0.1644,-0.5732 -0.1605,-0.5247 -0.1549,-0.4764 -0.1476,-0.4285 -0.1387,-0.381 -0.1282,-0.334 -0.1162,-0.2875 -0.1025,-0.2416 -0.0873,-0.1961 -0.0706,-0.1513 -0.0522,-0.1073 -0.0325,-0.0637 -4.3628,-8.0308 16.2828,-10.2767 5.3722,7.3937 0.0436,0.0567 0.0743,0.0933 0.1063,0.1288 0.1394,0.1632 0.174,0.1965 0.2095,0.2286 0.2464,0.2595 0.2842,0.2891 0.3233,0.3177 0.3634,0.3447 0.4046,0.3706 0.4467,0.3951 0.4898,0.4182 0.5338,0.44 0.5787,0.4603 0.6246,0.4791 0.6711,0.4966 0.7186,0.5124 0.7667,0.5269 0.8156,0.5397 0.8651,0.5511 0.9153,0.5608 0.966,0.5689 1.0173,0.5755 1.0692,0.5804 1.1214,0.5837 1.1741,0.5854 1.2273,0.5852 1.2806,0.5836 1.3344,0.5801 1.3885,0.5751 1.4426,0.5682 1.497,0.5596 1.4296,0.4018 8.0664,-7.076 -0.2122,-1.4697 -0.3598,-1.5572 -0.3755,-1.5043 -0.3892,-1.4515 -0.4014,-1.3986 -0.4118,-1.3458 -0.4204,-1.293 -0.4274,-1.2404 -0.4327,-1.1879 -0.4362,-1.1356 -0.438,-1.0836 -0.4383,-1.032 -0.4368,-0.9805 -0.4337,-0.9295 -0.4289,-0.8789 -0.4225,-0.8288 -0.4145,-0.7792 -0.4049,-0.7302 -0.3937,-0.6816 -0.3809,-0.6338 -0.3667,-0.5866 -0.3509,-0.54 -0.3335,-0.4944 -0.3147,-0.4493 -0.2945,-0.4053 -0.2728,-0.3619 -0.2497,-0.3195 -0.2252,-0.2781 -0.1993,-0.2375 -0.1722,-0.198 -0.1436,-0.1596 -0.1139,-0.1221 -0.0828,-0.0858 -0.0506,-0.0507 -6.6309,-6.2895 12.3102,-14.8054 7.394,5.3717 0.059,0.0405 0.0995,0.0658 0.1409,0.0896 0.1831,0.1122 0.2261,0.1331 0.2699,0.1526 0.3145,0.1707 0.3597,0.1872 0.4056,0.2021 0.4522,0.2156 0.4993,0.2275 0.5469,0.2377 0.595,0.2464 0.6437,0.2535 0.6926,0.2589 0.7421,0.2627 0.7917,0.2648 0.8418,0.2653 0.892,0.2642 0.9424,0.2613 0.9931,0.2567 1.0437,0.2505 1.0946,0.2426 1.1454,0.233 1.1961,0.2216 1.247,0.2086 1.2975,0.1938 1.348,0.1774 1.3984,0.1593 1.4483,0.1394 1.4982,0.1178 1.5476,0.0946 1.5967,0.0697 1.4837,-0.0596 5.4851,-9.2224 -0.656,-1.3322 -0.8234,-1.3697 -0.8219,-1.3147 -0.8188,-1.2602 -0.8139,-1.2061 -0.8075,-1.1527 -0.7994,-1.0998 -0.7898,-1.0476 -0.7786,-0.9961 -0.7657,-0.9452 -0.7515,-0.8953 -0.7357,-0.8459 -0.7184,-0.7976 -0.6997,-0.75 -0.6795,-0.7034 -0.658,-0.6577 -0.635,-0.6129 -0.6107,-0.5693 -0.585,-0.5266 -0.5582,-0.4851 -0.53,-0.4445 -0.5006,-0.4052 -0.47,-0.3671 -0.4382,-0.3301 -0.4053,-0.2944 -0.3712,-0.2599 -0.3362,-0.2268 -0.3001,-0.1948 -0.263,-0.1643 -0.2249,-0.1352 -0.1859,-0.1073 -0.1461,-0.081 -0.1053,-0.056 -0.0637,-0.0326 -8.2499,-3.9326 7.1325,-17.8848 8.6921,2.8239 0.0686,0.0203 0.115,0.0318 0.1617,0.0417 0.2087,0.0501 0.2562,0.0567 0.3039,0.0618 0.3518,0.0651 0.4,0.0669 0.4482,0.0669 0.4967,0.0653 0.5451,0.062 0.5936,0.0571 0.6421,0.0505 0.6904,0.0422 0.7388,0.0321 0.7869,0.0206 0.8348,0.0072 0.8826,-0.0078 0.93,-0.0244 0.977,-0.0427 1.0238,-0.0627 1.0701,-0.0843 1.116,-0.1075 1.1613,-0.1324 1.2061,-0.1589 1.2503,-0.1869 1.294,-0.2166 1.3368,-0.2479 1.3791,-0.2806 1.4206,-0.315 1.4612,-0.3509 1.5011,-0.3883 1.5401,-0.4271 1.3927,-0.5152 2.3667,-10.466 -1.0355,-1.0643 -1.2064,-1.0482 -1.188,-0.9964 -1.1681,-0.9455 -1.1468,-0.8955 -1.1241,-0.8468 -1.1002,-0.7989 -1.0748,-0.7523 -1.0483,-0.7067 -1.0204,-0.6624 -0.9913,-0.6192 -0.9612,-0.5772 -0.9297,-0.5365 -0.8972,-0.4971 -0.8636,-0.459 -0.8289,-0.4221 -0.7934,-0.3868 -0.7567,-0.3527 -0.7192,-0.32 -0.6807,-0.2888 -0.6414,-0.2591 -0.6013,-0.2307 -0.5604,-0.2039 -0.5188,-0.1785 -0.4764,-0.1547 -0.4335,-0.1325 -0.3898,-0.1117 -0.3456,-0.0926 -0.3009,-0.075 -0.2557,-0.059 -0.2099,-0.0447 -0.1639,-0.0319 -0.1175,-0.0207 -0.0707,-0.0113 -9.0613,-1.1907 z"
     id="gearpoly1" /><g
     class="guides"
     id="g5"><polyline
       fill="none"
       stroke="#444"
       stroke-width="0.5"
       stroke-miterlimit="10"
       points="10,0 -10,0"
       id="polyline7" /><polyline
       fill="none"
       stroke="#444"
       stroke-width="0.5"
       stroke-miterlimit="10"
       points="0,10 0,-10"
       id="polyline9" /></g><circle
     fill="#c00"
     class="firstmarker"
     stroke="none"
     stroke-miterlimit="10"
     cx="165.9655"
     cy="-15.2724"
     r="6.5417"
     id="circle11" /><g
     class="geartext"
     id="g13"><g
       class="text"
       id="g15"><polyline
         fill="none"
         stroke="#444"
         stroke-width="0.5"
         stroke-linecap="square"
         stroke-miterlimit="1"
         points="-45.23 -108.44 -47.99 -107.25 -50.71 -105.99 -53.4 -104.67 -56.05 -103.27 "
         id="polyline17" /><polyline
         fill="none"
         stroke="#444"
         stroke-width="0.5"
         stroke-linecap="square"
         stroke-miterlimit="1"
         points="-48.12 -100.58 -53.3 -111.41 "
         id="polyline19" /><polyline
         fill="none"
         stroke="#444"
         stroke-width="0.5"
         stroke-linecap="square"
         stroke-miterlimit="1"
         points="-47.54 -113.98 -49.21 -109.99 -50.71 -105.99 -52.03 -101.99 -53.19 -98 "
         id="polyline21" /><polyline
         fill="none"
         stroke="#444"
         stroke-width="0.5"
         stroke-linecap="square"
         stroke-miterlimit="1"
         points="-42.92 -102.91 -46.76 -104.52 -50.71 -105.99 -54.76 -107.34 -58.91 -108.54 "
         id="polyline23" /><polyline
         fill="none"
         stroke="#444"
         stroke-width="0.5"
         stroke-linecap="square"
         stroke-miterlimit="1"
         points="-41.66 -116.26 -39.62 -120.14 -33.98 -103.04 "
         id="polyline25" /><polyline
         fill="none"
         stroke="#444"
         stroke-width="0.5"
         stroke-linecap="square"
         stroke-miterlimit="1"
         points="-31.34 -103.87 -33.98 -103.04 -36.6 -102.14 "
         id="polyline27" /><polyline
         fill="none"
         stroke="#444"
         stroke-width="0.5"
         stroke-linecap="square"
         stroke-miterlimit="1"
         points="-1.54 -126.49 -1.32 -108.49 -4.26 -112.92 -7.43 -117.27 -10.82 -121.52 -14.43 -125.67 -12.38 -107.79 "
         id="polyline29" /><polyline
         fill="none"
         stroke="#444"
         stroke-width="0.5"
         stroke-linecap="square"
         stroke-miterlimit="1"
         points="16.94 -119.3 13.88 -119.7 10.82 -120.01 7.76 -120.25 4.68 -120.41 "
         id="polyline31" /><polyline
         fill="none"
         stroke="#444"
         stroke-width="0.5"
         stroke-linecap="square"
         stroke-miterlimit="1"
         points="16.09 -113.36 13.19 -113.74 10.28 -114.04 7.37 -114.26 4.45 -114.41 "
         id="polyline33" /><polyline
         fill="none"
         stroke="#444"
         stroke-width="0.5"
         stroke-linecap="square"
         stroke-miterlimit="1"
         points="31.46 -103.84 28.8 -104.61 26.12 -105.31 23.42 -105.94 20.71 -106.5 21.86 -112.39 25.37 -114.73 28.29 -114.04 31.19 -113.28 34.94 -115.32 35.81 -118.19 33.58 -121.96 30.45 -122.78 27.31 -123.52 23.58 -121.23 "
         id="polyline35" /><polyline
         fill="none"
         stroke="#444"
         stroke-width="0.5"
         stroke-linecap="square"
         stroke-miterlimit="1"
         points="45.65 -101.72 41.88 -100.09 39.32 -101.13 37.74 -104.92 41.8 -116.21 45.84 -117.9 48.83 -116.69 50.57 -112.67 45.65 -101.72 "
         id="polyline37" /><polyline
         fill="none"
         stroke="#444"
         stroke-width="0.5"
         stroke-linecap="square"
         stroke-miterlimit="1"
         points="66.4 -96.94 68.86 -95.21 71.26 -93.42 73.63 -91.57 77.88 -91.95 79.82 -94.24 79.26 -98.59 76.72 -100.58 74.13 -102.5 71.49 -104.36 61.32 -89.51 "
         id="polyline39" /><polyline
         fill="none"
         stroke="#444"
         stroke-width="0.5"
         stroke-linecap="square"
         stroke-miterlimit="1"
         points="74.26 -79.11 82.47 -87.86 "
         id="polyline41" /><polyline
         fill="none"
         stroke="#444"
         stroke-width="0.5"
         stroke-linecap="square"
         stroke-miterlimit="1"
         points="84.52 -90.05 86.58 -92.23 "
         id="polyline43" /><polyline
         fill="none"
         stroke="#444"
         stroke-width="0.5"
         stroke-linecap="square"
         stroke-miterlimit="1"
         points="87.82 -68.7 83.72 -69.01 84.2 -73.09 95.53 -82.93 "
         id="polyline45" /><polyline
         fill="none"
         stroke="#444"
         stroke-width="0.5"
         stroke-linecap="square"
         stroke-miterlimit="1"
         points="94.91 -74.24 92.98 -76.64 91 -78.99 88.95 -81.29 86.85 -83.53 "
         id="polyline47" /><polyline
         fill="none"
         stroke="#444"
         stroke-width="0.5"
         stroke-linecap="square"
         stroke-miterlimit="1"
         points="94.66 -53.03 93.27 -55.43 91.83 -57.79 90.32 -60.12 91.21 -64.13 96.12 -67.58 100.31 -66.76 101.99 -64.18 103.59 -61.56 105.13 -58.89 "
         id="polyline49" /><polyline
         fill="none"
         stroke="#444"
         stroke-width="0.5"
         stroke-linecap="square"
         stroke-miterlimit="1"
         points="102.62 -50.79 106.6 -49.41 110.58 -47.87 111.77 -45.03 110.07 -41.11 101.64 -37.96 "
         id="polyline51" /><polyline
         fill="none"
         stroke="#444"
         stroke-width="0.5"
         stroke-linecap="square"
         stroke-miterlimit="1"
         points="97.24 -48.13 113.37 -56.11 "
         id="polyline53" /><polyline
         fill="none"
         stroke="#444"
         stroke-width="0.5"
         stroke-linecap="square"
         stroke-miterlimit="1"
         points="106.77 -19.29 107.23 -16.56 107.62 -13.81 107.93 -11.06 111.17 -8.53 123.14 -9.45 125.84 -12.9 125.47 -16.11 125.02 -19.3 124.49 -22.49 "
         id="polyline55" /><polyline
         fill="none"
         stroke="#444"
         stroke-width="0.5"
         stroke-linecap="square"
         stroke-miterlimit="1"
         points="125.02 -19.3 107.23 -16.56 "
         id="polyline57" /><polyline
         fill="none"
         stroke="#444"
         stroke-width="0.5"
         stroke-linecap="square"
         stroke-miterlimit="1"
         points="120.15 9.22 120.34 6.15 120.46 3.08 120.5 0 120.46 -3.08 "
         id="polyline59" /><polyline
         fill="none"
         stroke="#444"
         stroke-width="0.5"
         stroke-linecap="square"
         stroke-miterlimit="1"
         points="114.16 8.76 114.35 5.84 114.46 2.92 114.5 0 114.46 -2.92 "
         id="polyline61" /><polyline
         fill="none"
         stroke="#444"
         stroke-width="0.5"
         stroke-linecap="square"
         stroke-miterlimit="1"
         points="122.5 15.72 125.02 19.3 124.49 22.49 123.87 25.66 120.25 28.13 117.33 27.45 115.06 23.83 111.49 26.08 108.57 25.4 106.24 22.01 106.77 19.29 107.23 16.56 110.59 14.2 "
         id="polyline63" /><polyline
         fill="none"
         stroke="#444"
         stroke-width="0.5"
         stroke-linecap="square"
         stroke-miterlimit="1"
         points="115.63 20.89 115.06 23.83 "
         id="polyline65" /><polyline
         fill="none"
         stroke="#444"
         stroke-width="0.5"
         stroke-linecap="square"
         stroke-miterlimit="1"
         points="107.13 30.9 104.25 30.07 "
         id="polyline67" /><polyline
         fill="none"
         stroke="#444"
         stroke-width="0.5"
         stroke-linecap="square"
         stroke-miterlimit="1"
         points="116.76 40.24 118.5 44.26 117.34 47.27 116.09 50.25 112.05 51.94 109.33 50.68 107.83 46.68 103.88 48.15 101.16 46.89 99.57 43.1 100.64 40.54 101.64 37.96 105.41 36.33 "
         id="polyline69" /><polyline
         fill="none"
         stroke="#444"
         stroke-width="0.5"
         stroke-linecap="square"
         stroke-miterlimit="1"
         points="108.99 43.91 107.83 46.68 "
         id="polyline71" /><polyline
         fill="none"
         stroke="#444"
         stroke-width="0.5"
         stroke-linecap="square"
         stroke-miterlimit="1"
         points="109.25 57.59 110.36 61.82 108.75 64.62 107.06 67.38 102.81 68.43 100.31 66.76 99.45 62.58 95.32 63.44 92.82 61.78 91.83 57.79 93.27 55.43 94.66 53.03 98.64 51.99 "
         id="polyline73" /><polyline
         fill="none"
         stroke="#444"
         stroke-width="0.5"
         stroke-linecap="square"
         stroke-miterlimit="1"
         points="101.01 60.02 99.45 62.58 "
         id="polyline75" /><polyline
         fill="none"
         stroke="#444"
         stroke-width="0.5"
         stroke-linecap="square"
         stroke-miterlimit="1"
         points="84.68 81.45 82.58 83.59 80.42 85.67 78.2 87.7 77.88 91.95 79.82 94.24 84.19 94.41 86.58 92.23 88.9 89.99 91.17 87.69 78.2 75.22 "
         id="polyline77" /><polyline
         fill="none"
         stroke="#444"
         stroke-width="0.5"
         stroke-linecap="square"
         stroke-miterlimit="1"
         points="62.93 102.76 65.54 101.12 68.1 99.41 70.61 97.64 73.08 95.81 "
         id="polyline79" /><polyline
         fill="none"
         stroke="#444"
         stroke-width="0.5"
         stroke-linecap="square"
         stroke-miterlimit="1"
         points="59.8 97.64 62.27 96.08 64.71 94.46 67.1 92.78 69.44 91.04 "
         id="polyline81" /><polyline
         fill="none"
         stroke="#444"
         stroke-width="0.5"
         stroke-linecap="square"
         stroke-miterlimit="1"
         points="56.17 103.2 53.52 104.6 50.83 105.94 48.11 107.2 44.2 105.62 43.04 102.86 44.43 98.99 46.94 97.82 49.42 96.59 53.3 97.93 57.61 105.84 56.25 109.94 54.73 114.05 51.8 115.41 "
         id="polyline83" /><polyline
         fill="none"
         stroke="#444"
         stroke-width="0.5"
         stroke-linecap="square"
         stroke-miterlimit="1"
         points="25.37 114.73 22.43 115.34 19.48 115.87 16.51 116.33 13.88 119.7 14.23 122.68 17.78 125.24 20.97 124.75 24.15 124.17 27.31 123.52 23.42 105.94 "
         id="polyline85" /><polyline
         fill="none"
         stroke="#444"
         stroke-width="0.5"
         stroke-linecap="square"
         stroke-miterlimit="1"
         points="6.98 108.27 7.37 114.26 4.68 120.41 1.69 126.49 -1.47 120.49 -4.32 114.42 -4.09 108.42 "
         id="polyline87" /><polyline
         fill="none"
         stroke="#444"
         stroke-width="0.5"
         stroke-linecap="square"
         stroke-miterlimit="1"
         points="7.37 114.26 4.45 114.41 1.53 114.49 -1.39 114.49 -4.32 114.42 "
         id="polyline89" /><polyline
         fill="none"
         stroke="#444"
         stroke-width="0.5"
         stroke-linecap="square"
         stroke-miterlimit="1"
         points="-22.86 118.31 -19.84 118.86 -16.8 119.32 -13.74 119.71 -10.68 120.03 "
         id="polyline91" /><polyline
         fill="none"
         stroke="#444"
         stroke-width="0.5"
         stroke-linecap="square"
         stroke-miterlimit="1"
         points="-21.73 112.42 -18.85 112.94 -15.96 113.38 -13.06 113.75 -10.15 114.05 "
         id="polyline93" /><polyline
         fill="none"
         stroke="#444"
         stroke-width="0.5"
         stroke-linecap="square"
         stroke-miterlimit="1"
         points="-36.6 102.14 -33.98 103.04 -31.34 103.87 -28.68 104.64 -26 105.34 -27.44 111.16 -31.06 113.32 -33.94 112.49 -36.8 111.59 -40.65 113.44 -41.66 116.26 -39.62 120.14 -36.54 121.11 -33.44 122 -29.59 119.9 "
         id="polyline95" /><polyline
         fill="none"
         stroke="#444"
         stroke-width="0.5"
         stroke-linecap="square"
         stroke-miterlimit="1"
         points="-50.67 99.32 -46.82 97.88 -44.31 99.04 -42.92 102.91 -47.54 113.98 -51.66 115.47 -54.59 114.11 -56.12 110.01 -50.67 99.32 "
         id="polyline97" /></g></g><path
     style="opacity:0.2;fill:none;stroke:#ff0000;stroke-miterlimit:10"
     d="M 166.67,0 C 166.67,92.049298 92.049298,166.67 0,166.67 -92.049298,166.67 -166.67,92.049298 -166.67,0 c 0,-92.049298 74.620702,-166.67 166.67,-166.67 92.049298,0 166.67,74.620702 166.67,166.67 z"
     id="circle101" /></svg>