<?xml version="1.0" encoding="UTF-8" standalone="no"?>
<!-- Generator: Iparigrafika Gear Generator by Abel Vincze http://geargenerator.com/ -->

<svg
   xmlns:dc="http://purl.org/dc/elements/1.1/"
   xmlns:cc="http://creativecommons.org/ns#"
   xmlns:rdf="http://www.w3.org/1999/02/22-rdf-syntax-ns#"
   xmlns:svg="http://www.w3.org/2000/svg"
   xmlns="http://www.w3.org/2000/svg"
   xmlns:sodipodi="http://sodipodi.sourceforge.net/DTD/sodipodi-0.dtd"
   xmlns:inkscape="http://www.inkscape.org/namespaces/inkscape"
   version="1.2"
   class="svggear"
   x="0px"
   y="0px"
   width="534px"
   height="534px"
   viewBox="-267 -267 534 534"
   overflow="scroll"
   xml:space="preserve"
   id="svg3191"
   inkscape:version="0.48.4 r9939"
   sodipodi:docname="30.svg"><metadata
     id="metadata3290"><rdf:RDF><cc:Work
         rdf:about=""><dc:format>image/svg+xml</dc:format><dc:type
           rdf:resource="http://purl.org/dc/dcmitype/StillImage" /></cc:Work></rdf:RDF></metadata><defs
     id="defs3288" /><sodipodi:namedview
     pagecolor="#ffffff"
     bordercolor="#666666"
     borderopacity="1"
     objecttolerance="10"
     gridtolerance="10"
     guidetolerance="10"
     inkscape:pageopacity="0"
     inkscape:pageshadow="2"
     inkscape:window-width="960"
     inkscape:window-height="1014"
     id="namedview3286"
     showgrid="false"
     inkscape:zoom="1.2500165"
     inkscape:cx="210.68819"
     inkscape:cy="341.45114"
     inkscape:window-x="1600"
     inkscape:window-y="27"
     inkscape:window-maximized="0"
     inkscape:current-layer="svg3191" /><path
     style="fill:#dddddd;stroke:#444444;stroke-width:1;stroke-miterlimit:10"
     d="m 230.8333,0 4.1256,-4e-4 0.0636,-0.0015 0.0954,-0.0034 0.1271,-0.0059 0.1587,-0.0093 0.1904,-0.0134 0.2219,-0.0181 0.2533,-0.0237 0.2847,-0.0299 0.3159,-0.037 0.347,-0.0447 0.3779,-0.0531 0.4088,-0.0624 0.4393,-0.0722 0.4698,-0.0829 0.5001,-0.0942 0.5302,-0.1063 0.5599,-0.119 0.5896,-0.1326 0.619,-0.1467 0.648,-0.1616 0.6769,-0.1772 0.7055,-0.1935 0.7337,-0.2104 0.7617,-0.2281 0.7894,-0.2464 0.8167,-0.2654 0.8437,-0.285 0.8703,-0.3054 0.8966,-0.3264 0.9225,-0.348 0.948,-0.3703 0.9732,-0.3932 0.9978,-0.4167 1.0221,-0.441 1.046,-0.4657 1.0694,-0.4911 1.0923,-0.5172 1.1149,-0.5438 1.1368,-0.571 1.1584,-0.5987 1.1795,-0.6272 1.2,-0.6561 1.2199,-0.6856 1.2395,-0.7156 0.8212,-0.7265 -0.7454,-11.2385 -0.9099,-0.6117 -1.3231,-0.5457 -1.2999,-0.5185 -1.2761,-0.4918 -1.2519,-0.4659 -1.2273,-0.4406 -1.2023,-0.4158 -1.1769,-0.3918 -1.1511,-0.3684 -1.1249,-0.3456 -1.0983,-0.3235 -1.0714,-0.3021 -1.0442,-0.2814 -1.0165,-0.2612 -0.9886,-0.2419 -0.9604,-0.2231 -0.9318,-0.2051 -0.9031,-0.1878 -0.8739,-0.1711 -0.8446,-0.1552 -0.815,-0.14 -0.7851,-0.1255 -0.7552,-0.1117 -0.7248,-0.0986 -0.6944,-0.0862 -0.6637,-0.0746 -0.6329,-0.0637 -0.6019,-0.0536 -0.5708,-0.044 -0.5395,-0.0354 -0.5082,-0.0273 -0.4766,-0.0201 -0.4451,-0.0136 -0.4134,-0.0078 -0.3816,-0.0028 -0.3499,0.0015 -0.318,0.0051 -0.2861,0.0079 -0.2543,0.01 -0.2223,0.0113 -0.1905,0.012 -0.1586,0.0117 -0.1267,0.0109 -0.095,0.0093 -0.0632,0.0069 -4.0895,0.5444 -3.0225,-17.5085 4.0353,-0.8582 0.0619,-0.0147 0.0926,-0.0231 0.1231,-0.0323 0.1533,-0.0421 0.1834,-0.0526 0.2133,-0.0639 0.2429,-0.0758 0.2722,-0.0885 0.3013,-0.1018 0.3301,-0.1159 0.3587,-0.1305 0.3868,-0.146 0.4148,-0.162 0.4423,-0.1787 0.4696,-0.1962 0.4964,-0.2142 0.523,-0.2328 0.5491,-0.2523 0.575,-0.2722 0.6003,-0.2928 0.6252,-0.314 0.6499,-0.336 0.6739,-0.3583 0.6977,-0.3815 0.7208,-0.4051 0.7437,-0.4294 0.766,-0.4543 0.7878,-0.4796 0.8092,-0.5057 0.8299,-0.5322 0.8504,-0.5593 0.8701,-0.5869 0.8893,-0.6151 0.9082,-0.6438 0.9263,-0.673 0.9439,-0.7028 0.9609,-0.733 0.9774,-0.7637 0.9934,-0.7948 1.0085,-0.8266 1.0233,-0.8587 1.0373,-0.8912 1.0508,-0.9242 1.0636,-0.9577 0.6522,-0.8814 -3.0657,-10.8379 -1.0172,-0.4092 -1.4077,-0.2587 -1.3792,-0.2368 -1.3505,-0.2158 -1.3214,-0.1955 -1.2921,-0.1757 -1.2625,-0.1568 -1.2327,-0.1386 -1.2025,-0.121 -1.1721,-0.1041 -1.1416,-0.0881 -1.1108,-0.0728 -1.0798,-0.0581 -1.0487,-0.0442 -1.0172,-0.031 -0.9858,-0.0185 -0.9542,-0.0069 -0.9223,0.0041 -0.8904,0.0143 -0.8584,0.0237 -0.8263,0.0325 -0.7941,0.0406 -0.7618,0.0477 -0.7295,0.0543 -0.6972,0.06 -0.6647,0.065 -0.6323,0.0693 -0.5999,0.0728 -0.5675,0.0755 -0.5351,0.0776 -0.5027,0.0789 -0.4704,0.0795 -0.4382,0.0792 -0.406,0.0783 -0.3738,0.0767 -0.3419,0.0742 -0.31,0.0711 -0.2783,0.0672 -0.2466,0.0626 -0.2151,0.0573 -0.1838,0.0513 -0.1527,0.0445 -0.1217,0.037 -0.091,0.0288 -0.0604,0.0199 -3.887,1.3828 -6.5967,-16.4976 3.7688,-1.6784 0.0575,-0.0272 0.0857,-0.0419 0.1137,-0.0571 0.1413,-0.0731 0.1684,-0.0896 0.1954,-0.1068 0.2218,-0.1247 0.2478,-0.1431 0.2736,-0.1623 0.2988,-0.1819 0.3237,-0.2023 0.348,-0.2232 0.372,-0.2447 0.3955,-0.2668 0.4185,-0.2895 0.4411,-0.3127 0.4631,-0.3365 0.4847,-0.3609 0.5058,-0.3858 0.5263,-0.4112 0.5463,-0.4372 0.5658,-0.4637 0.5847,-0.4907 0.6031,-0.5182 0.6209,-0.5461 0.6382,-0.5746 0.6548,-0.6036 0.6708,-0.633 0.6864,-0.6628 0.7012,-0.6932 0.7154,-0.7238 0.7291,-0.755 0.742,-0.7866 0.7544,-0.8186 0.7662,-0.8509 0.7771,-0.8836 0.7876,-0.9168 0.7973,-0.9502 0.8063,-0.984 0.8147,-1.0182 0.8224,-1.0526 0.8294,-1.0875 0.8356,-1.1225 0.8413,-1.1579 0.4546,-0.9977 -5.252,-9.9637 -1.08,-0.1887 -1.4307,0.0396 -1.3984,0.0551 -1.3658,0.0697 -1.3332,0.0835 -1.3004,0.0968 -1.2675,0.1091 -1.2345,0.1208 -1.2014,0.1316 -1.1682,0.1418 -1.135,0.1512 -1.1016,0.1598 -1.0683,0.1677 -1.0349,0.1748 -1.0015,0.1812 -0.9681,0.1867 -0.9347,0.1917 -0.9014,0.1957 -0.868,0.1992 -0.8347,0.2017 -0.8014,0.2036 -0.7684,0.2047 -0.7352,0.2051 -0.7023,0.2047 -0.6694,0.2037 -0.6367,0.2018 -0.6041,0.1992 -0.5716,0.196 -0.5394,0.1919 -0.5073,0.1871 -0.4753,0.1817 -0.4436,0.1755 -0.4121,0.1686 -0.3809,0.161 -0.3497,0.1527 -0.319,0.1437 -0.2885,0.134 -0.2582,0.1236 -0.2282,0.1126 -0.1985,0.1007 -0.1691,0.0884 -0.1401,0.0752 -0.1114,0.0615 -0.083,0.0471 -0.0549,0.0321 -3.5146,2.1607 -9.8825,-14.7655 3.3374,-2.4253 0.0506,-0.0386 0.0752,-0.0588 0.0993,-0.0795 0.1229,-0.1008 0.1462,-0.1227 0.1689,-0.1451 0.191,-0.1681 0.2127,-0.1915 0.2338,-0.2156 0.2545,-0.2401 0.2745,-0.2652 0.2941,-0.2907 0.313,-0.3167 0.3313,-0.3432 0.3492,-0.3701 0.3664,-0.3976 0.3831,-0.4255 0.3991,-0.4538 0.4145,-0.4825 0.4293,-0.5116 0.4434,-0.5413 0.4571,-0.5711 0.4699,-0.6016 0.4822,-0.6322 0.4937,-0.6633 0.5048,-0.6948 0.515,-0.7265 0.5246,-0.7586 0.5335,-0.7911 0.5418,-0.8237 0.5493,-0.8568 0.5561,-0.8901 0.5623,-0.9237 0.5678,-0.9575 0.5724,-0.9916 0.5765,-1.0259 0.5798,-1.0605 0.5823,-1.0952 0.5841,-1.1302 0.5852,-1.1653 0.5856,-1.2006 0.5851,-1.2361 0.584,-1.2718 0.5821,-1.3075 0.2373,-1.0704 -7.2088,-8.654 -1.0957,0.0399 -1.3911,0.3363 -1.3564,0.3446 -1.3215,0.3521 -1.2867,0.3589 -1.2519,0.365 -1.2171,0.3703 -1.1824,0.3748 -1.1478,0.3786 -1.1132,0.3815 -1.0787,0.3839 -1.0443,0.3854 -1.0101,0.3861 -0.976,0.3861 -0.9419,0.3855 -0.9081,0.3839 -0.8745,0.3818 -0.8409,0.3789 -0.8076,0.3752 -0.7746,0.3709 -0.7416,0.3658 -0.7089,0.36 -0.6766,0.3535 -0.6444,0.3462 -0.6124,0.3384 -0.5808,0.3298 -0.5495,0.3205 -0.5184,0.3105 -0.4877,0.2998 -0.4573,0.2886 -0.4271,0.2765 -0.3975,0.2639 -0.368,0.2506 -0.3391,0.2367 -0.3103,0.2221 -0.2822,0.2068 -0.2543,0.1911 -0.2268,0.1746 -0.1998,0.1575 -0.1733,0.1398 -0.147,0.1216 -0.1214,0.1028 -0.0962,0.0833 -0.0714,0.0633 -0.0471,0.0427 -2.9884,2.8442 -12.7366,-12.3881 2.7603,-3.0662 0.0414,-0.0483 0.0613,-0.0731 0.0807,-0.0984 0.0993,-0.1242 0.1174,-0.1504 0.135,-0.177 0.152,-0.2041 0.1682,-0.2316 0.1839,-0.2595 0.199,-0.2878 0.2134,-0.3164 0.2271,-0.3455 0.2404,-0.3748 0.2527,-0.4046 0.2646,-0.4347 0.2758,-0.4651 0.2862,-0.4958 0.296,-0.5268 0.3051,-0.5582 0.3136,-0.5897 0.3212,-0.6216 0.3283,-0.6537 0.3346,-0.6861 0.3402,-0.7187 0.3451,-0.7515 0.3492,-0.7845 0.3527,-0.8177 0.3554,-0.8511 0.3574,-0.8847 0.3587,-0.9184 0.3592,-0.9523 0.3589,-0.9863 0.358,-1.0204 0.3562,-1.0546 0.3538,-1.0889 0.3506,-1.1234 0.3466,-1.1578 0.3419,-1.1924 0.3363,-1.2269 0.3302,-1.2615 0.3231,-1.2962 0.3154,-1.3307 0.3068,-1.3654 0.2975,-1.3999 0.01,-1.0964 -8.8506,-6.9661 -1.0634,0.2669 -1.2908,0.6181 -1.2551,0.619 -1.2194,0.6192 -1.1839,0.6187 -1.1487,0.6173 -1.1135,0.6152 -1.0787,0.6124 -1.044,0.609 -1.0095,0.6047 -0.9754,0.5997 -0.9414,0.5941 -0.9077,0.5877 -0.8743,0.5806 -0.8413,0.5728 -0.8084,0.5644 -0.7759,0.5553 -0.7438,0.5454 -0.712,0.535 -0.6805,0.5238 -0.6493,0.512 -0.6187,0.4995 -0.5882,0.4864 -0.5583,0.4727 -0.5287,0.4583 -0.4996,0.4433 -0.4708,0.4277 -0.4426,0.4115 -0.4147,0.3947 -0.3872,0.3773 -0.3604,0.3593 -0.3339,0.3408 -0.3079,0.3217 -0.2824,0.302 -0.2574,0.2817 -0.233,0.261 -0.209,0.2398 -0.1856,0.2179 -0.1627,0.1956 -0.1403,0.1728 -0.1186,0.1495 -0.0974,0.1258 -0.0767,0.1015 -0.0567,0.0767 -0.0372,0.0516 -2.3318,3.4034 -15.0338,-9.4693 2.0624,-3.5731 0.0305,-0.0558 0.0448,-0.0843 0.0583,-0.113 0.0714,-0.1422 0.0836,-0.1715 0.0953,-0.2012 0.1061,-0.2313 0.1164,-0.2615 0.126,-0.292 0.1348,-0.3229 0.1429,-0.3538 0.1504,-0.3852 0.1571,-0.4166 0.1631,-0.4483 0.1685,-0.4802 0.173,-0.5123 0.1769,-0.5445 0.18,-0.5768 0.1824,-0.6094 0.1841,-0.6421 0.185,-0.6748 0.1852,-0.7076 0.1846,-0.7407 0.1833,-0.7737 0.1813,-0.8068 0.1785,-0.84 0.175,-0.8732 0.1707,-0.9064 0.1657,-0.9396 0.1598,-0.973 0.1534,-1.0061 0.146,-1.0394 0.138,-1.0725 0.1292,-1.1056 0.1197,-1.1387 0.1093,-1.1717 0.0983,-1.2046 0.0865,-1.2374 0.0739,-1.2701 0.0607,-1.3025 0.0466,-1.335 0.0318,-1.3673 0.0162,-1.3993 0,-1.4312 -0.2186,-1.0744 -10.1055,-4.9738 -0.9847,0.4822 -1.1341,0.873 -1.099,0.8664 -1.064,0.8592 -1.0294,0.8513 -0.9952,0.8426 -0.9613,0.8333 -0.9278,0.8233 -0.8945,0.8127 -0.8618,0.8014 -0.8293,0.7894 -0.7974,0.7768 -0.7657,0.7636 -0.7345,0.7497 -0.7037,0.7353 -0.6734,0.7201 -0.6436,0.7045 -0.6141,0.6881 -0.5852,0.6713 -0.5567,0.6538 -0.5287,0.6359 -0.5013,0.6172 -0.4743,0.5981 -0.4478,0.5784 -0.4219,0.5582 -0.3964,0.5375 -0.3717,0.5163 -0.3473,0.4945 -0.3235,0.4723 -0.3004,0.4496 -0.2778,0.4264 -0.2557,0.4027 -0.2343,0.3786 -0.2135,0.3541 -0.1932,0.3292 -0.1736,0.3037 -0.1546,0.278 -0.1362,0.2517 -0.1185,0.2252 -0.1013,0.1982 -0.085,0.1709 -0.0691,0.1432 -0.0539,0.1153 -0.0395,0.0868 -0.0256,0.0582 -1.5733,3.8139 -16.6741,-6.1367 1.2745,-3.9239 0.0182,-0.0609 0.0263,-0.0917 0.0336,-0.1227 0.0402,-0.1539 0.0462,-0.1851 0.0513,-0.2167 0.0558,-0.2482 0.0594,-0.28 0.0625,-0.3119 0.0647,-0.3438 0.0663,-0.3759 0.067,-0.408 0.0671,-0.4402 0.0663,-0.4724 0.065,-0.5047 0.0627,-0.5371 0.0598,-0.5693 0.0561,-0.6017 0.0518,-0.634 0.0465,-0.6663 0.0407,-0.6985 0.034,-0.7307 0.0266,-0.7629 0.0185,-0.7949 0.0096,-0.8269 -10e-5,-0.8587 -0.0104,-0.8905 -0.0215,-0.9221 -0.0333,-0.9535 -0.0459,-0.9849 -0.0592,-1.0161 -0.0732,-1.047 -0.0881,-1.0778 -0.1035,-1.1083 -0.1197,-1.1387 -0.1366,-1.1688 -0.1543,-1.1987 -0.1727,-1.2284 -0.1917,-1.2576 -0.2115,-1.2868 -0.232,-1.3155 -0.2532,-1.344 -0.275,-1.3721 -0.2976,-1.3999 -0.4372,-1.0055 -10.9188,-2.764 -0.8629,0.6763 -0.9279,1.0898 -0.8947,1.076 -0.8622,1.0616 -0.8299,1.0467 -0.7983,1.0311 -0.767,1.015 -0.7363,0.9982 -0.7061,0.9809 -0.6763,0.9631 -0.6471,0.9446 -0.6183,0.9256 -0.5903,0.9061 -0.5625,0.886 -0.5355,0.8655 -0.509,0.8444 -0.483,0.8229 -0.4577,0.8008 -0.4328,0.7783 -0.4086,0.7553 -0.385,0.7318 -0.362,0.708 -0.3395,0.6836 -0.3178,0.6589 -0.2966,0.6337 -0.2761,0.6082 -0.2561,0.5823 -0.2369,0.5559 -0.2183,0.5292 -0.2004,0.5022 -0.183,0.4748 -0.1664,0.4471 -0.1505,0.4191 -0.1351,0.3908 -0.1206,0.3621 -0.1067,0.3332 -0.0934,0.304 -0.0809,0.2746 -0.0691,0.2449 -0.0579,0.2149 -0.0475,0.1848 -0.0378,0.1545 -0.0289,0.1239 -0.0205,0.0932 -0.013,0.0623 -0.7459,4.0576 -17.5856,-2.5359 0.4308,-4.103 0.0051,-0.0634 0.0067,-0.0952 0.0073,-0.127 0.0074,-0.1589 0.0066,-0.1907 0.0052,-0.2226 0.0029,-0.2544 0,-0.2863 -0.0038,-0.318 -0.0081,-0.3497 -0.0134,-0.3815 -0.0193,-0.413 -0.0259,-0.4445 -0.0333,-0.4759 -0.0414,-0.5072 -0.0503,-0.5383 -0.0599,-0.5694 -0.0702,-0.6002 -0.0812,-0.6309 -0.093,-0.6614 -0.1054,-0.6917 -0.1187,-0.7218 -0.1326,-0.7518 -0.1472,-0.7813 -0.1625,-0.8108 -0.1786,-0.84 -0.1953,-0.8689 -0.2127,-0.8974 -0.2309,-0.9258 -0.2497,-0.9539 -0.2691,-0.9815 -0.2894,-1.0089 -0.3101,-1.0359 -0.3317,-1.0626 -0.3539,-1.089 -0.3766,-1.1148 -0.4002,-1.1405 -0.4242,-1.1655 -0.4491,-1.1904 -0.4744,-1.2146 -0.5004,-1.2385 -0.5271,-1.262 -0.5543,-1.285 -0.5822,-1.3074 -0.6366,-0.8926 -11.2549,-0.4335 -0.7034,0.841 -0.681,1.2588 -0.6515,1.2385 -0.6226,1.2177 -0.5942,1.1964 -0.5664,1.1745 -0.5393,1.1523 -0.5127,1.1295 -0.4866,1.1063 -0.4613,1.0826 -0.4366,1.0585 -0.4124,1.0339 -0.389,1.009 -0.366,0.9837 -0.3439,0.9579 -0.3223,0.9318 -0.3014,0.9053 -0.2811,0.8784 -0.2615,0.8513 -0.2427,0.8237 -0.2244,0.7959 -0.2069,0.7678 -0.19,0.7393 -0.1738,0.7105 -0.1584,0.6816 -0.1436,0.6523 -0.1295,0.6228 -0.1161,0.593 -0.1035,0.5631 -0.0915,0.5328 -0.0804,0.5025 -0.0698,0.472 -0.06,0.4412 -0.051,0.4103 -0.0426,0.3793 -0.0351,0.3481 -0.0282,0.3168 -0.022,0.2853 -0.0167,0.2539 -0.0119,0.2224 -0.0081,0.1906 -0.0049,0.159 -0.0024,0.1272 -7e-4,0.0954 2e-4,0.0636 0.114,4.124 -17.7286,1.1758 -0.4316,-4.103 -0.0082,-0.063 -0.0133,-0.0945 -0.0192,-0.1258 -0.0258,-0.1569 -0.0332,-0.1879 -0.0412,-0.2188 -0.05,-0.2495 -0.0596,-0.28 -0.0697,-0.3103 -0.0808,-0.3404 -0.0923,-0.3703 -0.1047,-0.4 -0.1178,-0.4294 -0.1315,-0.4586 -0.146,-0.4875 -0.1611,-0.5161 -0.177,-0.5445 -0.1934,-0.5725 -0.2106,-0.6002 -0.2285,-0.6276 -0.247,-0.6547 -0.2661,-0.6814 -0.286,-0.7077 -0.3064,-0.7337 -0.3276,-0.7593 -0.3493,-0.7844 -0.3717,-0.8093 -0.3947,-0.8336 -0.4183,-0.8576 -0.4425,-0.8811 -0.4674,-0.9041 -0.4927,-0.9267 -0.5188,-0.9488 -0.5454,-0.9704 -0.5725,-0.9916 -0.6002,-1.0122 -0.6285,-1.0323 -0.6574,-1.0519 -0.6867,-1.071 -0.7165,-1.0894 -0.747,-1.1074 -0.778,-1.1249 -0.8093,-1.1416 -0.8413,-1.1579 -0.8084,-0.7407 -11.099,1.916 -0.5132,0.9689 -0.4044,1.3729 -0.3798,1.3469 -0.3557,1.3205 -0.3325,1.2938 -0.3099,1.2667 -0.2879,1.2392 -0.2666,1.2114 -0.246,1.1833 -0.2262,1.1548 -0.2069,1.1261 -0.1885,1.0971 -0.1706,1.0679 -0.1536,1.0382 -0.1372,1.0085 -0.1215,0.9784 -0.1065,0.9482 -0.0924,0.9177 -0.0789,0.8871 -0.066,0.8562 -0.0541,0.8251 -0.0427,0.794 -0.0321,0.7626 -0.0223,0.7312 -0.0132,0.6996 -0.0049,0.6679 0.0029,0.6361 0.0096,0.6042 0.0159,0.5723 0.0212,0.5402 0.0259,0.5083 0.0299,0.4761 0.033,0.4441 0.0354,0.4119 0.0372,0.3798 0.0381,0.3478 0.0383,0.3158 0.0377,0.2837 0.0365,0.2518 0.0345,0.22 0.0318,0.1881 0.0283,0.1565 0.0241,0.1249 0.0191,0.0935 0.0135,0.0622 0.9689,4.0102 -17.0967,4.8361 -1.2753,-3.9236 -0.0211,-0.06 -0.0327,-0.0897 -0.0449,-0.119 -0.0579,-0.1481 -0.0715,-0.1769 -0.0858,-0.2054 -0.1008,-0.2337 -0.1165,-0.2615 -0.1327,-0.289 -0.1497,-0.3162 -0.1674,-0.343 -0.1856,-0.3695 -0.2045,-0.3955 -0.224,-0.4212 -0.2441,-0.4465 -0.2649,-0.4714 -0.2863,-0.4957 -0.3082,-0.5198 -0.3308,-0.5433 -0.354,-0.5664 -0.3777,-0.589 -0.402,-0.6112 -0.4269,-0.6328 -0.4522,-0.6539 -0.4783,-0.6746 -0.5048,-0.6947 -0.5318,-0.7144 -0.5594,-0.7333 -0.5874,-0.7519 -0.6161,-0.7698 -0.6451,-0.7872 -0.6747,-0.804 -0.7047,-0.8202 -0.7352,-0.8358 -0.7661,-0.8509 -0.7976,-0.8653 -0.8294,-0.879 -0.8617,-0.8923 -0.8944,-0.9048 -0.9274,-0.9166 -0.9609,-0.9279 -0.9948,-0.9385 -1.029,-0.9484 -1.0637,-0.9577 -0.9447,-0.5565 -10.4581,4.1818 -0.3005,1.0544 -0.1102,1.427 -0.0914,1.3964 -0.0734,1.3657 -0.0563,1.3346 -0.0397,1.3034 -0.024,1.272 -0.009,1.2403 0.005,1.2086 0.0189,1.1766 0.0317,1.1446 0.0438,1.1123 0.0551,1.0799 0.0656,1.0476 0.0755,1.0149 0.0846,0.9823 0.0929,0.9497 0.1004,0.9168 0.1073,0.8841 0.1134,0.8512 0.1187,0.8183 0.1233,0.7856 0.1271,0.7526 0.1302,0.7199 0.1326,0.687 0.1341,0.6543 0.135,0.6216 0.1351,0.589 0.1345,0.5565 0.1331,0.524 0.131,0.4917 0.1282,0.4596 0.1246,0.4275 0.1203,0.3955 0.1153,0.3639 0.1096,0.3322 0.1031,0.3009 0.0959,0.2697 0.0881,0.2387 0.0795,0.208 0.0702,0.1774 0.0602,0.1472 0.0495,0.1172 0.0381,0.0874 0.0261,0.058 1.7816,3.7212 -15.7177,8.285 -2.0631,-3.5727 -0.0331,-0.0543 -0.0506,-0.0809 -0.0687,-0.1071 -0.0874,-0.1328 -0.1068,-0.1582 -0.1266,-0.1831 -0.1472,-0.2076 -0.1683,-0.2315 -0.1899,-0.2551 -0.2122,-0.2782 -0.235,-0.3007 -0.2584,-0.3228 -0.2822,-0.3444 -0.3067,-0.3655 -0.3316,-0.3859 -0.3572,-0.406 -0.383,-0.4254 -0.4096,-0.4444 -0.4366,-0.4626 -0.4639,-0.4804 -0.492,-0.4977 -0.5202,-0.5142 -0.5491,-0.5302 -0.5784,-0.5456 -0.6081,-0.5604 -0.6382,-0.5746 -0.6687,-0.5882 -0.6996,-0.601 -0.731,-0.6133 -0.7626,-0.6249 -0.7947,-0.6358 -0.8271,-0.6462 -0.8598,-0.6558 -0.8929,-0.6647 -0.9263,-0.673 -0.9601,-0.6805 -0.994,-0.6874 -1.0284,-0.6936 -1.0629,-0.6991 -1.0978,-0.7038 -1.1328,-0.7078 -1.1682,-0.7112 -1.2037,-0.7137 -1.2395,-0.7156 -1.0398,-0.3479 -9.3601,6.2647 -0.0748,1.0939 0.189,1.4187 0.2009,1.3849 0.2121,1.3511 0.2225,1.3171 0.2321,1.2832 0.241,1.2492 0.2492,1.2151 0.2565,1.181 0.2631,1.147 0.269,1.113 0.2741,1.0789 0.2784,1.0449 0.282,1.0109 0.2849,0.9771 0.2869,0.9433 0.2883,0.9095 0.2889,0.876 0.2888,0.8424 0.2879,0.8091 0.2862,0.7758 0.2839,0.7427 0.2809,0.7097 0.277,0.6771 0.2725,0.6444 0.2672,0.6122 0.2613,0.5799 0.2546,0.5481 0.2473,0.5163 0.2391,0.4849 0.2304,0.4538 0.2209,0.4228 0.2108,0.3922 0.1999,0.362 0.1885,0.3319 0.1762,0.3022 0.1634,0.2728 0.1499,0.2439 0.1358,0.2152 0.121,0.1869 0.1055,0.159 0.0895,0.1314 0.0728,0.1043 0.0555,0.0777 0.0376,0.0513 2.5163,3.2694 -13.6516,11.3718 -2.7609,-3.0656 -0.0437,-0.0463 -0.0663,-0.0686 -0.0895,-0.0905 -0.1131,-0.1117 -0.1373,-0.1326 -0.1619,-0.1527 -0.1871,-0.1724 -0.2128,-0.1916 -0.2388,-0.21 -0.2654,-0.2279 -0.2924,-0.2454 -0.3198,-0.262 -0.3477,-0.2782 -0.376,-0.2937 -0.4046,-0.3085 -0.4337,-0.3229 -0.4632,-0.3365 -0.493,-0.3494 -0.5232,-0.3618 -0.5537,-0.3735 -0.5846,-0.3845 -0.6159,-0.3948 -0.6473,-0.4044 -0.6792,-0.4135 -0.7113,-0.4217 -0.7437,-0.4294 -0.7764,-0.4362 -0.8093,-0.4424 -0.8425,-0.448 -0.8758,-0.4527 -0.9096,-0.4567 -0.9433,-0.4601 -0.9774,-0.4626 -1.0116,-0.4646 -1.046,-0.4657 -1.0806,-0.466 -1.1152,-0.4658 -1.1501,-0.4646 -1.1851,-0.4628 -1.2201,-0.4602 -1.2552,-0.4568 -1.2905,-0.4528 -1.3258,-0.4478 -1.3612,-0.4423 -1.0894,-0.1241 -7.8531,8.0739 0.1543,1.0855 0.4798,1.3484 0.4845,1.3129 0.4883,1.2775 0.4915,1.2421 0.4938,1.2069 0.4955,1.1717 0.4963,1.1368 0.4965,1.1019 0.4959,1.0672 0.4945,1.0327 0.4924,0.9983 0.4896,0.9642 0.486,0.9303 0.4818,0.8965 0.4768,0.863 0.4711,0.8297 0.4647,0.7967 0.4576,0.764 0.4498,0.7315 0.4413,0.6994 0.4321,0.6674 0.4223,0.6359 0.4117,0.6046 0.4006,0.5738 0.3886,0.5431 0.3762,0.513 0.363,0.4831 0.3492,0.4537 0.3347,0.4246 0.3197,0.3959 0.304,0.3677 0.2877,0.3398 0.2708,0.3125 0.2533,0.2854 0.2353,0.259 0.2166,0.2329 0.1973,0.2074 0.1775,0.1822 0.1572,0.1577 0.1363,0.1336 0.1149,0.1099 0.0929,0.087 0.0704,0.0643 0.0474,0.0424 3.1411,2.6748 -10.989,13.9617 -3.3379,-2.4247 -0.0523,-0.0361 -0.0792,-0.0533 -0.1063,-0.0699 -0.1339,-0.0858 -0.1618,-0.1011 -0.1902,-0.1158 -0.2189,-0.1297 -0.2479,-0.1431 -0.2773,-0.1558 -0.307,-0.1678 -0.337,-0.1792 -0.3673,-0.1898 -0.3979,-0.1998 -0.4288,-0.2091 -0.46,-0.2177 -0.4913,-0.2256 -0.523,-0.2329 -0.5549,-0.2393 -0.587,-0.2451 -0.6193,-0.2502 -0.6517,-0.2545 -0.6845,-0.2581 -0.7173,-0.2611 -0.7503,-0.2632 -0.7834,-0.2646 -0.8168,-0.2654 -0.8501,-0.2652 -0.8836,-0.2645 -0.9172,-0.263 -0.9508,-0.2607 -0.9846,-0.2577 -1.0184,-0.2538 -1.0523,-0.2494 -1.0861,-0.2441 -1.1199,-0.238 -1.1539,-0.2312 -1.1877,-0.2237 -1.2215,-0.2154 -1.2554,-0.2062 -1.2891,-0.1965 -1.3228,-0.1859 -1.3565,-0.1745 -1.3899,-0.1625 -1.4234,-0.1495 -1.0914,0.1051 -6.0028,9.5302 0.3766,1.0297 0.7497,1.2192 0.7468,1.1834 0.7433,1.1481 0.739,1.1127 0.7339,1.0779 0.7283,1.0431 0.7219,1.0087 0.7147,0.9746 0.7069,0.9408 0.6984,0.9074 0.6892,0.8741 0.6794,0.8413 0.6688,0.8089 0.6576,0.7767 0.6459,0.745 0.6333,0.7137 0.6202,0.6827 0.6064,0.6521 0.5921,0.622 0.577,0.5923 0.5615,0.5631 0.5452,0.5342 0.5285,0.5058 0.511,0.4779 0.4931,0.4505 0.4746,0.4235 0.4555,0.3971 0.4359,0.3712 0.4157,0.3457 0.3951,0.3208 0.3738,0.2965 0.352,0.2725 0.3299,0.2493 0.3071,0.2266 0.284,0.2044 0.2602,0.1828 0.2362,0.1618 0.2115,0.1414 0.1865,0.1215 0.1611,0.1023 0.1353,0.0837 0.1089,0.0657 0.0823,0.0483 0.0552,0.0316 3.6285,1.9633 -7.846,15.9413 -3.7691,-1.6776 -0.0587,-0.0245 -0.0885,-0.0357 -0.1185,-0.0463 -0.1488,-0.0561 -0.1794,-0.0652 -0.2101,-0.0737 -0.241,-0.0814 -0.2723,-0.0884 -0.3036,-0.0948 -0.3352,-0.1003 -0.3668,-0.1051 -0.3988,-0.1093 -0.4308,-0.1127 -0.4629,-0.1154 -0.4951,-0.1174 -0.5276,-0.1185 -0.56,-0.119 -0.5925,-0.1187 -0.6251,-0.1177 -0.6578,-0.116 -0.6904,-0.1134 -0.7232,-0.1102 -0.7559,-0.1062 -0.7886,-0.1015 -0.8213,-0.0959 -0.8541,-0.0898 -0.8867,-0.0827 -0.9193,-0.075 -0.9518,-0.0666 -0.9843,-0.0573 -1.0166,-0.0473 -1.049,-0.0366 -1.081,-0.0251 -1.1131,-0.0129 -1.145,0 -1.1767,0.0137 -1.2083,0.0282 -1.2396,0.0433 -1.2708,0.0592 -1.3018,0.0759 -1.3326,0.0932 -1.3631,0.1113 -1.3933,0.1301 -1.4234,0.1496 -1.0457,0.3297 -3.8902,10.5701 0.5825,0.9289 0.9867,1.0366 0.9766,1.0024 0.9657,0.9683 0.9542,0.9349 0.9421,0.9016 0.9292,0.869 0.9158,0.8366 0.9017,0.8047 0.8871,0.7733 0.8718,0.7422 0.8559,0.7118 0.8394,0.6817 0.8224,0.6521 0.8048,0.623 0.7866,0.5945 0.7678,0.5664 0.7486,0.5388 0.7288,0.5118 0.7084,0.4853 0.6876,0.4594 0.6663,0.434 0.6444,0.4092 0.622,0.3849 0.5993,0.3612 0.576,0.3381 0.5523,0.3156 0.5281,0.2937 0.5035,0.2725 0.4785,0.2517 0.4531,0.2317 0.4273,0.2122 0.401,0.1934 0.3745,0.1753 0.3475,0.1578 0.3202,0.1409 0.2926,0.1247 0.2646,0.1091 0.2364,0.0943 0.2077,0.0801 0.1788,0.0666 0.1497,0.0537 0.1202,0.0417 0.0905,0.0301 0.0606,0.0194 3.9574,1.166 -4.3602,17.2243 -4.0355,-0.8574 -0.0625,-0.0117 -0.094,-0.0166 -0.1255,-0.0206 -0.1572,-0.0239 -0.189,-0.0265 -0.2208,-0.0284 -0.2528,-0.0295 -0.2846,-0.0299 -0.3167,-0.0296 -0.3487,-0.0284 -0.3808,-0.0266 -0.4127,-0.024 -0.4448,-0.0207 -0.4768,-0.0166 -0.5087,-0.0118 -0.5407,-0.0063 -0.5725,10e-5 -0.6042,0.007 -0.636,0.0149 -0.6675,0.0233 -0.6989,0.0326 -0.7303,0.0425 -0.7614,0.0533 -0.7925,0.0647 -0.8234,0.0769 -0.854,0.0898 -0.8845,0.1034 -0.9148,0.1178 -0.9449,0.1328 -0.9747,0.1486 -1.0043,0.1651 -1.0336,0.1823 -1.0626,0.2002 -1.0915,0.2188 -1.12,0.2381 -1.1481,0.258 -1.176,0.2788 -1.2035,0.3001 -1.2308,0.3221 -1.2576,0.3449 -1.284,0.3682 -1.3102,0.3923 -1.3358,0.4169 -1.3612,0.4423 -0.9543,0.5399 -1.6075,11.1479 0.7628,0.7875 1.1808,0.8089 1.1636,0.7774 1.146,0.7464 1.1277,0.716 1.1089,0.6861 1.0896,0.6568 1.0697,0.6279 1.0493,0.5996 1.0285,0.572 1.007,0.5448 0.9852,0.5182 0.9628,0.4923 0.94,0.4669 0.9168,0.4421 0.893,0.4179 0.8688,0.3944 0.8443,0.3714 0.8192,0.3491 0.7939,0.3274 0.7681,0.3064 0.7419,0.286 0.7154,0.2662 0.6885,0.2472 0.6612,0.2287 0.6337,0.211 0.6059,0.1939 0.5776,0.1775 0.5492,0.1617 0.5204,0.1468 0.4913,0.1324 0.4621,0.1188 0.4325,0.1058 0.4027,0.0936 0.3727,0.082 0.3426,0.0713 0.3121,0.0611 0.2815,0.0518 0.2508,0.0431 0.2198,0.0351 0.1888,0.028 0.1576,0.0214 0.1262,0.0157 0.0948,0.0107 0.0633,0.0064 4.1134,0.3177 -0.6838,17.7544 -4.1256,4e-4 -0.0636,0.0015 -0.0954,0.0034 -0.1271,0.0059 -0.1587,0.0093 -0.1904,0.0134 -0.2219,0.0181 -0.2533,0.0237 -0.2847,0.0299 -0.3159,0.037 -0.347,0.0447 -0.3779,0.0531 -0.4088,0.0624 -0.4393,0.0722 -0.4698,0.0829 -0.5001,0.0942 -0.5302,0.1063 -0.5599,0.119 -0.5896,0.1326 -0.619,0.1467 -0.648,0.1616 -0.6769,0.1772 -0.7055,0.1935 -0.7337,0.2104 -0.7617,0.2281 -0.7894,0.2464 -0.8167,0.2654 -0.8437,0.285 -0.8703,0.3054 -0.8966,0.3264 -0.9225,0.348 -0.948,0.3703 -0.9732,0.3932 -0.9978,0.4167 -1.0221,0.441 -1.046,0.4657 -1.0694,0.4911 -1.0923,0.5172 -1.1149,0.5438 -1.1368,0.571 -1.1584,0.5987 -1.1795,0.6272 -1.2,0.6561 -1.2199,0.6856 -1.2395,0.7156 -0.8212,0.7265 0.7454,11.2385 0.9099,0.6117 1.3231,0.5457 1.2999,0.5185 1.2761,0.4918 1.2519,0.4659 1.2273,0.4406 1.2023,0.4158 1.1769,0.3918 1.1511,0.3684 1.1249,0.3456 1.0983,0.3235 1.0714,0.3021 1.0442,0.2814 1.0165,0.2612 0.9886,0.2419 0.9604,0.2231 0.9318,0.2051 0.9031,0.1878 0.8739,0.1711 0.8446,0.1552 0.815,0.14 0.7851,0.1255 0.7552,0.1117 0.7248,0.0986 0.6944,0.0862 0.6637,0.0746 0.6329,0.0637 0.6019,0.0536 0.5708,0.044 0.5395,0.0354 0.5082,0.0273 0.4766,0.0201 0.4451,0.0136 0.4134,0.0078 0.3816,0.0028 0.3499,-0.0015 0.318,-0.0051 0.2861,-0.0079 0.2543,-0.01 0.2223,-0.0113 0.1905,-0.012 0.1586,-0.0117 0.1267,-0.0109 0.095,-0.0093 0.0632,-0.0069 4.0895,-0.5444 3.0225,17.5085 -4.0353,0.8582 -0.0619,0.0147 -0.0926,0.0231 -0.1231,0.0323 -0.1533,0.0421 -0.1834,0.0526 -0.2133,0.0639 -0.2429,0.0758 -0.2722,0.0885 -0.3013,0.1018 -0.3301,0.1159 -0.3587,0.1305 -0.3868,0.146 -0.4148,0.162 -0.4423,0.1787 -0.4696,0.1962 -0.4964,0.2142 -0.523,0.2328 -0.5491,0.2523 -0.575,0.2722 -0.6003,0.2928 -0.6252,0.314 -0.6499,0.336 -0.6739,0.3583 -0.6977,0.3815 -0.7208,0.4051 -0.7437,0.4294 -0.766,0.4543 -0.7878,0.4796 -0.8092,0.5057 -0.8299,0.5322 -0.8504,0.5593 -0.8701,0.5869 -0.8893,0.6151 -0.9082,0.6438 -0.9263,0.673 -0.9439,0.7028 -0.9609,0.733 -0.9774,0.7637 -0.9934,0.7948 -1.0085,0.8266 -1.0233,0.8587 -1.0373,0.8912 -1.0508,0.9242 -1.0636,0.9577 -0.6522,0.8814 3.0657,10.8379 1.0172,0.4092 1.4077,0.2587 1.3792,0.2368 1.3505,0.2158 1.3214,0.1955 1.2921,0.1757 1.2625,0.1568 1.2327,0.1386 1.2025,0.121 1.1721,0.1041 1.1416,0.0881 1.1108,0.0728 1.0798,0.0581 1.0487,0.0442 1.0172,0.031 0.9858,0.0185 0.9542,0.0069 0.9223,-0.0041 0.8904,-0.0143 0.8584,-0.0237 0.8263,-0.0325 0.7941,-0.0406 0.7618,-0.0477 0.7295,-0.0543 0.6972,-0.06 0.6647,-0.065 0.6323,-0.0693 0.5999,-0.0728 0.5675,-0.0755 0.5351,-0.0776 0.5027,-0.0789 0.4704,-0.0795 0.4382,-0.0792 0.406,-0.0783 0.3738,-0.0767 0.3419,-0.0742 0.31,-0.0711 0.2783,-0.0672 0.2466,-0.0626 0.2151,-0.0573 0.1838,-0.0513 0.1527,-0.0445 0.1217,-0.037 0.091,-0.0288 0.0604,-0.0199 3.887,-1.3828 6.5967,16.4976 -3.7688,1.6784 -0.0575,0.0272 -0.0857,0.0419 -0.1137,0.0571 -0.1413,0.0731 -0.1684,0.0896 -0.1954,0.1068 -0.2218,0.1247 -0.2478,0.1431 -0.2736,0.1623 -0.2988,0.1819 -0.3237,0.2023 -0.348,0.2232 -0.372,0.2447 -0.3955,0.2668 -0.4185,0.2895 -0.4411,0.3127 -0.4631,0.3365 -0.4847,0.3609 -0.5058,0.3858 -0.5263,0.4112 -0.5463,0.4372 -0.5658,0.4637 -0.5847,0.4907 -0.6031,0.5182 -0.6209,0.5461 -0.6382,0.5746 -0.6548,0.6036 -0.6708,0.633 -0.6864,0.6628 -0.7012,0.6932 -0.7154,0.7238 -0.7291,0.755 -0.742,0.7866 -0.7544,0.8186 -0.7662,0.8509 -0.7771,0.8836 -0.7876,0.9168 -0.7973,0.9502 -0.8063,0.984 -0.8147,1.0182 -0.8224,1.0526 -0.8294,1.0875 -0.8356,1.1225 -0.8413,1.1579 -0.4546,0.9977 5.252,9.9637 1.08,0.1887 1.4307,-0.0396 1.3984,-0.0551 1.3658,-0.0697 1.3332,-0.0835 1.3004,-0.0968 1.2675,-0.1091 1.2345,-0.1208 1.2014,-0.1316 1.1682,-0.1418 1.135,-0.1512 1.1016,-0.1598 1.0683,-0.1677 1.0349,-0.1748 1.0015,-0.1812 0.9681,-0.1867 0.9347,-0.1917 0.9014,-0.1957 0.868,-0.1992 0.8347,-0.2017 0.8014,-0.2036 0.7684,-0.2047 0.7352,-0.2051 0.7023,-0.2047 0.6694,-0.2037 0.6367,-0.2018 0.6041,-0.1992 0.5716,-0.196 0.5394,-0.1919 0.5073,-0.1871 0.4753,-0.1817 0.4436,-0.1755 0.4121,-0.1686 0.3809,-0.161 0.3497,-0.1527 0.319,-0.1437 0.2885,-0.134 0.2582,-0.1236 0.2282,-0.1126 0.1985,-0.1007 0.1691,-0.0884 0.1401,-0.0752 0.1114,-0.0615 0.083,-0.0471 0.0549,-0.0321 3.5146,-2.1607 9.8825,14.7655 -3.3374,2.4253 -0.0506,0.0386 -0.0752,0.0588 -0.0993,0.0795 -0.1229,0.1008 -0.1462,0.1227 -0.1689,0.1451 -0.191,0.1681 -0.2127,0.1915 -0.2338,0.2156 -0.2545,0.2401 -0.2745,0.2652 -0.2941,0.2907 -0.313,0.3167 -0.3313,0.3432 -0.3492,0.3701 -0.3664,0.3976 -0.3831,0.4255 -0.3991,0.4538 -0.4145,0.4825 -0.4293,0.5116 -0.4434,0.5413 -0.4571,0.5711 -0.4699,0.6016 -0.4822,0.6322 -0.4937,0.6633 -0.5048,0.6948 -0.515,0.7265 -0.5246,0.7586 -0.5335,0.7911 -0.5418,0.8237 -0.5493,0.8568 -0.5561,0.8901 -0.5623,0.9237 -0.5678,0.9575 -0.5724,0.9916 -0.5765,1.0259 -0.5798,1.0605 -0.5823,1.0952 -0.5841,1.1302 -0.5852,1.1653 -0.5856,1.2006 -0.5851,1.2361 -0.584,1.2718 -0.5821,1.3075 -0.2373,1.0704 7.2088,8.654 1.0957,-0.0399 1.3911,-0.3363 1.3564,-0.3446 1.3215,-0.3521 1.2867,-0.3589 1.2519,-0.365 1.2171,-0.3703 1.1824,-0.3748 1.1478,-0.3786 1.1132,-0.3815 1.0787,-0.3839 1.0443,-0.3854 1.0101,-0.3861 0.976,-0.3861 0.9419,-0.3855 0.9081,-0.3839 0.8745,-0.3818 0.8409,-0.3789 0.8076,-0.3752 0.7746,-0.3709 0.7416,-0.3658 0.7089,-0.36 0.6766,-0.3535 0.6444,-0.3462 0.6124,-0.3384 0.5808,-0.3298 0.5495,-0.3205 0.5184,-0.3105 0.4877,-0.2998 0.4573,-0.2886 0.4271,-0.2765 0.3975,-0.2639 0.368,-0.2506 0.3391,-0.2367 0.3103,-0.2221 0.2822,-0.2068 0.2543,-0.1911 0.2268,-0.1746 0.1998,-0.1575 0.1733,-0.1398 0.147,-0.1216 0.1214,-0.1028 0.0962,-0.0833 0.0714,-0.0633 0.0471,-0.0427 2.9884,-2.8442 12.7366,12.3881 -2.7603,3.0662 -0.0414,0.0483 -0.0613,0.0731 -0.0807,0.0984 -0.0993,0.1242 -0.1174,0.1504 -0.135,0.177 -0.152,0.2041 -0.1682,0.2316 -0.1839,0.2595 -0.199,0.2878 -0.2134,0.3164 -0.2271,0.3455 -0.2404,0.3748 -0.2527,0.4046 -0.2646,0.4347 -0.2758,0.4651 -0.2862,0.4958 -0.296,0.5268 -0.3051,0.5582 -0.3136,0.5897 -0.3212,0.6216 -0.3283,0.6537 -0.3346,0.6861 -0.3402,0.7187 -0.3451,0.7515 -0.3492,0.7845 -0.3527,0.8177 -0.3554,0.8511 -0.3574,0.8847 -0.3587,0.9184 -0.3592,0.9523 -0.3589,0.9863 -0.358,1.0204 -0.3562,1.0546 -0.3538,1.0889 -0.3506,1.1234 -0.3466,1.1578 -0.3419,1.1924 -0.3363,1.2269 -0.3302,1.2615 -0.3231,1.2962 -0.3154,1.3307 -0.3068,1.3654 -0.2975,1.3999 -0.01,1.0964 8.8506,6.9661 1.0634,-0.2669 1.2908,-0.6181 1.2551,-0.619 1.2194,-0.6192 1.1839,-0.6187 1.1487,-0.6173 1.1135,-0.6152 1.0787,-0.6124 1.044,-0.609 1.0095,-0.6047 0.9754,-0.5997 0.9414,-0.5941 0.9077,-0.5877 0.8743,-0.5806 0.8413,-0.5728 0.8084,-0.5644 0.7759,-0.5553 0.7438,-0.5454 0.712,-0.535 0.6805,-0.5238 0.6493,-0.512 0.6187,-0.4995 0.5882,-0.4864 0.5583,-0.4727 0.5287,-0.4583 0.4996,-0.4433 0.4708,-0.4277 0.4426,-0.4115 0.4147,-0.3947 0.3872,-0.3773 0.3604,-0.3593 0.3339,-0.3408 0.3079,-0.3217 0.2824,-0.302 0.2574,-0.2817 0.233,-0.261 0.209,-0.2398 0.1856,-0.2179 0.1627,-0.1956 0.1403,-0.1728 0.1186,-0.1495 0.0974,-0.1258 0.0767,-0.1015 0.0567,-0.0767 0.0372,-0.0516 2.3318,-3.4034 15.0338,9.4693 -2.0624,3.5731 -0.0305,0.0558 -0.0448,0.0843 -0.0583,0.113 -0.0714,0.1422 -0.0836,0.1715 -0.0953,0.2012 -0.1061,0.2313 -0.1164,0.2615 -0.126,0.292 -0.1348,0.3229 -0.1429,0.3538 -0.1504,0.3852 -0.1571,0.4166 -0.1631,0.4483 -0.1685,0.4802 -0.173,0.5123 -0.1769,0.5445 -0.18,0.5768 -0.1824,0.6094 -0.1841,0.6421 -0.185,0.6748 -0.1852,0.7076 -0.1846,0.7407 -0.1833,0.7737 -0.1813,0.8068 -0.1785,0.84 -0.175,0.8732 -0.1707,0.9064 -0.1657,0.9396 -0.1598,0.973 -0.1534,1.0061 -0.146,1.0394 -0.138,1.0725 -0.1292,1.1056 -0.1197,1.1387 -0.1093,1.1717 -0.0983,1.2046 -0.0865,1.2374 -0.0739,1.2701 -0.0607,1.3025 -0.0466,1.335 -0.0318,1.3673 -0.0162,1.3993 0,1.4312 0.2186,1.0744 10.1055,4.9738 0.9847,-0.4822 1.1341,-0.873 1.099,-0.8664 1.064,-0.8592 1.0294,-0.8513 0.9952,-0.8426 0.9613,-0.8333 0.9278,-0.8233 0.8945,-0.8127 0.8618,-0.8014 0.8293,-0.7894 0.7974,-0.7768 0.7657,-0.7636 0.7345,-0.7497 0.7037,-0.7353 0.6734,-0.7201 0.6436,-0.7045 0.6141,-0.6881 0.5852,-0.6713 0.5567,-0.6538 0.5287,-0.6359 0.5013,-0.6172 0.4743,-0.5981 0.4478,-0.5784 0.4219,-0.5582 0.3964,-0.5375 0.3717,-0.5163 0.3473,-0.4945 0.3235,-0.4723 0.3004,-0.4496 0.2778,-0.4264 0.2557,-0.4027 0.2343,-0.3786 0.2135,-0.3541 0.1932,-0.3292 0.1736,-0.3037 0.1546,-0.278 0.1362,-0.2517 0.1185,-0.2252 0.1013,-0.1982 0.085,-0.1709 0.0691,-0.1432 0.0539,-0.1153 0.0395,-0.0868 0.0256,-0.0582 1.5733,-3.8139 16.6741,6.1367 -1.2745,3.9239 -0.0182,0.0609 -0.0263,0.0917 -0.0336,0.1227 -0.0402,0.1539 -0.0462,0.1851 -0.0513,0.2167 -0.0558,0.2482 -0.0594,0.28 -0.0625,0.3119 -0.0647,0.3438 -0.0663,0.3759 -0.067,0.408 -0.0671,0.4402 -0.0663,0.4724 -0.065,0.5047 -0.0627,0.5371 -0.0598,0.5693 -0.0561,0.6017 -0.0518,0.634 -0.0465,0.6663 -0.0407,0.6985 -0.034,0.7307 -0.0266,0.7629 -0.0185,0.7949 -0.0096,0.8269 10e-5,0.8587 0.0104,0.8905 0.0215,0.9221 0.0333,0.9535 0.0459,0.9849 0.0592,1.0161 0.0732,1.047 0.0881,1.0778 0.1035,1.1083 0.1197,1.1387 0.1366,1.1688 0.1543,1.1987 0.1727,1.2284 0.1917,1.2576 0.2115,1.2868 0.232,1.3155 0.2532,1.344 0.275,1.3721 0.2976,1.3999 0.4372,1.0055 10.9188,2.764 0.8629,-0.6763 0.9279,-1.0898 0.8947,-1.076 0.8622,-1.0616 0.8299,-1.0467 0.7983,-1.0311 0.767,-1.015 0.7363,-0.9982 0.7061,-0.9809 0.6763,-0.9631 0.6471,-0.9446 0.6183,-0.9256 0.5903,-0.9061 0.5625,-0.886 0.5355,-0.8655 0.509,-0.8444 0.483,-0.8229 0.4577,-0.8008 0.4328,-0.7783 0.4086,-0.7553 0.385,-0.7318 0.362,-0.708 0.3395,-0.6836 0.3178,-0.6589 0.2966,-0.6337 0.2761,-0.6082 0.2561,-0.5823 0.2369,-0.5559 0.2183,-0.5292 0.2004,-0.5022 0.183,-0.4748 0.1664,-0.4471 0.1505,-0.4191 0.1351,-0.3908 0.1206,-0.3621 0.1067,-0.3332 0.0934,-0.304 0.0809,-0.2746 0.0691,-0.2449 0.0579,-0.2149 0.0475,-0.1848 0.0378,-0.1545 0.0289,-0.1239 0.0205,-0.0932 0.013,-0.0623 0.7459,-4.0576 17.5856,2.5359 -0.4308,4.103 -0.0051,0.0634 -0.0067,0.0952 -0.0073,0.127 -0.0074,0.1589 -0.0066,0.1907 -0.0052,0.2226 -0.0029,0.2544 0,0.2863 0.0038,0.318 0.0081,0.3497 0.0134,0.3815 0.0193,0.413 0.0259,0.4445 0.0333,0.4759 0.0414,0.5072 0.0503,0.5383 0.0599,0.5694 0.0702,0.6002 0.0812,0.6309 0.093,0.6614 0.1054,0.6917 0.1187,0.7218 0.1326,0.7518 0.1472,0.7813 0.1625,0.8108 0.1786,0.84 0.1953,0.8689 0.2127,0.8974 0.2309,0.9258 0.2497,0.9539 0.2691,0.9815 0.2894,1.0089 0.3101,1.0359 0.3317,1.0626 0.3539,1.089 0.3766,1.1148 0.4002,1.1405 0.4242,1.1655 0.4491,1.1904 0.4744,1.2146 0.5004,1.2385 0.5271,1.262 0.5543,1.285 0.5822,1.3074 0.6366,0.8926 11.2549,0.4335 0.7034,-0.841 0.681,-1.2588 0.6515,-1.2385 0.6226,-1.2177 0.5942,-1.1964 0.5664,-1.1745 0.5393,-1.1523 0.5127,-1.1295 0.4866,-1.1063 0.4613,-1.0826 0.4366,-1.0585 0.4124,-1.0339 0.389,-1.009 0.366,-0.9837 0.3439,-0.9579 0.3223,-0.9318 0.3014,-0.9053 0.2811,-0.8784 0.2615,-0.8513 0.2427,-0.8237 0.2244,-0.7959 0.2069,-0.7678 0.19,-0.7393 0.1738,-0.7105 0.1584,-0.6816 0.1436,-0.6523 0.1295,-0.6228 0.1161,-0.593 0.1035,-0.5631 0.0915,-0.5328 0.0804,-0.5025 0.0698,-0.472 0.06,-0.4412 0.051,-0.4103 0.0426,-0.3793 0.0351,-0.3481 0.0282,-0.3168 0.022,-0.2853 0.0167,-0.2539 0.0119,-0.2224 0.0081,-0.1906 0.0049,-0.159 0.0024,-0.1272 7e-4,-0.0954 -2e-4,-0.0636 -0.114,-4.124 17.7286,-1.1758 0.4316,4.103 0.0082,0.063 0.0133,0.0945 0.0192,0.1258 0.0258,0.1569 0.0332,0.1879 0.0412,0.2188 0.05,0.2495 0.0596,0.28 0.0697,0.3103 0.0808,0.3404 0.0923,0.3703 0.1047,0.4 0.1178,0.4294 0.1315,0.4586 0.146,0.4875 0.1611,0.5161 0.177,0.5445 0.1934,0.5725 0.2106,0.6002 0.2285,0.6276 0.247,0.6547 0.2661,0.6814 0.286,0.7077 0.3064,0.7337 0.3276,0.7593 0.3493,0.7844 0.3717,0.8093 0.3947,0.8336 0.4183,0.8576 0.4425,0.8811 0.4674,0.9041 0.4927,0.9267 0.5188,0.9488 0.5454,0.9704 0.5725,0.9916 0.6002,1.0122 0.6285,1.0323 0.6574,1.0519 0.6867,1.071 0.7165,1.0894 0.747,1.1074 0.778,1.1249 0.8093,1.1416 0.8413,1.1579 0.8084,0.7407 11.099,-1.916 0.5132,-0.9689 0.4044,-1.3729 0.3798,-1.3469 0.3557,-1.3205 0.3325,-1.2938 0.3099,-1.2667 0.2879,-1.2392 0.2666,-1.2114 0.246,-1.1833 0.2262,-1.1548 0.2069,-1.1261 0.1885,-1.0971 0.1706,-1.0679 0.1536,-1.0382 0.1372,-1.0085 0.1215,-0.9784 0.1065,-0.9482 0.0924,-0.9177 0.0789,-0.8871 0.066,-0.8562 0.0541,-0.8251 0.0427,-0.794 0.0321,-0.7626 0.0223,-0.7312 0.0132,-0.6996 0.0049,-0.6679 -0.0029,-0.6361 -0.0096,-0.6042 -0.0159,-0.5723 -0.0212,-0.5402 -0.0259,-0.5083 -0.0299,-0.4761 -0.033,-0.4441 -0.0354,-0.4119 -0.0372,-0.3798 -0.0381,-0.3478 -0.0383,-0.3158 -0.0377,-0.2837 -0.0365,-0.2518 -0.0345,-0.22 -0.0318,-0.1881 -0.0283,-0.1565 -0.0241,-0.1249 -0.0191,-0.0935 -0.0135,-0.0622 -0.9689,-4.0102 17.0967,-4.8361 1.2753,3.9236 0.0211,0.06 0.0327,0.0897 0.0449,0.119 0.0579,0.1481 0.0715,0.1769 0.0858,0.2054 0.1008,0.2337 0.1165,0.2615 0.1327,0.289 0.1497,0.3162 0.1674,0.343 0.1856,0.3695 0.2045,0.3955 0.224,0.4212 0.2441,0.4465 0.2649,0.4714 0.2863,0.4957 0.3082,0.5198 0.3308,0.5433 0.354,0.5664 0.3777,0.589 0.402,0.6112 0.4269,0.6328 0.4522,0.6539 0.4783,0.6746 0.5048,0.6947 0.5318,0.7144 0.5594,0.7333 0.5874,0.7519 0.6161,0.7698 0.6451,0.7872 0.6747,0.804 0.7047,0.8202 0.7352,0.8358 0.7661,0.8509 0.7976,0.8653 0.8294,0.879 0.8617,0.8923 0.8944,0.9048 0.9274,0.9166 0.9609,0.9279 0.9948,0.9385 1.029,0.9484 1.0637,0.9577 0.9447,0.5565 10.4581,-4.1818 0.3005,-1.0544 0.1102,-1.427 0.0914,-1.3964 0.0734,-1.3657 0.0563,-1.3346 0.0397,-1.3034 0.024,-1.272 0.009,-1.2403 -0.005,-1.2086 -0.0189,-1.1766 -0.0317,-1.1446 -0.0438,-1.1123 -0.0551,-1.0799 -0.0656,-1.0476 -0.0755,-1.0149 -0.0846,-0.9823 -0.0929,-0.9497 -0.1004,-0.9168 -0.1073,-0.8841 -0.1134,-0.8512 -0.1187,-0.8183 -0.1233,-0.7856 -0.1271,-0.7526 -0.1302,-0.7199 -0.1326,-0.687 -0.1341,-0.6543 -0.135,-0.6216 -0.1351,-0.589 -0.1345,-0.5565 -0.1331,-0.524 -0.131,-0.4917 -0.1282,-0.4596 -0.1246,-0.4275 -0.1203,-0.3955 -0.1153,-0.3639 -0.1096,-0.3322 -0.1031,-0.3009 -0.0959,-0.2697 -0.0881,-0.2387 -0.0795,-0.208 -0.0702,-0.1774 -0.0602,-0.1472 -0.0495,-0.1172 -0.0381,-0.0874 -0.0261,-0.058 -1.7816,-3.7212 15.7177,-8.285 2.0631,3.5727 0.0331,0.0543 0.0506,0.0809 0.0687,0.1071 0.0874,0.1328 0.1068,0.1582 0.1266,0.1831 0.1472,0.2076 0.1683,0.2315 0.1899,0.2551 0.2122,0.2782 0.235,0.3007 0.2584,0.3228 0.2822,0.3444 0.3067,0.3655 0.3316,0.3859 0.3572,0.406 0.383,0.4254 0.4096,0.4444 0.4366,0.4626 0.4639,0.4804 0.492,0.4977 0.5202,0.5142 0.5491,0.5302 0.5784,0.5456 0.6081,0.5604 0.6382,0.5746 0.6687,0.5882 0.6996,0.601 0.731,0.6133 0.7626,0.6249 0.7947,0.6358 0.8271,0.6462 0.8598,0.6558 0.8929,0.6647 0.9263,0.673 0.9601,0.6805 0.994,0.6874 1.0284,0.6936 1.0629,0.6991 1.0978,0.7038 1.1328,0.7078 1.1682,0.7112 1.2037,0.7137 1.2395,0.7156 1.0398,0.3479 9.3601,-6.2647 0.0748,-1.0939 -0.189,-1.4187 -0.2009,-1.3849 -0.2121,-1.3511 -0.2225,-1.3171 -0.2321,-1.2832 -0.241,-1.2492 -0.2492,-1.2151 -0.2565,-1.181 -0.2631,-1.147 -0.269,-1.113 -0.2741,-1.0789 -0.2784,-1.0449 -0.282,-1.0109 -0.2849,-0.9771 -0.2869,-0.9433 -0.2883,-0.9095 -0.2889,-0.876 -0.2888,-0.8424 -0.2879,-0.8091 -0.2862,-0.7758 -0.2839,-0.7427 -0.2809,-0.7097 -0.277,-0.6771 -0.2725,-0.6444 -0.2672,-0.6122 -0.2613,-0.5799 -0.2546,-0.5481 -0.2473,-0.5163 -0.2391,-0.4849 -0.2304,-0.4538 -0.2209,-0.4228 -0.2108,-0.3922 -0.1999,-0.362 -0.1885,-0.3319 -0.1762,-0.3022 -0.1634,-0.2728 -0.1499,-0.2439 -0.1358,-0.2152 -0.121,-0.1869 -0.1055,-0.159 -0.0895,-0.1314 -0.0728,-0.1043 -0.0555,-0.0777 -0.0376,-0.0513 -2.5163,-3.2694 13.6516,-11.3718 2.7609,3.0656 0.0437,0.0463 0.0663,0.0686 0.0895,0.0905 0.1131,0.1117 0.1373,0.1326 0.1619,0.1527 0.1871,0.1724 0.2128,0.1916 0.2388,0.21 0.2654,0.2279 0.2924,0.2454 0.3198,0.262 0.3477,0.2782 0.376,0.2937 0.4046,0.3085 0.4337,0.3229 0.4632,0.3365 0.493,0.3494 0.5232,0.3618 0.5537,0.3735 0.5846,0.3845 0.6159,0.3948 0.6473,0.4044 0.6792,0.4135 0.7113,0.4217 0.7437,0.4294 0.7764,0.4362 0.8093,0.4424 0.8425,0.448 0.8758,0.4527 0.9096,0.4567 0.9433,0.4601 0.9774,0.4626 1.0116,0.4646 1.046,0.4657 1.0806,0.466 1.1152,0.4658 1.1501,0.4646 1.1851,0.4628 1.2201,0.4602 1.2552,0.4568 1.2905,0.4528 1.3258,0.4478 1.3612,0.4423 1.0894,0.1241 7.8531,-8.0739 -0.1543,-1.0855 -0.4798,-1.3484 -0.4845,-1.3129 -0.4883,-1.2775 -0.4915,-1.2421 -0.4938,-1.2069 -0.4955,-1.1717 -0.4963,-1.1368 -0.4965,-1.1019 -0.4959,-1.0672 -0.4945,-1.0327 -0.4924,-0.9983 -0.4896,-0.9642 -0.486,-0.9303 -0.4818,-0.8965 -0.4768,-0.863 -0.4711,-0.8297 -0.4647,-0.7967 -0.4576,-0.764 -0.4498,-0.7315 -0.4413,-0.6994 -0.4321,-0.6674 -0.4223,-0.6359 -0.4117,-0.6046 -0.4006,-0.5738 -0.3886,-0.5431 -0.3762,-0.513 -0.363,-0.4831 -0.3492,-0.4537 -0.3347,-0.4246 -0.3197,-0.3959 -0.304,-0.3677 -0.2877,-0.3398 -0.2708,-0.3125 -0.2533,-0.2854 -0.2353,-0.259 -0.2166,-0.2329 -0.1973,-0.2074 -0.1775,-0.1822 -0.1572,-0.1577 -0.1363,-0.1336 -0.1149,-0.1099 -0.0929,-0.087 -0.0704,-0.0643 -0.0474,-0.0424 -3.1411,-2.6748 10.989,-13.9617 3.3379,2.4247 0.0523,0.0361 0.0792,0.0533 0.1063,0.0699 0.1339,0.0858 0.1618,0.1011 0.1902,0.1158 0.2189,0.1297 0.2479,0.1431 0.2773,0.1558 0.307,0.1678 0.337,0.1792 0.3673,0.1898 0.3979,0.1998 0.4288,0.2091 0.46,0.2177 0.4913,0.2256 0.523,0.2329 0.5549,0.2393 0.587,0.2451 0.6193,0.2502 0.6517,0.2545 0.6845,0.2581 0.7173,0.2611 0.7503,0.2632 0.7834,0.2646 0.8168,0.2654 0.8501,0.2652 0.8836,0.2645 0.9172,0.263 0.9508,0.2607 0.9846,0.2577 1.0184,0.2538 1.0523,0.2494 1.0861,0.2441 1.1199,0.238 1.1539,0.2312 1.1877,0.2237 1.2215,0.2154 1.2554,0.2062 1.2891,0.1965 1.3228,0.1859 1.3565,0.1745 1.3899,0.1625 1.4234,0.1495 1.0914,-0.1051 6.0028,-9.5302 -0.3766,-1.0297 -0.7497,-1.2192 -0.7468,-1.1834 -0.7433,-1.1481 -0.739,-1.1127 -0.7339,-1.0779 -0.7283,-1.0431 -0.7219,-1.0087 -0.7147,-0.9746 -0.7069,-0.9408 -0.6984,-0.9074 -0.6892,-0.8741 -0.6794,-0.8413 -0.6688,-0.8089 -0.6576,-0.7767 -0.6459,-0.745 -0.6333,-0.7137 -0.6202,-0.6827 -0.6064,-0.6521 -0.5921,-0.622 -0.577,-0.5923 -0.5615,-0.5631 -0.5452,-0.5342 -0.5285,-0.5058 -0.511,-0.4779 -0.4931,-0.4505 -0.4746,-0.4235 -0.4555,-0.3971 -0.4359,-0.3712 -0.4157,-0.3457 -0.3951,-0.3208 -0.3738,-0.2965 -0.352,-0.2725 -0.3299,-0.2493 -0.3071,-0.2266 -0.284,-0.2044 -0.2602,-0.1828 -0.2362,-0.1618 -0.2115,-0.1414 -0.1865,-0.1215 -0.1611,-0.1023 -0.1353,-0.0837 -0.1089,-0.0657 -0.0823,-0.0483 -0.0552,-0.0316 -3.6285,-1.9633 7.846,-15.9413 3.7691,1.6776 0.0587,0.0245 0.0885,0.0357 0.1185,0.0463 0.1488,0.0561 0.1794,0.0652 0.2101,0.0737 0.241,0.0814 0.2723,0.0884 0.3036,0.0948 0.3352,0.1003 0.3668,0.1051 0.3988,0.1093 0.4308,0.1127 0.4629,0.1154 0.4951,0.1174 0.5276,0.1185 0.56,0.119 0.5925,0.1187 0.6251,0.1177 0.6578,0.116 0.6904,0.1134 0.7232,0.1102 0.7559,0.1062 0.7886,0.1015 0.8213,0.0959 0.8541,0.0898 0.8867,0.0827 0.9193,0.075 0.9518,0.0666 0.9843,0.0573 1.0166,0.0473 1.049,0.0366 1.081,0.0251 1.1131,0.0129 1.145,0 1.1767,-0.0137 1.2083,-0.0282 1.2396,-0.0433 1.2708,-0.0592 1.3018,-0.0759 1.3326,-0.0932 1.3631,-0.1113 1.3933,-0.1301 1.4234,-0.1496 1.0457,-0.3297 3.8902,-10.5701 -0.5825,-0.9289 -0.9867,-1.0366 -0.9766,-1.0024 -0.9657,-0.9683 -0.9542,-0.9349 -0.9421,-0.9016 -0.9292,-0.869 -0.9158,-0.8366 -0.9017,-0.8047 -0.8871,-0.7733 -0.8718,-0.7422 -0.8559,-0.7118 -0.8394,-0.6817 -0.8224,-0.6521 -0.8048,-0.623 -0.7866,-0.5945 -0.7678,-0.5664 -0.7486,-0.5388 -0.7288,-0.5118 -0.7084,-0.4853 -0.6876,-0.4594 -0.6663,-0.434 -0.6444,-0.4092 -0.622,-0.3849 -0.5993,-0.3612 -0.576,-0.3381 -0.5523,-0.3156 -0.5281,-0.2937 -0.5035,-0.2725 -0.4785,-0.2517 -0.4531,-0.2317 -0.4273,-0.2122 -0.401,-0.1934 -0.3745,-0.1753 -0.3475,-0.1578 -0.3202,-0.1409 -0.2926,-0.1247 -0.2646,-0.1091 -0.2364,-0.0943 -0.2077,-0.0801 -0.1788,-0.0666 -0.1497,-0.0537 -0.1202,-0.0417 -0.0905,-0.0301 -0.0606,-0.0194 -3.9574,-1.166 4.3602,-17.2243 4.0355,0.8574 0.0625,0.0117 0.094,0.0166 0.1255,0.0206 0.1572,0.0239 0.189,0.0265 0.2208,0.0284 0.2528,0.0295 0.2846,0.0299 0.3167,0.0296 0.3487,0.0284 0.3808,0.0266 0.4127,0.024 0.4448,0.0207 0.4768,0.0166 0.5087,0.0118 0.5407,0.0063 0.5725,-10e-5 0.6042,-0.007 0.636,-0.0149 0.6675,-0.0233 0.6989,-0.0326 0.7303,-0.0425 0.7614,-0.0533 0.7925,-0.0647 0.8234,-0.0769 0.854,-0.0898 0.8845,-0.1034 0.9148,-0.1178 0.9449,-0.1328 0.9747,-0.1486 1.0043,-0.1651 1.0336,-0.1823 1.0626,-0.2002 1.0915,-0.2188 1.12,-0.2381 1.1481,-0.258 1.176,-0.2788 1.2035,-0.3001 1.2308,-0.3221 1.2576,-0.3449 1.284,-0.3682 1.3102,-0.3923 1.3358,-0.4169 1.3612,-0.4423 0.9543,-0.5399 1.6075,-11.1479 -0.7628,-0.7875 -1.1808,-0.8089 -1.1636,-0.7774 -1.146,-0.7464 -1.1277,-0.716 -1.1089,-0.6861 -1.0896,-0.6568 -1.0697,-0.6279 -1.0493,-0.5996 -1.0285,-0.572 -1.007,-0.5448 -0.9852,-0.5182 -0.9628,-0.4923 -0.94,-0.4669 -0.9168,-0.4421 -0.893,-0.4179 -0.8688,-0.3944 -0.8443,-0.3714 -0.8192,-0.3491 -0.7939,-0.3274 -0.7681,-0.3064 -0.7419,-0.286 -0.7154,-0.2662 -0.6885,-0.2472 -0.6612,-0.2287 -0.6337,-0.211 -0.6059,-0.1939 -0.5776,-0.1775 -0.5492,-0.1617 -0.5204,-0.1468 -0.4913,-0.1324 -0.4621,-0.1188 -0.4325,-0.1058 -0.4027,-0.0936 -0.3727,-0.082 -0.3426,-0.0713 -0.3121,-0.0611 -0.2815,-0.0518 -0.2508,-0.0431 -0.2198,-0.0351 -0.1888,-0.028 -0.1576,-0.0214 -0.1262,-0.0157 -0.0948,-0.0107 -0.0633,-0.0064 -4.1134,-0.3177 z"
     id="gearpoly1" /><g
     class="guides"
     id="g3194"><polyline
       fill="none"
       stroke="#444"
       stroke-width="0.5"
       stroke-miterlimit="10"
       points="10,0 -10,0"
       id="polyline3196" /><polyline
       fill="none"
       stroke="#444"
       stroke-width="0.5"
       stroke-miterlimit="10"
       points="0,10 0,-10"
       id="polyline3198" /></g><circle
     fill="#c00"
     class="firstmarker"
     stroke="none"
     stroke-miterlimit="10"
     cx="249.452"
     cy="-16.5441"
     r="6.5417"
     id="circle3200" /><g
     class="geartext"
     id="g3202"><g
       class="text"
       id="g3204"><polyline
         fill="none"
         stroke="#444"
         stroke-width="0.5"
         stroke-linecap="square"
         stroke-miterlimit="1"
         points="100.69 -173.77 98.08 -175.26 95.45 -176.7 92.8 -178.11 90.13 -179.47 "
         id="polyline3206" /><polyline
         fill="none"
         stroke="#444"
         stroke-width="0.5"
         stroke-linecap="square"
         stroke-miterlimit="1"
         points="92.6 -171.42 98.3 -181.98 "
         id="polyline3208" /><polyline
         fill="none"
         stroke="#444"
         stroke-width="0.5"
         stroke-linecap="square"
         stroke-miterlimit="1"
         points="103.69 -178.96 99.55 -177.87 95.45 -176.7 91.41 -175.45 87.44 -174.11 "
         id="polyline3210" /><polyline
         fill="none"
         stroke="#444"
         stroke-width="0.5"
         stroke-linecap="square"
         stroke-miterlimit="1"
         points="97.68 -168.58 96.61 -172.64 95.45 -176.7 94.19 -180.77 92.82 -184.83 "
         id="polyline3212" /><polyline
         fill="none"
         stroke="#444"
         stroke-width="0.5"
         stroke-linecap="square"
         stroke-miterlimit="1"
         points="108.99 -175.78 113.23 -176.66 103.51 -161.51 "
         id="polyline3214" /><polyline
         fill="none"
         stroke="#444"
         stroke-width="0.5"
         stroke-linecap="square"
         stroke-miterlimit="1"
         points="105.91 -159.94 103.51 -161.51 101.09 -163.04 "
         id="polyline3216" /><polyline
         fill="none"
         stroke="#444"
         stroke-width="0.5"
         stroke-linecap="square"
         stroke-miterlimit="1"
         points="142.91 -153.64 130.65 -140.46 131.55 -145.74 132.33 -151.07 132.97 -156.46 133.48 -161.9 122.03 -148.02 "
         id="polyline3218" /><polyline
         fill="none"
         stroke="#444"
         stroke-width="0.5"
         stroke-linecap="square"
         stroke-miterlimit="1"
         points="151.63 -136.23 149.57 -138.48 147.49 -140.69 145.37 -142.88 143.22 -145.04 "
         id="polyline3220" /><polyline
         fill="none"
         stroke="#444"
         stroke-width="0.5"
         stroke-linecap="square"
         stroke-miterlimit="1"
         points="147.16 -132.22 145.17 -134.4 143.15 -136.55 141.09 -138.68 139 -140.77 "
         id="polyline3222" /><polyline
         fill="none"
         stroke="#444"
         stroke-width="0.5"
         stroke-linecap="square"
         stroke-miterlimit="1"
         points="157.92 -133.57 162.21 -133.1 164.18 -130.66 166.12 -128.2 165.61 -123.91 163.21 -122.11 158.99 -122.7 158.41 -118.51 156 -116.72 151.87 -117.2 150.1 -119.46 148.3 -121.68 148.76 -125.82 "
         id="polyline3224" /><polyline
         fill="none"
         stroke="#444"
         stroke-width="0.5"
         stroke-linecap="square"
         stroke-miterlimit="1"
         points="157.14 -125.06 158.99 -122.7 "
         id="polyline3226" /><polyline
         fill="none"
         stroke="#444"
         stroke-width="0.5"
         stroke-linecap="square"
         stroke-miterlimit="1"
         points="164.28 -104.75 160.19 -105.54 158.6 -107.92 159.42 -112 169.24 -118.9 173.48 -118.05 175.22 -115.44 174.4 -111.2 164.28 -104.75 "
         id="polyline3228" /><polyline
         fill="none"
         stroke="#444"
         stroke-width="0.5"
         stroke-linecap="square"
         stroke-miterlimit="1"
         points="179.68 -89.71 181 -87.02 182.28 -84.3 183.52 -81.57 187.48 -80 190.24 -81.18 191.75 -85.23 190.45 -88.08 189.11 -90.92 187.73 -93.73 171.63 -85.69 "
         id="polyline3230" /><polyline
         fill="none"
         stroke="#444"
         stroke-width="0.5"
         stroke-linecap="square"
         stroke-miterlimit="1"
         points="178.61 -69.99 189.78 -74.36 "
         id="polyline3232" /><polyline
         fill="none"
         stroke="#444"
         stroke-width="0.5"
         stroke-linecap="square"
         stroke-miterlimit="1"
         points="192.58 -75.46 195.37 -76.55 "
         id="polyline3234" /><polyline
         fill="none"
         stroke="#444"
         stroke-width="0.5"
         stroke-linecap="square"
         stroke-miterlimit="1"
         points="187.04 -54.56 183.34 -56.46 185.33 -60.12 199.59 -64.75 "
         id="polyline3236" /><polyline
         fill="none"
         stroke="#444"
         stroke-width="0.5"
         stroke-linecap="square"
         stroke-miterlimit="1"
         points="195.68 -57.08 194.8 -59.99 193.89 -62.9 192.93 -65.79 191.92 -68.66 "
         id="polyline3238" /><polyline
         fill="none"
         stroke="#444"
         stroke-width="0.5"
         stroke-linecap="square"
         stroke-miterlimit="1"
         points="188.23 -37.02 187.65 -39.83 187.04 -42.62 186.38 -45.41 188.58 -48.95 194.39 -50.45 198.04 -48.25 198.74 -45.29 199.39 -42.32 200 -39.33 "
         id="polyline3240" /><polyline
         fill="none"
         stroke="#444"
         stroke-width="0.5"
         stroke-linecap="square"
         stroke-miterlimit="1"
         points="195.17 -32.36 198.6 -29.89 201.99 -27.32 202.38 -24.3 199.74 -20.96 190.79 -20.02 "
         id="polyline3242" /><polyline
         fill="none"
         stroke="#444"
         stroke-width="0.5"
         stroke-linecap="square"
         stroke-miterlimit="1"
         points="189.25 -31.38 207.01 -34.32 "
         id="polyline3244" /><polyline
         fill="none"
         stroke="#444"
         stroke-width="0.5"
         stroke-linecap="square"
         stroke-miterlimit="1"
         points="191.83 0 191.81 2.87 191.75 5.73 191.64 8.59 194.49 11.63 206.46 12.35 209.62 9.4 209.74 6.27 209.81 3.13 209.83 0 "
         id="polyline3246" /><polyline
         fill="none"
         stroke="#444"
         stroke-width="0.5"
         stroke-linecap="square"
         stroke-miterlimit="1"
         points="209.81 3.13 191.81 2.87 "
         id="polyline3248" /><polyline
         fill="none"
         stroke="#444"
         stroke-width="0.5"
         stroke-linecap="square"
         stroke-miterlimit="1"
         points="201.56 30.34 201.99 27.32 202.38 24.3 202.72 21.27 203.02 18.24 "
         id="polyline3250" /><polyline
         fill="none"
         stroke="#444"
         stroke-width="0.5"
         stroke-linecap="square"
         stroke-miterlimit="1"
         points="195.63 29.44 196.05 26.52 196.42 23.59 196.75 20.65 197.04 17.71 "
         id="polyline3252" /><polyline
         fill="none"
         stroke="#444"
         stroke-width="0.5"
         stroke-linecap="square"
         stroke-miterlimit="1"
         points="203.87 49.67 204.59 46.62 205.26 43.56 205.89 40.49 206.47 37.41 200.57 36.34 200 39.33 199.39 42.32 198.74 45.29 195.12 47.54 189.3 46.12 187.04 42.62 187.65 39.83 188.23 37.02 191.71 34.74 "
         id="polyline3254" /><polyline
         fill="none"
         stroke="#444"
         stroke-width="0.5"
         stroke-linecap="square"
         stroke-miterlimit="1"
         points="189.1 67.65 188.06 70.47 186.99 73.27 185.88 76.05 187.48 80 190.24 81.18 194.21 79.46 195.37 76.55 196.49 73.63 197.57 70.68 180.62 64.62 "
         id="polyline3256" /><polyline
         fill="none"
         stroke="#444"
         stroke-width="0.5"
         stroke-linecap="square"
         stroke-miterlimit="1"
         points="179.57 96.46 180.99 93.77 182.37 91.05 183.71 88.32 185.01 85.56 "
         id="polyline3258" /><polyline
         fill="none"
         stroke="#444"
         stroke-width="0.5"
         stroke-linecap="square"
         stroke-miterlimit="1"
         points="174.28 93.62 175.66 91.01 177 88.37 178.3 85.72 179.56 83.05 "
         id="polyline3260" /><polyline
         fill="none"
         stroke="#444"
         stroke-width="0.5"
         stroke-linecap="square"
         stroke-miterlimit="1"
         points="174 100.28 172.49 102.87 170.93 105.43 169.34 107.98 165.2 108.84 162.7 107.19 161.75 103.14 163.27 100.71 164.76 98.26 168.81 97.29 176.6 101.78 177.64 105.94 178.59 110.16 176.93 112.81 "
         id="polyline3262" /><polyline
         fill="none"
         stroke="#444"
         stroke-width="0.5"
         stroke-linecap="square"
         stroke-miterlimit="1"
         points="155.26 127.39 153.34 129.7 151.38 131.97 149.39 134.22 149.57 138.48 151.78 140.51 156.09 140.24 158.17 137.89 160.21 135.51 162.21 133.1 148.3 121.68 "
         id="polyline3264" /><polyline
         fill="none"
         stroke="#444"
         stroke-width="0.5"
         stroke-linecap="square"
         stroke-miterlimit="1"
         points="136.81 134.47 141.09 138.68 143.22 145.04 145.19 151.49 138.82 149.25 132.56 146.85 128.54 142.4 "
         id="polyline3266" /><polyline
         fill="none"
         stroke="#444"
         stroke-width="0.5"
         stroke-linecap="square"
         stroke-miterlimit="1"
         points="141.09 138.68 139 140.77 136.89 142.83 134.74 144.86 132.56 146.85 "
         id="polyline3268" /><polyline
         fill="none"
         stroke="#444"
         stroke-width="0.5"
         stroke-linecap="square"
         stroke-miterlimit="1"
         points="122.49 162.93 124.91 161.08 127.3 159.19 129.66 157.27 132 155.32 "
         id="polyline3270" /><polyline
         fill="none"
         stroke="#444"
         stroke-width="0.5"
         stroke-linecap="square"
         stroke-miterlimit="1"
         points="118.88 158.13 121.23 156.34 123.55 154.51 125.85 152.65 128.11 150.75 "
         id="polyline3272" /><polyline
         fill="none"
         stroke="#444"
         stroke-width="0.5"
         stroke-linecap="square"
         stroke-miterlimit="1"
         points="101.09 163.04 103.51 161.51 105.91 159.94 108.29 158.34 110.65 156.71 114.11 161.61 113.37 165.77 110.88 167.45 108.37 169.09 107.41 173.23 108.99 175.78 113.23 176.66 115.85 174.95 118.45 173.2 119.3 168.96 "
         id="polyline3274" /><polyline
         fill="none"
         stroke="#444"
         stroke-width="0.5"
         stroke-linecap="square"
         stroke-miterlimit="1"
         points="90.03 172.79 91.17 168.78 93.68 167.4 97.68 168.58 103.69 178.96 102.48 183.11 99.73 184.62 95.57 183.43 90.03 172.79 "
         id="polyline3276" /></g></g><path
     style="opacity:0.2;fill:none;stroke:#ff0000;stroke-miterlimit:10"
     d="M 250,0 C 250,138.07119 138.07119,250 0,250 -138.07119,250 -250,138.07119 -250,0 c 0,-138.07119 111.92881,-250 250,-250 138.07119,0 250,111.92881 250,250 z"
     id="circle3280" /><circle
     style="opacity:0.2;fill:none;stroke:#cccccc;stroke-miterlimit:10;stroke-dasharray:2, 2"
     sodipodi:ry="266.67001"
     sodipodi:rx="266.67001"
     sodipodi:cy="0"
     sodipodi:cx="0"
     d="M 266.67001,0 C 266.67001,147.27778 147.27778,266.67001 0,266.67001 -147.27778,266.67001 -266.67001,147.27778 -266.67001,0 c 0,-147.27778 119.39223,-266.67001 266.67001,-266.67001 147.27778,0 266.67001,119.39223 266.67001,266.67001 z"
     id="circle3282"
     r="266.67001"
     cy="0"
     cx="0"
     stroke-miterlimit="10"
     class="outer" /><circle
     style="opacity:0.2;fill:none;stroke:#0000ff;stroke-miterlimit:10;stroke-dasharray:2, 2"
     sodipodi:ry="234.92"
     sodipodi:rx="234.92"
     sodipodi:cy="0"
     sodipodi:cx="0"
     d="M 234.92,0 C 234.92,129.74273 129.74273,234.92 0,234.92 -129.74273,234.92 -234.92,129.74273 -234.92,0 c 0,-129.74273 105.17727,-234.92 234.92,-234.92 129.74273,0 234.92,105.17727 234.92,234.92 z"
     id="circle3284"
     r="234.92"
     cy="0"
     cx="0"
     stroke-miterlimit="10"
     class="base" /></svg>