<?xml version="1.0" encoding="UTF-8" standalone="no"?>
<!-- Generator: Iparigrafika Gear Generator by Abel Vincze http://geargenerator.com/ -->

<svg
   xmlns:dc="http://purl.org/dc/elements/1.1/"
   xmlns:cc="http://creativecommons.org/ns#"
   xmlns:rdf="http://www.w3.org/1999/02/22-rdf-syntax-ns#"
   xmlns:svg="http://www.w3.org/2000/svg"
   xmlns="http://www.w3.org/2000/svg"
   xmlns:sodipodi="http://sodipodi.sourceforge.net/DTD/sodipodi-0.dtd"
   xmlns:inkscape="http://www.inkscape.org/namespaces/inkscape"
   version="1.2"
   class="svggear"
   x="0px"
   y="0px"
   width="568px"
   height="568px"
   viewBox="-284 -284 568 568"
   overflow="scroll"
   xml:space="preserve"
   id="svg3463"
   inkscape:version="0.48.4 r9939"
   sodipodi:docname="32.svg"><metadata
     id="metadata3570"><rdf:RDF><cc:Work
         rdf:about=""><dc:format>image/svg+xml</dc:format><dc:type
           rdf:resource="http://purl.org/dc/dcmitype/StillImage" /></cc:Work></rdf:RDF></metadata><defs
     id="defs3568" /><sodipodi:namedview
     pagecolor="#ffffff"
     bordercolor="#666666"
     borderopacity="1"
     objecttolerance="10"
     gridtolerance="10"
     guidetolerance="10"
     inkscape:pageopacity="0"
     inkscape:pageshadow="2"
     inkscape:window-width="960"
     inkscape:window-height="1014"
     id="namedview3566"
     showgrid="false"
     inkscape:zoom="0.83098592"
     inkscape:cx="354.84259"
     inkscape:cy="283.56275"
     inkscape:window-x="1600"
     inkscape:window-y="27"
     inkscape:window-maximized="0"
     inkscape:current-layer="svg3463" /><path
     style="fill:#dddddd;stroke:#444444;stroke-width:1;stroke-miterlimit:10"
     d="m 247.5,0 3.1229,-4e-4 0.0626,-0.0015 0.0923,-0.0032 0.1222,-0.0055 0.1518,-0.0084 0.1815,-0.0122 0.211,-0.0164 0.2406,-0.0213 0.27,-0.0269 0.2993,-0.0332 0.3286,-0.04 0.3576,-0.0475 0.3867,-0.0556 0.4154,-0.0645 0.4442,-0.0738 0.4726,-0.0839 0.501,-0.0946 0.5292,-0.1059 0.5572,-0.1178 0.585,-0.1304 0.6126,-0.1436 0.6399,-0.1573 0.667,-0.1718 0.6939,-0.1867 0.7205,-0.2024 0.7469,-0.2186 0.773,-0.2355 0.7988,-0.2528 0.8243,-0.2709 0.8495,-0.2894 0.8745,-0.3086 0.899,-0.3284 0.9233,-0.3487 0.9473,-0.3696 0.9708,-0.391 0.994,-0.413 1.0168,-0.4356 1.0393,-0.4587 1.0614,-0.4823 1.0831,-0.5065 1.1044,-0.5313 1.1252,-0.5564 1.1457,-0.5822 1.1657,-0.6085 1.1852,-0.6352 1.2044,-0.6625 1.2231,-0.6903 0.9541,-0.7062 -0.7267,-11.514 -1.0354,-0.5807 -1.3001,-0.531 -1.2781,-0.5058 -1.2558,-0.4811 -1.2329,-0.4571 -1.2098,-0.4335 -1.1863,-0.4106 -1.1624,-0.3882 -1.1381,-0.3663 -1.1137,-0.345 -1.0887,-0.3244 -1.0635,-0.3043 -1.0381,-0.2848 -1.0122,-0.2658 -0.9862,-0.2476 -0.9598,-0.2298 -0.9332,-0.2127 -0.9063,-0.1962 -0.8792,-0.1804 -0.8519,-0.165 -0.8242,-0.1504 -0.7965,-0.1364 -0.7684,-0.123 -0.7403,-0.1102 -0.7119,-0.098 -0.6833,-0.0865 -0.6546,-0.0757 -0.6257,-0.0654 -0.5968,-0.0558 -0.5675,-0.0468 -0.5384,-0.0385 -0.5089,-0.0309 -0.4795,-0.0238 -0.4499,-0.0174 -0.4202,-0.0117 -0.3906,-0.0066 -0.3608,-0.0021 -0.3309,0.0016 -0.3011,0.0047 -0.2713,0.0073 -0.2413,0.0091 -0.2115,0.0102 -0.1815,0.0108 -0.1517,0.0107 -0.1219,0.0099 -0.092,0.0085 -0.0623,0.0064 -3.0982,0.3922 -2.7914,-17.1658 3.0627,-0.6096 0.0611,-0.0137 0.09,-0.0211 0.1187,-0.0292 0.1473,-0.0379 0.1756,-0.0473 0.2038,-0.0573 0.2318,-0.0679 0.2596,-0.079 0.2871,-0.0909 0.3144,-0.1034 0.3415,-0.1163 0.3684,-0.1301 0.3949,-0.1442 0.4212,-0.1591 0.4472,-0.1745 0.4729,-0.1905 0.4984,-0.2071 0.5235,-0.2243 0.5483,-0.242 0.5728,-0.2603 0.5969,-0.2791 0.6207,-0.2986 0.6441,-0.3186 0.6672,-0.339 0.6899,-0.3602 0.7122,-0.3817 0.7341,-0.4038 0.7556,-0.4265 0.7768,-0.4496 0.7974,-0.4733 0.8178,-0.4974 0.8375,-0.5221 0.8569,-0.5473 0.8759,-0.5729 0.8943,-0.599 0.9123,-0.6256 0.9299,-0.6527 0.9469,-0.6801 0.9634,-0.7081 0.9795,-0.7364 0.9951,-0.7653 1.0101,-0.7946 1.0246,-0.8242 1.0385,-0.8542 1.052,-0.8847 1.0649,-0.9156 0.798,-0.8788 -2.959,-11.151 -1.1287,-0.3675 -1.3788,-0.2672 -1.3522,-0.2467 -1.3255,-0.2269 -1.2984,-0.2078 -1.2711,-0.1892 -1.2436,-0.1712 -1.2158,-0.154 -1.1878,-0.1372 -1.1595,-0.1212 -1.1311,-0.1057 -1.1025,-0.091 -1.0736,-0.0767 -1.0447,-0.0633 -1.0155,-0.0504 -0.9862,-0.0382 -0.9568,-0.0265 -0.9272,-0.0157 -0.8975,-0.0053 -0.8676,0.0043 -0.8378,0.0133 -0.8078,0.0216 -0.7776,0.0293 -0.7476,0.0364 -0.7173,0.0427 -0.6871,0.0484 -0.6567,0.0535 -0.6265,0.058 -0.5962,0.0617 -0.5658,0.0648 -0.5355,0.0672 -0.5051,0.069 -0.4749,0.0702 -0.4447,0.0707 -0.4145,0.0705 -0.3843,0.0698 -0.3543,0.0682 -0.3243,0.0662 -0.2944,0.0634 -0.2646,0.06 -0.2349,0.056 -0.2054,0.0513 -0.176,0.046 -0.1467,0.0401 -0.1175,0.0335 -0.0887,0.0263 -0.0598,0.0184 -2.9621,0.9891 -6.0867,-16.2913 2.885,-1.1955 0.0572,-0.0253 0.0842,-0.0383 0.1107,-0.0518 0.137,-0.0659 0.1631,-0.0807 0.1887,-0.0959 0.2141,-0.1118 0.2391,-0.1282 0.2639,-0.1452 0.2882,-0.1626 0.3123,-0.1808 0.3358,-0.1994 0.3592,-0.2185 0.3821,-0.2382 0.4046,-0.2584 0.4267,-0.2791 0.4484,-0.3004 0.4696,-0.322 0.4906,-0.3444 0.511,-0.367 0.5309,-0.3903 0.5506,-0.4139 0.5696,-0.4381 0.5882,-0.4627 0.6064,-0.4878 0.624,-0.5133 0.6413,-0.5393 0.6579,-0.5657 0.6741,-0.5925 0.6898,-0.6198 0.7049,-0.6474 0.7196,-0.6755 0.7337,-0.7039 0.7473,-0.7328 0.7602,-0.7619 0.7728,-0.7916 0.7847,-0.8215 0.796,-0.8518 0.8068,-0.8825 0.817,-0.9134 0.8266,-0.9447 0.8357,-0.9763 0.8441,-1.0082 0.8519,-1.0405 0.8592,-1.073 0.8658,-1.1057 0.6113,-1.0176 -5.0777,-10.3595 -1.1787,-0.1402 -1.4044,0.007 -1.3744,0.0218 -1.3442,0.036 -1.3141,0.0495 -1.2836,0.0625 -1.253,0.0746 -1.2225,0.0862 -1.1917,0.0972 -1.1609,0.1073 -1.13,0.117 -1.099,0.1259 -1.0681,0.1341 -1.0369,0.1418 -1.0058,0.1487 -0.9747,0.1549 -0.9436,0.1606 -0.9124,0.1656 -0.8813,0.1698 -0.8502,0.1735 -0.819,0.1765 -0.788,0.1788 -0.7571,0.1805 -0.726,0.1814 -0.6952,0.1819 -0.6645,0.1816 -0.6337,0.1806 -0.6031,0.179 -0.5727,0.1768 -0.5423,0.1739 -0.512,0.1705 -0.482,0.1662 -0.4521,0.1615 -0.4223,0.1561 -0.3928,0.15 -0.3633,0.1434 -0.3342,0.1361 -0.3051,0.1281 -0.2764,0.1196 -0.2478,0.1105 -0.2195,0.1008 -0.1915,0.0904 -0.1636,0.0794 -0.136,0.0679 -0.1088,0.0558 -0.0818,0.0431 -0.0551,0.0298 -2.7122,1.5479 -9.1481,-14.7908 2.5963,-1.7354 0.0513,-0.036 0.075,-0.0539 0.0985,-0.0724 0.1216,-0.0914 0.1441,-0.1109 0.1664,-0.1309 0.1882,-0.1514 0.2095,-0.1724 0.2305,-0.1939 0.2509,-0.2158 0.271,-0.2382 0.2906,-0.261 0.3096,-0.2844 0.3283,-0.3082 0.3464,-0.3323 0.364,-0.357 0.3812,-0.3821 0.3978,-0.4075 0.414,-0.4334 0.4295,-0.4597 0.4446,-0.4863 0.4592,-0.5134 0.4732,-0.5408 0.4867,-0.5686 0.4995,-0.5967 0.512,-0.6252 0.5237,-0.6541 0.5349,-0.6831 0.5456,-0.7127 0.5556,-0.7424 0.5651,-0.7725 0.574,-0.8029 0.5822,-0.8335 0.59,-0.8645 0.597,-0.8957 0.6035,-0.9271 0.6093,-0.9588 0.6145,-0.9907 0.6192,-1.0229 0.6231,-1.0552 0.6264,-1.0879 0.6292,-1.1206 0.6311,-1.1535 0.6326,-1.1867 0.6334,-1.2199 0.6335,-1.2535 0.4009,-1.1172 -7.0011,-9.1698 -1.1834,0.0924 -1.3761,0.2808 -1.3437,0.2895 -1.3114,0.2976 -1.2791,0.3049 -1.2468,0.3117 -1.2144,0.3177 -1.1822,0.323 -1.1498,0.3278 -1.1177,0.3318 -1.0854,0.3351 -1.0534,0.3379 -1.0213,0.3399 -0.9894,0.3413 -0.9575,0.3421 -0.9257,0.3422 -0.8941,0.3415 -0.8626,0.3404 -0.8312,0.3385 -0.8,0.336 -0.7689,0.3329 -0.738,0.3291 -0.7073,0.3247 -0.6767,0.3196 -0.6464,0.314 -0.6162,0.3077 -0.5863,0.3008 -0.5566,0.2933 -0.5272,0.2851 -0.4979,0.2764 -0.469,0.267 -0.4403,0.2571 -0.4119,0.2466 -0.3837,0.2355 -0.356,0.2238 -0.3284,0.2114 -0.3012,0.1987 -0.2742,0.1852 -0.2478,0.1713 -0.2215,0.1567 -0.1956,0.1416 -0.1701,0.126 -0.145,0.1099 -0.1202,0.0931 -0.0958,0.0759 -0.0718,0.0582 -0.0482,0.04 -2.3581,2.0473 -11.8579,-12.7219 2.2079,-2.2085 0.0432,-0.0453 0.0631,-0.0676 0.0825,-0.0902 0.1014,-0.1134 0.1197,-0.1369 0.1377,-0.1608 0.155,-0.1852 0.1719,-0.21 0.1882,-0.2351 0.204,-0.2606 0.2193,-0.2865 0.2341,-0.3127 0.2482,-0.3393 0.2618,-0.3663 0.2749,-0.3936 0.2874,-0.4211 0.2993,-0.4491 0.3107,-0.4773 0.3214,-0.5058 0.3317,-0.5347 0.3412,-0.5637 0.3502,-0.5931 0.3586,-0.6228 0.3664,-0.6526 0.3735,-0.6827 0.3801,-0.713 0.3861,-0.7437 0.3913,-0.7744 0.3961,-0.8054 0.4001,-0.8365 0.4035,-0.8679 0.4063,-0.8995 0.4085,-0.9311 0.4099,-0.9629 0.4109,-0.9949 0.411,-1.0271 0.4105,-1.0592 0.4095,-1.0916 0.4077,-1.124 0.4053,-1.1566 0.4021,-1.1891 0.3985,-1.2218 0.394,-1.2545 0.3889,-1.2873 0.3832,-1.3201 0.3767,-1.3529 0.1753,-1.174 -8.6555,-7.6278 -1.1427,0.3215 -1.2948,0.5439 -1.2614,0.5461 -1.2282,0.5477 -1.195,0.5486 -1.162,0.5489 -1.1291,0.5485 -1.0964,0.5475 -1.0639,0.5458 -1.0314,0.5434 -0.9992,0.5405 -0.9672,0.5369 -0.9354,0.5326 -0.9038,0.5278 -0.8723,0.5223 -0.8412,0.5162 -0.8103,0.5095 -0.7796,0.5021 -0.7492,0.4941 -0.7191,0.4857 -0.6892,0.4764 -0.6596,0.4668 -0.6303,0.4564 -0.6014,0.4455 -0.5727,0.4341 -0.5443,0.422 -0.5164,0.4094 -0.4887,0.3962 -0.4614,0.3825 -0.4345,0.3682 -0.4078,0.3534 -0.3817,0.3381 -0.3559,0.3222 -0.3304,0.3058 -0.3055,0.2889 -0.2808,0.2715 -0.2566,0.2536 -0.2329,0.2352 -0.2096,0.2162 -0.1867,0.197 -0.1642,0.177 -0.1423,0.1568 -0.1207,0.136 -0.0997,0.1148 -0.0792,0.0932 -0.0591,0.0711 -0.0395,0.0486 -1.9133,2.468 -14.112,-10.1641 1.7346,-2.5968 0.0336,-0.0529 0.0487,-0.0786 0.0633,-0.1046 0.0773,-0.1309 0.0907,-0.1576 0.1036,-0.1847 0.116,-0.2118 0.1276,-0.2395 0.1387,-0.2673 0.1493,-0.2954 0.1592,-0.3237 0.1685,-0.3524 0.1772,-0.3813 0.1854,-0.4103 0.1928,-0.4396 0.1997,-0.4691 0.206,-0.4989 0.2116,-0.5287 0.2166,-0.5589 0.2209,-0.589 0.2247,-0.6195 0.2278,-0.65 0.2302,-0.6808 0.232,-0.7115 0.2332,-0.7425 0.2337,-0.7735 0.2335,-0.8046 0.2328,-0.8359 0.2313,-0.8672 0.2292,-0.8985 0.2265,-0.93 0.223,-0.9614 0.219,-0.9929 0.2142,-1.0244 0.2088,-1.056 0.2028,-1.0875 0.196,-1.119 0.1886,-1.1505 0.1806,-1.1819 0.1719,-1.2134 0.1624,-1.2447 0.1524,-1.2761 0.1417,-1.3073 0.1304,-1.3384 0.1182,-1.3695 0.1056,-1.4004 -0.0571,-1.1857 -9.9773,-5.7926 -1.058,0.5383 -1.1638,0.786 -1.1307,0.7817 -1.0977,0.7768 -1.065,0.7712 -1.0326,0.7651 -1.0005,0.7582 -0.9685,0.7509 -0.9369,0.7428 -0.9056,0.7343 -0.8746,0.725 -0.8439,0.7153 -0.8134,0.7048 -0.7835,0.694 -0.7537,0.6824 -0.7243,0.6704 -0.6954,0.6578 -0.6666,0.6445 -0.6384,0.6309 -0.6105,0.6165 -0.583,0.6018 -0.5559,0.5865 -0.5292,0.5706 -0.5028,0.5543 -0.4771,0.5374 -0.4515,0.5201 -0.4266,0.5023 -0.402,0.4839 -0.3779,0.4652 -0.3543,0.4459 -0.3311,0.4262 -0.3084,0.406 -0.2862,0.3855 -0.2644,0.3644 -0.2432,0.3429 -0.2225,0.3211 -0.2022,0.2987 -0.1825,0.2761 -0.1634,0.253 -0.1447,0.2296 -0.1265,0.2057 -0.1089,0.1815 -0.0919,0.157 -0.0754,0.132 -0.0595,0.1069 -0.0441,0.0812 -0.0292,0.0554 -1.3952,2.7939 -15.8237,-7.2158 1.1947,-2.8853 0.0226,-0.0584 0.0325,-0.0865 0.0416,-0.115 0.0503,-0.1435 0.0582,-0.1723 0.0656,-0.2013 0.0724,-0.2304 0.0784,-0.2598 0.084,-0.2892 0.0887,-0.3188 0.093,-0.3486 0.0966,-0.3785 0.0994,-0.4085 0.1017,-0.4386 0.1034,-0.4688 0.1044,-0.4991 0.1046,-0.5294 0.1044,-0.5599 0.1034,-0.5903 0.1018,-0.6209 0.0995,-0.6514 0.0966,-0.682 0.093,-0.7125 0.0887,-0.7431 0.0839,-0.7737 0.0783,-0.8043 0.0721,-0.8347 0.0652,-0.8653 0.0577,-0.8956 0.0495,-0.926 0.0407,-0.9563 0.0312,-0.9864 0.021,-1.0166 0.0103,-1.0465 -0.0012,-1.0764 -0.0134,-1.1062 -0.026,-1.1357 -0.0394,-1.1652 -0.0535,-1.1945 -0.0682,-1.2235 -0.0835,-1.2526 -0.0994,-1.2812 -0.1161,-1.3098 -0.1333,-1.3382 -0.1512,-1.3662 -0.1696,-1.3941 -0.2874,-1.1518 -10.9156,-3.7348 -0.9327,0.7343 -0.9881,0.998 -0.9564,0.9873 -0.9251,0.976 -0.8941,0.9642 -0.8635,0.9518 -0.8333,0.9388 -0.8034,0.9254 -0.774,0.9113 -0.745,0.8968 -0.7163,0.8818 -0.6881,0.8661 -0.6604,0.8501 -0.633,0.8334 -0.6061,0.8164 -0.5796,0.7988 -0.5537,0.7808 -0.5281,0.7622 -0.503,0.7433 -0.4785,0.7238 -0.4544,0.704 -0.4308,0.6836 -0.4077,0.6629 -0.385,0.6417 -0.363,0.6202 -0.3415,0.5982 -0.3204,0.5758 -0.2998,0.5531 -0.28,0.53 -0.2604,0.5064 -0.2416,0.4826 -0.2233,0.4584 -0.2054,0.4339 -0.1883,0.409 -0.1716,0.3837 -0.1556,0.3583 -0.1401,0.3325 -0.1251,0.3064 -0.1108,0.28 -0.0972,0.2534 -0.0839,0.2265 -0.0715,0.1992 -0.0595,0.1719 -0.0482,0.1443 -0.0374,0.1163 -0.0274,0.0883 -0.0179,0.06 -0.8233,3.0124 -16.9273,-3.9901 0.6088,-3.0629 0.0107,-0.0617 0.015,-0.0912 0.0184,-0.1209 0.0213,-0.1505 0.0235,-0.1804 0.0251,-0.2102 0.026,-0.2401 0.0263,-0.2701 0.0259,-0.3 0.0248,-0.33 0.0232,-0.3601 0.0209,-0.39 0.0178,-0.4201 0.0142,-0.45 0.01,-0.4799 0.0049,-0.5099 -6e-4,-0.5397 -0.0068,-0.5695 -0.0138,-0.5991 -0.0213,-0.6288 -0.0295,-0.6583 -0.0383,-0.6877 -0.0478,-0.717 -0.058,-0.7462 -0.0687,-0.7752 -0.0801,-0.804 -0.0921,-0.8328 -0.1048,-0.8614 -0.1182,-0.8896 -0.1321,-0.9179 -0.1466,-0.9458 -0.1619,-0.9736 -0.1777,-1.0011 -0.1941,-1.0285 -0.2112,-1.0555 -0.2288,-1.0822 -0.2471,-1.1089 -0.266,-1.1351 -0.2855,-1.1611 -0.3056,-1.1867 -0.3262,-1.2122 -0.3475,-1.2373 -0.3694,-1.262 -0.3918,-1.2864 -0.4148,-1.3105 -0.4384,-1.3342 -0.5065,-1.0735 -11.4345,-1.5335 -0.7715,0.9021 -0.7745,1.1716 -0.7454,1.1549 -0.7169,1.1377 -0.6888,1.1201 -0.6612,1.102 -0.6341,1.0833 -0.6075,1.0644 -0.5813,1.0448 -0.5557,1.0249 -0.5306,1.0045 -0.5059,0.9838 -0.4818,0.9625 -0.4582,0.941 -0.4352,0.9189 -0.4127,0.8965 -0.3907,0.8738 -0.3692,0.8506 -0.3484,0.8272 -0.3281,0.8032 -0.3083,0.7791 -0.2891,0.7545 -0.2706,0.7297 -0.2525,0.7046 -0.235,0.679 -0.2182,0.6534 -0.2019,0.6272 -0.1862,0.601 -0.1711,0.5743 -0.1567,0.5476 -0.1428,0.5204 -0.1295,0.4932 -0.1169,0.4656 -0.1049,0.4379 -0.0934,0.4099 -0.0827,0.3817 -0.0725,0.3534 -0.063,0.325 -0.054,0.2962 -0.0459,0.2675 -0.0381,0.2385 -0.0312,0.2093 -0.0249,0.1802 -0.0191,0.1509 -0.014,0.1214 -0.0097,0.092 -0.0058,0.0623 -0.2198,3.1151 L 0,-247.5 l -4e-4,-3.1229 -0.0015,-0.0626 -0.0032,-0.0923 -0.0055,-0.1222 -0.0084,-0.1518 -0.0122,-0.1815 -0.0164,-0.211 -0.0213,-0.2406 -0.0269,-0.27 -0.0332,-0.2993 -0.04,-0.3286 -0.0475,-0.3576 -0.0556,-0.3867 -0.0645,-0.4154 -0.0738,-0.4442 -0.0839,-0.4726 -0.0946,-0.501 -0.1059,-0.5292 -0.1178,-0.5572 -0.1304,-0.585 -0.1436,-0.6126 -0.1573,-0.6399 -0.1718,-0.667 -0.1867,-0.6939 -0.2024,-0.7205 -0.2186,-0.7469 -0.2355,-0.773 -0.2528,-0.7988 -0.2709,-0.8243 -0.2894,-0.8495 -0.3086,-0.8745 -0.3284,-0.899 -0.3487,-0.9233 -0.3696,-0.9473 -0.391,-0.9708 -0.413,-0.994 -0.4356,-1.0168 -0.4587,-1.0393 -0.4823,-1.0614 -0.5065,-1.0831 -0.5313,-1.1044 -0.5564,-1.1252 -0.5822,-1.1457 -0.6085,-1.1657 -0.6352,-1.1852 -0.6625,-1.2044 -0.6903,-1.2231 -0.7062,-0.9541 -11.514,0.7267 -0.5807,1.0354 -0.531,1.3001 -0.5058,1.2781 -0.4811,1.2558 -0.4571,1.2329 -0.4335,1.2098 -0.4106,1.1863 -0.3882,1.1624 -0.3663,1.1381 -0.345,1.1137 -0.3244,1.0887 -0.3043,1.0635 -0.2848,1.0381 -0.2658,1.0122 -0.2476,0.9862 -0.2298,0.9598 -0.2127,0.9332 -0.1962,0.9063 -0.1804,0.8792 -0.165,0.8519 -0.1504,0.8242 -0.1364,0.7965 -0.123,0.7684 -0.1102,0.7403 -0.098,0.7119 -0.0865,0.6833 -0.0757,0.6546 -0.0654,0.6257 -0.0558,0.5968 -0.0468,0.5675 -0.0385,0.5384 -0.0309,0.5089 -0.0238,0.4795 -0.0174,0.4499 -0.0117,0.4202 -0.0066,0.3906 -0.0021,0.3608 0.0016,0.3309 0.0047,0.3011 0.0073,0.2713 0.0091,0.2413 0.0102,0.2115 0.0108,0.1815 0.0107,0.1517 0.0099,0.1219 0.0085,0.092 0.0064,0.0623 0.3922,3.0982 -17.1658,2.7914 -0.6096,-3.0627 -0.0137,-0.0611 -0.0211,-0.09 -0.0292,-0.1187 -0.0379,-0.1473 -0.0473,-0.1756 -0.0573,-0.2038 -0.0679,-0.2318 -0.079,-0.2596 -0.0909,-0.2871 -0.1034,-0.3144 -0.1163,-0.3415 -0.1301,-0.3684 -0.1442,-0.3949 -0.1591,-0.4212 -0.1745,-0.4472 -0.1905,-0.4729 -0.2071,-0.4984 -0.2243,-0.5235 -0.242,-0.5483 -0.2603,-0.5728 -0.2791,-0.5969 -0.2986,-0.6207 -0.3186,-0.6441 -0.339,-0.6672 -0.3602,-0.6899 -0.3817,-0.7122 -0.4038,-0.7341 -0.4265,-0.7556 -0.4496,-0.7768 -0.4733,-0.7974 -0.4974,-0.8178 -0.5221,-0.8375 -0.5473,-0.8569 -0.5729,-0.8759 -0.599,-0.8943 -0.6256,-0.9123 -0.6527,-0.9299 -0.6801,-0.9469 -0.7081,-0.9634 -0.7364,-0.9795 -0.7653,-0.9951 -0.7946,-1.0101 -0.8242,-1.0246 -0.8542,-1.0385 -0.8847,-1.052 -0.9156,-1.0649 -0.8788,-0.798 -11.151,2.959 -0.3675,1.1287 -0.2672,1.3788 -0.2467,1.3522 -0.2269,1.3255 -0.2078,1.2984 -0.1892,1.2711 -0.1712,1.2436 -0.154,1.2158 -0.1372,1.1878 -0.1212,1.1595 -0.1057,1.1311 -0.091,1.1025 -0.0767,1.0736 -0.0633,1.0447 -0.0504,1.0155 -0.0382,0.9862 -0.0265,0.9568 -0.0157,0.9272 -0.0053,0.8975 0.0043,0.8676 0.0133,0.8378 0.0216,0.8078 0.0293,0.7776 0.0364,0.7476 0.0427,0.7173 0.0484,0.6871 0.0535,0.6567 0.058,0.6265 0.0617,0.5962 0.0648,0.5658 0.0672,0.5355 0.069,0.5051 0.0702,0.4749 0.0707,0.4447 0.0705,0.4145 0.0698,0.3843 0.0682,0.3543 0.0662,0.3243 0.0634,0.2944 0.06,0.2646 0.056,0.2349 0.0513,0.2054 0.046,0.176 0.0401,0.1467 0.0335,0.1175 0.0263,0.0887 0.0184,0.0598 0.9891,2.9621 -16.2913,6.0867 -1.1955,-2.885 -0.0253,-0.0572 -0.0383,-0.0842 -0.0518,-0.1107 -0.0659,-0.137 -0.0807,-0.1631 -0.0959,-0.1887 -0.1118,-0.2141 -0.1282,-0.2391 -0.1452,-0.2639 -0.1626,-0.2882 -0.1808,-0.3123 -0.1994,-0.3358 -0.2185,-0.3592 -0.2382,-0.3821 -0.2584,-0.4046 -0.2791,-0.4267 -0.3004,-0.4484 -0.322,-0.4696 -0.3444,-0.4906 -0.367,-0.511 -0.3903,-0.5309 -0.4139,-0.5506 -0.4381,-0.5696 -0.4627,-0.5882 -0.4878,-0.6064 -0.5133,-0.624 -0.5393,-0.6413 -0.5657,-0.6579 -0.5925,-0.6741 -0.6198,-0.6898 -0.6474,-0.7049 -0.6755,-0.7196 -0.7039,-0.7337 -0.7328,-0.7473 -0.7619,-0.7602 -0.7916,-0.7728 -0.8215,-0.7847 -0.8518,-0.796 -0.8825,-0.8068 -0.9134,-0.817 -0.9447,-0.8266 -0.9763,-0.8357 -1.0082,-0.8441 -1.0405,-0.8519 -1.073,-0.8592 -1.1057,-0.8658 -1.0176,-0.6113 -10.3595,5.0777 -0.1402,1.1787 0.007,1.4044 0.0218,1.3744 0.036,1.3442 0.0495,1.3141 0.0625,1.2836 0.0746,1.253 0.0862,1.2225 0.0972,1.1917 0.1073,1.1609 0.117,1.13 0.1259,1.099 0.1341,1.0681 0.1418,1.0369 0.1487,1.0058 0.1549,0.9747 0.1606,0.9436 0.1656,0.9124 0.1698,0.8813 0.1735,0.8502 0.1765,0.819 0.1788,0.788 0.1805,0.7571 0.1814,0.726 0.1819,0.6952 0.1816,0.6645 0.1806,0.6337 0.179,0.6031 0.1768,0.5727 0.1739,0.5423 0.1705,0.512 0.1662,0.482 0.1615,0.4521 0.1561,0.4223 0.15,0.3928 0.1434,0.3633 0.1361,0.3342 0.1281,0.3051 0.1196,0.2764 0.1105,0.2478 0.1008,0.2195 0.0904,0.1915 0.0794,0.1636 0.0679,0.136 0.0558,0.1088 0.0431,0.0818 0.0298,0.0551 1.5479,2.7122 -14.7908,9.1481 -1.7354,-2.5963 -0.036,-0.0513 -0.0539,-0.075 -0.0724,-0.0985 -0.0914,-0.1216 -0.1109,-0.1441 -0.1309,-0.1664 -0.1514,-0.1882 -0.1724,-0.2095 -0.1939,-0.2305 -0.2158,-0.2509 -0.2382,-0.271 -0.261,-0.2906 -0.2844,-0.3096 -0.3082,-0.3283 -0.3323,-0.3464 -0.357,-0.364 -0.3821,-0.3812 -0.4075,-0.3978 -0.4334,-0.414 -0.4597,-0.4295 -0.4863,-0.4446 -0.5134,-0.4592 -0.5408,-0.4732 -0.5686,-0.4867 -0.5967,-0.4995 -0.6252,-0.512 -0.6541,-0.5237 -0.6831,-0.5349 -0.7127,-0.5456 -0.7424,-0.5556 -0.7725,-0.5651 -0.8029,-0.574 -0.8335,-0.5822 -0.8645,-0.59 -0.8957,-0.597 -0.9271,-0.6035 -0.9588,-0.6093 -0.9907,-0.6145 -1.0229,-0.6192 -1.0552,-0.6231 -1.0879,-0.6264 -1.1206,-0.6292 -1.1535,-0.6311 -1.1867,-0.6326 -1.2199,-0.6334 -1.2535,-0.6335 -1.1172,-0.4009 -9.1698,7.0011 0.0924,1.1834 0.2808,1.3761 0.2895,1.3437 0.2976,1.3114 0.3049,1.2791 0.3117,1.2468 0.3177,1.2144 0.323,1.1822 0.3278,1.1498 0.3318,1.1177 0.3351,1.0854 0.3379,1.0534 0.3399,1.0213 0.3413,0.9894 0.3421,0.9575 0.3422,0.9257 0.3415,0.8941 0.3404,0.8626 0.3385,0.8312 0.336,0.8 0.3329,0.7689 0.3291,0.738 0.3247,0.7073 0.3196,0.6767 0.314,0.6464 0.3077,0.6162 0.3008,0.5863 0.2933,0.5566 0.2851,0.5272 0.2764,0.4979 0.267,0.469 0.2571,0.4403 0.2466,0.4119 0.2355,0.3837 0.2238,0.356 0.2114,0.3284 0.1987,0.3012 0.1852,0.2742 0.1713,0.2478 0.1567,0.2215 0.1416,0.1956 0.126,0.1701 0.1099,0.145 0.0931,0.1202 0.0759,0.0958 0.0582,0.0718 0.04,0.0482 2.0473,2.3581 -12.7219,11.8579 -2.2085,-2.2079 -0.0453,-0.0432 -0.0676,-0.0631 -0.0902,-0.0825 -0.1134,-0.1014 -0.1369,-0.1197 -0.1608,-0.1377 -0.1852,-0.155 -0.21,-0.1719 -0.2351,-0.1882 -0.2606,-0.204 -0.2865,-0.2193 -0.3127,-0.2341 -0.3393,-0.2482 -0.3663,-0.2618 -0.3936,-0.2749 -0.4211,-0.2874 -0.4491,-0.2993 -0.4773,-0.3107 -0.5058,-0.3214 -0.5347,-0.3317 -0.5637,-0.3412 -0.5931,-0.3502 -0.6228,-0.3586 -0.6526,-0.3664 -0.6827,-0.3735 -0.713,-0.3801 -0.7437,-0.3861 -0.7744,-0.3913 -0.8054,-0.3961 -0.8365,-0.4001 -0.8679,-0.4035 -0.8995,-0.4063 -0.9311,-0.4085 -0.9629,-0.4099 -0.9949,-0.4109 -1.0271,-0.411 -1.0592,-0.4105 -1.0916,-0.4095 -1.124,-0.4077 -1.1566,-0.4053 -1.1891,-0.4021 -1.2218,-0.3985 -1.2545,-0.394 -1.2873,-0.3889 -1.3201,-0.3832 -1.3529,-0.3767 -1.174,-0.1753 -7.6278,8.6555 0.3215,1.1427 0.5439,1.2948 0.5461,1.2614 0.5477,1.2282 0.5486,1.195 0.5489,1.162 0.5485,1.1291 0.5475,1.0964 0.5458,1.0639 0.5434,1.0314 0.5405,0.9992 0.5369,0.9672 0.5326,0.9354 0.5278,0.9038 0.5223,0.8723 0.5162,0.8412 0.5095,0.8103 0.5021,0.7796 0.4941,0.7492 0.4857,0.7191 0.4764,0.6892 0.4668,0.6596 0.4564,0.6303 0.4455,0.6014 0.4341,0.5727 0.422,0.5443 0.4094,0.5164 0.3962,0.4887 0.3825,0.4614 0.3682,0.4345 0.3534,0.4078 0.3381,0.3817 0.3222,0.3559 0.3058,0.3304 0.2889,0.3055 0.2715,0.2808 0.2536,0.2566 0.2352,0.2329 0.2162,0.2096 0.197,0.1867 0.177,0.1642 0.1568,0.1423 0.136,0.1207 0.1148,0.0997 0.0932,0.0792 0.0711,0.0591 0.0486,0.0395 2.468,1.9133 -10.1641,14.112 -2.5968,-1.7346 -0.0529,-0.0336 -0.0786,-0.0487 -0.1046,-0.0633 -0.1309,-0.0773 -0.1576,-0.0907 -0.1847,-0.1036 -0.2118,-0.116 -0.2395,-0.1276 -0.2673,-0.1387 -0.2954,-0.1493 -0.3237,-0.1592 -0.3524,-0.1685 -0.3813,-0.1772 -0.4103,-0.1854 -0.4396,-0.1928 -0.4691,-0.1997 -0.4989,-0.206 -0.5287,-0.2116 -0.5589,-0.2166 -0.589,-0.2209 -0.6195,-0.2247 -0.65,-0.2278 -0.6808,-0.2302 -0.7115,-0.232 -0.7425,-0.2332 -0.7735,-0.2337 -0.8046,-0.2335 -0.8359,-0.2328 -0.8672,-0.2313 -0.8985,-0.2292 -0.93,-0.2265 -0.9614,-0.223 -0.9929,-0.219 -1.0244,-0.2142 -1.056,-0.2088 -1.0875,-0.2028 -1.119,-0.196 -1.1505,-0.1886 -1.1819,-0.1806 -1.2134,-0.1719 -1.2447,-0.1624 -1.2761,-0.1524 -1.3073,-0.1417 -1.3384,-0.1304 -1.3695,-0.1182 -1.4004,-0.1056 -1.1857,0.0571 -5.7926,9.9773 0.5383,1.058 0.786,1.1638 0.7817,1.1307 0.7768,1.0977 0.7712,1.065 0.7651,1.0326 0.7582,1.0005 0.7509,0.9685 0.7428,0.9369 0.7343,0.9056 0.725,0.8746 0.7153,0.8439 0.7048,0.8134 0.694,0.7835 0.6824,0.7537 0.6704,0.7243 0.6578,0.6954 0.6445,0.6666 0.6309,0.6384 0.6165,0.6105 0.6018,0.583 0.5865,0.5559 0.5706,0.5292 0.5543,0.5028 0.5374,0.4771 0.5201,0.4515 0.5023,0.4266 0.4839,0.402 0.4652,0.3779 0.4459,0.3543 0.4262,0.3311 0.406,0.3084 0.3855,0.2862 0.3644,0.2644 0.3429,0.2432 0.3211,0.2225 0.2987,0.2022 0.2761,0.1825 0.253,0.1634 0.2296,0.1447 0.2057,0.1265 0.1815,0.1089 0.157,0.0919 0.132,0.0754 0.1069,0.0595 0.0812,0.0441 0.0554,0.0292 2.7939,1.3952 -7.2158,15.8237 -2.8853,-1.1947 -0.0584,-0.0226 -0.0865,-0.0325 -0.115,-0.0416 -0.1435,-0.0503 -0.1723,-0.0582 -0.2013,-0.0656 -0.2304,-0.0724 -0.2598,-0.0784 -0.2892,-0.084 -0.3188,-0.0887 -0.3486,-0.093 -0.3785,-0.0966 -0.4085,-0.0994 -0.4386,-0.1017 -0.4688,-0.1034 -0.4991,-0.1044 -0.5294,-0.1046 -0.5599,-0.1044 -0.5903,-0.1034 -0.6209,-0.1018 -0.6514,-0.0995 -0.682,-0.0966 -0.7125,-0.093 -0.7431,-0.0887 -0.7737,-0.0839 -0.8043,-0.0783 -0.8347,-0.0721 -0.8653,-0.0652 -0.8956,-0.0577 -0.926,-0.0495 -0.9563,-0.0407 -0.9864,-0.0312 -1.0166,-0.021 -1.0465,-0.0103 -1.0764,0.0012 -1.1062,0.0134 -1.1357,0.026 -1.1652,0.0394 -1.1945,0.0535 -1.2235,0.0682 -1.2526,0.0835 -1.2812,0.0994 -1.3098,0.1161 -1.3382,0.1333 -1.3662,0.1512 -1.3941,0.1696 -1.1518,0.2874 -3.7348,10.9156 0.7343,0.9327 0.998,0.9881 0.9873,0.9564 0.976,0.9251 0.9642,0.8941 0.9518,0.8635 0.9388,0.8333 0.9254,0.8034 0.9113,0.774 0.8968,0.745 0.8818,0.7163 0.8661,0.6881 0.8501,0.6604 0.8334,0.633 0.8164,0.6061 0.7988,0.5796 0.7808,0.5537 0.7622,0.5281 0.7433,0.503 0.7238,0.4785 0.704,0.4544 0.6836,0.4308 0.6629,0.4077 0.6417,0.385 0.6202,0.363 0.5982,0.3415 0.5758,0.3204 0.5531,0.2998 0.53,0.28 0.5064,0.2604 0.4826,0.2416 0.4584,0.2233 0.4339,0.2054 0.409,0.1883 0.3837,0.1716 0.3583,0.1556 0.3325,0.1401 0.3064,0.1251 0.28,0.1108 0.2534,0.0972 0.2265,0.0839 0.1992,0.0715 0.1719,0.0595 0.1443,0.0482 0.1163,0.0374 0.0883,0.0274 0.06,0.0179 3.0124,0.8233 -3.9901,16.9273 -3.0629,-0.6088 -0.0617,-0.0107 -0.0912,-0.015 -0.1209,-0.0184 -0.1505,-0.0213 -0.1804,-0.0235 -0.2102,-0.0251 -0.2401,-0.026 -0.2701,-0.0263 -0.3,-0.0259 -0.33,-0.0248 -0.3601,-0.0232 -0.39,-0.0209 -0.4201,-0.0178 -0.45,-0.0142 -0.4799,-0.01 -0.5099,-0.0049 -0.5397,6e-4 -0.5695,0.0068 -0.5991,0.0138 -0.6288,0.0213 -0.6583,0.0295 -0.6877,0.0383 -0.717,0.0478 -0.7462,0.058 -0.7752,0.0687 -0.804,0.0801 -0.8328,0.0921 -0.8614,0.1048 -0.8896,0.1182 -0.9179,0.1321 -0.9458,0.1466 -0.9736,0.1619 -1.0011,0.1777 -1.0285,0.1941 -1.0555,0.2112 -1.0822,0.2288 -1.1089,0.2471 -1.1351,0.266 -1.1611,0.2855 -1.1867,0.3056 -1.2122,0.3262 -1.2373,0.3475 -1.262,0.3694 -1.2864,0.3918 -1.3105,0.4148 -1.3342,0.4384 -1.0735,0.5065 -1.5335,11.4345 0.9021,0.7715 1.1716,0.7745 1.1549,0.7454 1.1377,0.7169 1.1201,0.6888 1.102,0.6612 1.0833,0.6341 1.0644,0.6075 1.0448,0.5813 1.0249,0.5557 1.0045,0.5306 0.9838,0.5059 0.9625,0.4818 0.941,0.4582 0.9189,0.4352 0.8965,0.4127 0.8738,0.3907 0.8506,0.3692 0.8272,0.3484 0.8032,0.3281 0.7791,0.3083 0.7545,0.2891 0.7297,0.2706 0.7046,0.2525 0.679,0.235 0.6534,0.2182 0.6272,0.2019 0.601,0.1862 0.5743,0.1711 0.5476,0.1567 0.5204,0.1428 0.4932,0.1295 0.4656,0.1169 0.4379,0.1049 0.4099,0.0934 0.3817,0.0827 0.3534,0.0725 0.325,0.063 0.2962,0.054 0.2675,0.0459 0.2385,0.0381 0.2093,0.0312 0.1802,0.0249 0.1509,0.0191 0.1214,0.014 0.092,0.0097 0.0623,0.0058 3.1151,0.2198 L -247.5,0 l -3.1229,4e-4 -0.0626,0.0015 -0.0923,0.0032 -0.1222,0.0055 -0.1518,0.0084 -0.1815,0.0122 -0.211,0.0164 -0.2406,0.0213 -0.27,0.0269 -0.2993,0.0332 -0.3286,0.04 -0.3576,0.0475 -0.3867,0.0556 -0.4154,0.0645 -0.4442,0.0738 -0.4726,0.0839 -0.501,0.0946 -0.5292,0.1059 -0.5572,0.1178 -0.585,0.1304 -0.6126,0.1436 -0.6399,0.1573 -0.667,0.1718 -0.6939,0.1867 -0.7205,0.2024 -0.7469,0.2186 -0.773,0.2355 -0.7988,0.2528 -0.8243,0.2709 -0.8495,0.2894 -0.8745,0.3086 -0.899,0.3284 -0.9233,0.3487 -0.9473,0.3696 -0.9708,0.391 -0.994,0.413 -1.0168,0.4356 -1.0393,0.4587 -1.0614,0.4823 -1.0831,0.5065 -1.1044,0.5313 -1.1252,0.5564 -1.1457,0.5822 -1.1657,0.6085 -1.1852,0.6352 -1.2044,0.6625 -1.2231,0.6903 -0.9541,0.7062 0.7267,11.514 1.0354,0.5807 1.3001,0.531 1.2781,0.5058 1.2558,0.4811 1.2329,0.4571 1.2098,0.4335 1.1863,0.4106 1.1624,0.3882 1.1381,0.3663 1.1137,0.345 1.0887,0.3244 1.0635,0.3043 1.0381,0.2848 1.0122,0.2658 0.9862,0.2476 0.9598,0.2298 0.9332,0.2127 0.9063,0.1962 0.8792,0.1804 0.8519,0.165 0.8242,0.1504 0.7965,0.1364 0.7684,0.123 0.7403,0.1102 0.7119,0.098 0.6833,0.0865 0.6546,0.0757 0.6257,0.0654 0.5968,0.0558 0.5675,0.0468 0.5384,0.0385 0.5089,0.0309 0.4795,0.0238 0.4499,0.0174 0.4202,0.0117 0.3906,0.0066 0.3608,0.0021 0.3309,-0.0016 0.3011,-0.0047 0.2713,-0.0073 0.2413,-0.0091 0.2115,-0.0102 0.1815,-0.0108 0.1517,-0.0107 0.1219,-0.0099 0.092,-0.0085 0.0623,-0.0064 3.0982,-0.3922 2.7914,17.1658 -3.0627,0.6096 -0.0611,0.0137 -0.09,0.0211 -0.1187,0.0292 -0.1473,0.0379 -0.1756,0.0473 -0.2038,0.0573 -0.2318,0.0679 -0.2596,0.079 -0.2871,0.0909 -0.3144,0.1034 -0.3415,0.1163 -0.3684,0.1301 -0.3949,0.1442 -0.4212,0.1591 -0.4472,0.1745 -0.4729,0.1905 -0.4984,0.2071 -0.5235,0.2243 -0.5483,0.242 -0.5728,0.2603 -0.5969,0.2791 -0.6207,0.2986 -0.6441,0.3186 -0.6672,0.339 -0.6899,0.3602 -0.7122,0.3817 -0.7341,0.4038 -0.7556,0.4265 -0.7768,0.4496 -0.7974,0.4733 -0.8178,0.4974 -0.8375,0.5221 -0.8569,0.5473 -0.8759,0.5729 -0.8943,0.599 -0.9123,0.6256 -0.9299,0.6527 -0.9469,0.6801 -0.9634,0.7081 -0.9795,0.7364 -0.9951,0.7653 -1.0101,0.7946 -1.0246,0.8242 -1.0385,0.8542 -1.052,0.8847 -1.0649,0.9156 -0.798,0.8788 2.959,11.151 1.1287,0.3675 1.3788,0.2672 1.3522,0.2467 1.3255,0.2269 1.2984,0.2078 1.2711,0.1892 1.2436,0.1712 1.2158,0.154 1.1878,0.1372 1.1595,0.1212 1.1311,0.1057 1.1025,0.091 1.0736,0.0767 1.0447,0.0633 1.0155,0.0504 0.9862,0.0382 0.9568,0.0265 0.9272,0.0157 0.8975,0.0053 0.8676,-0.0043 0.8378,-0.0133 0.8078,-0.0216 0.7776,-0.0293 0.7476,-0.0364 0.7173,-0.0427 0.6871,-0.0484 0.6567,-0.0535 0.6265,-0.058 0.5962,-0.0617 0.5658,-0.0648 0.5355,-0.0672 0.5051,-0.069 0.4749,-0.0702 0.4447,-0.0707 0.4145,-0.0705 0.3843,-0.0698 0.3543,-0.0682 0.3243,-0.0662 0.2944,-0.0634 0.2646,-0.06 0.2349,-0.056 0.2054,-0.0513 0.176,-0.046 0.1467,-0.0401 0.1175,-0.0335 0.0887,-0.0263 0.0598,-0.0184 2.9621,-0.9891 6.0867,16.2913 -2.885,1.1955 -0.0572,0.0253 -0.0842,0.0383 -0.1107,0.0518 -0.137,0.0659 -0.1631,0.0807 -0.1887,0.0959 -0.2141,0.1118 -0.2391,0.1282 -0.2639,0.1452 -0.2882,0.1626 -0.3123,0.1808 -0.3358,0.1994 -0.3592,0.2185 -0.3821,0.2382 -0.4046,0.2584 -0.4267,0.2791 -0.4484,0.3004 -0.4696,0.322 -0.4906,0.3444 -0.511,0.367 -0.5309,0.3903 -0.5506,0.4139 -0.5696,0.4381 -0.5882,0.4627 -0.6064,0.4878 -0.624,0.5133 -0.6413,0.5393 -0.6579,0.5657 -0.6741,0.5925 -0.6898,0.6198 -0.7049,0.6474 -0.7196,0.6755 -0.7337,0.7039 -0.7473,0.7328 -0.7602,0.7619 -0.7728,0.7916 -0.7847,0.8215 -0.796,0.8518 -0.8068,0.8825 -0.817,0.9134 -0.8266,0.9447 -0.8357,0.9763 -0.8441,1.0082 -0.8519,1.0405 -0.8592,1.073 -0.8658,1.1057 -0.6113,1.0176 5.0777,10.3595 1.1787,0.1402 1.4044,-0.007 1.3744,-0.0218 1.3442,-0.036 1.3141,-0.0495 1.2836,-0.0625 1.253,-0.0746 1.2225,-0.0862 1.1917,-0.0972 1.1609,-0.1073 1.13,-0.117 1.099,-0.1259 1.0681,-0.1341 1.0369,-0.1418 1.0058,-0.1487 0.9747,-0.1549 0.9436,-0.1606 0.9124,-0.1656 0.8813,-0.1698 0.8502,-0.1735 0.819,-0.1765 0.788,-0.1788 0.7571,-0.1805 0.726,-0.1814 0.6952,-0.1819 0.6645,-0.1816 0.6337,-0.1806 0.6031,-0.179 0.5727,-0.1768 0.5423,-0.1739 0.512,-0.1705 0.482,-0.1662 0.4521,-0.1615 0.4223,-0.1561 0.3928,-0.15 0.3633,-0.1434 0.3342,-0.1361 0.3051,-0.1281 0.2764,-0.1196 0.2478,-0.1105 0.2195,-0.1008 0.1915,-0.0904 0.1636,-0.0794 0.136,-0.0679 0.1088,-0.0558 0.0818,-0.0431 0.0551,-0.0298 2.7122,-1.5479 9.1481,14.7908 -2.5963,1.7354 -0.0513,0.036 -0.075,0.0539 -0.0985,0.0724 -0.1216,0.0914 -0.1441,0.1109 -0.1664,0.1309 -0.1882,0.1514 -0.2095,0.1724 -0.2305,0.1939 -0.2509,0.2158 -0.271,0.2382 -0.2906,0.261 -0.3096,0.2844 -0.3283,0.3082 -0.3464,0.3323 -0.364,0.357 -0.3812,0.3821 -0.3978,0.4075 -0.414,0.4334 -0.4295,0.4597 -0.4446,0.4863 -0.4592,0.5134 -0.4732,0.5408 -0.4867,0.5686 -0.4995,0.5967 -0.512,0.6252 -0.5237,0.6541 -0.5349,0.6831 -0.5456,0.7127 -0.5556,0.7424 -0.5651,0.7725 -0.574,0.8029 -0.5822,0.8335 -0.59,0.8645 -0.597,0.8957 -0.6035,0.9271 -0.6093,0.9588 -0.6145,0.9907 -0.6192,1.0229 -0.6231,1.0552 -0.6264,1.0879 -0.6292,1.1206 -0.6311,1.1535 -0.6326,1.1867 -0.6334,1.2199 -0.6335,1.2535 -0.4009,1.1172 7.0011,9.1698 1.1834,-0.0924 1.3761,-0.2808 1.3437,-0.2895 1.3114,-0.2976 1.2791,-0.3049 1.2468,-0.3117 1.2144,-0.3177 1.1822,-0.323 1.1498,-0.3278 1.1177,-0.3318 1.0854,-0.3351 1.0534,-0.3379 1.0213,-0.3399 0.9894,-0.3413 0.9575,-0.3421 0.9257,-0.3422 0.8941,-0.3415 0.8626,-0.3404 0.8312,-0.3385 0.8,-0.336 0.7689,-0.3329 0.738,-0.3291 0.7073,-0.3247 0.6767,-0.3196 0.6464,-0.314 0.6162,-0.3077 0.5863,-0.3008 0.5566,-0.2933 0.5272,-0.2851 0.4979,-0.2764 0.469,-0.267 0.4403,-0.2571 0.4119,-0.2466 0.3837,-0.2355 0.356,-0.2238 0.3284,-0.2114 0.3012,-0.1987 0.2742,-0.1852 0.2478,-0.1713 0.2215,-0.1567 0.1956,-0.1416 0.1701,-0.126 0.145,-0.1099 0.1202,-0.0931 0.0958,-0.0759 0.0718,-0.0582 0.0482,-0.04 2.3581,-2.0473 11.8579,12.7219 -2.2079,2.2085 -0.0432,0.0453 -0.0631,0.0676 -0.0825,0.0902 -0.1014,0.1134 -0.1197,0.1369 -0.1377,0.1608 -0.155,0.1852 -0.1719,0.21 -0.1882,0.2351 -0.204,0.2606 -0.2193,0.2865 -0.2341,0.3127 -0.2482,0.3393 -0.2618,0.3663 -0.2749,0.3936 -0.2874,0.4211 -0.2993,0.4491 -0.3107,0.4773 -0.3214,0.5058 -0.3317,0.5347 -0.3412,0.5637 -0.3502,0.5931 -0.3586,0.6228 -0.3664,0.6526 -0.3735,0.6827 -0.3801,0.713 -0.3861,0.7437 -0.3913,0.7744 -0.3961,0.8054 -0.4001,0.8365 -0.4035,0.8679 -0.4063,0.8995 -0.4085,0.9311 -0.4099,0.9629 -0.4109,0.9949 -0.411,1.0271 -0.4105,1.0592 -0.4095,1.0916 -0.4077,1.124 -0.4053,1.1566 -0.4021,1.1891 -0.3985,1.2218 -0.394,1.2545 -0.3889,1.2873 -0.3832,1.3201 -0.3767,1.3529 -0.1753,1.174 8.6555,7.6278 1.1427,-0.3215 1.2948,-0.5439 1.2614,-0.5461 1.2282,-0.5477 1.195,-0.5486 1.162,-0.5489 1.1291,-0.5485 1.0964,-0.5475 1.0639,-0.5458 1.0314,-0.5434 0.9992,-0.5405 0.9672,-0.5369 0.9354,-0.5326 0.9038,-0.5278 0.8723,-0.5223 0.8412,-0.5162 0.8103,-0.5095 0.7796,-0.5021 0.7492,-0.4941 0.7191,-0.4857 0.6892,-0.4764 0.6596,-0.4668 0.6303,-0.4564 0.6014,-0.4455 0.5727,-0.4341 0.5443,-0.422 0.5164,-0.4094 0.4887,-0.3962 0.4614,-0.3825 0.4345,-0.3682 0.4078,-0.3534 0.3817,-0.3381 0.3559,-0.3222 0.3304,-0.3058 0.3055,-0.2889 0.2808,-0.2715 0.2566,-0.2536 0.2329,-0.2352 0.2096,-0.2162 0.1867,-0.197 0.1642,-0.177 0.1423,-0.1568 0.1207,-0.136 0.0997,-0.1148 0.0792,-0.0932 0.0591,-0.0711 0.0395,-0.0486 1.9133,-2.468 14.112,10.1641 -1.7346,2.5968 -0.0336,0.0529 -0.0487,0.0786 -0.0633,0.1046 -0.0773,0.1309 -0.0907,0.1576 -0.1036,0.1847 -0.116,0.2118 -0.1276,0.2395 -0.1387,0.2673 -0.1493,0.2954 -0.1592,0.3237 -0.1685,0.3524 -0.1772,0.3813 -0.1854,0.4103 -0.1928,0.4396 -0.1997,0.4691 -0.206,0.4989 -0.2116,0.5287 -0.2166,0.5589 -0.2209,0.589 -0.2247,0.6195 -0.2278,0.65 -0.2302,0.6808 -0.232,0.7115 -0.2332,0.7425 -0.2337,0.7735 -0.2335,0.8046 -0.2328,0.8359 -0.2313,0.8672 -0.2292,0.8985 -0.2265,0.93 -0.223,0.9614 -0.219,0.9929 -0.2142,1.0244 -0.2088,1.056 -0.2028,1.0875 -0.196,1.119 -0.1886,1.1505 -0.1806,1.1819 -0.1719,1.2134 -0.1624,1.2447 -0.1524,1.2761 -0.1417,1.3073 -0.1304,1.3384 -0.1182,1.3695 -0.1056,1.4004 0.0571,1.1857 9.9773,5.7926 1.058,-0.5383 1.1638,-0.786 1.1307,-0.7817 1.0977,-0.7768 1.065,-0.7712 1.0326,-0.7651 1.0005,-0.7582 0.9685,-0.7509 0.9369,-0.7428 0.9056,-0.7343 0.8746,-0.725 0.8439,-0.7153 0.8134,-0.7048 0.7835,-0.694 0.7537,-0.6824 0.7243,-0.6704 0.6954,-0.6578 0.6666,-0.6445 0.6384,-0.6309 0.6105,-0.6165 0.583,-0.6018 0.5559,-0.5865 0.5292,-0.5706 0.5028,-0.5543 0.4771,-0.5374 0.4515,-0.5201 0.4266,-0.5023 0.402,-0.4839 0.3779,-0.4652 0.3543,-0.4459 0.3311,-0.4262 0.3084,-0.406 0.2862,-0.3855 0.2644,-0.3644 0.2432,-0.3429 0.2225,-0.3211 0.2022,-0.2987 0.1825,-0.2761 0.1634,-0.253 0.1447,-0.2296 0.1265,-0.2057 0.1089,-0.1815 0.0919,-0.157 0.0754,-0.132 0.0595,-0.1069 0.0441,-0.0812 0.0292,-0.0554 1.3952,-2.7939 15.8237,7.2158 -1.1947,2.8853 -0.0226,0.0584 -0.0325,0.0865 -0.0416,0.115 -0.0503,0.1435 -0.0582,0.1723 -0.0656,0.2013 -0.0724,0.2304 -0.0784,0.2598 -0.084,0.2892 -0.0887,0.3188 -0.093,0.3486 -0.0966,0.3785 -0.0994,0.4085 -0.1017,0.4386 -0.1034,0.4688 -0.1044,0.4991 -0.1046,0.5294 -0.1044,0.5599 -0.1034,0.5903 -0.1018,0.6209 -0.0995,0.6514 -0.0966,0.682 -0.093,0.7125 -0.0887,0.7431 -0.0839,0.7737 -0.0783,0.8043 -0.0721,0.8347 -0.0652,0.8653 -0.0577,0.8956 -0.0495,0.926 -0.0407,0.9563 -0.0312,0.9864 -0.021,1.0166 -0.0103,1.0465 0.0012,1.0764 0.0134,1.1062 0.026,1.1357 0.0394,1.1652 0.0535,1.1945 0.0682,1.2235 0.0835,1.2526 0.0994,1.2812 0.1161,1.3098 0.1333,1.3382 0.1512,1.3662 0.1696,1.3941 0.2874,1.1518 10.9156,3.7348 0.9327,-0.7343 0.9881,-0.998 0.9564,-0.9873 0.9251,-0.976 0.8941,-0.9642 0.8635,-0.9518 0.8333,-0.9388 0.8034,-0.9254 0.774,-0.9113 0.745,-0.8968 0.7163,-0.8818 0.6881,-0.8661 0.6604,-0.8501 0.633,-0.8334 0.6061,-0.8164 0.5796,-0.7988 0.5537,-0.7808 0.5281,-0.7622 0.503,-0.7433 0.4785,-0.7238 0.4544,-0.704 0.4308,-0.6836 0.4077,-0.6629 0.385,-0.6417 0.363,-0.6202 0.3415,-0.5982 0.3204,-0.5758 0.2998,-0.5531 0.28,-0.53 0.2604,-0.5064 0.2416,-0.4826 0.2233,-0.4584 0.2054,-0.4339 0.1883,-0.409 0.1716,-0.3837 0.1556,-0.3583 0.1401,-0.3325 0.1251,-0.3064 0.1108,-0.28 0.0972,-0.2534 0.0839,-0.2265 0.0715,-0.1992 0.0595,-0.1719 0.0482,-0.1443 0.0374,-0.1163 0.0274,-0.0883 0.0179,-0.06 0.8233,-3.0124 16.9273,3.9901 -0.6088,3.0629 -0.0107,0.0617 -0.015,0.0912 -0.0184,0.1209 -0.0213,0.1505 -0.0235,0.1804 -0.0251,0.2102 -0.026,0.2401 -0.0263,0.2701 -0.0259,0.3 -0.0248,0.33 -0.0232,0.3601 -0.0209,0.39 -0.0178,0.4201 -0.0142,0.45 -0.01,0.4799 -0.0049,0.5099 6e-4,0.5397 0.0068,0.5695 0.0138,0.5991 0.0213,0.6288 0.0295,0.6583 0.0383,0.6877 0.0478,0.717 0.058,0.7462 0.0687,0.7752 0.0801,0.804 0.0921,0.8328 0.1048,0.8614 0.1182,0.8896 0.1321,0.9179 0.1466,0.9458 0.1619,0.9736 0.1777,1.0011 0.1941,1.0285 0.2112,1.0555 0.2288,1.0822 0.2471,1.1089 0.266,1.1351 0.2855,1.1611 0.3056,1.1867 0.3262,1.2122 0.3475,1.2373 0.3694,1.262 0.3918,1.2864 0.4148,1.3105 0.4384,1.3342 0.5065,1.0735 11.4345,1.5335 0.7715,-0.9021 0.7745,-1.1716 0.7454,-1.1549 0.7169,-1.1377 0.6888,-1.1201 0.6612,-1.102 0.6341,-1.0833 0.6075,-1.0644 0.5813,-1.0448 0.5557,-1.0249 0.5306,-1.0045 0.5059,-0.9838 0.4818,-0.9625 0.4582,-0.941 0.4352,-0.9189 0.4127,-0.8965 0.3907,-0.8738 0.3692,-0.8506 0.3484,-0.8272 0.3281,-0.8032 0.3083,-0.7791 0.2891,-0.7545 0.2706,-0.7297 0.2525,-0.7046 0.235,-0.679 0.2182,-0.6534 0.2019,-0.6272 0.1862,-0.601 0.1711,-0.5743 0.1567,-0.5476 0.1428,-0.5204 0.1295,-0.4932 0.1169,-0.4656 0.1049,-0.4379 0.0934,-0.4099 0.0827,-0.3817 0.0725,-0.3534 0.063,-0.325 0.054,-0.2962 0.0459,-0.2675 0.0381,-0.2385 0.0312,-0.2093 0.0249,-0.1802 0.0191,-0.1509 0.014,-0.1214 0.0097,-0.092 0.0058,-0.0623 0.2198,-3.1151 L 0,247.5 l 4e-4,3.1229 0.0015,0.0626 0.0032,0.0923 0.0055,0.1222 0.0084,0.1518 0.0122,0.1815 0.0164,0.211 0.0213,0.2406 0.0269,0.27 0.0332,0.2993 0.04,0.3286 0.0475,0.3576 0.0556,0.3867 0.0645,0.4154 0.0738,0.4442 0.0839,0.4726 0.0946,0.501 0.1059,0.5292 0.1178,0.5572 0.1304,0.585 0.1436,0.6126 0.1573,0.6399 0.1718,0.667 0.1867,0.6939 0.2024,0.7205 0.2186,0.7469 0.2355,0.773 0.2528,0.7988 0.2709,0.8243 0.2894,0.8495 0.3086,0.8745 0.3284,0.899 0.3487,0.9233 0.3696,0.9473 0.391,0.9708 0.413,0.994 0.4356,1.0168 0.4587,1.0393 0.4823,1.0614 0.5065,1.0831 0.5313,1.1044 0.5564,1.1252 0.5822,1.1457 0.6085,1.1657 0.6352,1.1852 0.6625,1.2044 0.6903,1.2231 0.7062,0.9541 11.514,-0.7267 0.5807,-1.0354 0.531,-1.3001 0.5058,-1.2781 0.4811,-1.2558 0.4571,-1.2329 0.4335,-1.2098 0.4106,-1.1863 0.3882,-1.1624 0.3663,-1.1381 0.345,-1.1137 0.3244,-1.0887 0.3043,-1.0635 0.2848,-1.0381 0.2658,-1.0122 0.2476,-0.9862 0.2298,-0.9598 0.2127,-0.9332 0.1962,-0.9063 0.1804,-0.8792 0.165,-0.8519 0.1504,-0.8242 0.1364,-0.7965 0.123,-0.7684 0.1102,-0.7403 0.098,-0.7119 0.0865,-0.6833 0.0757,-0.6546 0.0654,-0.6257 0.0558,-0.5968 0.0468,-0.5675 0.0385,-0.5384 0.0309,-0.5089 0.0238,-0.4795 0.0174,-0.4499 0.0117,-0.4202 0.0066,-0.3906 0.0021,-0.3608 -0.0016,-0.3309 -0.0047,-0.3011 -0.0073,-0.2713 -0.0091,-0.2413 -0.0102,-0.2115 -0.0108,-0.1815 -0.0107,-0.1517 -0.0099,-0.1219 -0.0085,-0.092 -0.0064,-0.0623 -0.3922,-3.0982 17.1658,-2.7914 0.6096,3.0627 0.0137,0.0611 0.0211,0.09 0.0292,0.1187 0.0379,0.1473 0.0473,0.1756 0.0573,0.2038 0.0679,0.2318 0.079,0.2596 0.0909,0.2871 0.1034,0.3144 0.1163,0.3415 0.1301,0.3684 0.1442,0.3949 0.1591,0.4212 0.1745,0.4472 0.1905,0.4729 0.2071,0.4984 0.2243,0.5235 0.242,0.5483 0.2603,0.5728 0.2791,0.5969 0.2986,0.6207 0.3186,0.6441 0.339,0.6672 0.3602,0.6899 0.3817,0.7122 0.4038,0.7341 0.4265,0.7556 0.4496,0.7768 0.4733,0.7974 0.4974,0.8178 0.5221,0.8375 0.5473,0.8569 0.5729,0.8759 0.599,0.8943 0.6256,0.9123 0.6527,0.9299 0.6801,0.9469 0.7081,0.9634 0.7364,0.9795 0.7653,0.9951 0.7946,1.0101 0.8242,1.0246 0.8542,1.0385 0.8847,1.052 0.9156,1.0649 0.8788,0.798 11.151,-2.959 0.3675,-1.1287 0.2672,-1.3788 0.2467,-1.3522 0.2269,-1.3255 0.2078,-1.2984 0.1892,-1.2711 0.1712,-1.2436 0.154,-1.2158 0.1372,-1.1878 0.1212,-1.1595 0.1057,-1.1311 0.091,-1.1025 0.0767,-1.0736 0.0633,-1.0447 0.0504,-1.0155 0.0382,-0.9862 0.0265,-0.9568 0.0157,-0.9272 0.0053,-0.8975 -0.0043,-0.8676 -0.0133,-0.8378 -0.0216,-0.8078 -0.0293,-0.7776 -0.0364,-0.7476 -0.0427,-0.7173 -0.0484,-0.6871 -0.0535,-0.6567 -0.058,-0.6265 -0.0617,-0.5962 -0.0648,-0.5658 -0.0672,-0.5355 -0.069,-0.5051 -0.0702,-0.4749 -0.0707,-0.4447 -0.0705,-0.4145 -0.0698,-0.3843 -0.0682,-0.3543 -0.0662,-0.3243 -0.0634,-0.2944 -0.06,-0.2646 -0.056,-0.2349 -0.0513,-0.2054 -0.046,-0.176 -0.0401,-0.1467 -0.0335,-0.1175 -0.0263,-0.0887 -0.0184,-0.0598 -0.9891,-2.9621 16.2913,-6.0867 1.1955,2.885 0.0253,0.0572 0.0383,0.0842 0.0518,0.1107 0.0659,0.137 0.0807,0.1631 0.0959,0.1887 0.1118,0.2141 0.1282,0.2391 0.1452,0.2639 0.1626,0.2882 0.1808,0.3123 0.1994,0.3358 0.2185,0.3592 0.2382,0.3821 0.2584,0.4046 0.2791,0.4267 0.3004,0.4484 0.322,0.4696 0.3444,0.4906 0.367,0.511 0.3903,0.5309 0.4139,0.5506 0.4381,0.5696 0.4627,0.5882 0.4878,0.6064 0.5133,0.624 0.5393,0.6413 0.5657,0.6579 0.5925,0.6741 0.6198,0.6898 0.6474,0.7049 0.6755,0.7196 0.7039,0.7337 0.7328,0.7473 0.7619,0.7602 0.7916,0.7728 0.8215,0.7847 0.8518,0.796 0.8825,0.8068 0.9134,0.817 0.9447,0.8266 0.9763,0.8357 1.0082,0.8441 1.0405,0.8519 1.073,0.8592 1.1057,0.8658 1.0176,0.6113 10.3595,-5.0777 0.1402,-1.1787 -0.007,-1.4044 -0.0218,-1.3744 -0.036,-1.3442 -0.0495,-1.3141 -0.0625,-1.2836 -0.0746,-1.253 -0.0862,-1.2225 -0.0972,-1.1917 -0.1073,-1.1609 -0.117,-1.13 -0.1259,-1.099 -0.1341,-1.0681 -0.1418,-1.0369 -0.1487,-1.0058 -0.1549,-0.9747 -0.1606,-0.9436 -0.1656,-0.9124 -0.1698,-0.8813 -0.1735,-0.8502 -0.1765,-0.819 -0.1788,-0.788 -0.1805,-0.7571 -0.1814,-0.726 -0.1819,-0.6952 -0.1816,-0.6645 -0.1806,-0.6337 -0.179,-0.6031 -0.1768,-0.5727 -0.1739,-0.5423 -0.1705,-0.512 -0.1662,-0.482 -0.1615,-0.4521 -0.1561,-0.4223 -0.15,-0.3928 -0.1434,-0.3633 -0.1361,-0.3342 -0.1281,-0.3051 -0.1196,-0.2764 -0.1105,-0.2478 -0.1008,-0.2195 -0.0904,-0.1915 -0.0794,-0.1636 -0.0679,-0.136 -0.0558,-0.1088 -0.0431,-0.0818 -0.0298,-0.0551 -1.5479,-2.7122 14.7908,-9.1481 1.7354,2.5963 0.036,0.0513 0.0539,0.075 0.0724,0.0985 0.0914,0.1216 0.1109,0.1441 0.1309,0.1664 0.1514,0.1882 0.1724,0.2095 0.1939,0.2305 0.2158,0.2509 0.2382,0.271 0.261,0.2906 0.2844,0.3096 0.3082,0.3283 0.3323,0.3464 0.357,0.364 0.3821,0.3812 0.4075,0.3978 0.4334,0.414 0.4597,0.4295 0.4863,0.4446 0.5134,0.4592 0.5408,0.4732 0.5686,0.4867 0.5967,0.4995 0.6252,0.512 0.6541,0.5237 0.6831,0.5349 0.7127,0.5456 0.7424,0.5556 0.7725,0.5651 0.8029,0.574 0.8335,0.5822 0.8645,0.59 0.8957,0.597 0.9271,0.6035 0.9588,0.6093 0.9907,0.6145 1.0229,0.6192 1.0552,0.6231 1.0879,0.6264 1.1206,0.6292 1.1535,0.6311 1.1867,0.6326 1.2199,0.6334 1.2535,0.6335 1.1172,0.4009 9.1698,-7.0011 -0.0924,-1.1834 -0.2808,-1.3761 -0.2895,-1.3437 -0.2976,-1.3114 -0.3049,-1.2791 -0.3117,-1.2468 -0.3177,-1.2144 -0.323,-1.1822 -0.3278,-1.1498 -0.3318,-1.1177 -0.3351,-1.0854 -0.3379,-1.0534 -0.3399,-1.0213 -0.3413,-0.9894 -0.3421,-0.9575 -0.3422,-0.9257 -0.3415,-0.8941 -0.3404,-0.8626 -0.3385,-0.8312 -0.336,-0.8 -0.3329,-0.7689 -0.3291,-0.738 -0.3247,-0.7073 -0.3196,-0.6767 -0.314,-0.6464 -0.3077,-0.6162 -0.3008,-0.5863 -0.2933,-0.5566 -0.2851,-0.5272 -0.2764,-0.4979 -0.267,-0.469 -0.2571,-0.4403 -0.2466,-0.4119 -0.2355,-0.3837 -0.2238,-0.356 -0.2114,-0.3284 -0.1987,-0.3012 -0.1852,-0.2742 -0.1713,-0.2478 -0.1567,-0.2215 -0.1416,-0.1956 -0.126,-0.1701 -0.1099,-0.145 -0.0931,-0.1202 -0.0759,-0.0958 -0.0582,-0.0718 -0.04,-0.0482 -2.0473,-2.3581 12.7219,-11.8579 2.2085,2.2079 0.0453,0.0432 0.0676,0.0631 0.0902,0.0825 0.1134,0.1014 0.1369,0.1197 0.1608,0.1377 0.1852,0.155 0.21,0.1719 0.2351,0.1882 0.2606,0.204 0.2865,0.2193 0.3127,0.2341 0.3393,0.2482 0.3663,0.2618 0.3936,0.2749 0.4211,0.2874 0.4491,0.2993 0.4773,0.3107 0.5058,0.3214 0.5347,0.3317 0.5637,0.3412 0.5931,0.3502 0.6228,0.3586 0.6526,0.3664 0.6827,0.3735 0.713,0.3801 0.7437,0.3861 0.7744,0.3913 0.8054,0.3961 0.8365,0.4001 0.8679,0.4035 0.8995,0.4063 0.9311,0.4085 0.9629,0.4099 0.9949,0.4109 1.0271,0.411 1.0592,0.4105 1.0916,0.4095 1.124,0.4077 1.1566,0.4053 1.1891,0.4021 1.2218,0.3985 1.2545,0.394 1.2873,0.3889 1.3201,0.3832 1.3529,0.3767 1.174,0.1753 7.6278,-8.6555 -0.3215,-1.1427 -0.5439,-1.2948 -0.5461,-1.2614 -0.5477,-1.2282 -0.5486,-1.195 -0.5489,-1.162 -0.5485,-1.1291 -0.5475,-1.0964 -0.5458,-1.0639 -0.5434,-1.0314 -0.5405,-0.9992 -0.5369,-0.9672 -0.5326,-0.9354 -0.5278,-0.9038 -0.5223,-0.8723 -0.5162,-0.8412 -0.5095,-0.8103 -0.5021,-0.7796 -0.4941,-0.7492 -0.4857,-0.7191 -0.4764,-0.6892 -0.4668,-0.6596 -0.4564,-0.6303 -0.4455,-0.6014 -0.4341,-0.5727 -0.422,-0.5443 -0.4094,-0.5164 -0.3962,-0.4887 -0.3825,-0.4614 -0.3682,-0.4345 -0.3534,-0.4078 -0.3381,-0.3817 -0.3222,-0.3559 -0.3058,-0.3304 -0.2889,-0.3055 -0.2715,-0.2808 -0.2536,-0.2566 -0.2352,-0.2329 -0.2162,-0.2096 -0.197,-0.1867 -0.177,-0.1642 -0.1568,-0.1423 -0.136,-0.1207 -0.1148,-0.0997 -0.0932,-0.0792 -0.0711,-0.0591 -0.0486,-0.0395 -2.468,-1.9133 10.1641,-14.112 2.5968,1.7346 0.0529,0.0336 0.0786,0.0487 0.1046,0.0633 0.1309,0.0773 0.1576,0.0907 0.1847,0.1036 0.2118,0.116 0.2395,0.1276 0.2673,0.1387 0.2954,0.1493 0.3237,0.1592 0.3524,0.1685 0.3813,0.1772 0.4103,0.1854 0.4396,0.1928 0.4691,0.1997 0.4989,0.206 0.5287,0.2116 0.5589,0.2166 0.589,0.2209 0.6195,0.2247 0.65,0.2278 0.6808,0.2302 0.7115,0.232 0.7425,0.2332 0.7735,0.2337 0.8046,0.2335 0.8359,0.2328 0.8672,0.2313 0.8985,0.2292 0.93,0.2265 0.9614,0.223 0.9929,0.219 1.0244,0.2142 1.056,0.2088 1.0875,0.2028 1.119,0.196 1.1505,0.1886 1.1819,0.1806 1.2134,0.1719 1.2447,0.1624 1.2761,0.1524 1.3073,0.1417 1.3384,0.1304 1.3695,0.1182 1.4004,0.1056 1.1857,-0.0571 5.7926,-9.9773 -0.5383,-1.058 -0.786,-1.1638 -0.7817,-1.1307 -0.7768,-1.0977 -0.7712,-1.065 -0.7651,-1.0326 -0.7582,-1.0005 -0.7509,-0.9685 -0.7428,-0.9369 -0.7343,-0.9056 -0.725,-0.8746 -0.7153,-0.8439 -0.7048,-0.8134 -0.694,-0.7835 -0.6824,-0.7537 -0.6704,-0.7243 -0.6578,-0.6954 -0.6445,-0.6666 -0.6309,-0.6384 -0.6165,-0.6105 -0.6018,-0.583 -0.5865,-0.5559 -0.5706,-0.5292 -0.5543,-0.5028 -0.5374,-0.4771 -0.5201,-0.4515 -0.5023,-0.4266 -0.4839,-0.402 -0.4652,-0.3779 -0.4459,-0.3543 -0.4262,-0.3311 -0.406,-0.3084 -0.3855,-0.2862 -0.3644,-0.2644 -0.3429,-0.2432 -0.3211,-0.2225 -0.2987,-0.2022 -0.2761,-0.1825 -0.253,-0.1634 -0.2296,-0.1447 -0.2057,-0.1265 -0.1815,-0.1089 -0.157,-0.0919 -0.132,-0.0754 -0.1069,-0.0595 -0.0812,-0.0441 -0.0554,-0.0292 -2.7939,-1.3952 7.2158,-15.8237 2.8853,1.1947 0.0584,0.0226 0.0865,0.0325 0.115,0.0416 0.1435,0.0503 0.1723,0.0582 0.2013,0.0656 0.2304,0.0724 0.2598,0.0784 0.2892,0.084 0.3188,0.0887 0.3486,0.093 0.3785,0.0966 0.4085,0.0994 0.4386,0.1017 0.4688,0.1034 0.4991,0.1044 0.5294,0.1046 0.5599,0.1044 0.5903,0.1034 0.6209,0.1018 0.6514,0.0995 0.682,0.0966 0.7125,0.093 0.7431,0.0887 0.7737,0.0839 0.8043,0.0783 0.8347,0.0721 0.8653,0.0652 0.8956,0.0577 0.926,0.0495 0.9563,0.0407 0.9864,0.0312 1.0166,0.021 1.0465,0.0103 1.0764,-0.0012 1.1062,-0.0134 1.1357,-0.026 1.1652,-0.0394 1.1945,-0.0535 1.2235,-0.0682 1.2526,-0.0835 1.2812,-0.0994 1.3098,-0.1161 1.3382,-0.1333 1.3662,-0.1512 1.3941,-0.1696 1.1518,-0.2874 3.7348,-10.9156 -0.7343,-0.9327 -0.998,-0.9881 -0.9873,-0.9564 -0.976,-0.9251 -0.9642,-0.8941 -0.9518,-0.8635 -0.9388,-0.8333 -0.9254,-0.8034 -0.9113,-0.774 -0.8968,-0.745 -0.8818,-0.7163 -0.8661,-0.6881 -0.8501,-0.6604 -0.8334,-0.633 -0.8164,-0.6061 -0.7988,-0.5796 -0.7808,-0.5537 -0.7622,-0.5281 -0.7433,-0.503 -0.7238,-0.4785 -0.704,-0.4544 -0.6836,-0.4308 -0.6629,-0.4077 -0.6417,-0.385 -0.6202,-0.363 -0.5982,-0.3415 -0.5758,-0.3204 -0.5531,-0.2998 -0.53,-0.28 -0.5064,-0.2604 -0.4826,-0.2416 -0.4584,-0.2233 -0.4339,-0.2054 -0.409,-0.1883 -0.3837,-0.1716 -0.3583,-0.1556 -0.3325,-0.1401 -0.3064,-0.1251 -0.28,-0.1108 -0.2534,-0.0972 -0.2265,-0.0839 -0.1992,-0.0715 -0.1719,-0.0595 -0.1443,-0.0482 -0.1163,-0.0374 -0.0883,-0.0274 -0.06,-0.0179 -3.0124,-0.8233 3.9901,-16.9273 3.0629,0.6088 0.0617,0.0107 0.0912,0.015 0.1209,0.0184 0.1505,0.0213 0.1804,0.0235 0.2102,0.0251 0.2401,0.026 0.2701,0.0263 0.3,0.0259 0.33,0.0248 0.3601,0.0232 0.39,0.0209 0.4201,0.0178 0.45,0.0142 0.4799,0.01 0.5099,0.0049 0.5397,-6e-4 0.5695,-0.0068 0.5991,-0.0138 0.6288,-0.0213 0.6583,-0.0295 0.6877,-0.0383 0.717,-0.0478 0.7462,-0.058 0.7752,-0.0687 0.804,-0.0801 0.8328,-0.0921 0.8614,-0.1048 0.8896,-0.1182 0.9179,-0.1321 0.9458,-0.1466 0.9736,-0.1619 1.0011,-0.1777 1.0285,-0.1941 1.0555,-0.2112 1.0822,-0.2288 1.1089,-0.2471 1.1351,-0.266 1.1611,-0.2855 1.1867,-0.3056 1.2122,-0.3262 1.2373,-0.3475 1.262,-0.3694 1.2864,-0.3918 1.3105,-0.4148 1.3342,-0.4384 1.0735,-0.5065 1.5335,-11.4345 -0.9021,-0.7715 -1.1716,-0.7745 -1.1549,-0.7454 -1.1377,-0.7169 -1.1201,-0.6888 -1.102,-0.6612 -1.0833,-0.6341 -1.0644,-0.6075 -1.0448,-0.5813 -1.0249,-0.5557 -1.0045,-0.5306 -0.9838,-0.5059 -0.9625,-0.4818 -0.941,-0.4582 -0.9189,-0.4352 -0.8965,-0.4127 -0.8738,-0.3907 -0.8506,-0.3692 -0.8272,-0.3484 -0.8032,-0.3281 -0.7791,-0.3083 -0.7545,-0.2891 -0.7297,-0.2706 -0.7046,-0.2525 -0.679,-0.235 -0.6534,-0.2182 -0.6272,-0.2019 -0.601,-0.1862 -0.5743,-0.1711 -0.5476,-0.1567 -0.5204,-0.1428 -0.4932,-0.1295 -0.4656,-0.1169 -0.4379,-0.1049 -0.4099,-0.0934 -0.3817,-0.0827 -0.3534,-0.0725 -0.325,-0.063 -0.2962,-0.054 -0.2675,-0.0459 -0.2385,-0.0381 -0.2093,-0.0312 -0.1802,-0.0249 -0.1509,-0.0191 -0.1214,-0.014 -0.092,-0.0097 -0.0623,-0.0058 -3.1151,-0.2198 z"
     id="gearpoly2" /><g
     class="guides"
     id="g3466"><polyline
       fill="none"
       stroke="#444"
       stroke-width="0.5"
       stroke-miterlimit="10"
       points="10,0 -10,0"
       id="polyline3468" /><polyline
       fill="none"
       stroke="#444"
       stroke-width="0.5"
       stroke-miterlimit="10"
       points="0,10 0,-10"
       id="polyline3470" /></g><circle
     fill="#c00"
     class="firstmarker"
     stroke="none"
     stroke-miterlimit="10"
     cx="266.1371"
     cy="-16.7978"
     r="6.5417"
     id="circle3472" /><g
     class="geartext"
     id="g3474"><g
       class="text"
       id="g3476"><polyline
         fill="none"
         stroke="#444"
         stroke-width="0.5"
         stroke-linecap="square"
         stroke-miterlimit="1"
         points="101.98 -192.11 99.32 -193.5 96.65 -194.85 93.95 -196.16 91.24 -197.44 "
         id="polyline3478" /><polyline
         fill="none"
         stroke="#444"
         stroke-width="0.5"
         stroke-linecap="square"
         stroke-miterlimit="1"
         points="93.98 -189.47 99.31 -200.22 "
         id="polyline3480" /><polyline
         fill="none"
         stroke="#444"
         stroke-width="0.5"
         stroke-linecap="square"
         stroke-miterlimit="1"
         points="104.8 -197.41 100.69 -196.17 96.65 -194.85 92.65 -193.46 88.72 -191.99 "
         id="polyline3482" /><polyline
         fill="none"
         stroke="#444"
         stroke-width="0.5"
         stroke-linecap="square"
         stroke-miterlimit="1"
         points="99.17 -186.81 97.95 -190.83 96.65 -194.85 95.25 -198.87 93.75 -202.89 "
         id="polyline3484" /><polyline
         fill="none"
         stroke="#444"
         stroke-width="0.5"
         stroke-linecap="square"
         stroke-miterlimit="1"
         points="112.65 -175.45 110.22 -176.98 107.77 -178.49 105.3 -179.96 102.81 -181.39 105.77 -186.61 109.84 -187.72 112.42 -186.19 114.98 -184.62 119.14 -185.54 120.76 -188.07 119.74 -192.26 117.07 -193.9 114.39 -195.49 110.2 -194.44 "
         id="polyline3486" /><polyline
         fill="none"
         stroke="#444"
         stroke-width="0.5"
         stroke-linecap="square"
         stroke-miterlimit="1"
         points="149.78 -169.91 137.88 -156.4 138.63 -161.71 139.27 -167.06 139.79 -172.46 140.18 -177.91 129.04 -163.77 "
         id="polyline3488" /><polyline
         fill="none"
         stroke="#444"
         stroke-width="0.5"
         stroke-linecap="square"
         stroke-miterlimit="1"
         points="158.99 -152.79 156.86 -154.96 154.71 -157.11 152.53 -159.23 150.32 -161.32 "
         id="polyline3490" /><polyline
         fill="none"
         stroke="#444"
         stroke-width="0.5"
         stroke-linecap="square"
         stroke-miterlimit="1"
         points="154.66 -148.63 152.59 -150.75 150.5 -152.84 148.38 -154.9 146.23 -156.93 "
         id="polyline3492" /><polyline
         fill="none"
         stroke="#444"
         stroke-width="0.5"
         stroke-linecap="square"
         stroke-miterlimit="1"
         points="165.36 -150.36 169.66 -150.05 171.72 -147.7 173.74 -145.32 173.4 -141.01 171.07 -139.12 166.84 -139.54 166.42 -135.34 164.09 -133.44 159.93 -133.77 158.07 -135.96 156.18 -138.13 156.48 -142.29 "
         id="polyline3494" /><polyline
         fill="none"
         stroke="#444"
         stroke-width="0.5"
         stroke-linecap="square"
         stroke-miterlimit="1"
         points="164.89 -141.83 166.84 -139.54 "
         id="polyline3496" /><polyline
         fill="none"
         stroke="#444"
         stroke-width="0.5"
         stroke-linecap="square"
         stroke-miterlimit="1"
         points="172.08 -117.73 170.44 -120.09 168.77 -122.43 167.07 -124.75 165.33 -127.04 170.09 -130.69 174.28 -130.13 176.05 -127.71 177.8 -125.27 181.99 -124.5 184.46 -126.2 185.16 -130.46 183.34 -133 181.49 -135.52 177.22 -136.18 "
         id="polyline3498" /><polyline
         fill="none"
         stroke="#444"
         stroke-width="0.5"
         stroke-linecap="square"
         stroke-miterlimit="1"
         points="190.51 -104.93 191.94 -102.29 193.34 -99.64 194.69 -96.96 198.71 -95.57 201.42 -96.87 202.75 -100.97 201.34 -103.76 199.89 -106.53 198.4 -109.27 182.63 -100.59 "
         id="polyline3500" /><polyline
         fill="none"
         stroke="#444"
         stroke-width="0.5"
         stroke-linecap="square"
         stroke-miterlimit="1"
         points="190.32 -85.15 201.27 -90.05 "
         id="polyline3502" /><polyline
         fill="none"
         stroke="#444"
         stroke-width="0.5"
         stroke-linecap="square"
         stroke-miterlimit="1"
         points="204.01 -91.28 206.75 -92.5 "
         id="polyline3504" /><polyline
         fill="none"
         stroke="#444"
         stroke-width="0.5"
         stroke-linecap="square"
         stroke-miterlimit="1"
         points="199.54 -70.12 195.74 -71.83 197.53 -75.6 211.54 -80.96 "
         id="polyline3506" /><polyline
         fill="none"
         stroke="#444"
         stroke-width="0.5"
         stroke-linecap="square"
         stroke-miterlimit="1"
         points="208.03 -73.1 207 -75.97 205.93 -78.81 204.83 -81.65 203.68 -84.46 "
         id="polyline3508" /><polyline
         fill="none"
         stroke="#444"
         stroke-width="0.5"
         stroke-linecap="square"
         stroke-miterlimit="1"
         points="201.75 -52.63 201 -55.41 200.22 -58.17 199.4 -60.93 201.4 -64.59 207.11 -66.42 210.88 -64.44 211.74 -61.52 212.57 -58.59 213.36 -55.66 "
         id="polyline3510" /><polyline
         fill="none"
         stroke="#444"
         stroke-width="0.5"
         stroke-linecap="square"
         stroke-miterlimit="1"
         points="208.97 -48.4 212.55 -46.15 216.1 -43.81 216.69 -40.82 214.28 -37.31 205.41 -35.77 "
         id="polyline3512" /><polyline
         fill="none"
         stroke="#444"
         stroke-width="0.5"
         stroke-linecap="square"
         stroke-miterlimit="1"
         points="203.12 -47.04 220.66 -51.1 "
         id="polyline3514" /><polyline
         fill="none"
         stroke="#444"
         stroke-width="0.5"
         stroke-linecap="square"
         stroke-miterlimit="1"
         points="207.9 -15.8 208.1 -12.93 208.26 -10.06 208.38 -7.19 211.45 -4.38 223.45 -4.62 226.37 -7.81 226.24 -10.93 226.06 -14.05 225.85 -17.17 "
         id="polyline3516" /><polyline
         fill="none"
         stroke="#444"
         stroke-width="0.5"
         stroke-linecap="square"
         stroke-miterlimit="1"
         points="226.06 -14.05 208.1 -12.93 "
         id="polyline3518" /><polyline
         fill="none"
         stroke="#444"
         stroke-width="0.5"
         stroke-linecap="square"
         stroke-miterlimit="1"
         points="220.08 13.68 220.24 10.64 220.37 7.6 220.45 4.56 220.49 1.52 "
         id="polyline3520" /><polyline
         fill="none"
         stroke="#444"
         stroke-width="0.5"
         stroke-linecap="square"
         stroke-miterlimit="1"
         points="214.09 13.31 214.25 10.35 214.37 7.4 214.45 4.44 214.49 1.48 "
         id="polyline3522" /><polyline
         fill="none"
         stroke="#444"
         stroke-width="0.5"
         stroke-linecap="square"
         stroke-miterlimit="1"
         points="224.13 32.69 224.56 29.59 224.95 26.49 225.29 23.39 225.59 20.28 219.61 19.74 219.32 22.77 218.99 25.79 218.61 28.81 215.22 31.39 209.29 30.52 206.71 27.24 207.07 24.39 207.39 21.53 210.65 18.94 "
         id="polyline3524" /><polyline
         fill="none"
         stroke="#444"
         stroke-width="0.5"
         stroke-linecap="square"
         stroke-miterlimit="1"
         points="208.36 36.29 205.41 35.77 "
         id="polyline3526" /><polyline
         fill="none"
         stroke="#444"
         stroke-width="0.5"
         stroke-linecap="square"
         stroke-miterlimit="1"
         points="219.04 44.4 221.34 48.06 220.66 51.1 219.93 54.14 216.26 56.41 213.36 55.66 211.19 51.99 207.55 54.14 204.65 53.39 202.46 49.84 203.12 47.04 203.75 44.24 207.28 42.02 "
         id="polyline3528" /><polyline
         fill="none"
         stroke="#444"
         stroke-width="0.5"
         stroke-linecap="square"
         stroke-miterlimit="1"
         points="211.89 49.07 211.19 51.99 "
         id="polyline3530" /><polyline
         fill="none"
         stroke="#444"
         stroke-width="0.5"
         stroke-linecap="square"
         stroke-miterlimit="1"
         points="214.62 62.36 216.61 66.19 215.68 69.17 214.71 72.14 210.86 74.1 208.03 73.1 206.17 69.27 202.37 71.11 199.54 70.12 197.64 66.41 198.54 63.67 199.4 60.93 203.1 59.01 "
         id="polyline3532" /><polyline
         fill="none"
         stroke="#444"
         stroke-width="0.5"
         stroke-linecap="square"
         stroke-miterlimit="1"
         points="207.11 66.42 206.17 69.27 "
         id="polyline3534" /><polyline
         fill="none"
         stroke="#444"
         stroke-width="0.5"
         stroke-linecap="square"
         stroke-miterlimit="1"
         points="197.29 91.55 196.01 94.27 194.69 96.96 193.34 99.64 194.59 103.71 197.24 105.12 201.34 103.76 202.75 100.97 204.12 98.17 205.46 95.34 189.13 87.77 "
         id="polyline3536" /><polyline
         fill="none"
         stroke="#444"
         stroke-width="0.5"
         stroke-linecap="square"
         stroke-miterlimit="1"
         points="185.35 119.44 186.98 116.87 188.58 114.28 190.13 111.67 191.66 109.03 "
         id="polyline3538" /><polyline
         fill="none"
         stroke="#444"
         stroke-width="0.5"
         stroke-linecap="square"
         stroke-miterlimit="1"
         points="180.31 116.19 181.89 113.69 183.44 111.17 184.96 108.63 186.44 106.07 "
         id="polyline3540" /><polyline
         fill="none"
         stroke="#444"
         stroke-width="0.5"
         stroke-linecap="square"
         stroke-miterlimit="1"
         points="179.51 122.81 177.8 125.27 176.05 127.71 174.28 130.13 170.09 130.69 167.71 128.87 167.07 124.75 168.77 122.43 170.44 120.09 174.56 119.42 181.99 124.5 182.7 128.73 183.34 133 181.49 135.52 "
         id="polyline3542" /><polyline
         fill="none"
         stroke="#444"
         stroke-width="0.5"
         stroke-linecap="square"
         stroke-miterlimit="1"
         points="158.89 148.53 156.82 150.71 154.73 152.86 152.61 154.98 152.53 159.23 154.6 161.4 158.92 161.39 161.13 159.18 163.31 156.94 165.46 154.68 152.31 142.38 "
         id="polyline3544" /><polyline
         fill="none"
         stroke="#444"
         stroke-width="0.5"
         stroke-linecap="square"
         stroke-miterlimit="1"
         points="140.02 154.49 144.05 158.93 145.81 165.41 147.42 171.96 141.19 169.37 135.07 166.64 131.29 161.97 "
         id="polyline3546" /><polyline
         fill="none"
         stroke="#444"
         stroke-width="0.5"
         stroke-linecap="square"
         stroke-miterlimit="1"
         points="144.05 158.93 141.84 160.91 139.61 162.85 137.35 164.76 135.07 166.64 "
         id="polyline3548" /><polyline
         fill="none"
         stroke="#444"
         stroke-width="0.5"
         stroke-linecap="square"
         stroke-miterlimit="1"
         points="124.21 182.19 126.71 180.46 129.19 178.69 131.64 176.89 134.07 175.06 "
         id="polyline3550" /><polyline
         fill="none"
         stroke="#444"
         stroke-width="0.5"
         stroke-linecap="square"
         stroke-miterlimit="1"
         points="120.83 177.23 123.26 175.55 125.67 173.83 128.06 172.08 130.42 170.3 "
         id="polyline3552" /><polyline
         fill="none"
         stroke="#444"
         stroke-width="0.5"
         stroke-linecap="square"
         stroke-miterlimit="1"
         points="102.81 181.39 105.3 179.96 107.77 178.49 110.22 176.98 112.65 175.45 115.89 180.5 114.98 184.62 112.42 186.19 109.84 187.72 108.72 191.83 110.2 194.44 114.39 195.49 117.07 193.9 119.74 192.26 120.76 188.07 "
         id="polyline3554" /><polyline
         fill="none"
         stroke="#444"
         stroke-width="0.5"
         stroke-linecap="square"
         stroke-miterlimit="1"
         points="91.36 190.75 92.65 186.79 95.21 185.49 99.17 186.81 104.8 197.41 103.43 201.5 100.65 202.91 96.54 201.57 91.36 190.75 "
         id="polyline3556" /></g></g><path
     style="opacity:0.2;fill:none;stroke:#ff0000;stroke-miterlimit:10"
     d="M 266.67001,0 C 266.67001,147.27778 147.27778,266.67001 0,266.67001 -147.27778,266.67001 -266.67001,147.27778 -266.67001,0 c 0,-147.27778 119.39223,-266.67001 266.67001,-266.67001 147.27778,0 266.67001,119.39223 266.67001,266.67001 z"
     id="circle3560" /><circle
     style="opacity:0.2;fill:none;stroke:#cccccc;stroke-miterlimit:10;stroke-dasharray:2, 2"
     sodipodi:ry="283.32999"
     sodipodi:rx="283.32999"
     sodipodi:cy="0"
     sodipodi:cx="0"
     d="M 283.32999,0 C 283.32999,156.47883 156.47883,283.32999 0,283.32999 -156.47883,283.32999 -283.32999,156.47883 -283.32999,0 c 0,-156.47883 126.85116,-283.32999 283.32999,-283.32999 156.47883,0 283.32999,126.85116 283.32999,283.32999 z"
     id="circle3562"
     r="283.32999"
     cy="0"
     cx="0"
     stroke-miterlimit="10"
     class="outer" /><circle
     style="opacity:0.2;fill:none;stroke:#0000ff;stroke-miterlimit:10;stroke-dasharray:2, 2"
     sodipodi:ry="250.58"
     sodipodi:rx="250.58"
     sodipodi:cy="0"
     sodipodi:cx="0"
     d="M 250.58,0 C 250.58,138.39151 138.39151,250.58 0,250.58 -138.39151,250.58 -250.58,138.39151 -250.58,0 c 0,-138.39151 112.18849,-250.58 250.58,-250.58 138.39151,0 250.58,112.18849 250.58,250.58 z"
     id="circle3564"
     r="250.58"
     cy="0"
     cx="0"
     stroke-miterlimit="10"
     class="base" /></svg>