<?xml version="1.0" encoding="UTF-8" standalone="no"?>
<!-- Generator: Iparigrafika Gear Generator by Abel Vincze http://geargenerator.com/ -->

<svg
   xmlns:dc="http://purl.org/dc/elements/1.1/"
   xmlns:cc="http://creativecommons.org/ns#"
   xmlns:rdf="http://www.w3.org/1999/02/22-rdf-syntax-ns#"
   xmlns:svg="http://www.w3.org/2000/svg"
   xmlns="http://www.w3.org/2000/svg"
   xmlns:sodipodi="http://sodipodi.sourceforge.net/DTD/sodipodi-0.dtd"
   xmlns:inkscape="http://www.inkscape.org/namespaces/inkscape"
   version="1.2"
   class="svggear"
   x="0px"
   y="0px"
   width="700px"
   height="700px"
   viewBox="-350 -350 700 700"
   overflow="scroll"
   xml:space="preserve"
   id="svg2"
   inkscape:version="0.48.4 r9939"
   sodipodi:docname="40.svg"><metadata
     id="metadata105"><rdf:RDF><cc:Work
         rdf:about=""><dc:format>image/svg+xml</dc:format><dc:type
           rdf:resource="http://purl.org/dc/dcmitype/StillImage" /></cc:Work></rdf:RDF></metadata><defs
     id="defs103" /><sodipodi:namedview
     pagecolor="#ffffff"
     bordercolor="#666666"
     borderopacity="1"
     objecttolerance="10"
     gridtolerance="10"
     guidetolerance="10"
     inkscape:pageopacity="0"
     inkscape:pageshadow="2"
     inkscape:window-width="960"
     inkscape:window-height="1014"
     id="namedview101"
     showgrid="false"
     inkscape:zoom="0.953584"
     inkscape:cx="371.26322"
     inkscape:cy="368.73149"
     inkscape:window-x="1600"
     inkscape:window-y="27"
     inkscape:window-maximized="0"
     inkscape:current-layer="svg2" /><path
     style="fill:#dddddd;stroke:#444444;stroke-width:1;stroke-miterlimit:10"
     d="m 314.1667,0 0.2546,-0.0693 0.2494,-0.023 0.2729,-0.0275 0.2964,-0.0324 0.3198,-0.0379 0.3432,-0.0437 0.3663,-0.0499 0.3895,-0.0565 0.4126,-0.0635 0.4356,-0.0709 0.4584,-0.0788 0.4812,-0.087 0.5038,-0.0957 0.5264,-0.1047 0.5488,-0.1142 0.5711,-0.124 0.5933,-0.1343 0.6153,-0.1449 0.6372,-0.1559 0.6589,-0.1674 0.6805,-0.1792 0.7019,-0.1914 0.7232,-0.2039 0.7443,-0.217 0.7652,-0.2303 0.7859,-0.2441 0.8065,-0.2581 0.8269,-0.2727 0.847,-0.2876 0.867,-0.3028 0.8868,-0.3184 0.9064,-0.3344 0.9257,-0.3507 0.9448,-0.3675 0.9638,-0.3845 0.9825,-0.4019 1.0009,-0.4198 1.0191,-0.4378 1.0371,-0.4564 1.0548,-0.4752 1.0723,-0.4943 1.0895,-0.5139 1.1065,-0.5337 1.1231,-0.5539 1.1396,-0.5744 1.1558,-0.5953 1.1716,-0.6164 1.1872,-0.638 0.1354,-0.6196 -0.5936,-11.0918 -0.2007,-0.6016 -1.2485,-0.5076 -1.2307,-0.4879 -1.2127,-0.4685 -1.1944,-0.4495 -1.1759,-0.4309 -1.1571,-0.4126 -1.1381,-0.3947 -1.1189,-0.3771 -1.0995,-0.3598 -1.0799,-0.3431 -1.06,-0.3266 -1.04,-0.3105 -1.0198,-0.2948 -0.9993,-0.2795 -0.9786,-0.2645 -0.9579,-0.25 -0.9369,-0.2357 -0.9157,-0.222 -0.8944,-0.2085 -0.8728,-0.1955 -0.8513,-0.1829 -0.8294,-0.1706 -0.8075,-0.1588 -0.7854,-0.1474 -0.7632,-0.1362 -0.7408,-0.1257 -0.7184,-0.1154 -0.6957,-0.1055 -0.673,-0.0961 -0.6502,-0.087 -0.6272,-0.0784 -0.6042,-0.0702 -0.5811,-0.0624 -0.5579,-0.0549 -0.5345,-0.048 -0.5112,-0.0413 -0.4878,-0.0352 -0.4642,-0.0294 -0.4406,-0.0241 -0.417,-0.0191 -0.3933,-0.0146 -0.3696,-0.0105 -0.3458,-0.0068 -0.322,-0.0035 -0.2982,-7e-4 -0.2743,0.0018 -0.2505,0.0038 -0.2605,-0.0418 -2.0737,-15.6182 0.2406,-0.1083 0.2428,-0.0617 0.2652,-0.0698 0.2877,-0.0785 0.3099,-0.0874 0.3321,-0.0968 0.354,-0.1066 0.3759,-0.1167 0.3976,-0.1273 0.4191,-0.1382 0.4404,-0.1495 0.4617,-0.1613 0.4827,-0.1733 0.5035,-0.1858 0.5242,-0.1986 0.5447,-0.2118 0.5649,-0.2255 0.5851,-0.2393 0.6049,-0.2537 0.6246,-0.2684 0.6441,-0.2834 0.6634,-0.2988 0.6823,-0.3146 0.7012,-0.3307 0.7198,-0.3472 0.738,-0.364 0.7562,-0.3812 0.774,-0.3987 0.7917,-0.4165 0.8089,-0.4347 0.8261,-0.4532 0.8429,-0.4721 0.8594,-0.4912 0.8758,-0.5107 0.8917,-0.5306 0.9075,-0.5507 0.9229,-0.5711 0.9381,-0.5919 0.9529,-0.613 0.9675,-0.6343 0.9818,-0.656 0.9957,-0.678 1.0094,-0.7003 1.0227,-0.7227 1.0357,-0.7457 1.0484,-0.7687 1.0607,-0.7921 1.0728,-0.8158 0.0368,-0.6332 -2.3214,-10.8624 -0.2924,-0.5628 -1.3125,-0.306 -1.2919,-0.2894 -1.271,-0.273 -1.25,-0.2572 -1.2288,-0.2416 -1.2074,-0.2265 -1.1859,-0.2118 -1.1641,-0.1974 -1.1423,-0.1834 -1.1203,-0.17 -1.098,-0.1567 -1.0758,-0.144 -1.0533,-0.1317 -1.0307,-0.1197 -1.008,-0.1081 -0.9852,-0.0971 -0.9622,-0.0863 -0.9391,-0.0759 -0.916,-0.0661 -0.8928,-0.0565 -0.8693,-0.0475 -0.846,-0.0388 -0.8223,-0.0305 -0.7988,-0.0227 -0.7751,-0.0152 -0.7514,-0.0082 -0.7275,-0.0016 -0.7037,0.0046 -0.6797,0.0104 -0.6558,0.0158 -0.6318,0.0206 -0.6078,0.0252 -0.5837,0.0294 -0.5595,0.033 -0.5355,0.0362 -0.5114,0.0391 -0.4872,0.0416 -0.4631,0.0436 -0.439,0.0451 -0.4149,0.0464 -0.3907,0.0471 -0.3667,0.0474 -0.3426,0.0474 -0.3186,0.0469 -0.2946,0.046 -0.2707,0.0447 -0.2467,0.0429 -0.2639,-5e-4 -4.4914,-15.1015 0.2207,-0.1447 0.2301,-0.0989 0.2511,-0.1104 0.2719,-0.1225 0.2924,-0.1349 0.3128,-0.1475 0.333,-0.1607 0.353,-0.1741 0.3728,-0.1879 0.3923,-0.202 0.4116,-0.2166 0.4308,-0.2315 0.4496,-0.2467 0.4683,-0.2623 0.4867,-0.2781 0.5048,-0.2945 0.5227,-0.311 0.5404,-0.3279 0.5578,-0.3452 0.575,-0.3628 0.5918,-0.3807 0.6084,-0.3989 0.6248,-0.4175 0.6408,-0.4363 0.6566,-0.4555 0.672,-0.475 0.6872,-0.4948 0.7022,-0.5148 0.7167,-0.5352 0.731,-0.5559 0.745,-0.5769 0.7587,-0.5981 0.772,-0.6196 0.7851,-0.6415 0.7977,-0.6635 0.8102,-0.6859 0.8222,-0.7085 0.8339,-0.7313 0.8453,-0.7545 0.8564,-0.7779 0.8671,-0.8015 0.8773,-0.8254 0.8874,-0.8495 0.8971,-0.8739 0.9063,-0.8985 0.9152,-0.9232 0.9238,-0.9484 0.932,-0.9735 -0.0627,-0.6312 -3.9921,-10.3655 -0.3768,-0.5101 -1.3443,-0.097 -1.3212,-0.0837 -1.2981,-0.0708 -1.2749,-0.0585 -1.2514,-0.0464 -1.228,-0.0348 -1.2044,-0.0236 -1.1807,-0.0129 -1.1569,-0.002 -1.133,0.007 -1.1091,0.0169 -1.0851,0.0261 -1.0609,0.0347 -1.0367,0.043 -1.0125,0.0509 -0.9883,0.0583 -0.9638,0.0653 -0.9395,0.0719 -0.9151,0.078 -0.8905,0.0838 -0.8661,0.0891 -0.8416,0.0941 -0.817,0.0985 -0.7925,0.1025 -0.768,0.1063 -0.7434,0.1094 -0.7188,0.1122 -0.6943,0.1147 -0.6697,0.1166 -0.6453,0.1181 -0.6208,0.1193 -0.5963,0.1199 -0.5719,0.1203 -0.5475,0.1201 -0.5233,0.1196 -0.4989,0.1186 -0.4747,0.1173 -0.4506,0.1155 -0.4265,0.1132 -0.4025,0.1107 -0.3786,0.1077 -0.3548,0.1042 -0.331,0.1004 -0.3073,0.0961 -0.2838,0.0916 -0.2603,0.0864 -0.237,0.081 -0.2607,0.0408 -6.7986,-14.213 0.1955,-0.1774 0.2118,-0.1336 0.2307,-0.1484 0.2493,-0.1635 0.2678,-0.179 0.2859,-0.1946 0.3037,-0.2108 0.3214,-0.2272 0.3388,-0.2439 0.3559,-0.2609 0.3727,-0.2784 0.3892,-0.296 0.4055,-0.314 0.4215,-0.3322 0.4372,-0.3509 0.4525,-0.3698 0.4677,-0.389 0.4824,-0.4084 0.497,-0.4282 0.5111,-0.4483 0.525,-0.4686 0.5385,-0.4892 0.5517,-0.51 0.5647,-0.5312 0.5772,-0.5526 0.5895,-0.5743 0.6014,-0.5962 0.6129,-0.6183 0.6242,-0.6408 0.6351,-0.6634 0.6455,-0.6863 0.6558,-0.7094 0.6656,-0.7328 0.675,-0.7563 0.6842,-0.7802 0.6929,-0.8042 0.7012,-0.8283 0.7093,-0.8529 0.7169,-0.8774 0.7241,-0.9023 0.731,-0.9272 0.7375,-0.9525 0.7435,-0.9779 0.7493,-1.0035 0.7546,-1.0291 0.7595,-1.0551 0.7641,-1.0812 0.7682,-1.1073 -0.1606,-0.6136 -5.5645,-9.6134 -0.452,-0.4449 -1.3429,0.1145 -1.318,0.124 -1.2932,0.1331 -1.2683,0.1417 -1.2434,0.15 -1.2183,0.1577 -1.1932,0.165 -1.1682,0.172 -1.143,0.1785 -1.118,0.1846 -1.0927,0.1902 -1.0676,0.1955 -1.0425,0.2003 -1.0172,0.2046 -0.9921,0.2086 -0.9669,0.2122 -0.9418,0.2153 -0.9167,0.2179 -0.8916,0.2203 -0.8665,0.2221 -0.8415,0.2235 -0.8165,0.2245 -0.7916,0.2251 -0.7666,0.2253 -0.7419,0.225 -0.7171,0.2244 -0.6924,0.2233 -0.6678,0.2219 -0.6433,0.2199 -0.6189,0.2176 -0.5944,0.2149 -0.5702,0.2118 -0.5461,0.2082 -0.522,0.2043 -0.4981,0.2 -0.4742,0.1952 -0.4506,0.1901 -0.427,0.1845 -0.4035,0.1786 -0.3802,0.1723 -0.3571,0.1656 -0.3341,0.1584 -0.3112,0.1509 -0.2885,0.1431 -0.266,0.1348 -0.2436,0.1261 -0.2214,0.1171 -0.2511,0.0811 -8.9382,-12.9745 0.1652,-0.2058 0.1883,-0.1652 0.2047,-0.1826 0.2207,-0.2005 0.2364,-0.2186 0.2519,-0.237 0.2671,-0.2557 0.2819,-0.2747 0.2965,-0.2939 0.3106,-0.3134 0.3246,-0.3332 0.3381,-0.3532 0.3514,-0.3736 0.3643,-0.3941 0.3769,-0.415 0.3892,-0.436 0.401,-0.4573 0.4126,-0.4789 0.4239,-0.5007 0.4347,-0.5227 0.4452,-0.5449 0.4554,-0.5674 0.4651,-0.5901 0.4746,-0.613 0.4837,-0.6361 0.4924,-0.6594 0.5007,-0.683 0.5087,-0.7066 0.5162,-0.7305 0.5235,-0.7546 0.5303,-0.7788 0.5367,-0.8033 0.5427,-0.8279 0.5484,-0.8526 0.5537,-0.8776 0.5586,-0.9026 0.563,-0.9279 0.5671,-0.9533 0.5708,-0.9788 0.5741,-1.0044 0.5769,-1.0302 0.5794,-1.0562 0.5815,-1.0821 0.583,-1.1083 0.5844,-1.1346 0.5851,-1.1609 0.5855,-1.1873 0.5855,-1.214 -0.2546,-0.5808 -6.9999,-8.6246 -0.516,-0.3687 -1.3084,0.3232 -1.2824,0.3287 -1.2565,0.3337 -1.2305,0.3384 -1.2046,0.3425 -1.1786,0.3464 -1.1528,0.3497 -1.1268,0.3526 -1.1011,0.3551 -1.0753,0.3572 -1.0495,0.3588 -1.0239,0.3601 -0.9983,0.3609 -0.9727,0.3613 -0.9472,0.3612 -0.9219,0.3608 -0.8965,0.36 -0.8713,0.3587 -0.8461,0.3569 -0.8211,0.3549 -0.7962,0.3524 -0.7713,0.3495 -0.7466,0.3462 -0.722,0.3425 -0.6976,0.3383 -0.6731,0.3338 -0.649,0.3289 -0.6249,0.3235 -0.6009,0.3179 -0.5772,0.3117 -0.5536,0.3053 -0.53,0.2983 -0.5068,0.2911 -0.4836,0.2835 -0.4607,0.2754 -0.4378,0.267 -0.4153,0.2582 -0.3928,0.2491 -0.3707,0.2395 -0.3486,0.2297 -0.3268,0.2193 -0.3051,0.2088 -0.2838,0.1978 -0.2626,0.1864 -0.2416,0.1747 -0.2209,0.1627 -0.2003,0.1503 -0.2354,0.1193 -10.8578,-11.4165 0.131,-0.2291 0.1601,-0.1925 0.1736,-0.2125 0.1866,-0.2325 0.1994,-0.2529 0.2117,-0.2735 0.2238,-0.2943 0.2355,-0.3154 0.2468,-0.3367 0.2578,-0.3581 0.2685,-0.3799 0.2787,-0.4018 0.2886,-0.4239 0.2982,-0.4463 0.3073,-0.4688 0.3161,-0.4915 0.3246,-0.5145 0.3326,-0.5375 0.3403,-0.5608 0.3476,-0.5843 0.3545,-0.6079 0.361,-0.6316 0.3671,-0.6556 0.3729,-0.6797 0.3782,-0.7039 0.3832,-0.7284 0.3877,-0.7528 0.3919,-0.7775 0.3956,-0.8023 0.3989,-0.8272 0.402,-0.8522 0.4044,-0.8773 0.4066,-0.9026 0.4082,-0.9279 0.4096,-0.9534 0.4105,-0.9789 0.411,-1.0046 0.411,-1.0302 0.4106,-1.056 0.4099,-1.0819 0.4086,-1.1078 0.4071,-1.1338 0.405,-1.1598 0.4025,-1.1858 0.3997,-1.212 0.3963,-1.2382 0.3925,-1.2643 0.3884,-1.2906 -0.3423,-0.5339 -8.2629,-7.4234 -0.5673,-0.2834 -1.2418,0.5239 -1.2152,0.5253 -1.1888,0.5261 -1.1624,0.5267 -1.1362,0.5268 -1.1099,0.5265 -1.0838,0.5257 -1.0579,0.5246 -1.032,0.523 -1.0061,0.521 -0.9805,0.5186 -0.955,0.5158 -0.9295,0.5126 -0.9042,0.509 -0.8791,0.505 -0.854,0.5005 -0.8292,0.4958 -0.8044,0.4905 -0.7799,0.485 -0.7555,0.479 -0.7312,0.4726 -0.7072,0.4658 -0.6833,0.4588 -0.6595,0.4511 -0.636,0.4433 -0.6127,0.435 -0.5895,0.4264 -0.5666,0.4173 -0.5438,0.4079 -0.5213,0.3982 -0.499,0.3881 -0.4769,0.3776 -0.4549,0.3668 -0.4334,0.3557 -0.4119,0.344 -0.3907,0.3323 -0.3697,0.32 -0.3491,0.3074 -0.3286,0.2946 -0.3084,0.2813 -0.2884,0.2678 -0.2688,0.2539 -0.2493,0.2398 -0.2302,0.2252 -0.2113,0.2103 -0.1927,0.1953 -0.1744,0.1797 -0.2138,0.1548 -12.5101,-9.5775 0.0936,-0.2467 0.1281,-0.2153 0.1381,-0.237 0.148,-0.2588 0.1573,-0.281 0.1664,-0.3033 0.1749,-0.3257 0.1833,-0.3483 0.1911,-0.3711 0.1986,-0.3941 0.2057,-0.4172 0.2125,-0.4404 0.2187,-0.4639 0.2247,-0.4874 0.2302,-0.5111 0.2354,-0.535 0.2401,-0.5588 0.2444,-0.583 0.2484,-0.6071 0.2519,-0.6315 0.255,-0.6558 0.2578,-0.6804 0.26,-0.7049 0.262,-0.7297 0.2634,-0.7544 0.2645,-0.7793 0.2652,-0.8042 0.2654,-0.8293 0.2653,-0.8542 0.2646,-0.8795 0.2637,-0.9045 0.2622,-0.9299 0.2603,-0.955 0.2581,-0.9804 0.2554,-1.0057 0.2523,-1.0311 0.2488,-1.0565 0.2447,-1.0818 0.2404,-1.1073 0.2356,-1.1327 0.2304,-1.158 0.2246,-1.1835 0.2186,-1.2089 0.2121,-1.2342 0.2051,-1.2596 0.1977,-1.2849 0.19,-1.3102 0.1817,-1.3355 -0.4217,-0.4737 -9.3223,-6.0394 -0.6048,-0.1912 -1.1445,0.7117 -1.1181,0.7089 -1.0918,0.7057 -1.0657,0.702 -1.0398,0.6981 -1.0139,0.6936 -0.9882,0.6888 -0.9628,0.6835 -0.9374,0.678 -0.9123,0.672 -0.8873,0.6656 -0.8625,0.6589 -0.8379,0.6517 -0.8135,0.6441 -0.7892,0.6363 -0.7652,0.628 -0.7415,0.6194 -0.7178,0.6104 -0.6944,0.601 -0.6712,0.5912 -0.6483,0.5812 -0.6256,0.5708 -0.6031,0.5599 -0.5808,0.5488 -0.5589,0.5373 -0.5371,0.5255 -0.5155,0.5133 -0.4943,0.5009 -0.4734,0.488 -0.4525,0.4748 -0.4322,0.4614 -0.4119,0.4475 -0.392,0.4335 -0.3724,0.419 -0.353,0.4043 -0.3339,0.3892 -0.3151,0.3739 -0.2967,0.3583 -0.2785,0.3424 -0.2605,0.3261 -0.243,0.3096 -0.2258,0.2928 -0.2087,0.2758 -0.1921,0.2584 -0.1758,0.2409 -0.1598,0.223 -0.1442,0.2048 -0.1869,0.1863 -13.8543,-7.5025 0.0538,-0.2584 0.0928,-0.2326 0.0994,-0.2557 0.1056,-0.2789 0.1115,-0.3021 0.1168,-0.3255 0.1219,-0.3491 0.1265,-0.3727 0.1307,-0.3965 0.1345,-0.4202 0.138,-0.4443 0.1409,-0.4682 0.1435,-0.4924 0.1456,-0.5166 0.1475,-0.5408 0.1487,-0.5652 0.1498,-0.5895 0.1502,-0.614 0.1503,-0.6386 0.15,-0.663 0.1493,-0.6877 0.1482,-0.7123 0.1465,-0.737 0.1446,-0.7616 0.1422,-0.7864 0.1394,-0.811 0.1361,-0.8358 0.1324,-0.8606 0.1283,-0.8852 0.1239,-0.91 0.1189,-0.9347 0.1135,-0.9594 0.1077,-0.9841 0.1016,-1.0086 0.0949,-1.0333 0.0879,-1.0579 0.0804,-1.0824 0.0725,-1.1068 0.0643,-1.1312 0.0555,-1.1556 0.0463,-1.1799 0.0368,-1.204 0.0267,-1.2282 0.0164,-1.2522 0.006,-1.2762 -0.006,-1.3 -0.0174,-1.3238 -0.0294,-1.3474 -0.4906,-0.4019 -10.1524,-4.5068 -0.6272,-0.0942 -1.019,0.882 -0.9935,0.8751 -0.968,0.8678 -0.9427,0.8601 -0.9178,0.8521 -0.8929,0.8437 -0.8684,0.8349 -0.8439,0.8257 -0.8199,0.8163 -0.7959,0.8065 -0.7722,0.7962 -0.7489,0.7856 -0.7256,0.7748 -0.7027,0.7635 -0.68,0.7519 -0.6575,0.74 -0.6354,0.7277 -0.6135,0.7152 -0.5918,0.7022 -0.5705,0.689 -0.5494,0.6754 -0.5286,0.6616 -0.5081,0.6474 -0.4878,0.6329 -0.4679,0.6181 -0.4483,0.603 -0.4289,0.5877 -0.4099,0.572 -0.3912,0.556 -0.3727,0.5398 -0.3546,0.5233 -0.3369,0.5065 -0.3193,0.4894 -0.3022,0.4722 -0.2855,0.4545 -0.2689,0.4367 -0.2528,0.4186 -0.2369,0.4002 -0.2215,0.3817 -0.2064,0.3629 -0.1915,0.3438 -0.1772,0.3246 -0.163,0.305 -0.1494,0.2853 -0.1359,0.2654 -0.123,0.2452 -0.1103,0.2249 -0.1555,0.2132 -14.8574,-5.2429 0.0128,-0.2636 0.0552,-0.2442 0.0582,-0.2681 0.0607,-0.2919 0.0628,-0.3159 0.0645,-0.3398 0.0658,-0.3638 0.0667,-0.3879 0.067,-0.4121 0.0671,-0.4361 0.0668,-0.4604 0.0659,-0.4845 0.0647,-0.5088 0.0631,-0.533 0.061,-0.5572 0.0585,-0.5815 0.0557,-0.6057 0.0523,-0.6299 0.0486,-0.6542 0.0444,-0.6784 0.0399,-0.7026 0.0349,-0.7267 0.0295,-0.7508 0.0236,-0.7749 0.0174,-0.7989 0.0108,-0.8229 0.0037,-0.8468 -0.0038,-0.8706 -0.0118,-0.8945 -0.02,-0.9181 -0.0288,-0.9418 -0.0379,-0.9653 -0.0476,-0.9888 -0.0575,-1.0122 -0.0678,-1.0354 -0.0787,-1.0586 -0.0899,-1.0816 -0.1015,-1.1046 -0.1136,-1.1273 -0.1259,-1.15 -0.1388,-1.1726 -0.1521,-1.195 -0.1656,-1.2172 -0.1798,-1.2394 -0.1941,-1.2613 -0.209,-1.2832 -0.2242,-1.3047 -0.2399,-1.3263 -0.5474,-0.3202 -10.7324,-2.8631 -0.6342,0.005 -0.8686,1.0305 -0.8443,1.0197 -0.8203,1.0086 -0.7966,0.997 -0.7732,0.9851 -0.7499,0.973 -0.7271,0.9605 -0.7044,0.9476 -0.682,0.9345 -0.66,0.921 -0.6382,0.9073 -0.6167,0.8931 -0.5955,0.8787 -0.5745,0.864 -0.554,0.8491 -0.5337,0.8337 -0.5138,0.8182 -0.494,0.8023 -0.4747,0.7861 -0.4557,0.7698 -0.437,0.7531 -0.4186,0.7361 -0.4005,0.7189 -0.3829,0.7014 -0.3654,0.6837 -0.3484,0.6658 -0.3317,0.6475 -0.3154,0.629 -0.2993,0.6104 -0.2837,0.5915 -0.2684,0.5723 -0.2535,0.553 -0.2389,0.5333 -0.2246,0.5136 -0.2108,0.4936 -0.1973,0.4734 -0.1842,0.453 -0.1714,0.4324 -0.1591,0.4116 -0.147,0.3907 -0.1355,0.3696 -0.1241,0.3482 -0.1134,0.3268 -0.1028,0.3052 -0.0928,0.2833 -0.0831,0.2615 -0.0737,0.2393 -0.1203,0.2349 -15.4946,-2.8541 -0.0287,-0.2623 0.0164,-0.2499 0.0155,-0.2739 0.0143,-0.2978 0.0127,-0.3218 0.0105,-0.3457 0.0081,-0.3697 0.0051,-0.3935 0.0018,-0.4175 -0.002,-0.4413 -0.0061,-0.4651 -0.0106,-0.4889 -0.0157,-0.5126 -0.0211,-0.5363 -0.0269,-0.5599 -0.0332,-0.5835 -0.0398,-0.6069 -0.0468,-0.6304 -0.0544,-0.6538 -0.0622,-0.6769 -0.0705,-0.7002 -0.0792,-0.7232 -0.0884,-0.7462 -0.0978,-0.769 -0.1078,-0.7918 -0.1181,-0.8145 -0.1288,-0.8369 -0.14,-0.8594 -0.1515,-0.8816 -0.1635,-0.9037 -0.1757,-0.9257 -0.1885,-0.9475 -0.2016,-0.9692 -0.2151,-0.9907 -0.2291,-1.012 -0.2433,-1.0332 -0.258,-1.0543 -0.273,-1.075 -0.2885,-1.0958 -0.3043,-1.1161 -0.3205,-1.1365 -0.3372,-1.1564 -0.354,-1.1764 -0.3714,-1.196 -0.3891,-1.2154 -0.4071,-1.2346 -0.4256,-1.2537 -0.4443,-1.2723 -0.5908,-0.2307 -11.0482,-1.1489 -0.6256,0.1042 -0.6966,1.1537 -0.6744,1.1392 -0.6525,1.1245 -0.6308,1.1093 -0.6095,1.094 -0.5886,1.0784 -0.5678,1.0623 -0.5475,1.0462 -0.5275,1.0297 -0.5077,1.0129 -0.4884,0.9959 -0.4694,0.9786 -0.4507,0.961 -0.4324,0.9433 -0.4143,0.9253 -0.3967,0.9069 -0.3795,0.8885 -0.3624,0.8697 -0.3459,0.8507 -0.3297,0.8316 -0.3137,0.8122 -0.2983,0.7925 -0.2832,0.7727 -0.2684,0.7527 -0.254,0.7325 -0.2399,0.712 -0.2264,0.6914 -0.213,0.6707 -0.2002,0.6497 -0.1877,0.6285 -0.1756,0.6073 -0.1638,0.5858 -0.1525,0.5642 -0.1415,0.5424 -0.131,0.5204 -0.1208,0.4985 -0.1111,0.4762 -0.1017,0.4539 -0.0927,0.4315 -0.0841,0.4088 -0.0759,0.3862 -0.0682,0.3634 -0.0608,0.3405 -0.0539,0.3175 -0.0473,0.2944 -0.0411,0.2712 -0.0354,0.248 -0.082,0.2508 L 0,-314.1667 l -0.0693,-0.2546 -0.023,-0.2494 -0.0275,-0.2729 -0.0324,-0.2964 -0.0379,-0.3198 -0.0437,-0.3432 -0.0499,-0.3663 -0.0565,-0.3895 -0.0635,-0.4126 -0.0709,-0.4356 -0.0788,-0.4584 -0.087,-0.4812 -0.0957,-0.5038 -0.1047,-0.5264 -0.1142,-0.5488 -0.124,-0.5711 -0.1343,-0.5933 -0.1449,-0.6153 -0.1559,-0.6372 -0.1674,-0.6589 -0.1792,-0.6805 -0.1914,-0.7019 -0.2039,-0.7232 -0.217,-0.7443 -0.2303,-0.7652 -0.2441,-0.7859 -0.2581,-0.8065 -0.2727,-0.8269 -0.2876,-0.847 -0.3028,-0.867 -0.3184,-0.8868 -0.3344,-0.9064 -0.3507,-0.9257 -0.3675,-0.9448 -0.3845,-0.9638 -0.4019,-0.9825 -0.4198,-1.0009 -0.4378,-1.0191 -0.4564,-1.0371 -0.4752,-1.0548 -0.4943,-1.0723 -0.5139,-1.0895 -0.5337,-1.1065 -0.5539,-1.1231 -0.5744,-1.1396 -0.5953,-1.1558 -0.6164,-1.1716 -0.638,-1.1872 -0.6196,-0.1354 -11.0918,0.5936 -0.6016,0.2007 -0.5076,1.2485 -0.4879,1.2307 -0.4685,1.2127 -0.4495,1.1944 -0.4309,1.1759 -0.4126,1.1571 -0.3947,1.1381 -0.3771,1.1189 -0.3598,1.0995 -0.3431,1.0799 -0.3266,1.06 -0.3105,1.04 -0.2948,1.0198 -0.2795,0.9993 -0.2645,0.9786 -0.25,0.9579 -0.2357,0.9369 -0.222,0.9157 -0.2085,0.8944 -0.1955,0.8728 -0.1829,0.8513 -0.1706,0.8294 -0.1588,0.8075 -0.1474,0.7854 -0.1362,0.7632 -0.1257,0.7408 -0.1154,0.7184 -0.1055,0.6957 -0.0961,0.673 -0.087,0.6502 -0.0784,0.6272 -0.0702,0.6042 -0.0624,0.5811 -0.0549,0.5579 -0.048,0.5345 -0.0413,0.5112 -0.0352,0.4878 -0.0294,0.4642 -0.0241,0.4406 -0.0191,0.417 -0.0146,0.3933 -0.0105,0.3696 -0.0068,0.3458 -0.0035,0.322 -7e-4,0.2982 0.0018,0.2743 0.0038,0.2505 -0.0418,0.2605 -15.6182,2.0737 -0.1083,-0.2406 -0.0617,-0.2428 -0.0698,-0.2652 -0.0785,-0.2877 -0.0874,-0.3099 -0.0968,-0.3321 -0.1066,-0.354 -0.1167,-0.3759 -0.1273,-0.3976 -0.1382,-0.4191 -0.1495,-0.4404 -0.1613,-0.4617 -0.1733,-0.4827 -0.1858,-0.5035 -0.1986,-0.5242 -0.2118,-0.5447 -0.2255,-0.5649 -0.2393,-0.5851 -0.2537,-0.6049 -0.2684,-0.6246 -0.2834,-0.6441 -0.2988,-0.6634 -0.3146,-0.6823 -0.3307,-0.7012 -0.3472,-0.7198 -0.364,-0.738 -0.3812,-0.7562 -0.3987,-0.774 -0.4165,-0.7917 -0.4347,-0.8089 -0.4532,-0.8261 -0.4721,-0.8429 -0.4912,-0.8594 -0.5107,-0.8758 -0.5306,-0.8917 -0.5507,-0.9075 -0.5711,-0.9229 -0.5919,-0.9381 -0.613,-0.9529 -0.6343,-0.9675 -0.656,-0.9818 -0.678,-0.9957 -0.7003,-1.0094 -0.7227,-1.0227 -0.7457,-1.0357 -0.7687,-1.0484 -0.7921,-1.0607 -0.8158,-1.0728 -0.6332,-0.0368 -10.8624,2.3214 -0.5628,0.2924 -0.306,1.3125 -0.2894,1.2919 -0.273,1.271 -0.2572,1.25 -0.2416,1.2288 -0.2265,1.2074 -0.2118,1.1859 -0.1974,1.1641 -0.1834,1.1423 -0.17,1.1203 -0.1567,1.098 -0.144,1.0758 -0.1317,1.0533 -0.1197,1.0307 -0.1081,1.008 -0.0971,0.9852 -0.0863,0.9622 -0.0759,0.9391 -0.0661,0.916 -0.0565,0.8928 -0.0475,0.8693 -0.0388,0.846 -0.0305,0.8223 -0.0227,0.7988 -0.0152,0.7751 -0.0082,0.7514 -0.0016,0.7275 0.0046,0.7037 0.0104,0.6797 0.0158,0.6558 0.0206,0.6318 0.0252,0.6078 0.0294,0.5837 0.033,0.5595 0.0362,0.5355 0.0391,0.5114 0.0416,0.4872 0.0436,0.4631 0.0451,0.439 0.0464,0.4149 0.0471,0.3907 0.0474,0.3667 0.0474,0.3426 0.0469,0.3186 0.046,0.2946 0.0447,0.2707 0.0429,0.2467 -5e-4,0.2639 -15.1015,4.4914 -0.1447,-0.2207 -0.0989,-0.2301 -0.1104,-0.2511 -0.1225,-0.2719 -0.1349,-0.2924 -0.1475,-0.3128 -0.1607,-0.333 -0.1741,-0.353 -0.1879,-0.3728 -0.202,-0.3923 -0.2166,-0.4116 -0.2315,-0.4308 -0.2467,-0.4496 -0.2623,-0.4683 -0.2781,-0.4867 -0.2945,-0.5048 -0.311,-0.5227 -0.3279,-0.5404 -0.3452,-0.5578 -0.3628,-0.575 -0.3807,-0.5918 -0.3989,-0.6084 -0.4175,-0.6248 -0.4363,-0.6408 -0.4555,-0.6566 -0.475,-0.672 -0.4948,-0.6872 -0.5148,-0.7022 -0.5352,-0.7167 -0.5559,-0.731 -0.5769,-0.745 -0.5981,-0.7587 -0.6196,-0.772 -0.6415,-0.7851 -0.6635,-0.7977 -0.6859,-0.8102 -0.7085,-0.8222 -0.7313,-0.8339 -0.7545,-0.8453 -0.7779,-0.8564 -0.8015,-0.8671 -0.8254,-0.8773 -0.8495,-0.8874 -0.8739,-0.8971 -0.8985,-0.9063 -0.9232,-0.9152 -0.9484,-0.9238 -0.9735,-0.932 -0.6312,0.0627 -10.3655,3.9921 -0.5101,0.3768 -0.097,1.3443 -0.0837,1.3212 -0.0708,1.2981 -0.0585,1.2749 -0.0464,1.2514 -0.0348,1.228 -0.0236,1.2044 -0.0129,1.1807 -0.002,1.1569 0.007,1.133 0.0169,1.1091 0.0261,1.0851 0.0347,1.0609 0.043,1.0367 0.0509,1.0125 0.0583,0.9883 0.0653,0.9638 0.0719,0.9395 0.078,0.9151 0.0838,0.8905 0.0891,0.8661 0.0941,0.8416 0.0985,0.817 0.1025,0.7925 0.1063,0.768 0.1094,0.7434 0.1122,0.7188 0.1147,0.6943 0.1166,0.6697 0.1181,0.6453 0.1193,0.6208 0.1199,0.5963 0.1203,0.5719 0.1201,0.5475 0.1196,0.5233 0.1186,0.4989 0.1173,0.4747 0.1155,0.4506 0.1132,0.4265 0.1107,0.4025 0.1077,0.3786 0.1042,0.3548 0.1004,0.331 0.0961,0.3073 0.0916,0.2838 0.0864,0.2603 0.081,0.237 0.0408,0.2607 -14.213,6.7986 -0.1774,-0.1955 -0.1336,-0.2118 -0.1484,-0.2307 -0.1635,-0.2493 -0.179,-0.2678 -0.1946,-0.2859 -0.2108,-0.3037 -0.2272,-0.3214 -0.2439,-0.3388 -0.2609,-0.3559 -0.2784,-0.3727 -0.296,-0.3892 -0.314,-0.4055 -0.3322,-0.4215 -0.3509,-0.4372 -0.3698,-0.4525 -0.389,-0.4677 -0.4084,-0.4824 -0.4282,-0.497 -0.4483,-0.5111 -0.4686,-0.525 -0.4892,-0.5385 -0.51,-0.5517 -0.5312,-0.5647 -0.5526,-0.5772 -0.5743,-0.5895 -0.5962,-0.6014 -0.6183,-0.6129 -0.6408,-0.6242 -0.6634,-0.6351 -0.6863,-0.6455 -0.7094,-0.6558 -0.7328,-0.6656 -0.7563,-0.675 -0.7802,-0.6842 -0.8042,-0.6929 -0.8283,-0.7012 -0.8529,-0.7093 -0.8774,-0.7169 -0.9023,-0.7241 -0.9272,-0.731 -0.9525,-0.7375 -0.9779,-0.7435 -1.0035,-0.7493 -1.0291,-0.7546 -1.0551,-0.7595 -1.0812,-0.7641 -1.1073,-0.7682 -0.6136,0.1606 -9.6134,5.5645 -0.4449,0.452 0.1145,1.3429 0.124,1.318 0.1331,1.2932 0.1417,1.2683 0.15,1.2434 0.1577,1.2183 0.165,1.1932 0.172,1.1682 0.1785,1.143 0.1846,1.118 0.1902,1.0927 0.1955,1.0676 0.2003,1.0425 0.2046,1.0172 0.2086,0.9921 0.2122,0.9669 0.2153,0.9418 0.2179,0.9167 0.2203,0.8916 0.2221,0.8665 0.2235,0.8415 0.2245,0.8165 0.2251,0.7916 0.2253,0.7666 0.225,0.7419 0.2244,0.7171 0.2233,0.6924 0.2219,0.6678 0.2199,0.6433 0.2176,0.6189 0.2149,0.5944 0.2118,0.5702 0.2082,0.5461 0.2043,0.522 0.2,0.4981 0.1952,0.4742 0.1901,0.4506 0.1845,0.427 0.1786,0.4035 0.1723,0.3802 0.1656,0.3571 0.1584,0.3341 0.1509,0.3112 0.1431,0.2885 0.1348,0.266 0.1261,0.2436 0.1171,0.2214 0.0811,0.2511 -12.9745,8.9382 -0.2058,-0.1652 -0.1652,-0.1883 -0.1826,-0.2047 -0.2005,-0.2207 -0.2186,-0.2364 -0.237,-0.2519 -0.2557,-0.2671 -0.2747,-0.2819 -0.2939,-0.2965 -0.3134,-0.3106 -0.3332,-0.3246 -0.3532,-0.3381 -0.3736,-0.3514 -0.3941,-0.3643 -0.415,-0.3769 -0.436,-0.3892 -0.4573,-0.401 -0.4789,-0.4126 -0.5007,-0.4239 -0.5227,-0.4347 -0.5449,-0.4452 -0.5674,-0.4554 -0.5901,-0.4651 -0.613,-0.4746 -0.6361,-0.4837 -0.6594,-0.4924 -0.683,-0.5007 -0.7066,-0.5087 -0.7305,-0.5162 -0.7546,-0.5235 -0.7788,-0.5303 -0.8033,-0.5367 -0.8279,-0.5427 -0.8526,-0.5484 -0.8776,-0.5537 -0.9026,-0.5586 -0.9279,-0.563 -0.9533,-0.5671 -0.9788,-0.5708 -1.0044,-0.5741 -1.0302,-0.5769 -1.0562,-0.5794 -1.0821,-0.5815 -1.1083,-0.583 -1.1346,-0.5844 -1.1609,-0.5851 -1.1873,-0.5855 -1.214,-0.5855 -0.5808,0.2546 -8.6246,6.9999 -0.3687,0.516 0.3232,1.3084 0.3287,1.2824 0.3337,1.2565 0.3384,1.2305 0.3425,1.2046 0.3464,1.1786 0.3497,1.1528 0.3526,1.1268 0.3551,1.1011 0.3572,1.0753 0.3588,1.0495 0.3601,1.0239 0.3609,0.9983 0.3613,0.9727 0.3612,0.9472 0.3608,0.9219 0.36,0.8965 0.3587,0.8713 0.3569,0.8461 0.3549,0.8211 0.3524,0.7962 0.3495,0.7713 0.3462,0.7466 0.3425,0.722 0.3383,0.6976 0.3338,0.6731 0.3289,0.649 0.3235,0.6249 0.3179,0.6009 0.3117,0.5772 0.3053,0.5536 0.2983,0.53 0.2911,0.5068 0.2835,0.4836 0.2754,0.4607 0.267,0.4378 0.2582,0.4153 0.2491,0.3928 0.2395,0.3707 0.2297,0.3486 0.2193,0.3268 0.2088,0.3051 0.1978,0.2838 0.1864,0.2626 0.1747,0.2416 0.1627,0.2209 0.1503,0.2003 0.1193,0.2354 -11.4165,10.8578 -0.2291,-0.131 -0.1925,-0.1601 -0.2125,-0.1736 -0.2325,-0.1866 -0.2529,-0.1994 -0.2735,-0.2117 -0.2943,-0.2238 -0.3154,-0.2355 -0.3367,-0.2468 -0.3581,-0.2578 -0.3799,-0.2685 -0.4018,-0.2787 -0.4239,-0.2886 -0.4463,-0.2982 -0.4688,-0.3073 -0.4915,-0.3161 -0.5145,-0.3246 -0.5375,-0.3326 -0.5608,-0.3403 -0.5843,-0.3476 -0.6079,-0.3545 -0.6316,-0.361 -0.6556,-0.3671 -0.6797,-0.3729 -0.7039,-0.3782 -0.7284,-0.3832 -0.7528,-0.3877 -0.7775,-0.3919 -0.8023,-0.3956 -0.8272,-0.3989 -0.8522,-0.402 -0.8773,-0.4044 -0.9026,-0.4066 -0.9279,-0.4082 -0.9534,-0.4096 -0.9789,-0.4105 -1.0046,-0.411 -1.0302,-0.411 -1.056,-0.4106 -1.0819,-0.4099 -1.1078,-0.4086 -1.1338,-0.4071 -1.1598,-0.405 -1.1858,-0.4025 -1.212,-0.3997 -1.2382,-0.3963 -1.2643,-0.3925 -1.2906,-0.3884 -0.5339,0.3423 -7.4234,8.2629 -0.2834,0.5673 0.5239,1.2418 0.5253,1.2152 0.5261,1.1888 0.5267,1.1624 0.5268,1.1362 0.5265,1.1099 0.5257,1.0838 0.5246,1.0579 0.523,1.032 0.521,1.0061 0.5186,0.9805 0.5158,0.955 0.5126,0.9295 0.509,0.9042 0.505,0.8791 0.5005,0.854 0.4958,0.8292 0.4905,0.8044 0.485,0.7799 0.479,0.7555 0.4726,0.7312 0.4658,0.7072 0.4588,0.6833 0.4511,0.6595 0.4433,0.636 0.435,0.6127 0.4264,0.5895 0.4173,0.5666 0.4079,0.5438 0.3982,0.5213 0.3881,0.499 0.3776,0.4769 0.3668,0.4549 0.3557,0.4334 0.344,0.4119 0.3323,0.3907 0.32,0.3697 0.3074,0.3491 0.2946,0.3286 0.2813,0.3084 0.2678,0.2884 0.2539,0.2688 0.2398,0.2493 0.2252,0.2302 0.2103,0.2113 0.1953,0.1927 0.1797,0.1744 0.1548,0.2138 -9.5775,12.5101 -0.2467,-0.0936 -0.2153,-0.1281 -0.237,-0.1381 -0.2588,-0.148 -0.281,-0.1573 -0.3033,-0.1664 -0.3257,-0.1749 -0.3483,-0.1833 -0.3711,-0.1911 -0.3941,-0.1986 -0.4172,-0.2057 -0.4404,-0.2125 -0.4639,-0.2187 -0.4874,-0.2247 -0.5111,-0.2302 -0.535,-0.2354 -0.5588,-0.2401 -0.583,-0.2444 -0.6071,-0.2484 -0.6315,-0.2519 -0.6558,-0.255 -0.6804,-0.2578 -0.7049,-0.26 -0.7297,-0.262 -0.7544,-0.2634 -0.7793,-0.2645 -0.8042,-0.2652 -0.8293,-0.2654 -0.8542,-0.2653 -0.8795,-0.2646 -0.9045,-0.2637 -0.9299,-0.2622 -0.955,-0.2603 -0.9804,-0.2581 -1.0057,-0.2554 -1.0311,-0.2523 -1.0565,-0.2488 -1.0818,-0.2447 -1.1073,-0.2404 -1.1327,-0.2356 -1.158,-0.2304 -1.1835,-0.2246 -1.2089,-0.2186 -1.2342,-0.2121 -1.2596,-0.2051 -1.2849,-0.1977 -1.3102,-0.19 -1.3355,-0.1817 -0.4737,0.4217 -6.0394,9.3223 -0.1912,0.6048 0.7117,1.1445 0.7089,1.1181 0.7057,1.0918 0.702,1.0657 0.6981,1.0398 0.6936,1.0139 0.6888,0.9882 0.6835,0.9628 0.678,0.9374 0.672,0.9123 0.6656,0.8873 0.6589,0.8625 0.6517,0.8379 0.6441,0.8135 0.6363,0.7892 0.628,0.7652 0.6194,0.7415 0.6104,0.7178 0.601,0.6944 0.5912,0.6712 0.5812,0.6483 0.5708,0.6256 0.5599,0.6031 0.5488,0.5808 0.5373,0.5589 0.5255,0.5371 0.5133,0.5155 0.5009,0.4943 0.488,0.4734 0.4748,0.4525 0.4614,0.4322 0.4475,0.4119 0.4335,0.392 0.419,0.3724 0.4043,0.353 0.3892,0.3339 0.3739,0.3151 0.3583,0.2967 0.3424,0.2785 0.3261,0.2605 0.3096,0.243 0.2928,0.2258 0.2758,0.2087 0.2584,0.1921 0.2409,0.1758 0.223,0.1598 0.2048,0.1442 0.1863,0.1869 -7.5025,13.8543 -0.2584,-0.0538 -0.2326,-0.0928 -0.2557,-0.0994 -0.2789,-0.1056 -0.3021,-0.1115 -0.3255,-0.1168 -0.3491,-0.1219 -0.3727,-0.1265 -0.3965,-0.1307 -0.4202,-0.1345 -0.4443,-0.138 -0.4682,-0.1409 -0.4924,-0.1435 -0.5166,-0.1456 -0.5408,-0.1475 -0.5652,-0.1487 -0.5895,-0.1498 -0.614,-0.1502 -0.6386,-0.1503 -0.663,-0.15 -0.6877,-0.1493 -0.7123,-0.1482 -0.737,-0.1465 -0.7616,-0.1446 -0.7864,-0.1422 -0.811,-0.1394 -0.8358,-0.1361 -0.8606,-0.1324 -0.8852,-0.1283 -0.91,-0.1239 -0.9347,-0.1189 -0.9594,-0.1135 -0.9841,-0.1077 -1.0086,-0.1016 -1.0333,-0.0949 -1.0579,-0.0879 -1.0824,-0.0804 -1.1068,-0.0725 -1.1312,-0.0643 -1.1556,-0.0555 -1.1799,-0.0463 -1.204,-0.0368 -1.2282,-0.0267 -1.2522,-0.0164 -1.2762,-0.006 -1.3,0.006 -1.3238,0.0174 -1.3474,0.0294 -0.4019,0.4906 -4.5068,10.1524 -0.0942,0.6272 0.882,1.019 0.8751,0.9935 0.8678,0.968 0.8601,0.9427 0.8521,0.9178 0.8437,0.8929 0.8349,0.8684 0.8257,0.8439 0.8163,0.8199 0.8065,0.7959 0.7962,0.7722 0.7856,0.7489 0.7748,0.7256 0.7635,0.7027 0.7519,0.68 0.74,0.6575 0.7277,0.6354 0.7152,0.6135 0.7022,0.5918 0.689,0.5705 0.6754,0.5494 0.6616,0.5286 0.6474,0.5081 0.6329,0.4878 0.6181,0.4679 0.603,0.4483 0.5877,0.4289 0.572,0.4099 0.556,0.3912 0.5398,0.3727 0.5233,0.3546 0.5065,0.3369 0.4894,0.3193 0.4722,0.3022 0.4545,0.2855 0.4367,0.2689 0.4186,0.2528 0.4002,0.2369 0.3817,0.2215 0.3629,0.2064 0.3438,0.1915 0.3246,0.1772 0.305,0.163 0.2853,0.1494 0.2654,0.1359 0.2452,0.123 0.2249,0.1103 0.2132,0.1555 -5.2429,14.8574 -0.2636,-0.0128 -0.2442,-0.0552 -0.2681,-0.0582 -0.2919,-0.0607 -0.3159,-0.0628 -0.3398,-0.0645 -0.3638,-0.0658 -0.3879,-0.0667 -0.4121,-0.067 -0.4361,-0.0671 -0.4604,-0.0668 -0.4845,-0.0659 -0.5088,-0.0647 -0.533,-0.0631 -0.5572,-0.061 -0.5815,-0.0585 -0.6057,-0.0557 -0.6299,-0.0523 -0.6542,-0.0486 -0.6784,-0.0444 -0.7026,-0.0399 -0.7267,-0.0349 -0.7508,-0.0295 -0.7749,-0.0236 -0.7989,-0.0174 -0.8229,-0.0108 -0.8468,-0.0037 -0.8706,0.0038 -0.8945,0.0118 -0.9181,0.02 -0.9418,0.0288 -0.9653,0.0379 -0.9888,0.0476 -1.0122,0.0575 -1.0354,0.0678 -1.0586,0.0787 -1.0816,0.0899 -1.1046,0.1015 -1.1273,0.1136 -1.15,0.1259 -1.1726,0.1388 -1.195,0.1521 -1.2172,0.1656 -1.2394,0.1798 -1.2613,0.1941 -1.2832,0.209 -1.3047,0.2242 -1.3263,0.2399 -0.3202,0.5474 -2.8631,10.7324 0.005,0.6342 1.0305,0.8686 1.0197,0.8443 1.0086,0.8203 0.997,0.7966 0.9851,0.7732 0.973,0.7499 0.9605,0.7271 0.9476,0.7044 0.9345,0.682 0.921,0.66 0.9073,0.6382 0.8931,0.6167 0.8787,0.5955 0.864,0.5745 0.8491,0.554 0.8337,0.5337 0.8182,0.5138 0.8023,0.494 0.7861,0.4747 0.7698,0.4557 0.7531,0.437 0.7361,0.4186 0.7189,0.4005 0.7014,0.3829 0.6837,0.3654 0.6658,0.3484 0.6475,0.3317 0.629,0.3154 0.6104,0.2993 0.5915,0.2837 0.5723,0.2684 0.553,0.2535 0.5333,0.2389 0.5136,0.2246 0.4936,0.2108 0.4734,0.1973 0.453,0.1842 0.4324,0.1714 0.4116,0.1591 0.3907,0.147 0.3696,0.1355 0.3482,0.1241 0.3268,0.1134 0.3052,0.1028 0.2833,0.0928 0.2615,0.0831 0.2393,0.0737 0.2349,0.1203 -2.8541,15.4946 -0.2623,0.0287 -0.2499,-0.0164 -0.2739,-0.0155 -0.2978,-0.0143 -0.3218,-0.0127 -0.3457,-0.0105 -0.3697,-0.0081 -0.3935,-0.0051 -0.4175,-0.0018 -0.4413,0.002 -0.4651,0.0061 -0.4889,0.0106 -0.5126,0.0157 -0.5363,0.0211 -0.5599,0.0269 -0.5835,0.0332 -0.6069,0.0398 -0.6304,0.0468 -0.6538,0.0544 -0.6769,0.0622 -0.7002,0.0705 -0.7232,0.0792 -0.7462,0.0884 -0.769,0.0978 -0.7918,0.1078 -0.8145,0.1181 -0.8369,0.1288 -0.8594,0.14 -0.8816,0.1515 -0.9037,0.1635 -0.9257,0.1757 -0.9475,0.1885 -0.9692,0.2016 -0.9907,0.2151 -1.012,0.2291 -1.0332,0.2433 -1.0543,0.258 -1.075,0.273 -1.0958,0.2885 -1.1161,0.3043 -1.1365,0.3205 -1.1564,0.3372 -1.1764,0.354 -1.196,0.3714 -1.2154,0.3891 -1.2346,0.4071 -1.2537,0.4256 -1.2723,0.4443 -0.2307,0.5908 -1.1489,11.0482 0.1042,0.6256 1.1537,0.6966 1.1392,0.6744 1.1245,0.6525 1.1093,0.6308 1.094,0.6095 1.0784,0.5886 1.0623,0.5678 1.0462,0.5475 1.0297,0.5275 1.0129,0.5077 0.9959,0.4884 0.9786,0.4694 0.961,0.4507 0.9433,0.4324 0.9253,0.4143 0.9069,0.3967 0.8885,0.3795 0.8697,0.3624 0.8507,0.3459 0.8316,0.3297 0.8122,0.3137 0.7925,0.2983 0.7727,0.2832 0.7527,0.2684 0.7325,0.254 0.712,0.2399 0.6914,0.2264 0.6707,0.213 0.6497,0.2002 0.6285,0.1877 0.6073,0.1756 0.5858,0.1638 0.5642,0.1525 0.5424,0.1415 0.5204,0.131 0.4985,0.1208 0.4762,0.1111 0.4539,0.1017 0.4315,0.0927 0.4088,0.0841 0.3862,0.0759 0.3634,0.0682 0.3405,0.0608 0.3175,0.0539 0.2944,0.0473 0.2712,0.0411 0.248,0.0354 0.2508,0.082 -0.3951,15.7504 -0.2546,0.0693 -0.2494,0.023 -0.2729,0.0275 -0.2964,0.0324 -0.3198,0.0379 -0.3432,0.0437 -0.3663,0.0499 -0.3895,0.0565 -0.4126,0.0635 -0.4356,0.0709 -0.4584,0.0788 -0.4812,0.087 -0.5038,0.0957 -0.5264,0.1047 -0.5488,0.1142 -0.5711,0.124 -0.5933,0.1343 -0.6153,0.1449 -0.6372,0.1559 -0.6589,0.1674 -0.6805,0.1792 -0.7019,0.1914 -0.7232,0.2039 -0.7443,0.217 -0.7652,0.2303 -0.7859,0.2441 -0.8065,0.2581 -0.8269,0.2727 -0.847,0.2876 -0.867,0.3028 -0.8868,0.3184 -0.9064,0.3344 -0.9257,0.3507 -0.9448,0.3675 -0.9638,0.3845 -0.9825,0.4019 -1.0009,0.4198 -1.0191,0.4378 -1.0371,0.4564 -1.0548,0.4752 -1.0723,0.4943 -1.0895,0.5139 -1.1065,0.5337 -1.1231,0.5539 -1.1396,0.5744 -1.1558,0.5953 -1.1716,0.6164 -1.1872,0.638 -0.1354,0.6196 0.5936,11.0918 0.2007,0.6016 1.2485,0.5076 1.2307,0.4879 1.2127,0.4685 1.1944,0.4495 1.1759,0.4309 1.1571,0.4126 1.1381,0.3947 1.1189,0.3771 1.0995,0.3598 1.0799,0.3431 1.06,0.3266 1.04,0.3105 1.0198,0.2948 0.9993,0.2795 0.9786,0.2645 0.9579,0.25 0.9369,0.2357 0.9157,0.222 0.8944,0.2085 0.8728,0.1955 0.8513,0.1829 0.8294,0.1706 0.8075,0.1588 0.7854,0.1474 0.7632,0.1362 0.7408,0.1257 0.7184,0.1154 0.6957,0.1055 0.673,0.0961 0.6502,0.087 0.6272,0.0784 0.6042,0.0702 0.5811,0.0624 0.5579,0.0549 0.5345,0.048 0.5112,0.0413 0.4878,0.0352 0.4642,0.0294 0.4406,0.0241 0.417,0.0191 0.3933,0.0146 0.3696,0.0105 0.3458,0.0068 0.322,0.0035 0.2982,7e-4 0.2743,-0.0018 0.2505,-0.0038 0.2605,0.0418 2.0737,15.6182 -0.2406,0.1083 -0.2428,0.0617 -0.2652,0.0698 -0.2877,0.0785 -0.3099,0.0874 -0.3321,0.0968 -0.354,0.1066 -0.3759,0.1167 -0.3976,0.1273 -0.4191,0.1382 -0.4404,0.1495 -0.4617,0.1613 -0.4827,0.1733 -0.5035,0.1858 -0.5242,0.1986 -0.5447,0.2118 -0.5649,0.2255 -0.5851,0.2393 -0.6049,0.2537 -0.6246,0.2684 -0.6441,0.2834 -0.6634,0.2988 -0.6823,0.3146 -0.7012,0.3307 -0.7198,0.3472 -0.738,0.364 -0.7562,0.3812 -0.774,0.3987 -0.7917,0.4165 -0.8089,0.4347 -0.8261,0.4532 -0.8429,0.4721 -0.8594,0.4912 -0.8758,0.5107 -0.8917,0.5306 -0.9075,0.5507 -0.9229,0.5711 -0.9381,0.5919 -0.9529,0.613 -0.9675,0.6343 -0.9818,0.656 -0.9957,0.678 -1.0094,0.7003 -1.0227,0.7227 -1.0357,0.7457 -1.0484,0.7687 -1.0607,0.7921 -1.0728,0.8158 -0.0368,0.6332 2.3214,10.8624 0.2924,0.5628 1.3125,0.306 1.2919,0.2894 1.271,0.273 1.25,0.2572 1.2288,0.2416 1.2074,0.2265 1.1859,0.2118 1.1641,0.1974 1.1423,0.1834 1.1203,0.17 1.098,0.1567 1.0758,0.144 1.0533,0.1317 1.0307,0.1197 1.008,0.1081 0.9852,0.0971 0.9622,0.0863 0.9391,0.0759 0.916,0.0661 0.8928,0.0565 0.8693,0.0475 0.846,0.0388 0.8223,0.0305 0.7988,0.0227 0.7751,0.0152 0.7514,0.0082 0.7275,0.0016 0.7037,-0.0046 0.6797,-0.0104 0.6558,-0.0158 0.6318,-0.0206 0.6078,-0.0252 0.5837,-0.0294 0.5595,-0.033 0.5355,-0.0362 0.5114,-0.0391 0.4872,-0.0416 0.4631,-0.0436 0.439,-0.0451 0.4149,-0.0464 0.3907,-0.0471 0.3667,-0.0474 0.3426,-0.0474 0.3186,-0.0469 0.2946,-0.046 0.2707,-0.0447 0.2467,-0.0429 0.2639,5e-4 4.4914,15.1015 -0.2207,0.1447 -0.2301,0.0989 -0.2511,0.1104 -0.2719,0.1225 -0.2924,0.1349 -0.3128,0.1475 -0.333,0.1607 -0.353,0.1741 -0.3728,0.1879 -0.3923,0.202 -0.4116,0.2166 -0.4308,0.2315 -0.4496,0.2467 -0.4683,0.2623 -0.4867,0.2781 -0.5048,0.2945 -0.5227,0.311 -0.5404,0.3279 -0.5578,0.3452 -0.575,0.3628 -0.5918,0.3807 -0.6084,0.3989 -0.6248,0.4175 -0.6408,0.4363 -0.6566,0.4555 -0.672,0.475 -0.6872,0.4948 -0.7022,0.5148 -0.7167,0.5352 -0.731,0.5559 -0.745,0.5769 -0.7587,0.5981 -0.772,0.6196 -0.7851,0.6415 -0.7977,0.6635 -0.8102,0.6859 -0.8222,0.7085 -0.8339,0.7313 -0.8453,0.7545 -0.8564,0.7779 -0.8671,0.8015 -0.8773,0.8254 -0.8874,0.8495 -0.8971,0.8739 -0.9063,0.8985 -0.9152,0.9232 -0.9238,0.9484 -0.932,0.9735 0.0627,0.6312 3.9921,10.3655 0.3768,0.5101 1.3443,0.097 1.3212,0.0837 1.2981,0.0708 1.2749,0.0585 1.2514,0.0464 1.228,0.0348 1.2044,0.0236 1.1807,0.0129 1.1569,0.002 1.133,-0.007 1.1091,-0.0169 1.0851,-0.0261 1.0609,-0.0347 1.0367,-0.043 1.0125,-0.0509 0.9883,-0.0583 0.9638,-0.0653 0.9395,-0.0719 0.9151,-0.078 0.8905,-0.0838 0.8661,-0.0891 0.8416,-0.0941 0.817,-0.0985 0.7925,-0.1025 0.768,-0.1063 0.7434,-0.1094 0.7188,-0.1122 0.6943,-0.1147 0.6697,-0.1166 0.6453,-0.1181 0.6208,-0.1193 0.5963,-0.1199 0.5719,-0.1203 0.5475,-0.1201 0.5233,-0.1196 0.4989,-0.1186 0.4747,-0.1173 0.4506,-0.1155 0.4265,-0.1132 0.4025,-0.1107 0.3786,-0.1077 0.3548,-0.1042 0.331,-0.1004 0.3073,-0.0961 0.2838,-0.0916 0.2603,-0.0864 0.237,-0.081 0.2607,-0.0408 6.7986,14.213 -0.1955,0.1774 -0.2118,0.1336 -0.2307,0.1484 -0.2493,0.1635 -0.2678,0.179 -0.2859,0.1946 -0.3037,0.2108 -0.3214,0.2272 -0.3388,0.2439 -0.3559,0.2609 -0.3727,0.2784 -0.3892,0.296 -0.4055,0.314 -0.4215,0.3322 -0.4372,0.3509 -0.4525,0.3698 -0.4677,0.389 -0.4824,0.4084 -0.497,0.4282 -0.5111,0.4483 -0.525,0.4686 -0.5385,0.4892 -0.5517,0.51 -0.5647,0.5312 -0.5772,0.5526 -0.5895,0.5743 -0.6014,0.5962 -0.6129,0.6183 -0.6242,0.6408 -0.6351,0.6634 -0.6455,0.6863 -0.6558,0.7094 -0.6656,0.7328 -0.675,0.7563 -0.6842,0.7802 -0.6929,0.8042 -0.7012,0.8283 -0.7093,0.8529 -0.7169,0.8774 -0.7241,0.9023 -0.731,0.9272 -0.7375,0.9525 -0.7435,0.9779 -0.7493,1.0035 -0.7546,1.0291 -0.7595,1.0551 -0.7641,1.0812 -0.7682,1.1073 0.1606,0.6136 5.5645,9.6134 0.452,0.4449 1.3429,-0.1145 1.318,-0.124 1.2932,-0.1331 1.2683,-0.1417 1.2434,-0.15 1.2183,-0.1577 1.1932,-0.165 1.1682,-0.172 1.143,-0.1785 1.118,-0.1846 1.0927,-0.1902 1.0676,-0.1955 1.0425,-0.2003 1.0172,-0.2046 0.9921,-0.2086 0.9669,-0.2122 0.9418,-0.2153 0.9167,-0.2179 0.8916,-0.2203 0.8665,-0.2221 0.8415,-0.2235 0.8165,-0.2245 0.7916,-0.2251 0.7666,-0.2253 0.7419,-0.225 0.7171,-0.2244 0.6924,-0.2233 0.6678,-0.2219 0.6433,-0.2199 0.6189,-0.2176 0.5944,-0.2149 0.5702,-0.2118 0.5461,-0.2082 0.522,-0.2043 0.4981,-0.2 0.4742,-0.1952 0.4506,-0.1901 0.427,-0.1845 0.4035,-0.1786 0.3802,-0.1723 0.3571,-0.1656 0.3341,-0.1584 0.3112,-0.1509 0.2885,-0.1431 0.266,-0.1348 0.2436,-0.1261 0.2214,-0.1171 0.2511,-0.0811 8.9382,12.9745 -0.1652,0.2058 -0.1883,0.1652 -0.2047,0.1826 -0.2207,0.2005 -0.2364,0.2186 -0.2519,0.237 -0.2671,0.2557 -0.2819,0.2747 -0.2965,0.2939 -0.3106,0.3134 -0.3246,0.3332 -0.3381,0.3532 -0.3514,0.3736 -0.3643,0.3941 -0.3769,0.415 -0.3892,0.436 -0.401,0.4573 -0.4126,0.4789 -0.4239,0.5007 -0.4347,0.5227 -0.4452,0.5449 -0.4554,0.5674 -0.4651,0.5901 -0.4746,0.613 -0.4837,0.6361 -0.4924,0.6594 -0.5007,0.683 -0.5087,0.7066 -0.5162,0.7305 -0.5235,0.7546 -0.5303,0.7788 -0.5367,0.8033 -0.5427,0.8279 -0.5484,0.8526 -0.5537,0.8776 -0.5586,0.9026 -0.563,0.9279 -0.5671,0.9533 -0.5708,0.9788 -0.5741,1.0044 -0.5769,1.0302 -0.5794,1.0562 -0.5815,1.0821 -0.583,1.1083 -0.5844,1.1346 -0.5851,1.1609 -0.5855,1.1873 -0.5855,1.214 0.2546,0.5808 6.9999,8.6246 0.516,0.3687 1.3084,-0.3232 1.2824,-0.3287 1.2565,-0.3337 1.2305,-0.3384 1.2046,-0.3425 1.1786,-0.3464 1.1528,-0.3497 1.1268,-0.3526 1.1011,-0.3551 1.0753,-0.3572 1.0495,-0.3588 1.0239,-0.3601 0.9983,-0.3609 0.9727,-0.3613 0.9472,-0.3612 0.9219,-0.3608 0.8965,-0.36 0.8713,-0.3587 0.8461,-0.3569 0.8211,-0.3549 0.7962,-0.3524 0.7713,-0.3495 0.7466,-0.3462 0.722,-0.3425 0.6976,-0.3383 0.6731,-0.3338 0.649,-0.3289 0.6249,-0.3235 0.6009,-0.3179 0.5772,-0.3117 0.5536,-0.3053 0.53,-0.2983 0.5068,-0.2911 0.4836,-0.2835 0.4607,-0.2754 0.4378,-0.267 0.4153,-0.2582 0.3928,-0.2491 0.3707,-0.2395 0.3486,-0.2297 0.3268,-0.2193 0.3051,-0.2088 0.2838,-0.1978 0.2626,-0.1864 0.2416,-0.1747 0.2209,-0.1627 0.2003,-0.1503 0.2354,-0.1193 10.8578,11.4165 -0.131,0.2291 -0.1601,0.1925 -0.1736,0.2125 -0.1866,0.2325 -0.1994,0.2529 -0.2117,0.2735 -0.2238,0.2943 -0.2355,0.3154 -0.2468,0.3367 -0.2578,0.3581 -0.2685,0.3799 -0.2787,0.4018 -0.2886,0.4239 -0.2982,0.4463 -0.3073,0.4688 -0.3161,0.4915 -0.3246,0.5145 -0.3326,0.5375 -0.3403,0.5608 -0.3476,0.5843 -0.3545,0.6079 -0.361,0.6316 -0.3671,0.6556 -0.3729,0.6797 -0.3782,0.7039 -0.3832,0.7284 -0.3877,0.7528 -0.3919,0.7775 -0.3956,0.8023 -0.3989,0.8272 -0.402,0.8522 -0.4044,0.8773 -0.4066,0.9026 -0.4082,0.9279 -0.4096,0.9534 -0.4105,0.9789 -0.411,1.0046 -0.411,1.0302 -0.4106,1.056 -0.4099,1.0819 -0.4086,1.1078 -0.4071,1.1338 -0.405,1.1598 -0.4025,1.1858 -0.3997,1.212 -0.3963,1.2382 -0.3925,1.2643 -0.3884,1.2906 0.3423,0.5339 8.2629,7.4234 0.5673,0.2834 1.2418,-0.5239 1.2152,-0.5253 1.1888,-0.5261 1.1624,-0.5267 1.1362,-0.5268 1.1099,-0.5265 1.0838,-0.5257 1.0579,-0.5246 1.032,-0.523 1.0061,-0.521 0.9805,-0.5186 0.955,-0.5158 0.9295,-0.5126 0.9042,-0.509 0.8791,-0.505 0.854,-0.5005 0.8292,-0.4958 0.8044,-0.4905 0.7799,-0.485 0.7555,-0.479 0.7312,-0.4726 0.7072,-0.4658 0.6833,-0.4588 0.6595,-0.4511 0.636,-0.4433 0.6127,-0.435 0.5895,-0.4264 0.5666,-0.4173 0.5438,-0.4079 0.5213,-0.3982 0.499,-0.3881 0.4769,-0.3776 0.4549,-0.3668 0.4334,-0.3557 0.4119,-0.344 0.3907,-0.3323 0.3697,-0.32 0.3491,-0.3074 0.3286,-0.2946 0.3084,-0.2813 0.2884,-0.2678 0.2688,-0.2539 0.2493,-0.2398 0.2302,-0.2252 0.2113,-0.2103 0.1927,-0.1953 0.1744,-0.1797 0.2138,-0.1548 12.5101,9.5775 -0.0936,0.2467 -0.1281,0.2153 -0.1381,0.237 -0.148,0.2588 -0.1573,0.281 -0.1664,0.3033 -0.1749,0.3257 -0.1833,0.3483 -0.1911,0.3711 -0.1986,0.3941 -0.2057,0.4172 -0.2125,0.4404 -0.2187,0.4639 -0.2247,0.4874 -0.2302,0.5111 -0.2354,0.535 -0.2401,0.5588 -0.2444,0.583 -0.2484,0.6071 -0.2519,0.6315 -0.255,0.6558 -0.2578,0.6804 -0.26,0.7049 -0.262,0.7297 -0.2634,0.7544 -0.2645,0.7793 -0.2652,0.8042 -0.2654,0.8293 -0.2653,0.8542 -0.2646,0.8795 -0.2637,0.9045 -0.2622,0.9299 -0.2603,0.955 -0.2581,0.9804 -0.2554,1.0057 -0.2523,1.0311 -0.2488,1.0565 -0.2447,1.0818 -0.2404,1.1073 -0.2356,1.1327 -0.2304,1.158 -0.2246,1.1835 -0.2186,1.2089 -0.2121,1.2342 -0.2051,1.2596 -0.1977,1.2849 -0.19,1.3102 -0.1817,1.3355 0.4217,0.4737 9.3223,6.0394 0.6048,0.1912 1.1445,-0.7117 1.1181,-0.7089 1.0918,-0.7057 1.0657,-0.702 1.0398,-0.6981 1.0139,-0.6936 0.9882,-0.6888 0.9628,-0.6835 0.9374,-0.678 0.9123,-0.672 0.8873,-0.6656 0.8625,-0.6589 0.8379,-0.6517 0.8135,-0.6441 0.7892,-0.6363 0.7652,-0.628 0.7415,-0.6194 0.7178,-0.6104 0.6944,-0.601 0.6712,-0.5912 0.6483,-0.5812 0.6256,-0.5708 0.6031,-0.5599 0.5808,-0.5488 0.5589,-0.5373 0.5371,-0.5255 0.5155,-0.5133 0.4943,-0.5009 0.4734,-0.488 0.4525,-0.4748 0.4322,-0.4614 0.4119,-0.4475 0.392,-0.4335 0.3724,-0.419 0.353,-0.4043 0.3339,-0.3892 0.3151,-0.3739 0.2967,-0.3583 0.2785,-0.3424 0.2605,-0.3261 0.243,-0.3096 0.2258,-0.2928 0.2087,-0.2758 0.1921,-0.2584 0.1758,-0.2409 0.1598,-0.223 0.1442,-0.2048 0.1869,-0.1863 13.8543,7.5025 -0.0538,0.2584 -0.0928,0.2326 -0.0994,0.2557 -0.1056,0.2789 -0.1115,0.3021 -0.1168,0.3255 -0.1219,0.3491 -0.1265,0.3727 -0.1307,0.3965 -0.1345,0.4202 -0.138,0.4443 -0.1409,0.4682 -0.1435,0.4924 -0.1456,0.5166 -0.1475,0.5408 -0.1487,0.5652 -0.1498,0.5895 -0.1502,0.614 -0.1503,0.6386 -0.15,0.663 -0.1493,0.6877 -0.1482,0.7123 -0.1465,0.737 -0.1446,0.7616 -0.1422,0.7864 -0.1394,0.811 -0.1361,0.8358 -0.1324,0.8606 -0.1283,0.8852 -0.1239,0.91 -0.1189,0.9347 -0.1135,0.9594 -0.1077,0.9841 -0.1016,1.0086 -0.0949,1.0333 -0.0879,1.0579 -0.0804,1.0824 -0.0725,1.1068 -0.0643,1.1312 -0.0555,1.1556 -0.0463,1.1799 -0.0368,1.204 -0.0267,1.2282 -0.0164,1.2522 -0.006,1.2762 0.006,1.3 0.0174,1.3238 0.0294,1.3474 0.4906,0.4019 10.1524,4.5068 0.6272,0.0942 1.019,-0.882 0.9935,-0.8751 0.968,-0.8678 0.9427,-0.8601 0.9178,-0.8521 0.8929,-0.8437 0.8684,-0.8349 0.8439,-0.8257 0.8199,-0.8163 0.7959,-0.8065 0.7722,-0.7962 0.7489,-0.7856 0.7256,-0.7748 0.7027,-0.7635 0.68,-0.7519 0.6575,-0.74 0.6354,-0.7277 0.6135,-0.7152 0.5918,-0.7022 0.5705,-0.689 0.5494,-0.6754 0.5286,-0.6616 0.5081,-0.6474 0.4878,-0.6329 0.4679,-0.6181 0.4483,-0.603 0.4289,-0.5877 0.4099,-0.572 0.3912,-0.556 0.3727,-0.5398 0.3546,-0.5233 0.3369,-0.5065 0.3193,-0.4894 0.3022,-0.4722 0.2855,-0.4545 0.2689,-0.4367 0.2528,-0.4186 0.2369,-0.4002 0.2215,-0.3817 0.2064,-0.3629 0.1915,-0.3438 0.1772,-0.3246 0.163,-0.305 0.1494,-0.2853 0.1359,-0.2654 0.123,-0.2452 0.1103,-0.2249 0.1555,-0.2132 14.8574,5.2429 -0.0128,0.2636 -0.0552,0.2442 -0.0582,0.2681 -0.0607,0.2919 -0.0628,0.3159 -0.0645,0.3398 -0.0658,0.3638 -0.0667,0.3879 -0.067,0.4121 -0.0671,0.4361 -0.0668,0.4604 -0.0659,0.4845 -0.0647,0.5088 -0.0631,0.533 -0.061,0.5572 -0.0585,0.5815 -0.0557,0.6057 -0.0523,0.6299 -0.0486,0.6542 -0.0444,0.6784 -0.0399,0.7026 -0.0349,0.7267 -0.0295,0.7508 -0.0236,0.7749 -0.0174,0.7989 -0.0108,0.8229 -0.0037,0.8468 0.0038,0.8706 0.0118,0.8945 0.02,0.9181 0.0288,0.9418 0.0379,0.9653 0.0476,0.9888 0.0575,1.0122 0.0678,1.0354 0.0787,1.0586 0.0899,1.0816 0.1015,1.1046 0.1136,1.1273 0.1259,1.15 0.1388,1.1726 0.1521,1.195 0.1656,1.2172 0.1798,1.2394 0.1941,1.2613 0.209,1.2832 0.2242,1.3047 0.2399,1.3263 0.5474,0.3202 10.7324,2.8631 0.6342,-0.005 0.8686,-1.0305 0.8443,-1.0197 0.8203,-1.0086 0.7966,-0.997 0.7732,-0.9851 0.7499,-0.973 0.7271,-0.9605 0.7044,-0.9476 0.682,-0.9345 0.66,-0.921 0.6382,-0.9073 0.6167,-0.8931 0.5955,-0.8787 0.5745,-0.864 0.554,-0.8491 0.5337,-0.8337 0.5138,-0.8182 0.494,-0.8023 0.4747,-0.7861 0.4557,-0.7698 0.437,-0.7531 0.4186,-0.7361 0.4005,-0.7189 0.3829,-0.7014 0.3654,-0.6837 0.3484,-0.6658 0.3317,-0.6475 0.3154,-0.629 0.2993,-0.6104 0.2837,-0.5915 0.2684,-0.5723 0.2535,-0.553 0.2389,-0.5333 0.2246,-0.5136 0.2108,-0.4936 0.1973,-0.4734 0.1842,-0.453 0.1714,-0.4324 0.1591,-0.4116 0.147,-0.3907 0.1355,-0.3696 0.1241,-0.3482 0.1134,-0.3268 0.1028,-0.3052 0.0928,-0.2833 0.0831,-0.2615 0.0737,-0.2393 0.1203,-0.2349 15.4946,2.8541 0.0287,0.2623 -0.0164,0.2499 -0.0155,0.2739 -0.0143,0.2978 -0.0127,0.3218 -0.0105,0.3457 -0.0081,0.3697 -0.0051,0.3935 -0.0018,0.4175 0.002,0.4413 0.0061,0.4651 0.0106,0.4889 0.0157,0.5126 0.0211,0.5363 0.0269,0.5599 0.0332,0.5835 0.0398,0.6069 0.0468,0.6304 0.0544,0.6538 0.0622,0.6769 0.0705,0.7002 0.0792,0.7232 0.0884,0.7462 0.0978,0.769 0.1078,0.7918 0.1181,0.8145 0.1288,0.8369 0.14,0.8594 0.1515,0.8816 0.1635,0.9037 0.1757,0.9257 0.1885,0.9475 0.2016,0.9692 0.2151,0.9907 0.2291,1.012 0.2433,1.0332 0.258,1.0543 0.273,1.075 0.2885,1.0958 0.3043,1.1161 0.3205,1.1365 0.3372,1.1564 0.354,1.1764 0.3714,1.196 0.3891,1.2154 0.4071,1.2346 0.4256,1.2537 0.4443,1.2723 0.5908,0.2307 11.0482,1.1489 0.6256,-0.1042 0.6966,-1.1537 0.6744,-1.1392 0.6525,-1.1245 0.6308,-1.1093 0.6095,-1.094 0.5886,-1.0784 0.5678,-1.0623 0.5475,-1.0462 0.5275,-1.0297 0.5077,-1.0129 0.4884,-0.9959 0.4694,-0.9786 0.4507,-0.961 0.4324,-0.9433 0.4143,-0.9253 0.3967,-0.9069 0.3795,-0.8885 0.3624,-0.8697 0.3459,-0.8507 0.3297,-0.8316 0.3137,-0.8122 0.2983,-0.7925 0.2832,-0.7727 0.2684,-0.7527 0.254,-0.7325 0.2399,-0.712 0.2264,-0.6914 0.213,-0.6707 0.2002,-0.6497 0.1877,-0.6285 0.1756,-0.6073 0.1638,-0.5858 0.1525,-0.5642 0.1415,-0.5424 0.131,-0.5204 0.1208,-0.4985 0.1111,-0.4762 0.1017,-0.4539 0.0927,-0.4315 0.0841,-0.4088 0.0759,-0.3862 0.0682,-0.3634 0.0608,-0.3405 0.0539,-0.3175 0.0473,-0.2944 0.0411,-0.2712 0.0354,-0.248 0.082,-0.2508 15.7504,0.3951 0.0693,0.2546 0.023,0.2494 0.0275,0.2729 0.0324,0.2964 0.0379,0.3198 0.0437,0.3432 0.0499,0.3663 0.0565,0.3895 0.0635,0.4126 0.0709,0.4356 0.0788,0.4584 0.087,0.4812 0.0957,0.5038 0.1047,0.5264 0.1142,0.5488 0.124,0.5711 0.1343,0.5933 0.1449,0.6153 0.1559,0.6372 0.1674,0.6589 0.1792,0.6805 0.1914,0.7019 0.2039,0.7232 0.217,0.7443 0.2303,0.7652 0.2441,0.7859 0.2581,0.8065 0.2727,0.8269 0.2876,0.847 0.3028,0.867 0.3184,0.8868 0.3344,0.9064 0.3507,0.9257 0.3675,0.9448 0.3845,0.9638 0.4019,0.9825 0.4198,1.0009 0.4378,1.0191 0.4564,1.0371 0.4752,1.0548 0.4943,1.0723 0.5139,1.0895 0.5337,1.1065 0.5539,1.1231 0.5744,1.1396 0.5953,1.1558 0.6164,1.1716 0.638,1.1872 0.6196,0.1354 11.0918,-0.5936 0.6016,-0.2007 0.5076,-1.2485 0.4879,-1.2307 0.4685,-1.2127 0.4495,-1.1944 0.4309,-1.1759 0.4126,-1.1571 0.3947,-1.1381 0.3771,-1.1189 0.3598,-1.0995 0.3431,-1.0799 0.3266,-1.06 0.3105,-1.04 0.2948,-1.0198 0.2795,-0.9993 0.2645,-0.9786 0.25,-0.9579 0.2357,-0.9369 0.222,-0.9157 0.2085,-0.8944 0.1955,-0.8728 0.1829,-0.8513 0.1706,-0.8294 0.1588,-0.8075 0.1474,-0.7854 0.1362,-0.7632 0.1257,-0.7408 0.1154,-0.7184 0.1055,-0.6957 0.0961,-0.673 0.087,-0.6502 0.0784,-0.6272 0.0702,-0.6042 0.0624,-0.5811 0.0549,-0.5579 0.048,-0.5345 0.0413,-0.5112 0.0352,-0.4878 0.0294,-0.4642 0.0241,-0.4406 0.0191,-0.417 0.0146,-0.3933 0.0105,-0.3696 0.0068,-0.3458 0.0035,-0.322 7e-4,-0.2982 -0.0018,-0.2743 -0.0038,-0.2505 0.0418,-0.2605 15.6182,-2.0737 0.1083,0.2406 0.0617,0.2428 0.0698,0.2652 0.0785,0.2877 0.0874,0.3099 0.0968,0.3321 0.1066,0.354 0.1167,0.3759 0.1273,0.3976 0.1382,0.4191 0.1495,0.4404 0.1613,0.4617 0.1733,0.4827 0.1858,0.5035 0.1986,0.5242 0.2118,0.5447 0.2255,0.5649 0.2393,0.5851 0.2537,0.6049 0.2684,0.6246 0.2834,0.6441 0.2988,0.6634 0.3146,0.6823 0.3307,0.7012 0.3472,0.7198 0.364,0.738 0.3812,0.7562 0.3987,0.774 0.4165,0.7917 0.4347,0.8089 0.4532,0.8261 0.4721,0.8429 0.4912,0.8594 0.5107,0.8758 0.5306,0.8917 0.5507,0.9075 0.5711,0.9229 0.5919,0.9381 0.613,0.9529 0.6343,0.9675 0.656,0.9818 0.678,0.9957 0.7003,1.0094 0.7227,1.0227 0.7457,1.0357 0.7687,1.0484 0.7921,1.0607 0.8158,1.0728 0.6332,0.0368 10.8624,-2.3214 0.5628,-0.2924 0.306,-1.3125 0.2894,-1.2919 0.273,-1.271 0.2572,-1.25 0.2416,-1.2288 0.2265,-1.2074 0.2118,-1.1859 0.1974,-1.1641 0.1834,-1.1423 0.17,-1.1203 0.1567,-1.098 0.144,-1.0758 0.1317,-1.0533 0.1197,-1.0307 0.1081,-1.008 0.0971,-0.9852 0.0863,-0.9622 0.0759,-0.9391 0.0661,-0.916 0.0565,-0.8928 0.0475,-0.8693 0.0388,-0.846 0.0305,-0.8223 0.0227,-0.7988 0.0152,-0.7751 0.0082,-0.7514 0.0016,-0.7275 -0.0046,-0.7037 -0.0104,-0.6797 -0.0158,-0.6558 -0.0206,-0.6318 -0.0252,-0.6078 -0.0294,-0.5837 -0.033,-0.5595 -0.0362,-0.5355 -0.0391,-0.5114 -0.0416,-0.4872 -0.0436,-0.4631 -0.0451,-0.439 -0.0464,-0.4149 -0.0471,-0.3907 -0.0474,-0.3667 -0.0474,-0.3426 -0.0469,-0.3186 -0.046,-0.2946 -0.0447,-0.2707 -0.0429,-0.2467 5e-4,-0.2639 15.1015,-4.4914 0.1447,0.2207 0.0989,0.2301 0.1104,0.2511 0.1225,0.2719 0.1349,0.2924 0.1475,0.3128 0.1607,0.333 0.1741,0.353 0.1879,0.3728 0.202,0.3923 0.2166,0.4116 0.2315,0.4308 0.2467,0.4496 0.2623,0.4683 0.2781,0.4867 0.2945,0.5048 0.311,0.5227 0.3279,0.5404 0.3452,0.5578 0.3628,0.575 0.3807,0.5918 0.3989,0.6084 0.4175,0.6248 0.4363,0.6408 0.4555,0.6566 0.475,0.672 0.4948,0.6872 0.5148,0.7022 0.5352,0.7167 0.5559,0.731 0.5769,0.745 0.5981,0.7587 0.6196,0.772 0.6415,0.7851 0.6635,0.7977 0.6859,0.8102 0.7085,0.8222 0.7313,0.8339 0.7545,0.8453 0.7779,0.8564 0.8015,0.8671 0.8254,0.8773 0.8495,0.8874 0.8739,0.8971 0.8985,0.9063 0.9232,0.9152 0.9484,0.9238 0.9735,0.932 0.6312,-0.0627 10.3655,-3.9921 0.5101,-0.3768 0.097,-1.3443 0.0837,-1.3212 0.0708,-1.2981 0.0585,-1.2749 0.0464,-1.2514 0.0348,-1.228 0.0236,-1.2044 0.0129,-1.1807 0.002,-1.1569 -0.007,-1.133 -0.0169,-1.1091 -0.0261,-1.0851 -0.0347,-1.0609 -0.043,-1.0367 -0.0509,-1.0125 -0.0583,-0.9883 -0.0653,-0.9638 -0.0719,-0.9395 -0.078,-0.9151 -0.0838,-0.8905 -0.0891,-0.8661 -0.0941,-0.8416 -0.0985,-0.817 -0.1025,-0.7925 -0.1063,-0.768 -0.1094,-0.7434 -0.1122,-0.7188 -0.1147,-0.6943 -0.1166,-0.6697 -0.1181,-0.6453 -0.1193,-0.6208 -0.1199,-0.5963 -0.1203,-0.5719 -0.1201,-0.5475 -0.1196,-0.5233 -0.1186,-0.4989 -0.1173,-0.4747 -0.1155,-0.4506 -0.1132,-0.4265 -0.1107,-0.4025 -0.1077,-0.3786 -0.1042,-0.3548 -0.1004,-0.331 -0.0961,-0.3073 -0.0916,-0.2838 -0.0864,-0.2603 -0.081,-0.237 -0.0408,-0.2607 14.213,-6.7986 0.1774,0.1955 0.1336,0.2118 0.1484,0.2307 0.1635,0.2493 0.179,0.2678 0.1946,0.2859 0.2108,0.3037 0.2272,0.3214 0.2439,0.3388 0.2609,0.3559 0.2784,0.3727 0.296,0.3892 0.314,0.4055 0.3322,0.4215 0.3509,0.4372 0.3698,0.4525 0.389,0.4677 0.4084,0.4824 0.4282,0.497 0.4483,0.5111 0.4686,0.525 0.4892,0.5385 0.51,0.5517 0.5312,0.5647 0.5526,0.5772 0.5743,0.5895 0.5962,0.6014 0.6183,0.6129 0.6408,0.6242 0.6634,0.6351 0.6863,0.6455 0.7094,0.6558 0.7328,0.6656 0.7563,0.675 0.7802,0.6842 0.8042,0.6929 0.8283,0.7012 0.8529,0.7093 0.8774,0.7169 0.9023,0.7241 0.9272,0.731 0.9525,0.7375 0.9779,0.7435 1.0035,0.7493 1.0291,0.7546 1.0551,0.7595 1.0812,0.7641 1.1073,0.7682 0.6136,-0.1606 9.6134,-5.5645 0.4449,-0.452 -0.1145,-1.3429 -0.124,-1.318 -0.1331,-1.2932 -0.1417,-1.2683 -0.15,-1.2434 -0.1577,-1.2183 -0.165,-1.1932 -0.172,-1.1682 -0.1785,-1.143 -0.1846,-1.118 -0.1902,-1.0927 -0.1955,-1.0676 -0.2003,-1.0425 -0.2046,-1.0172 -0.2086,-0.9921 -0.2122,-0.9669 -0.2153,-0.9418 -0.2179,-0.9167 -0.2203,-0.8916 -0.2221,-0.8665 -0.2235,-0.8415 -0.2245,-0.8165 -0.2251,-0.7916 -0.2253,-0.7666 -0.225,-0.7419 -0.2244,-0.7171 -0.2233,-0.6924 -0.2219,-0.6678 -0.2199,-0.6433 -0.2176,-0.6189 -0.2149,-0.5944 -0.2118,-0.5702 -0.2082,-0.5461 -0.2043,-0.522 -0.2,-0.4981 -0.1952,-0.4742 -0.1901,-0.4506 -0.1845,-0.427 -0.1786,-0.4035 -0.1723,-0.3802 -0.1656,-0.3571 -0.1584,-0.3341 -0.1509,-0.3112 -0.1431,-0.2885 -0.1348,-0.266 -0.1261,-0.2436 -0.1171,-0.2214 -0.0811,-0.2511 12.9745,-8.9382 0.2058,0.1652 0.1652,0.1883 0.1826,0.2047 0.2005,0.2207 0.2186,0.2364 0.237,0.2519 0.2557,0.2671 0.2747,0.2819 0.2939,0.2965 0.3134,0.3106 0.3332,0.3246 0.3532,0.3381 0.3736,0.3514 0.3941,0.3643 0.415,0.3769 0.436,0.3892 0.4573,0.401 0.4789,0.4126 0.5007,0.4239 0.5227,0.4347 0.5449,0.4452 0.5674,0.4554 0.5901,0.4651 0.613,0.4746 0.6361,0.4837 0.6594,0.4924 0.683,0.5007 0.7066,0.5087 0.7305,0.5162 0.7546,0.5235 0.7788,0.5303 0.8033,0.5367 0.8279,0.5427 0.8526,0.5484 0.8776,0.5537 0.9026,0.5586 0.9279,0.563 0.9533,0.5671 0.9788,0.5708 1.0044,0.5741 1.0302,0.5769 1.0562,0.5794 1.0821,0.5815 1.1083,0.583 1.1346,0.5844 1.1609,0.5851 1.1873,0.5855 1.214,0.5855 0.5808,-0.2546 8.6246,-6.9999 0.3687,-0.516 -0.3232,-1.3084 -0.3287,-1.2824 -0.3337,-1.2565 -0.3384,-1.2305 -0.3425,-1.2046 -0.3464,-1.1786 -0.3497,-1.1528 -0.3526,-1.1268 -0.3551,-1.1011 -0.3572,-1.0753 -0.3588,-1.0495 -0.3601,-1.0239 -0.3609,-0.9983 -0.3613,-0.9727 -0.3612,-0.9472 -0.3608,-0.9219 -0.36,-0.8965 -0.3587,-0.8713 -0.3569,-0.8461 -0.3549,-0.8211 -0.3524,-0.7962 -0.3495,-0.7713 -0.3462,-0.7466 -0.3425,-0.722 -0.3383,-0.6976 -0.3338,-0.6731 -0.3289,-0.649 -0.3235,-0.6249 -0.3179,-0.6009 -0.3117,-0.5772 -0.3053,-0.5536 -0.2983,-0.53 -0.2911,-0.5068 -0.2835,-0.4836 -0.2754,-0.4607 -0.267,-0.4378 -0.2582,-0.4153 -0.2491,-0.3928 -0.2395,-0.3707 -0.2297,-0.3486 -0.2193,-0.3268 -0.2088,-0.3051 -0.1978,-0.2838 -0.1864,-0.2626 -0.1747,-0.2416 -0.1627,-0.2209 -0.1503,-0.2003 -0.1193,-0.2354 11.4165,-10.8578 0.2291,0.131 0.1925,0.1601 0.2125,0.1736 0.2325,0.1866 0.2529,0.1994 0.2735,0.2117 0.2943,0.2238 0.3154,0.2355 0.3367,0.2468 0.3581,0.2578 0.3799,0.2685 0.4018,0.2787 0.4239,0.2886 0.4463,0.2982 0.4688,0.3073 0.4915,0.3161 0.5145,0.3246 0.5375,0.3326 0.5608,0.3403 0.5843,0.3476 0.6079,0.3545 0.6316,0.361 0.6556,0.3671 0.6797,0.3729 0.7039,0.3782 0.7284,0.3832 0.7528,0.3877 0.7775,0.3919 0.8023,0.3956 0.8272,0.3989 0.8522,0.402 0.8773,0.4044 0.9026,0.4066 0.9279,0.4082 0.9534,0.4096 0.9789,0.4105 1.0046,0.411 1.0302,0.411 1.056,0.4106 1.0819,0.4099 1.1078,0.4086 1.1338,0.4071 1.1598,0.405 1.1858,0.4025 1.212,0.3997 1.2382,0.3963 1.2643,0.3925 1.2906,0.3884 0.5339,-0.3423 7.4234,-8.2629 0.2834,-0.5673 -0.5239,-1.2418 -0.5253,-1.2152 -0.5261,-1.1888 -0.5267,-1.1624 -0.5268,-1.1362 -0.5265,-1.1099 -0.5257,-1.0838 -0.5246,-1.0579 -0.523,-1.032 -0.521,-1.0061 -0.5186,-0.9805 -0.5158,-0.955 -0.5126,-0.9295 -0.509,-0.9042 -0.505,-0.8791 -0.5005,-0.854 -0.4958,-0.8292 -0.4905,-0.8044 -0.485,-0.7799 -0.479,-0.7555 -0.4726,-0.7312 -0.4658,-0.7072 -0.4588,-0.6833 -0.4511,-0.6595 -0.4433,-0.636 -0.435,-0.6127 -0.4264,-0.5895 -0.4173,-0.5666 -0.4079,-0.5438 -0.3982,-0.5213 -0.3881,-0.499 -0.3776,-0.4769 -0.3668,-0.4549 -0.3557,-0.4334 -0.344,-0.4119 -0.3323,-0.3907 -0.32,-0.3697 -0.3074,-0.3491 -0.2946,-0.3286 -0.2813,-0.3084 -0.2678,-0.2884 -0.2539,-0.2688 -0.2398,-0.2493 -0.2252,-0.2302 -0.2103,-0.2113 -0.1953,-0.1927 -0.1797,-0.1744 -0.1548,-0.2138 9.5775,-12.5101 0.2467,0.0936 0.2153,0.1281 0.237,0.1381 0.2588,0.148 0.281,0.1573 0.3033,0.1664 0.3257,0.1749 0.3483,0.1833 0.3711,0.1911 0.3941,0.1986 0.4172,0.2057 0.4404,0.2125 0.4639,0.2187 0.4874,0.2247 0.5111,0.2302 0.535,0.2354 0.5588,0.2401 0.583,0.2444 0.6071,0.2484 0.6315,0.2519 0.6558,0.255 0.6804,0.2578 0.7049,0.26 0.7297,0.262 0.7544,0.2634 0.7793,0.2645 0.8042,0.2652 0.8293,0.2654 0.8542,0.2653 0.8795,0.2646 0.9045,0.2637 0.9299,0.2622 0.955,0.2603 0.9804,0.2581 1.0057,0.2554 1.0311,0.2523 1.0565,0.2488 1.0818,0.2447 1.1073,0.2404 1.1327,0.2356 1.158,0.2304 1.1835,0.2246 1.2089,0.2186 1.2342,0.2121 1.2596,0.2051 1.2849,0.1977 1.3102,0.19 1.3355,0.1817 0.4737,-0.4217 6.0394,-9.3223 0.1912,-0.6048 -0.7117,-1.1445 -0.7089,-1.1181 -0.7057,-1.0918 -0.702,-1.0657 -0.6981,-1.0398 -0.6936,-1.0139 -0.6888,-0.9882 -0.6835,-0.9628 -0.678,-0.9374 -0.672,-0.9123 -0.6656,-0.8873 -0.6589,-0.8625 -0.6517,-0.8379 -0.6441,-0.8135 -0.6363,-0.7892 -0.628,-0.7652 -0.6194,-0.7415 -0.6104,-0.7178 -0.601,-0.6944 -0.5912,-0.6712 -0.5812,-0.6483 -0.5708,-0.6256 -0.5599,-0.6031 -0.5488,-0.5808 -0.5373,-0.5589 -0.5255,-0.5371 -0.5133,-0.5155 -0.5009,-0.4943 -0.488,-0.4734 -0.4748,-0.4525 -0.4614,-0.4322 -0.4475,-0.4119 -0.4335,-0.392 -0.419,-0.3724 -0.4043,-0.353 -0.3892,-0.3339 -0.3739,-0.3151 -0.3583,-0.2967 -0.3424,-0.2785 -0.3261,-0.2605 -0.3096,-0.243 -0.2928,-0.2258 -0.2758,-0.2087 -0.2584,-0.1921 -0.2409,-0.1758 -0.223,-0.1598 -0.2048,-0.1442 -0.1863,-0.1869 7.5025,-13.8543 0.2584,0.0538 0.2326,0.0928 0.2557,0.0994 0.2789,0.1056 0.3021,0.1115 0.3255,0.1168 0.3491,0.1219 0.3727,0.1265 0.3965,0.1307 0.4202,0.1345 0.4443,0.138 0.4682,0.1409 0.4924,0.1435 0.5166,0.1456 0.5408,0.1475 0.5652,0.1487 0.5895,0.1498 0.614,0.1502 0.6386,0.1503 0.663,0.15 0.6877,0.1493 0.7123,0.1482 0.737,0.1465 0.7616,0.1446 0.7864,0.1422 0.811,0.1394 0.8358,0.1361 0.8606,0.1324 0.8852,0.1283 0.91,0.1239 0.9347,0.1189 0.9594,0.1135 0.9841,0.1077 1.0086,0.1016 1.0333,0.0949 1.0579,0.0879 1.0824,0.0804 1.1068,0.0725 1.1312,0.0643 1.1556,0.0555 1.1799,0.0463 1.204,0.0368 1.2282,0.0267 1.2522,0.0164 1.2762,0.006 1.3,-0.006 1.3238,-0.0174 1.3474,-0.0294 0.4019,-0.4906 4.5068,-10.1524 0.0942,-0.6272 -0.882,-1.019 -0.8751,-0.9935 -0.8678,-0.968 -0.8601,-0.9427 -0.8521,-0.9178 -0.8437,-0.8929 -0.8349,-0.8684 -0.8257,-0.8439 -0.8163,-0.8199 -0.8065,-0.7959 -0.7962,-0.7722 -0.7856,-0.7489 -0.7748,-0.7256 -0.7635,-0.7027 -0.7519,-0.68 -0.74,-0.6575 -0.7277,-0.6354 -0.7152,-0.6135 -0.7022,-0.5918 -0.689,-0.5705 -0.6754,-0.5494 -0.6616,-0.5286 -0.6474,-0.5081 -0.6329,-0.4878 -0.6181,-0.4679 -0.603,-0.4483 -0.5877,-0.4289 -0.572,-0.4099 -0.556,-0.3912 -0.5398,-0.3727 -0.5233,-0.3546 -0.5065,-0.3369 -0.4894,-0.3193 -0.4722,-0.3022 -0.4545,-0.2855 -0.4367,-0.2689 -0.4186,-0.2528 -0.4002,-0.2369 -0.3817,-0.2215 -0.3629,-0.2064 -0.3438,-0.1915 -0.3246,-0.1772 -0.305,-0.163 -0.2853,-0.1494 -0.2654,-0.1359 -0.2452,-0.123 -0.2249,-0.1103 -0.2132,-0.1555 5.2429,-14.8574 0.2636,0.0128 0.2442,0.0552 0.2681,0.0582 0.2919,0.0607 0.3159,0.0628 0.3398,0.0645 0.3638,0.0658 0.3879,0.0667 0.4121,0.067 0.4361,0.0671 0.4604,0.0668 0.4845,0.0659 0.5088,0.0647 0.533,0.0631 0.5572,0.061 0.5815,0.0585 0.6057,0.0557 0.6299,0.0523 0.6542,0.0486 0.6784,0.0444 0.7026,0.0399 0.7267,0.0349 0.7508,0.0295 0.7749,0.0236 0.7989,0.0174 0.8229,0.0108 0.8468,0.0037 0.8706,-0.0038 0.8945,-0.0118 0.9181,-0.02 0.9418,-0.0288 0.9653,-0.0379 0.9888,-0.0476 1.0122,-0.0575 1.0354,-0.0678 1.0586,-0.0787 1.0816,-0.0899 1.1046,-0.1015 1.1273,-0.1136 1.15,-0.1259 1.1726,-0.1388 1.195,-0.1521 1.2172,-0.1656 1.2394,-0.1798 1.2613,-0.1941 1.2832,-0.209 1.3047,-0.2242 1.3263,-0.2399 0.3202,-0.5474 2.8631,-10.7324 -0.005,-0.6342 -1.0305,-0.8686 -1.0197,-0.8443 -1.0086,-0.8203 -0.997,-0.7966 -0.9851,-0.7732 -0.973,-0.7499 -0.9605,-0.7271 -0.9476,-0.7044 -0.9345,-0.682 -0.921,-0.66 -0.9073,-0.6382 -0.8931,-0.6167 -0.8787,-0.5955 -0.864,-0.5745 -0.8491,-0.554 -0.8337,-0.5337 -0.8182,-0.5138 -0.8023,-0.494 -0.7861,-0.4747 -0.7698,-0.4557 -0.7531,-0.437 -0.7361,-0.4186 -0.7189,-0.4005 -0.7014,-0.3829 -0.6837,-0.3654 -0.6658,-0.3484 -0.6475,-0.3317 -0.629,-0.3154 -0.6104,-0.2993 -0.5915,-0.2837 -0.5723,-0.2684 -0.553,-0.2535 -0.5333,-0.2389 -0.5136,-0.2246 -0.4936,-0.2108 -0.4734,-0.1973 -0.453,-0.1842 -0.4324,-0.1714 -0.4116,-0.1591 -0.3907,-0.147 -0.3696,-0.1355 -0.3482,-0.1241 -0.3268,-0.1134 -0.3052,-0.1028 -0.2833,-0.0928 -0.2615,-0.0831 -0.2393,-0.0737 -0.2349,-0.1203 2.8541,-15.4946 0.2623,-0.0287 0.2499,0.0164 0.2739,0.0155 0.2978,0.0143 0.3218,0.0127 0.3457,0.0105 0.3697,0.0081 0.3935,0.0051 0.4175,0.0018 0.4413,-0.002 0.4651,-0.0061 0.4889,-0.0106 0.5126,-0.0157 0.5363,-0.0211 0.5599,-0.0269 0.5835,-0.0332 0.6069,-0.0398 0.6304,-0.0468 0.6538,-0.0544 0.6769,-0.0622 0.7002,-0.0705 0.7232,-0.0792 0.7462,-0.0884 0.769,-0.0978 0.7918,-0.1078 0.8145,-0.1181 0.8369,-0.1288 0.8594,-0.14 0.8816,-0.1515 0.9037,-0.1635 0.9257,-0.1757 0.9475,-0.1885 0.9692,-0.2016 0.9907,-0.2151 1.012,-0.2291 1.0332,-0.2433 1.0543,-0.258 1.075,-0.273 1.0958,-0.2885 1.1161,-0.3043 1.1365,-0.3205 1.1564,-0.3372 1.1764,-0.354 1.196,-0.3714 1.2154,-0.3891 1.2346,-0.4071 1.2537,-0.4256 1.2723,-0.4443 0.2307,-0.5908 1.1489,-11.0482 -0.1042,-0.6256 -1.1537,-0.6966 -1.1392,-0.6744 -1.1245,-0.6525 -1.1093,-0.6308 -1.094,-0.6095 -1.0784,-0.5886 -1.0623,-0.5678 -1.0462,-0.5475 -1.0297,-0.5275 -1.0129,-0.5077 -0.9959,-0.4884 -0.9786,-0.4694 -0.961,-0.4507 -0.9433,-0.4324 -0.9253,-0.4143 -0.9069,-0.3967 -0.8885,-0.3795 -0.8697,-0.3624 -0.8507,-0.3459 -0.8316,-0.3297 -0.8122,-0.3137 -0.7925,-0.2983 -0.7727,-0.2832 -0.7527,-0.2684 -0.7325,-0.254 -0.712,-0.2399 -0.6914,-0.2264 -0.6707,-0.213 -0.6497,-0.2002 -0.6285,-0.1877 -0.6073,-0.1756 -0.5858,-0.1638 -0.5642,-0.1525 -0.5424,-0.1415 -0.5204,-0.131 -0.4985,-0.1208 -0.4762,-0.1111 -0.4539,-0.1017 -0.4315,-0.0927 -0.4088,-0.0841 -0.3862,-0.0759 -0.3634,-0.0682 -0.3405,-0.0608 -0.3175,-0.0539 -0.2944,-0.0473 -0.2712,-0.0411 -0.248,-0.0354 -0.2508,-0.082 z"
     id="gearpoly1" /><g
     class="guides"
     id="g5"><polyline
       fill="none"
       stroke="#444"
       stroke-width="0.5"
       stroke-miterlimit="10"
       points="10,0 -10,0"
       id="polyline7" /><polyline
       fill="none"
       stroke="#444"
       stroke-width="0.5"
       stroke-miterlimit="10"
       points="0,10 0,-10"
       id="polyline9" /></g><circle
     fill="#c00"
     class="firstmarker"
     stroke="none"
     stroke-miterlimit="10"
     cx="332.8571"
     cy="-17.8123"
     r="6.5417"
     id="circle11" /><g
     class="geartext"
     id="g13"><g
       class="text"
       id="g15"><polyline
         fill="none"
         stroke="#444"
         stroke-width="0.5"
         stroke-linecap="square"
         stroke-miterlimit="1"
         points="195.33 -206.39 193.14 -208.44 190.93 -210.46 188.7 -212.47 186.45 -214.45 "
         id="polyline17" /><polyline
         fill="none"
         stroke="#444"
         stroke-width="0.5"
         stroke-linecap="square"
         stroke-miterlimit="1"
         points="186.9 -206.02 194.96 -214.91 "
         id="polyline19" /><polyline
         fill="none"
         stroke="#444"
         stroke-width="0.5"
         stroke-linecap="square"
         stroke-miterlimit="1"
         points="199.46 -210.74 195.18 -210.64 190.93 -210.46 186.71 -210.23 182.51 -209.92 "
         id="polyline21" /><polyline
         fill="none"
         stroke="#444"
         stroke-width="0.5"
         stroke-linecap="square"
         stroke-miterlimit="1"
         points="191.21 -202.03 191.11 -206.24 190.93 -210.46 190.69 -214.71 190.38 -218.98 "
         id="polyline23" /><polyline
         fill="none"
         stroke="#444"
         stroke-width="0.5"
         stroke-linecap="square"
         stroke-miterlimit="1"
         points="203.86 -206.49 208.16 -206.43 195.38 -193.76 "
         id="polyline25" /><polyline
         fill="none"
         stroke="#444"
         stroke-width="0.5"
         stroke-linecap="square"
         stroke-miterlimit="1"
         points="197.42 -191.69 195.38 -193.76 193.32 -195.81 "
         id="polyline27" /><polyline
         fill="none"
         stroke="#444"
         stroke-width="0.5"
         stroke-linecap="square"
         stroke-miterlimit="1"
         points="232.58 -178.48 218.3 -167.52 220.06 -172.59 221.73 -177.72 223.33 -182.9 224.83 -188.14 211.03 -176.59 "
         id="polyline29" /><polyline
         fill="none"
         stroke="#444"
         stroke-width="0.5"
         stroke-linecap="square"
         stroke-miterlimit="1"
         points="238.43 -160.06 236.72 -162.56 234.99 -165.05 233.24 -167.52 231.46 -169.98 "
         id="polyline31" /><polyline
         fill="none"
         stroke="#444"
         stroke-width="0.5"
         stroke-linecap="square"
         stroke-miterlimit="1"
         points="233.44 -156.71 231.78 -159.17 230.08 -161.6 228.37 -164.02 226.62 -166.43 "
         id="polyline33" /><polyline
         fill="none"
         stroke="#444"
         stroke-width="0.5"
         stroke-linecap="square"
         stroke-miterlimit="1"
         points="242.9 -141.62 241.39 -144.18 239.85 -146.72 238.29 -149.24 236.7 -151.75 241.68 -151.36 246.68 -150.89 251.69 -150.33 236.24 -141.1 "
         id="polyline35" /><polyline
         fill="none"
         stroke="#444"
         stroke-width="0.5"
         stroke-linecap="square"
         stroke-miterlimit="1"
         points="247.36 -127.23 243.35 -128.44 241.98 -131 243.21 -135 253.7 -140.83 257.81 -139.57 259.27 -136.84 258.03 -132.72 247.36 -127.23 "
         id="polyline37" /><polyline
         fill="none"
         stroke="#444"
         stroke-width="0.5"
         stroke-linecap="square"
         stroke-miterlimit="1"
         points="261.6 -110.97 262.76 -108.2 263.89 -105.42 264.99 -102.63 268.87 -100.88 271.67 -101.93 273.38 -105.88 272.25 -108.76 271.08 -111.63 269.89 -114.48 253.32 -107.45 "
         id="polyline39" /><polyline
         fill="none"
         stroke="#444"
         stroke-width="0.5"
         stroke-linecap="square"
         stroke-miterlimit="1"
         points="259.61 -91.2 270.93 -95.18 "
         id="polyline41" /><polyline
         fill="none"
         stroke="#444"
         stroke-width="0.5"
         stroke-linecap="square"
         stroke-miterlimit="1"
         points="273.77 -96.17 276.6 -97.17 "
         id="polyline43" /><polyline
         fill="none"
         stroke="#444"
         stroke-width="0.5"
         stroke-linecap="square"
         stroke-miterlimit="1"
         points="267.75 -75.4 264.06 -77.38 266.1 -81.03 280.45 -85.4 "
         id="polyline45" /><polyline
         fill="none"
         stroke="#444"
         stroke-width="0.5"
         stroke-linecap="square"
         stroke-miterlimit="1"
         points="276.42 -77.84 275.58 -80.75 274.71 -83.66 273.81 -86.55 272.88 -89.44 "
         id="polyline47" /><polyline
         fill="none"
         stroke="#444"
         stroke-width="0.5"
         stroke-linecap="square"
         stroke-miterlimit="1"
         points="269.06 -57.67 268.43 -60.51 267.78 -63.34 267.09 -66.16 269.29 -69.73 275.09 -71.23 278.74 -69.05 279.46 -66.1 280.14 -63.14 280.79 -60.18 "
         id="polyline49" /><polyline
         fill="none"
         stroke="#444"
         stroke-width="0.5"
         stroke-linecap="square"
         stroke-miterlimit="1"
         points="276.11 -53.11 279.6 -50.73 283.08 -48.28 283.57 -45.29 281.07 -41.85 272.17 -40.52 "
         id="polyline51" /><polyline
         fill="none"
         stroke="#444"
         stroke-width="0.5"
         stroke-linecap="square"
         stroke-miterlimit="1"
         points="270.21 -51.98 287.89 -55.38 "
         id="polyline53" /><polyline
         fill="none"
         stroke="#444"
         stroke-width="0.5"
         stroke-linecap="square"
         stroke-miterlimit="1"
         points="274.42 -20.32 274.61 -17.42 274.78 -14.52 274.92 -11.62 278.03 -8.81 290.02 -9.19 292.91 -12.38 292.76 -15.47 292.58 -18.56 292.37 -21.65 "
         id="polyline55" /><polyline
         fill="none"
         stroke="#444"
         stroke-width="0.5"
         stroke-linecap="square"
         stroke-miterlimit="1"
         points="292.58 -18.56 274.61 -17.42 "
         id="polyline57" /><polyline
         fill="none"
         stroke="#444"
         stroke-width="0.5"
         stroke-linecap="square"
         stroke-miterlimit="1"
         points="287.02 9.09 287.1 6.06 287.15 3.03 287.17 0 287.15 -3.03 "
         id="polyline59" /><polyline
         fill="none"
         stroke="#444"
         stroke-width="0.5"
         stroke-linecap="square"
         stroke-miterlimit="1"
         points="281.03 8.9 281.1 5.94 281.15 2.97 281.17 0 281.15 -2.97 "
         id="polyline61" /><polyline
         fill="none"
         stroke="#444"
         stroke-width="0.5"
         stroke-linecap="square"
         stroke-miterlimit="1"
         points="283.77 14.99 283.6 17.99 283.39 20.98 283.15 23.97 279.9 26.67 276.91 26.39 274.19 23.21 274.42 20.32 274.61 17.42 277.78 14.68 286.77 15.15 289.58 18.37 292.37 21.65 292.12 24.73 "
         id="polyline63" /><polyline
         fill="none"
         stroke="#444"
         stroke-width="0.5"
         stroke-linecap="square"
         stroke-miterlimit="1"
         points="276.29 32.23 273.31 31.88 "
         id="polyline65" /><polyline
         fill="none"
         stroke="#444"
         stroke-width="0.5"
         stroke-linecap="square"
         stroke-miterlimit="1"
         points="281.49 38.88 281.07 41.85 280.61 44.81 280.12 47.77 276.65 50.19 273.7 49.66 271.25 46.26 271.72 43.39 272.17 40.52 275.55 38.06 284.47 39.29 287 42.73 289.5 46.23 288.99 49.29 "
         id="polyline67" /><polyline
         fill="none"
         stroke="#444"
         stroke-width="0.5"
         stroke-linecap="square"
         stroke-miterlimit="1"
         points="287.29 58.41 286.66 61.44 285.99 64.46 285.29 67.48 284.57 70.49 276.54 65.41 268.43 60.51 "
         id="polyline69" /><polyline
         fill="none"
         stroke="#444"
         stroke-width="0.5"
         stroke-linecap="square"
         stroke-miterlimit="1"
         points="270.03 88.5 269.08 91.35 268.1 94.18 267.1 97.01 268.87 100.88 271.67 101.93 275.55 100.08 276.6 97.17 277.61 94.24 278.59 91.31 261.48 85.7 "
         id="polyline71" /><polyline
         fill="none"
         stroke="#444"
         stroke-width="0.5"
         stroke-linecap="square"
         stroke-miterlimit="1"
         points="261.94 117.69 263.17 114.92 264.37 112.14 265.54 109.34 266.68 106.53 "
         id="polyline73" /><polyline
         fill="none"
         stroke="#444"
         stroke-width="0.5"
         stroke-linecap="square"
         stroke-miterlimit="1"
         points="256.47 115.24 257.67 112.52 258.84 109.8 259.99 107.06 261.1 104.31 "
         id="polyline75" /><polyline
         fill="none"
         stroke="#444"
         stroke-width="0.5"
         stroke-linecap="square"
         stroke-miterlimit="1"
         points="256.69 121.91 255.39 124.61 254.06 127.3 252.7 129.98 248.66 131.24 246.01 129.84 244.69 125.86 246.01 123.27 247.3 120.67 251.27 119.34 259.4 123.2 260.78 127.25 262.1 131.34 260.7 134.1 "
         id="polyline77" /><polyline
         fill="none"
         stroke="#444"
         stroke-width="0.5"
         stroke-linecap="square"
         stroke-miterlimit="1"
         points="240.83 150.83 239.23 153.37 237.59 155.88 235.94 158.38 236.72 162.56 239.2 164.26 243.41 163.4 245.12 160.82 246.8 158.22 248.46 155.61 233.2 146.06 "
         id="polyline79" /><polyline
         fill="none"
         stroke="#444"
         stroke-width="0.5"
         stroke-linecap="square"
         stroke-miterlimit="1"
         points="223.49 160.52 228.37 164.02 231.46 169.98 234.45 176.01 227.82 174.83 221.24 173.52 216.52 169.82 "
         id="polyline81" /><polyline
         fill="none"
         stroke="#444"
         stroke-width="0.5"
         stroke-linecap="square"
         stroke-miterlimit="1"
         points="228.37 164.02 226.62 166.43 224.85 168.81 223.06 171.17 221.24 173.52 "
         id="polyline83" /><polyline
         fill="none"
         stroke="#444"
         stroke-width="0.5"
         stroke-linecap="square"
         stroke-miterlimit="1"
         points="214.29 191.17 216.29 188.9 218.28 186.6 220.23 184.29 222.17 181.95 "
         id="polyline85" /><polyline
         fill="none"
         stroke="#444"
         stroke-width="0.5"
         stroke-linecap="square"
         stroke-miterlimit="1"
         points="209.81 187.18 211.77 184.95 213.71 182.7 215.63 180.44 217.52 178.15 "
         id="polyline87" /><polyline
         fill="none"
         stroke="#444"
         stroke-width="0.5"
         stroke-linecap="square"
         stroke-miterlimit="1"
         points="193.32 195.81 195.38 193.76 197.42 191.69 199.43 189.59 201.42 187.48 205.81 191.56 205.95 195.79 203.87 197.96 201.77 200.1 201.76 204.35 203.86 206.49 208.16 206.43 210.33 204.23 212.47 201.99 212.4 197.7 "
         id="polyline89" /><polyline
         fill="none"
         stroke="#444"
         stroke-width="0.5"
         stroke-linecap="square"
         stroke-miterlimit="1"
         points="184.72 207.98 184.89 203.8 187.03 201.84 191.21 202.03 199.46 210.74 199.26 215.04 196.98 217.13 192.68 216.95 184.72 207.98 "
         id="polyline91" /></g></g><path
     style="opacity:0.2;fill:none;stroke:#ff0000;stroke-miterlimit:10"
     d="M 333.32999,0 C 333.32999,184.09307 184.09307,333.32999 0,333.32999 -184.09307,333.32999 -333.32999,184.09307 -333.32999,0 c 0,-184.09307 149.23692,-333.32999 333.32999,-333.32999 184.09307,0 333.32999,149.23692 333.32999,333.32999 z"
     id="circle95" /><circle
     style="opacity:0.2;fill:none;stroke:#cccccc;stroke-miterlimit:10;stroke-dasharray:2, 2"
     sodipodi:ry="350"
     sodipodi:rx="350"
     sodipodi:cy="0"
     sodipodi:cx="0"
     d="M 350,0 C 350,193.29966 193.29966,350 0,350 -193.29966,350 -350,193.29966 -350,0 c 0,-193.29966 156.70034,-350 350,-350 193.29966,0 350,156.70034 350,350 z"
     id="circle97"
     r="350"
     cy="0"
     cx="0"
     stroke-miterlimit="10"
     class="outer" /><circle
     style="opacity:0.2;fill:none;stroke:#0000ff;stroke-miterlimit:10;stroke-dasharray:2, 2"
     sodipodi:ry="313.23001"
     sodipodi:rx="313.23001"
     sodipodi:cy="0"
     sodipodi:cx="0"
     d="M 313.23001,0 C 313.23001,172.99216 172.99216,313.23001 0,313.23001 -172.99216,313.23001 -313.23001,172.99216 -313.23001,0 c 0,-172.99216 140.23785,-313.23001 313.23001,-313.23001 172.99216,0 313.23001,140.23785 313.23001,313.23001 z"
     id="circle99"
     r="313.23001"
     cy="0"
     cx="0"
     stroke-miterlimit="10"
     class="base" /></svg>