<?xml version="1.0" encoding="utf-8"?><!-- Generator: Iparigrafika Gear Generator by Abel Vincze http://geargenerator.com/ --><svg version="1.2" class="svggear" xmlns="http://www.w3.org/2000/svg" xmlns:xlink="http://www.w3.org/1999/xlink" x="0px" y="0px" width="168px" height="168px" viewBox="-84 -84 168 168" overflow="scroll" xml:space="preserve"><polygon id="gearpoly0" data-id="0" class="gear" fill="#ddd" stroke="#444" stroke-width="1" stroke-miterlimit="10" points="47.5,0 62.6557,-0.0001 62.7629,-0.0048 62.9887,-0.024 63.3318,-0.068 63.7901,-0.1472 64.3611,-0.2716 65.0414,-0.4512 65.8272,-0.6956 66.7137,-1.0144 67.696,-1.4167 68.768,-1.9114 69.9235,-2.507 71.1554,-3.2116 72.4563,-4.0329 73.8181,-4.9782 75.2323,-6.0541 76.6899,-7.267 78.1815,-8.6224 79.6973,-10.1256 81.227,-11.7811 82.2316,-13.5059 80.7211,-20.7013 79.1078,-21.8766 77.0415,-22.7772 75.0492,-23.544 73.1384,-24.1852 71.3161,-24.7095 69.5886,-25.126 67.9617,-25.4438 66.4403,-25.6727 65.0291,-25.8224 63.7316,-25.9031 62.5512,-25.9249 61.4901,-25.8983 60.5501,-25.8336 59.7324,-25.7415 59.0373,-25.6323 58.4645,-25.5166 58.013,-25.4048 57.6812,-25.3072 57.4668,-25.234 57.3667,-25.1952 43.4903,-19.1008 33.5876,-33.5876 44.3042,-44.3044 44.3767,-44.3835 44.5228,-44.5567 44.7342,-44.8304 45.0023,-45.2105 45.3181,-45.7022 45.6722,-46.3103 46.0549,-47.0387 46.4564,-47.891 46.8665,-48.87 47.2747,-49.9779 47.6706,-51.2161 48.0435,-52.5854 48.3826,-54.086 48.6772,-55.7174 48.9164,-57.4782 49.0894,-59.3665 49.1857,-61.3797 49.1946,-63.5144 49.1057,-65.7667 48.5964,-67.6967 42.4404,-71.7165 40.4686,-71.4067 38.3707,-70.5824 36.4197,-69.7159 34.6152,-68.8182 32.9558,-67.9004 31.4399,-66.9733 30.0647,-66.0476 28.8271,-65.1337 27.7233,-64.2417 26.7488,-63.3813 25.8987,-62.562 25.1672,-61.7929 24.5483,-61.0826 24.0352,-60.4392 23.6209,-59.8705 23.2977,-59.3836 23.0575,-58.9853 22.8919,-58.6817 22.792,-58.4783 22.7487,-58.3801 17.246,-44.2586 0,-47.5 -0.0001,-62.6557 -0.0048,-62.7629 -0.024,-62.9887 -0.068,-63.3318 -0.1472,-63.7901 -0.2716,-64.3611 -0.4512,-65.0414 -0.6956,-65.8272 -1.0144,-66.7137 -1.4167,-67.696 -1.9114,-68.768 -2.507,-69.9235 -3.2116,-71.1554 -4.0329,-72.4563 -4.9782,-73.8181 -6.0541,-75.2323 -7.267,-76.6899 -8.6224,-78.1815 -10.1256,-79.6973 -11.7811,-81.227 -13.5059,-82.2316 -20.7013,-80.7211 -21.8766,-79.1078 -22.7772,-77.0415 -23.544,-75.0492 -24.1852,-73.1384 -24.7095,-71.3161 -25.126,-69.5886 -25.4438,-67.9617 -25.6727,-66.4403 -25.8224,-65.0291 -25.9031,-63.7316 -25.9249,-62.5512 -25.8983,-61.4901 -25.8336,-60.5501 -25.7415,-59.7324 -25.6323,-59.0373 -25.5166,-58.4645 -25.4048,-58.013 -25.3072,-57.6812 -25.234,-57.4668 -25.1952,-57.3667 -19.1008,-43.4903 -33.5876,-33.5876 -44.3044,-44.3042 -44.3835,-44.3767 -44.5567,-44.5228 -44.8304,-44.7342 -45.2105,-45.0023 -45.7022,-45.3181 -46.3103,-45.6722 -47.0387,-46.0549 -47.891,-46.4564 -48.87,-46.8665 -49.9779,-47.2747 -51.2161,-47.6706 -52.5854,-48.0435 -54.086,-48.3826 -55.7174,-48.6772 -57.4782,-48.9164 -59.3665,-49.0894 -61.3797,-49.1857 -63.5144,-49.1946 -65.7667,-49.1057 -67.6967,-48.5964 -71.7165,-42.4404 -71.4067,-40.4686 -70.5824,-38.3707 -69.7159,-36.4197 -68.8182,-34.6152 -67.9004,-32.9558 -66.9733,-31.4399 -66.0476,-30.0647 -65.1337,-28.8271 -64.2417,-27.7233 -63.3813,-26.7488 -62.562,-25.8987 -61.7929,-25.1672 -61.0826,-24.5483 -60.4392,-24.0352 -59.8705,-23.6209 -59.3836,-23.2977 -58.9853,-23.0575 -58.6817,-22.8919 -58.4783,-22.792 -58.3801,-22.7487 -44.2586,-17.246 -47.5,0 -62.6557,0.0001 -62.7629,0.0048 -62.9887,0.024 -63.3318,0.068 -63.7901,0.1472 -64.3611,0.2716 -65.0414,0.4512 -65.8272,0.6956 -66.7137,1.0144 -67.696,1.4167 -68.768,1.9114 -69.9235,2.507 -71.1554,3.2116 -72.4563,4.0329 -73.8181,4.9782 -75.2323,6.0541 -76.6899,7.267 -78.1815,8.6224 -79.6973,10.1256 -81.227,11.7811 -82.2316,13.5059 -80.7211,20.7013 -79.1078,21.8766 -77.0415,22.7772 -75.0492,23.544 -73.1384,24.1852 -71.3161,24.7095 -69.5886,25.126 -67.9617,25.4438 -66.4403,25.6727 -65.0291,25.8224 -63.7316,25.9031 -62.5512,25.9249 -61.4901,25.8983 -60.5501,25.8336 -59.7324,25.7415 -59.0373,25.6323 -58.4645,25.5166 -58.013,25.4048 -57.6812,25.3072 -57.4668,25.234 -57.3667,25.1952 -43.4903,19.1008 -33.5876,33.5876 -44.3042,44.3044 -44.3767,44.3835 -44.5228,44.5567 -44.7342,44.8304 -45.0023,45.2105 -45.3181,45.7022 -45.6722,46.3103 -46.0549,47.0387 -46.4564,47.891 -46.8665,48.87 -47.2747,49.9779 -47.6706,51.2161 -48.0435,52.5854 -48.3826,54.086 -48.6772,55.7174 -48.9164,57.4782 -49.0894,59.3665 -49.1857,61.3797 -49.1946,63.5144 -49.1057,65.7667 -48.5964,67.6967 -42.4404,71.7165 -40.4686,71.4067 -38.3707,70.5824 -36.4197,69.7159 -34.6152,68.8182 -32.9558,67.9004 -31.4399,66.9733 -30.0647,66.0476 -28.8271,65.1337 -27.7233,64.2417 -26.7488,63.3813 -25.8987,62.562 -25.1672,61.7929 -24.5483,61.0826 -24.0352,60.4392 -23.6209,59.8705 -23.2977,59.3836 -23.0575,58.9853 -22.8919,58.6817 -22.792,58.4783 -22.7487,58.3801 -17.246,44.2586 0,47.5 0.0001,62.6557 0.0048,62.7629 0.024,62.9887 0.068,63.3318 0.1472,63.7901 0.2716,64.3611 0.4512,65.0414 0.6956,65.8272 1.0144,66.7137 1.4167,67.696 1.9114,68.768 2.507,69.9235 3.2116,71.1554 4.0329,72.4563 4.9782,73.8181 6.0541,75.2323 7.267,76.6899 8.6224,78.1815 10.1256,79.6973 11.7811,81.227 13.5059,82.2316 20.7013,80.7211 21.8766,79.1078 22.7772,77.0415 23.544,75.0492 24.1852,73.1384 24.7095,71.3161 25.126,69.5886 25.4438,67.9617 25.6727,66.4403 25.8224,65.0291 25.9031,63.7316 25.9249,62.5512 25.8983,61.4901 25.8336,60.5501 25.7415,59.7324 25.6323,59.0373 25.5166,58.4645 25.4048,58.013 25.3072,57.6812 25.234,57.4668 25.1952,57.3667 19.1008,43.4903 33.5876,33.5876 44.3044,44.3042 44.3835,44.3767 44.5567,44.5228 44.8304,44.7342 45.2105,45.0023 45.7022,45.3181 46.3103,45.6722 47.0387,46.0549 47.891,46.4564 48.87,46.8665 49.9779,47.2747 51.2161,47.6706 52.5854,48.0435 54.086,48.3826 55.7174,48.6772 57.4782,48.9164 59.3665,49.0894 61.3797,49.1857 63.5144,49.1946 65.7667,49.1057 67.6967,48.5964 71.7165,42.4404 71.4067,40.4686 70.5824,38.3707 69.7159,36.4197 68.8182,34.6152 67.9004,32.9558 66.9733,31.4399 66.0476,30.0647 65.1337,28.8271 64.2417,27.7233 63.3813,26.7488 62.562,25.8987 61.7929,25.1672 61.0826,24.5483 60.4392,24.0352 59.8705,23.6209 59.3836,23.2977 58.9853,23.0575 58.6817,22.8919 58.4783,22.792 58.3801,22.7487 44.2586,17.246 "/><g class="guides"><polyline fill="none" stroke="#444" stroke-width="0.5" stroke-miterlimit="10" points="10,0 -10,0"/><polyline fill="none" stroke="#444" stroke-width="0.5" stroke-miterlimit="10" points="0,10 0,-10"/></g><circle fill="#c00" class="firstmarker" stroke="none" stroke-miterlimit="10" cx="65.2446" cy="-13.6962" r="6.5417"/><g class="geartext"><g class="text"><polyline fill="none" stroke="#444" stroke-width="0.5" stroke-linecap="square" stroke-miterlimit="1"  points="-24.45 -26.68 -25.27 -25.91 -26.07 -25.1 -26.84 -24.28 -27.58 -23.43 "/><polyline fill="none" stroke="#444" stroke-width="0.5" stroke-linecap="square" stroke-miterlimit="1"  points="-24.44 -23.54 -27.7 -26.67 "/><polyline fill="none" stroke="#444" stroke-width="0.5" stroke-linecap="square" stroke-miterlimit="1"  points="-25.98 -28.35 -26.06 -26.72 -26.07 -25.1 -26 -23.52 -25.86 -21.96 "/><polyline fill="none" stroke="#444" stroke-width="0.5" stroke-linecap="square" stroke-miterlimit="1"  points="-22.92 -25.02 -24.48 -25.1 -26.07 -25.1 -27.68 -25.04 -29.31 -24.89 "/><polyline fill="none" stroke="#444" stroke-width="0.5" stroke-linecap="square" stroke-miterlimit="1"  points="-18.75 -28.28 -18.97 -26.76 -19.8 -26.15 -21.31 -26.4 -24.15 -29.92 -23.89 -31.56 -22.89 -32.29 -21.25 -32.05 -18.75 -28.28 "/><polyline fill="none" stroke="#444" stroke-width="0.5" stroke-linecap="square" stroke-miterlimit="1"  points="-9.47 -38.43 -7.85 -31.84 -9.3 -33.22 -10.84 -34.53 -12.47 -35.78 -14.19 -36.95 -11.76 -30.62 "/><polyline fill="none" stroke="#444" stroke-width="0.5" stroke-linecap="square" stroke-miterlimit="1"  points="-2.02 -37.27 -3.19 -37.19 -4.35 -37.07 -5.5 -36.91 -6.65 -36.72 "/><polyline fill="none" stroke="#444" stroke-width="0.5" stroke-linecap="square" stroke-miterlimit="1"  points="-1.9 -35.01 -2.99 -34.93 -4.08 -34.82 -5.17 -34.68 -6.25 -34.5 "/><polyline fill="none" stroke="#444" stroke-width="0.5" stroke-linecap="square" stroke-miterlimit="1"  points="1.43 -36.16 0.29 -35.06 0.28 -33.93 1.3 -32.77 2.32 -32.72 3.34 -32.63 4.51 -33.63 4.66 -34.75 3.69 -36 2.56 -36.1 1.43 -36.16 0.31 -37.32 0.32 -38.45 1.56 -39.55 2.8 -39.48 4.03 -39.38 5.11 -38.11 4.96 -36.99 3.69 -36 "/><polyline fill="none" stroke="#444" stroke-width="0.5" stroke-linecap="square" stroke-miterlimit="1"  points="12.48 -33.97 13.53 -33.56 14.58 -33.13 15.6 -32.65 17.14 -33.15 17.66 -34.16 17.07 -35.71 15.94 -36.23 14.8 -36.71 13.65 -37.16 11.31 -30.79 "/><polyline fill="none" stroke="#444" stroke-width="0.5" stroke-linecap="square" stroke-miterlimit="1"  points="16.85 -28.14 19.17 -32.02 "/><polyline fill="none" stroke="#444" stroke-width="0.5" stroke-linecap="square" stroke-miterlimit="1"  points="19.75 -32.99 20.34 -33.96 "/><polyline fill="none" stroke="#444" stroke-width="0.5" stroke-linecap="square" stroke-miterlimit="1"  points="22.55 -25.35 21.02 -25.17 20.92 -26.71 24.41 -31.16 "/><polyline fill="none" stroke="#444" stroke-width="0.5" stroke-linecap="square" stroke-miterlimit="1"  points="24.81 -27.88 23.92 -28.65 23.02 -29.38 22.09 -30.08 21.14 -30.76 "/><polyline fill="none" stroke="#444" stroke-width="0.5" stroke-linecap="square" stroke-miterlimit="1"  points="25.99 -20.01 25.35 -20.81 24.68 -21.6 24 -22.36 24.09 -23.89 25.7 -25.48 27.31 -25.44 28.09 -24.57 28.84 -23.68 29.57 -22.77 "/><polyline fill="none" stroke="#444" stroke-width="0.5" stroke-linecap="square" stroke-miterlimit="1"  points="29.06 -19.61 30.61 -19.3 32.18 -18.91 32.75 -17.89 32.29 -16.35 29.26 -14.82 "/><polyline fill="none" stroke="#444" stroke-width="0.5" stroke-linecap="square" stroke-miterlimit="1"  points="27.18 -18.35 32.81 -22.15 "/><polyline fill="none" stroke="#444" stroke-width="0.5" stroke-linecap="square" stroke-miterlimit="1"  points="31.78 -8.11 32.02 -7.12 32.22 -6.11 32.4 -5.1 33.66 -4.23 38.15 -4.79 39.1 -6.16 38.89 -7.38 38.64 -8.59 38.35 -9.79 "/><polyline fill="none" stroke="#444" stroke-width="0.5" stroke-linecap="square" stroke-miterlimit="1"  points="38.64 -8.59 32.02 -7.12 "/><polyline fill="none" stroke="#444" stroke-width="0.5" stroke-linecap="square" stroke-miterlimit="1"  points="37.25 2.33 37.3 1.17 37.32 0 37.3 -1.17 37.25 -2.33 "/><polyline fill="none" stroke="#444" stroke-width="0.5" stroke-linecap="square" stroke-miterlimit="1"  points="34.99 2.19 35.04 1.1 35.06 0 35.04 -1.1 34.99 -2.19 "/><polyline fill="none" stroke="#444" stroke-width="0.5" stroke-linecap="square" stroke-miterlimit="1"  points="38.15 4.79 39.1 6.16 32.4 5.1 "/><polyline fill="none" stroke="#444" stroke-width="0.5" stroke-linecap="square" stroke-miterlimit="1"  points="32.22 6.11 32.4 5.1 32.54 4.09 "/><polyline fill="none" stroke="#444" stroke-width="0.5" stroke-linecap="square" stroke-miterlimit="1"  points="32.87 8.39 31.78 8.11 "/><polyline fill="none" stroke="#444" stroke-width="0.5" stroke-linecap="square" stroke-miterlimit="1"  points="36.59 11.82 37.27 13.34 36.83 14.5 36.36 15.64 34.83 16.29 33.81 15.81 33.24 14.3 31.76 14.85 30.73 14.37 30.13 12.96 30.52 12.01 30.88 11.05 32.29 10.43 "/><polyline fill="none" stroke="#444" stroke-width="0.5" stroke-linecap="square" stroke-miterlimit="1"  points="33.68 13.26 33.24 14.3 "/><polyline fill="none" stroke="#444" stroke-width="0.5" stroke-linecap="square" stroke-miterlimit="1"  points="33.75 18.44 34.13 20.05 33.48 21.11 32.81 22.15 31.18 22.5 30.27 21.84 30 20.25 28.43 20.51 27.51 19.85 27.18 18.35 27.74 17.49 28.28 16.62 29.78 16.27 "/><polyline fill="none" stroke="#444" stroke-width="0.5" stroke-linecap="square" stroke-miterlimit="1"  points="30.61 19.3 30 20.25 "/><polyline fill="none" stroke="#444" stroke-width="0.5" stroke-linecap="square" stroke-miterlimit="1"  points="24.05 27.04 23.2 27.78 22.32 28.49 21.42 29.17 21.14 30.76 21.78 31.69 23.43 31.91 24.41 31.16 25.37 30.38 26.31 29.57 21.8 24.5 "/><polyline fill="none" stroke="#444" stroke-width="0.5" stroke-linecap="square" stroke-miterlimit="1"  points="15.03 34.16 16.09 33.67 17.14 33.15 18.16 32.6 19.17 32.02 "/><polyline fill="none" stroke="#444" stroke-width="0.5" stroke-linecap="square" stroke-miterlimit="1"  points="14.12 32.09 15.12 31.63 16.1 31.15 17.06 30.63 18.01 30.08 "/><polyline fill="none" stroke="#444" stroke-width="0.5" stroke-linecap="square" stroke-miterlimit="1"  points="12.48 33.97 11.41 34.34 10.33 34.68 9.24 34.99 7.89 34.16 7.64 33.06 8.38 31.71 9.36 31.43 10.34 31.12 11.7 31.85 12.87 35.03 12.12 36.49 11.3 37.94 10.11 38.27 "/><polyline fill="none" stroke="#444" stroke-width="0.5" stroke-linecap="square" stroke-miterlimit="1"  points="0.3 36.19 -0.83 36.18 -1.96 36.14 -3.09 36.06 -4.35 37.07 -4.48 38.19 -3.38 39.44 -2.14 39.53 -0.91 39.57 0.33 39.58 0.27 32.8 "/><polyline fill="none" stroke="#444" stroke-width="0.5" stroke-linecap="square" stroke-miterlimit="1"  points="-5.85 32.27 -6.25 34.5 -7.8 36.5 -9.47 38.43 -10.06 35.94 -10.5 33.45 -9.82 31.29 "/><polyline fill="none" stroke="#444" stroke-width="0.5" stroke-linecap="square" stroke-miterlimit="1"  points="-6.25 34.5 -7.32 34.29 -8.39 34.04 -9.45 33.76 -10.5 33.45 "/><polyline fill="none" stroke="#444" stroke-width="0.5" stroke-linecap="square" stroke-miterlimit="1"  points="-17.62 32.9 -16.58 33.43 -15.53 33.94 -14.46 34.4 -13.38 34.84 "/><polyline fill="none" stroke="#444" stroke-width="0.5" stroke-linecap="square" stroke-miterlimit="1"  points="-16.55 30.91 -15.58 31.41 -14.59 31.88 -13.59 32.32 -12.57 32.73 "/><polyline fill="none" stroke="#444" stroke-width="0.5" stroke-linecap="square" stroke-miterlimit="1"  points="-20.6 25.52 -19.8 26.15 -18.97 26.76 -18.12 27.34 -17.26 27.89 -18.45 29.81 -20 30.16 -20.93 29.52 -21.84 28.86 -23.44 29.04 -24.15 29.92 -23.89 31.56 -22.89 32.29 -21.87 32.99 -20.24 32.7 "/><polyline fill="none" stroke="#444" stroke-width="0.5" stroke-linecap="square" stroke-miterlimit="1"  points="-25.16 22.76 -23.62 22.75 -22.9 23.48 -22.92 25.02 -25.98 28.35 -27.64 28.34 -28.51 27.46 -28.52 25.8 -25.16 22.76 "/></g></g><g class="guides gearguides" opacity="0.2"><circle class="pitch" fill="none" stroke="#f00" stroke-miterlimit="10" cx="0" cy="0" r="66.67"/><circle class="outer" fill="none" stroke="#ccc" stroke-miterlimit="10" stroke-dasharray="2,2" cx="0" cy="0" r="83.33"/><circle class="base" fill="none" stroke="#00f" stroke-miterlimit="10" stroke-dasharray="2,2" cx="0" cy="0" r="62.65"/></g></svg>